<svg width="305" height="305" viewBox="0 0 305 305" fill="none" xmlns="http://www.w3.org/2000/svg">
<path d="M305 233.264H0V233.416H305V233.264Z" fill="#EBEBEB"/>
<path d="M274.439 243.079H254.235V243.231H274.439V243.079Z" fill="#EBEBEB"/>
<path d="M202.044 244.738H196.743V244.891H202.044V244.738Z" fill="#EBEBEB"/>
<path d="M253.626 237.418H241.92V237.571H253.626V237.418Z" fill="#EBEBEB"/>
<path d="M58.3469 238.443H32.001V238.595H58.3469V238.443Z" fill="#EBEBEB"/>
<path d="M67.6426 238.443H63.7812V238.595H67.6426V238.443Z" fill="#EBEBEB"/>
<path d="M137.341 241.017H80.1963V241.17H137.341V241.017Z" fill="#EBEBEB"/>
<path d="M144.57 206.058H26.7846C25.8619 206.056 24.9775 205.689 24.3256 205.036C23.6737 204.383 23.3076 203.498 23.3076 202.575V37.0026C23.3156 36.0852 23.6853 35.208 24.3363 34.5615C24.9874 33.915 25.8672 33.5516 26.7846 33.55H144.57C145.493 33.55 146.379 33.917 147.032 34.5702C147.686 35.2234 148.053 36.1093 148.053 37.0331V202.575C148.053 203.499 147.686 204.385 147.032 205.038C146.379 205.691 145.493 206.058 144.57 206.058ZM26.7846 33.672C25.9023 33.6736 25.0568 34.0252 24.4335 34.6497C23.8102 35.2741 23.4601 36.1203 23.4601 37.0026V202.575C23.4601 203.457 23.8102 204.303 24.4335 204.928C25.0568 205.552 25.9023 205.904 26.7846 205.905H144.57C145.452 205.904 146.299 205.552 146.923 204.928C147.547 204.304 147.899 203.458 147.9 202.575V37.0026C147.899 36.1198 147.547 35.2735 146.923 34.6493C146.299 34.025 145.452 33.6736 144.57 33.672H26.7846Z" fill="#EBEBEB"/>
<path d="M276.519 206.058H158.728C157.805 206.056 156.92 205.689 156.267 205.036C155.614 204.383 155.247 203.498 155.245 202.575V37.0026C155.255 36.0846 155.626 35.2074 156.278 34.5611C156.93 33.9148 157.81 33.5515 158.728 33.55H276.519C277.436 33.5532 278.314 33.9174 278.964 34.5636C279.613 35.2099 279.982 36.0862 279.99 37.0026V202.575C279.99 203.497 279.625 204.381 278.974 205.034C278.324 205.686 277.441 206.055 276.519 206.058ZM158.728 33.672C157.845 33.6736 156.999 34.025 156.375 34.6493C155.751 35.2735 155.399 36.1198 155.398 37.0026V202.575C155.399 203.458 155.751 204.304 156.375 204.928C156.999 205.552 157.845 205.904 158.728 205.905H276.519C277.402 205.904 278.248 205.552 278.873 204.928C279.497 204.304 279.848 203.458 279.85 202.575V37.0026C279.848 36.1198 279.497 35.2735 278.873 34.6493C278.248 34.025 277.402 33.6736 276.519 33.672H158.728Z" fill="#EBEBEB"/>
<path d="M227.628 79.3061H218.984V106.213H227.628V79.3061Z" fill="#E6E6E6"/>
<path d="M251.058 106.213H222.376L218.045 74.7189H246.727L251.058 106.213Z" fill="#F0F0F0"/>
<path d="M254.163 106.213H224.541L220.21 74.7189H249.832L254.163 106.213Z" fill="#F5F5F5"/>
<path d="M226.682 103.731L223.034 77.2016H247.69L251.344 103.731H226.682Z" fill="white"/>
<path d="M231.556 95.6968L230.184 85.7416C230.143 85.4788 230.16 85.2104 230.233 84.9549C230.307 84.6993 230.435 84.4629 230.609 84.262C230.784 84.0611 230.999 83.9006 231.242 83.7916C231.485 83.6827 231.748 83.6278 232.014 83.631H240.975C241.423 83.6276 241.858 83.7891 242.195 84.0848C242.532 84.3806 242.749 84.79 242.805 85.2353L244.171 95.1966C244.211 95.4589 244.193 95.7267 244.119 95.9814C244.045 96.2362 243.917 96.4718 243.743 96.672C243.569 96.8722 243.353 97.0321 243.111 97.1408C242.869 97.2494 242.606 97.3041 242.341 97.3011H233.392C232.943 97.306 232.507 97.1452 232.168 96.8493C231.83 96.5533 231.612 96.1431 231.556 95.6968Z" fill="#F5F5F5"/>
<path d="M173.82 49.8248H44.6279V129.521H173.82V49.8248Z" fill="#E6E6E6"/>
<path d="M177.138 49.8248H46.1768V129.521H177.138V49.8248Z" fill="#F0F0F0"/>
<path d="M173.82 129.527H44.6279V135.695H173.82V129.527Z" fill="#E6E6E6"/>
<path d="M182.664 129.527H51.7031V135.695H182.664V129.527Z" fill="#F0F0F0"/>
<path d="M172.489 124.879V54.473L50.8248 54.473V124.879L172.489 124.879Z" fill="#FAFAFA"/>
<path d="M59.7559 124.879L87.029 54.473H99.9L72.6269 124.879H59.7559Z" fill="white"/>
<path d="M75.3965 124.879L102.67 54.473H107.684L80.4107 124.879H75.3965Z" fill="white"/>
<path d="M123.11 124.879L150.383 54.473H155.398L128.131 124.879H123.11Z" fill="white"/>
<path d="M172.483 124.879V54.473H171.892V124.879H172.483Z" fill="#E6E6E6"/>
<path d="M271.755 106.213H244.402V233.264H271.755V106.213Z" fill="#E6E6E6"/>
<path d="M269.003 233.264H271.755V225.438H266.118L269.003 233.264Z" fill="#F0F0F0"/>
<path d="M223.827 106.213H196.475V233.264H223.827V106.213Z" fill="#E6E6E6"/>
<path d="M271.755 106.213H221.424V228.463H271.755V106.213Z" fill="#F0F0F0"/>
<path d="M224.175 233.264H221.424V225.438H227.06L224.175 233.264Z" fill="#F0F0F0"/>
<path d="M269.62 108.452H223.559V166.121H269.62V108.452Z" fill="#E6E6E6"/>
<path d="M251.576 112.941H241.602C239.458 112.941 237.336 112.504 235.367 111.657C233.397 110.809 231.621 109.569 230.146 108.013H263.032C261.558 109.57 259.782 110.811 257.812 111.658C255.842 112.506 253.72 112.942 251.576 112.941Z" fill="#F0F0F0"/>
<path d="M269.62 168.458H223.559V226.127H269.62V168.458Z" fill="#E6E6E6"/>
<path d="M251.576 172.947H241.602C239.458 172.947 237.336 172.51 235.367 171.662C233.397 170.815 231.621 169.575 230.146 168.018H263.032C261.558 169.576 259.782 170.816 257.812 171.664C255.842 172.511 253.72 172.948 251.576 172.947Z" fill="#F0F0F0"/>
<path d="M78.9951 146.333H124.513L131.114 173.216H85.5892L78.9951 146.333Z" fill="#E6E6E6"/>
<path d="M85.5889 173.216L85.778 174.698H131.296L131.113 173.216H85.5889Z" fill="#E6E6E6"/>
<path d="M80.3984 146.333H125.917L132.517 173.216H86.9925L80.3984 146.333Z" fill="#F0F0F0"/>
<path d="M87.9563 171.983L81.96 147.559H124.953L130.949 171.983H87.9563Z" fill="white"/>
<path d="M98.8564 173.216L99.0394 174.698H149.163L148.98 173.216H98.8564Z" fill="#F0F0F0"/>
<path d="M160.601 174.698H155.147V233.258H160.601V174.698Z" fill="#E6E6E6"/>
<path d="M162.327 174.698H158.539V233.258H162.327V174.698Z" fill="#F0F0F0"/>
<path d="M93.2258 181.402H163.504V174.698H93.2258V181.402Z" fill="#F0F0F0"/>
<path d="M90.7806 181.402H85.3271V233.258H90.7806V181.402Z" fill="#E6E6E6"/>
<path d="M92.5 181.402H88.7119V233.258H92.5V181.402Z" fill="#F0F0F0"/>
<path d="M56.26 181.402H50.8066V233.258H56.26V181.402Z" fill="#E6E6E6"/>
<path d="M57.9863 181.402H54.1982V233.258H57.9863V181.402Z" fill="#F0F0F0"/>
<path d="M126.087 181.402H120.634V233.258H126.087V181.402Z" fill="#E6E6E6"/>
<path d="M127.808 181.402H124.02V233.258H127.808V181.402Z" fill="#F0F0F0"/>
<path d="M93.2199 174.698H50.8066V181.402H93.2199V174.698Z" fill="#E6E6E6"/>
<path d="M178.328 233.264H177.004L173.24 214.574L172.575 211.298L168.403 190.93H152.543L143.96 233.264H142.618L151.378 190.149C151.405 190.006 151.481 189.877 151.592 189.783C151.703 189.689 151.842 189.635 151.988 189.631H168.97C169.117 189.629 169.26 189.681 169.372 189.776C169.484 189.871 169.558 190.004 169.58 190.149L173.24 208.034L173.85 211.304L178.328 233.264Z" fill="#F0F0F0"/>
<path d="M203.795 233.264H202.465L193.864 190.93H178.004L173.85 211.304L173.24 214.574L169.44 233.264H168.116L172.575 211.304L173.234 208.04L176.894 190.155C176.923 190.013 176.999 189.884 177.109 189.79C177.22 189.696 177.359 189.642 177.504 189.637H194.432C194.577 189.641 194.717 189.695 194.828 189.789C194.938 189.883 195.014 190.012 195.042 190.155L203.795 233.264Z" fill="#F0F0F0"/>
<path d="M164.7 190.277H193.846C199.409 190.277 202.496 186.495 204.07 180.261L204.838 176.699C205.098 175.621 205.109 174.499 204.872 173.416C204.634 172.334 204.154 171.319 203.467 170.449C202.781 169.579 201.906 168.877 200.908 168.394C199.91 167.912 198.816 167.662 197.707 167.665H179.407C175.625 167.665 174.625 168.567 172.008 174.265C169.391 179.962 164.7 190.277 164.7 190.277Z" fill="#F0F0F0"/>
<path d="M180.591 190.277H149.53C149.143 190.277 148.772 190.124 148.499 189.85C148.225 189.577 148.072 189.206 148.072 188.819V188.685C148.072 188.161 148.175 187.643 148.375 187.159C148.576 186.674 148.87 186.235 149.24 185.864C149.611 185.494 150.05 185.2 150.534 184.999C151.018 184.799 151.537 184.696 152.061 184.696H180.591V190.283V190.277Z" fill="#F0F0F0"/>
<path d="M152.5 260.812C217.821 260.812 270.773 257.72 270.773 253.906C270.773 250.093 217.821 247.001 152.5 247.001C87.1801 247.001 34.2275 250.093 34.2275 253.906C34.2275 257.72 87.1801 260.812 152.5 260.812Z" fill="#F5F5F5"/>
<path d="M123.848 234.392L119.944 236.906L112.868 228.677L116.772 226.164L123.848 234.392Z" fill="#FF8B7B"/>
<path opacity="0.2" d="M116.778 226.164L112.868 228.677L116.522 232.922L120.426 230.403L116.778 226.164Z" fill="black"/>
<path d="M94.0125 247.813L89.5229 248.252L84.8564 237.577L89.346 237.138L94.0125 247.813Z" fill="#FF8B7B"/>
<path opacity="0.2" d="M84.8633 237.583L87.2667 243.085H91.9454L89.3468 237.144L84.8633 237.583Z" fill="black"/>
<path d="M59.9206 103.7C57.6636 103.901 57.6026 100.07 53.6376 101.87C48.599 104.164 50.3009 107.72 46.3664 107.574C42.4319 107.427 39.7967 110.495 40.6751 112.783C41.5535 115.07 42.9138 117.236 40.1322 118.157C37.3506 119.078 35.4596 119.889 35.8622 122.195C36.2648 124.501 38.2351 125.428 34.9167 126.898C31.5983 128.368 31.9338 134.725 35.1851 134.731C38.4364 134.737 35.3193 137.903 38.2351 141.124C41.1509 144.344 45.5856 144.784 47.4339 143.198C49.2822 141.612 51.344 140.3 54.821 142.74C58.298 145.18 64.1845 145.79 63.9161 141.923C63.6477 138.055 60.2561 135.518 63.4525 133.505C66.6489 131.492 70.7725 130.497 69.4793 126.581C68.6558 124.141 66.167 122.018 68.1739 120.194C71.4374 117.23 71.4557 110.52 67.4541 108.818C65.13 107.836 67.3687 103.029 59.9206 103.7Z" fill="#263238"/>
<path d="M55.5772 133.846C55.4674 135.676 55.2356 137.305 54.9672 139.019C54.6988 140.733 54.3084 142.404 53.8631 144.082C53.4291 145.778 52.8767 147.441 52.21 149.06C51.8806 149.877 51.5024 150.688 51.0998 151.5C50.8985 151.902 50.6789 152.299 50.4532 152.689C50.3495 152.89 50.2214 153.086 50.1055 153.299L49.9286 153.586C49.8085 153.777 49.6739 153.958 49.526 154.129C49.1877 154.511 48.7718 154.817 48.306 155.025C47.89 155.214 47.4439 155.327 46.9884 155.361C46.3185 155.399 45.6474 155.308 45.012 155.092C44.0658 154.767 43.1641 154.325 42.328 153.775C40.8557 152.812 39.4625 151.733 38.1617 150.548C35.654 148.267 33.3155 145.806 31.165 143.185L32.8974 141.52C34.1174 142.594 35.3374 143.685 36.6123 144.722C37.8872 145.759 39.1316 146.803 40.4309 147.772C41.668 148.724 42.9727 149.585 44.3349 150.347C44.9108 150.673 45.5257 150.925 46.1649 151.097C46.3187 151.145 46.4809 151.159 46.6407 151.14H46.5187C46.4381 151.179 46.3641 151.23 46.2991 151.292L46.2686 151.323L46.4028 151.073C46.4882 150.908 46.5858 150.749 46.6651 150.578C46.8359 150.241 47.0006 149.899 47.1592 149.554C47.4642 148.858 47.7692 148.151 48.0132 147.413C48.5256 145.949 48.9526 144.436 49.3308 142.899C49.709 141.361 49.9957 139.794 50.2519 138.214C50.5081 136.634 50.7033 135.017 50.8619 133.517L55.5772 133.846Z" fill="#FF8B7B"/>
<path d="M59.1214 134.42C58.8774 135.896 57.6513 138.69 56.6814 140.764C55.9616 142.264 55.376 143.393 55.376 143.393L54.522 143.014L47.4521 139.867C47.9889 136.054 48.8612 131.937 53.0641 130.064C55.6871 128.905 59.5545 131.76 59.1214 134.42Z" fill="#01a809"/>
<path opacity="0.6" d="M59.1214 134.42C58.8774 135.896 57.6513 138.69 56.6814 140.764C55.9616 142.264 55.376 143.393 55.376 143.393L54.522 143.014L47.4521 139.867C47.9889 136.054 48.8612 131.937 53.0641 130.064C55.6871 128.905 59.5545 131.76 59.1214 134.42Z" fill="black"/>
<path opacity="0.3" d="M56.6623 140.764C55.9425 142.264 55.3569 143.393 55.3569 143.393L54.5029 143.014C54.6188 141.508 54.9177 139.135 55.7229 138.067C56.2259 138.888 56.5462 139.808 56.6623 140.764Z" fill="black"/>
<path d="M33.1654 142.917L33.7266 138.812L29.1211 140.3C29.1211 140.3 29.8531 142.783 31.494 143.801L33.1654 142.917Z" fill="#FF8B7B"/>
<path d="M31.6405 135.304L28.4258 137.067L29.1212 140.324L33.7267 138.812L31.6405 135.304Z" fill="#FF8B7B"/>
<path d="M118.504 235.673L122.744 232.623C122.817 232.57 122.906 232.545 122.996 232.553C123.086 232.561 123.169 232.601 123.232 232.666L126.117 235.673C126.187 235.751 126.24 235.843 126.272 235.943C126.304 236.043 126.315 236.149 126.304 236.253C126.292 236.357 126.259 236.458 126.205 236.548C126.152 236.639 126.081 236.717 125.995 236.778C124.501 237.815 123.726 238.235 121.859 239.571C120.713 240.395 118.297 242.383 116.711 243.518C115.125 244.653 113.923 243.152 114.478 242.536C116.979 239.779 117.644 237.9 118.041 236.351C118.112 236.078 118.276 235.839 118.504 235.673Z" fill="#263238"/>
<path d="M88.932 246.867H94.422C94.5207 246.869 94.6163 246.902 94.6943 246.963C94.7724 247.023 94.8288 247.107 94.8551 247.202L96.0751 251.558C96.1048 251.661 96.1098 251.769 96.0899 251.874C96.0699 251.98 96.0255 252.079 95.9602 252.164C95.8948 252.249 95.8105 252.317 95.7139 252.363C95.6173 252.41 95.5112 252.432 95.4041 252.43C93.4643 252.43 92.5432 252.43 90.1215 252.43H82.7161C80.7031 252.43 80.2761 250.393 81.1118 250.21C84.845 249.386 86.9983 248.246 88.1512 247.16C88.3649 246.967 88.644 246.862 88.932 246.867Z" fill="#263238"/>
<path d="M80.5504 150.951L62.5737 156.636C50.1297 132.004 51.9048 130.699 51.9048 130.699C51.9048 130.699 54.7779 129.058 57.7669 127.691C58.2183 127.484 58.6758 127.283 59.1272 127.081C61.7828 126.026 64.5103 125.162 67.289 124.495C67.6977 124.385 68.1064 124.288 68.509 124.19C70.7219 123.689 72.9625 123.321 75.219 123.086C75.4874 126.496 75.7558 129.381 76.0486 131.888C76.4268 135.158 76.8355 137.775 77.2686 140.038C78.0692 143.757 79.1666 147.407 80.5504 150.951Z" fill="#01a809"/>
<path opacity="0.6" d="M80.5504 150.951L62.5737 156.636C50.1297 132.004 51.9048 130.699 51.9048 130.699C51.9048 130.699 54.7779 129.058 57.7669 127.691C58.2183 127.484 58.6758 127.283 59.1272 127.081C61.7828 126.026 64.5103 125.162 67.289 124.495C67.6977 124.385 68.1064 124.288 68.509 124.19C70.7219 123.689 72.9625 123.321 75.219 123.086C75.4874 126.496 75.7558 129.381 76.0486 131.888C76.4268 135.158 76.8355 137.775 77.2686 140.038C78.0692 143.757 79.1666 147.407 80.5504 150.951Z" fill="black"/>
<path opacity="0.3" d="M77.3174 140.05C75.5911 137.61 73.938 131.931 74.365 129.802L76.073 131.9C76.4512 135.17 76.8599 137.787 77.3174 140.05Z" fill="black"/>
<path d="M63.2139 135.298C63.2139 135.298 67.7462 134.316 69.2041 136.286C71.2049 134.316 70.4973 126.618 69.5335 123.873C68.7691 124.002 68.0193 124.207 67.2948 124.483L64.0923 129.436L63.2139 135.298Z" fill="white"/>
<path d="M63.2144 135.298C63.2144 135.298 60.1644 135.981 59.8411 138.476C55.5711 135.298 55.87 130.644 56.8338 127.899C57.5655 127.545 58.3349 127.274 59.1274 127.094L62.3299 130.619L63.2144 135.298Z" fill="white"/>
<path d="M64.2573 119.31C64.8673 121.555 65.7945 123.775 67.3073 124.507C67.3073 124.507 68.7164 128.545 63.2264 135.298C57.4802 131.205 59.1394 127.094 59.1394 127.094C61.8478 125.465 61.0853 123.318 59.9324 121.439L61.5245 118.883C61.6831 118.637 61.9097 118.442 62.1769 118.322C62.4441 118.202 62.7404 118.162 63.0297 118.208C63.3191 118.253 63.5891 118.381 63.807 118.577C64.0249 118.772 64.1813 119.027 64.2573 119.31Z" fill="#FF8B7B"/>
<path opacity="0.2" d="M64.2576 119.31C64.1847 119.022 64.0288 118.762 63.8093 118.563C63.5898 118.363 63.3165 118.232 63.0233 118.187C62.7301 118.141 62.4299 118.183 62.1602 118.307C61.8906 118.431 61.6632 118.631 61.5065 118.883L60.9941 119.7C61.0368 120.243 61.0612 120.688 61.0551 120.92C61.0063 122.506 63.2328 122.433 65.0445 121.671C64.7216 120.905 64.4585 120.116 64.2576 119.31Z" fill="black"/>
<path d="M53.2223 113.179C54.8083 117.504 55.3817 119.371 58.2853 120.969C62.6468 123.379 67.6122 120.487 67.356 115.772C67.1242 111.532 64.5744 105.164 59.7371 104.694C58.6709 104.586 57.5947 104.753 56.6108 105.177C55.6269 105.602 54.7679 106.271 54.1152 107.121C53.4625 107.971 53.0379 108.974 52.8817 110.034C52.7254 111.095 52.8427 112.177 53.2223 113.179Z" fill="#FF8B7B"/>
<path d="M64.4405 106.677C62.9521 105.243 61.3905 103.578 58.4015 103.901C55.0953 104.261 53.7899 106.262 53.7899 106.262L50.9473 112.478C50.9473 112.478 52.7102 120.481 55.6199 116.748C57.2974 114.588 57.3401 111.325 56.7301 108.885C57.8732 108.724 58.9999 108.463 60.0973 108.104C61.4393 108.604 62.946 108.604 64.0623 107.58C64.3063 107.354 64.4832 107.177 64.6113 107.037L64.715 106.921C65.0444 106.5 64.7699 106.543 64.4405 106.677ZM60.5975 107.97C61.6395 107.633 62.6982 107.35 63.7695 107.122C63.3712 107.543 62.8637 107.846 62.3036 107.995C61.7435 108.145 61.1528 108.136 60.5975 107.97Z" fill="#263238"/>
<path d="M53.4417 117.577C53.8998 118.345 54.6433 118.9 55.5096 119.121C56.6564 119.407 57.1993 118.377 56.8516 117.291C56.5405 116.333 55.5706 115.028 54.4116 115.211C54.1611 115.257 53.926 115.365 53.7282 115.525C53.5304 115.686 53.376 115.893 53.2794 116.129C53.1829 116.365 53.1471 116.621 53.1755 116.874C53.2038 117.127 53.2954 117.369 53.4417 117.577Z" fill="#FF8B7B"/>
<path d="M62.5738 156.642C62.5738 156.642 61.9638 193.48 66.7767 206.79C71.4127 219.551 85.2414 241.487 85.2414 241.487L93.2568 241.285C93.2568 241.285 80.52 213.5 78.4399 202.52C74.9751 184.299 75.7376 152.5 75.7376 152.5L62.5738 156.642Z" fill="#01a809"/>
<path opacity="0.3" d="M69.7715 159.82L71.9248 153.72L75.7373 152.5C75.7373 152.5 75.3896 166.975 76.2253 181.987C72.7666 175.326 69.7715 163.126 69.7715 159.82Z" fill="black"/>
<path d="M84.1132 241.902L94.0135 241.651L93.4401 238.608L82.6309 239.12L84.1132 241.902Z" fill="#263238"/>
<path d="M66.4902 155.452C66.4902 155.452 78.9952 184.055 87.0777 200.336C93.6047 213.488 113.918 231.129 113.918 231.129L119.487 227.268C119.487 227.268 104.2 206.369 99.6925 197.451C85.266 168.915 88.8223 157.154 80.5263 150.951L66.4902 155.452Z" fill="#01a809"/>
<path d="M114.247 232.971L120.786 228.317L119.304 225.462L112.118 230.897L114.247 232.971Z" fill="#263238"/>
<path d="M80.5201 149.81L81.8377 151.164C81.9414 151.268 81.8377 151.445 81.6242 151.512L62.7691 157.472C62.6105 157.526 62.4519 157.472 62.4092 157.392L61.7382 155.831C61.6894 155.727 61.7992 155.587 61.9761 155.532L80.1846 149.767C80.2394 149.745 80.2992 149.737 80.358 149.744C80.4168 149.752 80.4727 149.774 80.5201 149.81Z" fill="#263238"/>
<path d="M78.6894 152.622L79.1774 152.47C79.275 152.47 79.336 152.36 79.3055 152.305L78.421 150.286C78.3948 150.253 78.3584 150.229 78.3176 150.22C78.2767 150.21 78.2337 150.214 78.1953 150.231L77.7073 150.389C77.6097 150.42 77.5487 150.493 77.5792 150.554L78.4698 152.567C78.4881 152.628 78.5857 152.653 78.6894 152.622Z" fill="#01a809"/>
<path d="M64.1656 157.215L64.6536 157.063C64.7512 157.032 64.8061 156.959 64.7817 156.898L63.8911 154.879C63.8911 154.818 63.763 154.8 63.6654 154.83L63.1774 154.983C63.0859 155.013 63.0249 155.086 63.0493 155.147L63.9399 157.167C63.9675 157.198 64.0042 157.219 64.0448 157.228C64.0854 157.237 64.1277 157.232 64.1656 157.215Z" fill="#01a809"/>
<path d="M71.4247 154.94L71.9127 154.788C72.0103 154.757 72.0713 154.684 72.0408 154.623L71.1502 152.604C71.1502 152.549 71.0282 152.524 70.9306 152.555L70.4426 152.707C70.345 152.707 70.284 152.811 70.3145 152.872L71.199 154.891C71.2295 154.94 71.3271 154.94 71.4247 154.94Z" fill="#01a809"/>
<path d="M60.8108 112.24C60.9206 112.6 61.1951 112.85 61.4208 112.765C61.6465 112.679 61.7563 112.344 61.6465 111.99C61.5367 111.636 61.2683 111.38 61.0365 111.465C60.8047 111.551 60.7071 111.868 60.8108 112.24Z" fill="#263238"/>
<path d="M64.8674 111.02C64.9772 111.38 65.2517 111.63 65.4774 111.545C65.7031 111.459 65.8129 111.13 65.7092 110.77C65.6055 110.41 65.3249 110.16 65.0992 110.245C64.8735 110.331 64.7637 110.66 64.8674 111.02Z" fill="#263238"/>
<path d="M65.001 110.294L65.7879 109.788C65.7879 109.788 65.55 110.593 65.001 110.294Z" fill="#263238"/>
<path d="M63.8545 111.953C64.4204 112.675 65.0811 113.317 65.8187 113.863C65.6715 114.046 65.4862 114.196 65.2756 114.301C65.065 114.407 64.8341 114.465 64.5987 114.473L63.8545 111.953Z" fill="#FF5652"/>
<path d="M63.3906 116.449C63.4075 116.435 63.4199 116.417 63.4264 116.397C63.4329 116.376 63.4332 116.354 63.4272 116.333C63.4187 116.306 63.4003 116.282 63.3755 116.267C63.3507 116.253 63.3213 116.248 63.293 116.254C62.85 116.398 62.3789 116.436 61.9186 116.363C61.4583 116.289 61.022 116.108 60.6456 115.833C60.6344 115.823 60.6214 115.816 60.6074 115.811C60.5933 115.807 60.5785 115.805 60.5638 115.806C60.5491 115.807 60.5347 115.811 60.5216 115.818C60.5084 115.825 60.4967 115.834 60.487 115.845C60.4774 115.856 60.4701 115.869 60.4655 115.883C60.4609 115.897 60.4592 115.912 60.4603 115.927C60.4614 115.942 60.4654 115.956 60.4721 115.969C60.4788 115.982 60.488 115.994 60.4992 116.004C60.9038 116.303 61.3739 116.501 61.8705 116.581C62.367 116.662 62.8756 116.623 63.354 116.467L63.3906 116.449Z" fill="#263238"/>
<path d="M59.2801 111.246C59.3085 111.219 59.3295 111.185 59.3411 111.148C59.4316 110.888 59.582 110.652 59.7801 110.46C59.9782 110.269 60.2185 110.126 60.4818 110.044C60.5124 110.041 60.542 110.031 60.5687 110.016C60.5954 110 60.6186 109.98 60.6367 109.955C60.6548 109.93 60.6674 109.901 60.6738 109.871C60.6801 109.841 60.6801 109.81 60.6736 109.78C60.6672 109.749 60.6545 109.721 60.6363 109.696C60.6181 109.671 60.5949 109.65 60.5682 109.635C60.5415 109.62 60.5118 109.61 60.4812 109.607C60.4505 109.604 60.4195 109.607 60.3903 109.617C60.0512 109.714 59.741 109.893 59.4868 110.137C59.2327 110.382 59.0423 110.685 58.9324 111.02C58.9216 111.047 58.9164 111.076 58.917 111.106C58.9177 111.135 58.9242 111.164 58.9361 111.19C58.948 111.217 58.9652 111.241 58.9865 111.261C59.0079 111.281 59.033 111.297 59.0605 111.307C59.0993 111.315 59.1394 111.313 59.1776 111.303C59.2158 111.292 59.2509 111.273 59.2801 111.246Z" fill="#263238"/>
<path d="M66.1059 108.72C66.1039 108.706 66.1039 108.692 66.1059 108.678C66.1134 108.621 66.0995 108.563 66.0668 108.515C66.0341 108.468 65.985 108.435 65.929 108.421C65.5872 108.349 65.233 108.358 64.8957 108.45C64.5584 108.541 64.2477 108.711 63.9892 108.946C63.9487 108.988 63.9266 109.044 63.9278 109.103C63.9289 109.161 63.9532 109.217 63.9953 109.257C64.0373 109.298 64.0937 109.32 64.1521 109.318C64.2104 109.317 64.2659 109.293 64.3064 109.251C64.513 109.068 64.76 108.937 65.0272 108.868C65.2945 108.799 65.5742 108.794 65.8436 108.854C65.8961 108.867 65.9515 108.861 65.9996 108.836C66.0478 108.811 66.0855 108.77 66.1059 108.72Z" fill="#263238"/>
<path d="M77.9756 127.405C78.7015 127.948 79.3115 128.454 79.9459 129.003C80.5803 129.552 81.1659 130.101 81.7759 130.674C82.9654 131.821 84.1122 133.017 85.198 134.273C86.2959 135.537 87.3145 136.867 88.248 138.256C88.492 138.598 88.7055 138.97 88.9312 139.324C89.1569 139.678 89.3826 140.038 89.5839 140.416C89.7852 140.794 89.9987 141.13 90.1939 141.551L90.5172 142.228L90.7795 142.911C91.3418 144.643 91.6058 146.458 91.5603 148.279C91.5233 149.971 91.3416 151.656 91.0174 153.317C90.7002 154.946 90.2854 156.538 89.7974 158.1C89.3054 159.664 88.7312 161.201 88.0772 162.705L85.869 161.888C86.2472 160.424 86.6071 158.887 86.8755 157.368C87.1736 155.864 87.3915 154.345 87.5282 152.817C87.6748 151.338 87.7095 149.849 87.6319 148.364C87.5882 147.66 87.5027 146.96 87.3757 146.266C87.2419 145.626 87.0562 144.997 86.8206 144.387L86.6315 143.966L86.4241 143.582C86.2594 143.301 86.0337 142.972 85.8141 142.661C85.5945 142.35 85.4115 142.051 85.2041 141.74C84.9967 141.429 84.7832 141.13 84.5514 140.837C83.6608 139.617 82.6543 138.507 81.6539 137.378C80.6535 136.25 79.5555 135.188 78.4392 134.151C77.8902 133.627 77.3229 133.114 76.7556 132.614C76.1883 132.114 75.5783 131.614 75.0537 131.187L77.9756 127.405Z" fill="#FF8B7B"/>
<path d="M86.5713 160.43L83.2285 162.87L87.4985 165.127C87.4985 165.127 88.7734 162.87 88.3647 160.985L86.5713 160.43Z" fill="#FF8B7B"/>
<path d="M82.1729 166.829L85.6681 167.909L87.5287 165.139L83.2281 162.882L82.1729 166.829Z" fill="#FF8B7B"/>
<path d="M75.2434 123.098C77.5797 122.994 82.173 128.734 82.173 128.734L77.4028 135.481C77.4028 135.481 72.047 131.211 71.6322 128.24C71.2845 125.709 72.2666 123.22 75.2434 123.098Z" fill="#01a809"/>
<path opacity="0.6" d="M75.2434 123.098C77.5797 122.994 82.173 128.734 82.173 128.734L77.4028 135.481C77.4028 135.481 72.047 131.211 71.6322 128.24C71.2845 125.709 72.2666 123.22 75.2434 123.098Z" fill="black"/>
<path d="M116.9 237.583H116.827C116.72 237.569 116.618 237.528 116.533 237.463C116.447 237.397 116.38 237.31 116.339 237.211C116.307 237.153 116.29 237.088 116.29 237.022C116.29 236.955 116.307 236.89 116.339 236.832C116.638 236.32 118.315 236.222 118.504 236.222C118.526 236.222 118.546 236.228 118.565 236.238C118.583 236.249 118.598 236.265 118.608 236.283C118.62 236.302 118.627 236.323 118.627 236.344C118.627 236.366 118.62 236.387 118.608 236.405C118.199 236.857 117.473 237.583 116.9 237.583ZM118.242 236.466C117.571 236.515 116.68 236.674 116.528 236.942C116.511 236.967 116.503 236.995 116.503 237.025C116.503 237.054 116.511 237.083 116.528 237.107C116.554 237.174 116.597 237.233 116.652 237.277C116.708 237.322 116.775 237.352 116.845 237.363C117.168 237.4 117.681 237.064 118.242 236.466Z" fill="#01a809"/>
<path d="M118.388 236.454C117.827 236.454 116.723 236.143 116.515 235.692C116.482 235.612 116.476 235.523 116.498 235.439C116.52 235.356 116.569 235.282 116.637 235.228C116.701 235.171 116.775 235.129 116.856 235.102C116.937 235.076 117.023 235.067 117.107 235.076C117.772 235.149 118.559 236.229 118.589 236.296C118.6 236.312 118.605 236.331 118.605 236.351C118.605 236.37 118.6 236.389 118.589 236.406C118.581 236.422 118.569 236.436 118.554 236.446C118.539 236.457 118.522 236.464 118.504 236.467L118.388 236.454ZM117.034 235.295C116.943 235.295 116.855 235.33 116.79 235.393C116.686 235.484 116.698 235.558 116.717 235.606C116.851 235.899 117.717 236.216 118.284 236.216C118.004 235.869 117.479 235.32 117.064 235.277L117.034 235.295Z" fill="#01a809"/>
<path d="M86.4853 247.776C86.1096 247.803 85.7347 247.714 85.4117 247.52C85.3279 247.458 85.2592 247.378 85.2106 247.287C85.162 247.195 85.1348 247.093 85.1311 246.989C85.1261 246.931 85.1365 246.873 85.1611 246.821C85.1857 246.768 85.2238 246.723 85.2714 246.69C85.7716 246.355 87.6443 247.203 88.0164 247.379C88.0372 247.389 88.0544 247.404 88.0654 247.424C88.0764 247.444 88.0806 247.467 88.0774 247.489C88.0754 247.512 88.066 247.534 88.0507 247.552C88.0353 247.57 88.0148 247.582 87.992 247.587C87.4974 247.7 86.9926 247.764 86.4853 247.776ZM85.613 246.824C85.5367 246.82 85.4608 246.837 85.3934 246.873C85.3776 246.885 85.3653 246.901 85.3578 246.919C85.3503 246.937 85.3478 246.957 85.3507 246.977C85.353 247.049 85.3719 247.119 85.4057 247.183C85.4396 247.246 85.4875 247.301 85.5459 247.343C85.8692 247.587 86.6317 247.623 87.6138 247.44C86.9832 247.132 86.3081 246.924 85.613 246.824Z" fill="#01a809"/>
<path d="M87.9676 247.587H87.931C87.321 247.331 86.0522 246.324 86.101 245.806C86.101 245.696 86.1925 245.549 86.4731 245.519C87.5711 245.385 88.0347 247.349 88.053 247.459C88.057 247.479 88.0558 247.499 88.0494 247.519C88.0429 247.538 88.0316 247.555 88.0164 247.569C88.0021 247.579 87.9852 247.585 87.9676 247.587ZM86.6195 245.726H86.5463C86.4304 245.726 86.3694 245.775 86.3572 245.83C86.3206 246.129 87.1868 246.928 87.8212 247.276C87.6565 246.794 87.26 245.726 86.6195 245.726Z" fill="#01a809"/>
<path d="M60.9453 111.502L61.7322 110.996C61.7322 110.996 61.4943 111.801 60.9453 111.502Z" fill="#263238"/>
<path d="M176.064 66.8987H87.4127C86.4655 66.8923 85.5271 67.0799 84.6552 67.45C83.7834 67.8201 82.9965 68.3649 82.3433 69.0507C81.69 69.7365 81.1842 70.5489 80.8569 71.4377C80.5296 72.3266 80.3878 73.273 80.4404 74.2187L88.7547 246.586C88.8731 248.55 89.7301 250.396 91.1535 251.754C92.577 253.112 94.4614 253.881 96.4285 253.906H185.08C186.027 253.913 186.965 253.725 187.836 253.355C188.708 252.985 189.494 252.44 190.147 251.754C190.8 251.068 191.305 250.256 191.632 249.367C191.958 248.478 192.099 247.532 192.046 246.586L183.738 74.2187C183.619 72.2551 182.762 70.409 181.339 69.0512C179.915 67.6934 178.031 66.9244 176.064 66.8987Z" fill="black"/>
<path d="M179.339 66.8987H90.6637C89.7169 66.8922 88.7787 67.0798 87.9071 67.45C87.0356 67.8202 86.2491 68.3651 85.5963 69.051C84.9436 69.7369 84.4383 70.5494 84.1117 71.4382C83.7851 72.327 83.6442 73.2733 83.6975 74.2187L92.0057 246.586C92.1242 248.55 92.9812 250.396 94.4046 251.754C95.8281 253.112 97.7125 253.881 99.6795 253.906H188.331C189.278 253.913 190.216 253.725 191.087 253.355C191.959 252.985 192.745 252.44 193.398 251.754C194.051 251.068 194.556 250.256 194.883 249.367C195.209 248.478 195.35 247.532 195.297 246.586L186.989 74.2187C186.871 72.2592 186.017 70.4166 184.599 69.0594C183.181 67.7022 181.302 66.9305 179.339 66.8987Z" fill="#263238"/>
<path d="M99.4297 249.026C98.7767 249.01 98.1532 248.751 97.6807 248.3C97.2082 247.849 96.9206 247.238 96.8738 246.586L88.5778 74.2187C88.5629 73.9041 88.612 73.5898 88.7221 73.2947C88.8321 72.9996 89.0009 72.7299 89.2181 72.5018C89.4353 72.2737 89.6965 72.0921 89.9859 71.9678C90.2753 71.8435 90.5869 71.7792 90.9019 71.7787H179.553C180.207 71.7925 180.832 72.0506 181.305 72.5022C181.778 72.9538 182.065 73.5662 182.109 74.2187L190.417 246.586C190.432 246.901 190.383 247.214 190.274 247.509C190.164 247.804 189.996 248.073 189.779 248.301C189.562 248.529 189.302 248.711 189.013 248.836C188.725 248.96 188.414 249.025 188.099 249.026H99.4297Z" fill="#01a809"/>
<path opacity="0.1" d="M99.3868 247.806C99.0609 247.796 98.7503 247.665 98.5141 247.44C98.2779 247.215 98.1326 246.911 98.1059 246.586L89.7977 74.2187C89.792 74.0621 89.8176 73.9059 89.873 73.7593C89.9285 73.6127 90.0127 73.4787 90.1206 73.365C90.2286 73.2514 90.3581 73.1605 90.5017 73.0976C90.6453 73.0347 90.7999 73.0011 90.9567 72.9987H179.608C179.934 73.0083 180.246 73.1381 180.482 73.3633C180.719 73.5885 180.864 73.8932 180.889 74.2187L189.197 246.586C189.203 246.743 189.177 246.899 189.122 247.046C189.066 247.192 188.982 247.326 188.874 247.44C188.766 247.554 188.637 247.645 188.493 247.708C188.35 247.77 188.195 247.804 188.038 247.806H99.3868Z" fill="black"/>
<g opacity="0.3">
<path d="M126.142 237.9H108.58C108.098 237.895 107.636 237.707 107.287 237.374C106.938 237.041 106.729 236.588 106.701 236.107L105.42 209.444C105.404 209.208 105.437 208.971 105.517 208.749C105.596 208.527 105.721 208.323 105.883 208.151C106.045 207.98 106.241 207.843 106.459 207.75C106.676 207.658 106.91 207.611 107.146 207.614H124.739C125.22 207.617 125.681 207.804 126.029 208.137C126.377 208.469 126.585 208.921 126.611 209.401L127.874 236.07C127.889 236.306 127.855 236.543 127.775 236.765C127.695 236.987 127.569 237.191 127.407 237.363C127.244 237.534 127.048 237.671 126.83 237.763C126.612 237.856 126.378 237.902 126.142 237.9ZM107.122 208.236C106.97 208.235 106.819 208.265 106.678 208.323C106.538 208.382 106.411 208.468 106.304 208.577C106.201 208.689 106.12 208.821 106.068 208.965C106.016 209.108 105.992 209.26 105.999 209.413L107.287 236.07C107.304 236.396 107.444 236.704 107.68 236.931C107.915 237.157 108.228 237.286 108.555 237.29H126.142C126.295 237.291 126.446 237.261 126.587 237.201C126.728 237.141 126.854 237.053 126.96 236.942C127.065 236.831 127.146 236.7 127.199 236.556C127.251 236.412 127.273 236.259 127.264 236.107L125.977 209.444C125.961 209.118 125.822 208.81 125.587 208.583C125.353 208.356 125.04 208.228 124.714 208.224L107.122 208.236Z" fill="#FAFAFA"/>
<path d="M124.483 214.427H107.97C107.889 214.427 107.812 214.395 107.754 214.338C107.697 214.281 107.665 214.203 107.665 214.122C107.665 214.041 107.697 213.964 107.754 213.907C107.812 213.849 107.889 213.817 107.97 213.817H124.501C124.582 213.817 124.66 213.849 124.717 213.907C124.774 213.964 124.806 214.041 124.806 214.122C124.806 214.203 124.774 214.281 124.717 214.338C124.66 214.395 124.582 214.427 124.501 214.427H124.483Z" fill="#FAFAFA"/>
<path d="M124.654 217.874H108.117C108.036 217.872 107.959 217.84 107.903 217.783C107.846 217.726 107.813 217.649 107.812 217.569C107.812 217.488 107.844 217.41 107.901 217.353C107.958 217.296 108.036 217.264 108.117 217.264H124.654C124.735 217.264 124.812 217.296 124.869 217.353C124.926 217.41 124.959 217.488 124.959 217.569C124.957 217.649 124.924 217.726 124.868 217.783C124.811 217.84 124.734 217.872 124.654 217.874Z" fill="#FAFAFA"/>
<path d="M124.818 221.32H108.281C108.2 221.319 108.124 221.286 108.067 221.229C108.01 221.172 107.977 221.096 107.976 221.015C107.976 220.934 108.008 220.857 108.065 220.8C108.122 220.742 108.2 220.71 108.281 220.71H124.818C124.899 220.71 124.976 220.742 125.033 220.8C125.091 220.857 125.123 220.934 125.123 221.015C125.123 221.096 125.091 221.174 125.033 221.231C124.976 221.288 124.899 221.32 124.818 221.32Z" fill="#FAFAFA"/>
<path d="M124.982 224.767H108.451C108.371 224.767 108.293 224.735 108.236 224.677C108.179 224.62 108.146 224.543 108.146 224.462C108.146 224.381 108.179 224.303 108.236 224.246C108.293 224.189 108.371 224.157 108.451 224.157H124.982C125.063 224.157 125.141 224.189 125.198 224.246C125.255 224.303 125.287 224.381 125.287 224.462C125.287 224.543 125.255 224.62 125.198 224.677C125.141 224.735 125.063 224.767 124.982 224.767Z" fill="#FAFAFA"/>
<path d="M125.148 228.213H108.617C108.536 228.213 108.458 228.181 108.401 228.124C108.344 228.067 108.312 227.989 108.312 227.908C108.312 227.827 108.344 227.75 108.401 227.693C108.458 227.635 108.536 227.603 108.617 227.603H125.148C125.228 227.603 125.306 227.635 125.363 227.693C125.42 227.75 125.453 227.827 125.453 227.908C125.453 227.989 125.42 228.067 125.363 228.124C125.306 228.181 125.228 228.213 125.148 228.213Z" fill="#FAFAFA"/>
<path d="M121.926 231.66H108.781C108.7 231.66 108.622 231.628 108.565 231.57C108.508 231.513 108.476 231.436 108.476 231.355C108.476 231.274 108.508 231.196 108.565 231.139C108.622 231.082 108.7 231.05 108.781 231.05H121.926C122.007 231.05 122.085 231.082 122.142 231.139C122.199 231.196 122.231 231.274 122.231 231.355C122.23 231.435 122.197 231.512 122.14 231.569C122.083 231.626 122.006 231.658 121.926 231.66Z" fill="#FAFAFA"/>
</g>
<g opacity="0.3">
<path d="M137.213 140.074L125.154 142.002C124.688 140.854 124.073 139.773 123.324 138.787C122.602 138.03 121.748 137.409 120.804 136.957L121.256 146.412C127.962 148.177 132.474 150.04 134.792 152C136.269 153.231 137.469 154.763 138.31 156.493C139.151 158.223 139.615 160.112 139.672 162.034C139.833 164.285 139.419 166.539 138.47 168.586C137.567 170.495 136.267 172.19 134.657 173.557C133.158 174.842 131.424 175.823 129.552 176.449C127.354 177.109 125.075 177.467 122.781 177.51L122.86 179.175C122.878 179.484 122.833 179.792 122.727 180.082C122.621 180.372 122.457 180.637 122.244 180.861C122.031 181.085 121.774 181.262 121.49 181.383C121.206 181.503 120.899 181.564 120.591 181.56C119.949 181.554 119.334 181.304 118.87 180.861C118.406 180.418 118.127 179.816 118.09 179.175L118.01 177.51C115.333 177.338 112.69 176.817 110.148 175.961C108.2 175.257 106.399 174.2 104.834 172.844C103.406 171.624 102.197 170.17 101.26 168.543C100.32 166.793 99.6354 164.918 99.2285 162.974L112.35 161.443C112.846 163.594 113.456 165.149 114.18 166.109C115.089 167.224 116.258 168.1 117.583 168.659L117.028 157.118C113.779 156.309 110.597 155.248 107.512 153.946C105.517 152.951 103.801 151.472 102.523 149.645C101.028 147.533 100.201 145.022 100.15 142.435C100.008 140.65 100.256 138.856 100.878 137.177C101.499 135.498 102.479 133.974 103.749 132.712C106.335 130.105 110.3 128.661 115.644 128.381L115.601 127.533C115.582 127.225 115.628 126.916 115.734 126.626C115.84 126.336 116.004 126.071 116.217 125.847C116.43 125.623 116.686 125.446 116.971 125.325C117.255 125.205 117.561 125.145 117.87 125.148C118.512 125.154 119.127 125.404 119.591 125.847C120.055 126.29 120.334 126.892 120.371 127.533L120.414 128.381C125.294 128.686 129.078 129.841 131.766 131.845C134.47 133.884 136.392 136.789 137.213 140.074ZM116.046 136.811C114.959 137.09 113.977 137.681 113.222 138.513C112.708 139.202 112.459 140.053 112.52 140.91C112.553 141.83 112.887 142.713 113.472 143.423C114.286 144.278 115.317 144.895 116.455 145.211L116.046 136.811ZM122.372 168.97C124.202 168.563 125.524 167.88 126.337 166.92C126.727 166.489 127.029 165.984 127.223 165.436C127.418 164.887 127.502 164.305 127.472 163.724C127.409 162.665 126.978 161.661 126.252 160.888C125.483 160.027 124.019 159.222 121.872 158.484L122.372 168.97Z" fill="#FAFAFA"/>
</g>
<path opacity="0.2" d="M169.091 89.4016H108.701L114.588 211.469C114.875 216.469 117.05 221.175 120.674 224.633C124.297 228.091 129.099 230.045 134.108 230.098H194.498L188.617 108.031C188.333 103.028 186.157 98.3206 182.532 94.8615C178.906 91.4025 174.102 89.4508 169.091 89.4016Z" fill="black"/>
<path d="M183.884 89.4016H108.72C113.729 89.4538 118.531 91.4067 122.155 94.8652C125.779 98.3238 127.954 103.03 128.24 108.031L133.04 207.4C133.328 212.401 135.503 217.106 139.127 220.564C142.75 224.022 147.552 225.976 152.56 226.029H190.46C192.873 226.055 195.265 225.583 197.488 224.644C199.711 223.705 201.717 222.319 203.381 220.572C205.046 218.824 206.333 216.753 207.163 214.487C207.992 212.221 208.347 209.809 208.205 207.4L203.41 108.031C203.126 103.028 200.95 98.3206 197.325 94.8615C193.699 91.4025 188.895 89.4508 183.884 89.4016Z" fill="#FAFAFA"/>
<path d="M170.3 207.4C170.443 209.808 170.089 212.219 169.261 214.484C168.433 216.749 167.147 218.82 165.485 220.567C163.822 222.314 161.818 223.701 159.597 224.64C157.376 225.58 154.985 226.053 152.573 226.029H227.731C230.143 226.053 232.534 225.58 234.756 224.64C236.977 223.701 238.982 222.314 240.645 220.567C242.308 218.82 243.594 216.75 244.423 214.484C245.252 212.219 245.606 209.808 245.464 207.4H170.3Z" fill="#E6E6E6"/>
<path d="M194.467 151.079H141.348C140.976 151.075 140.619 150.93 140.35 150.673C140.08 150.416 139.918 150.066 139.897 149.694C139.887 149.515 139.913 149.336 139.975 149.168C140.037 149 140.132 148.846 140.256 148.717C140.379 148.587 140.528 148.484 140.693 148.414C140.858 148.344 141.035 148.308 141.214 148.309H194.333C194.71 148.307 195.073 148.45 195.347 148.707C195.622 148.965 195.787 149.318 195.809 149.694C195.819 149.875 195.792 150.056 195.729 150.226C195.665 150.395 195.568 150.55 195.442 150.68C195.315 150.81 195.164 150.913 194.996 150.982C194.828 151.05 194.648 151.083 194.467 151.079Z" fill="#01a809"/>
<path d="M194.882 159.722H141.763C141.391 159.718 141.034 159.573 140.765 159.316C140.495 159.059 140.333 158.71 140.312 158.338C140.302 158.159 140.328 157.98 140.39 157.812C140.452 157.644 140.548 157.49 140.671 157.36C140.794 157.231 140.943 157.128 141.108 157.058C141.273 156.988 141.45 156.952 141.629 156.953H194.754C195.125 156.959 195.481 157.104 195.749 157.361C196.017 157.618 196.178 157.967 196.2 158.338C196.21 158.517 196.183 158.695 196.121 158.864C196.059 159.032 195.964 159.185 195.84 159.315C195.717 159.445 195.568 159.548 195.403 159.618C195.239 159.688 195.061 159.724 194.882 159.722Z" fill="#01a809"/>
<path d="M195.303 168.36H142.178C141.806 168.356 141.449 168.211 141.18 167.954C140.91 167.697 140.748 167.347 140.727 166.975C140.717 166.797 140.743 166.618 140.805 166.449C140.867 166.281 140.963 166.128 141.086 165.998C141.209 165.868 141.358 165.765 141.523 165.695C141.688 165.625 141.865 165.589 142.044 165.591H195.2C195.572 165.595 195.929 165.74 196.198 165.997C196.468 166.254 196.63 166.604 196.651 166.975C196.662 167.157 196.634 167.338 196.57 167.508C196.507 167.679 196.408 167.834 196.282 167.964C196.155 168.094 196.003 168.197 195.834 168.265C195.666 168.333 195.485 168.365 195.303 168.36Z" fill="#01a809"/>
<path d="M195.718 177.016H142.599C142.227 177.011 141.871 176.865 141.602 176.608C141.333 176.351 141.171 176.003 141.148 175.631C141.138 175.452 141.164 175.273 141.226 175.105C141.288 174.937 141.383 174.784 141.507 174.654C141.63 174.524 141.779 174.421 141.944 174.351C142.109 174.281 142.286 174.245 142.465 174.247H195.584C195.956 174.251 196.313 174.396 196.583 174.653C196.852 174.91 197.014 175.259 197.036 175.631C197.046 175.81 197.019 175.989 196.957 176.157C196.895 176.325 196.8 176.479 196.676 176.609C196.553 176.738 196.404 176.841 196.239 176.911C196.075 176.981 195.897 177.017 195.718 177.016Z" fill="#01a809"/>
<path d="M175.015 185.66H143.014C142.642 185.656 142.285 185.51 142.016 185.253C141.746 184.996 141.584 184.647 141.563 184.275C141.553 184.096 141.579 183.917 141.641 183.749C141.703 183.581 141.798 183.427 141.922 183.298C142.045 183.168 142.194 183.065 142.359 182.995C142.524 182.925 142.701 182.889 142.88 182.89H174.881C175.253 182.894 175.61 183.039 175.88 183.296C176.149 183.553 176.311 183.903 176.333 184.275C176.343 184.454 176.316 184.633 176.254 184.801C176.192 184.969 176.097 185.122 175.973 185.252C175.85 185.382 175.701 185.485 175.536 185.555C175.371 185.625 175.194 185.661 175.015 185.66Z" fill="#01a809"/>
<path d="M178.705 133.162C184.991 126.723 184.609 116.155 177.851 109.559C171.094 102.963 160.521 102.835 154.235 109.274C147.949 115.713 148.331 126.28 155.089 132.877C161.846 139.473 172.419 139.601 178.705 133.162Z" fill="#01a809"/>
<path d="M180.242 121.207C180.357 123.474 179.893 125.733 178.894 127.771C177.81 129.956 176.133 131.791 174.054 133.067C171.975 134.342 169.578 135.005 167.139 134.981C164.616 134.962 162.141 134.287 159.958 133.023C157.774 131.759 155.956 129.949 154.683 127.771C153.495 125.778 152.814 123.524 152.701 121.207C152.595 119.427 152.857 117.644 153.47 115.969C154.082 114.295 155.033 112.764 156.262 111.472C157.492 110.18 158.974 109.155 160.616 108.46C162.258 107.765 164.026 107.416 165.809 107.433C169.511 107.479 173.057 108.926 175.735 111.481C178.413 114.037 180.023 117.512 180.242 121.207Z" fill="white"/>
<path opacity="0.4" d="M178.894 127.771C177.811 129.956 176.133 131.791 174.054 133.067C171.975 134.342 169.579 135.005 167.14 134.981C164.617 134.962 162.142 134.287 159.958 133.023C157.774 131.759 155.957 129.949 154.684 127.771C158.194 125.362 162.358 124.085 166.615 124.111C170.976 124.119 175.241 125.39 178.894 127.771Z" fill="#01a809"/>
<path opacity="0.4" d="M170.735 120.876C173.046 118.509 172.906 114.625 170.423 112.201C167.94 109.777 164.054 109.731 161.743 112.098C159.432 114.466 159.571 118.35 162.055 120.774C164.538 123.198 168.424 123.244 170.735 120.876Z" fill="#01a809"/>
<path d="M217.624 249.331H213.147L212.695 238.949H217.179L217.624 249.331Z" fill="#B55B52"/>
<path opacity="0.2" d="M212.701 238.955L212.927 244.305H217.41L217.179 238.955H212.701Z" fill="black"/>
<path d="M255.767 237.168L251.509 238.559L246.147 229.39L250.411 228L255.767 237.168Z" fill="#B55B52"/>
<path opacity="0.2" d="M250.411 228L246.147 229.39L248.917 234.118L253.175 232.727L250.411 228Z" fill="black"/>
<path d="M232.776 99.3812C233.331 100.058 233.801 100.662 234.283 101.327C234.765 101.992 235.222 102.626 235.68 103.285C236.582 104.609 237.449 105.963 238.26 107.36C239.948 110.194 241.325 113.203 242.365 116.333L242.469 116.638L242.518 116.797L242.585 117.047L242.707 117.547L242.774 118.004C242.846 118.552 242.869 119.106 242.841 119.658C242.784 120.588 242.65 121.513 242.438 122.421C242.052 124.048 241.54 125.643 240.907 127.191C239.701 130.159 238.24 133.016 236.54 135.731L233.49 134.273C234.405 131.412 235.32 128.484 235.991 125.636C236.34 124.262 236.605 122.869 236.784 121.463C236.859 120.856 236.881 120.244 236.851 119.633C236.842 119.416 236.813 119.199 236.765 118.987L236.735 118.877C236.724 118.857 236.713 118.837 236.704 118.816L236.656 118.7L236.558 118.462L236.149 117.504L235.692 116.553C235.387 115.943 235.051 115.284 234.716 114.649C234.02 113.393 233.27 112.142 232.489 110.898C231.709 109.654 230.879 108.458 230.049 107.238C229.22 106.018 228.311 104.798 227.487 103.694L232.776 99.3812Z" fill="#B55B52"/>
<path d="M233.77 133.517L232.02 137.39H237.028C237.028 137.39 237.827 134.45 236.009 133.261L233.77 133.517Z" fill="#B55B52"/>
<path d="M232.605 141.746L237.253 140.849L237.028 137.39H232.02L232.605 141.746Z" fill="#B55B52"/>
<path d="M210.584 79.7209C210.584 80.0869 210.395 80.3797 210.157 80.3797C209.92 80.3797 209.73 80.0869 209.73 79.7209C209.73 79.3549 209.926 79.0682 210.157 79.0682C210.389 79.0682 210.584 79.361 210.584 79.7209Z" fill="#263238"/>
<path d="M210.45 80.3797C210.02 81.4834 209.439 82.5222 208.724 83.4663C208.97 83.6431 209.252 83.7642 209.551 83.821C209.849 83.8779 210.156 83.8693 210.45 83.7957V80.3797Z" fill="#A02724"/>
<path d="M211.865 77.7201C211.821 77.7206 211.778 77.7055 211.743 77.6774C211.531 77.5175 211.284 77.4094 211.022 77.3618C210.761 77.3141 210.492 77.3282 210.236 77.4029C210.185 77.4168 210.131 77.4113 210.084 77.3874C210.037 77.3635 210 77.3229 209.981 77.2735C209.962 77.2242 209.962 77.1695 209.981 77.1202C210 77.0708 210.037 77.0303 210.084 77.0064C210.405 76.9043 210.746 76.881 211.079 76.9383C211.411 76.9956 211.725 77.1319 211.993 77.3358C212.038 77.3698 212.068 77.4198 212.077 77.4755C212.086 77.5311 212.074 77.5881 212.042 77.6347C212.021 77.6613 211.994 77.6828 211.963 77.6976C211.933 77.7124 211.899 77.7201 211.865 77.7201Z" fill="#263238"/>
<path d="M222.254 83.8872C221.607 87.169 220.967 93.1775 223.261 95.3613C223.261 95.3613 222.364 98.6858 216.276 98.6858C209.566 98.6858 213.074 95.3613 213.074 95.3613C216.734 94.489 216.636 91.7806 215.995 89.2308L222.254 83.8872Z" fill="#B55B52"/>
<path d="M224.139 96.502C224.621 95.4528 225.151 94.245 224.053 93.8668C222.833 93.452 216.27 93.0311 213.994 93.8119C213.695 93.8948 213.415 94.0363 213.171 94.2283C212.927 94.4203 212.724 94.6589 212.573 94.9302C212.422 95.2016 212.326 95.5002 212.292 95.8088C212.257 96.1173 212.284 96.4297 212.372 96.7277L224.139 96.502Z" fill="#263238"/>
<path d="M250.588 239.626C250.258 239.943 249.886 240.2 249.606 240.157C249.517 240.139 249.436 240.094 249.374 240.029C249.312 239.963 249.271 239.88 249.258 239.791C249.239 239.722 249.236 239.649 249.249 239.578C249.262 239.508 249.29 239.441 249.331 239.382C249.697 238.815 251.161 238.571 251.24 238.565C251.26 238.562 251.28 238.564 251.298 238.572C251.316 238.58 251.332 238.592 251.344 238.608C251.356 238.625 251.362 238.645 251.362 238.666C251.362 238.686 251.356 238.706 251.344 238.723C251.124 239.05 250.871 239.353 250.588 239.626ZM249.593 239.394C249.562 239.424 249.533 239.457 249.508 239.492C249.483 239.527 249.467 239.567 249.46 239.609C249.452 239.652 249.454 239.695 249.465 239.736C249.514 239.925 249.606 239.943 249.636 239.943C249.947 239.992 250.612 239.333 251.021 238.821C250.509 238.905 250.021 239.1 249.593 239.394Z" fill="#01a809"/>
<path d="M251.32 238.742L251.271 238.772C250.765 238.906 249.441 238.821 249.161 238.394C249.119 238.326 249.101 238.246 249.11 238.166C249.118 238.087 249.154 238.012 249.209 237.955C249.262 237.893 249.326 237.842 249.398 237.806C249.471 237.769 249.549 237.747 249.63 237.741C250.301 237.693 251.271 238.553 251.314 238.589C251.329 238.602 251.339 238.618 251.345 238.637C251.35 238.655 251.35 238.675 251.344 238.693C251.343 238.712 251.334 238.729 251.32 238.742ZM249.411 238.059L249.374 238.095C249.289 238.199 249.325 238.254 249.337 238.278C249.502 238.528 250.429 238.669 251.003 238.601C250.624 238.259 250.153 238.034 249.649 237.955C249.563 237.962 249.483 237.998 249.423 238.059H249.411Z" fill="#01a809"/>
<path d="M211.341 249.557C210.767 249.557 210.212 249.478 210.029 249.222C209.98 249.154 209.953 249.073 209.953 248.99C209.953 248.906 209.98 248.825 210.029 248.758C210.065 248.696 210.114 248.641 210.171 248.598C210.229 248.556 210.295 248.525 210.365 248.508C211.109 248.307 212.677 249.197 212.744 249.24C212.763 249.25 212.778 249.267 212.787 249.286C212.796 249.306 212.798 249.329 212.793 249.35C212.79 249.37 212.78 249.389 212.766 249.405C212.752 249.42 212.734 249.43 212.713 249.435C212.26 249.514 211.801 249.555 211.341 249.557ZM210.633 248.691C210.564 248.681 210.495 248.681 210.426 248.691C210.383 248.699 210.342 248.717 210.307 248.742C210.271 248.767 210.241 248.8 210.218 248.837C210.145 248.971 210.17 249.039 210.218 249.075C210.426 249.362 211.56 249.368 212.39 249.252C211.847 248.953 211.25 248.762 210.633 248.691Z" fill="#01a809"/>
<path d="M212.695 249.435H212.652C212.116 249.191 211.042 248.215 211.121 247.715C211.121 247.593 211.225 247.446 211.518 247.416C211.627 247.404 211.737 247.414 211.842 247.445C211.946 247.477 212.044 247.529 212.128 247.599C212.695 248.069 212.817 249.276 212.823 249.325C212.823 249.344 212.818 249.363 212.81 249.38C212.801 249.396 212.789 249.411 212.774 249.423C212.763 249.43 212.75 249.435 212.736 249.437C212.722 249.439 212.709 249.438 212.695 249.435ZM211.603 247.605H211.542C211.347 247.605 211.335 247.697 211.335 247.721C211.286 248.026 212.012 248.788 212.555 249.118C212.502 248.605 212.289 248.123 211.945 247.739C211.848 247.662 211.727 247.619 211.603 247.617V247.605Z" fill="#01a809"/>
<path d="M251.137 238.065L254.797 234.582C254.861 234.519 254.944 234.48 255.033 234.472C255.122 234.465 255.211 234.488 255.285 234.539L258.676 236.808C258.759 236.863 258.827 236.937 258.877 237.022C258.926 237.108 258.955 237.204 258.963 237.303C258.97 237.401 258.954 237.5 258.917 237.592C258.88 237.684 258.823 237.766 258.75 237.833C257.463 239.053 256.773 239.547 255.175 241.072C254.187 242.018 251.247 245.22 249.886 246.525C248.526 247.831 247.062 246.647 247.501 245.995C249.478 243.061 250.71 240.249 250.82 238.766C250.839 238.502 250.952 238.254 251.137 238.065Z" fill="#263238"/>
<path d="M213.171 248.813H218.051C218.139 248.812 218.225 248.842 218.294 248.898C218.363 248.954 218.41 249.031 218.429 249.118L219.313 253.101C219.336 253.197 219.336 253.296 219.314 253.392C219.292 253.488 219.248 253.577 219.186 253.654C219.125 253.73 219.046 253.792 218.957 253.833C218.868 253.875 218.771 253.896 218.673 253.894C216.904 253.894 214.354 253.766 212.134 253.766C209.541 253.766 207.302 253.906 204.258 253.906C202.428 253.906 201.91 252.046 202.679 251.875C206.18 251.113 209.047 251.027 212.073 249.161C212.399 248.945 212.779 248.824 213.171 248.813Z" fill="#263238"/>
<path d="M206.79 105.53C205.009 108.153 203.173 110.605 201.196 113.027C199.212 115.478 197.092 117.816 194.846 120.03L193.98 120.871L193.76 121.079L193.602 121.225L193.37 121.39C193.083 121.622 192.774 121.826 192.449 122C191.419 122.543 190.286 122.861 189.124 122.933C187.352 123.038 185.573 122.89 183.842 122.494C180.705 121.802 177.663 120.733 174.783 119.31L175.906 116.138C178.762 116.709 181.651 117.104 184.555 117.321C185.832 117.422 187.116 117.369 188.38 117.163C188.743 117.108 189.089 116.973 189.393 116.766C189.423 116.766 189.393 116.73 189.393 116.73L189.442 116.681L189.618 116.48L190.344 115.686C192.248 113.515 194.096 111.197 195.889 108.83C197.683 106.463 199.482 104.036 201.196 101.669L206.79 105.53Z" fill="#B55B52"/>
<path d="M231.288 96.38C235.485 97.3438 240.304 108.794 240.304 108.794L231.868 114.576C229.772 111.565 227.914 108.396 226.31 105.097C223.809 99.857 226.994 95.3918 231.288 96.38Z" fill="#01a809"/>
<path opacity="0.3" d="M228.274 103.7L232.264 114.32L231.867 114.595C231.867 114.595 230.141 112.155 228.274 108.903V103.7Z" fill="black"/>
<path d="M206.18 96.6057C206.18 96.6057 201.41 101.992 205.918 135.341H229.885C230.05 131.681 227.738 113.71 231.288 96.3739C228.637 95.864 225.955 95.5258 223.26 95.3613C219.868 95.1659 216.466 95.1659 213.073 95.3613C210.747 95.5957 208.442 96.0118 206.18 96.6057Z" fill="#01a809"/>
<path opacity="0.3" d="M208.84 106.25C208.216 110.034 206.581 113.579 204.106 116.51C204.009 114.363 203.972 112.435 203.978 110.709L208.84 106.25Z" fill="black"/>
<path d="M210.907 100.241C211.517 104.481 203.136 115.32 203.136 115.32L194.736 109.538C194.736 109.538 197.067 103.566 200.989 99.6496C205.472 95.16 210.267 95.6236 210.907 100.241Z" fill="#01a809"/>
<path d="M176.486 116.51L173.198 113.112L169.69 117.632C169.69 117.632 172.362 120.213 175.54 119.462L176.486 116.51Z" fill="#B55B52"/>
<path d="M168.683 111.221L167.177 115.967L169.69 117.614L173.197 113.094L168.683 111.221Z" fill="#B55B52"/>
<path d="M222.651 78.9584C222.376 83.3931 222.443 86.01 220.211 88.2853C216.837 91.7135 211.359 89.6822 210.304 85.2353C209.346 81.2459 209.956 74.6579 214.3 72.895C215.256 72.5019 216.298 72.36 217.324 72.4829C218.351 72.6057 219.33 72.9892 220.167 73.5969C221.004 74.2045 221.671 75.0162 222.106 75.9546C222.541 76.893 222.728 77.9271 222.651 78.9584Z" fill="#B55B52"/>
<path d="M226.511 69.6925C227.878 70.9491 227.298 72.3521 226.585 72.6144C228.799 73.0719 229.122 74.8348 227.957 78.5558C226.847 82.1182 224.157 86.8945 220.796 87.1873C215.745 87.6265 214.269 82.3622 214.232 77.1406C211.377 77.3175 212.609 74.786 209.102 75.3716C206.052 75.8779 207.199 73.4989 204.606 72.4619C201.599 71.2419 202.203 66.6364 205.009 67.9601C205.009 67.9601 203.71 68.8141 205.222 69.6193C206.735 70.4245 206.589 68.564 209.584 68.3383C212.579 68.1126 212.927 70.6746 216.428 69.1313C220.82 67.1915 223.705 67.1 226.511 69.6925Z" fill="#263238"/>
<path d="M224.828 72.59C225.027 72.2706 225.324 72.0239 225.675 71.8865C226.025 71.7492 226.411 71.7285 226.774 71.8275C228.147 72.1203 228.256 72.7242 229.116 72.6449C229.977 72.5656 229.665 73.4806 229.665 73.4806C229.665 73.4806 229.434 72.7913 228.397 73.1756C227.36 73.5599 226.683 72.6205 226.237 73.0414C225.792 73.4623 224.828 72.59 224.828 72.59Z" fill="#263238"/>
<path d="M216.624 80.1662C216.429 81.2537 215.877 82.2453 215.056 82.9844C213.97 83.9482 213.031 83.1735 212.994 81.8559C212.994 80.6664 213.5 78.7266 214.751 78.263C216.001 77.7994 216.849 78.8486 216.624 80.1662Z" fill="#B55B52"/>
<path d="M214.415 135.341C214.415 135.341 219.502 169.58 222.296 182.39C225.346 196.42 246.605 233.752 246.605 233.752L254.413 231.214C254.413 231.214 237.485 197.579 235.741 183.665C233.844 168.567 229.885 135.316 229.885 135.316L214.415 135.341Z" fill="#263238"/>
<path d="M244.421 231.312C244.391 231.312 246.209 234.045 246.209 234.045L254.98 231.19L253.949 228.567L244.421 231.312Z" fill="#01a809"/>
<path opacity="0.3" d="M217.63 147.541C223.511 148.694 222.889 170.623 222.181 181.902C220.485 173.929 218.002 158.588 216.307 147.699C216.717 147.497 217.184 147.441 217.63 147.541Z" fill="black"/>
<path d="M205.918 135.341C205.918 135.341 205.308 168.848 205.784 182.512C206.29 196.725 211.274 243.268 211.274 243.268H218.869C218.869 243.268 219.143 197.555 219.479 183.598C219.845 168.348 221.681 135.341 221.681 135.341H205.918Z" fill="#263238"/>
<path d="M209.797 240.242C209.76 240.242 210.224 243.396 210.224 243.396H219.459L219.709 240.584L209.797 240.242Z" fill="#01a809"/>
</svg>
