<svg width="129" height="153" viewBox="0 0 129 153" fill="none" xmlns="http://www.w3.org/2000/svg">
<path d="M128.418 78.8542C128.418 114.014 99.9156 142.517 64.7556 142.517C29.5956 142.517 1.09277 114.014 1.09277 78.8542C1.09277 43.6942 29.5956 15.1914 64.7556 15.1914C99.9156 15.1914 128.418 43.6942 128.418 78.8542Z" fill="url(#paint0_linear_30_2027)" stroke="black"/>
<g filter="url(#filter0_d_30_2027)">
<path d="M27.9689 51.9785H101.542C103.629 51.9785 105.32 53.6698 105.32 55.756V145.584C105.32 147.67 103.629 149.361 101.542 149.361H27.9689C25.8827 149.361 24.1914 147.67 24.1914 145.584V55.756C24.1914 53.6698 25.8827 51.9785 27.9689 51.9785Z" fill="white" stroke="black"/>
</g>
<path d="M33.9576 64.8105H56.2007C57.342 64.8105 58.2672 65.7358 58.2672 66.8771C58.2672 68.0184 57.342 68.9436 56.2007 68.9436H33.9576C32.8163 68.9436 31.8911 68.0184 31.8911 66.8771C31.8911 65.7358 32.8163 64.8105 33.9576 64.8105Z" fill="#7AC143" stroke="black"/>
<path d="M33.9576 75.9336H71.5998C72.7411 75.9336 73.6663 76.8588 73.6663 78.0001C73.6663 79.1414 72.7411 80.0666 71.5998 80.0666H33.9576C32.8163 80.0666 31.8911 79.1414 31.8911 78.0001C31.8911 76.8588 32.8163 75.9336 33.9576 75.9336Z" fill="#786FE9" fill-opacity="0.15" stroke="black"/>
<path d="M33.9576 87.9102H56.2007C57.342 87.9102 58.2672 88.8354 58.2672 89.9767C58.2672 91.118 57.342 92.0432 56.2007 92.0432H33.9576C32.8163 92.0432 31.8911 91.118 31.8911 89.9767C31.8911 88.8354 32.8163 87.9102 33.9576 87.9102Z" fill="#7AC143" stroke="black"/>
<path d="M33.9576 99.0332H71.5998C72.7411 99.0332 73.6663 99.9584 73.6663 101.1C73.6663 102.241 72.7411 103.166 71.5998 103.166H33.9576C32.8163 103.166 31.8911 102.241 31.8911 101.1C31.8911 99.9584 32.8163 99.0332 33.9576 99.0332Z" fill="#786FE9" fill-opacity="0.15" stroke="black"/>
<path d="M33.9576 111.008H56.2007C57.342 111.008 58.2672 111.933 58.2672 113.074C58.2672 114.216 57.342 115.141 56.2007 115.141H33.9576C32.8163 115.141 31.8911 114.216 31.8911 113.074C31.8911 111.933 32.8163 111.008 33.9576 111.008Z" fill="#7AC143" stroke="black"/>
<path d="M33.9576 122.131H71.5998C72.7411 122.131 73.6663 123.056 73.6663 124.197C73.6663 125.339 72.7411 126.264 71.5998 126.264H33.9576C32.8163 126.264 31.8911 125.339 31.8911 124.197C31.8911 123.056 32.8163 122.131 33.9576 122.131Z" fill="#786FE9" fill-opacity="0.15" stroke="black"/>
<g filter="url(#filter1_d_30_2027)">
<path d="M27.9689 8.3457H101.542C103.629 8.3457 105.32 10.037 105.32 12.1232V37.7883C105.32 39.8746 103.629 41.5659 101.542 41.5659H27.9689C25.8827 41.5659 24.1914 39.8746 24.1914 37.7883V12.1232C24.1914 10.037 25.8827 8.3457 27.9689 8.3457Z" fill="#509613" stroke="black"/>
</g>
<path d="M33.9576 17.7578H56.2007C57.342 17.7578 58.2672 18.683 58.2672 19.8243C58.2672 20.9656 57.342 21.8908 56.2007 21.8908H33.9576C32.8163 21.8908 31.8911 20.9656 31.8911 19.8243C31.8911 18.683 32.8163 17.7578 33.9576 17.7578Z" fill="white" stroke="black"/>
<path d="M33.9576 28.8809H71.5998C72.7411 28.8809 73.6663 29.8061 73.6663 30.9474C73.6663 32.0887 72.7411 33.0139 71.5998 33.0139H33.9576C32.8163 33.0139 31.8911 32.0887 31.8911 30.9474C31.8911 29.8061 32.8163 28.8809 33.9576 28.8809Z" fill="white" stroke="black"/>
<defs>
<filter id="filter0_d_30_2027" x="18.5584" y="43.779" width="92.3945" height="108.649" filterUnits="userSpaceOnUse" color-interpolation-filters="sRGB">
<feFlood flood-opacity="0" result="BackgroundImageFix"/>
<feColorMatrix in="SourceAlpha" type="matrix" values="0 0 0 0 0 0 0 0 0 0 0 0 0 0 0 0 0 0 127 0" result="hardAlpha"/>
<feOffset dy="-2.56651"/>
<feGaussianBlur stdDeviation="2.56651"/>
<feColorMatrix type="matrix" values="0 0 0 0 0.788235 0 0 0 0 0.803922 0 0 0 0 0.85098 0 0 0 0.349 0"/>
<feBlend mode="normal" in2="BackgroundImageFix" result="effect1_dropShadow_30_2027"/>
<feBlend mode="normal" in="SourceGraphic" in2="effect1_dropShadow_30_2027" result="shape"/>
</filter>
<filter id="filter1_d_30_2027" x="18.5584" y="0.146165" width="92.3945" height="44.4868" filterUnits="userSpaceOnUse" color-interpolation-filters="sRGB">
<feFlood flood-opacity="0" result="BackgroundImageFix"/>
<feColorMatrix in="SourceAlpha" type="matrix" values="0 0 0 0 0 0 0 0 0 0 0 0 0 0 0 0 0 0 127 0" result="hardAlpha"/>
<feOffset dy="-2.56651"/>
<feGaussianBlur stdDeviation="2.56651"/>
<feColorMatrix type="matrix" values="0 0 0 0 0.788235 0 0 0 0 0.803922 0 0 0 0 0.85098 0 0 0 0.349 0"/>
<feBlend mode="normal" in2="BackgroundImageFix" result="effect1_dropShadow_30_2027"/>
<feBlend mode="normal" in="SourceGraphic" in2="effect1_dropShadow_30_2027" result="shape"/>
</filter>
<linearGradient id="paint0_linear_30_2027" x1="64.7556" y1="14.6914" x2="64.7556" y2="143.017" gradientUnits="userSpaceOnUse">
<stop stop-color="#E3ECFA"/>
<stop offset="1" stop-color="#DAE7FF"/>
</linearGradient>
</defs>
</svg>
