<svg width="300" height="224" viewBox="0 0 300 224" fill="none" xmlns="http://www.w3.org/2000/svg">
<path d="M299.543 196.141H0V196.29H299.543V196.141Z" fill="#EBEBEB"/>
<path d="M269.529 205.781H249.687V205.931H269.529V205.781Z" fill="#EBEBEB"/>
<path d="M198.429 207.41H193.223V207.56H198.429V207.41Z" fill="#EBEBEB"/>
<path d="M249.088 200.219H237.591V200.369H249.088V200.219Z" fill="#EBEBEB"/>
<path d="M57.3027 201.227H31.4282V201.376H57.3027V201.227Z" fill="#EBEBEB"/>
<path d="M66.4323 201.227H62.6401V201.376H66.4323V201.227Z" fill="#EBEBEB"/>
<path d="M134.884 203.758H78.7617V203.908H134.884V203.758Z" fill="#EBEBEB"/>
<path d="M141.983 169.421H26.3059C25.3997 169.42 24.5311 169.059 23.8909 168.417C23.2507 167.776 22.8911 166.907 22.8911 166.001V3.39082C22.899 2.48981 23.2621 1.6283 23.9014 0.993415C24.5408 0.358528 25.4049 0.00154348 26.3059 0H141.983C142.891 0 143.761 0.360403 144.402 1.00192C145.044 1.64344 145.404 2.51353 145.404 3.42078V166.001C145.404 166.908 145.044 167.778 144.402 168.419C143.761 169.061 142.891 169.421 141.983 169.421ZM26.3059 0.119818C25.4394 0.121405 24.609 0.466727 23.9968 1.07999C23.3847 1.69325 23.0409 2.52434 23.0409 3.39082V166.001C23.0409 166.867 23.3847 167.698 23.9968 168.311C24.609 168.925 25.4394 169.27 26.3059 169.272H141.983C142.85 169.27 143.681 168.925 144.295 168.312C144.908 167.699 145.253 166.868 145.254 166.001V3.39082C145.253 2.52379 144.908 1.69271 144.295 1.07962C143.681 0.466532 142.85 0.121401 141.983 0.119818H26.3059Z" fill="#EBEBEB"/>
<path d="M271.571 169.421H155.888C154.981 169.42 154.112 169.059 153.471 168.418C152.83 167.777 152.469 166.907 152.467 166.001V3.39082C152.477 2.48927 152.841 1.62776 153.481 0.99304C154.122 0.358318 154.986 0.00152664 155.888 0H271.571C272.471 0.00311794 273.334 0.360799 273.972 0.995517C274.61 1.63024 274.972 2.49085 274.98 3.39082V166.001C274.98 166.906 274.622 167.774 273.983 168.415C273.344 169.056 272.477 169.418 271.571 169.421ZM155.888 0.119818C155.021 0.121401 154.19 0.466532 153.577 1.07962C152.964 1.69271 152.619 2.52379 152.617 3.39082V166.001C152.619 166.868 152.964 167.699 153.577 168.312C154.19 168.925 155.021 169.27 155.888 169.272H271.571C272.439 169.27 273.27 168.925 273.883 168.312C274.496 167.699 274.841 166.868 274.842 166.001V3.39082C274.841 2.52379 274.496 1.69271 273.883 1.07962C273.27 0.466532 272.439 0.121401 271.571 0.119818H155.888Z" fill="#EBEBEB"/>
<path d="M259.991 21.957H33.0757V101.204H259.991V21.957Z" fill="#E6E6E6"/>
<path d="M263.034 21.957H34.4951V101.204H263.034V21.957Z" fill="#F0F0F0"/>
<path d="M259.991 101.203H33.0757V104.025H259.991V101.203Z" fill="#E6E6E6"/>
<path d="M264.856 101.203H36.3164V104.025H264.856V101.203Z" fill="#F0F0F0"/>
<path d="M258.775 96.951V26.2109L38.7488 26.2109V96.951L258.775 96.951Z" fill="#FAFAFA"/>
<path d="M178.684 96.951L185.495 26.2109H197.285L190.468 96.951H178.684Z" fill="white"/>
<path d="M109.105 96.951L115.917 26.2109H127.701L120.889 96.951H109.105Z" fill="white"/>
<path d="M41.6484 85.5774C41.5371 85.5774 41.4305 85.5333 41.3518 85.4546C41.2732 85.376 41.229 85.2693 41.229 85.1581V29.0717C41.229 28.9605 41.2732 28.8538 41.3518 28.7752C41.4305 28.6965 41.5371 28.6523 41.6484 28.6523C41.7596 28.6523 41.8663 28.6965 41.9449 28.7752C42.0235 28.8538 42.0677 28.9605 42.0677 29.0717V85.1581C42.0677 85.2693 42.0235 85.376 41.9449 85.4546C41.8663 85.5333 41.7596 85.5774 41.6484 85.5774Z" fill="#F0F0F0"/>
<path d="M193.001 96.951L199.813 26.2109H204.408L197.596 96.951H193.001Z" fill="white"/>
<path d="M258.781 96.9549V26.2148H258.242V96.9549H258.781Z" fill="#E6E6E6"/>
<path opacity="0.5" d="M264.041 31.338H37.1254L36.73 27.8633H263.646L264.041 31.338Z" fill="#E0E0E0"/>
<path opacity="0.5" d="M264.041 37.039H37.1254L36.73 33.5703H263.646L264.041 37.039Z" fill="#E0E0E0"/>
<path opacity="0.5" d="M264.041 42.752H37.1254L36.73 39.2773H263.646L264.041 42.752Z" fill="#E0E0E0"/>
<path opacity="0.5" d="M264.041 48.457H37.1254L36.73 44.9883H263.646L264.041 48.457Z" fill="#E0E0E0"/>
<path opacity="0.5" d="M264.041 54.1562H37.1254L36.73 50.6875H263.646L264.041 54.1562Z" fill="#E0E0E0"/>
<path opacity="0.5" d="M264.041 59.8653H37.1254L36.73 56.3906H263.646L264.041 59.8653Z" fill="#E0E0E0"/>
<path d="M175.646 171.794H209.794C210.329 171.792 210.843 171.579 211.222 171.201C211.601 170.823 211.816 170.31 211.819 169.775C211.817 169.238 211.603 168.724 211.224 168.345C210.845 167.965 210.33 167.752 209.794 167.75H175.646C175.109 167.752 174.595 167.965 174.216 168.345C173.837 168.724 173.623 169.238 173.621 169.775C173.624 170.31 173.839 170.823 174.218 171.201C174.597 171.579 175.11 171.792 175.646 171.794Z" fill="#EBEBEB"/>
<path d="M214.97 167.751H216.108L220.439 139.492H219.301L214.97 167.751Z" fill="#E0E0E0"/>
<path d="M197.645 167.751H198.777L203.108 139.492H201.976L197.645 167.751Z" fill="#E0E0E0"/>
<path d="M197.596 162.072H219.864C220.609 162.048 221.323 161.767 221.884 161.277C222.445 160.787 222.82 160.117 222.944 159.382L226.341 135.784C226.402 135.451 226.389 135.108 226.301 134.78C226.213 134.452 226.053 134.148 225.832 133.891C225.612 133.633 225.336 133.428 225.026 133.29C224.716 133.152 224.379 133.085 224.04 133.095H201.766C201.021 133.119 200.308 133.4 199.747 133.89C199.185 134.38 198.811 135.05 198.687 135.784L195.302 159.358C195.237 159.693 195.249 160.038 195.335 160.368C195.421 160.698 195.58 161.004 195.8 161.264C196.02 161.524 196.296 161.732 196.607 161.872C196.918 162.012 197.256 162.08 197.596 162.072Z" fill="#EBEBEB"/>
<path d="M200.885 171.794H216.503C217.038 171.792 217.551 171.579 217.929 171.201C218.307 170.822 218.521 170.31 218.522 169.775C218.521 169.239 218.308 168.726 217.93 168.347C217.551 167.968 217.039 167.753 216.503 167.75H200.885C200.349 167.752 199.836 167.966 199.457 168.345C199.079 168.725 198.866 169.239 198.866 169.775C198.868 170.31 199.081 170.822 199.459 171.201C199.838 171.579 200.35 171.792 200.885 171.794Z" fill="#F5F5F5"/>
<path d="M192.384 196.14H193.523L197.854 171.793H196.716L192.384 196.14Z" fill="#E0E0E0"/>
<path d="M172.698 196.14H173.831L178.162 171.793H177.03L172.698 196.14Z" fill="#E0E0E0"/>
<path d="M200.005 196.14H198.872L194.541 171.793H195.673L200.005 196.14Z" fill="#E0E0E0"/>
<path d="M219.697 196.14H218.558L214.227 171.793H215.365L219.697 196.14Z" fill="#E0E0E0"/>
<path d="M74.2326 171.792H40.1387C39.6032 171.79 39.0899 171.577 38.7107 171.199C38.3315 170.821 38.1169 170.309 38.1138 169.773C38.1138 169.236 38.3269 168.72 38.7065 168.339C39.0861 167.958 39.6011 167.744 40.1387 167.742H74.2866C74.8231 167.744 75.3372 167.958 75.7166 168.337C76.096 168.716 76.3099 169.231 76.3115 169.767C76.3107 170.037 76.2561 170.305 76.1507 170.554C76.0453 170.803 75.8913 171.028 75.6976 171.216C75.504 171.405 75.2747 171.553 75.0232 171.652C74.7716 171.751 74.5028 171.798 74.2326 171.792Z" fill="#EBEBEB"/>
<path d="M34.9086 167.751H33.7704L29.439 139.492H30.5772L34.9086 167.751Z" fill="#E0E0E0"/>
<path d="M52.2347 167.751H51.1024L46.771 139.492H47.9033L52.2347 167.751Z" fill="#E0E0E0"/>
<path d="M52.2881 162.069H30.032C29.2848 162.042 28.5699 161.757 28.0094 161.262C27.4489 160.767 27.0776 160.093 26.9587 159.355L23.5619 135.757C23.5002 135.424 23.5138 135.08 23.6018 134.753C23.6897 134.425 23.8498 134.121 24.0704 133.863C24.2909 133.605 24.5662 133.4 24.8763 133.262C25.1863 133.125 25.5233 133.058 25.8624 133.067H48.1124C48.8573 133.091 49.5708 133.372 50.1321 133.863C50.6933 134.353 51.0677 135.022 51.1917 135.757L54.5886 159.355C54.6532 159.69 54.6418 160.036 54.5553 160.366C54.4687 160.696 54.3092 161.003 54.0885 161.263C53.8677 161.524 53.5914 161.731 53.2798 161.871C52.9682 162.01 52.6293 162.078 52.2881 162.069Z" fill="#EBEBEB"/>
<path d="M48.993 171.792H33.3749C32.8399 171.79 32.3273 171.577 31.949 171.199C31.5708 170.821 31.3575 170.308 31.356 169.773C31.3559 169.237 31.5683 168.722 31.9466 168.341C32.3248 167.961 32.8383 167.745 33.3749 167.742H48.993C49.529 167.744 50.0425 167.958 50.421 168.337C50.7994 168.717 51.012 169.231 51.012 169.767C51.012 170.303 50.7994 170.817 50.421 171.197C50.0425 171.576 49.529 171.79 48.993 171.792Z" fill="#F5F5F5"/>
<path d="M57.4941 196.14H56.3558L52.0244 171.793H53.1627L57.4941 196.14Z" fill="#E0E0E0"/>
<path d="M77.1801 196.14H76.0478L71.7104 171.793H72.8487L77.1801 196.14Z" fill="#E0E0E0"/>
<path d="M49.874 196.14H51.0063L55.3377 171.793H54.2054L49.874 196.14Z" fill="#E0E0E0"/>
<path d="M30.1821 196.14H31.3204L35.6518 171.793H34.5135L30.1821 196.14Z" fill="#E0E0E0"/>
<path d="M212.633 171.792H178.527C177.992 171.79 177.479 171.577 177.099 171.199C176.72 170.821 176.506 170.309 176.502 169.773C176.502 169.236 176.716 168.72 177.095 168.339C177.475 167.958 177.99 167.744 178.527 167.742H212.675C213.212 167.744 213.726 167.958 214.105 168.337C214.485 168.716 214.699 169.231 214.7 169.767C214.699 170.036 214.645 170.303 214.54 170.551C214.436 170.799 214.283 171.024 214.091 171.212C213.898 171.401 213.67 171.549 213.42 171.648C213.17 171.748 212.903 171.797 212.633 171.792Z" fill="#EBEBEB"/>
<path d="M173.304 167.751H172.171L167.84 139.492H168.972L173.304 167.751Z" fill="#E0E0E0"/>
<path d="M190.635 167.751H189.497L185.166 139.492H186.304L190.635 167.751Z" fill="#E0E0E0"/>
<path d="M190.683 162.069H168.433C167.683 162.046 166.965 161.763 166.402 161.267C165.838 160.772 165.466 160.096 165.347 159.355L161.951 135.757C161.889 135.424 161.902 135.08 161.99 134.753C162.078 134.425 162.239 134.121 162.459 133.863C162.68 133.605 162.955 133.4 163.265 133.262C163.575 133.125 163.912 133.058 164.251 133.067H186.501C187.246 133.09 187.96 133.371 188.522 133.861C189.083 134.352 189.457 135.022 189.58 135.757L192.983 159.355C193.049 159.69 193.038 160.036 192.952 160.367C192.866 160.698 192.707 161.005 192.486 161.265C192.265 161.526 191.988 161.734 191.676 161.873C191.364 162.012 191.024 162.079 190.683 162.069Z" fill="#EBEBEB"/>
<path d="M187.394 171.794H171.776C171.24 171.792 170.727 171.579 170.348 171.201C169.969 170.823 169.754 170.31 169.751 169.775C169.753 169.238 169.966 168.724 170.346 168.345C170.725 167.965 171.239 167.752 171.776 167.75H187.394C187.93 167.753 188.442 167.968 188.82 168.347C189.198 168.726 189.411 169.239 189.413 169.775C189.411 170.31 189.198 170.822 188.82 171.201C188.442 171.579 187.929 171.792 187.394 171.794Z" fill="#F5F5F5"/>
<path d="M195.895 196.14H194.757L190.425 171.793H191.558L195.895 196.14Z" fill="#E0E0E0"/>
<path d="M215.581 196.14H214.443L210.111 171.793H211.25L215.581 196.14Z" fill="#E0E0E0"/>
<path d="M188.269 196.14H189.407L193.738 171.793H192.6L188.269 196.14Z" fill="#E0E0E0"/>
<path d="M168.583 196.14H169.715L174.053 171.793H172.914L168.583 196.14Z" fill="#E0E0E0"/>
<path d="M226.79 171.794H260.938C261.473 171.792 261.987 171.579 262.366 171.201C262.745 170.823 262.96 170.31 262.963 169.775C262.961 169.238 262.747 168.724 262.368 168.345C261.989 167.965 261.474 167.752 260.938 167.75H226.79C226.253 167.752 225.739 167.965 225.36 168.345C224.981 168.724 224.767 169.238 224.765 169.775C224.768 170.31 224.983 170.823 225.362 171.201C225.741 171.579 226.255 171.792 226.79 171.794Z" fill="#EBEBEB"/>
<path d="M266.114 167.751H267.252L271.583 139.492H270.451L266.114 167.751Z" fill="#E0E0E0"/>
<path d="M248.788 167.751H249.92L254.258 139.492H253.119L248.788 167.751Z" fill="#E0E0E0"/>
<path d="M248.74 162.072H270.99C271.735 162.048 272.449 161.767 273.01 161.277C273.571 160.787 273.946 160.117 274.07 159.382L277.467 135.784C277.528 135.451 277.515 135.108 277.427 134.78C277.339 134.452 277.179 134.148 276.958 133.891C276.738 133.633 276.462 133.428 276.152 133.29C275.842 133.152 275.505 133.085 275.166 133.095H252.91C252.166 133.118 251.452 133.399 250.892 133.889C250.331 134.38 249.958 135.05 249.837 135.784L246.434 159.358C246.369 159.694 246.381 160.04 246.468 160.371C246.554 160.701 246.714 161.008 246.936 161.269C247.157 161.529 247.434 161.737 247.747 161.876C248.059 162.015 248.399 162.082 248.74 162.072Z" fill="#EBEBEB"/>
<path d="M252.029 171.794H267.647C268.182 171.792 268.695 171.579 269.073 171.201C269.451 170.822 269.665 170.31 269.666 169.775C269.666 169.239 269.454 168.725 269.075 168.345C268.697 167.966 268.183 167.752 267.647 167.75H252.029C251.494 167.753 250.981 167.968 250.603 168.347C250.225 168.726 250.012 169.239 250.01 169.775C250.012 170.31 250.225 170.822 250.603 171.201C250.982 171.579 251.494 171.792 252.029 171.794Z" fill="#F5F5F5"/>
<path d="M243.528 196.14H244.667L248.998 171.793H247.866L243.528 196.14Z" fill="#E0E0E0"/>
<path d="M223.842 196.14H224.981L229.312 171.793H228.174L223.842 196.14Z" fill="#E0E0E0"/>
<path d="M251.155 196.14H250.016L245.685 171.793H246.823L251.155 196.14Z" fill="#E0E0E0"/>
<path d="M270.84 196.14H269.702L265.371 171.793H266.509L270.84 196.14Z" fill="#E0E0E0"/>
<path d="M92.7686 171.794H126.916C127.452 171.792 127.965 171.579 128.344 171.201C128.724 170.823 128.938 170.31 128.941 169.775C128.94 169.238 128.726 168.724 128.347 168.345C127.967 167.965 127.453 167.752 126.916 167.75H92.7686C92.232 167.752 91.7179 167.965 91.3385 168.345C90.9591 168.724 90.7452 169.238 90.7437 169.775C90.7468 170.31 90.9613 170.823 91.3406 171.201C91.7198 171.579 92.233 171.792 92.7686 171.794Z" fill="#EBEBEB"/>
<path d="M132.098 167.751H133.23L137.562 139.492H136.43L132.098 167.751Z" fill="#E0E0E0"/>
<path d="M114.767 167.751H115.905L120.236 139.492H119.098L114.767 167.751Z" fill="#E0E0E0"/>
<path d="M114.719 162.072H136.969C137.714 162.048 138.427 161.767 138.989 161.277C139.55 160.787 139.924 160.117 140.048 159.382L143.445 135.784C143.507 135.451 143.493 135.108 143.405 134.78C143.317 134.452 143.157 134.148 142.937 133.891C142.716 133.633 142.441 133.428 142.131 133.29C141.821 133.152 141.484 133.085 141.145 133.095H118.889C118.144 133.118 117.431 133.399 116.87 133.889C116.31 134.38 115.937 135.05 115.815 135.784L112.412 159.358C112.348 159.694 112.359 160.04 112.446 160.371C112.533 160.701 112.693 161.008 112.914 161.269C113.136 161.529 113.413 161.737 113.725 161.876C114.038 162.015 114.377 162.082 114.719 162.072Z" fill="#EBEBEB"/>
<path d="M118.02 171.794H133.638C134.174 171.792 134.687 171.579 135.066 171.201C135.445 170.823 135.66 170.31 135.663 169.775C135.661 169.238 135.448 168.724 135.068 168.345C134.689 167.965 134.175 167.752 133.638 167.75H118.02C117.484 167.753 116.972 167.968 116.594 168.347C116.216 168.726 116.003 169.239 116.001 169.775C116.003 170.31 116.216 170.822 116.594 171.201C116.972 171.579 117.485 171.792 118.02 171.794Z" fill="#F5F5F5"/>
<path d="M109.507 196.14H110.645L114.976 171.793H113.844L109.507 196.14Z" fill="#E0E0E0"/>
<path d="M89.8208 196.14H90.9591L95.2905 171.793H94.1522L89.8208 196.14Z" fill="#E0E0E0"/>
<path d="M117.133 196.14H115.995L111.664 171.793H112.802L117.133 196.14Z" fill="#E0E0E0"/>
<path d="M136.819 196.14H135.687L131.35 171.793H132.488L136.819 196.14Z" fill="#E0E0E0"/>
<path d="M149.771 223.196C213.923 223.196 265.928 220.16 265.928 216.414C265.928 212.669 213.923 209.633 149.771 209.633C85.6194 209.633 33.6143 212.669 33.6143 216.414C33.6143 220.16 85.6194 223.196 149.771 223.196Z" fill="#F5F5F5"/>
<path d="M133.596 112.52C133.716 115.887 127.881 123.411 127.881 123.411C127.881 123.411 121.524 116.324 121.404 112.957C121.285 109.59 123.124 106.793 127.281 106.643C131.439 106.493 133.494 109.153 133.596 112.52Z" fill="#01a809"/>
<path d="M128.109 112.73H127.701V202.09H128.109V112.73Z" fill="#263238"/>
<path d="M117.595 199.391C117.405 199.39 117.218 199.43 117.046 199.509C116.874 199.588 116.722 199.704 116.599 199.849C116.477 199.994 116.388 200.163 116.339 200.346C116.289 200.528 116.28 200.72 116.313 200.906C117.181 205.615 122.04 209.222 127.905 209.222C133.77 209.222 138.623 205.627 139.491 200.906C139.525 200.72 139.517 200.529 139.468 200.346C139.419 200.164 139.331 199.994 139.209 199.849C139.087 199.704 138.935 199.588 138.763 199.509C138.591 199.43 138.404 199.389 138.215 199.391H117.595Z" fill="#01a809"/>
<path d="M124.67 130.769C122.515 128.567 119.856 126.922 116.923 125.977C114.479 128.487 116.822 131.931 124.67 130.769Z" fill="#01a809"/>
<path d="M127.785 135.046C125.904 131.655 121.794 127.575 116.888 126.096L116.966 125.832C121.962 127.33 126.12 131.475 128.025 134.914L127.785 135.046Z" fill="#263238"/>
<path d="M123.49 154.043C123.49 145.955 117.601 143.709 112.916 147.483C109.585 150.928 112.736 155.625 123.49 154.043Z" fill="#01a809"/>
<path d="M127.785 159.854C125.215 155.218 119.608 149.634 112.88 147.615L112.958 147.352C119.763 149.394 125.431 155.032 128.025 159.723L127.785 159.854Z" fill="#263238"/>
<path d="M132.05 140.905C134.809 138.072 138.219 135.958 141.983 134.746C145.092 137.981 142.133 142.39 132.05 140.905Z" fill="#01a809"/>
<path d="M128.025 146.361L127.785 146.23C130.223 141.826 135.537 136.53 141.93 134.613L142.007 134.877C135.693 136.776 130.433 142.012 128.025 146.361Z" fill="#263238"/>
<path d="M132.266 164.394C135.291 160.301 139.271 157.011 143.858 154.809C148.399 158.427 145.386 164.556 132.266 164.394Z" fill="#01a809"/>
<path d="M128.031 172.034L127.773 171.939C130.127 165.912 135.992 158.255 143.798 154.715L143.912 154.966C136.178 158.471 130.361 166.068 128.031 172.034Z" fill="#263238"/>
<path d="M97.8307 186.488H57.1947C56.5591 186.488 55.9496 186.236 55.5002 185.786C55.0508 185.337 54.7983 184.727 54.7983 184.092C54.7983 183.456 55.0508 182.847 55.5002 182.397C55.9496 181.948 56.5591 181.695 57.1947 181.695H97.8307C98.4662 181.695 99.0757 181.948 99.5251 182.397C99.9745 182.847 100.227 183.456 100.227 184.092C100.227 184.727 99.9745 185.337 99.5251 185.786C99.0757 186.236 98.4662 186.488 97.8307 186.488Z" fill="#01a809"/>
<path d="M51.0002 181.672H49.6523L44.4941 148.016H45.8421L51.0002 181.672Z" fill="#263238"/>
<path d="M71.6385 181.672H70.2846L65.1265 148.016H66.4804L71.6385 181.672Z" fill="#263238"/>
<path d="M71.6925 174.934H45.1949C44.3082 174.906 43.4587 174.571 42.7912 173.986C42.1238 173.402 41.6796 172.604 41.5345 171.729L37.4847 143.632C37.4125 143.234 37.4298 142.826 37.5353 142.435C37.6408 142.045 37.8318 141.684 38.0946 141.377C38.3574 141.07 38.6852 140.825 39.0544 140.661C39.4235 140.497 39.8246 140.417 40.2285 140.427H66.7261C67.6132 140.456 68.4629 140.791 69.1311 141.375C69.7994 141.959 70.245 142.756 70.3925 143.632L74.4363 171.729C74.5085 172.126 74.4912 172.535 74.3857 172.925C74.2802 173.315 74.0892 173.677 73.8264 173.984C73.5636 174.291 73.2358 174.535 72.8667 174.7C72.4975 174.864 72.0964 174.944 71.6925 174.934Z" fill="#01a809"/>
<path opacity="0.4" d="M37.4848 143.607L41.5346 171.704C41.6365 172.385 41.9294 173.023 42.3793 173.544C43.3498 174.688 45.0752 174.065 44.8715 172.669L40.5521 142.643C40.3484 141.247 38.4433 140.63 37.8023 141.768C37.4992 142.33 37.3877 142.976 37.4848 143.607Z" fill="white"/>
<path d="M67.7741 186.488H49.2025C48.5669 186.488 47.9574 186.236 47.508 185.786C47.0586 185.337 46.8062 184.727 46.8062 184.092C46.8062 183.456 47.0586 182.847 47.508 182.397C47.9574 181.948 48.5669 181.695 49.2025 181.695H67.7741C68.4097 181.695 69.0192 181.948 69.4686 182.397C69.918 182.847 70.1705 183.456 70.1705 184.092C70.1705 184.727 69.918 185.337 69.4686 185.786C69.0192 186.236 68.4097 186.488 67.7741 186.488Z" fill="#01a809"/>
<path opacity="0.4" d="M67.7741 186.488H49.2025C48.5669 186.488 47.9574 186.236 47.508 185.786C47.0586 185.337 46.8062 184.727 46.8062 184.092C46.8062 183.456 47.0586 182.847 47.508 182.397C47.9574 181.948 48.5669 181.695 49.2025 181.695H67.7741C68.4097 181.695 69.0192 181.948 69.4686 182.397C69.918 182.847 70.1705 183.456 70.1705 184.092C70.1705 184.727 69.918 185.337 69.4686 185.786C69.0192 186.236 68.4097 186.488 67.7741 186.488Z" fill="white"/>
<path d="M77.8988 215.472H76.5448L71.3867 186.488H72.7347L77.8988 215.472Z" fill="#263238"/>
<path d="M101.341 215.472H99.9872L94.8291 186.488H96.183L101.341 215.472Z" fill="#263238"/>
<path d="M68.8228 215.472H70.1707L75.3288 186.488H73.9809L68.8228 215.472Z" fill="#263238"/>
<path d="M45.3745 215.472H46.7284L51.8866 186.488H50.5386L45.3745 215.472Z" fill="#263238"/>
<path d="M114.887 187.629L108.207 190.534L112.035 195.004L117.625 192.583L114.887 187.629Z" fill="#7F3E3B"/>
<path opacity="0.2" d="M114.886 187.633L108.201 190.538L110.351 193.043L116.42 190.407L114.886 187.633Z" fill="black"/>
<path d="M110.861 197.163L111.621 197.019C111.845 196.975 112.053 196.877 112.229 196.733C112.405 196.588 112.542 196.403 112.628 196.192L113.107 196.438C113.381 196.574 113.692 196.618 113.994 196.564L124.382 194.539C124.299 193.822 124.028 193.14 123.597 192.562C123.597 192.562 118.99 193.203 117.696 192.071C117.649 192.026 117.59 191.996 117.527 191.983C117.463 191.971 117.397 191.976 117.337 191.999C116.492 192.358 113.143 193.682 111.07 193.412C111.006 193.406 110.94 193.414 110.88 193.437C110.819 193.46 110.764 193.497 110.72 193.545C110.676 193.592 110.644 193.649 110.625 193.712C110.607 193.774 110.604 193.84 110.615 193.904C110.774 194.983 110.857 196.072 110.861 197.163Z" fill="#01a809"/>
<path d="M117.505 192.338H117.469C117.448 192.331 117.431 192.318 117.418 192.301C117.405 192.284 117.398 192.263 117.397 192.242C117.355 191.565 117.678 190.319 118.134 190.103C118.203 190.071 118.282 190.062 118.357 190.077C118.432 190.092 118.501 190.131 118.553 190.187C118.601 190.23 118.639 190.283 118.663 190.342C118.688 190.401 118.7 190.465 118.697 190.529C118.697 191.182 117.63 192.266 117.582 192.326C117.559 192.339 117.531 192.343 117.505 192.338ZM118.289 190.283H118.229C117.942 190.421 117.66 191.289 117.63 191.936C117.978 191.553 118.499 190.894 118.493 190.511C118.493 190.477 118.486 190.444 118.472 190.413C118.459 190.382 118.44 190.354 118.415 190.331C118.399 190.314 118.379 190.301 118.357 190.293C118.336 190.285 118.313 190.281 118.289 190.283Z" fill="#01a809"/>
<path d="M118.493 192.415C118.156 192.413 117.82 192.387 117.487 192.338C117.465 192.334 117.445 192.324 117.43 192.309C117.414 192.294 117.402 192.275 117.397 192.254C117.393 192.233 117.395 192.211 117.402 192.191C117.41 192.171 117.422 192.153 117.439 192.14C117.954 191.715 119.158 191.235 119.596 191.481C119.663 191.519 119.716 191.577 119.75 191.646C119.783 191.716 119.794 191.794 119.781 191.87C119.762 191.997 119.693 192.112 119.59 192.188C119.252 192.364 118.873 192.443 118.493 192.415ZM117.798 192.152C118.354 192.257 118.928 192.208 119.458 192.008C119.486 191.989 119.509 191.964 119.527 191.935C119.544 191.906 119.555 191.874 119.56 191.84C119.56 191.733 119.56 191.697 119.494 191.673C119.218 191.523 118.343 191.804 117.798 192.152Z" fill="#01a809"/>
<path d="M54.8403 166.595L57.704 172.586C61.9275 181.434 72.3396 185.885 80.6489 182.405C85.5015 180.362 90.7974 176.066 94.4279 174.101C97.5132 180.853 103.282 188.312 107.698 193.494L116.636 189.001C113.299 181.338 108.099 169.38 104.804 161.61C104.213 160.24 103.248 159.064 102.021 158.217C100.793 157.369 99.3511 156.884 97.8607 156.818C82.9794 156.392 54.8403 166.595 54.8403 166.595Z" fill="#263238"/>
<path d="M98.2681 207.244L90.9893 206.902L92.457 212.606L98.5377 212.893L98.2681 207.244Z" fill="#7F3E3B"/>
<path opacity="0.2" d="M98.2678 207.244L90.9829 206.902L91.8037 210.095L98.4176 210.407L98.2678 207.244Z" fill="black"/>
<path d="M91.3364 215.605H92.1152C92.3413 215.607 92.5644 215.553 92.7649 215.449C92.9654 215.344 93.1373 215.192 93.2655 215.006L93.6848 215.329C93.9269 215.521 94.2269 215.624 94.5355 215.623H105.109C105.167 214.904 105.032 214.182 104.72 213.532C104.72 213.532 100.077 213.281 99.0227 211.921C98.9861 211.868 98.9347 211.827 98.875 211.804C98.8153 211.78 98.7499 211.775 98.6872 211.789C97.7886 211.975 94.2719 212.64 92.265 211.975C92.2026 211.955 92.1364 211.95 92.0718 211.961C92.0072 211.971 91.9459 211.997 91.893 212.035C91.84 212.074 91.7967 212.124 91.7667 212.182C91.7366 212.24 91.7206 212.304 91.7198 212.37C91.6703 213.456 91.5422 214.537 91.3364 215.605Z" fill="#01a809"/>
<path d="M98.807 212.143C98.7874 212.148 98.7667 212.148 98.7471 212.143C98.7295 212.132 98.7156 212.115 98.7071 212.096C98.6985 212.077 98.6958 212.056 98.6991 212.035C98.789 211.37 99.3402 210.202 99.8314 210.082C99.9053 210.063 99.9835 210.067 100.055 210.095C100.126 210.123 100.186 210.173 100.227 210.238C100.265 210.29 100.291 210.349 100.304 210.412C100.318 210.475 100.318 210.54 100.305 210.603C100.191 211.25 98.9208 212.107 98.8669 212.143C98.8474 212.149 98.8265 212.149 98.807 212.143ZM99.9213 210.268H99.8853C99.5738 210.346 99.1365 211.148 98.9687 211.772C99.3881 211.466 100.017 210.921 100.089 210.537C100.096 210.504 100.096 210.47 100.089 210.437C100.081 210.404 100.067 210.373 100.047 210.346C100.034 210.325 100.015 210.308 99.9929 210.296C99.9708 210.285 99.9462 210.279 99.9213 210.28V210.268Z" fill="#01a809"/>
<path d="M100.383 212.473C99.8323 212.439 99.2896 212.326 98.7711 212.138C98.751 212.131 98.7334 212.118 98.7206 212.101C98.7079 212.084 98.7004 212.063 98.6992 212.042C98.6972 212.021 98.7012 212 98.7107 211.98C98.7203 211.961 98.735 211.945 98.7532 211.934C99.3522 211.617 100.616 211.377 101 211.701C101.06 211.748 101.104 211.815 101.123 211.889C101.143 211.964 101.137 212.043 101.108 212.114C101.086 212.175 101.053 212.23 101.01 212.278C100.967 212.325 100.914 212.363 100.856 212.39C100.706 212.451 100.545 212.48 100.383 212.473ZM99.1066 212.018C99.6318 212.225 100.203 212.285 100.76 212.192C100.823 212.163 100.872 212.112 100.898 212.048C100.928 211.946 100.898 211.898 100.862 211.868C100.646 211.665 99.7117 211.779 99.1066 212.018Z" fill="#01a809"/>
<path d="M50.6768 164.223L50.7247 170.555C50.8026 179.895 58.7105 182.609 68.1761 183.322C73.6936 183.729 81.1522 183.855 85.4537 183.771C86.0827 190.313 88.1256 203.642 90.1805 209.226L99.4783 208.579C99.7239 200.653 100.077 189.408 100.383 181.956C100.395 180.466 99.9818 179.005 99.1923 177.742C98.4029 176.479 97.2697 175.468 95.9257 174.826C81.985 167.949 50.6768 164.223 50.6768 164.223Z" fill="#263238"/>
<path opacity="0.2" d="M94.7694 174.887C96.3615 178.084 98.2086 181.147 100.293 184.047C100.245 185.353 100.197 186.743 100.143 188.181C96.8543 182.987 94.7515 174.875 94.7515 174.875L94.7694 174.887Z" fill="black"/>
<path d="M81.0143 127.649L81.6134 127.955L82.3562 128.326C82.8654 128.56 83.3807 128.8 83.9019 129.009C84.9168 129.431 85.9573 129.79 87.0171 130.082C87.9981 130.346 89.0004 130.525 90.0125 130.615C90.9111 130.684 91.8149 130.64 92.7024 130.483L90.9052 131.561C91.4629 131.14 91.9347 130.615 92.2951 130.016C92.8467 129.168 93.343 128.286 93.7808 127.374C94.266 126.403 94.7154 125.379 95.1587 124.33L96.4767 121.161L96.5426 121.011C96.7641 120.482 97.1565 120.042 97.6573 119.761C98.158 119.481 98.7381 119.376 99.3054 119.464C99.8726 119.551 100.394 119.826 100.787 120.244C101.18 120.663 101.421 121.201 101.473 121.772C101.585 123.083 101.605 124.401 101.533 125.714C101.466 127.039 101.314 128.357 101.078 129.662C100.826 131.056 100.447 132.424 99.9454 133.748C99.3503 135.369 98.4516 136.861 97.2974 138.145C96.9208 138.552 96.4554 138.865 95.9375 139.062L95.4942 139.224C93.7496 139.871 91.9138 140.239 90.0545 140.314C88.3093 140.389 86.5615 140.254 84.8484 139.913C83.2252 139.597 81.6348 139.132 80.0977 138.523C79.3428 138.217 78.594 137.924 77.8691 137.534C77.5036 137.349 77.1442 137.163 76.7787 136.935L76.2276 136.612L75.5925 136.222C74.4792 135.536 73.674 134.447 73.3454 133.181C73.0167 131.915 73.1899 130.572 73.8288 129.431C74.4677 128.29 75.5229 127.44 76.7738 127.059C78.0247 126.678 79.3745 126.795 80.541 127.386L81.0143 127.649Z" fill="#803E3C"/>
<path d="M98.4657 124.095L96.4527 121.944C95.2905 119.092 99.2205 118.236 99.2205 118.236L100.946 117.038C101.264 116.852 101.637 116.784 102 116.847C102.362 116.909 102.691 117.098 102.929 117.379L104.337 118.871C104.644 119.16 104.827 119.558 104.845 119.98C104.863 120.403 104.715 120.815 104.433 121.129L103.121 122.387C102.738 122.754 102.271 123.02 101.761 123.16L98.4657 124.095Z" fill="#7F3E3B"/>
<path d="M70.6922 123.326C71.9263 121.667 75.7065 122.092 79.5527 125.842C80.5052 125.8 82.9734 128.035 85.8371 128.76C88.7007 129.485 89.6413 134.631 89.1201 136.686C88.5749 138.842 87.4965 140.28 84.8246 140.562C82.1527 140.843 78.6361 139.118 75.8024 136.967C72.9687 134.817 68.4935 126.268 70.6922 123.326Z" fill="#01a809"/>
<path d="M69.2841 122.012C63.9263 122.041 58.5824 122.559 53.3184 123.557C52.4508 123.738 51.6292 124.094 50.9039 124.604C50.1787 125.113 49.5651 125.765 49.1007 126.52C48.6363 127.275 48.3309 128.117 48.2032 128.994C48.0755 129.871 48.1282 130.765 48.358 131.621C52.3 146.598 50.0714 162.995 50.3829 165.997C50.3829 165.997 81.763 170.514 86.5737 161.204C89.1318 148.779 82.0506 143.753 78.2823 128.925C77.7139 126.965 76.5346 125.237 74.9161 123.994C73.2977 122.75 71.3246 122.056 69.2841 122.012Z" fill="#01a809"/>
<path opacity="0.8" d="M69.2841 122.012C63.9263 122.041 58.5824 122.559 53.3184 123.557C52.4508 123.738 51.6292 124.094 50.9039 124.604C50.1787 125.113 49.5651 125.765 49.1007 126.52C48.6363 127.275 48.3309 128.117 48.2032 128.994C48.0755 129.871 48.1282 130.765 48.358 131.621C52.3 146.598 50.0714 162.995 50.3829 165.997C50.3829 165.997 81.763 170.514 86.5737 161.204C89.1318 148.779 82.0506 143.753 78.2823 128.925C77.7139 126.965 76.5346 125.237 74.9161 123.994C73.2977 122.75 71.3246 122.056 69.2841 122.012Z" fill="white"/>
<g opacity="0.2">
<path d="M54.5831 164.988C54.5642 164.985 54.5459 164.979 54.5293 164.97C54.5126 164.961 54.498 164.948 54.4863 164.933C54.4746 164.918 54.466 164.901 54.4611 164.882C54.4561 164.864 54.4548 164.845 54.4573 164.826C54.4573 164.65 54.4753 164.464 54.5112 164.269C54.5157 164.231 54.5343 164.197 54.5632 164.172C54.5921 164.148 54.6292 164.135 54.667 164.137C54.6857 164.138 54.7039 164.144 54.7204 164.152C54.737 164.161 54.7517 164.173 54.7634 164.188C54.7752 164.202 54.7839 164.219 54.7889 164.237C54.794 164.255 54.7953 164.274 54.7928 164.293C54.7928 164.49 54.7928 164.682 54.7389 164.862C54.7344 164.899 54.7156 164.933 54.6865 164.956C54.6574 164.98 54.6203 164.991 54.5831 164.988Z" fill="#01a809"/>
<path d="M54.7087 163.269C54.6716 163.266 54.6372 163.249 54.6126 163.221C54.588 163.193 54.5752 163.156 54.5769 163.119C54.5769 162.754 54.5769 162.37 54.5769 161.963C54.5784 161.925 54.594 161.89 54.6207 161.863C54.6473 161.836 54.683 161.821 54.7207 161.819C54.7583 161.822 54.7934 161.839 54.8189 161.867C54.8445 161.895 54.8586 161.931 54.8585 161.969C54.8585 162.376 54.8585 162.766 54.8225 163.131C54.823 163.164 54.8119 163.196 54.791 163.221C54.7701 163.246 54.741 163.263 54.7087 163.269ZM54.7566 160.951C54.7185 160.951 54.6819 160.935 54.655 160.908C54.628 160.881 54.6129 160.845 54.6129 160.807V160.741C54.6129 160.381 54.6129 160.022 54.6129 159.645C54.6121 159.626 54.615 159.607 54.6216 159.59C54.6281 159.573 54.6382 159.557 54.651 159.543C54.6639 159.53 54.6794 159.519 54.6965 159.512C54.7136 159.504 54.732 159.501 54.7506 159.501C54.7698 159.5 54.7888 159.503 54.8067 159.51C54.8245 159.517 54.8407 159.527 54.8542 159.541C54.8677 159.554 54.8783 159.571 54.8852 159.589C54.8921 159.606 54.8953 159.625 54.8944 159.645C54.8944 160.016 54.8944 160.381 54.8944 160.735V160.807C54.8945 160.844 54.8801 160.88 54.8545 160.906C54.8288 160.933 54.7937 160.949 54.7566 160.951ZM54.7267 158.626C54.6901 158.626 54.6551 158.612 54.6292 158.586C54.6034 158.56 54.5889 158.525 54.5889 158.488C54.5889 158.105 54.5889 157.721 54.5589 157.326C54.5581 157.307 54.5611 157.288 54.5676 157.271C54.5741 157.253 54.584 157.237 54.5968 157.223C54.6096 157.209 54.625 157.197 54.6421 157.19C54.6593 157.182 54.6778 157.177 54.6967 157.176C54.7349 157.176 54.7714 157.191 54.7984 157.218C54.8254 157.245 54.8405 157.282 54.8405 157.32C54.8405 157.715 54.8405 158.099 54.8405 158.482C54.8413 158.501 54.8384 158.519 54.8318 158.537C54.8252 158.554 54.8152 158.57 54.8023 158.584C54.7895 158.597 54.774 158.608 54.7569 158.615C54.7398 158.622 54.7213 158.626 54.7027 158.626H54.7267ZM54.6608 156.308C54.6237 156.308 54.588 156.293 54.5612 156.268C54.5344 156.242 54.5185 156.207 54.517 156.17C54.517 155.786 54.517 155.397 54.4691 155.008C54.469 154.97 54.4831 154.933 54.5086 154.906C54.5342 154.878 54.5693 154.861 54.6069 154.858C54.644 154.858 54.6797 154.872 54.7065 154.898C54.7333 154.923 54.7491 154.959 54.7506 154.996C54.7506 155.391 54.7506 155.774 54.7986 156.158C54.7987 156.196 54.7846 156.232 54.759 156.26C54.7335 156.288 54.6984 156.305 54.6608 156.308ZM54.5589 153.965C54.5234 153.965 54.4892 153.952 54.4636 153.927C54.4379 153.902 54.4227 153.869 54.4211 153.833C54.4211 153.45 54.3792 153.061 54.3612 152.671C54.3596 152.634 54.3724 152.598 54.3969 152.57C54.4215 152.542 54.456 152.524 54.493 152.521C54.5297 152.523 54.5646 152.538 54.5911 152.563C54.6177 152.588 54.6339 152.623 54.6368 152.659L54.6907 153.815C54.6924 153.834 54.6902 153.853 54.6844 153.87C54.6786 153.888 54.6692 153.905 54.6569 153.919C54.6446 153.933 54.6296 153.944 54.6127 153.952C54.5959 153.96 54.5776 153.964 54.5589 153.965ZM54.4391 151.647C54.4034 151.646 54.3692 151.632 54.3428 151.607C54.3165 151.583 54.2996 151.55 54.2953 151.515C54.2953 151.132 54.2534 150.742 54.2294 150.353C54.2294 150.315 54.2446 150.278 54.2716 150.251C54.2985 150.224 54.3351 150.209 54.3732 150.209C54.4114 150.209 54.4479 150.224 54.4749 150.251C54.5019 150.278 54.517 150.315 54.517 150.353C54.517 150.742 54.5589 151.132 54.5829 151.515C54.5846 151.552 54.5718 151.588 54.5472 151.616C54.5226 151.644 54.4882 151.662 54.4511 151.665L54.4391 151.647ZM54.3013 149.334C54.2642 149.334 54.2285 149.32 54.2017 149.294C54.1749 149.269 54.1591 149.234 54.1576 149.196C54.1576 148.813 54.1096 148.424 54.0797 148.04C54.078 148.021 54.0803 148.002 54.0865 147.984C54.0927 147.966 54.1026 147.949 54.1155 147.935C54.1285 147.921 54.1443 147.91 54.1618 147.902C54.1794 147.894 54.1983 147.89 54.2175 147.89C54.236 147.889 54.2548 147.891 54.2725 147.897C54.2902 147.903 54.3066 147.912 54.3206 147.924C54.3346 147.937 54.3459 147.952 54.354 147.968C54.362 147.985 54.3665 148.004 54.3672 148.022C54.3672 148.406 54.4152 148.795 54.4451 149.179C54.4459 149.197 54.443 149.216 54.4365 149.234C54.43 149.252 54.4201 149.268 54.4073 149.282C54.3945 149.296 54.3791 149.307 54.3619 149.315C54.3448 149.323 54.3262 149.328 54.3073 149.328L54.3013 149.334ZM54.1456 147.016C54.1085 147.016 54.0728 147.002 54.046 146.976C54.0192 146.95 54.0033 146.915 54.0018 146.878C54.0018 146.495 53.9479 146.105 53.9179 145.722C53.9179 145.684 53.9331 145.647 53.96 145.62C53.987 145.593 54.0236 145.578 54.0617 145.578C54.0998 145.578 54.1364 145.593 54.1634 145.62C54.1903 145.647 54.2055 145.684 54.2055 145.722C54.2055 146.105 54.2594 146.489 54.2894 146.878C54.291 146.917 54.2776 146.955 54.2519 146.984C54.2262 147.013 54.1902 147.031 54.1516 147.034L54.1456 147.016ZM53.9718 144.697C53.9363 144.697 53.9021 144.684 53.8765 144.659C53.8508 144.635 53.8356 144.601 53.834 144.566L53.7442 143.409C53.7398 143.388 53.7402 143.367 53.7453 143.346C53.7503 143.325 53.76 143.306 53.7735 143.289C53.7869 143.273 53.8039 143.259 53.8232 143.25C53.8425 143.241 53.8636 143.236 53.885 143.236C53.9063 143.236 53.9274 143.241 53.9467 143.25C53.966 143.259 53.983 143.273 53.9965 143.289C54.01 143.306 54.0196 143.325 54.0247 143.346C54.0297 143.367 54.0301 143.388 54.0258 143.409L54.1156 144.566C54.1173 144.584 54.1151 144.603 54.1094 144.622C54.1037 144.64 54.0944 144.656 54.0821 144.671C54.0699 144.685 54.0549 144.697 54.038 144.706C54.0211 144.715 54.0027 144.72 53.9838 144.721L53.9718 144.697ZM53.7921 142.385C53.756 142.385 53.7211 142.372 53.6945 142.347C53.6678 142.323 53.6513 142.289 53.6483 142.253L53.5525 141.097C53.5491 141.06 53.5603 141.023 53.5838 140.993C53.6073 140.964 53.6412 140.946 53.6783 140.941C53.6973 140.939 53.7167 140.94 53.7351 140.945C53.7536 140.951 53.7707 140.96 53.7853 140.972C53.8 140.985 53.8119 141 53.8203 141.018C53.8287 141.035 53.8334 141.054 53.834 141.073L53.9299 142.229C53.9333 142.266 53.9221 142.303 53.8986 142.332C53.8751 142.362 53.8412 142.38 53.8041 142.385H53.7921ZM53.5944 140.066C53.5588 140.068 53.524 140.056 53.4972 140.032C53.4704 140.009 53.4537 139.976 53.4506 139.941C53.4147 139.545 53.3787 139.162 53.3428 138.784C53.3388 138.746 53.3502 138.708 53.3743 138.678C53.3985 138.649 53.4335 138.63 53.4716 138.626C53.5097 138.622 53.5479 138.633 53.5777 138.657C53.6074 138.681 53.6264 138.716 53.6304 138.754C53.6663 139.138 53.7022 139.521 53.7322 139.917C53.7338 139.935 53.7319 139.953 53.7264 139.97C53.721 139.988 53.7122 140.004 53.7005 140.018C53.6888 140.032 53.6745 140.043 53.6583 140.051C53.6422 140.06 53.6245 140.065 53.6064 140.066H53.5944ZM53.3787 137.79C53.3439 137.789 53.3104 137.776 53.2842 137.753C53.2579 137.73 53.2405 137.699 53.235 137.664C53.199 137.269 53.1631 136.879 53.1211 136.508C53.1195 136.489 53.1216 136.47 53.1274 136.452C53.1331 136.434 53.1424 136.417 53.1546 136.403C53.1669 136.388 53.1819 136.376 53.1987 136.367C53.2156 136.359 53.234 136.354 53.2529 136.352C53.2715 136.35 53.2904 136.351 53.3084 136.356C53.3265 136.361 53.3433 136.37 53.3579 136.381C53.3725 136.393 53.3845 136.408 53.3932 136.424C53.402 136.441 53.4072 136.459 53.4087 136.478C53.4446 136.855 53.4866 137.239 53.5225 137.634C53.5242 137.653 53.522 137.672 53.5163 137.69C53.5106 137.708 53.5013 137.725 53.489 137.739C53.4768 137.754 53.4618 137.766 53.4449 137.774C53.428 137.783 53.4096 137.788 53.3907 137.79H53.3787ZM53.1511 135.483C53.133 135.484 53.1149 135.481 53.0979 135.475C53.0809 135.469 53.0652 135.46 53.0519 135.447C53.0385 135.435 53.0277 135.42 53.0201 135.404C53.0124 135.387 53.0081 135.37 53.0073 135.352C52.9634 134.952 52.9214 134.569 52.8815 134.201C52.878 134.163 52.889 134.126 52.9124 134.096C52.9358 134.066 52.9697 134.046 53.0073 134.04C53.0262 134.038 53.0452 134.04 53.0633 134.046C53.0814 134.052 53.0981 134.061 53.1126 134.073C53.1271 134.085 53.139 134.1 53.1477 134.117C53.1563 134.134 53.1616 134.152 53.1631 134.171C53.205 134.531 53.2469 134.92 53.2889 135.322C53.2914 135.341 53.2901 135.36 53.2851 135.378C53.2801 135.397 53.2716 135.414 53.2598 135.429C53.2481 135.444 53.2336 135.457 53.2169 135.466C53.2003 135.475 53.182 135.481 53.1631 135.483H53.1511Z" fill="#01a809"/>
<path d="M52.8873 133.158C52.8554 133.159 52.8242 133.149 52.7991 133.129C52.7739 133.11 52.7564 133.082 52.7495 133.051L52.6836 132.482C52.6859 132.448 52.7001 132.416 52.7235 132.392C52.747 132.367 52.7782 132.352 52.8118 132.348C52.8454 132.345 52.8792 132.353 52.9072 132.372C52.9353 132.391 52.9558 132.419 52.9652 132.452L53.0311 132.985C53.0365 133.023 53.0273 133.063 53.0051 133.095C52.9829 133.127 52.9494 133.15 52.9112 133.158H52.8873Z" fill="#01a809"/>
</g>
<path d="M56.6852 138.31L55.9723 139.927L55.2354 141.641C54.7441 142.791 54.2888 143.953 53.8335 145.103C53.3782 146.254 52.9888 147.428 52.5994 148.578C52.21 149.728 51.8985 150.885 51.6109 152.029L51.4432 149.938C51.4785 150.028 51.4948 150.123 51.4911 150.22C51.5703 150.378 51.6364 150.542 51.6888 150.711C51.8999 151.128 52.1422 151.529 52.4137 151.909C53.0728 152.856 53.7933 153.758 54.5704 154.611C55.3792 155.534 56.2538 156.45 57.1585 157.367L59.9083 160.134L59.9921 160.218C60.3929 160.635 60.6413 161.174 60.697 161.75C60.7527 162.325 60.6124 162.902 60.2989 163.388C59.9854 163.873 59.5171 164.238 58.9699 164.424C58.4227 164.61 57.8287 164.606 57.2843 164.412C55.935 163.893 54.6186 163.293 53.3423 162.615C52.0568 161.944 50.8106 161.199 49.61 160.386C48.3258 159.525 47.1227 158.548 46.0155 157.469C45.3922 156.856 44.8136 156.199 44.2841 155.504C43.9965 155.102 43.721 154.683 43.4634 154.263C43.1998 153.748 42.9601 153.221 42.7325 152.688C42.5343 152.219 42.4561 151.709 42.5048 151.202L42.5647 150.603C42.6986 149.116 42.9146 147.638 43.2117 146.176C43.5117 144.722 43.8856 143.284 44.332 141.868C44.7514 140.461 45.2426 139.095 45.7818 137.741C46.0574 137.07 46.333 136.393 46.6445 135.728C46.8003 135.398 46.95 135.063 47.1178 134.733L47.6629 133.679C48.2766 132.523 49.3127 131.648 50.5553 131.237C51.7979 130.826 53.1512 130.911 54.333 131.473C55.5148 132.036 56.434 133.032 56.899 134.256C57.364 135.479 57.3389 136.835 56.829 138.04L56.6852 138.31Z" fill="#803E3C"/>
<path d="M58.7523 161.155L57.7399 162.707C57.0749 165.702 61.0888 165.9 61.0888 165.9L62.9879 166.774C63.3311 166.906 63.7097 166.911 64.0564 166.789C64.4031 166.667 64.6953 166.426 64.881 166.109L66.0192 164.402C66.2748 164.065 66.389 163.642 66.3375 163.223C66.286 162.803 66.073 162.42 65.7437 162.155L64.234 161.137C63.7971 160.839 63.2924 160.656 62.7662 160.604L60.4238 160.364C60.0997 160.332 59.773 160.389 59.4786 160.528C59.1842 160.667 58.9332 160.884 58.7523 161.155Z" fill="#7F3E3B"/>
<path d="M52.1206 125.107C50.0897 124.73 47.328 128.666 46.8966 133.015C45.1712 134.812 45.0095 137.766 43.5956 140.36C40.738 145.68 43.1344 147.435 45.0215 148.43C49.0473 150.562 53.5584 149.771 54.7566 147.375C55.9548 144.979 57.2428 142.163 57.6023 138.646C58.1115 133.47 55.7151 125.808 52.1206 125.107Z" fill="#01a809"/>
<path d="M81.9668 137.466L74.9755 137.999C74.7979 137.996 74.6259 137.936 74.4847 137.829C74.3435 137.721 74.2405 137.571 74.1907 137.4L73.2262 134.351C73.1955 134.282 73.1817 134.206 73.1858 134.131C73.1899 134.055 73.2118 133.981 73.2498 133.916C73.2878 133.851 73.3407 133.795 73.4043 133.754C73.4679 133.713 73.5403 133.688 73.6156 133.68L80.6129 133.141C80.7907 133.143 80.9632 133.202 81.1045 133.31C81.2459 133.418 81.3487 133.569 81.3977 133.74L82.3562 136.783C82.3894 136.853 82.4051 136.929 82.4023 137.007C82.3994 137.084 82.3779 137.159 82.3397 137.226C82.3014 137.293 82.2476 137.35 82.1827 137.392C82.1177 137.434 82.0437 137.459 81.9668 137.466Z" fill="white"/>
<path d="M69.5297 123.626C69.0563 122.835 68.3302 122.228 67.4688 121.901C67.1049 121.105 67.0267 120.207 67.2472 119.36L57.542 116.91C58.5005 120.013 59.2554 122.464 58.183 124.063C60.1241 125.088 63.5748 127.059 67.3251 127.268C70.1408 127.418 70.2186 124.908 69.5297 123.626Z" fill="#7F3E3B"/>
<path opacity="0.2" d="M67.1876 119.664H59.9985C62.3949 121.917 65.8216 122.606 67.3074 121.539C67.1105 120.934 67.0693 120.289 67.1876 119.664Z" fill="black"/>
<path d="M68.5534 113.311C69.7515 111.639 70.0751 109.153 69.1525 108.812C69.2303 107.122 69.0267 105.349 67.3552 105.055C66.8838 104.971 66.3998 104.99 65.9364 105.111C65.473 105.232 65.0412 105.451 64.6707 105.755C64.3002 106.058 63.9997 106.438 63.7899 106.869C63.5801 107.299 63.4659 107.77 63.4552 108.248C61.0468 111.022 64.893 114.239 68.5534 113.311Z" fill="#E0E0E0"/>
<path d="M55.7148 111.802C56.913 116.217 57.7936 119.195 60.7651 120.561C66.684 123.275 69.2901 120.207 69.4578 115.516C69.6076 111.323 67.6606 104.775 62.9158 103.918C61.8659 103.727 60.7847 103.806 59.7735 104.147C58.7624 104.488 57.8544 105.081 57.1348 105.868C56.4151 106.656 55.9073 107.614 55.6589 108.652C55.4105 109.69 55.4298 110.774 55.7148 111.802Z" fill="#7F3E3B"/>
<path d="M66.0427 115.796C66.2929 115.784 66.5415 115.75 66.7856 115.694C66.8023 115.691 66.8181 115.684 66.8319 115.674C66.8457 115.664 66.8572 115.651 66.8657 115.637C66.8742 115.622 66.8795 115.606 66.8812 115.589C66.8828 115.572 66.8809 115.555 66.8755 115.539C66.8644 115.504 66.8414 115.475 66.8106 115.456C66.7798 115.438 66.7433 115.431 66.7077 115.437C66.1561 115.563 65.5832 115.563 65.0315 115.438C64.4797 115.312 63.9633 115.064 63.5206 114.712C63.4952 114.689 63.4621 114.676 63.4277 114.676C63.3934 114.676 63.3603 114.689 63.3349 114.712C63.322 114.724 63.3117 114.738 63.3046 114.754C63.2976 114.77 63.2939 114.787 63.2939 114.805C63.2939 114.822 63.2976 114.839 63.3046 114.855C63.3117 114.871 63.322 114.886 63.3349 114.897C64.0936 115.525 65.0596 115.845 66.0427 115.796Z" fill="#263238"/>
<path d="M56.1882 114.933C57.9195 113.789 59.0518 111.56 58.3209 110.919C58.9799 109.367 59.2555 107.109 57.9555 106.785C56.6555 106.462 54.1633 106.354 53.1927 108.439C49.9337 110.194 52.4319 114.537 56.1882 114.933Z" fill="#E0E0E0"/>
<path opacity="0.2" d="M61.7599 111.478C61.4922 111.412 61.2141 111.4 60.9417 111.443C60.6693 111.485 60.4079 111.58 60.1724 111.724C60.7126 111.747 61.2521 111.664 61.7599 111.478Z" fill="black"/>
<path opacity="0.2" d="M61.7956 111.86C61.5417 111.855 61.29 111.907 61.0581 112.01C60.8263 112.114 60.6199 112.267 60.4536 112.459C60.9386 112.357 61.3962 112.153 61.7956 111.86Z" fill="black"/>
<path opacity="0.2" d="M67.936 110.299C67.936 110.299 68.2595 109.82 68.5351 110.03C68.3773 110.193 68.1629 110.289 67.936 110.299Z" fill="black"/>
<path opacity="0.2" d="M68.0444 110.646C68.0444 110.646 68.302 110.221 68.5357 110.574C68.4716 110.636 68.3898 110.676 68.3016 110.689C68.2135 110.702 68.1235 110.687 68.0444 110.646Z" fill="black"/>
<path opacity="0.2" d="M65.7017 106.423C64.3489 106.373 62.9966 106.534 61.6938 106.902C63.0377 106.817 64.3757 106.657 65.7017 106.423Z" fill="black"/>
<path opacity="0.2" d="M66.2948 107.062C66.2948 107.062 63.2155 107.26 61.7598 108.117C63.3007 107.906 64.8188 107.553 66.2948 107.062Z" fill="black"/>
<path d="M54.9244 116.349C55.2596 116.808 55.6828 117.196 56.1692 117.49C56.6557 117.784 57.1958 117.979 57.7581 118.062C59.2618 118.278 59.8309 116.864 59.2618 115.558C58.7406 114.36 57.3327 112.82 55.8949 113.216C55.5819 113.305 55.296 113.471 55.0633 113.699C54.8305 113.926 54.6582 114.209 54.5618 114.52C54.4655 114.831 54.4482 115.161 54.5115 115.48C54.5748 115.8 54.7167 116.098 54.9244 116.349Z" fill="#7F3E3B"/>
<path d="M62.9936 111.478C63.0655 111.843 63.3231 112.077 63.5568 112.047C63.7904 112.017 63.9282 111.658 63.8563 111.298C63.7844 110.939 63.5328 110.699 63.2932 110.729C63.0536 110.759 62.9038 111.112 62.9936 111.478Z" fill="#263238"/>
<path d="M66.8699 110.748C66.9418 111.113 67.1934 111.347 67.4331 111.317C67.6727 111.287 67.8045 110.933 67.7326 110.568C67.6607 110.202 67.4031 109.969 67.1695 109.999C66.9358 110.029 66.7921 110.382 66.8699 110.748Z" fill="#263238"/>
<path d="M65.6714 111.293L66.2705 114.36C66.9227 114.387 67.5622 114.174 68.0677 113.761C67.5066 112.737 66.6785 111.884 65.6714 111.293Z" fill="#630F0F"/>
<path d="M61.604 110.616C61.5666 110.625 61.5276 110.625 61.4901 110.616C61.463 110.607 61.4377 110.594 61.4158 110.576C61.3938 110.558 61.3756 110.536 61.3623 110.511C61.3489 110.486 61.3406 110.458 61.3379 110.43C61.3352 110.402 61.3381 110.373 61.3464 110.346C61.4395 110.01 61.6115 109.701 61.848 109.445C62.0845 109.188 62.3787 108.992 62.7063 108.872C62.7338 108.864 62.7627 108.861 62.7913 108.865C62.8198 108.868 62.8475 108.876 62.8726 108.89C62.8977 108.904 62.9198 108.923 62.9375 108.946C62.9553 108.968 62.9683 108.994 62.9759 109.022C62.9908 109.078 62.9835 109.137 62.9556 109.187C62.9276 109.237 62.8812 109.275 62.8261 109.292C62.5673 109.393 62.3363 109.555 62.152 109.763C61.9677 109.972 61.8353 110.221 61.7657 110.49C61.7509 110.522 61.7284 110.551 61.7003 110.573C61.6721 110.594 61.6391 110.609 61.604 110.616Z" fill="#E0E0E0"/>
<path d="M68.7449 109.221C68.7095 109.228 68.6731 109.226 68.6386 109.216C68.6042 109.205 68.5728 109.187 68.5472 109.161C68.3637 108.958 68.1341 108.802 67.8776 108.706C67.6211 108.61 67.3453 108.577 67.0734 108.61C67.0451 108.616 67.0158 108.617 66.9873 108.611C66.9588 108.606 66.9317 108.594 66.9077 108.578C66.8836 108.562 66.8631 108.541 66.8473 108.517C66.8315 108.492 66.8208 108.465 66.8158 108.437C66.8068 108.38 66.8197 108.321 66.8519 108.273C66.8841 108.226 66.9333 108.192 66.9896 108.179C67.3382 108.128 67.694 108.163 68.0261 108.281C68.3581 108.399 68.6563 108.596 68.8946 108.856C68.9147 108.876 68.9307 108.9 68.9416 108.926C68.9525 108.952 68.9581 108.98 68.9581 109.009C68.9581 109.037 68.9525 109.065 68.9416 109.091C68.9307 109.118 68.9147 109.141 68.8946 109.161C68.8755 109.182 68.8522 109.198 68.8264 109.208C68.8005 109.218 68.7727 109.223 68.7449 109.221Z" fill="#E0E0E0"/>
<path d="M70.1587 131.601C65.0366 131.104 54.6544 124.281 58.6503 122.831C61.2144 125.652 65.8393 126.389 67.8343 126.389C68.5772 125.682 69.2841 123.681 67.4688 121.902C69.5537 121.722 73.7293 128.133 70.1587 131.601Z" fill="#01a809"/>
<path d="M204.725 186.226H245.361C245.997 186.226 246.606 185.974 247.056 185.524C247.505 185.075 247.758 184.465 247.758 183.83C247.758 183.194 247.505 182.585 247.056 182.135C246.606 181.686 245.997 181.434 245.361 181.434H204.725C204.09 181.434 203.48 181.686 203.031 182.135C202.582 182.585 202.329 183.194 202.329 183.83C202.329 184.465 202.582 185.075 203.031 185.524C203.48 185.974 204.09 186.226 204.725 186.226Z" fill="#01a809"/>
<path d="M251.556 181.414H252.91L258.068 147.758H256.714L251.556 181.414Z" fill="#263238"/>
<path d="M230.917 181.414H232.271L237.43 147.758H236.082L230.917 181.414Z" fill="#263238"/>
<path d="M230.863 174.653H257.361C258.248 174.624 259.098 174.289 259.766 173.704C260.434 173.12 260.88 172.323 261.027 171.448L265.071 143.35C265.143 142.953 265.126 142.544 265.021 142.154C264.915 141.764 264.724 141.403 264.461 141.096C264.198 140.789 263.871 140.544 263.501 140.38C263.132 140.215 262.731 140.135 262.327 140.145H235.83C234.943 140.174 234.093 140.509 233.426 141.093C232.759 141.677 232.314 142.475 232.169 143.35L228.119 171.448C228.047 171.845 228.065 172.254 228.17 172.644C228.276 173.034 228.467 173.396 228.729 173.702C228.992 174.009 229.32 174.254 229.689 174.418C230.058 174.583 230.459 174.663 230.863 174.653Z" fill="#01a809"/>
<path opacity="0.4" d="M265.071 143.348L261.027 171.445C260.921 172.126 260.626 172.763 260.177 173.285C259.206 174.429 257.481 173.806 257.685 172.41L262.01 142.384C262.208 140.988 264.113 140.365 264.754 141.509C265.059 142.07 265.171 142.717 265.071 143.348Z" fill="white"/>
<path d="M234.782 186.226H253.353C253.989 186.226 254.598 185.974 255.048 185.524C255.497 185.075 255.75 184.465 255.75 183.83C255.75 183.194 255.497 182.585 255.048 182.135C254.598 181.686 253.989 181.434 253.353 181.434H234.782C234.146 181.434 233.537 181.686 233.087 182.135C232.638 182.585 232.385 183.194 232.385 183.83C232.385 184.465 232.638 185.075 233.087 185.524C233.537 185.974 234.146 186.226 234.782 186.226Z" fill="#01a809"/>
<path opacity="0.4" d="M234.782 186.226H253.353C253.989 186.226 254.598 185.974 255.048 185.524C255.497 185.075 255.75 184.465 255.75 183.83C255.75 183.194 255.497 182.585 255.048 182.135C254.598 181.686 253.989 181.434 253.353 181.434H234.782C234.146 181.434 233.537 181.686 233.087 182.135C232.638 182.585 232.385 183.194 232.385 183.83C232.385 184.465 232.638 185.075 233.087 185.524C233.537 185.974 234.146 186.226 234.782 186.226Z" fill="white"/>
<path d="M224.663 215.218H226.011L231.175 186.234H229.821L224.663 215.218Z" fill="#263238"/>
<path d="M201.221 215.218H202.569L207.727 186.234H206.379L201.221 215.218Z" fill="#263238"/>
<path d="M233.739 215.218H232.385L227.227 186.234H228.581L233.739 215.218Z" fill="#263238"/>
<path d="M257.181 215.218H255.828L250.669 186.234H252.023L257.181 215.218Z" fill="#263238"/>
<path d="M211.986 122.769C213.436 124.668 214.191 124.171 215.167 121.774C215.766 120.235 217.492 120.912 217.893 118.18C218.055 117.048 214.466 114.867 212.501 115.454C210.536 116.041 210.878 121.289 211.986 122.769Z" fill="#263238"/>
<path d="M214.981 135.12C214.371 134.943 213.731 134.889 213.099 134.96C212.467 135.031 211.855 135.226 211.299 135.533C210.742 135.841 210.252 136.256 209.856 136.753C209.46 137.251 209.166 137.822 208.991 138.433L208.895 138.756L208.643 139.637L208.35 140.608C208.14 141.255 207.93 141.902 207.691 142.531C207.256 143.743 206.737 144.924 206.139 146.065C205.654 146.995 205.05 147.857 204.342 148.629C204.139 148.851 203.914 149.052 203.671 149.228C203.311 148.995 202.946 148.749 202.58 148.474C201.599 147.735 200.655 146.947 199.753 146.113C198.8 145.263 197.872 144.352 196.937 143.417C196.002 142.483 195.068 141.5 194.175 140.602L194.067 140.494C193.673 140.101 193.155 139.855 192.602 139.797C192.048 139.739 191.491 139.872 191.023 140.174C190.555 140.477 190.205 140.93 190.031 141.459C189.857 141.988 189.869 142.561 190.065 143.082C190.596 144.456 191.215 145.795 191.917 147.09C192.615 148.388 193.383 149.648 194.217 150.864C195.085 152.132 196.047 153.333 197.093 154.458C198.238 155.713 199.536 156.818 200.957 157.747C201.533 158.11 202.199 158.307 202.88 158.317H203.239C204.593 158.324 205.936 158.069 207.193 157.568C208.344 157.106 209.417 156.469 210.374 155.681C211.977 154.343 213.34 152.742 214.406 150.948C215.357 149.382 216.159 147.732 216.803 146.017C217.12 145.185 217.402 144.358 217.659 143.513C217.785 143.088 217.911 142.662 218.019 142.231L218.175 141.578L218.336 140.841C218.608 139.64 218.412 138.38 217.789 137.318C217.166 136.256 216.162 135.47 214.981 135.12Z" fill="black"/>
<path d="M185.543 140.927L187.052 142.125C187.652 142.6 188.347 142.939 189.089 143.12L191.156 143.629C191.625 143.744 192.118 143.723 192.576 143.57C193.034 143.416 193.439 143.135 193.744 142.76C194.163 142.251 194.367 141.598 194.313 140.941C194.26 140.283 193.952 139.672 193.457 139.238C192.683 138.621 191.823 138.123 190.904 137.758L188.79 136.518C188.441 136.314 188.032 136.241 187.635 136.311C187.238 136.381 186.878 136.59 186.621 136.901L185.291 138.513C185.147 138.687 185.039 138.888 184.974 139.104C184.909 139.321 184.887 139.548 184.911 139.773C184.934 139.997 185.002 140.215 185.11 140.413C185.219 140.612 185.366 140.786 185.543 140.927Z" fill="#FFB573"/>
<path d="M226.73 131.92C221.775 132.321 216.204 132.951 212.004 134.916C210.989 135.414 210.159 136.223 209.633 137.224C209.107 138.226 208.914 139.368 209.081 140.487C209.71 145.172 210.201 148.802 211.345 152.66C213.819 161.048 207.823 164.72 213.4 171.202C215.844 173.976 230.827 176.594 241.437 173.101C242.815 167.368 242.168 155.788 240.455 143.015C240.026 139.759 238.362 136.791 235.808 134.727C233.254 132.662 230.004 131.657 226.73 131.92Z" fill="#263238"/>
<path d="M237.513 149.223C240.275 162.181 238.196 165.626 232.852 169.238C225.352 170.4 222.344 167.303 222.344 167.303L237.513 149.223Z" fill="black"/>
<path d="M220.278 151.134L226.778 151.176C226.932 151.176 227.08 151.117 227.191 151.011C227.303 150.905 227.369 150.76 227.377 150.606L227.551 147.821C227.56 147.747 227.554 147.673 227.533 147.602C227.511 147.531 227.476 147.465 227.428 147.409C227.38 147.353 227.321 147.307 227.254 147.275C227.188 147.242 227.115 147.224 227.042 147.222L220.541 147.18C220.388 147.179 220.24 147.238 220.128 147.344C220.017 147.45 219.95 147.595 219.942 147.749L219.769 150.535C219.758 150.608 219.764 150.683 219.785 150.754C219.806 150.825 219.841 150.891 219.889 150.948C219.937 151.005 219.997 151.05 220.064 151.082C220.131 151.114 220.204 151.132 220.278 151.134Z" fill="white"/>
<g opacity="0.2">
<path d="M216.761 142.221C216.717 142.22 216.674 142.207 216.638 142.183C216.602 142.158 216.574 142.123 216.557 142.083C216.54 142.029 216.544 141.97 216.568 141.919C216.593 141.868 216.636 141.828 216.689 141.807C220.373 140.501 225.609 137.128 227.251 134.996C227.266 134.969 227.287 134.946 227.312 134.928C227.336 134.91 227.365 134.897 227.395 134.891C227.425 134.885 227.456 134.885 227.486 134.892C227.516 134.899 227.544 134.912 227.568 134.93C227.593 134.949 227.613 134.972 227.628 134.999C227.642 135.026 227.651 135.056 227.653 135.086C227.656 135.117 227.651 135.148 227.641 135.176C227.63 135.205 227.614 135.231 227.592 135.253C225.711 137.692 220.266 140.993 216.809 142.209C216.794 142.215 216.777 142.219 216.761 142.221Z" fill="white"/>
<path d="M220.409 142.58H220.343C216.839 141.496 215.389 137.919 215.083 135.99C215.078 135.962 215.079 135.933 215.085 135.906C215.092 135.878 215.104 135.852 215.121 135.829C215.137 135.806 215.159 135.786 215.183 135.772C215.208 135.758 215.235 135.748 215.263 135.745C215.291 135.74 215.319 135.742 215.346 135.748C215.373 135.755 215.398 135.767 215.421 135.784C215.443 135.801 215.462 135.822 215.476 135.846C215.49 135.87 215.499 135.897 215.503 135.924C215.796 137.77 217.168 141.16 220.469 142.185C220.496 142.192 220.521 142.205 220.543 142.223C220.565 142.24 220.583 142.262 220.597 142.286C220.61 142.311 220.618 142.338 220.621 142.366C220.624 142.394 220.621 142.422 220.613 142.448C220.596 142.488 220.568 142.522 220.531 142.546C220.495 142.569 220.453 142.581 220.409 142.58Z" fill="white"/>
</g>
<path d="M223.639 125.113C223.543 127.582 224.196 131.338 226.083 132.764C226.291 132.918 226.458 133.122 226.57 133.356C226.681 133.59 226.734 133.848 226.723 134.107C226.713 134.366 226.639 134.619 226.509 134.843C226.378 135.067 226.195 135.256 225.975 135.394C224.603 136.268 220.871 138.167 219.008 138.167C217.145 138.167 216.066 136.107 216.276 135.094C216.399 134.611 216.671 134.179 217.055 133.86C218.313 132.716 217.39 131.535 216.875 130.679L223.639 125.113Z" fill="#FFB573"/>
<path opacity="0.2" d="M221.607 128.553C221.564 128.402 221.512 128.254 221.452 128.109L216.869 130.679C217.324 131.251 217.607 131.941 217.683 132.668C219.99 131.74 222.021 129.967 221.607 128.553Z" fill="black"/>
<path d="M193.583 202.408C194.337 201.617 199.244 200.113 199.244 200.113C200.527 203.796 201.585 207.553 202.413 211.364L196.075 211.999C196.075 211.999 195.032 205.577 193.583 202.408Z" fill="#FFB573"/>
<path d="M223.459 168.105C205.127 168.363 181.002 167.381 186.687 184.089C189.119 191.242 187.076 188.81 189.922 197.467C191.12 201.199 191.563 202.295 192.45 204.883C193.421 207.196 199.256 206.764 201.436 205.86C204.024 204.482 201.832 200.762 201.532 198.671C200.058 188.444 202.76 189.601 199.549 182.897C205.396 183.748 224.04 183.154 226.508 173.102C226.454 173.102 229.833 169.094 223.459 168.105Z" fill="#01a809"/>
<path opacity="0.4" d="M223.459 168.105C205.127 168.363 181.002 167.381 186.687 184.089C189.119 191.242 187.076 188.81 189.922 197.467C191.12 201.199 191.563 202.295 192.45 204.883C193.421 207.196 199.256 206.764 201.436 205.86C204.024 204.482 201.832 200.762 201.532 198.671C200.058 188.444 202.76 189.601 199.549 182.897C205.396 183.748 224.04 183.154 226.508 173.102C226.454 173.102 229.833 169.094 223.459 168.105Z" fill="black"/>
<path d="M193.942 206.085L194.726 207.631C194.772 207.724 194.847 207.8 194.94 207.847C195.034 207.893 195.139 207.908 195.242 207.888C196.278 207.708 199.375 207.211 201.173 207.433C201.237 207.44 201.303 207.434 201.366 207.416C201.428 207.397 201.486 207.365 201.536 207.323C201.586 207.281 201.627 207.229 201.656 207.171C201.685 207.113 201.702 207.049 201.706 206.984C201.742 206.384 201.736 205.582 201.706 205.09C201.703 204.964 201.65 204.843 201.56 204.755C201.469 204.667 201.347 204.617 201.221 204.617C198.876 204.641 196.54 204.9 194.247 205.39C194.177 205.41 194.113 205.444 194.058 205.492C194.003 205.54 193.959 205.599 193.93 205.665C193.901 205.732 193.887 205.804 193.889 205.876C193.891 205.949 193.909 206.02 193.942 206.085Z" fill="#263238"/>
<path d="M203.791 215.378L203.09 210.921C203.066 210.818 203.005 210.726 202.92 210.664C202.834 210.601 202.728 210.571 202.623 210.58L196.123 210.609C195.599 210.576 195.079 210.715 194.643 211.005C193.181 212.203 190.91 213.401 187.616 214C186.573 214.204 187.016 216.271 189.461 216.259C193.505 216.259 193.337 216.115 196.782 216.103C199.729 216.103 200.466 216.235 202.808 216.259C202.932 216.273 203.058 216.261 203.177 216.224C203.296 216.186 203.405 216.123 203.498 216.04C203.591 215.957 203.665 215.855 203.715 215.741C203.766 215.626 203.792 215.503 203.791 215.378Z" fill="#263238"/>
<path d="M224.405 119.219C224.405 123.712 224.633 126.324 222.458 128.9C219.187 132.776 213.406 131.44 212.034 127.103C210.8 123.221 211.016 116.523 215.389 114.192C219.762 111.862 224.411 114.732 224.405 119.219Z" fill="#FFB573"/>
<path d="M216.12 121.204C216.09 121.611 216.282 121.953 216.545 121.971C216.809 121.989 217.054 121.677 217.084 121.27C217.114 120.862 216.923 120.515 216.659 120.497C216.395 120.479 216.15 120.796 216.12 121.204Z" fill="#263238"/>
<path d="M211.914 121.108C211.879 121.515 212.07 121.863 212.334 121.881C212.597 121.899 212.843 121.581 212.873 121.174C212.903 120.766 212.717 120.425 212.454 120.407C212.19 120.389 211.944 120.701 211.914 121.108Z" fill="#263238"/>
<path d="M223.495 123.024C221.284 123.934 220.883 123.126 221.254 120.561C221.488 118.92 219.679 118.644 220.715 116.074C221.147 115.02 225.346 114.936 226.706 116.422C228.066 117.908 225.22 122.317 223.495 123.024Z" fill="#263238"/>
<path d="M222.578 117.242C217.522 117.679 211.028 117.703 210.117 113.989C209.518 111.473 212.55 107.704 217.222 111.371C220.475 113.911 223.633 112.341 225.22 112.886C226.664 113.384 229.45 116.643 222.578 117.242Z" fill="#263238"/>
<path d="M225.855 116.598C225.624 116.596 225.394 116.574 225.166 116.532C225.13 116.525 225.095 116.512 225.064 116.491C225.032 116.471 225.005 116.445 224.984 116.414C224.963 116.384 224.948 116.349 224.94 116.313C224.933 116.277 224.932 116.239 224.939 116.203C224.945 116.166 224.959 116.131 224.979 116.1C225 116.069 225.026 116.042 225.056 116.02C225.087 115.999 225.121 115.984 225.158 115.977C225.194 115.969 225.232 115.968 225.268 115.975C225.573 116.061 225.893 116.076 226.204 116.02C226.516 115.964 226.81 115.838 227.065 115.651C227.199 115.541 227.305 115.401 227.377 115.244C227.448 115.086 227.483 114.914 227.479 114.741C227.477 114.704 227.483 114.666 227.496 114.632C227.509 114.597 227.529 114.565 227.555 114.538C227.581 114.511 227.612 114.49 227.646 114.475C227.68 114.461 227.717 114.453 227.754 114.453C227.791 114.452 227.828 114.459 227.862 114.472C227.896 114.486 227.927 114.506 227.953 114.532C227.979 114.557 228 114.588 228.014 114.622C228.029 114.656 228.036 114.692 228.036 114.729C228.047 114.985 227.999 115.241 227.895 115.476C227.791 115.711 227.634 115.918 227.437 116.083C226.991 116.443 226.428 116.627 225.855 116.598Z" fill="#263238"/>
<path d="M216.695 125.806C216.482 125.869 216.264 125.911 216.042 125.932C216.027 125.934 216.012 125.932 215.998 125.928C215.983 125.924 215.97 125.917 215.958 125.907C215.946 125.898 215.937 125.886 215.93 125.873C215.922 125.86 215.918 125.845 215.917 125.83C215.914 125.815 215.915 125.799 215.919 125.784C215.922 125.769 215.929 125.755 215.939 125.742C215.948 125.73 215.96 125.72 215.974 125.712C215.988 125.704 216.003 125.7 216.018 125.698C216.504 125.657 216.974 125.502 217.39 125.248C217.806 124.993 218.157 124.645 218.415 124.231C218.421 124.217 218.43 124.204 218.442 124.194C218.453 124.183 218.466 124.175 218.481 124.17C218.496 124.165 218.511 124.163 218.526 124.164C218.542 124.165 218.557 124.17 218.57 124.177C218.597 124.192 218.616 124.216 218.625 124.245C218.634 124.274 218.632 124.305 218.618 124.333C218.196 125.057 217.505 125.587 216.695 125.806Z" fill="#263238"/>
<path d="M217.414 118.752C217.455 118.746 217.496 118.754 217.533 118.773C217.57 118.792 217.599 118.823 217.618 118.86C217.738 119.097 217.912 119.304 218.126 119.462C218.341 119.62 218.589 119.726 218.852 119.77C218.883 119.768 218.913 119.773 218.942 119.784C218.971 119.796 218.997 119.813 219.019 119.835C219.041 119.857 219.057 119.884 219.068 119.913C219.078 119.942 219.082 119.973 219.079 120.004C219.077 120.035 219.068 120.064 219.052 120.091C219.037 120.118 219.016 120.142 218.991 120.16C218.966 120.178 218.938 120.191 218.907 120.197C218.877 120.203 218.846 120.203 218.816 120.196C218.483 120.144 218.168 120.015 217.895 119.818C217.622 119.622 217.4 119.363 217.246 119.063C217.232 119.039 217.224 119.012 217.221 118.984C217.217 118.957 217.22 118.929 217.228 118.902C217.235 118.875 217.249 118.85 217.266 118.829C217.284 118.807 217.305 118.789 217.33 118.776C217.355 118.76 217.384 118.751 217.414 118.752Z" fill="#263238"/>
<path d="M212.747 118.855C212.796 118.86 212.841 118.884 212.873 118.921C212.893 118.941 212.909 118.964 212.919 118.99C212.93 119.016 212.936 119.043 212.936 119.071C212.936 119.099 212.93 119.127 212.919 119.152C212.909 119.178 212.893 119.201 212.873 119.221C212.636 119.463 212.343 119.644 212.021 119.748C211.698 119.853 211.356 119.877 211.022 119.82C210.968 119.807 210.921 119.774 210.892 119.726C210.863 119.679 210.853 119.622 210.866 119.568C210.879 119.513 210.913 119.465 210.961 119.434C211.01 119.404 211.068 119.394 211.123 119.407C211.387 119.45 211.657 119.429 211.91 119.346C212.164 119.262 212.393 119.119 212.579 118.927C212.601 118.905 212.627 118.887 212.656 118.874C212.685 118.862 212.716 118.856 212.747 118.855Z" fill="#263238"/>
<path d="M226.238 123.602C225.736 124.571 224.877 125.306 223.842 125.651C222.452 126.082 221.715 124.848 222.045 123.518C222.356 122.32 223.459 120.649 224.872 120.798C225.18 120.837 225.472 120.952 225.724 121.132C225.975 121.313 226.178 121.553 226.314 121.831C226.449 122.109 226.513 122.417 226.5 122.726C226.487 123.035 226.397 123.336 226.238 123.602Z" fill="#FFB573"/>
<path d="M213.957 121.25C213.641 122.398 213.167 123.497 212.549 124.515C212.815 124.667 213.111 124.76 213.416 124.787C213.721 124.813 214.028 124.774 214.317 124.671L213.957 121.25Z" fill="#ED893E"/>
<path d="M211.89 202.065C212.561 201.202 217.282 199.207 217.282 199.207C218.928 202.742 220.361 206.373 221.571 210.08L215.329 211.351C215.329 211.351 213.651 205.072 211.89 202.065Z" fill="#FFB573"/>
<path d="M225.807 166.875C207.793 168.103 193.858 168.139 201.808 183.895C205.211 190.635 204.043 189.191 207.745 197.518C209.339 201.113 209.866 202.155 211.016 204.635C212.214 206.84 217.977 205.834 220.002 204.707C222.441 203.072 219.882 199.591 219.403 197.518C216.905 187.496 219.739 188.999 215.917 182.619C221.818 182.925 241.953 184.907 241.414 173.076C241.432 173.1 238.478 166.875 225.807 166.875Z" fill="#01a809"/>
<path opacity="0.4" d="M225.807 166.875C207.793 168.103 193.858 168.139 201.808 183.895C205.211 190.635 204.043 189.191 207.745 197.518C209.339 201.113 209.866 202.155 211.016 204.635C212.214 206.84 217.977 205.834 220.002 204.707C222.441 203.072 219.882 199.591 219.403 197.518C216.905 187.496 219.739 188.999 215.917 182.619C221.818 182.925 241.953 184.907 241.414 173.076C241.432 173.1 238.478 166.875 225.807 166.875Z" fill="black"/>
<path d="M212.621 205.709L213.556 207.17C213.612 207.257 213.695 207.324 213.792 207.361C213.889 207.398 213.995 207.402 214.095 207.374C215.114 207.092 218.139 206.284 219.954 206.32C220.02 206.321 220.085 206.308 220.145 206.283C220.206 206.258 220.26 206.22 220.306 206.173C220.351 206.126 220.387 206.07 220.41 206.009C220.433 205.947 220.443 205.882 220.439 205.816C220.439 205.217 220.326 204.427 220.266 203.935C220.251 203.81 220.187 203.695 220.089 203.615C219.99 203.536 219.865 203.498 219.739 203.51C217.408 203.772 215.11 204.268 212.879 204.99C212.809 205.013 212.746 205.052 212.693 205.103C212.64 205.154 212.6 205.217 212.575 205.286C212.55 205.356 212.542 205.43 212.55 205.503C212.558 205.576 212.582 205.646 212.621 205.709Z" fill="#263238"/>
<path d="M223.357 213.645L222.057 209.134C222.02 209.034 221.948 208.951 221.854 208.902C221.76 208.852 221.651 208.839 221.548 208.864L215.119 209.835C214.597 209.875 214.103 210.086 213.712 210.434C212.083 212.335 209.841 213.607 207.373 214.029C206.331 214.232 206.774 216.299 209.219 216.287C213.256 216.287 213.083 215.76 216.491 215.257C219.073 214.879 220.164 214.867 222.482 214.658C222.609 214.657 222.734 214.629 222.85 214.577C222.965 214.524 223.067 214.446 223.15 214.351C223.233 214.255 223.294 214.142 223.33 214.02C223.366 213.899 223.375 213.771 223.357 213.645Z" fill="#263238"/>
<path d="M207.978 165.909L209.853 165.471C210.601 165.306 211.376 165.306 212.124 165.471L214.203 165.897C214.676 165.993 215.112 166.221 215.461 166.555C215.81 166.889 216.057 167.315 216.174 167.784C216.336 168.424 216.242 169.102 215.912 169.673C215.582 170.245 215.042 170.665 214.406 170.845C213.446 171.076 212.457 171.161 211.471 171.097L209.027 171.306C208.625 171.341 208.225 171.232 207.896 170.999C207.567 170.767 207.331 170.426 207.229 170.036L206.714 168.011C206.654 167.79 206.64 167.559 206.672 167.332C206.703 167.105 206.78 166.887 206.898 166.691C207.017 166.494 207.173 166.324 207.359 166.189C207.544 166.055 207.755 165.959 207.978 165.909Z" fill="#FFB573"/>
<path d="M237.717 144.208C237.591 142.53 237.441 140.925 237.184 139.193C236.999 137.946 236.334 136.82 235.332 136.054C234.331 135.289 233.07 134.944 231.817 135.093C230.565 135.241 229.42 135.873 228.626 136.852C227.831 137.831 227.45 139.082 227.562 140.338V140.409L227.958 144.963C228.096 146.496 228.209 148.036 228.311 149.552C228.359 150.312 228.401 151.067 228.431 151.816C228.461 152.565 228.497 153.314 228.503 154.045C228.503 154.949 228.503 155.842 228.503 156.705C227.826 157.184 227.107 157.669 226.376 158.142C225.01 159.017 223.591 159.904 222.141 160.754C220.691 161.605 219.223 162.474 217.749 163.331C216.276 164.187 214.754 165.056 213.328 165.937H213.286C212.884 166.207 212.589 166.61 212.453 167.075C212.316 167.539 212.346 168.037 212.537 168.483C212.951 169.759 213.766 170.675 215.072 170.388C216.839 169.998 218.522 169.525 220.224 169.016C221.925 168.507 223.596 167.937 225.268 167.314C226.939 166.691 228.611 166.032 230.27 165.242C232.033 164.451 233.73 163.522 235.345 162.462C236.17 161.898 236.748 161.041 236.962 160.065L237.04 159.706C237.412 157.928 237.658 156.127 237.777 154.314C237.915 152.577 237.939 150.887 237.933 149.198C237.927 147.509 237.837 145.867 237.717 144.208Z" fill="#263238"/>
<path d="M154.786 143.184C154.528 141.53 151.491 140.835 151.491 140.835L149.693 140.098C149.401 139.976 149.075 139.963 148.774 140.061C148.473 140.159 148.217 140.361 148.052 140.632L147.183 142.028C147.09 142.179 147.028 142.347 147 142.522C146.973 142.697 146.98 142.876 147.023 143.049C147.065 143.221 147.141 143.383 147.247 143.526C147.353 143.668 147.486 143.788 147.639 143.879L149.286 144.849C149.579 145.023 149.906 145.131 150.245 145.167L151.622 145.311C152.202 145.371 152.787 145.265 153.309 145.005C153.831 144.745 154.268 144.342 154.57 143.843L154.654 143.711C154.757 143.556 154.804 143.369 154.786 143.184Z" fill="#FF8B7B"/>
<path d="M175.388 130.121C174.729 132.997 173.998 138.269 175.957 140.258C172.195 141.046 168.713 142.829 165.875 145.422C163.963 141.588 166.977 139.976 166.977 139.976C170.224 139.311 170.218 136.915 169.727 134.656L175.388 130.121Z" fill="#FF8B7B"/>
<path d="M165.234 142.666C166.234 139.61 163.826 138.999 167.948 137.741C171.171 136.753 177.174 137.022 178.54 138.113C179.3 138.712 178.138 140.563 178.138 140.563L165.234 142.666Z" fill="#E0E0E0"/>
<path d="M180.402 145.476L180.199 145.727L180.025 145.943L179.678 146.338C179.45 146.596 179.21 146.836 178.977 147.081C178.503 147.554 178.018 148.01 177.515 148.453C176.516 149.335 175.448 150.136 174.322 150.849C173.765 151.215 173.177 151.532 172.602 151.862C172.027 152.191 171.404 152.461 170.805 152.731C169.578 153.269 168.31 153.71 167.013 154.049L166.845 154.09C166.606 154.159 166.356 154.182 166.108 154.156C165.205 154.068 164.322 153.832 163.496 153.455C162.838 153.165 162.198 152.835 161.579 152.467C160.437 151.784 159.335 151.036 158.278 150.226C157.248 149.428 156.249 148.607 155.283 147.764C154.33 146.901 153.408 146.045 152.503 145.098C152.25 144.838 152.1 144.495 152.081 144.133C152.062 143.77 152.177 143.414 152.402 143.129C152.628 142.845 152.949 142.653 153.306 142.588C153.663 142.524 154.032 142.592 154.342 142.78H154.372C155.421 143.379 156.481 144.044 157.541 144.643C158.602 145.242 159.662 145.841 160.717 146.44C161.771 147.039 162.831 147.548 163.862 148.004C164.345 148.222 164.841 148.412 165.347 148.573C165.672 148.686 166.011 148.751 166.354 148.765L165.449 148.872C166.441 148.496 167.408 148.056 168.343 147.554C169.28 147.058 170.185 146.502 171.051 145.889C171.923 145.279 172.759 144.619 173.555 143.912C173.956 143.564 174.34 143.205 174.711 142.834L175.25 142.276L175.502 142.007L175.706 141.785L175.867 141.605C176.4 141.074 177.113 140.763 177.865 140.733C178.616 140.703 179.352 140.957 179.925 141.445C180.498 141.932 180.866 142.618 180.957 143.365C181.047 144.111 180.854 144.865 180.414 145.476H180.402Z" fill="#FF8B7B"/>
<path d="M158.009 146.509C158.009 148.456 154.822 152.853 158.524 155.579C158.847 159.521 159.285 163.403 160.13 169.879L179.899 170.478C178.012 163.289 179.636 158.538 182.649 146.095C182.815 145.414 182.836 144.706 182.71 144.017C182.584 143.327 182.315 142.672 181.919 142.093C181.524 141.515 181.011 141.026 180.414 140.658C179.818 140.291 179.15 140.053 178.456 139.961C177.671 139.859 176.832 139.763 175.981 139.697C172.997 139.385 169.993 139.289 166.995 139.409C166.025 139.469 165.018 139.559 164.06 139.667C162.38 139.849 160.829 140.651 159.71 141.916C158.591 143.182 157.984 144.819 158.009 146.509Z" fill="#01a809"/>
<path opacity="0.4" d="M158.009 146.509C158.009 148.456 154.822 152.853 158.524 155.579C158.847 159.521 159.285 163.403 160.13 169.879L179.899 170.478C178.012 163.289 179.636 158.538 182.649 146.095C182.815 145.414 182.836 144.706 182.71 144.017C182.584 143.327 182.315 142.672 181.919 142.093C181.524 141.515 181.011 141.026 180.414 140.658C179.818 140.291 179.15 140.053 178.456 139.961C177.671 139.859 176.832 139.763 175.981 139.697C172.997 139.385 169.993 139.289 166.995 139.409C166.025 139.469 165.018 139.559 164.06 139.667C162.38 139.849 160.829 140.651 159.71 141.916C158.591 143.182 157.984 144.819 158.009 146.509Z" fill="black"/>
<path d="M165.348 125.617C165.294 125.971 165.054 126.216 164.82 126.216C164.587 126.216 164.443 125.857 164.503 125.498C164.563 125.138 164.796 124.898 165.03 124.898C165.264 124.898 165.431 125.258 165.348 125.617Z" fill="#263238"/>
<path d="M165.156 124.934L164.335 124.551C164.335 124.551 164.664 125.294 165.156 124.934Z" fill="#263238"/>
<path d="M165.168 125.957C164.719 126.724 164.166 127.425 163.526 128.042C163.688 128.203 163.882 128.326 164.097 128.402C164.311 128.479 164.54 128.507 164.766 128.485L165.168 125.957Z" fill="#FF5652"/>
<path d="M164.863 123.527C164.836 123.519 164.811 123.505 164.791 123.486C164.77 123.467 164.754 123.445 164.743 123.419C164.73 123.394 164.722 123.367 164.719 123.34C164.717 123.312 164.721 123.284 164.73 123.257C164.739 123.231 164.753 123.207 164.772 123.186C164.79 123.165 164.813 123.149 164.839 123.137C165.139 122.98 165.473 122.898 165.812 122.898C166.151 122.898 166.485 122.98 166.786 123.137C166.833 123.168 166.866 123.216 166.879 123.27C166.893 123.324 166.885 123.382 166.858 123.431C166.829 123.479 166.783 123.513 166.729 123.526C166.675 123.54 166.618 123.531 166.57 123.503C166.329 123.387 166.063 123.33 165.796 123.337C165.528 123.343 165.266 123.412 165.03 123.539C165.003 123.549 164.974 123.553 164.945 123.551C164.916 123.549 164.888 123.541 164.863 123.527Z" fill="#263238"/>
<path d="M177.407 126.33C176.442 130.691 176.125 132.554 173.585 134.471C169.763 137.347 164.724 135.214 164.395 130.655C164.095 126.551 165.725 120.111 170.236 119.033C174.747 117.954 178.377 121.968 177.407 126.33Z" fill="#FF8B7B"/>
<path d="M167.049 127.319C167.87 131.387 171.842 134.736 174.837 134.61C177.833 134.484 182.248 128.805 182.122 124.551C181.996 120.298 179.019 116.542 174.16 116.763C169.302 116.985 163.089 117.26 167.049 127.319Z" fill="#263238"/>
<path d="M172.537 118.385C168.846 114.568 163.73 117.294 163.017 121.32C165.168 120.901 166.953 123.92 169.745 123.752C172.944 123.561 174.585 120.517 172.537 118.385Z" fill="#263238"/>
<path d="M176.802 119.181C177.305 115.551 180.996 116.246 182.499 118.133C184.003 120.02 184.68 125.801 180.99 124.549C177.299 123.297 176.55 121.015 176.802 119.181Z" fill="#01a809"/>
<path d="M180.205 120.477C179.546 116.337 182.535 107.333 189.88 110.796C195.955 113.659 187.604 128.912 195.955 131.68C192.786 136.514 181.912 131.201 180.205 120.477Z" fill="#263238"/>
<path d="M196.782 133.596H196.728C192.277 131.829 192.151 124.849 192.049 119.218C191.977 115.57 191.923 112.418 190.731 111.658C190.495 111.534 190.231 111.473 189.965 111.48C189.698 111.487 189.438 111.563 189.209 111.699C189.193 111.707 189.174 111.712 189.156 111.712C189.137 111.713 189.119 111.71 189.101 111.703C189.084 111.696 189.068 111.686 189.055 111.673C189.041 111.66 189.031 111.645 189.024 111.628C189.009 111.592 189.008 111.553 189.022 111.518C189.035 111.482 189.061 111.453 189.096 111.436C189.37 111.283 189.68 111.203 189.994 111.203C190.309 111.203 190.618 111.283 190.893 111.436C192.211 112.281 192.271 115.504 192.337 119.224C192.438 124.754 192.564 131.631 196.836 133.326C196.853 133.333 196.87 133.343 196.884 133.356C196.897 133.369 196.908 133.385 196.916 133.402C196.924 133.419 196.928 133.438 196.929 133.457C196.93 133.476 196.926 133.494 196.92 133.512C196.907 133.538 196.887 133.559 196.863 133.574C196.839 133.589 196.81 133.597 196.782 133.596Z" fill="#263238"/>
<path d="M168.99 127.906C168.391 128.889 168.121 129.314 167.36 129.578C167.124 129.677 166.863 129.706 166.611 129.659C166.359 129.612 166.126 129.492 165.941 129.314C165.756 129.136 165.627 128.908 165.571 128.658C165.514 128.408 165.532 128.146 165.623 127.906C165.934 126.888 166.905 125.45 168.019 125.552C168.274 125.587 168.516 125.689 168.72 125.846C168.924 126.004 169.083 126.212 169.181 126.45C169.279 126.689 169.313 126.948 169.28 127.204C169.246 127.459 169.146 127.702 168.99 127.906Z" fill="#FF8B7B"/>
<path d="M166.312 130.012L165.713 131.288L165.114 130.012L165.713 128.742L166.312 130.012Z" fill="white"/>
<path d="M167.534 170.189C167.534 170.189 150.874 169.332 139.898 174.299C136.484 175.845 135.957 178.427 135.351 182.123C132.829 197.645 128.905 213.275 128.905 213.275L132.644 214.384C132.644 214.384 146.584 193.901 144.673 182.788C170.548 188.276 178.731 179.679 178.731 179.679L167.534 170.189Z" fill="#FF8B7B"/>
<path d="M129.085 212.589C128.875 212.523 128.702 212.648 128.516 212.75C127.162 213.481 127.168 213.523 123.525 213.895C122.327 214.02 122.171 215.135 125.131 216.063L132.38 218.34C133.093 218.561 134.393 216.866 133.404 214.056C133.369 213.96 133.307 213.876 133.225 213.815C133.143 213.753 133.045 213.716 132.943 213.709C131.598 213.582 130.289 213.202 129.085 212.589Z" fill="#263238"/>
<path d="M177.329 171.554C177.329 171.554 164.077 169.343 153.114 174.262C151.444 175.007 150.062 176.276 149.177 177.877C148.291 179.478 147.951 181.323 148.208 183.134C150.436 198.711 155.996 217.001 155.996 217.001L159.896 216.941C159.896 216.941 159.608 195.194 157.697 184.081C159.902 184.8 163.658 184.818 165.605 184.728C172.794 184.386 178.665 182.445 177.773 175.31L177.329 171.554Z" fill="#FF8B7B"/>
<path d="M155.798 216.271C155.582 216.271 155.457 216.439 155.307 216.595C154.24 217.703 154.252 217.733 150.886 219.189C149.759 219.674 149.969 220.77 153.072 220.77H160.669C161.412 220.77 162.148 218.757 160.363 216.379C160.301 216.297 160.216 216.236 160.119 216.202C160.022 216.168 159.918 216.163 159.818 216.187C158.495 216.465 157.132 216.493 155.798 216.271Z" fill="#263238"/>
<path d="M160.13 169.876C160.13 169.876 149.526 169.81 141.522 173.099C141.522 184.38 146.201 188.897 146.201 188.897C146.201 188.897 189.766 196.554 179.899 170.499C174.789 168.942 160.243 169.415 160.13 169.876Z" fill="#263238"/>
<path d="M148.993 171.718C148.394 173.281 145.278 173.311 145.278 173.311L143.379 173.653C143.067 173.708 142.746 173.651 142.472 173.492C142.198 173.333 141.989 173.082 141.882 172.784L141.336 171.233C141.278 171.065 141.254 170.888 141.264 170.71C141.275 170.533 141.32 170.36 141.398 170.201C141.476 170.042 141.585 169.899 141.719 169.782C141.852 169.665 142.007 169.576 142.175 169.519L143.972 168.92C144.297 168.817 144.64 168.783 144.979 168.818L146.357 168.974C146.935 169.04 147.483 169.268 147.938 169.631C148.393 169.995 148.735 170.479 148.927 171.029L148.975 171.179C149.043 171.351 149.05 171.541 148.993 171.718Z" fill="#FF8B7B"/>
<path d="M164.796 146.245C164.569 147.725 164.275 149.121 163.976 150.546C163.676 151.972 163.335 153.38 162.951 154.788C162.206 157.662 161.249 160.478 160.088 163.211L160.01 163.385C159.943 163.542 159.854 163.69 159.746 163.822C158.952 164.764 158.078 165.636 157.134 166.428C156.253 167.201 155.337 167.884 154.414 168.549C153.492 169.214 152.545 169.825 151.587 170.412C150.628 170.999 149.664 171.55 148.633 172.066C148.316 172.218 147.955 172.253 147.614 172.166C147.273 172.078 146.974 171.874 146.769 171.588C146.564 171.302 146.466 170.953 146.493 170.602C146.519 170.252 146.668 169.921 146.914 169.669L149.214 167.411C149.981 166.656 150.742 165.907 151.479 165.146C152.216 164.385 152.941 163.63 153.617 162.876C154.264 162.163 154.864 161.411 155.415 160.623L155.073 161.222C155.499 159.988 155.864 158.688 156.223 157.376C156.583 156.064 156.888 154.722 157.2 153.374C157.512 152.026 157.799 150.672 158.081 149.312C158.362 147.952 158.632 146.575 158.895 145.257V145.221C159.059 144.464 159.51 143.8 160.153 143.368C160.796 142.936 161.582 142.77 162.345 142.905C163.107 143.04 163.788 143.465 164.244 144.091C164.7 144.717 164.896 145.496 164.79 146.263L164.796 146.245Z" fill="#FF8B7B"/>
<path d="M182.721 144.716C181.415 147.981 177.928 150.378 172.998 151.192C170.835 150.653 167.87 143.404 167.87 143.404C167.87 143.404 182.086 135.748 182.721 144.716Z" fill="#01a809"/>
<path opacity="0.4" d="M182.721 144.716C181.415 147.981 177.928 150.378 172.998 151.192C170.835 150.653 167.87 143.404 167.87 143.404C167.87 143.404 182.086 135.748 182.721 144.716Z" fill="black"/>
<path d="M160.879 140.618C158.572 142.037 156.044 145.129 155.685 150.556C156.577 152.599 165.546 154.313 165.546 154.313C165.546 154.313 168.882 136.771 160.879 140.618Z" fill="#01a809"/>
<path opacity="0.4" d="M160.879 140.618C158.572 142.037 156.044 145.129 155.685 150.556C156.577 152.599 165.546 154.313 165.546 154.313C165.546 154.313 168.882 136.771 160.879 140.618Z" fill="black"/>
<path d="M137.412 192.312H178.048C179.378 192.312 180.457 191.234 180.457 189.904C180.457 188.574 179.378 187.496 178.048 187.496H137.412C136.082 187.496 135.004 188.574 135.004 189.904C135.004 191.234 136.082 192.312 137.412 192.312Z" fill="#01a809"/>
<path d="M161.034 180.739H187.514C188.401 180.71 189.251 180.375 189.919 179.79C190.587 179.206 191.033 178.409 191.18 177.534L195.224 149.431C195.297 149.034 195.281 148.625 195.176 148.236C195.072 147.846 194.881 147.484 194.619 147.178C194.356 146.871 194.028 146.627 193.659 146.463C193.291 146.299 192.89 146.22 192.486 146.232H166.001C165.114 146.258 164.265 146.592 163.597 147.175C162.93 147.759 162.485 148.556 162.34 149.431L158.29 177.534C158.218 177.931 158.235 178.34 158.341 178.73C158.446 179.12 158.638 179.482 158.9 179.789C159.163 180.096 159.491 180.34 159.86 180.504C160.229 180.669 160.63 180.749 161.034 180.739Z" fill="#01a809"/>
<path opacity="0.4" d="M162.352 149.43L158.302 177.533C158.203 178.178 158.324 178.838 158.644 179.408C158.799 179.662 159.029 179.863 159.302 179.982C159.576 180.101 159.879 180.133 160.171 180.073C160.463 180.013 160.73 179.865 160.935 179.649C161.139 179.432 161.272 179.158 161.316 178.863L165.635 148.866C165.679 148.549 165.616 148.227 165.457 147.949C165.298 147.671 165.052 147.453 164.756 147.33C164.461 147.207 164.133 147.185 163.824 147.268C163.515 147.351 163.241 147.534 163.047 147.788C162.681 148.268 162.442 148.833 162.352 149.43Z" fill="white"/>
<path d="M184.243 187.504H185.597L190.755 153.848H189.401L184.243 187.504Z" fill="#263238"/>
<path d="M163.61 187.504H164.958L170.116 153.848H168.768L163.61 187.504Z" fill="#263238"/>
<path d="M167.468 192.312H186.064C187.394 192.312 188.472 191.234 188.472 189.904C188.472 188.574 187.394 187.496 186.064 187.496H167.468C166.138 187.496 165.06 188.574 165.06 189.904C165.06 191.234 166.138 192.312 167.468 192.312Z" fill="#01a809"/>
<path opacity="0.4" d="M162.652 187.504H137.412C136.082 187.504 135.004 188.582 135.004 189.912C135.004 191.242 136.082 192.321 137.412 192.321H162.652C163.982 192.321 165.06 191.242 165.06 189.912C165.06 188.582 163.982 187.504 162.652 187.504Z" fill="white"/>
<path d="M157.35 221.302H158.698L163.856 192.312H162.508L157.35 221.302Z" fill="#263238"/>
<path d="M133.908 221.302H135.256L140.414 192.312H139.066L133.908 221.302Z" fill="#263238"/>
<path d="M166.426 221.302H165.072L159.914 192.312H161.268L166.426 221.302Z" fill="#263238"/>
<path d="M189.868 221.302H188.514L183.356 192.312H184.71L189.868 221.302Z" fill="#263238"/>
<path d="M74.5021 37.8631C68.396 38.8619 62.8589 42.0399 58.9164 46.8084C54.974 51.577 52.8934 57.6128 53.0601 63.7977C53.2268 69.9827 55.6295 75.8977 59.8231 80.4469C64.0167 84.9961 69.717 87.8713 75.868 88.5397C75.6063 90.4387 75.1936 92.3138 74.6339 94.1472C74.6339 94.1472 78.5759 91.8946 80.7686 88.5936C81.4395 88.5397 82.1165 88.4618 82.7935 88.348C86.1217 87.8184 89.3124 86.6365 92.1825 84.87C95.0525 83.1035 97.5451 80.7873 99.5173 78.0545C101.489 75.3217 102.902 72.2262 103.674 68.9458C104.446 65.6653 104.563 62.2647 104.017 58.9391C103.47 55.6136 102.272 52.4288 100.492 49.5676C98.7109 46.7065 96.3823 44.2254 93.6397 42.2669C90.8971 40.3084 87.7946 38.9112 84.5103 38.1554C81.2261 37.3997 77.8249 37.3003 74.5021 37.8631Z" fill="#01a809"/>
<path opacity="0.5" d="M74.5021 37.8631C68.396 38.8619 62.8589 42.0399 58.9164 46.8084C54.974 51.577 52.8934 57.6128 53.0601 63.7977C53.2268 69.9827 55.6295 75.8977 59.8231 80.4469C64.0167 84.9961 69.717 87.8713 75.868 88.5397C75.6063 90.4387 75.1936 92.3138 74.6339 94.1472C74.6339 94.1472 78.5759 91.8946 80.7686 88.5936C81.4395 88.5397 82.1165 88.4618 82.7935 88.348C86.1217 87.8184 89.3124 86.6365 92.1825 84.87C95.0525 83.1035 97.5451 80.7873 99.5173 78.0545C101.489 75.3217 102.902 72.2262 103.674 68.9458C104.446 65.6653 104.563 62.2647 104.017 58.9391C103.47 55.6136 102.272 52.4288 100.492 49.5676C98.7109 46.7065 96.3823 44.2254 93.6397 42.2669C90.8971 40.3084 87.7946 38.9112 84.5103 38.1554C81.2261 37.3997 77.8249 37.3003 74.5021 37.8631Z" fill="white"/>
<path d="M81.5534 86.5017C76.8415 87.2763 72.0057 86.6362 67.6576 84.6623C63.3095 82.6885 59.6444 79.4696 57.1257 75.4128C54.607 71.3559 53.3479 66.6432 53.5077 61.8707C53.6674 57.0983 55.2387 52.4803 58.023 48.6009C60.8073 44.7215 64.6795 41.7549 69.1498 40.0762C73.6202 38.3975 78.4879 38.0822 83.1375 39.17C87.7871 40.2579 92.0096 42.7001 95.2712 46.1878C98.5328 49.6755 100.687 54.0521 101.461 58.7641C102.489 65.0809 100.971 71.5476 97.2395 76.747C93.5078 81.9464 87.867 85.4543 81.5534 86.5017ZM73.7653 39.174C69.1133 39.939 64.7925 42.0663 61.3495 45.2869C57.9064 48.5075 55.4957 52.6767 54.4221 57.2674C53.3485 61.858 53.6603 66.664 55.318 71.0774C56.9757 75.4909 59.9049 79.3137 63.7352 82.0625C67.5655 84.8112 72.1249 86.3624 76.8368 86.52C81.5487 86.6775 86.2015 85.4343 90.2069 82.9476C94.2122 80.4608 97.3903 76.8422 99.3391 72.5493C101.288 68.2565 101.92 63.4821 101.155 58.83C100.127 52.5927 96.6659 47.0183 91.532 43.3298C86.3981 39.6414 80.0107 38.1404 73.7713 39.156L73.7653 39.174Z" fill="white"/>
<path d="M75.7123 74.1966C72.9705 74.6469 70.1567 74.274 67.6269 73.1251C65.097 71.9762 62.9646 70.1029 61.4993 67.7421C60.0341 65.3813 59.3018 62.639 59.3951 59.862C59.4884 57.085 60.4031 54.3981 62.0235 52.1409C63.6439 49.8838 65.8972 48.1578 68.4985 47.1813C71.0998 46.2048 73.9322 46.0216 76.6376 46.6549C79.3431 47.2882 81.7999 48.7095 83.6976 50.7391C85.5952 52.7687 86.8484 55.3154 87.2986 58.0572C87.8991 61.7334 87.0163 65.4977 84.844 68.5236C82.6717 71.5495 79.3875 73.5898 75.7123 74.1966ZM71.2072 46.7705C68.5255 47.2113 66.0347 48.4374 64.0497 50.2937C62.0647 52.15 60.6747 54.5531 60.0553 57.1993C59.4359 59.8455 59.615 62.616 60.5699 65.1604C61.5249 67.7048 63.2128 69.909 65.4202 71.4942C67.6277 73.0795 70.2556 73.9747 72.9718 74.0666C75.688 74.1585 78.3704 73.4431 80.68 72.0107C82.9896 70.5783 84.8227 68.4932 85.9474 66.0192C87.0722 63.5451 87.4382 60.7932 86.9991 58.1111C86.4011 54.517 84.4039 51.306 81.4444 49.1807C78.4849 47.0554 74.804 46.1888 71.2072 46.7705Z" fill="white"/>
<path d="M187.232 32.0129C186.457 30.1801 185.483 28.4383 184.327 26.8188L184.854 26.4414C186.046 28.0984 187.051 29.8827 187.849 31.7613L187.232 32.0129Z" fill="#01a809"/>
<path d="M180.732 22.7166C177.375 19.5734 173.275 17.3329 168.816 16.2046L168.978 15.6055C173.541 16.7651 177.736 19.0586 181.176 22.2733L180.732 22.7166Z" fill="#01a809"/>
<path d="M187.753 42.5904C187.756 37.6079 186.303 32.7332 183.574 28.5646C180.845 24.3959 176.958 21.1148 172.391 19.1238C167.824 17.1328 162.774 16.5187 157.863 17.3568C152.951 18.1948 148.391 20.4487 144.743 23.8416C141.094 27.2345 138.515 31.6189 137.323 36.4567C136.131 41.2944 136.377 46.375 138.031 51.0748C139.686 55.7746 142.676 59.8892 146.636 62.9135C150.595 65.9378 155.352 67.7402 160.321 68.0995C162.34 71.4364 166.025 73.8327 166.025 73.8327C165.557 71.9167 165.25 69.9648 165.108 67.9976C171.342 67.2775 177.094 64.2911 181.269 59.6064C185.445 54.9218 187.752 48.8658 187.753 42.5904Z" fill="#01a809"/>
<path d="M165.431 40.6418C165.433 41.2881 165.242 41.9202 164.884 42.458C164.525 42.9959 164.015 43.4153 163.419 43.6632C162.822 43.911 162.165 43.9762 161.531 43.8504C160.897 43.7246 160.315 43.4135 159.858 42.9565C159.401 42.4996 159.09 41.9172 158.964 41.2833C158.838 40.6494 158.903 39.9924 159.151 39.3956C159.399 38.7987 159.818 38.2889 160.356 37.9306C160.894 37.5723 161.526 37.3816 162.172 37.3828C163.037 37.3828 163.866 37.7262 164.477 38.3374C165.088 38.9485 165.431 39.7775 165.431 40.6418Z" fill="white"/>
<path d="M176.73 44.5345C176.73 45.1803 176.539 45.8116 176.18 46.3485C175.821 46.8854 175.311 47.3039 174.715 47.551C174.118 47.7981 173.462 47.8628 172.828 47.7368C172.195 47.6108 171.613 47.2999 171.156 46.8433C170.7 46.3866 170.389 45.8049 170.263 45.1715C170.137 44.5382 170.202 43.8817 170.449 43.2851C170.696 42.6885 171.114 42.1785 171.651 41.8198C172.188 41.461 172.819 41.2695 173.465 41.2695C174.331 41.2695 175.162 41.6135 175.774 42.2258C176.386 42.8381 176.73 43.6686 176.73 44.5345Z" fill="white"/>
<path d="M154.151 42.5892C154.15 43.2336 153.958 43.8631 153.599 44.3982C153.24 44.9334 152.73 45.3502 152.135 45.5959C151.539 45.8417 150.884 45.9053 150.252 45.7789C149.621 45.6525 149.04 45.3416 148.585 44.8856C148.13 44.4296 147.82 43.8489 147.695 43.2168C147.57 42.5848 147.635 41.9298 147.881 41.3347C148.128 40.7395 148.546 40.2309 149.082 39.873C149.618 39.5152 150.248 39.3242 150.892 39.3242C151.32 39.3242 151.745 39.4087 152.14 39.5729C152.536 39.737 152.896 39.9776 153.198 40.2809C153.501 40.5841 153.741 40.9441 153.904 41.3402C154.068 41.7363 154.152 42.1607 154.151 42.5892Z" fill="white"/>
<path d="M215.072 78.6893C214.741 74.5126 215.619 70.329 217.6 66.6375C219.582 62.9461 222.584 59.9026 226.247 57.8702C229.911 55.8378 234.082 54.9023 238.263 55.1753C242.444 55.4483 246.458 56.9183 249.826 59.4099C253.195 61.9015 255.775 65.3095 257.26 69.2274C258.744 73.1452 259.071 77.4074 258.2 81.5056C257.329 85.6038 255.297 89.3648 252.347 92.3401C249.397 95.3153 245.654 97.3792 241.563 98.2854C240.36 100.56 238.757 102.6 236.83 104.306C237.032 102.478 237.092 100.638 237.01 98.8006C231.488 98.845 226.154 96.7947 222.083 93.0628C218.012 89.3309 215.506 84.1948 215.072 78.6893Z" fill="#01a809"/>
<path opacity="0.4" d="M215.072 78.6893C214.741 74.5126 215.619 70.329 217.6 66.6375C219.582 62.9461 222.584 59.9026 226.247 57.8702C229.911 55.8378 234.082 54.9023 238.263 55.1753C242.444 55.4483 246.458 56.9183 249.826 59.4099C253.195 61.9015 255.775 65.3095 257.26 69.2274C258.744 73.1452 259.071 77.4074 258.2 81.5056C257.329 85.6038 255.297 89.3648 252.347 92.3401C249.397 95.3153 245.654 97.3792 241.563 98.2854C240.36 100.56 238.757 102.6 236.83 104.306C237.032 102.478 237.092 100.638 237.01 98.8006C231.488 98.845 226.154 96.7947 222.083 93.0628C218.012 89.3309 215.506 84.1948 215.072 78.6893Z" fill="black"/>
<path d="M229.629 78.862L244.217 77.7118C244.563 77.6783 244.881 77.511 245.105 77.2457C245.329 76.9805 245.44 76.6382 245.415 76.2919C245.382 75.9453 245.214 75.6257 244.947 75.4016C244.68 75.1776 244.337 75.0671 243.989 75.0938L229.45 76.226C229.102 76.258 228.782 76.4257 228.557 76.6927C228.333 76.9596 228.223 77.3043 228.251 77.6519C228.279 77.993 228.438 78.31 228.695 78.5359C228.953 78.7617 229.287 78.8787 229.629 78.862Z" fill="white"/>
<path d="M230.049 84.016L244.637 82.8598C244.983 82.8278 245.302 82.6609 245.527 82.3953C245.751 82.1297 245.862 81.7865 245.835 81.44C245.8 81.0939 245.631 80.7752 245.365 80.5515C245.099 80.3277 244.756 80.2166 244.409 80.2418L229.821 81.392C229.475 81.427 229.157 81.5955 228.933 81.8617C228.709 82.128 228.598 82.471 228.623 82.8179C228.658 83.1639 228.827 83.4826 229.093 83.7063C229.359 83.9301 229.702 84.0412 230.049 84.016Z" fill="white"/>
<path d="M229.222 73.7161L243.828 72.5658C244.174 72.5309 244.493 72.3624 244.716 72.0961C244.94 71.8299 245.051 71.4869 245.026 71.14C244.996 70.7933 244.829 70.4727 244.563 70.2482C244.297 70.0238 243.953 69.9136 243.606 69.9418L229.018 71.0921C228.672 71.1241 228.353 71.2909 228.129 71.5566C227.904 71.8222 227.794 72.1654 227.82 72.5119C227.851 72.8558 228.015 73.1741 228.276 73.399C228.538 73.624 228.878 73.7377 229.222 73.7161Z" fill="white"/>
</svg>
