<svg width="17" height="17" viewBox="0 0 17 17" fill="none" xmlns="http://www.w3.org/2000/svg">
<g clip-path="url(#clip0_21_26465)">
<path d="M2.32129 16.3285C2.3221 14.7992 2.67962 13.2912 3.36542 11.9244C3.59299 11.4291 3.84064 10.9672 4.03474 10.5054C4.5678 9.54319 4.85949 8.46602 4.88477 7.36631C4.81284 5.17489 4.3786 3.01051 3.59969 0.960938" stroke="black" stroke-width="0.803181" stroke-miterlimit="10"/>
<path d="M15.1255 16.3285C15.1327 14.8259 14.7937 13.3418 14.1349 11.9913C13.894 11.4826 13.6463 11.0074 13.4187 10.5389C12.8833 9.57725 12.5893 8.50005 12.562 7.39977C12.6285 5.19687 13.0629 3.02059 13.8471 0.960938" stroke="black" stroke-width="0.803181" stroke-miterlimit="10"/>
<path d="M14.1346 11.9908L9.86431 15.3374C9.53917 15.5905 9.13851 15.7272 8.72647 15.7256C8.30842 15.7253 7.90273 15.5838 7.57524 15.324L3.36523 11.9238C3.5928 11.4285 3.84045 10.9667 4.03455 10.5049C7.10852 11.2914 10.331 11.2914 13.405 10.5049C13.6459 10.9734 13.8936 11.4486 14.1346 11.9908Z" stroke="black" stroke-width="0.803181" stroke-miterlimit="10"/>
<path d="M8.72021 6.08105V7.36614" stroke="black" stroke-width="0.803181" stroke-miterlimit="10"/>
<path d="M1.41748 5.82031L2.9636 7.36644L1.41748 8.91256" stroke="black" stroke-width="0.803181" stroke-miterlimit="10"/>
<path d="M16.1428 8.91256L14.5967 7.36644L16.1428 5.82031" stroke="black" stroke-width="0.803181" stroke-miterlimit="10"/>
</g>
<defs>
<clipPath id="clip0_21_26465">
<rect width="16.0636" height="16.0636" fill="white" transform="translate(0.687988 0.612305)"/>
</clipPath>
</defs>
</svg>
