<svg width="14" height="14" viewBox="0 0 14 14" fill="none" xmlns="http://www.w3.org/2000/svg">
<g clip-path="url(#clip0_21_26514)">
<path d="M7.21123 3.05625C7.9875 3.05625 8.6168 2.42696 8.6168 1.65068C8.6168 0.874411 7.9875 0.245117 7.21123 0.245117C6.43496 0.245117 5.80566 0.874411 5.80566 1.65068C5.80566 2.42696 6.43496 3.05625 7.21123 3.05625Z" fill="black"/>
<path d="M11.7539 3.45778H2.66792C2.48819 3.45778 2.31581 3.52918 2.18872 3.65627C2.06163 3.78336 1.99023 3.95574 1.99023 4.13547C1.99023 4.3152 2.06163 4.48757 2.18872 4.61466C2.31581 4.74175 2.48819 4.81315 2.66792 4.81315H5.22505C5.39848 4.81315 5.60154 4.89071 5.71649 5.18964C5.85077 5.53677 5.78501 6.20717 5.70219 6.72648L5.59376 7.34016C5.59396 7.34176 5.59379 7.34338 5.59327 7.3449C5.59275 7.34642 5.59188 7.34781 5.59074 7.34894L4.7223 12.2888C4.69081 12.4681 4.73162 12.6526 4.83581 12.8019C4.94 12.9512 5.09908 13.0531 5.27826 13.0854C5.36684 13.1011 5.45765 13.099 5.54542 13.0793C5.63319 13.0596 5.71616 13.0226 5.78953 12.9706C5.8629 12.9185 5.9252 12.8524 5.97281 12.7761C6.02042 12.6998 6.0524 12.6147 6.06688 12.5259L6.66701 9.09235C6.66701 9.09235 6.85952 8.27687 7.21091 8.27687C7.56808 8.27687 7.75657 9.09235 7.75657 9.09235L8.3567 12.529C8.37121 12.6185 8.40341 12.7043 8.45142 12.7813C8.49942 12.8583 8.56227 12.925 8.6363 12.9774C8.71034 13.0299 8.79407 13.0671 8.88262 13.0869C8.97118 13.1066 9.06278 13.1086 9.15209 13.0926C9.24141 13.0766 9.32664 13.043 9.40284 12.9937C9.47903 12.9444 9.54466 12.8805 9.59589 12.8056C9.64712 12.7307 9.68293 12.6464 9.70124 12.5575C9.71955 12.4687 9.71999 12.377 9.70253 12.288L8.83384 7.34819C8.83402 7.34662 8.83387 7.34502 8.83339 7.34351C8.83292 7.34199 8.83213 7.3406 8.83108 7.33941L8.7224 6.72573C8.63957 6.20642 8.57381 5.53601 8.70809 5.18889C8.82254 4.89071 9.03212 4.8124 9.19201 4.8124H11.7539C11.9336 4.8124 12.106 4.741 12.2331 4.61391C12.3602 4.48682 12.4316 4.31445 12.4316 4.13472C12.4316 3.95498 12.3602 3.78261 12.2331 3.65552C12.106 3.52843 11.9336 3.45703 11.7539 3.45703V3.45778Z" fill="black"/>
</g>
<defs>
<clipPath id="clip0_21_26514">
<rect width="12.8509" height="12.8509" fill="white" transform="translate(0.785156 0.245117)"/>
</clipPath>
</defs>
</svg>
