<svg width="26" height="26" viewBox="0 0 26 26" fill="none" xmlns="http://www.w3.org/2000/svg">
<g clip-path="url(#clip0_234_2528)">
<rect x="-5.89453" y="-5.3125" width="37.62" height="37.3268" rx="10.887" fill="#FAF9FF"/>
<path d="M10.1695 8.34118H15.8152C16.0975 8.34118 16.3284 8.11022 16.3284 7.82794V6.80145C16.3284 5.9546 15.6355 5.26172 14.7887 5.26172H11.196C10.3491 5.26172 9.65625 5.9546 9.65625 6.80145V7.82794C9.65625 8.11022 9.88721 8.34118 10.1695 8.34118Z" fill="#385898"/>
<path d="M18.6358 6.54688H18.1225C17.9686 6.54688 17.8659 6.64952 17.8659 6.8035V7.82998C17.8659 8.95912 16.9421 9.88296 15.8129 9.88296H10.1673C9.03812 9.88296 8.11428 8.95912 8.11428 7.82998V6.8035C8.11428 6.64952 8.01164 6.54688 7.85766 6.54688H7.34442C6.49757 6.54688 5.80469 7.23975 5.80469 8.08661V19.1213C5.80469 19.9682 6.49757 20.6611 7.34442 20.6611H18.6358C19.4826 20.6611 20.1755 19.9682 20.1755 19.1213V8.08661C20.1755 7.23975 19.4826 6.54688 18.6358 6.54688ZM17.3013 12.7058L12.3742 17.6329C12.2459 17.7612 12.0919 17.8382 11.9123 17.8382C11.7327 17.8382 11.553 17.7612 11.4247 17.6329L8.67885 14.8871C8.55054 14.7588 8.55054 14.6048 8.67885 14.4765L9.21776 13.9376C9.34607 13.8093 9.50004 13.8093 9.62835 13.9376L11.8866 16.1959L16.3262 11.7563C16.4545 11.628 16.6085 11.628 16.7368 11.7563L17.2757 12.2952C17.404 12.4235 17.404 12.6031 17.3013 12.7058Z" fill="#385898"/>
</g>
<defs>
<clipPath id="clip0_234_2528">
<rect width="25.6622" height="25.6622" fill="white" transform="translate(0.160156 0.128906)"/>
</clipPath>
</defs>
</svg>
