<svg width="67" height="67" viewBox="0 0 67 67" fill="none" xmlns="http://www.w3.org/2000/svg">
<circle cx="33.5" cy="33.5" r="18.2381" stroke="#03632C" stroke-width="5"/>
<path fill-rule="evenodd" clip-rule="evenodd" d="M62 33.5C62 49.2401 49.2401 62 33.5 62C17.7599 62 5 49.2401 5 33.5C5 26.9076 7.23827 20.8381 10.9963 16.0097C10.6753 15.0138 10.1341 14.2891 9.42025 13.877C8.64464 13.4292 7.65129 13.3424 6.51681 13.6429C2.42073 19.1996 0 26.0671 0 33.5C0 52.0015 14.9985 67 33.5 67C52.0015 67 67 52.0015 67 33.5C67 14.9985 52.0015 0 33.5 0C22.7576 0 13.1962 5.05628 7.06586 12.9187C8.04716 12.7775 8.95139 12.9135 9.72025 13.3574C10.4952 13.8048 11.068 14.5278 11.4361 15.4589C16.6626 9.07453 24.6055 5 33.5 5C49.2401 5 62 17.7599 62 33.5Z" fill="#01a809"/>
</svg>
