<svg width="21" height="22" viewBox="0 0 21 22" fill="none" xmlns="http://www.w3.org/2000/svg">
<g clip-path="url(#clip0_234_2491)">
<rect x="-8.16211" y="-7.72656" width="37.7695" height="37.4752" rx="10.9303" fill="#FFF9F9"/>
<path d="M8.80911 1.18273C8.44051 1.18273 8.14193 1.48131 8.14193 1.85054V5.18831H7.06343V1.78425C7.06343 1.27321 6.6496 0.859375 6.13915 0.859375C5.62806 0.859375 5.21427 1.27321 5.21427 1.78425V5.18827H4.1364V1.85054C4.1364 1.48131 3.83718 1.18273 3.46859 1.18273C3.09999 1.18273 2.80078 1.48135 2.80078 1.85054V6.11255H2.81319C2.91481 6.89062 3.69905 7.63153 4.85436 7.95116V19.6184C4.85436 20.3271 5.42987 20.902 6.13915 20.902C6.84783 20.902 7.42207 20.3271 7.42207 19.6184V7.9202C8.42565 7.63399 9.36103 7.02752 9.46574 6.11255H9.47628V1.85054C9.47628 1.48135 9.1777 1.18273 8.80911 1.18273Z" fill="#FF964A"/>
<path d="M14.6833 1.49508C13.9381 1.24233 12.8125 1.09116 12.8125 2.23473C12.8125 2.23473 12.8125 18.8702 12.8125 19.813C12.8125 20.7547 13.3508 21.1586 14.0236 21.1586C14.6963 21.1586 15.234 20.7547 15.234 19.9469C15.234 19.1403 15.234 12.6011 15.234 12.6011C15.234 12.6011 16.6477 12.6011 17.2536 12.6011C17.8594 12.6011 18.0614 11.8602 18.0614 11.3213C18.0614 11.3213 18.0614 9.30051 18.0614 7.61802C18.0614 3.96308 16.2599 2.03158 14.6833 1.49508Z" fill="#FF964A"/>
</g>
<defs>
<clipPath id="clip0_234_2491">
<rect width="20.2991" height="20.2991" fill="white" transform="translate(0.28125 0.859375)"/>
</clipPath>
</defs>
</svg>
