<svg width="71" height="67" viewBox="0 0 71 67" fill="none" xmlns="http://www.w3.org/2000/svg">
<path d="M42.1511 7.76338C42.1511 10.382 41.8637 13.0614 40.9731 15.0681C40.5305 16.0653 39.9491 16.8733 39.2018 17.4316C38.4608 17.9853 37.5272 18.316 36.3339 18.316C33.7213 18.316 32.0566 16.9142 31.0503 14.8895C30.0302 12.8371 29.7084 10.1685 29.8511 7.79429C29.9912 5.46176 30.7371 3.87048 31.8433 2.85899C32.9525 1.84477 34.4909 1.35222 36.3339 1.35222C39.8527 1.35222 42.1511 4.15734 42.1511 7.76338Z" stroke="black" stroke-width="1.03061"/>
<path d="M20.9871 65.6166C20.9871 65.6166 21.258 59.6032 20.5006 55.867C20.0633 53.7094 19.2271 52.6376 18.9077 50.4594C18.5778 48.2094 18.6805 46.899 18.9077 44.6363C19.2625 41.1026 20.1749 39.2354 21.2169 35.8403C21.949 33.4547 23.2669 29.7882 23.2669 29.7882" stroke="black" stroke-width="1.03061" stroke-linecap="round"/>
<path d="M30.2475 18.2776C30.2475 18.2776 27.271 18.6129 26.002 19.323C24.8162 19.9866 22.5607 20.7727 21.3652 21.9492C20.3852 22.9136 14.8904 26.7035 13.3026 33.7259C11.3562 42.3345 11.8803 53.8733 11.8803 53.8733" stroke="black" stroke-width="1.03061"/>
<line x1="29.9353" y1="18.3148" x2="42.3409" y2="18.3802" stroke="black" stroke-width="1.03061"/>
<path d="M35.938 56.3672L35.938 65.5879" stroke="black" stroke-width="1.03061" stroke-linecap="round"/>
<path d="M11.9156 53.4465L11.8815 55.3036L11.9156 56.4525L12.282 57.5326C12.282 57.5326 13.0484 58.7278 14.1587 59.1776C15.1859 59.5938 15.8895 59.5453 16.9882 59.3991C19.6507 59.0448 19.6103 52.7991 19.6103 52.7991" stroke="black" stroke-width="1.03061"/>
<path d="M50.4569 65.5873C50.4569 65.5873 50.196 59.5739 50.9255 55.8377C51.3467 53.6801 52.1522 52.6083 52.4598 50.4301C52.7775 48.1801 52.6786 46.8697 52.4598 44.607C52.118 41.0733 51.2392 39.2061 50.2356 35.811C49.5304 33.4254 48.261 29.7589 48.261 29.7589" stroke="black" stroke-width="1.03061" stroke-linecap="round"/>
<path d="M42.2429 18.3751C42.2429 18.3751 44.4037 18.5864 45.6261 19.2966C46.7681 19.9602 48.9406 20.7462 50.0921 21.9227C51.036 22.8871 56.3285 26.6771 57.8579 33.6994C59.7326 42.308 59.2278 53.8468 59.2278 53.8468" stroke="black" stroke-width="1.03061"/>
<path d="M59.1945 53.4181L59.2274 55.2753L59.1945 56.4242L58.8417 57.5043C58.8417 57.5043 58.1035 58.6995 57.0341 59.1493C56.0446 59.5655 55.367 59.517 54.3088 59.3707C51.7443 59.0164 51.7832 52.7708 51.7832 52.7708" stroke="black" stroke-width="1.03061"/>
</svg>
