<svg width="33" height="36" viewBox="0 0 33 36" fill="none" xmlns="http://www.w3.org/2000/svg">
<path d="M2.93029 -0.000488281H29.5054C30.5123 -0.000488281 31.4779 0.409975 32.1899 1.14061C32.9019 1.87124 33.3019 2.86218 33.3019 3.89545V31.167C33.3019 32.2003 32.9019 33.1912 32.1899 33.9219C31.4779 34.6525 30.5123 35.063 29.5054 35.063H2.93029C1.92342 35.063 0.957774 34.6525 0.245803 33.9219C-0.466169 33.1912 -0.86615 32.2003 -0.86615 31.167V3.89545C-0.86615 2.86218 -0.466169 1.87124 0.245803 1.14061C0.957774 0.409975 1.92342 -0.000488281 2.93029 -0.000488281ZM27.6072 3.89545H22.8616C21.0996 3.89545 19.4097 4.61376 18.1638 5.89236C16.9178 7.17097 16.2179 8.90512 16.2179 10.7133V15.5833H12.4214V21.4272H16.2179V35.063H21.9125V21.4272H27.6072V15.5833H21.9125V11.6873C21.9125 11.1707 22.1125 10.6752 22.4685 10.3099C22.8245 9.94459 23.3073 9.73936 23.8107 9.73936H27.6072V3.89545Z" fill="#0045CC"/>
</svg>
