<svg width="68" height="68" viewBox="0 0 68 68" fill="none" xmlns="http://www.w3.org/2000/svg">
<circle cx="33.9297" cy="34.0542" r="33.2988" fill="#90C844" fill-opacity="0.1"/>
<g clip-path="url(#clip0_141_1948)">
<path d="M37.9277 17.5542C37.9277 19.4188 38.2715 21.1375 38.959 22.7104C39.6465 24.2834 40.6361 25.7313 41.9277 27.0542C43.2194 28.3771 44.209 29.825 44.8965 31.3979C45.584 32.9709 45.9277 34.6896 45.9277 36.5542C45.9277 37.6584 45.7871 38.7209 45.5059 39.7417C45.2246 40.7625 44.8184 41.7157 44.2871 42.6011C43.7559 43.4865 43.1309 44.299 42.4121 45.0386C41.6934 45.7782 40.8861 46.4032 39.9902 46.9136C39.0944 47.424 38.1361 47.825 37.1152 48.1167C36.0944 48.4084 35.0319 48.5542 33.9277 48.5542C32.8236 48.5542 31.7611 48.4136 30.7402 48.1323C29.7194 47.8511 28.7663 47.4448 27.8809 46.9136C26.9954 46.3823 26.1829 45.7573 25.4434 45.0386C24.7038 44.3198 24.0788 43.5125 23.5684 42.6167C23.0579 41.7209 22.6569 40.7625 22.3652 39.7417C22.0736 38.7209 21.9277 37.6584 21.9277 36.5542C21.9277 35.6792 22.0215 34.8198 22.209 33.9761C22.3965 33.1323 22.6673 32.325 23.0215 31.5542C23.3757 30.7834 23.8132 30.049 24.334 29.3511C24.8548 28.6532 25.4434 28.0229 26.0996 27.4604C26.1725 27.8563 26.2715 28.2625 26.3965 28.6792C26.5215 29.0959 26.6673 29.5125 26.834 29.9292C27.0007 30.3459 27.1986 30.7417 27.4277 31.1167C27.6569 31.4917 27.8965 31.8407 28.1465 32.1636C28.3548 32.424 28.6257 32.5542 28.959 32.5542C29.2402 32.5542 29.4746 32.4552 29.6621 32.2573C29.8496 32.0594 29.9486 31.8198 29.959 31.5386C29.959 31.424 29.9434 31.3198 29.9121 31.2261C29.8809 31.1323 29.8288 31.0386 29.7559 30.9448C29.4642 30.5177 29.209 30.0959 28.9902 29.6792C28.7715 29.2625 28.5788 28.8354 28.4121 28.3979C28.2454 27.9604 28.1257 27.5073 28.0527 27.0386C27.9798 26.5698 27.9382 26.075 27.9277 25.5542C27.9277 24.3146 28.1621 23.1479 28.6309 22.0542C29.0996 20.9604 29.7454 20.0073 30.5684 19.1948C31.3913 18.3823 32.3444 17.7417 33.4277 17.2729C34.5111 16.8042 35.6777 16.5646 36.9277 16.5542H37.9277V17.5542ZM33.9277 46.5542C35.3132 46.5542 36.61 46.2938 37.8184 45.7729C39.0267 45.2521 40.0892 44.5386 41.0059 43.6323C41.9225 42.7261 42.6361 41.6688 43.1465 40.4604C43.6569 39.2521 43.9173 37.95 43.9277 36.5542C43.9277 34.9813 43.6361 33.5177 43.0527 32.1636C42.4694 30.8094 41.6257 29.5802 40.5215 28.4761C39.1673 27.1115 38.1048 25.6063 37.334 23.9604C36.5632 22.3146 36.1048 20.5334 35.959 18.6167C35.0944 18.7313 34.2975 18.9917 33.5684 19.3979C32.8392 19.8042 32.1986 20.3198 31.6465 20.9448C31.0944 21.5698 30.6725 22.2729 30.3809 23.0542C30.0892 23.8354 29.9382 24.6688 29.9277 25.5542C29.9277 26.3667 30.0475 27.1011 30.2871 27.7573C30.5267 28.4136 30.8809 29.0698 31.3496 29.7261C31.5475 29.9969 31.6986 30.2782 31.8027 30.5698C31.9069 30.8615 31.9642 31.1844 31.9746 31.5386C31.9746 31.9552 31.8965 32.3459 31.7402 32.7104C31.584 33.075 31.3652 33.3927 31.084 33.6636C30.8027 33.9344 30.485 34.1532 30.1309 34.3198C29.7767 34.4865 29.3861 34.5646 28.959 34.5542C28.4798 34.5542 28.0579 34.4657 27.6934 34.2886C27.3288 34.1115 27.0059 33.8719 26.7246 33.5698C26.4434 33.2677 26.1934 32.9292 25.9746 32.5542C25.7559 32.1792 25.5475 31.8042 25.3496 31.4292C24.8704 32.1896 24.5163 33.0073 24.2871 33.8823C24.0579 34.7573 23.9382 35.6479 23.9277 36.5542C23.9277 37.9396 24.1882 39.2365 24.709 40.4448C25.2298 41.6532 25.9434 42.7157 26.8496 43.6323C27.7559 44.549 28.8132 45.2625 30.0215 45.7729C31.2298 46.2834 32.5319 46.5438 33.9277 46.5542Z" fill="#01a809"/>
</g>
<defs>
<clipPath id="clip0_141_1948">
<rect width="32" height="32" fill="white" transform="translate(17.9277 16.5542)"/>
</clipPath>
</defs>
</svg>
