<svg width="91" height="91" viewBox="0 0 91 91" fill="none" xmlns="http://www.w3.org/2000/svg">
<circle cx="45.5323" cy="45.3693" r="44.7794" fill="#01a809"/>
<path d="M61.9032 69.4604L61.6041 68.9646L60.8081 67.3728L60.4117 66.4122C60.1933 65.8885 59.8704 64.899 59.6882 64.2056L59.3477 62.9149L59.1397 62.2856C59.0134 61.9067 58.6108 61.2133 58.2257 60.704L57.0013 59.1411C56.7187 58.7892 56.2571 57.8194 55.9973 57.0183C55.7241 56.1809 55.4146 54.9824 55.3028 54.3448C55.1858 53.6534 54.9033 52.6856 54.6621 52.1443L54.0121 50.7429C53.9345 50.5845 53.8227 50.1198 53.8227 49.7265L53.8186 49.2524C53.8289 49.21 53.8258 49.1707 53.8227 49.1406V48.973C53.5722 46.0149 51.7123 42.9108 51.3324 42.4688C51.0498 42.1387 50.994 41.2392 50.9432 40.434C50.906 39.8378 50.7041 38.6175 50.5241 37.541L50.5065 37.4365C50.3916 36.742 50.2808 36.0858 50.258 35.8291C50.198 35.1563 49.8896 33.7145 49.283 32.5035C48.9601 31.8566 48.6403 30.6663 48.335 28.9616L48.3122 28.8364C48.2625 28.5663 48.2873 27.0541 48.3205 26.0615L48.3174 24.7936C48.3174 24.0949 48.2449 23.1065 48.1559 22.5879L47.9965 21.6626C47.9924 21.6512 47.7067 20.492 47.6549 20.2156C47.6001 19.9237 47.5556 19.5242 47.5556 19.3255C47.5556 19.1061 47.6022 18.5513 47.6601 18.0866L47.7678 17.1954L47.923 15.1026L48.0006 14.3904C48.0534 13.9268 47.9603 13.2178 47.7895 12.7758C47.6084 12.3018 47.2689 12.25 47.1312 12.25C46.8942 12.25 46.5609 12.3783 46.327 12.988L46.002 13.8481L45.501 14.8769C45.2299 15.4307 44.76 16.2442 44.4525 16.6913C44.0416 17.2896 43.8636 18.0824 44.0282 18.5751C44.1762 19.0191 44.6161 19.5729 45.0508 19.8627C45.1439 19.932 45.4627 20.6607 45.5228 21.8323L45.5238 23.2307C45.5031 23.4294 45.3137 25.2304 44.7982 27.0582C44.1658 29.3115 45.2164 31.7925 45.6749 32.5594C46.061 33.2011 46.091 33.464 46.2349 34.734C46.2628 34.9866 46.297 35.2764 46.3384 35.6128C46.5557 37.4086 46.3829 41.882 46.3415 42.8621C45.3354 44.3133 45.6811 45.5284 45.8881 46.256C45.9347 46.4195 45.9937 46.6224 45.9885 46.6959C45.9637 47.0902 45.676 47.3759 45.6791 47.3759C44.643 48.0911 43.698 48.7774 42.6371 49.9438C41.8453 50.8133 40.7616 52.3265 40.2193 53.317C39.3633 54.882 39.1283 56.0122 38.9565 56.8361C38.9141 57.038 38.8768 57.2201 38.8334 57.3795C38.5777 58.34 38.1947 59.4351 37.6979 60.7879C37.2228 62.0755 36.4776 63.3796 36.3669 63.4862C36.2696 63.5493 36.1712 63.6611 35.9705 63.9023C35.7469 64.1693 35.3732 64.6154 35.1207 64.7107C34.8216 64.8224 34.5255 65.1205 34.1902 65.6484C34.0732 65.8347 33.9335 66.0738 33.7834 66.3305L33.7337 66.4143C33.5185 66.7859 33.2504 67.2517 33.033 67.5642C32.6232 68.1583 32.47 68.3136 32.4348 68.3467C32.2661 68.413 32.1046 68.5734 31.9959 68.6986C31.9545 68.7473 31.6657 68.9222 31.2983 68.9719C30.8708 69.0288 30.2747 69.1271 29.961 69.2089C29.6071 69.3 29.1775 69.4842 28.9716 69.6074L28.3216 69.9655C28.1694 70.0421 27.9055 70.1353 27.7626 70.1622L27.181 70.2595C26.8001 70.3091 26.2153 70.7521 26.1904 70.7687C25.8013 71.0678 25.8302 71.3721 25.883 71.5253C25.9368 71.6868 26.1097 71.9559 26.6634 71.9559H31.1234C31.4411 71.9559 31.821 71.7758 32.0477 71.5191C32.1657 71.3825 32.4503 71.1351 32.6677 70.9757C32.8716 70.8256 33.09 70.7449 33.12 70.7408C33.4046 70.7408 33.7969 70.5441 34.0587 70.3464C34.303 70.1622 34.7998 69.714 35.1869 69.3259L35.8669 68.6479L37.7383 66.6068L38.291 65.933C38.3552 65.8564 38.4131 65.784 38.468 65.7219C38.6201 65.9165 38.7744 66.0676 38.9441 66.1897C39.3726 66.4961 39.8922 66.6576 40.447 66.6576C41.5482 66.6576 42.6868 66.0231 43.4185 64.9984C44.5643 63.3972 44.4215 61.324 43.0987 60.378C43.0346 60.3314 42.9673 60.2952 42.901 60.2631C43.1008 59.9443 43.2188 59.7094 43.2498 59.5634C43.2819 59.4123 43.5459 59.0677 43.6483 58.9352C43.8388 58.6857 43.9889 58.5243 44.0054 58.5098C44.0271 58.4963 44.1193 58.4642 44.1845 58.4601L44.1979 58.4559C44.4939 58.5243 44.761 58.5284 45.1036 58.4942C45.8188 58.4301 46.5692 57.7469 46.7089 57.0328C46.7607 56.7657 46.7772 56.5194 46.7638 56.2627L47.5194 55.4761C47.6549 55.3384 47.8288 55.1211 47.9209 54.9731C48.0224 54.8106 48.13 54.5156 48.1807 54.2692C48.2232 54.0591 48.2635 53.6938 48.2749 53.4381C48.2791 53.3305 48.2925 53.1897 48.3101 53.052C48.4385 53.2301 48.6372 53.5282 48.8018 53.7921C49.0036 54.114 49.3131 54.5642 49.489 54.763L49.7374 55.0434L50.2715 55.7286C50.4475 55.9532 50.878 56.4863 51.0519 56.6063C51.0737 56.6291 51.1896 56.8082 51.2858 57.0483C51.4018 57.3402 51.6119 57.7863 51.7661 58.0637L52.3074 59.0294C52.473 59.3212 52.7908 59.8046 53.0133 60.1037L53.3973 60.6243L54.0276 61.5507L55.0979 63.4272L56.0211 64.8649L56.7291 65.9082L57.1524 66.6607L57.7941 67.8913C57.8417 67.9783 57.9132 68.1356 57.9556 68.2453C57.996 68.3498 58.0467 68.5237 58.0705 68.622C58.087 68.6883 58.1015 68.7711 58.1139 68.8394C58.0208 68.9025 57.8448 69.0029 57.7134 69.0702L57.4184 69.2182L56.4651 69.6126L55.0358 70.1291C54.9861 70.1446 54.9312 70.158 54.8526 70.1787C54.6424 70.2336 54.4261 70.2905 54.2719 70.4158C54.1239 70.5337 54.0545 70.7035 54.0773 70.8795C54.1022 71.0802 54.2388 71.2386 54.4789 71.3463L54.8495 71.5139C55.1631 71.6578 55.9352 71.723 56.5179 71.723H59.7276C60.0888 71.723 60.6229 71.6837 60.9458 71.633C61.2874 71.5791 61.7531 71.4001 61.9674 71.1341C62.1175 70.9478 62.2665 70.6476 62.2665 70.4002C62.2696 70.0669 61.9187 69.4863 61.9032 69.4604ZM46.4357 32.1009C45.8778 31.1621 45.1667 29.0289 45.6532 27.3004C46.2297 25.2531 46.4088 23.2979 46.4108 23.269V22.0155C46.4119 22 46.4295 21.6522 46.4098 21.4494L46.327 20.8273C46.2173 20.2001 45.9927 19.3917 45.5569 19.103C45.294 18.926 44.9773 18.5347 44.8935 18.2832C44.8469 18.1414 44.9142 17.6342 45.204 17.2099C45.5331 16.7317 46.0351 15.8643 46.3218 15.2764L46.8404 14.2114L47.0608 13.6318C47.096 13.8698 47.1105 14.1162 47.0898 14.2859L47.0091 15.0146L46.8538 17.1064L46.7483 17.9779C46.6841 18.513 46.6396 19.0791 46.6396 19.3255C46.6396 19.5811 46.6882 20.0376 46.7503 20.3854C46.7721 20.4971 46.8352 20.7456 46.918 21.0488C47.0215 21.4287 47.1747 22.1449 47.2637 22.6448L47.3465 23.123C47.3931 23.3807 47.4293 24.1394 47.4293 24.8153V26.047C47.4096 26.6287 47.3548 28.5601 47.4355 28.9979L47.4593 29.1304C47.5794 29.7948 47.9447 31.8163 48.4861 32.901C49.0357 34.0023 49.3182 35.3023 49.371 35.9078C49.3969 36.2048 49.5087 36.8631 49.636 37.6311L49.6432 37.6673C49.8099 38.6775 50.02 39.933 50.0531 40.4867C50.0697 40.7434 50.0862 41.0125 50.1121 41.2723C48.9994 41.0229 48.0182 41.1885 47.2699 41.7443C47.331 39.9216 47.3931 36.9531 47.2171 35.5041C47.1768 35.1687 47.1436 34.8789 47.1136 34.6285C46.9646 33.3088 46.9201 32.9093 46.4357 32.1009ZM43.2809 62.5816C43.3057 63.2202 43.0904 63.894 42.6744 64.4757C42.1082 65.2665 41.2564 65.756 40.449 65.756C40.0826 65.756 39.7431 65.6494 39.4678 65.4538C39.324 65.3503 39.1987 65.2168 39.0849 65.0439C39.3343 64.7614 39.7659 64.247 40.3155 63.5773L41.7967 61.7774C41.9881 61.5455 42.1889 61.2847 42.3825 61.0218C42.4467 61.0518 42.5077 61.086 42.5646 61.1253C43.0014 61.4368 43.256 61.9544 43.2809 62.5816ZM42.9621 58.3669L42.9373 58.3969C42.692 58.7188 42.4456 59.0625 42.3794 59.373C42.3638 59.4237 42.2479 59.6452 41.9912 60.0302L41.5658 60.6264C41.4271 60.8138 41.276 61.0083 41.1094 61.2102L39.6293 63.0101C39.1718 63.5669 38.8085 63.9975 38.5767 64.2687L38.0623 64.8224C37.9132 64.9901 37.7279 65.2126 37.5986 65.3689L37.0634 66.022L35.218 68.0321L34.5535 68.6976C34.2005 69.0516 33.7265 69.4811 33.5195 69.6374C33.3384 69.772 33.1376 69.8455 33.1096 69.8517C32.825 69.8517 32.4172 70.0556 32.1398 70.2584C31.8748 70.453 31.5405 70.748 31.377 70.9312C31.3128 71.0037 31.1648 71.0678 31.1193 71.0678H27.7471L27.9293 71.0378C28.1549 70.9933 28.4934 70.8753 28.72 70.7594L29.4239 70.3754C29.5729 70.2853 29.9269 70.1373 30.1805 70.0721C30.4548 70.0028 31.023 69.9065 31.4142 69.8548C31.9131 69.7885 32.441 69.5463 32.6687 69.2793C32.7515 69.183 32.796 69.1603 32.796 69.1603C32.9595 69.0971 33.1355 68.9781 33.7638 68.0724C33.9997 67.7309 34.2554 67.2879 34.5028 66.8615L34.5493 66.7807C34.6932 66.5354 34.8267 66.3036 34.9385 66.1276C35.2625 65.6184 35.4291 65.5459 35.4312 65.5459C35.9063 65.3658 36.3369 64.8504 36.6515 64.4736C36.813 64.279 36.8678 64.2211 36.8771 64.2128C37.2591 63.9582 38.144 62.1458 38.5311 61.0922C39.0352 59.7259 39.4254 58.6091 39.6924 57.6083C39.738 57.4354 39.7783 57.2429 39.8259 57.0162C39.8601 56.8485 39.8994 56.6674 39.945 56.4739C41.0338 57.5793 42.249 58.0989 42.989 58.3317C42.9787 58.3452 42.9693 58.3566 42.9621 58.3669ZM45.9016 56.3414C45.8809 56.507 45.8612 56.6954 45.8291 56.8672C45.7639 57.2067 45.3541 57.5813 45.0208 57.6145C44.6461 57.6476 44.3428 57.6031 44.2186 57.5844C44.1814 57.5793 44.1555 57.5762 44.1369 57.5762H44.1348C44.0447 57.5813 43.9412 57.5989 43.8398 57.629C43.6204 57.5896 41.6838 57.2015 40.2338 55.4647C40.4325 54.884 40.683 54.322 40.9976 53.7455C41.1011 53.5582 41.2263 53.346 41.3733 53.1141C42.842 54.734 44.969 55.5278 45.9875 55.8332C45.9482 55.9398 45.9275 56.1023 45.9016 56.3414ZM47.4914 52.5469C47.4376 52.7757 47.3869 53.1535 47.3796 53.4081C47.3703 53.6223 47.3372 53.9401 47.303 54.0995C47.274 54.2537 47.1964 54.4493 47.1581 54.5094C47.1043 54.5953 46.976 54.7598 46.8818 54.853L46.653 55.09C45.9813 54.9182 43.4144 54.1626 41.8846 52.343C42.3597 51.662 42.8814 50.9944 43.2912 50.5442C44.3563 49.3735 45.3323 48.6945 46.1976 48.1046C47.508 49.3818 47.7005 51.4084 47.7284 52.0957C47.6156 52.2106 47.5338 52.3658 47.4914 52.5469ZM48.6061 51.8938C48.5223 50.9116 48.0803 48.7142 46.7358 47.3293C46.8145 47.1368 46.859 46.9474 46.8735 46.7539C46.888 46.5293 46.8207 46.2943 46.74 46.0086C46.5485 45.3359 46.2866 44.4126 47.1426 43.2575L47.1892 43.1747C47.1933 43.1623 47.6539 42.0548 49.1412 42.0548C49.488 42.0548 49.8678 42.1159 50.2705 42.239C50.3615 42.5848 50.4909 42.8497 50.6607 43.0464C51.0064 43.4521 52.7659 46.4516 52.9367 49.1676L52.9346 49.7265C52.9346 49.7648 52.9367 49.8051 52.9398 49.8455C51.9762 49.9366 49.4725 50.3237 48.6061 51.8938ZM61.2791 70.5762C61.2491 70.6041 61.0421 70.7201 60.8102 70.7563C60.5287 70.7966 60.0443 70.8329 59.7307 70.8329H56.52C56.2799 70.8329 56.0377 70.8205 55.8276 70.8029L56.785 70.4427L58.1036 69.8693C58.1999 69.8216 58.3065 69.7616 58.4058 69.7047L58.5135 69.9914L58.4731 69.6643C58.5435 69.6198 58.6087 69.5794 58.6573 69.5432C58.853 69.3994 59.0372 69.1302 59.0061 68.8477C58.9948 68.7514 58.9637 68.563 58.9306 68.4254C58.8985 68.2774 58.8271 68.0569 58.7795 67.9265C58.7225 67.7826 58.6284 67.5818 58.5694 67.4701L57.4795 65.4466L55.8545 62.9728L54.7749 61.0839L53.7213 59.58C53.5153 59.3005 53.2245 58.8606 53.0764 58.5957L52.5372 57.6352C52.4068 57.4012 52.2143 56.9924 52.1056 56.7223C52.0631 56.6167 51.8396 56.0826 51.5787 55.9015C51.5405 55.8704 51.29 55.5993 50.9598 55.177L50.1494 54.1782C50.0283 54.0395 49.7478 53.641 49.5532 53.3253C49.4455 53.1555 49.3265 52.9734 49.2199 52.814C49.4849 51.2066 52.1035 50.8184 53.0754 50.7315C53.1199 50.9033 53.1686 51.041 53.2213 51.1424L53.4553 51.6102L53.8548 52.5097C54.067 52.9827 54.3257 53.8739 54.4334 54.4969C54.5462 55.1676 54.8733 56.4231 55.1569 57.2967C55.4539 58.2106 55.9621 59.2674 56.3151 59.7021L56.8854 60.4091L57.5219 61.2454C57.8397 61.6614 58.2009 62.2804 58.3003 62.5692L58.4979 63.1695L58.8292 64.4343C59.0217 65.1588 59.3632 66.2001 59.593 66.7548L60.0018 67.7423L60.8268 69.3931L61.1425 69.922C61.2718 70.1363 61.3526 70.3319 61.3784 70.4095C61.3567 70.4489 61.3215 70.5213 61.2791 70.5762Z" fill="white"/>
</svg>
