<svg width="37" height="64" viewBox="0 0 37 64" fill="none" xmlns="http://www.w3.org/2000/svg">
<path d="M24.2219 7.77217C24.2219 10.3908 23.9345 13.0701 23.0439 15.0769C22.6013 16.0741 22.0199 16.882 21.2726 17.4404C20.5316 17.9941 19.598 18.3248 18.4047 18.3248C15.7921 18.3248 14.1274 16.923 13.1211 14.8983C12.101 12.8459 11.7792 10.1773 11.9219 7.80308C12.062 5.47054 12.8079 3.87927 13.9141 2.86777C15.0233 1.85356 16.5617 1.36101 18.4047 1.36101C21.9235 1.36101 24.2219 4.16613 24.2219 7.77217Z" stroke="black" stroke-width="1.03061"/>
<path d="M0.75098 56.6323L0.750131 45.323L1.59554 35.9818L2.45853 30.9053" stroke="black" stroke-width="1.03061"/>
<path d="M11.9433 21.4583C11.9433 21.4583 9.78618 22.207 8.51712 22.9172C7.33139 23.5808 6.6364 23.9606 5.66673 24.9125C4.68553 25.8756 4.23625 26.5439 3.6002 27.7629C2.91941 29.0676 2.39983 31.3349 2.39983 31.3349" stroke="black" stroke-width="1.03061"/>
<path d="M8.95919 32.3221C8.95687 32.0375 8.72428 31.8086 8.4397 31.811C8.15511 31.8133 7.92629 32.0459 7.92861 32.3305L8.95919 32.3221ZM8.16407 36.7747L8.66928 36.8763L8.16407 36.7747ZM6.91385 44.6271L6.40284 44.5607L6.40068 44.5773L6.3996 44.594L6.91385 44.6271ZM6.67996 51.3516L6.16466 51.3516L6.16466 51.3673L6.16562 51.383L6.67996 51.3516ZM6.91385 55.1799L6.3995 55.2113L6.40071 55.231L6.40341 55.2505L6.91385 55.1799ZM6.67996 48.2691L6.16572 48.236L6.16466 48.2525L6.16466 48.2691L6.67996 48.2691ZM8.66928 36.8763C8.83034 36.0749 8.9009 34.9248 8.93289 34.0015C8.94908 33.5343 8.95565 33.1153 8.95818 32.8131C8.95944 32.6619 8.9597 32.5397 8.95964 32.455C8.95961 32.4127 8.9595 32.3797 8.95939 32.3572C8.95934 32.346 8.95929 32.3373 8.95925 32.3314C8.95923 32.3285 8.95922 32.3262 8.95921 32.3246C8.9592 32.3238 8.9592 32.3232 8.95919 32.3228C8.95919 32.3226 8.95919 32.3224 8.95919 32.3223C8.95919 32.3222 8.95919 32.3222 8.95919 32.3221C8.95919 32.3221 8.95919 32.3221 8.4439 32.3263C7.92861 32.3305 7.92861 32.3304 7.92861 32.3304C7.92861 32.3304 7.92861 32.3304 7.92861 32.3305C7.92861 32.3305 7.92861 32.3306 7.92861 32.3308C7.92861 32.3311 7.92861 32.3315 7.92862 32.3321C7.92863 32.3334 7.92864 32.3354 7.92866 32.338C7.92869 32.3433 7.92874 32.3514 7.92879 32.362C7.92889 32.3832 7.92899 32.4149 7.92903 32.4558C7.92909 32.5377 7.92884 32.6567 7.9276 32.8045C7.92513 33.1001 7.9187 33.5098 7.9029 33.9658C7.87092 34.8889 7.80157 35.9632 7.65887 36.6732L8.66928 36.8763ZM6.91385 44.6271C7.42486 44.6935 7.42486 44.6935 7.42486 44.6934C7.42487 44.6934 7.42487 44.6934 7.42488 44.6933C7.4249 44.6932 7.42492 44.693 7.42496 44.6927C7.42503 44.6922 7.42513 44.6914 7.42527 44.6903C7.42555 44.6881 7.42598 44.6849 7.42655 44.6805C7.42769 44.6718 7.42939 44.6588 7.43165 44.6417C7.43617 44.6073 7.44289 44.5565 7.45168 44.4905C7.46928 44.3586 7.49516 44.1663 7.52826 43.9253C7.59446 43.4434 7.68951 42.7671 7.80482 41.99C8.03573 40.4338 8.34675 38.4811 8.66928 36.8763L7.65887 36.6732C7.33107 38.3043 7.01699 40.2777 6.78536 41.8387C6.66941 42.6202 6.57383 43.3003 6.50723 43.7851C6.47393 44.0275 6.44787 44.2211 6.43011 44.3543C6.42123 44.4209 6.41443 44.4723 6.40984 44.5072C6.40755 44.5247 6.40581 44.538 6.40463 44.5469C6.40405 44.5514 6.4036 44.5548 6.4033 44.5571C6.40315 44.5583 6.40304 44.5591 6.40296 44.5597C6.40292 44.56 6.40289 44.5602 6.40287 44.5604C6.40286 44.5605 6.40286 44.5605 6.40285 44.5606C6.40284 44.5606 6.40284 44.5607 6.91385 44.6271ZM7.8743 58.3602L7.42429 55.1092L6.40341 55.2505L6.85343 58.5015L7.8743 58.3602ZM7.4282 55.1485L7.19431 51.3202L6.16562 51.383L6.3995 55.2113L7.4282 55.1485ZM7.19527 51.3516L7.19527 48.2691L6.16466 48.2691L6.16466 51.3516L7.19527 51.3516ZM7.19421 48.3021L7.4281 44.6601L6.3996 44.594L6.16572 48.236L7.19421 48.3021Z" fill="black"/>
<path d="M35.4785 55.4385L35.7604 46.0171L35.4791 38.0074L34.8882 33.9368L34.0937 30.6031" stroke="black" stroke-width="1.03061"/>
<path d="M28.6294 57.5684C29.0795 52.0279 29.8374 50.9486 29.3695 46.1873C29.0402 42.8067 28.7326 40.2544 28.1136 36.9148C27.7732 35.0776 27.6745 32.0877 27.6745 32.0877" stroke="black" stroke-width="1.03061" stroke-linecap="round"/>
<path d="M23.9168 21.475C25.257 22.1004 26.3539 22.1769 27.6003 22.9731C28.6296 23.6307 30.2594 24.7787 30.2594 24.7787C30.2594 24.7787 31.5199 25.9362 32.1635 26.814C33.1943 28.22 33.6385 29.162 34.0674 30.8518" stroke="black" stroke-width="1.03061"/>
<line x1="11.74" y1="21.4788" x2="24.1456" y2="21.5442" stroke="black" stroke-width="1.03061"/>
<path d="M18.0098 56.376L18.0098 61.8415" stroke="black" stroke-width="1.03061" stroke-linecap="round"/>
<path d="M0.704102 56.4004C0.869661 57.2165 1.12804 58.4901 1.12804 58.4901L2.02735 59.8393C2.02735 59.8393 2.76004 60.5355 3.24425 60.7652C3.72846 60.9948 4.95161 60.9428 4.95161 60.9428L6.39381 60.3291L6.93433 59.5549C6.93433 59.5549 7.26477 58.6157 7.4765 58.0139" stroke="black" stroke-width="1.03061"/>
<path d="M35.5288 55.2412C35.5288 55.2412 35.1827 57.3582 35.156 57.6999C35.1348 57.972 34.5324 58.9183 34.1161 59.3696C33.7553 59.7606 33.0018 60.1534 33.0018 60.1534C33.0018 60.1534 31.9796 60.392 31.4404 60.4373C30.8245 60.489 30.5488 60.4243 30.0775 60.1534C29.6024 59.8803 29.4276 59.5753 29.1415 59.108C28.8077 58.5627 28.5988 57.5636 28.5988 57.5636" stroke="black" stroke-width="1.03061"/>
<path d="M7.7123 62.6755C7.76314 62.9556 8.03135 63.1413 8.31137 63.0905C8.59139 63.0397 8.77718 62.7715 8.72634 62.4914L7.7123 62.6755ZM6.73322 57.2825L7.7123 62.6755L8.72634 62.4914L7.74725 57.0984L6.73322 57.2825Z" fill="black"/>
<path d="M27.2693 62.3119C27.2276 62.5934 27.422 62.8554 27.7035 62.8971C27.985 62.9388 28.2471 62.7444 28.2888 62.4629L27.2693 62.3119ZM28.1691 60.0404L27.6623 59.9472L28.1691 60.0404ZM28.6717 56.9651C28.1625 56.8863 28.1625 56.8863 28.1625 56.8863C28.1625 56.8863 28.1625 56.8864 28.1625 56.8864C28.1625 56.8864 28.1625 56.8865 28.1624 56.8867C28.1624 56.8869 28.1623 56.8873 28.1623 56.8878C28.1621 56.8888 28.1619 56.8904 28.1616 56.8924C28.1609 56.8965 28.16 56.9025 28.1588 56.9105C28.1563 56.9264 28.1526 56.9498 28.1479 56.98C28.1385 57.0404 28.1249 57.1278 28.108 57.2356C28.0743 57.4512 28.0275 57.7482 27.9754 58.074C27.8709 58.7278 27.7461 59.4909 27.6623 59.9472L28.6759 60.1335C28.7622 59.6636 28.8888 58.8891 28.9931 58.2367C29.0454 57.9095 29.0923 57.6114 29.1262 57.3951C29.1432 57.2869 29.1569 57.1992 29.1663 57.1385C29.171 57.1081 29.1747 57.0845 29.1772 57.0684C29.1784 57.0604 29.1794 57.0543 29.18 57.0502C29.1803 57.0481 29.1806 57.0465 29.1807 57.0455C29.1808 57.045 29.1809 57.0446 29.1809 57.0443C29.181 57.0442 29.181 57.0441 29.181 57.044C29.181 57.044 29.181 57.0439 29.181 57.0439C29.181 57.0439 29.181 57.0439 28.6717 56.9651ZM27.6623 59.9472C27.552 60.5475 27.4538 61.1384 27.3832 61.5787C27.3479 61.799 27.3195 61.9819 27.2999 62.1099C27.29 62.1739 27.2824 62.2242 27.2773 62.2586C27.2747 62.2758 27.2727 62.289 27.2713 62.298C27.2707 62.3025 27.2702 62.3059 27.2698 62.3082C27.2696 62.3094 27.2695 62.3103 27.2694 62.3109C27.2694 62.3112 27.2693 62.3114 27.2693 62.3116C27.2693 62.3117 27.2693 62.3117 27.2693 62.3118C27.2693 62.3118 27.2693 62.3118 27.2693 62.3118C27.2693 62.3118 27.2693 62.3119 27.779 62.3874C28.2888 62.4629 28.2888 62.4629 28.2888 62.4629C28.2888 62.4629 28.2888 62.4629 28.2888 62.4629C28.2888 62.4629 28.2888 62.4628 28.2888 62.4628C28.2888 62.4626 28.2888 62.4625 28.2889 62.4622C28.2889 62.4617 28.2891 62.4609 28.2892 62.4598C28.2895 62.4577 28.29 62.4545 28.2907 62.4502C28.2919 62.4416 28.2938 62.4288 28.2964 62.4121C28.3014 62.3786 28.3089 62.3292 28.3186 62.2661C28.3379 62.1401 28.366 61.9594 28.4009 61.7417C28.4707 61.306 28.5675 60.7234 28.6759 60.1335L27.6623 59.9472Z" fill="black"/>
</svg>
