<svg width="17" height="17" viewBox="0 0 17 17" fill="none" xmlns="http://www.w3.org/2000/svg">
<path d="M7.34463 5.16699L8.68327 7.17494L7.34463 9.1829H5.33668L3.99805 7.17494L5.33668 5.16699H7.34463Z" stroke="black" stroke-width="0.803181" stroke-linecap="round" stroke-linejoin="round"/>
<path d="M10.6913 3.15918L12.0299 5.16713L10.6913 7.17508H8.68336L7.34473 5.16713L8.68336 3.15918H10.6913Z" stroke="black" stroke-width="0.803181" stroke-linecap="round" stroke-linejoin="round"/>
<path d="M10.6914 11.1904L12.03 13.1984" stroke="black" stroke-width="0.803181" stroke-linecap="round" stroke-linejoin="round"/>
<path d="M3.99805 3.15918L5.33668 5.16713" stroke="black" stroke-width="0.803181" stroke-linecap="round" stroke-linejoin="round"/>
<path d="M8.68299 11.1904L8.01367 12.1944" stroke="black" stroke-width="0.803181" stroke-linecap="round" stroke-linejoin="round"/>
<path d="M5.33729 9.18262L4.66797 10.1866" stroke="black" stroke-width="0.803181" stroke-linecap="round" stroke-linejoin="round"/>
<path d="M3.99842 7.1748H3.3291" stroke="black" stroke-width="0.803181" stroke-linecap="round" stroke-linejoin="round"/>
<path d="M12.0298 9.18262H14.0377" stroke="black" stroke-width="0.803181" stroke-linecap="round" stroke-linejoin="round"/>
<path d="M10.6913 7.1748L12.0299 9.18276L10.6913 11.1907H8.68336L7.34473 9.18276L8.68336 7.1748H10.6913Z" stroke="black" stroke-width="0.803181" stroke-linecap="round" stroke-linejoin="round"/>
<path d="M7.34442 13.5326C7.52925 13.5326 7.67908 13.3828 7.67908 13.1979C7.67908 13.0131 7.52925 12.8633 7.34442 12.8633C7.1596 12.8633 7.00977 13.0131 7.00977 13.1979C7.00977 13.3828 7.1596 13.5326 7.34442 13.5326Z" fill="black"/>
<path d="M3.99823 11.5248C4.18306 11.5248 4.33289 11.375 4.33289 11.1901C4.33289 11.0053 4.18306 10.8555 3.99823 10.8555C3.81341 10.8555 3.66357 11.0053 3.66357 11.1901C3.66357 11.375 3.81341 11.5248 3.99823 11.5248Z" fill="black"/>
<path d="M1.99042 7.50916C2.17525 7.50916 2.32508 7.35933 2.32508 7.1745C2.32508 6.98968 2.17525 6.83984 1.99042 6.83984C1.80559 6.83984 1.65576 6.98968 1.65576 7.1745C1.65576 7.35933 1.80559 7.50916 1.99042 7.50916Z" fill="black"/>
</svg>
