<svg width="19" height="18" viewBox="0 0 19 18" fill="none" xmlns="http://www.w3.org/2000/svg">
<path d="M6.83827 13.096C6.83827 13.096 5.8912 10.1052 7.6275 8.30245C8.36663 7.68749 9.17856 7.16573 10.045 6.74892C10.0439 5.99274 10.2586 5.25196 10.664 4.61366C11.0695 3.97536 11.6487 3.46608 12.3337 3.14572C13.0186 2.82535 13.7808 2.70721 14.5306 2.80519C15.2804 2.90317 15.9867 3.21319 16.5663 3.69881C17.1459 4.18442 17.5749 4.82543 17.8027 5.54648C18.0305 6.26753 18.0477 7.03862 17.8522 7.76911C17.6568 8.49959 17.2569 9.15909 16.6995 9.67006C16.142 10.181 15.4503 10.5222 14.7056 10.6535C13.1853 12.9547 9.86226 17.0587 5.29304 17.0587C2.8672 17.0587 0.491211 9.96399 0.491211 6.74892V2.88585C0.492657 2.40614 0.677672 1.94517 1.00828 1.59757C1.33889 1.24996 1.79001 1.0421 2.26905 1.01663C3.70628 0.941857 5.59212 1.01663 6.04073 1.98862C6.72196 3.40923 5.25151 5.95969 3.66474 5.95969C3.66474 7.20584 5.18504 9.91414 6.56412 11.4095" stroke="black" stroke-width="0.803181" stroke-miterlimit="10"/>
</svg>
