<svg width="47" height="46" viewBox="0 0 47 46" fill="none" xmlns="http://www.w3.org/2000/svg">
<g filter="url(#filter0_d_296_386)">
<rect x="4.27734" y="0.273438" width="37.7695" height="37.4752" rx="10.9303" fill="#F8FFF2"/>
<path d="M22.8945 10.4219C20.9863 10.4219 19.406 11.8867 19.1274 13.7986C19.0986 13.9955 19.084 14.1977 19.084 14.4024C19.084 14.4862 19.0876 14.5686 19.092 14.6506C19.0986 14.7708 19.1101 14.8893 19.1274 15.0066C19.1304 15.0423 19.1333 15.0777 19.1364 15.1133C19.3769 17.8114 20.9673 19.896 22.8946 19.896C24.8221 19.896 26.4126 17.8114 26.6528 15.1133C26.6565 15.0777 26.6593 15.0423 26.6623 15.0066C26.6794 14.8893 26.6908 14.7708 26.6978 14.6506C26.7023 14.5686 26.7057 14.4861 26.7057 14.4024C26.7057 14.1977 26.6913 13.9955 26.6623 13.7986C26.3833 11.8867 24.8025 10.4219 22.8946 10.4219H22.8945ZM26.192 15.1437C25.9737 17.5003 24.5811 19.3174 22.8945 19.3174C21.2081 19.3174 19.8156 17.5003 19.5971 15.1437C19.7452 15.1803 19.9274 15.2515 20.1255 15.3889C20.1255 15.3889 19.7493 13.1712 20.5442 12.8604C20.5442 12.8604 21.6408 13.3888 22.8947 13.4229C24.1486 13.3888 25.2454 12.8604 25.2454 12.8604C26.0404 13.1714 25.6636 15.3889 25.6636 15.3889C25.8617 15.2517 26.0436 15.1806 26.192 15.1439V15.1437Z" fill="#01a809"/>
<path d="M18.6192 27.0913C18.6177 27.0656 18.6152 27.0399 18.6152 27.0139C18.6152 26.6497 18.7582 26.3071 19.0179 26.0494L19.8479 25.2258C20.1076 24.9686 20.4524 24.8272 20.8195 24.8272C21.1866 24.8272 21.5313 24.9686 21.7916 25.2266L22.2713 25.7025L23.9955 23.9917C24.255 23.7347 24.6002 23.5928 24.9674 23.5928C25.3342 23.5928 25.6799 23.7347 25.939 23.9922L26.7687 24.8153C27.3044 25.3471 27.3044 26.2124 26.7687 26.7442L26.3965 27.1135C28.7485 27.0842 30.5327 26.8166 30.5327 24.3609C30.5327 21.8338 28.6455 19.7443 26.1924 19.406C26.184 19.4045 26.1746 19.4043 26.1665 19.4025C26.0961 19.3936 26.0256 19.3853 25.9543 19.3789C25.9539 19.3858 25.9513 19.3931 25.9513 19.4001C25.9507 19.4208 25.9468 19.4408 25.9444 19.4619C25.9316 19.5791 25.8961 19.6927 25.8411 19.8025C25.4709 20.7276 24.2717 22.4817 23.5663 23.4771L23.4204 21.4086C23.6267 21.3043 23.8041 21.1302 23.9175 20.929C23.9997 20.7841 24.0493 20.6261 24.0493 20.4644C24.0493 20.4644 23.5226 20.6959 22.9851 20.6959C22.9543 20.6959 22.9237 20.6957 22.893 20.6939C22.8622 20.6956 22.8317 20.6959 22.8009 20.6959C22.2634 20.6959 21.7367 20.4644 21.7367 20.4644C21.7367 20.626 21.7869 20.7839 21.8687 20.929C21.9822 21.1302 22.1602 21.3038 22.366 21.4086L22.2205 23.4771C21.5146 22.4814 20.3159 20.7276 19.9454 19.8025C19.8903 19.6927 19.8552 19.5791 19.8419 19.4619C19.8393 19.441 19.8359 19.4208 19.835 19.4001C19.8348 19.3931 19.8324 19.3858 19.8324 19.3789C19.7611 19.3853 19.6908 19.3934 19.6202 19.4025C19.6113 19.4042 19.6022 19.4045 19.5939 19.406C17.141 19.7445 15.2539 21.8337 15.2539 24.3609C15.2539 26.54 16.6591 26.9957 18.6192 27.0914L18.6192 27.0913Z" fill="#01a809"/>
<path d="M25.2767 24.6472C25.1909 24.5621 25.0783 24.5195 24.9659 24.5195C24.8532 24.5195 24.7406 24.562 24.6549 24.6472L22.2696 27.0132L21.1291 25.8818C21.0431 25.7968 20.9307 25.7541 20.8181 25.7541C20.7056 25.7541 20.593 25.7967 20.5072 25.8818L19.6777 26.7049C19.5059 26.8753 19.5059 27.1518 19.6777 27.3219L21.1295 28.7625L21.9589 29.5855C22.0445 29.6709 22.1573 29.7133 22.2699 29.7133C22.3825 29.7133 22.495 29.6709 22.5809 29.5853L26.1062 26.0875C26.2782 25.9169 26.2782 25.6406 26.1062 25.4701L25.2767 24.6472Z" fill="#01a809"/>
</g>
<defs>
<filter id="filter0_d_296_386" x="0.277344" y="0.273438" width="45.7695" height="45.4766" filterUnits="userSpaceOnUse" color-interpolation-filters="sRGB">
<feFlood flood-opacity="0" result="BackgroundImageFix"/>
<feColorMatrix in="SourceAlpha" type="matrix" values="0 0 0 0 0 0 0 0 0 0 0 0 0 0 0 0 0 0 127 0" result="hardAlpha"/>
<feOffset dy="4"/>
<feGaussianBlur stdDeviation="2"/>
<feComposite in2="hardAlpha" operator="out"/>
<feColorMatrix type="matrix" values="0 0 0 0 0 0 0 0 0 0 0 0 0 0 0 0 0 0 0.25 0"/>
<feBlend mode="normal" in2="BackgroundImageFix" result="effect1_dropShadow_296_386"/>
<feBlend mode="normal" in="SourceGraphic" in2="effect1_dropShadow_296_386" result="shape"/>
</filter>
</defs>
</svg>
