<svg width="40" height="59" viewBox="0 0 40 59" fill="none" xmlns="http://www.w3.org/2000/svg">
<path d="M27.0992 6.35265C27.0992 7.98348 26.3229 10.4267 25.0335 12.4687C23.7289 14.5347 22.032 15.9884 20.2899 15.9884C18.5478 15.9884 16.8509 14.5347 15.5464 12.4687C14.257 10.4267 13.4806 7.98348 13.4806 6.35265C13.4806 3.19521 16.4579 0.515307 20.2899 0.515307C24.1219 0.515307 27.0992 3.19521 27.0992 6.35265Z" stroke="black" stroke-width="1.03061"/>
<line y1="-0.515307" x2="25.1967" y2="-0.515307" transform="matrix(0.0759909 -0.997109 0.998361 0.0572335 1.25 53.2861)" stroke="black" stroke-width="1.03061"/>
<path d="M13.3919 18.5656C13.3919 18.5656 10.939 19.304 9.4959 20.0044C8.14758 20.6588 7.35729 21.0335 6.25466 21.9722C5.13891 22.9221 4.62802 23.5812 3.90475 24.7833C3.13062 26.0701 2.53979 28.3062 2.53979 28.3062" stroke="black" stroke-width="1.03061"/>
<path d="M11.1257 28.6447C11.2061 28.3702 11.0484 28.0922 10.7735 28.0238C10.4987 27.9553 10.2108 28.1223 10.1305 28.3967L11.1257 28.6447ZM9.60916 32.3125L10.1143 32.4077L9.60916 32.3125ZM8.33768 40.5745L8.85018 40.6318L8.85206 40.6195L8.85336 40.6072L8.33768 40.5745ZM7.40167 46.6521L6.88918 46.5948L7.40167 46.6521ZM10.1143 32.4077C10.2844 31.6739 10.5366 30.7349 10.7478 29.9746C10.8531 29.5955 10.9477 29.2627 11.0159 29.0247C11.05 28.9058 11.0775 28.8106 11.0965 28.7452C11.106 28.7125 11.1133 28.6873 11.1183 28.6703C11.1207 28.6618 11.1226 28.6553 11.1239 28.651C11.1245 28.6489 11.125 28.6472 11.1253 28.6462C11.1254 28.6457 11.1256 28.6453 11.1256 28.645C11.1257 28.6449 11.1257 28.6448 11.1257 28.6447C11.1257 28.6447 11.1257 28.6447 11.1257 28.6447C11.1257 28.6447 11.1257 28.6447 10.6281 28.5207C10.1305 28.3967 10.1305 28.3967 10.1304 28.3967C10.1304 28.3967 10.1304 28.3968 10.1304 28.3968C10.1304 28.3969 10.1304 28.397 10.1303 28.3972C10.1302 28.3975 10.1301 28.3979 10.1299 28.3985C10.1296 28.3997 10.1291 28.4014 10.1284 28.4036C10.1271 28.4081 10.1252 28.4148 10.1226 28.4235C10.1176 28.4409 10.1101 28.4666 10.1005 28.4997C10.0813 28.566 10.0535 28.6622 10.019 28.7823C9.95018 29.0224 9.85479 29.358 9.74855 29.7405C9.53662 30.5035 9.27936 31.4604 9.10399 32.2173L10.1143 32.4077ZM8.33768 40.5745C8.85336 40.6072 8.85336 40.6072 8.85336 40.6072C8.85336 40.6071 8.85336 40.6071 8.85337 40.607C8.85338 40.6069 8.85341 40.6067 8.85344 40.6064C8.8535 40.6059 8.85359 40.605 8.85371 40.6038C8.85396 40.6015 8.85433 40.5979 8.85484 40.5932C8.85584 40.5837 8.85736 40.5695 8.85937 40.5508C8.8634 40.5133 8.86942 40.4578 8.87736 40.3858C8.89324 40.2419 8.91679 40.0325 8.94736 39.7711C9.00852 39.2482 9.09774 38.5177 9.20996 37.6881C9.435 36.0245 9.75031 33.9787 10.1143 32.4077L9.10399 32.2173C8.72853 33.8376 8.4081 35.9229 8.18226 37.5924C8.06904 38.4294 7.97905 39.1661 7.91735 39.6937C7.8865 39.9575 7.8627 40.1691 7.8466 40.315C7.83855 40.388 7.83242 40.4445 7.8283 40.4828C7.82623 40.502 7.82467 40.5167 7.82362 40.5266C7.82309 40.5316 7.82269 40.5353 7.82242 40.5379C7.82229 40.5392 7.82219 40.5401 7.82212 40.5408C7.82208 40.5411 7.82205 40.5414 7.82204 40.5416C7.82203 40.5417 7.82202 40.5417 7.82201 40.5418C7.82201 40.5418 7.822 40.5419 8.33768 40.5745ZM6.97817 52.7868L7.91417 46.7093L6.88918 46.5948L5.95317 52.6723L6.97817 52.7868ZM7.91417 46.7093L8.85018 40.6318L7.82518 40.5173L6.88918 46.5948L7.91417 46.7093Z" fill="black"/>
<line y1="-0.515307" x2="24.9938" y2="-0.515307" transform="matrix(-0.0758294 -0.997121 0.998368 -0.0571115 39.9023 52.7939)" stroke="black" stroke-width="1.03061"/>
<path d="M33.5952 53.4932C33.0631 48.7974 32.7648 46.1647 32.2327 41.4689C31.8583 38.1349 31.9839 36.2249 31.2801 32.9312C30.8929 31.1194 30.0348 28.3379 30.0348 28.3379" stroke="black" stroke-width="1.03061" stroke-linecap="round"/>
<path d="M27.0077 18.58C28.5316 19.1968 29.4928 19.3742 30.9101 20.1594C32.0806 20.808 33.6817 22.0926 33.6817 22.0926C33.6817 22.0926 35.3041 23.6088 36.0306 24.7572C36.806 25.9829 37.1219 26.7559 37.4097 28.1316" stroke="black" stroke-width="1.03061"/>
<line y1="-0.515307" x2="14.1068" y2="-0.515307" transform="matrix(0.99999 0.00457127 -0.00607701 0.999982 13.1572 19.0908)" stroke="black" stroke-width="1.03061"/>
<path d="M10.5955 28.6328C10.5955 28.6328 11.3658 31.4341 11.596 33.3428C11.8646 35.5704 12.0422 36.1972 12.1444 38.4351C12.2353 40.4233 12.0269 41.9455 11.9361 43.9336C11.8338 46.1716 11.1122 48.1103 10.9101 50.3431C10.6089 53.6699 10.9101 54.8386 10.9101 58.3917" stroke="black" stroke-width="1.03061" stroke-linecap="round"/>
<path d="M29.96 28.6309C29.96 28.6309 28.9133 30.8006 28.5156 32.2595C27.9333 34.3958 27.9683 35.665 27.965 37.8601C27.9617 40.089 28.3147 41.3255 28.5156 43.5476C28.6597 45.1408 28.6718 46.0393 28.866 47.6286C29.1201 49.7078 29.5888 50.8401 29.7671 52.9253C29.9492 55.0557 29.7671 58.3956 29.7671 58.3956" stroke="black" stroke-width="1.03061" stroke-linecap="round"/>
<path d="M20.29 53.001L20.29 58.3913" stroke="black" stroke-width="1.03061" stroke-linecap="round"/>
<path d="M0.709275 52.7432C0.709275 52.7432 0.613032 53.2812 0.709952 53.6085C0.787143 53.8692 0.886788 54.0033 1.05579 54.229C1.41323 54.7064 1.7189 54.9535 2.31192 55.1974C2.86253 55.4239 3.24035 55.4877 3.8472 55.4395C4.54031 55.3844 4.94494 55.2127 5.48715 54.8342C5.88674 54.5553 5.89143 54.4764 6.10179 54.0707C6.3556 53.5811 6.47712 52.5885 6.47712 52.5885" stroke="black" stroke-width="1.03061"/>
<path d="M39.3129 52.5424C39.3129 52.5424 39.4021 53.1478 39.3718 53.4848C39.3476 53.7532 39.3473 53.9678 39.2248 54.2157C38.9657 54.7401 38.7116 55.0298 38.1711 55.36C37.6693 55.6666 37.3065 55.7868 36.6933 55.8314C35.9929 55.8825 35.5559 55.7748 34.9403 55.4845C34.4867 55.2705 34.4661 55.1936 34.175 54.826C33.8238 54.3825 33.5579 53.3029 33.5579 53.3029" stroke="black" stroke-width="1.03061"/>
</svg>
