<svg width="39" height="38" viewBox="0 0 39 38" fill="none" xmlns="http://www.w3.org/2000/svg">
<path d="M0.736328 11.2027C0.736328 5.16611 5.62998 0.272461 11.6666 0.272461H27.5756C33.6122 0.272461 38.5058 5.16611 38.5058 11.2027V26.8174C38.5058 32.854 33.6122 37.7477 27.5756 37.7477H11.6666C5.62997 37.7477 0.736328 32.854 0.736328 26.8174V11.2027Z" fill="#FFF9F9"/>
<g clip-path="url(#clip0_141_1947)">
<path d="M19.3526 19.2587C17.0299 19.2587 14.9805 17.2776 14.9805 14.7305C14.9805 12.1834 16.8933 10.3438 19.3526 10.3438C21.6753 10.3438 23.7247 12.3249 23.7247 14.872C23.7247 17.4191 21.6753 19.2587 19.3526 19.2587ZM19.3526 11.3343C17.5764 11.3343 16.0735 12.8909 16.0735 14.7305C16.0735 16.5701 17.4398 18.1267 19.3526 18.1267C21.2654 18.1267 22.6317 16.5701 22.6317 14.7305C22.6317 12.8909 21.1287 11.3343 19.3526 11.3343Z" fill="#D72822"/>
<path d="M26.1841 27.1839C26.1841 22.5142 23.0417 18.835 19.2161 18.835C15.3905 18.835 12.248 22.5142 12.248 27.1839H26.1841Z" fill="#F4B1B2"/>
<path d="M26.1837 27.75H11.5645V27.184C11.5645 22.2312 14.9802 18.269 19.079 18.269C23.1779 18.269 26.5936 22.2312 26.5936 27.0425V27.6085L26.1837 27.75ZM12.6575 26.618H25.6372C25.5005 22.6557 22.6314 19.401 19.2156 19.401C15.6633 19.401 12.9307 22.6557 12.6575 26.618ZM23.5877 19.118C23.3145 19.118 23.0412 18.835 23.0412 18.552C23.0412 18.269 23.3145 17.986 23.5877 17.986C24.954 17.986 26.1837 16.8539 26.1837 15.2973C26.1837 14.1653 25.5005 13.1747 24.4075 12.7502C24.1343 12.6087 23.9976 12.3256 24.1343 12.0426C24.2709 11.7596 24.5441 11.6181 24.8174 11.7596C26.3203 12.1841 27.2767 13.5992 27.2767 15.2973C27.1401 17.4199 25.5005 19.118 23.5877 19.118Z" fill="#D72822"/>
<path d="M29.0526 25.9099H27.8229C27.5497 25.9099 27.2764 25.6269 27.2764 25.3439C27.2764 25.0608 27.5497 24.7778 27.8229 24.7778H28.5061C28.2328 21.6647 26.0467 19.259 23.4508 19.259C23.1776 19.259 22.9043 18.976 22.9043 18.693C22.9043 18.41 23.1776 18.127 23.4508 18.127C26.8665 18.127 29.5991 21.3816 29.5991 25.3439V25.9099H29.0526Z" fill="#D72822"/>
<path d="M14.8434 19.1171C14.7067 19.1171 14.7067 19.1171 14.8434 19.1171C13.887 19.1171 12.9306 18.8341 12.2474 18.1266C11.5643 17.4191 11.291 16.4285 11.291 15.4379C11.291 13.8814 12.2474 12.4663 13.7503 11.9002C14.0236 11.7587 14.2968 11.9002 14.4335 12.1833C14.5701 12.4663 14.4335 12.7493 14.1602 12.8908C12.9306 13.3153 12.2474 14.3059 12.2474 15.4379C12.2474 16.1455 12.5207 16.853 12.9306 17.2775C13.3404 17.8436 14.0236 17.9851 14.7067 18.1266C15.1166 18.1266 15.2532 18.4096 15.2532 18.6926C15.2532 18.9756 15.1166 19.1171 14.8434 19.1171Z" fill="#D72822"/>
<path d="M10.3349 25.91H8.69531V25.344C8.69531 21.3817 11.4279 18.2686 14.8436 18.2686C15.1168 18.2686 15.3901 18.5516 15.3901 18.8346C15.3901 19.1176 15.1168 19.4006 14.8436 19.4006C12.2476 19.4006 10.0616 21.8063 9.78834 24.9194H10.4715C10.7447 24.9194 11.018 25.2024 11.018 25.4855C10.8814 25.627 10.7447 25.91 10.3349 25.91Z" fill="#D72822"/>
</g>
<defs>
<clipPath id="clip0_141_1947">
<rect width="21.8605" height="22.6413" fill="white" transform="translate(8.42188 8.08008)"/>
</clipPath>
</defs>
</svg>
