<svg width="17" height="17" viewBox="0 0 17 17" fill="none" xmlns="http://www.w3.org/2000/svg">
<path d="M11.09 4.52832H13.7003C13.9221 4.52832 14.1019 4.70812 14.1019 4.92991V14.8358C14.1019 15.0576 13.9221 15.2374 13.7003 15.2374H2.45579C2.234 15.2374 2.0542 15.0576 2.0542 14.8358V4.92991C2.0542 4.70812 2.234 4.52832 2.45579 4.52832H5.06613" stroke="black" stroke-width="1.20477" stroke-linecap="round" stroke-linejoin="round"/>
<path d="M10.9409 5.41687L11.0781 4.5935C11.0854 4.54979 11.0854 4.50518 11.0781 4.46146L10.9409 3.63809C10.8333 2.99262 10.2748 2.51953 9.62043 2.51953H6.53391C5.87954 2.51953 5.32107 2.99262 5.21349 3.63809L5.07626 4.46146C5.06898 4.50518 5.06898 4.54979 5.07626 4.5935L5.21349 5.41687C5.32107 6.06234 5.87954 6.53544 6.53391 6.53544H9.62043C10.2748 6.53544 10.8333 6.06234 10.9409 5.41687Z" stroke="black" stroke-width="1.20477" stroke-linecap="round" stroke-linejoin="round"/>
<path d="M8.0785 6.53657L7.40918 4.86328" stroke="black" stroke-width="1.20477" stroke-linecap="round" stroke-linejoin="round"/>
<path d="M4.73145 12.5596H11.4246" stroke="black" stroke-width="1.20477" stroke-linecap="round" stroke-linejoin="round"/>
</svg>
