<svg width="67" height="68" viewBox="0 0 67 68" fill="none" xmlns="http://www.w3.org/2000/svg">
<circle cx="33.6289" cy="34.0542" r="33.2988" fill="#90C844" fill-opacity="0.1"/>
<g clip-path="url(#clip0_141_1950)">
<path d="M26.1309 29.5229C26.1309 27.6001 26.921 25.7561 28.3276 24.3964C29.7341 23.0368 31.6417 22.2729 33.6309 22.2729C35.62 22.2729 37.5276 23.0368 38.9342 24.3964C40.3407 25.7561 41.1309 27.6001 41.1309 29.5229C41.1309 31.4458 40.3407 33.2898 38.9342 34.6495C37.5276 36.0091 35.62 36.7729 33.6309 36.7729C31.6417 36.7729 29.7341 36.0091 28.3276 34.6495C26.921 33.2898 26.1309 31.4458 26.1309 29.5229ZM41.5879 23.1792C39.6953 20.9646 36.8359 19.5542 33.6309 19.5542C30.4258 19.5542 27.5664 20.9646 25.6738 23.1792H22.3809C20.3125 23.1792 18.6309 24.8048 18.6309 26.8042V44.9292C18.6309 46.9286 20.3125 48.5542 22.3809 48.5542H44.8809C46.9492 48.5542 48.6309 46.9286 48.6309 44.9292V26.8042C48.6309 24.8048 46.9492 23.1792 44.8809 23.1792H41.5879ZM35.9746 32.2417C35.9746 31.6413 35.7344 31.0976 35.3359 30.6897L37.3047 26.2548C37.5098 25.796 37.2871 25.2636 36.8125 25.0653C36.3379 24.8671 35.7871 25.0823 35.582 25.5411L33.6133 29.9761C32.3242 29.9817 31.2871 30.9956 31.2871 32.2417C31.2871 33.4935 32.3359 34.5073 33.6309 34.5073C34.9258 34.5073 35.9746 33.4935 35.9746 32.2417Z" fill="#01a809"/>
</g>
<defs>
<clipPath id="clip0_141_1950">
<rect width="30" height="29" fill="white" transform="translate(18.6309 19.5542)"/>
</clipPath>
</defs>
</svg>
