<svg width="31" height="51" viewBox="0 0 31 51" fill="none" xmlns="http://www.w3.org/2000/svg">
<path d="M30.3152 48.4642L30.0647 48.049L29.3982 46.7159L29.0662 45.9115C28.8833 45.4729 28.6129 44.6443 28.4603 44.0635L28.1751 42.9827L28.0009 42.4557C27.8952 42.1384 27.558 41.5577 27.2356 41.1312L26.2102 39.8224C25.9735 39.5277 25.5869 38.7155 25.3694 38.0446C25.1406 37.3434 24.8814 36.3397 24.7878 35.8058C24.6898 35.2267 24.4532 34.4163 24.2512 33.963L23.7069 32.7894C23.6419 32.6568 23.5483 32.2676 23.5483 31.9382L23.5448 31.5412C23.5535 31.5057 23.5509 31.4727 23.5483 31.4476V31.3072C23.3385 28.8299 21.7809 26.2305 21.4628 25.8604C21.2262 25.5839 21.1794 24.8306 21.1369 24.1563C21.1057 23.657 20.9367 22.6351 20.7859 21.7336L20.7711 21.6461C20.6749 21.0645 20.5822 20.5149 20.5631 20.3C20.5128 19.7366 20.2545 18.5292 19.7466 17.515C19.4762 16.9733 19.2083 15.9765 18.9526 14.5489L18.9336 14.444C18.892 14.2178 18.9128 12.9515 18.9405 12.1202L18.9379 11.0584C18.9379 10.4733 18.8772 9.64557 18.8027 9.21132L18.6692 8.43642C18.6657 8.42689 18.4265 7.4561 18.3832 7.22467C18.3372 6.98024 18.3 6.64566 18.3 6.47924C18.3 6.29548 18.339 5.83089 18.3875 5.44171L18.4776 4.69541L18.6077 2.94279L18.6727 2.34645C18.7169 1.95813 18.6389 1.36439 18.4958 0.994278C18.3442 0.597294 18.0599 0.553955 17.9446 0.553955C17.7461 0.553955 17.467 0.661435 17.2711 1.17197L16.9989 1.89226L16.5794 2.75383C16.3523 3.21756 15.9588 3.89885 15.7014 4.27329C15.3573 4.77429 15.2082 5.43824 15.346 5.85083C15.4699 6.22267 15.8383 6.6864 16.2024 6.9291C16.2804 6.98717 16.5473 7.59738 16.5976 8.57857L16.5985 9.74959C16.5811 9.91601 16.4225 11.4242 15.9909 12.9549C15.4613 14.8419 16.341 16.9196 16.725 17.5618C17.0483 18.0992 17.0735 18.3194 17.194 19.3829C17.2174 19.5944 17.246 19.8371 17.2806 20.1188C17.4627 21.6227 17.3179 25.3689 17.2832 26.1897C16.4407 27.405 16.7302 28.4226 16.9036 29.0319C16.9426 29.1688 16.992 29.3387 16.9877 29.4003C16.9669 29.7305 16.7259 29.9697 16.7285 29.9697C15.8608 30.5687 15.0695 31.1434 14.181 32.1202C13.518 32.8483 12.6104 34.1155 12.1562 34.945C11.4394 36.2556 11.2427 37.2021 11.0988 37.8921C11.0632 38.0611 11.032 38.2137 10.9956 38.3471C10.7815 39.1515 10.4608 40.0686 10.0448 41.2014C9.64693 42.2797 9.02285 43.3718 8.9301 43.4611C8.84863 43.514 8.76628 43.6076 8.59813 43.8096C8.4109 44.0332 8.098 44.4068 7.8865 44.4865C7.63601 44.5801 7.38811 44.8298 7.10727 45.2718C7.00933 45.4278 6.89231 45.6281 6.76663 45.843L6.72502 45.9132C6.54473 46.2244 6.32024 46.6145 6.13822 46.8762C5.79497 47.3738 5.66669 47.5038 5.63722 47.5315C5.49594 47.587 5.36072 47.7213 5.26971 47.8262C5.23504 47.8669 4.99321 48.0134 4.6855 48.055C4.32752 48.1027 3.82826 48.1851 3.56562 48.2535C3.26919 48.3298 2.90948 48.4841 2.73699 48.5872L2.19265 48.8871C2.06523 48.9513 1.84421 49.0293 1.72459 49.0518L1.23746 49.1333C0.918489 49.1749 0.428761 49.5459 0.407958 49.5598C0.0820502 49.8103 0.10632 50.0651 0.150526 50.1934C0.195598 50.3286 0.340349 50.554 0.804075 50.554H4.53901C4.80512 50.554 5.12322 50.4031 5.31305 50.1882C5.41186 50.0738 5.65022 49.8666 5.83225 49.7331C6.003 49.6074 6.18589 49.5398 6.21103 49.5364C6.44939 49.5364 6.7779 49.3717 6.99719 49.2061C7.20175 49.0518 7.61781 48.6765 7.94198 48.3515L8.51145 47.7837L10.0786 46.0745L10.5414 45.5102C10.5952 45.446 10.6437 45.3854 10.6897 45.3334C10.8171 45.4963 10.9462 45.6229 11.0884 45.7251C11.4472 45.9817 11.8823 46.1169 12.3469 46.1169C13.2692 46.1169 14.2226 45.5856 14.8355 44.7275C15.795 43.3866 15.6754 41.6504 14.5676 40.8582C14.5139 40.8192 14.4575 40.7889 14.4021 40.762C14.5694 40.495 14.6682 40.2983 14.6942 40.176C14.721 40.0495 14.9421 39.7609 15.0279 39.6499C15.1874 39.441 15.313 39.3058 15.3269 39.2937C15.3451 39.2824 15.4223 39.2555 15.4769 39.2521L15.4881 39.2486C15.736 39.3058 15.9597 39.3093 16.2466 39.2807C16.8455 39.2269 17.4739 38.6548 17.5909 38.0568C17.6343 37.8331 17.6481 37.6269 17.6369 37.4119L18.2696 36.7531C18.3832 36.6379 18.5288 36.4558 18.6059 36.3319C18.6909 36.1958 18.781 35.9488 18.8235 35.7425C18.859 35.5665 18.8928 35.2606 18.9024 35.0465C18.9058 34.9563 18.9171 34.8384 18.9318 34.7232C19.0393 34.8722 19.2057 35.1219 19.3436 35.3429C19.5126 35.6125 19.7717 35.9895 19.9191 36.1559L20.1271 36.3908L20.5744 36.9646C20.7217 37.1527 21.0823 37.5991 21.2279 37.6997C21.2461 37.7187 21.3432 37.8687 21.4238 38.0698C21.5209 38.3142 21.6969 38.6878 21.826 38.9201L22.2793 39.7288C22.418 39.9732 22.6841 40.378 22.8705 40.6285L23.192 41.0645L23.7199 41.8403L24.6162 43.4117L25.3893 44.6157L25.9822 45.4894L26.3367 46.1195L26.8741 47.1501C26.914 47.2229 26.9738 47.3547 27.0093 47.4466C27.0431 47.5341 27.0856 47.6797 27.1055 47.7621C27.1194 47.8175 27.1315 47.8869 27.1419 47.9441C27.0639 47.997 26.9166 48.081 26.8065 48.1374L26.5595 48.2613L25.7612 48.5916L24.5641 49.0241C24.5225 49.0371 24.4766 49.0484 24.4107 49.0657C24.2348 49.1116 24.0536 49.1593 23.9245 49.2642C23.8005 49.363 23.7424 49.5052 23.7615 49.6525C23.7823 49.8207 23.8967 49.9533 24.0978 50.0434L24.4081 50.1838C24.6708 50.3043 25.3174 50.3589 25.8054 50.3589H28.4932C28.7958 50.3589 29.243 50.326 29.5134 50.2835C29.7995 50.2384 30.1895 50.0885 30.369 49.8657C30.4946 49.7097 30.6194 49.4584 30.6194 49.2512C30.622 48.9721 30.3282 48.4858 30.3152 48.4642ZM17.3621 17.1779C16.8949 16.3917 16.2994 14.6053 16.7068 13.1578C17.1896 11.4433 17.3396 9.80593 17.3413 9.78166V8.73199C17.3422 8.71899 17.3569 8.42775 17.3404 8.25786L17.2711 7.73693C17.1792 7.21166 16.9911 6.53471 16.6262 6.29288C16.4061 6.14466 16.1408 5.81702 16.0706 5.6064C16.0316 5.48765 16.0879 5.06293 16.3306 4.70755C16.6063 4.3071 17.0267 3.58074 17.2668 3.08841L17.701 2.1965L17.8856 1.7111C17.9151 1.91046 17.9272 2.11675 17.9099 2.2589L17.8423 2.86912L17.7123 4.62087L17.6239 5.3507C17.5701 5.79882 17.5329 6.27295 17.5329 6.47924C17.5329 6.69333 17.5736 7.07558 17.6256 7.36682C17.6438 7.46043 17.6967 7.66846 17.766 7.92242C17.8527 8.24053 17.981 8.84034 18.0555 9.25899L18.1249 9.65944C18.1639 9.87527 18.1942 10.5106 18.1942 11.0766V12.1081C18.1777 12.5952 18.1318 14.2126 18.1994 14.5793L18.2193 14.6902C18.3199 15.2467 18.6259 16.9395 19.0792 17.8479C19.5394 18.7701 19.7761 19.8588 19.8203 20.3659C19.842 20.6146 19.9356 21.1659 20.0422 21.809L20.0482 21.8394C20.1878 22.6854 20.3638 23.7368 20.3915 24.2005C20.4054 24.4154 20.4192 24.6408 20.4409 24.8584C19.5091 24.6495 18.6874 24.7882 18.0607 25.2536C18.1119 23.7272 18.1639 21.2413 18.0165 20.0278C17.9827 19.747 17.955 19.5043 17.9298 19.2945C17.805 18.1894 17.7678 17.8548 17.3621 17.1779ZM14.7202 42.7036C14.741 43.2384 14.5607 43.8026 14.2122 44.2898C13.7381 44.952 13.0248 45.362 12.3487 45.362C12.0418 45.362 11.7575 45.2727 11.527 45.1089C11.4065 45.0222 11.3016 44.9104 11.2063 44.7656C11.4152 44.529 11.7766 44.0982 12.2369 43.5374L13.4772 42.0301C13.6376 41.8359 13.8057 41.6175 13.9678 41.3973C14.0215 41.4225 14.0727 41.4511 14.1204 41.484C14.4861 41.7449 14.6994 42.1783 14.7202 42.7036ZM14.4532 39.174L14.4324 39.1992C14.227 39.4688 14.0207 39.7565 13.9652 40.0166C13.9522 40.059 13.8551 40.2445 13.6402 40.567L13.2839 41.0662C13.1678 41.2231 13.0412 41.3861 12.9017 41.5551L11.6622 43.0624C11.2791 43.5287 10.9748 43.8893 10.7807 44.1164L10.3499 44.5801C10.2251 44.7206 10.0699 44.9069 9.96157 45.0378L9.51344 45.5847L7.96798 47.268L7.41151 47.8253C7.11594 48.1218 6.71896 48.4815 6.5456 48.6124C6.39392 48.7251 6.22576 48.7866 6.20236 48.7918C5.964 48.7918 5.62249 48.9626 5.39019 49.1324C5.16829 49.2954 4.88833 49.5424 4.75138 49.6958C4.69764 49.7565 4.57369 49.8103 4.53555 49.8103H1.71159L1.86414 49.7851C2.0531 49.7479 2.33654 49.649 2.52636 49.552L3.11577 49.2304C3.24058 49.155 3.53702 49.031 3.74938 48.9764C3.97908 48.9184 4.45494 48.8377 4.78258 48.7944C5.20037 48.7389 5.64242 48.5361 5.83311 48.3125C5.90245 48.2319 5.93972 48.2128 5.93972 48.2128C6.07668 48.1599 6.22403 48.0602 6.75016 47.3018C6.94779 47.0158 7.16188 46.6448 7.36904 46.2877L7.40804 46.2201C7.52853 46.0146 7.64034 45.8205 7.73395 45.6731C8.00525 45.2467 8.1448 45.186 8.14654 45.186C8.54439 45.0352 8.90497 44.6035 9.16847 44.288C9.30368 44.1251 9.34962 44.0765 9.35742 44.0696C9.67727 43.8564 10.4184 42.3386 10.7425 41.4563C11.1647 40.3121 11.4914 39.3769 11.7151 38.5387C11.7532 38.394 11.787 38.2327 11.8269 38.0429C11.8555 37.9025 11.8884 37.7508 11.9266 37.5887C12.8384 38.5144 13.856 38.9496 14.4757 39.1446C14.4671 39.1558 14.4593 39.1654 14.4532 39.174ZM16.9149 37.4778C16.8975 37.6164 16.881 37.7742 16.8542 37.9181C16.7996 38.2024 16.4563 38.5162 16.1772 38.5439C15.8635 38.5716 15.6095 38.5344 15.5055 38.5188C15.4743 38.5144 15.4526 38.5118 15.437 38.5118H15.4353C15.3599 38.5162 15.2732 38.5309 15.1882 38.556C15.0045 38.5231 13.3827 38.1981 12.1684 36.7436C12.3348 36.2573 12.5446 35.7867 12.8081 35.3039C12.8947 35.147 12.9996 34.9693 13.1227 34.7752C14.3527 36.1317 16.1339 36.7965 16.9868 37.0522C16.9539 37.1415 16.9365 37.2775 16.9149 37.4778ZM18.2462 34.3002C18.2011 34.4917 18.1587 34.8081 18.1526 35.0213C18.1448 35.2007 18.1171 35.4668 18.0885 35.6003C18.0642 35.7295 17.9992 35.8933 17.9671 35.9436C17.922 36.0155 17.8146 36.1533 17.7357 36.2313L17.5441 36.4298C16.9816 36.2859 14.832 35.6532 13.5509 34.1294C13.9487 33.5591 14.3856 33 14.7288 32.623C15.6208 31.6426 16.4381 31.074 17.1627 30.58C18.2601 31.6496 18.4213 33.3467 18.4447 33.9222C18.3502 34.0185 18.2818 34.1485 18.2462 34.3002ZM19.1797 33.7532C19.1095 32.9307 18.7394 31.0905 17.6135 29.9307C17.6793 29.7695 17.7166 29.6109 17.7288 29.4488C17.7409 29.2607 17.6845 29.064 17.6169 28.8247C17.4566 28.2613 17.2373 27.4882 17.9541 26.5208L17.9931 26.4515C17.9966 26.4411 18.3823 25.5136 19.6279 25.5136C19.9182 25.5136 20.2363 25.5648 20.5735 25.6679C20.6498 25.9574 20.7581 26.1793 20.9003 26.344C21.1898 26.6838 22.6633 29.1957 22.8063 31.4701L22.8046 31.9382C22.8046 31.9703 22.8063 32.0041 22.8089 32.0379C22.002 32.1142 19.9052 32.4383 19.1797 33.7532ZM29.7925 49.3985C29.7674 49.4219 29.5941 49.519 29.3999 49.5494C29.1641 49.5832 28.7585 49.6135 28.4958 49.6135H25.8071C25.606 49.6135 25.4032 49.6031 25.2272 49.5884L26.029 49.2867L27.1333 48.8065C27.2139 48.7667 27.3032 48.7164 27.3864 48.6687L27.4765 48.9088L27.4427 48.6349C27.5017 48.5976 27.5563 48.5638 27.597 48.5335C27.7608 48.413 27.9151 48.1877 27.8891 47.951C27.8796 47.8704 27.8536 47.7127 27.8258 47.5974C27.799 47.4734 27.7392 47.2888 27.6993 47.1796C27.6516 47.0591 27.5727 46.891 27.5233 46.7973L26.6106 45.1028L25.2498 43.0312L24.3457 41.4493L23.4633 40.1899C23.2909 39.9559 23.0473 39.5875 22.9233 39.3656L22.4718 38.5612C22.3625 38.3653 22.2013 38.023 22.1103 37.7967C22.0748 37.7083 21.8875 37.2611 21.6691 37.1094C21.637 37.0834 21.4273 36.8563 21.1508 36.5026L20.4721 35.6662C20.3707 35.5501 20.1358 35.2163 19.9728 34.952C19.8827 34.8098 19.783 34.6573 19.6937 34.5238C19.9156 33.1777 22.1086 32.8526 22.9225 32.7798C22.9597 32.9237 23.0005 33.039 23.0447 33.1239L23.2406 33.5157L23.5752 34.269C23.7528 34.6651 23.9695 35.4114 24.0597 35.9332C24.1542 36.4948 24.4281 37.5462 24.6656 38.2778C24.9143 39.0432 25.3399 39.9281 25.6355 40.2922L26.1131 40.8842L26.6461 41.5846C26.9122 41.933 27.2148 42.4513 27.298 42.6932L27.4635 43.1959L27.7409 44.2551C27.9021 44.8618 28.1881 45.7338 28.3806 46.1984L28.7229 47.0253L29.4138 48.4078L29.6781 48.8507C29.7865 49.0302 29.8541 49.194 29.8758 49.259C29.8576 49.2919 29.8281 49.3526 29.7925 49.3985Z" fill="white"/>
</svg>
