<svg width="500" height="500" viewBox="0 0 500 500" fill="none" xmlns="http://www.w3.org/2000/svg">
<path d="M455.15 405.11C478.14 372.8 484.8 328 481 290C479.12 271.17 475.44 251.43 464.32 235.65C448.12 212.65 421.38 200.57 401 182C371 154.68 358.31 114.79 332.79 83.9996C299.48 43.8896 247 38.8196 197.9 41.1896C161 42.9996 101.68 43.6996 92.9999 89.9996C83.9999 138 101 183 64.9999 206C28.9999 229 9.99995 277 20.9999 318C30.2799 352.58 74.7599 358.7 83.9999 394C94.9999 436 159 492 221 488C283 484 319 443 345 445C375.13 447.31 407.23 447.22 432.56 428.39C441.262 421.86 448.885 414.004 455.15 405.11Z" fill="#006231"/>
<path opacity="0.7" d="M455.15 405.11C478.14 372.8 484.8 328 481 290C479.12 271.17 475.44 251.43 464.32 235.65C448.12 212.65 421.38 200.57 401 182C371 154.68 358.31 114.79 332.79 83.9996C299.48 43.8896 247 38.8196 197.9 41.1896C161 42.9996 101.68 43.6996 92.9999 89.9996C83.9999 138 101 183 64.9999 206C28.9999 229 9.99995 277 20.9999 318C30.2799 352.58 74.7599 358.7 83.9999 394C94.9999 436 159 492 221 488C283 484 319 443 345 445C375.13 447.31 407.23 447.22 432.56 428.39C441.262 421.86 448.885 414.004 455.15 405.11Z" fill="white"/>
<path d="M410.69 136.06C410.69 136.06 391.6 125.45 390.19 149.49C388.78 173.53 385.24 329.75 385.24 329.75" stroke="#263238" stroke-width="2" stroke-linecap="round" stroke-linejoin="round"/>
<path d="M380.28 151.609C380.28 151.609 395.85 186.249 388.78 327.609" stroke="#263238" stroke-width="2" stroke-linecap="round" stroke-linejoin="round"/>
<path d="M395.57 140.889C395.57 140.889 388.27 145.569 384.12 140.219C379.97 134.869 386.93 125.059 380.79 120.859C374.65 116.659 364.05 123.069 364.05 123.069C364.05 123.069 372.22 125.469 371.95 129.919C371.68 134.369 367.76 136.059 367.24 134.109C366.72 132.159 362.82 122.359 356.19 126.439C354.281 127.568 352.621 129.072 351.308 130.859C349.995 132.646 349.057 134.68 348.55 136.839C348.55 136.839 364 135.199 364.91 140.999C365.82 146.799 358.59 139.999 352.22 139.609C345.85 139.219 340.06 140.169 340.47 144.029C340.88 147.889 339.87 154.209 339.87 154.209C339.87 154.209 345.26 149.419 352.26 149.829C359.26 150.239 359 154.699 352.63 154.329C346.26 153.959 340.8 159.999 340.8 159.999C340.8 159.999 346.6 169.919 353.98 174.819C361.36 179.719 363.98 177.969 364.87 174.189C365.76 170.409 363.75 160.709 368.2 160.969C372.65 161.229 360.83 177.779 366.52 178.749C372.21 179.719 376.77 178.079 378.27 174.339L379.77 170.599C379.77 170.599 377.77 160.899 378.65 157.119C379.53 153.339 380.56 157.229 381.57 161.759C382.58 166.289 383.21 177.189 385.16 176.659C387.11 176.129 393.32 168.199 394.78 165.099C396.24 161.999 386.59 152.479 386.7 150.569C386.81 148.659 394.26 152.289 395.42 154.279C396.26 155.772 397.021 157.307 397.7 158.879C397.7 158.879 402.35 155.959 402.24 147.019C402.13 138.079 395.57 140.889 395.57 140.889Z" fill="#006231"/>
<path opacity="0.3" d="M395.57 140.889C395.57 140.889 388.27 145.569 384.12 140.219C379.97 134.869 386.93 125.059 380.79 120.859C374.65 116.659 364.05 123.069 364.05 123.069C364.05 123.069 372.22 125.469 371.95 129.919C371.68 134.369 367.76 136.059 367.24 134.109C366.72 132.159 362.82 122.359 356.19 126.439C354.281 127.568 352.621 129.072 351.308 130.859C349.995 132.646 349.057 134.68 348.55 136.839C348.55 136.839 364 135.199 364.91 140.999C365.82 146.799 358.59 139.999 352.22 139.609C345.85 139.219 340.06 140.169 340.47 144.029C340.88 147.889 339.87 154.209 339.87 154.209C339.87 154.209 345.26 149.419 352.26 149.829C359.26 150.239 359 154.699 352.63 154.329C346.26 153.959 340.8 159.999 340.8 159.999C340.8 159.999 346.6 169.919 353.98 174.819C361.36 179.719 363.98 177.969 364.87 174.189C365.76 170.409 363.75 160.709 368.2 160.969C372.65 161.229 360.83 177.779 366.52 178.749C372.21 179.719 376.77 178.079 378.27 174.339L379.77 170.599C379.77 170.599 377.77 160.899 378.65 157.119C379.53 153.339 380.56 157.229 381.57 161.759C382.58 166.289 383.21 177.189 385.16 176.659C387.11 176.129 393.32 168.199 394.78 165.099C396.24 161.999 386.59 152.479 386.7 150.569C386.81 148.659 394.26 152.289 395.42 154.279C396.26 155.772 397.021 157.307 397.7 158.879C397.7 158.879 402.35 155.959 402.24 147.019C402.13 138.079 395.57 140.889 395.57 140.889Z" fill="#263238"/>
<path d="M358.561 161.87C363.321 155.99 370.341 148.02 376.221 144.22" stroke="#263238" stroke-linecap="round" stroke-linejoin="round"/>
<path d="M353 169C353 169 354.22 167.3 356.2 164.75" stroke="#263238" stroke-linecap="round" stroke-linejoin="round"/>
<path d="M379.32 145.68C379.32 145.68 386.4 155.68 387.71 165.98" stroke="#263238" stroke-linecap="round" stroke-linejoin="round"/>
<path d="M371.311 151.6C371.311 151.6 373.311 150.44 372.551 163.17" stroke="#263238" stroke-linecap="round" stroke-linejoin="round"/>
<path d="M376.48 139.77C376.48 139.77 380.48 136.18 378.39 129.02" stroke="#263238" stroke-linecap="round" stroke-linejoin="round"/>
<path d="M371.011 145.83L368.131 140.55" stroke="#263238" stroke-linecap="round" stroke-linejoin="round"/>
<path d="M365.001 151.22C365.001 151.22 355.831 144.29 350.101 143.96" stroke="#263238" stroke-linecap="round" stroke-linejoin="round"/>
<path d="M421.59 122C421.59 122 421.3 132.5 413.11 133C404.92 133.5 399.85 119.85 391.46 123.14C383.07 126.43 382.27 141.4 382.27 141.4C382.27 141.4 390.27 134.86 394.51 138.16C398.75 141.46 397.8 146.55 395.51 145.74C393.22 144.93 380.73 142.15 380.3 151.57C380.129 154.251 380.503 156.939 381.398 159.472C382.293 162.006 383.692 164.331 385.51 166.31C385.51 166.31 394.38 149.74 400.82 152.76C407.26 155.78 395.5 158.41 390.82 164.52C386.14 170.63 383.09 177.09 387.23 179.3C391.37 181.51 397.02 186.84 397.02 186.84C397.02 186.84 395.9 178.18 401.08 171.45C406.26 164.72 410.55 168.03 405.83 174.14C401.11 180.25 403.46 189.86 403.46 189.86C403.46 189.86 417.35 190.86 427.29 186.78C437.23 182.7 437.29 178.88 434.08 175.44C430.87 172 419.82 167.38 423.08 163.09C426.34 158.8 434.88 181.94 439.73 176.9C444.58 171.86 446.05 166.18 443.33 162.12L440.6 158.12C440.6 158.12 429.54 153.5 426.34 150.06C423.14 146.62 427.76 148.22 432.98 150.3C438.2 152.38 449.54 159.17 450.35 156.86C451.16 154.55 447.44 142.92 445.35 139.34C443.26 135.76 427.13 138.95 425.29 137.54C423.45 136.13 432.17 131.14 434.95 131.33C437.02 131.506 439.08 131.79 441.12 132.18C441.12 132.18 441.36 125.55 432.32 119.56C423.28 113.57 421.59 122 421.59 122Z" fill="#006231"/>
<path opacity="0.2" d="M421.59 122C421.59 122 421.3 132.5 413.11 133C404.92 133.5 399.85 119.85 391.46 123.14C383.07 126.43 382.27 141.4 382.27 141.4C382.27 141.4 390.27 134.86 394.51 138.16C398.75 141.46 397.8 146.55 395.51 145.74C393.22 144.93 380.73 142.15 380.3 151.57C380.129 154.251 380.503 156.939 381.398 159.472C382.293 162.006 383.692 164.331 385.51 166.31C385.51 166.31 394.38 149.74 400.82 152.76C407.26 155.78 395.5 158.41 390.82 164.52C386.14 170.63 383.09 177.09 387.23 179.3C391.37 181.51 397.02 186.84 397.02 186.84C397.02 186.84 395.9 178.18 401.08 171.45C406.26 164.72 410.55 168.03 405.83 174.14C401.11 180.25 403.46 189.86 403.46 189.86C403.46 189.86 417.35 190.86 427.29 186.78C437.23 182.7 437.29 178.88 434.08 175.44C430.87 172 419.82 167.38 423.08 163.09C426.34 158.8 434.88 181.94 439.73 176.9C444.58 171.86 446.05 166.18 443.33 162.12L440.6 158.12C440.6 158.12 429.54 153.5 426.34 150.06C423.14 146.62 427.76 148.22 432.98 150.3C438.2 152.38 449.54 159.17 450.35 156.86C451.16 154.55 447.44 142.92 445.35 139.34C443.26 135.76 427.13 138.95 425.29 137.54C423.45 136.13 432.17 131.14 434.95 131.33C437.02 131.506 439.08 131.79 441.12 132.18C441.12 132.18 441.36 125.55 432.32 119.56C423.28 113.57 421.59 122 421.59 122Z" fill="#263238"/>
<path d="M417.371 173.39C414.721 164.61 411.531 152.16 411.731 143.68" stroke="#263238" stroke-linecap="round" stroke-linejoin="round"/>
<path d="M420.781 183.799C420.781 183.799 419.911 181.419 418.711 177.699" stroke="#263238" stroke-linecap="round" stroke-linejoin="round"/>
<path d="M415.311 141.559C415.311 141.559 430.141 141.299 441.311 146.999" stroke="#263238" stroke-linecap="round" stroke-linejoin="round"/>
<path d="M415.771 153.62C415.771 153.62 415.961 150.84 428.201 160.27" stroke="#263238" stroke-linecap="round" stroke-linejoin="round"/>
<path d="M407.45 140.38C407.45 140.38 406.61 133.88 398 131.14" stroke="#263238" stroke-linecap="round" stroke-linejoin="round"/>
<path d="M409.801 149.99L402.551 149.27" stroke="#263238" stroke-linecap="round" stroke-linejoin="round"/>
<path d="M411.061 159.729C411.061 159.729 397.871 164.189 393.631 169.729" stroke="#263238" stroke-linecap="round" stroke-linejoin="round"/>
<path d="M333.641 191.899C333.641 191.899 375.351 219.469 374.641 326.209" stroke="#263238" stroke-width="2" stroke-linecap="round" stroke-linejoin="round"/>
<path d="M385.06 184.62C385.06 184.62 383.73 196.71 374.23 196.52C364.73 196.33 360.17 180.1 350.18 183.1C340.19 186.1 337.85 203.3 337.85 203.3C337.85 203.3 347.65 196.51 352.28 200.72C356.91 204.93 355.28 210.72 352.7 209.56C350.12 208.4 336 204 334.6 214.84C334.146 217.919 334.32 221.059 335.115 224.069C335.909 227.078 337.306 229.896 339.22 232.35C339.22 232.35 351.01 214.07 358.17 218.16C365.33 222.25 351.49 224.16 345.47 230.79C339.45 237.42 335.36 244.55 339.93 247.5C344.5 250.45 350.51 257.13 350.51 257.13C350.51 257.13 350 247 356.65 239.75C363.3 232.5 367.9 236.69 361.88 243.3C355.86 249.91 357.67 261.22 357.67 261.22C357.67 261.22 373.6 263.63 385.45 259.91C397.3 256.19 397.72 251.74 394.35 247.46C390.98 243.18 378.66 236.81 382.88 232.19C387.1 227.57 394.71 255.04 400.79 249.69C406.87 244.34 409.09 237.91 406.33 232.98L403.56 228.05C403.56 228.05 391.24 221.67 387.87 217.39C384.5 213.11 389.68 215.39 395.51 218.3C401.34 221.21 413.79 230.09 414.93 227.51C416.07 224.93 412.93 211.15 410.79 206.82C408.65 202.49 389.79 204.65 387.79 202.82C385.79 200.99 396.33 196.09 399.52 196.57C401.879 196.974 404.215 197.498 406.52 198.14C406.52 198.14 407.43 190.5 397.57 182.74C387.71 174.98 385.06 184.62 385.06 184.62Z" fill="#006231"/>
<path opacity="0.3" d="M385.06 184.62C385.06 184.62 383.73 196.71 374.23 196.52C364.73 196.33 360.17 180.1 350.18 183.1C340.19 186.1 337.85 203.3 337.85 203.3C337.85 203.3 347.65 196.51 352.28 200.72C356.91 204.93 355.28 210.72 352.7 209.56C350.12 208.4 336 204 334.6 214.84C334.146 217.919 334.32 221.059 335.115 224.069C335.909 227.078 337.306 229.896 339.22 232.35C339.22 232.35 351.01 214.07 358.17 218.16C365.33 222.25 351.49 224.16 345.47 230.79C339.45 237.42 335.36 244.55 339.93 247.5C344.5 250.45 350.51 257.13 350.51 257.13C350.51 257.13 350 247 356.65 239.75C363.3 232.5 367.9 236.69 361.88 243.3C355.86 249.91 357.67 261.22 357.67 261.22C357.67 261.22 373.6 263.63 385.45 259.91C397.3 256.19 397.72 251.74 394.35 247.46C390.98 243.18 378.66 236.81 382.88 232.19C387.1 227.57 394.71 255.04 400.79 249.69C406.87 244.34 409.09 237.91 406.33 232.98L403.56 228.05C403.56 228.05 391.24 221.67 387.87 217.39C384.5 213.11 389.68 215.39 395.51 218.3C401.34 221.21 413.79 230.09 414.93 227.51C416.07 224.93 412.93 211.15 410.79 206.82C408.65 202.49 389.79 204.65 387.79 202.82C385.79 200.99 396.33 196.09 399.52 196.57C401.879 196.974 404.215 197.498 406.52 198.14C406.52 198.14 407.43 190.5 397.57 182.74C387.71 174.98 385.06 184.62 385.06 184.62Z" fill="#263238"/>
<path d="M375.34 243.48C373.11 233.1 370.61 218.48 371.64 208.67" stroke="#263238" stroke-linecap="round" stroke-linejoin="round"/>
<path d="M378.3 255.82C378.3 255.82 377.52 252.99 376.49 248.58" stroke="#263238" stroke-linecap="round" stroke-linejoin="round"/>
<path d="M376 206.56C376 206.56 393.14 207.65 405.52 215.3" stroke="#263238" stroke-linecap="round" stroke-linejoin="round"/>
<path d="M375.36 220.52C375.36 220.52 375.85 217.33 389.07 229.36" stroke="#263238" stroke-linecap="round" stroke-linejoin="round"/>
<path d="M367 204.46C367 204.46 366.65 196.88 357 192.91" stroke="#263238" stroke-linecap="round" stroke-linejoin="round"/>
<path d="M368.811 215.76L360.511 214.25" stroke="#263238" stroke-linecap="round" stroke-linejoin="round"/>
<path d="M369.351 227.13C369.351 227.13 353.711 231 348.301 237" stroke="#263238" stroke-linecap="round" stroke-linejoin="round"/>
<path d="M349.9 275.999C349.9 275.999 376.76 296.499 379.59 326.899L373.93 225.109" stroke="#263238" stroke-width="2" stroke-linecap="round" stroke-linejoin="round"/>
<path d="M383.83 326.21C383.83 326.21 363.33 177.06 422.71 177.06" stroke="#263238" stroke-width="2" stroke-linecap="round" stroke-linejoin="round"/>
<path d="M459.42 204.919C452.85 201.029 445.59 200.919 442.03 196.839C438.47 192.759 445.46 190.669 449.2 192.219C452.94 193.769 461.61 198.219 463.25 199.219C464.89 200.219 463.76 185.989 460.71 180.639C457.66 175.289 449.33 172.179 445.17 176.549C436.39 185.769 422.7 173.679 423.64 166.479C424.58 159.279 417.85 151.479 403.41 156.059C388.97 160.639 394.35 163.129 394.35 163.129C394.35 163.129 404.61 169.409 411.18 173.299C417.75 177.189 428.63 180.519 426.3 183.349C423.97 186.179 417.66 184.449 412.4 180.229C407.14 176.009 392 165.939 390.47 169.679C388.94 173.419 383.47 183.679 383.47 183.679C390.157 184.705 396.768 186.171 403.26 188.069C412.05 190.829 413.85 195.659 406.98 196.069C400.11 196.479 387.64 191.289 383.75 197.859C379.86 204.429 382.53 221.299 382.53 221.299C382.53 221.299 395.11 212.769 401.53 212.799C407.95 212.829 403.84 216.389 396.67 221.009C393.558 222.911 390.553 224.984 387.67 227.219L394.21 243.999C394.21 243.999 405 242.619 409.26 242.919L413.52 243.219C413.52 243.219 413.52 225.679 418.52 220.479C423.52 215.279 424.46 227.309 425.52 230.379C426.58 233.449 423.38 242.639 423.38 242.639C423.38 242.639 435.84 235.819 439.88 233.109L443.88 230.399C443.88 230.399 439.22 217.659 436.05 214.019C432.88 210.379 428.57 210.919 432.22 207.759C435.87 204.599 441.3 206.259 444.41 210.759C447.52 215.259 451.23 223.999 451.23 223.999C451.23 223.999 455.88 224.749 461.93 217.909C467.98 211.069 466 208.799 459.42 204.919ZM402.31 224.229C397.48 221.819 409 216.999 409 216.999C413.17 216.389 407.14 226.649 402.31 224.229ZM410.44 201.699C408.38 200.699 414.56 198.619 414.56 198.619C423.47 200.329 412.5 202.729 410.44 201.699Z" fill="#006231"/>
<path d="M402.181 236.529C400.934 237.863 399.644 239.149 398.311 240.389" stroke="#263238" stroke-linecap="round" stroke-linejoin="round"/>
<path d="M427.001 199C422.381 208.62 415.401 221.18 406.211 232.09" stroke="#263238" stroke-linecap="round" stroke-linejoin="round"/>
<path d="M429.181 194.15C432.081 187.68 433.561 183.41 433.561 183.41C433.561 183.41 438.951 185.93 444.171 184.59C447.255 183.782 450.487 183.717 453.601 184.4" stroke="#263238" stroke-linecap="round" stroke-linejoin="round"/>
<path d="M423.931 192.57C425.301 191.39 404.221 180.91 404.221 180.91" stroke="#263238" stroke-linecap="round" stroke-linejoin="round"/>
<path d="M435 198.92C435 198.92 445 203.04 450.52 209.42" stroke="#263238" stroke-linecap="round" stroke-linejoin="round"/>
<path d="M421.721 205.679C416.38 204.777 410.965 204.395 405.551 204.539C400.108 204.602 394.709 205.52 389.551 207.259" stroke="#263238" stroke-linecap="round" stroke-linejoin="round"/>
<path d="M424.25 212.27C424.25 212.27 435.3 219.47 435.09 228.44" stroke="#263238" stroke-linecap="round" stroke-linejoin="round"/>
<path d="M344.09 188.88C344.09 188.88 337.45 193.71 333.22 188.88C328.99 184.05 335 174.4 329 170.78C323 167.16 313.31 173.78 313.31 173.78C313.31 173.78 321.15 175.59 321.15 179.78C321.15 183.97 317.53 185.78 316.93 184.01C316.33 182.24 312.1 173.14 306.07 177.37C304.327 178.541 302.839 180.054 301.697 181.818C300.556 183.582 299.785 185.559 299.43 187.63C299.43 187.63 313.91 185.21 315.12 190.63C316.33 196.05 309.12 190.03 303.05 190.03C296.98 190.03 291.58 191.24 292.18 194.86C292.512 198.068 292.512 201.302 292.18 204.51C292.18 204.51 297.01 199.69 303.65 199.69C310.29 199.69 310.29 203.91 304.25 203.91C298.21 203.91 293.39 209.91 293.39 209.91C293.39 209.91 299.39 218.96 306.67 223.18C313.95 227.4 316.32 225.6 316.93 221.98C317.54 218.36 315.12 209.3 319.34 209.3C323.56 209.3 313.34 225.6 318.74 226.2C324.14 226.8 328.39 224.99 329.6 221.37L330.81 217.75C330.81 217.75 328.39 208.75 329 205.08C329.61 201.41 330.81 205.08 332 209.3C333.19 213.52 334.41 223.79 336.22 223.18C338.03 222.57 343.46 214.73 344.67 211.72C345.88 208.71 336.22 200.25 336.22 198.44C336.22 196.63 343.46 199.65 344.67 201.44C345.548 202.803 346.353 204.211 347.08 205.66C347.08 205.66 351.31 202.66 350.7 194.19C350.09 185.72 344.09 188.88 344.09 188.88Z" fill="#006231"/>
<path d="M310.28 210.769C314.45 204.939 320.64 197.029 325.98 193.109" stroke="#263238" stroke-linecap="round" stroke-linejoin="round"/>
<path d="M305.461 217.85C305.461 217.85 306.521 216.18 308.251 213.66" stroke="#263238" stroke-linecap="round" stroke-linejoin="round"/>
<path d="M329 194.31C329 194.31 336.24 203.37 338.05 213.02" stroke="#263238" stroke-linecap="round" stroke-linejoin="round"/>
<path d="M321.761 200.35C321.761 200.35 323.571 199.14 323.571 211.21" stroke="#263238" stroke-linecap="round" stroke-linejoin="round"/>
<path d="M326 188.88C326 188.88 329.62 185.26 327.21 178.62" stroke="#263238" stroke-linecap="round" stroke-linejoin="round"/>
<path d="M321.151 194.92L318.141 190.09" stroke="#263238" stroke-linecap="round" stroke-linejoin="round"/>
<path d="M315.72 200.35C315.72 200.35 306.67 194.35 301.24 194.35" stroke="#263238" stroke-linecap="round" stroke-linejoin="round"/>
<path d="M350.301 264.9C350.301 264.9 369.391 254.3 370.801 278.33C371.681 293.18 373.361 358.49 374.521 406.24" stroke="#263238" stroke-width="2" stroke-linecap="round" stroke-linejoin="round"/>
<path d="M380.721 280.45C380.721 280.45 369.001 306.61 370.521 406.23" stroke="#263238" stroke-width="2" stroke-linecap="round" stroke-linejoin="round"/>
<path d="M365.421 269.74C365.421 269.74 372.721 274.42 376.881 269.07C381.041 263.72 374.071 253.9 380.211 249.71C386.351 245.52 396.941 251.92 396.941 251.92C396.941 251.92 388.781 254.31 389.041 258.77C389.301 263.23 393.241 264.91 393.761 262.96C394.281 261.01 398.171 251.2 404.761 255.28C406.672 256.408 408.334 257.912 409.648 259.702C410.961 261.491 411.897 263.528 412.401 265.69C412.401 265.69 396.981 264.05 396.041 269.85C395.101 275.65 402.371 268.85 408.731 268.46C415.091 268.07 420.901 269.02 420.491 272.88C420.081 276.74 421.091 283.06 421.091 283.06C421.091 283.06 415.701 278.27 408.701 278.68C401.701 279.09 401.961 283.55 408.321 283.17C414.681 282.79 420.151 288.86 420.151 288.86C420.151 288.86 414.351 298.78 406.981 303.69C399.611 308.6 396.981 306.83 396.081 303.05C395.181 299.27 397.211 289.58 392.751 289.84C388.291 290.1 400.131 306.65 394.441 307.62C388.751 308.59 384.181 306.95 382.681 303.21L381.181 299.46C381.181 299.46 383.181 289.77 382.311 285.99C381.441 282.21 380.401 286.1 379.391 290.63C378.381 295.16 377.741 306.05 375.791 305.53C373.841 305.01 367.631 297.07 366.171 293.96C364.711 290.85 374.371 281.34 374.261 279.44C374.151 277.54 366.691 281.16 365.531 283.14C364.692 284.636 363.931 286.175 363.251 287.75C363.251 287.75 358.611 284.83 358.721 275.88C358.831 266.93 365.421 269.74 365.421 269.74Z" fill="#006231"/>
<path opacity="0.3" d="M365.421 269.74C365.421 269.74 372.721 274.42 376.881 269.07C381.041 263.72 374.071 253.9 380.211 249.71C386.351 245.52 396.941 251.92 396.941 251.92C396.941 251.92 388.781 254.31 389.041 258.77C389.301 263.23 393.241 264.91 393.761 262.96C394.281 261.01 398.171 251.2 404.761 255.28C406.672 256.408 408.334 257.912 409.648 259.702C410.961 261.491 411.897 263.528 412.401 265.69C412.401 265.69 396.981 264.05 396.041 269.85C395.101 275.65 402.371 268.85 408.731 268.46C415.091 268.07 420.901 269.02 420.491 272.88C420.081 276.74 421.091 283.06 421.091 283.06C421.091 283.06 415.701 278.27 408.701 278.68C401.701 279.09 401.961 283.55 408.321 283.17C414.681 282.79 420.151 288.86 420.151 288.86C420.151 288.86 414.351 298.78 406.981 303.69C399.611 308.6 396.981 306.83 396.081 303.05C395.181 299.27 397.211 289.58 392.751 289.84C388.291 290.1 400.131 306.65 394.441 307.62C388.751 308.59 384.181 306.95 382.681 303.21L381.181 299.46C381.181 299.46 383.181 289.77 382.311 285.99C381.441 282.21 380.401 286.1 379.391 290.63C378.381 295.16 377.741 306.05 375.791 305.53C373.841 305.01 367.631 297.07 366.171 293.96C364.711 290.85 374.371 281.34 374.261 279.44C374.151 277.54 366.691 281.16 365.531 283.14C364.692 284.636 363.931 286.175 363.251 287.75C363.251 287.75 358.611 284.83 358.721 275.88C358.831 266.93 365.421 269.74 365.421 269.74Z" fill="#263238"/>
<path d="M402.43 290.719C397.67 284.829 390.66 276.869 384.78 273.069" stroke="#263238" stroke-linecap="round" stroke-linejoin="round"/>
<path d="M408.001 297.89C408.001 297.89 406.781 296.19 404.801 293.64" stroke="#263238" stroke-linecap="round" stroke-linejoin="round"/>
<path d="M381.67 274.529C381.67 274.529 374.6 284.529 373.29 294.819" stroke="#263238" stroke-linecap="round" stroke-linejoin="round"/>
<path d="M389.681 280.44C389.681 280.44 387.681 279.28 388.451 292.01" stroke="#263238" stroke-linecap="round" stroke-linejoin="round"/>
<path d="M384.511 268.61C384.511 268.61 380.511 265.02 382.601 257.87" stroke="#263238" stroke-linecap="round" stroke-linejoin="round"/>
<path d="M389.98 274.679L392.86 269.399" stroke="#263238" stroke-linecap="round" stroke-linejoin="round"/>
<path d="M396.051 280.07C396.051 280.07 405.221 273.14 410.941 272.8" stroke="#263238" stroke-linecap="round" stroke-linejoin="round"/>
<path d="M339.4 250.88C339.4 250.88 339.69 261.38 347.88 261.88C356.07 262.38 361.15 248.73 369.53 252.02C377.91 255.31 378.73 270.28 378.73 270.28C378.73 270.28 370.73 263.74 366.49 267.04C362.25 270.34 363.2 275.42 365.49 274.62C367.78 273.82 380.27 271.03 380.71 280.44C380.882 283.122 380.508 285.811 379.611 288.345C378.714 290.878 377.312 293.203 375.49 295.18C375.49 295.18 366.63 278.62 360.18 281.64C353.73 284.66 365.51 287.28 370.18 293.4C374.85 299.52 378 306 373.82 308.19C369.64 310.38 364.04 315.73 364.04 315.73C364.04 315.73 365.16 307.07 359.97 300.34C354.78 293.61 350.51 296.91 355.22 303.03C359.93 309.15 357.59 318.75 357.59 318.75C357.59 318.75 343.7 319.7 333.77 315.67C323.84 311.64 323.77 307.77 326.98 304.33C330.19 300.89 341.23 296.26 337.93 291.98C334.63 287.7 326.13 310.82 321.28 305.79C316.43 300.76 315 295.06 317.69 291L320.41 286.95C320.41 286.95 331.47 282.33 334.67 278.89C337.87 275.45 333.26 277.05 328.03 279.13C322.8 281.21 311.47 287.99 310.67 285.69C309.87 283.39 313.57 271.75 315.67 268.17C317.77 264.59 333.89 267.78 335.72 266.36C337.55 264.94 328.84 259.97 326.07 260.16C324 260.336 321.941 260.62 319.9 261.01C319.9 261.01 319.66 254.37 328.69 248.38C337.72 242.39 339.4 250.88 339.4 250.88Z" fill="#006231"/>
<path opacity="0.2" d="M339.4 250.88C339.4 250.88 339.69 261.38 347.88 261.88C356.07 262.38 361.15 248.73 369.53 252.02C377.91 255.31 378.73 270.28 378.73 270.28C378.73 270.28 370.73 263.74 366.49 267.04C362.25 270.34 363.2 275.42 365.49 274.62C367.78 273.82 380.27 271.03 380.71 280.44C380.882 283.122 380.508 285.811 379.611 288.345C378.714 290.878 377.312 293.203 375.49 295.18C375.49 295.18 366.63 278.62 360.18 281.64C353.73 284.66 365.51 287.28 370.18 293.4C374.85 299.52 378 306 373.82 308.19C369.64 310.38 364.04 315.73 364.04 315.73C364.04 315.73 365.16 307.07 359.97 300.34C354.78 293.61 350.51 296.91 355.22 303.03C359.93 309.15 357.59 318.75 357.59 318.75C357.59 318.75 343.7 319.7 333.77 315.67C323.84 311.64 323.77 307.77 326.98 304.33C330.19 300.89 341.23 296.26 337.93 291.98C334.63 287.7 326.13 310.82 321.28 305.79C316.43 300.76 315 295.06 317.69 291L320.41 286.95C320.41 286.95 331.47 282.33 334.67 278.89C337.87 275.45 333.26 277.05 328.03 279.13C322.8 281.21 311.47 287.99 310.67 285.69C309.87 283.39 313.57 271.75 315.67 268.17C317.77 264.59 333.89 267.78 335.72 266.36C337.55 264.94 328.84 259.97 326.07 260.16C324 260.336 321.941 260.62 319.9 261.01C319.9 261.01 319.66 254.37 328.69 248.38C337.72 242.39 339.4 250.88 339.4 250.88Z" fill="#263238"/>
<path d="M343.62 302.239C346.27 293.459 349.46 280.999 349.26 272.529" stroke="#263238" stroke-linecap="round" stroke-linejoin="round"/>
<path d="M340.211 312.65C340.211 312.65 341.081 310.26 342.281 306.54" stroke="#263238" stroke-linecap="round" stroke-linejoin="round"/>
<path d="M345.681 270.409C345.681 270.409 330.851 270.139 319.681 275.849" stroke="#263238" stroke-linecap="round" stroke-linejoin="round"/>
<path d="M345.221 282.46C345.221 282.46 345.031 279.69 332.801 289.11" stroke="#263238" stroke-linecap="round" stroke-linejoin="round"/>
<path d="M353.54 269.229C353.54 269.229 354.38 262.729 363 259.989" stroke="#263238" stroke-linecap="round" stroke-linejoin="round"/>
<path d="M351.2 278.83L358.45 278.12" stroke="#263238" stroke-linecap="round" stroke-linejoin="round"/>
<path d="M349.931 288.58C349.931 288.58 363.121 293.04 367.361 298.58" stroke="#263238" stroke-linecap="round" stroke-linejoin="round"/>
<path d="M427.361 320.75C427.361 320.75 399.001 339.51 389.431 406" stroke="#263238" stroke-width="2" stroke-linecap="round" stroke-linejoin="round"/>
<path d="M375.931 313.47C375.931 313.47 377.261 325.55 386.761 325.37C396.261 325.19 400.831 308.94 410.811 311.95C420.791 314.96 423.151 332.15 423.151 332.15C423.151 332.15 413.341 325.36 408.711 329.57C404.081 333.78 405.711 339.57 408.301 338.41C410.891 337.25 425.011 332.87 426.401 343.69C426.854 346.767 426.679 349.905 425.884 352.913C425.09 355.921 423.694 358.737 421.781 361.19C421.781 361.19 410.001 342.92 402.831 347C395.661 351.08 409.511 353 415.521 359.62C421.531 366.24 425.631 373.39 421.061 376.34C416.491 379.29 410.481 386 410.481 386C410.481 386 410.961 375.9 404.341 368.63C397.721 361.36 393.091 365.56 399.111 372.18C405.131 378.8 403.331 390.1 403.331 390.1C403.331 390.1 387.391 392.51 375.551 388.78C363.711 385.05 363.271 380.61 366.641 376.34C370.011 372.07 382.331 365.69 378.121 361.06C373.911 356.43 366.281 383.92 360.211 378.57C354.141 373.22 351.901 366.79 354.671 361.85L357.431 356.92C357.431 356.92 369.761 350.54 373.121 346.27C376.481 342 371.321 344.27 365.481 347.18C359.641 350.09 347.211 358.97 346.061 356.39C344.911 353.81 348.061 340.03 350.201 335.7C352.341 331.37 371.201 333.52 373.201 331.7C375.201 329.88 364.661 324.97 361.481 325.45C359.121 325.85 356.785 326.374 354.481 327.02C354.481 327.02 353.571 319.38 363.431 311.62C373.291 303.86 375.931 313.47 375.931 313.47Z" fill="#006231"/>
<path opacity="0.3" d="M375.931 313.47C375.931 313.47 377.261 325.55 386.761 325.37C396.261 325.19 400.831 308.94 410.811 311.95C420.791 314.96 423.151 332.15 423.151 332.15C423.151 332.15 413.341 325.36 408.711 329.57C404.081 333.78 405.711 339.57 408.301 338.41C410.891 337.25 425.011 332.87 426.401 343.69C426.854 346.767 426.679 349.905 425.884 352.913C425.09 355.921 423.694 358.737 421.781 361.19C421.781 361.19 410.001 342.92 402.831 347C395.661 351.08 409.511 353 415.521 359.62C421.531 366.24 425.631 373.39 421.061 376.34C416.491 379.29 410.481 386 410.481 386C410.481 386 410.961 375.9 404.341 368.63C397.721 361.36 393.091 365.56 399.111 372.18C405.131 378.8 403.331 390.1 403.331 390.1C403.331 390.1 387.391 392.51 375.551 388.78C363.711 385.05 363.271 380.61 366.641 376.34C370.011 372.07 382.331 365.69 378.121 361.06C373.911 356.43 366.281 383.92 360.211 378.57C354.141 373.22 351.901 366.79 354.671 361.85L357.431 356.92C357.431 356.92 369.761 350.54 373.121 346.27C376.481 342 371.321 344.27 365.481 347.18C359.641 350.09 347.211 358.97 346.061 356.39C344.911 353.81 348.061 340.03 350.201 335.7C352.341 331.37 371.201 333.52 373.201 331.7C375.201 329.88 364.661 324.97 361.481 325.45C359.121 325.85 356.785 326.374 354.481 327.02C354.481 327.02 353.571 319.38 363.431 311.62C373.291 303.86 375.931 313.47 375.931 313.47Z" fill="#263238"/>
<path d="M385.65 372.33C387.88 361.95 390.39 347.28 389.35 337.51" stroke="#263238" stroke-linecap="round" stroke-linejoin="round"/>
<path d="M382.7 384.66C382.7 384.66 383.48 381.83 384.51 377.43" stroke="#263238" stroke-linecap="round" stroke-linejoin="round"/>
<path d="M385 335.41C385 335.41 367.86 336.5 355.48 344.14" stroke="#263238" stroke-linecap="round" stroke-linejoin="round"/>
<path d="M385.631 349.359C385.631 349.359 385.151 346.169 371.921 358.209" stroke="#263238" stroke-linecap="round" stroke-linejoin="round"/>
<path d="M394 333.3C394 333.3 394.36 325.72 404 321.75" stroke="#263238" stroke-linecap="round" stroke-linejoin="round"/>
<path d="M392.181 344.61L400.481 343.1" stroke="#263238" stroke-linecap="round" stroke-linejoin="round"/>
<path d="M391.65 356C391.65 356 407.28 359.91 412.7 365.86" stroke="#263238" stroke-linecap="round" stroke-linejoin="round"/>
<path d="M384.19 405.67L387.06 353.97" stroke="#263238" stroke-width="2" stroke-linecap="round" stroke-linejoin="round"/>
<path d="M380.55 406.239C381.16 362.739 374.94 305.899 338.29 305.899" stroke="#263238" stroke-width="2" stroke-linecap="round" stroke-linejoin="round"/>
<path d="M301.57 333.76C308.14 329.88 315.41 329.76 318.97 325.69C322.53 321.62 315.54 319.52 311.8 321.06C308.06 322.6 299.39 327.06 297.74 328.06C296.09 329.06 297.24 314.84 300.28 309.49C303.32 304.14 311.66 301.03 315.82 305.4C324.6 314.62 338.29 302.53 337.36 295.32C336.43 288.11 343.15 280.37 357.59 284.91C372.03 289.45 366.64 291.97 366.64 291.97C366.64 291.97 356.39 298.26 349.82 302.14C343.25 306.02 332.36 309.36 334.7 312.19C337.04 315.02 343.33 313.3 348.6 309.07C353.87 304.84 368.98 294.8 370.53 298.54C372.08 302.28 377.53 312.59 377.53 312.59C370.841 313.621 364.226 315.091 357.73 316.99C348.94 319.75 347.14 324.58 354.01 324.99C360.88 325.4 373.36 320.2 377.24 326.77C381.12 333.34 378.47 350.21 378.47 350.21C378.47 350.21 365.89 341.69 359.47 341.72C353.05 341.75 357.16 345.3 364.33 349.93C367.441 351.835 370.445 353.908 373.33 356.14L366.8 372.86C366.8 372.86 356.01 371.48 351.8 371.78L347.54 372.08C347.54 372.08 347.54 354.54 342.54 349.33C337.54 344.12 336.61 356.17 335.54 359.24C334.47 362.31 337.69 371.49 337.69 371.49C337.69 371.49 325.23 364.67 321.19 361.96L317.19 359.25C317.19 359.25 321.85 346.52 325.01 342.87C328.17 339.22 332.49 339.78 328.85 336.61C325.21 333.44 319.76 335.12 316.65 339.61C313.54 344.1 309.89 352.92 309.89 352.92C309.89 352.92 305.24 353.68 299.2 346.83C293.16 339.98 295 337.65 301.57 333.76ZM358.68 353.08C363.51 350.67 352.05 345.84 352.05 345.84C347.82 345.23 353.86 355.49 358.68 353.08ZM350.55 330.55C352.61 329.55 346.44 327.46 346.44 327.46C337.52 329.18 348.5 331.58 350.55 330.55Z" fill="#006231"/>
<path d="M358.811 365.37C360.071 366.703 361.361 367.993 362.681 369.24" stroke="#263238" stroke-linecap="round" stroke-linejoin="round"/>
<path d="M334.051 327.819C338.661 337.439 345.651 349.989 354.841 360.909" stroke="#263238" stroke-linecap="round" stroke-linejoin="round"/>
<path d="M331.81 323C328.92 316.53 327.43 312.26 327.43 312.26C327.43 312.26 322.05 314.78 316.82 313.44C313.74 312.627 310.511 312.562 307.4 313.25" stroke="#263238" stroke-linecap="round" stroke-linejoin="round"/>
<path d="M337.06 321.42C335.7 320.23 356.77 309.76 356.77 309.76" stroke="#263238" stroke-linecap="round" stroke-linejoin="round"/>
<path d="M326 327.76C326 327.76 316 331.89 310.48 338.27" stroke="#263238" stroke-linecap="round" stroke-linejoin="round"/>
<path d="M339.271 334.519C344.614 333.617 350.033 333.235 355.451 333.379C360.893 333.443 366.292 334.361 371.451 336.099" stroke="#263238" stroke-linecap="round" stroke-linejoin="round"/>
<path d="M336.74 341.12C336.74 341.12 325.74 348.32 325.9 357.29" stroke="#263238" stroke-linecap="round" stroke-linejoin="round"/>
<path d="M416.911 317.73C416.911 317.73 423.551 322.56 427.771 317.73C431.991 312.9 426.001 303.25 432.001 299.62C438.001 295.99 447.691 302.62 447.691 302.62C447.691 302.62 439.841 304.43 439.841 308.62C439.841 312.81 443.461 314.62 444.071 312.84C444.681 311.06 448.891 301.98 454.931 306.2C456.672 307.374 458.158 308.888 459.299 310.651C460.44 312.415 461.213 314.39 461.571 316.46C461.571 316.46 447.081 314.05 445.881 319.46C444.681 324.87 451.881 318.86 457.951 318.86C464.021 318.86 469.411 320.06 468.811 323.68C468.485 326.891 468.485 330.128 468.811 333.34C468.811 333.34 463.981 328.51 457.341 328.51C450.701 328.51 450.701 332.74 456.741 332.74C462.781 332.74 467.601 338.74 467.601 338.74C467.601 338.74 461.601 347.74 454.331 352.02C447.061 356.3 444.671 354.43 444.071 350.81C443.471 347.19 445.881 338.14 441.651 338.14C437.421 338.14 447.651 354.43 442.261 355.04C436.871 355.65 432.601 353.83 431.391 350.21L430.191 346.59C430.191 346.59 432.601 337.64 432.001 334C431.401 330.36 430.191 334 429.001 338.23C427.811 342.46 426.581 352.71 424.771 352.11C422.961 351.51 417.531 343.66 416.331 340.64C415.131 337.62 424.771 329.18 424.771 327.37C424.771 325.56 417.531 328.57 416.331 330.37C415.451 331.736 414.643 333.148 413.911 334.6C413.911 334.6 409.691 331.6 410.291 323.13C410.891 314.66 416.911 317.73 416.911 317.73Z" fill="#006231"/>
<path d="M450.721 339.62C446.551 333.79 440.361 325.87 435.011 321.95" stroke="#263238" stroke-linecap="round" stroke-linejoin="round"/>
<path d="M455.53 346.7C455.53 346.7 454.47 345.02 452.74 342.51" stroke="#263238" stroke-linecap="round" stroke-linejoin="round"/>
<path d="M432 323.16C432 323.16 424.75 332.16 422.94 341.87" stroke="#263238" stroke-linecap="round" stroke-linejoin="round"/>
<path d="M439.241 329.2C439.241 329.2 437.431 327.99 437.431 340.06" stroke="#263238" stroke-linecap="round" stroke-linejoin="round"/>
<path d="M435 317.73C435 317.73 431.38 314.11 433.8 307.47" stroke="#263238" stroke-linecap="round" stroke-linejoin="round"/>
<path d="M439.841 323.759L442.861 318.939" stroke="#263238" stroke-linecap="round" stroke-linejoin="round"/>
<path d="M445.271 329.2C445.271 329.2 454.331 323.2 459.761 323.2" stroke="#263238" stroke-linecap="round" stroke-linejoin="round"/>
<path opacity="0.2" d="M280 34.7803H58V327.12H280V34.7803Z" fill="black"/>
<path d="M273 26.7803H51V319.12H273V26.7803Z" fill="white" stroke="#263238" stroke-linecap="round" stroke-linejoin="round"/>
<path d="M214.6 114.591H63V80.5205H259.72V114.591H218.26" stroke="#263238" stroke-linecap="round" stroke-linejoin="round"/>
<path d="M75.28 154.89H63V137.28H170.38" stroke="#263238" stroke-linecap="round" stroke-linejoin="round"/>
<path d="M175.04 137.28H259.72V154.89H78.6104" stroke="#263238" stroke-linecap="round" stroke-linejoin="round"/>
<path d="M228.9 190.53H63V172.92H259.72V190.53H232.56" stroke="#263238" stroke-linecap="round" stroke-linejoin="round"/>
<path d="M113.86 297.04H63V207.36H259.72V297.04H118.84" stroke="#263238" stroke-linecap="round" stroke-linejoin="round"/>
<path d="M259.72 207.36H63V223.03H259.72V207.36Z" fill="#F6B325" stroke="#263238" stroke-linecap="round" stroke-linejoin="round"/>
<path d="M156.51 115.25V137.31H63V114.59" stroke="#263238" stroke-linecap="round" stroke-linejoin="round"/>
<path d="M259.72 92.6104H63V102.5H259.72V92.6104Z" fill="#F6B325" stroke="#263238" stroke-linecap="round" stroke-linejoin="round"/>
<path d="M194.41 81.4404V92.6604" stroke="#263238" stroke-linecap="round" stroke-linejoin="round"/>
<path d="M219.7 83.3203H206.3V89.8703H219.7V83.3203Z" fill="#D1D1D1" stroke="#263238" stroke-linecap="round" stroke-linejoin="round"/>
<path d="M163.1 102.811V114.701" stroke="#263238" stroke-linecap="round" stroke-linejoin="round"/>
<path d="M204.23 102.811V114.701" stroke="#263238" stroke-linecap="round" stroke-linejoin="round"/>
<path d="M99.1904 137.31V114.75" stroke="#263238" stroke-linecap="round" stroke-linejoin="round"/>
<path d="M122.09 137.31V114.75" stroke="#263238" stroke-linecap="round" stroke-linejoin="round"/>
<path d="M147.06 137.42V154.58" stroke="#263238" stroke-linecap="round" stroke-linejoin="round"/>
<path d="M193.96 137.181V190.231" stroke="#263238" stroke-linecap="round" stroke-linejoin="round"/>
<path d="M63 154.891V172.941H194.03" stroke="#263238" stroke-linecap="round" stroke-linejoin="round"/>
<path d="M112.35 155.021V172.381" stroke="#263238" stroke-linecap="round" stroke-linejoin="round"/>
<path d="M248.19 237.63H259.82" stroke="#263238" stroke-linecap="round" stroke-linejoin="round"/>
<path d="M63.2695 237.63H243.86" stroke="#263238" stroke-linecap="round" stroke-linejoin="round"/>
<path d="M63.2695 251.79H259.82" stroke="#263238" stroke-linecap="round" stroke-linejoin="round"/>
<path d="M123.83 265.891H259.82" stroke="#263238" stroke-linecap="round" stroke-linejoin="round"/>
<path d="M63.2695 265.891H118.84" stroke="#263238" stroke-linecap="round" stroke-linejoin="round"/>
<path d="M100.7 241.53H94.0498V248.18H100.7V241.53Z" fill="#D1D1D1" stroke="#263238" stroke-linecap="round" stroke-linejoin="round"/>
<path d="M138.85 241.53H132.2V248.18H138.85V241.53Z" fill="#D1D1D1" stroke="#263238" stroke-linecap="round" stroke-linejoin="round"/>
<path d="M112.5 255.101H105.85V261.751H112.5V255.101Z" fill="#D1D1D1" stroke="#263238" stroke-linecap="round" stroke-linejoin="round"/>
<path d="M148.97 255.101H142.32V261.751H148.97V255.101Z" fill="#D1D1D1" stroke="#263238" stroke-linecap="round" stroke-linejoin="round"/>
<path d="M183.83 255.101H177.18V261.751H183.83V255.101Z" fill="#D1D1D1" stroke="#263238" stroke-linecap="round" stroke-linejoin="round"/>
<path d="M219.23 255.101H212.58V261.751H219.23V255.101Z" fill="#D1D1D1" stroke="#263238" stroke-linecap="round" stroke-linejoin="round"/>
<path d="M102.77 251.91V266.02" stroke="#263238" stroke-linecap="round" stroke-linejoin="round"/>
<path d="M138.44 251.91V266.02" stroke="#263238" stroke-linecap="round" stroke-linejoin="round"/>
<path d="M174.1 251.91V266.02" stroke="#263238" stroke-linecap="round" stroke-linejoin="round"/>
<path d="M209.76 251.91V266.02" stroke="#263238" stroke-linecap="round" stroke-linejoin="round"/>
<path d="M63.2695 280.271H259.82" stroke="#263238" stroke-linecap="round" stroke-linejoin="round"/>
<path d="M88.1002 269.48H81.4502V276.13H88.1002V269.48Z" fill="#D1D1D1" stroke="#263238" stroke-linecap="round" stroke-linejoin="round"/>
<path d="M148.97 269.48H142.32V276.13H148.97V269.48Z" fill="#D1D1D1" stroke="#263238" stroke-linecap="round" stroke-linejoin="round"/>
<path d="M183.83 269.48H177.18V276.13H183.83V269.48Z" fill="#D1D1D1" stroke="#263238" stroke-linecap="round" stroke-linejoin="round"/>
<path d="M228.75 269.48H222.1V276.13H228.75V269.48Z" fill="#D1D1D1" stroke="#263238" stroke-linecap="round" stroke-linejoin="round"/>
<path d="M78.3701 266.29V280.25" stroke="#263238" stroke-linecap="round" stroke-linejoin="round"/>
<path d="M138.44 266.29V280.25" stroke="#263238" stroke-linecap="round" stroke-linejoin="round"/>
<path d="M174.1 266.29V280.25" stroke="#263238" stroke-linecap="round" stroke-linejoin="round"/>
<path d="M219.28 266.29V280.25" stroke="#263238" stroke-linecap="round" stroke-linejoin="round"/>
<path d="M142.18 50.4003V52.8203H136.69V63.1603H134V39.2803H143.49V41.7003H136.67V50.4003H142.18Z" fill="#263238"/>
<path d="M145.42 45.0498C145.42 41.3998 147.22 39.0498 150.87 39.0498C154.52 39.0498 156.36 41.4098 156.36 45.0498V57.3898C156.36 61.0098 154.56 63.3898 150.87 63.3898C147.18 63.3898 145.42 60.9998 145.42 57.3898V45.0498ZM148 57.5298C148 59.7098 148.92 60.9798 150.83 60.9798C152.74 60.9798 153.66 59.7098 153.66 57.5298V44.9098C153.66 42.7598 152.78 41.4598 150.83 41.4598C148.88 41.4598 148 42.7598 148 44.9098V57.5298Z" fill="#263238"/>
<path d="M164.21 39.2803C167.96 39.2803 169.53 41.1903 169.53 44.7403V46.6803C169.53 49.3103 168.61 50.9503 166.53 51.6003C168.71 52.2403 169.53 54.0203 169.53 56.6003V60.3203C169.452 61.3018 169.617 62.2875 170.01 63.1903H167.32C166.94 62.2735 166.786 61.279 166.87 60.2903V56.5103C166.87 53.8103 165.61 52.9603 163.39 52.9603H161.52V63.1603H158.86V39.2803H164.21ZM163.53 50.5403C165.64 50.5403 166.9 49.8603 166.9 47.2603V45.0003C166.9 42.8503 166.12 41.7203 164.14 41.7203H161.55V50.5603L163.53 50.5403Z" fill="#263238"/>
<path d="M181.12 63.1203H178.57L174.57 44.1203V63.1203H172.25V39.2803H176L179.92 58.3503L183.71 39.2803H187.42V63.1603H184.9V44.0003L181.12 63.1203Z" fill="#263238"/>
<path d="M122.83 74.8506H144.49" stroke="#263238" stroke-miterlimit="10"/>
<path d="M63.7402 74.8506H119.18" stroke="#263238" stroke-miterlimit="10"/>
<path d="M161.59 74.8506H209.33" stroke="#263238" stroke-miterlimit="10"/>
<path d="M222.3 74.8506H260.02" stroke="#263238" stroke-miterlimit="10"/>
<path d="M230.94 412.55L305.16 409.5L345.69 458.76L245.6 467.48L230.94 412.55Z" fill="white" stroke="#263238" stroke-linecap="round" stroke-linejoin="round"/>
<path d="M245.93 446.471L326.16 440.881L331.45 447.541L248.16 453.871L245.93 446.471Z" stroke="#263238" stroke-width="0.5" stroke-linecap="round" stroke-linejoin="round"/>
<path d="M243.52 438.471L320.41 433.631L322.86 436.721L244.55 441.881L243.52 438.471Z" stroke="#263238" stroke-width="0.5" stroke-linecap="round" stroke-linejoin="round"/>
<path d="M241.57 432L315.73 427.73L318 430.59L242.51 435.13L241.57 432Z" stroke="#263238" stroke-width="0.5" stroke-linecap="round" stroke-linejoin="round"/>
<path d="M236.56 415.371L303.6 412.451L313.64 425.101L240.7 429.111L236.56 415.371Z" stroke="#263238" stroke-width="0.5" stroke-linecap="round" stroke-linejoin="round"/>
<path d="M239.92 426.521L311.75 422.721L313.64 425.101L240.7 429.111L239.92 426.521Z" fill="#D1D1D1" stroke="#263238" stroke-width="0.5" stroke-linecap="round" stroke-linejoin="round"/>
<path d="M289.33 443.311L286.94 439.081L322.86 436.721L326.16 440.881" stroke="#263238" stroke-width="0.5" stroke-linecap="round" stroke-linejoin="round"/>
<path d="M246.7 449.02L327.99 443.18L329.53 445.11L247.35 451.17L246.7 449.02Z" fill="#D1D1D1" stroke="#263238" stroke-width="0.5" stroke-linecap="round" stroke-linejoin="round"/>
<path d="M277.06 451.461L275.93 449.051" stroke="#263238" stroke-width="0.5" stroke-linecap="round" stroke-linejoin="round"/>
<path d="M265.26 450.461L271.09 450.031L271.71 451.441L265.84 451.891L265.26 450.461Z" fill="#D1D1D1" stroke="#263238" stroke-width="0.5" stroke-linecap="round" stroke-linejoin="round"/>
<path d="M288.02 445.989L286.71 443.609" stroke="#263238" stroke-width="0.5" stroke-linecap="round" stroke-linejoin="round"/>
<path d="M270.77 447.231L269.69 444.791" stroke="#263238" stroke-width="0.5" stroke-linecap="round" stroke-linejoin="round"/>
<path d="M309.23 437.609L312.2 441.819" stroke="#263238" stroke-width="0.5" stroke-linecap="round" stroke-linejoin="round"/>
<path d="M300.43 438.189L303.19 442.449" stroke="#263238" stroke-width="0.5" stroke-linecap="round" stroke-linejoin="round"/>
<path d="M290.67 438.81L288.82 435.68" stroke="#263238" stroke-width="0.5" stroke-linecap="round" stroke-linejoin="round"/>
<path d="M271.92 440.091L267.44 430.561" stroke="#263238" stroke-width="0.5" stroke-linecap="round" stroke-linejoin="round"/>
<path d="M320.41 433.63L318 430.59L268.81 433.55" stroke="#263238" stroke-width="0.5" stroke-linecap="round" stroke-linejoin="round"/>
<path d="M302.04 434.77L300.02 431.77" stroke="#263238" stroke-width="0.5" stroke-linecap="round" stroke-linejoin="round"/>
<path d="M309.96 420.58L239.18 424.19" stroke="#263238" stroke-width="0.5" stroke-linecap="round" stroke-linejoin="round"/>
<path d="M308.35 418.561L238.51 421.991" stroke="#263238" stroke-width="0.5" stroke-linecap="round" stroke-linejoin="round"/>
<path d="M306.8 416.6L237.87 419.86" stroke="#263238" stroke-width="0.5" stroke-linecap="round" stroke-linejoin="round"/>
<path d="M296.05 419.7L298.32 419.59L299.01 420.55L296.72 420.66L296.05 419.7Z" fill="#D1D1D1" stroke="#263238" stroke-width="0.5" stroke-linecap="round" stroke-linejoin="round"/>
<path d="M282.79 420.36L285.12 420.24L285.73 421.22L283.39 421.34L282.79 420.36Z" fill="#D1D1D1" stroke="#263238" stroke-width="0.5" stroke-linecap="round" stroke-linejoin="round"/>
<path d="M290.67 417.96L292.94 417.85L293.59 418.79L291.31 418.9L290.67 417.96Z" fill="#D1D1D1" stroke="#263238" stroke-width="0.5" stroke-linecap="round" stroke-linejoin="round"/>
<path d="M278.08 418.561L280.4 418.451L280.97 419.411L278.64 419.521L278.08 418.561Z" fill="#D1D1D1" stroke="#263238" stroke-width="0.5" stroke-linecap="round" stroke-linejoin="round"/>
<path d="M265.78 419.151L268.15 419.041L268.64 420.011L266.26 420.121L265.78 419.151Z" fill="#D1D1D1" stroke="#263238" stroke-width="0.5" stroke-linecap="round" stroke-linejoin="round"/>
<path d="M253.03 419.76L255.44 419.65L255.86 420.63L253.43 420.75L253.03 419.76Z" fill="#D1D1D1" stroke="#263238" stroke-width="0.5" stroke-linecap="round" stroke-linejoin="round"/>
<path d="M294.96 419.201L293.57 417.211" stroke="#263238" stroke-width="0.5" stroke-linecap="round" stroke-linejoin="round"/>
<path d="M282.61 419.801L281.37 417.781" stroke="#263238" stroke-width="0.5" stroke-linecap="round" stroke-linejoin="round"/>
<path d="M269.99 420.421L268.92 418.371" stroke="#263238" stroke-width="0.5" stroke-linecap="round" stroke-linejoin="round"/>
<path d="M257.09 421.061L256.19 418.971" stroke="#263238" stroke-width="0.5" stroke-linecap="round" stroke-linejoin="round"/>
<path d="M305.26 414.66L237.24 417.75" stroke="#263238" stroke-width="0.5" stroke-linecap="round" stroke-linejoin="round"/>
<path d="M297.5 415.59L299.71 415.49L300.38 416.39L298.17 416.5L297.5 415.59Z" fill="#D1D1D1" stroke="#263238" stroke-width="0.5" stroke-linecap="round" stroke-linejoin="round"/>
<path d="M276.9 416.54L279.18 416.43L279.74 417.36L277.44 417.47L276.9 416.54Z" fill="#D1D1D1" stroke="#263238" stroke-width="0.5" stroke-linecap="round" stroke-linejoin="round"/>
<path d="M264.76 417.09L267.09 416.99L267.58 417.93L265.23 418.04L264.76 417.09Z" fill="#D1D1D1" stroke="#263238" stroke-width="0.5" stroke-linecap="round" stroke-linejoin="round"/>
<path d="M248.75 417.831L251.15 417.721L251.53 418.681L249.12 418.791L248.75 417.831Z" fill="#D1D1D1" stroke="#263238" stroke-width="0.5" stroke-linecap="round" stroke-linejoin="round"/>
<path d="M301.74 416.781L300.31 414.881" stroke="#263238" stroke-width="0.5" stroke-linecap="round" stroke-linejoin="round"/>
<path d="M281.35 417.751L280.17 415.801" stroke="#263238" stroke-width="0.5" stroke-linecap="round" stroke-linejoin="round"/>
<path d="M268.9 418.329L267.87 416.359" stroke="#263238" stroke-width="0.5" stroke-linecap="round" stroke-linejoin="round"/>
<path d="M252.74 419.1L251.92 417.09" stroke="#263238" stroke-width="0.5" stroke-linecap="round" stroke-linejoin="round"/>
<path d="M303.33 456.601L303 456.051L305.36 455.861L303.94 453.551L305.07 453.461L308.42 458.881L304.29 459.231L303.96 458.661L306.96 458.411L305.73 456.411L303.33 456.601Z" fill="#263238"/>
<path d="M302.66 458.001C303.17 458.851 302.66 459.471 301.1 459.611C299.54 459.751 298.36 459.261 297.88 458.401L296.28 455.561C295.82 454.751 296.28 454.151 297.87 454.031C299.46 453.911 300.52 454.371 300.99 455.181L302.66 458.001ZM299.85 455.241C299.669 454.976 299.414 454.772 299.116 454.652C298.819 454.533 298.493 454.505 298.18 454.571C297.35 454.631 297.13 454.951 297.41 455.441L299.06 458.331C299.24 458.607 299.5 458.823 299.805 458.95C300.11 459.077 300.446 459.108 300.77 459.041C301.6 458.971 301.83 458.631 301.54 458.131L299.85 455.241Z" fill="#263238"/>
<path d="M295.17 460C293.5 460.14 292.56 459.74 292.12 458.9L291.87 458.45C291.55 457.84 291.75 457.45 292.57 457.2C292.187 457.224 291.806 457.144 291.466 456.967C291.126 456.791 290.84 456.526 290.64 456.2L290.19 455.36C290.076 455.098 289.884 454.877 289.64 454.73L290.81 454.63C291.047 454.787 291.235 455.009 291.35 455.27L291.81 456.12C292.15 456.74 292.81 456.89 293.81 456.81L294.63 456.75L293.36 454.44L294.5 454.34L297.57 459.84L295.17 460ZM294 457.33C293.08 457.41 292.61 457.61 292.93 458.22L293.22 458.75C293.49 459.26 293.98 459.49 294.86 459.42L296.01 459.33L294.87 457.26L294 457.33Z" fill="#263238"/>
<path d="M284.82 455.08L285.94 454.99L289.94 459.24L287.66 454.84L288.66 454.76L291.56 460.3L289.9 460.44L285.9 456.12L286.45 460.74L284.77 460.88L282.06 455.29L283.16 455.2L285.36 459.66L284.82 455.08Z" fill="#263238"/>
<path d="M332.08 448.721L299.11 451.261" stroke="#263238" stroke-width="0.5" stroke-miterlimit="10"/>
<path d="M291.88 451.82L271.2 453.41" stroke="#263238" stroke-width="0.5" stroke-miterlimit="10"/>
<path d="M265.45 453.859L248.41 455.169" stroke="#263238" stroke-width="0.5" stroke-miterlimit="10"/>
<path d="M300 255.33C292.904 257.431 285.991 260.106 279.33 263.33C268.33 268.67 246.67 276.67 236.33 280.67C225.99 284.67 219.67 295 217.67 300C215.67 305 207 326.33 207 326.33C207 326.33 188.67 355 184 362C179.33 369 173 378.67 172.67 387.67C172.34 396.67 177.33 401.67 189 401.67C200.67 401.67 205.67 397.67 211.33 391.67C216.99 385.67 235.33 356.33 238 353C240.67 349.67 248 337 248 337C248 337 251.67 370 251.67 380.33V404.67H356.67C356.67 404.67 361.67 368 362.67 365C363.67 362 371.33 340.33 371.33 340.33C371.33 340.33 399 385 403.62 391C408.24 397 421.43 409.64 434.35 404.58C447.27 399.52 444.62 385.66 437.62 369C430.62 352.34 418.33 324 418.33 322.65C418.33 321.3 413.33 301.65 393 286.31C372.67 270.97 352.67 267.31 348 264.98C343.33 262.65 328.33 255.33 300 255.33Z" fill="#006231" stroke="#263238" stroke-linecap="round" stroke-linejoin="round"/>
<path d="M234.67 315.33L247.67 335.67C247.67 335.67 237 324.67 230.33 323" stroke="#263238" stroke-linecap="round" stroke-linejoin="round"/>
<path d="M247.67 335.67L240 333C240 333 233 329 227.33 330.67" stroke="#263238" stroke-linecap="round" stroke-linejoin="round"/>
<path d="M287.54 287C288.29 292.49 290.02 299.31 294 304" stroke="#263238" stroke-linecap="round" stroke-linejoin="round"/>
<path d="M287 278C287 278 286.93 279.91 287.11 282.79" stroke="#263238" stroke-linecap="round" stroke-linejoin="round"/>
<path d="M290.65 308C291.589 308.959 292.592 309.855 293.65 310.68" stroke="#263238" stroke-linecap="round" stroke-linejoin="round"/>
<path d="M281.33 293C283.15 297.935 285.836 302.507 289.26 306.5" stroke="#263238" stroke-linecap="round" stroke-linejoin="round"/>
<path d="M347.17 367.48C344.9 371.17 342.75 374.15 341 375.67" stroke="#263238" stroke-linecap="round" stroke-linejoin="round"/>
<path d="M364 334.33C364 334.33 356.25 351.85 349 364.33" stroke="#263238" stroke-linecap="round" stroke-linejoin="round"/>
<path d="M329.92 378.45C328.92 379.66 328.15 380.67 327.67 381.33" stroke="#263238" stroke-linecap="round" stroke-linejoin="round"/>
<path d="M342.67 363.33C342.67 363.33 336.53 370.47 332 376" stroke="#263238" stroke-linecap="round" stroke-linejoin="round"/>
<path d="M371.33 340.33C371.33 340.33 386 317 386.67 315" stroke="#263238" stroke-linecap="round" stroke-linejoin="round"/>
<path d="M382.55 331.34C386.91 327.81 393.46 323.34 400 322" stroke="#263238" stroke-linecap="round" stroke-linejoin="round"/>
<path d="M377.33 336C377.33 336 378.52 334.77 380.52 333" stroke="#263238" stroke-linecap="round" stroke-linejoin="round"/>
<path d="M395.67 318.33C391.452 320.529 387.437 323.096 383.67 326" stroke="#263238" stroke-linecap="round" stroke-linejoin="round"/>
<path d="M401.67 367.67C404.515 366.319 407.653 365.703 410.797 365.878C413.942 366.052 416.992 367.013 419.67 368.67" stroke="#263238" stroke-linecap="round" stroke-linejoin="round"/>
<path d="M404.67 363.33C404.67 363.33 416.33 361 425 366.33" stroke="#263238" stroke-linecap="round" stroke-linejoin="round"/>
<path d="M186 367.331C188.01 365.509 190.394 364.148 192.985 363.343C195.576 362.538 198.311 362.308 201 362.671" stroke="#263238" stroke-linecap="round" stroke-linejoin="round"/>
<path d="M206.64 363.45C207.459 364.035 208.247 364.662 209 365.33" stroke="#263238" stroke-linecap="round" stroke-linejoin="round"/>
<path d="M197.67 359.67C199.58 359.908 201.432 360.484 203.14 361.37" stroke="#263238" stroke-linecap="round" stroke-linejoin="round"/>
<path d="M297.67 264.001C297.67 264.001 294.67 276.671 295.67 286.001C296.67 295.331 307 309.671 315.67 313.001C324.34 316.331 340.33 306.671 346 301.001C351.67 295.331 352 277.331 352 277.331C352 277.331 343.36 258.671 325 253.331C306.64 247.991 297.67 264.001 297.67 264.001Z" fill="white" stroke="#263238" stroke-linecap="round" stroke-linejoin="round"/>
<path d="M366.6 261.39C366.6 261.39 368.34 266.6 364.99 273.19C361.64 279.78 355.17 285.35 353.43 284.78C351.69 284.21 358.84 260.36 358.84 260.36C358.84 260.36 363.59 257.69 366.6 261.39Z" fill="white" stroke="#263238" stroke-linecap="round" stroke-linejoin="round"/>
<path d="M293.06 242.35C293.06 242.35 289.77 246.74 290.86 254.06C291.95 261.38 296.35 268.69 298.18 268.69C300.01 268.69 300.74 243.82 300.74 243.82C300.74 243.82 297.08 239.79 293.06 242.35Z" fill="white" stroke="#263238" stroke-linecap="round" stroke-linejoin="round"/>
<path d="M298.55 251.86C298.55 251.86 295.99 274.18 298.91 283.33C301.83 292.48 307.69 306.74 316.84 310.4C325.99 314.06 346.84 298.33 350.13 292.11C353.42 285.89 362.57 259.55 362.57 259.55C364.976 256.347 366.539 252.591 367.116 248.626C367.692 244.662 367.264 240.616 365.87 236.86C361.11 223.69 335.5 215.64 324.87 216.01C314.24 216.38 303.65 225.16 302.92 232.11C302.19 239.06 298.55 251.86 298.55 251.86Z" fill="white" stroke="#263238" stroke-linecap="round" stroke-linejoin="round"/>
<path d="M322.33 265.4C322.33 265.4 314.28 255.52 306.96 258.82" stroke="#263238" stroke-width="2" stroke-linecap="round" stroke-linejoin="round"/>
<path d="M335.13 269.79C335.13 269.79 346.13 267.23 351.23 271.99" stroke="#263238" stroke-width="2" stroke-linecap="round" stroke-linejoin="round"/>
<path d="M308.06 267.601C308.06 267.601 310.41 274.601 319.95 273.791" stroke="#263238" stroke-linecap="round" stroke-linejoin="round"/>
<path d="M334.4 277.471C334.4 277.471 336.6 282.231 346.84 280.401" stroke="#263238" stroke-linecap="round" stroke-linejoin="round"/>
<path d="M316.37 284.13C316.045 285.612 316.258 287.16 316.97 288.5C318.16 290.29 321.14 292.87 323.33 292.87C325.52 292.87 330.09 292.08 331.28 290.87C332.043 290.086 332.714 289.217 333.28 288.28" stroke="#263238" stroke-linecap="round" stroke-linejoin="round"/>
<path d="M311.4 290.69C311.4 290.69 316.4 296.45 320.55 297.84C324.7 299.23 332.47 296.84 334.66 296.05" stroke="#263238" stroke-linecap="round" stroke-linejoin="round"/>
<path d="M383.86 226.68C383.52 224.28 385.23 220.85 385.57 218.8C385.91 216.75 383.17 212.97 380.78 209.89C378.932 207.425 377.964 204.411 378.03 201.33C378.03 199.27 375.64 197.56 373.58 196.19C371.076 194.523 368.776 192.566 366.73 190.36C365.36 188.65 359.54 188.99 358.51 188.99C357.48 188.99 353.03 185.23 350.29 183.86C347.55 182.49 342.07 184.86 342.07 184.86C342.07 184.86 335.56 181.78 334.19 181.78C332.82 181.78 326.99 184.18 326.99 184.18C325.06 185.008 323.049 185.635 320.99 186.05C320.617 185.953 320.235 185.889 319.85 185.86C319.08 184.86 312.23 188.97 312.23 188.97L306.07 189.97L303.78 193.68C301.59 193.92 296.46 194.74 296.1 197.25C295.64 200.45 296.1 201.82 294.73 203.64C293.36 205.46 288.34 205.01 289.73 209.12C291.12 213.23 294.29 216.43 290.18 218.72C286.07 221.01 283.79 225.11 286.07 227.39C288.35 229.67 290.18 232.87 289.73 234.7C289.28 236.53 288.81 240.64 290.64 241.55C292.253 242.484 293.781 243.555 295.21 244.75L297.49 249.75L298.86 252.95C298.86 252.95 301.14 245.64 302.97 244.73C304.8 243.82 302.97 247.93 306.63 247.93C310.29 247.93 313.93 230.57 316.63 230.11C319.33 229.65 327.63 245.19 335.82 245.19C344.01 245.19 354.13 238 358.25 238C362.37 238 359.16 255.35 359.16 259C359.16 262.65 360.07 266.3 360.07 267.68C360.07 269.06 364.64 261.28 367.84 259.45C368.72 258.95 369.78 258.34 370.89 257.64C370.89 257.8 370.84 257.89 370.84 257.89C370.84 257.89 382.15 250.69 383.52 248.3C384.89 245.91 383.86 243.84 383.86 241.79C383.86 239.74 385.23 238.02 385.57 234.94C385.91 231.86 384.2 229.07 383.86 226.68Z" fill="#263238" stroke="#263238" stroke-linecap="round" stroke-linejoin="round"/>
<path d="M467.59 404.59H27" stroke="#263238" stroke-linecap="round" stroke-linejoin="round"/>
<path d="M419.69 375.44C419.69 375.44 407.2 370.85 398.22 374.44C389.24 378.03 368.16 386.56 353.81 389.25C340.346 391.635 326.661 392.537 313 391.94C300.88 391.49 294.15 393.29 291.46 395.53C288.77 397.77 278.9 410.33 279.79 411.68C280.68 413.03 281.68 413.54 286.08 412.58C287.83 412.19 292.81 406.75 292.81 406.75L301.81 402.75C301.81 402.75 292.39 413.07 293.73 414.41C295.07 415.75 297.32 413.96 299.12 412.62C300.92 411.28 304.5 408.13 304.5 408.13L312.58 404.54C312.58 404.54 304 410.33 304 413C304 415.67 306.09 414.1 309.65 412.68C311.338 411.616 312.945 410.429 314.46 409.13L321.21 407.23C325.569 409.504 330.424 410.658 335.34 410.59C340.479 410.569 345.441 408.718 349.34 405.37C349.34 405.37 380.75 409.86 396.45 408.51C412.15 407.16 431.89 408.96 439.97 403.13C448.05 397.3 437.73 382.04 436.83 380.69" fill="white"/>
<path d="M419.69 375.44C419.69 375.44 407.2 370.85 398.22 374.44C389.24 378.03 368.16 386.56 353.81 389.25C340.346 391.635 326.661 392.537 313 391.94C300.88 391.49 294.15 393.29 291.46 395.53C288.77 397.77 278.9 410.33 279.79 411.68C280.68 413.03 281.68 413.54 286.08 412.58C287.83 412.19 292.81 406.75 292.81 406.75L301.81 402.75C301.81 402.75 292.39 413.07 293.73 414.41C295.07 415.75 297.32 413.96 299.12 412.62C300.92 411.28 304.5 408.13 304.5 408.13L312.58 404.54C312.58 404.54 304 410.33 304 413C304 415.67 306.09 414.1 309.65 412.68C311.338 411.616 312.945 410.429 314.46 409.13L321.21 407.23C325.569 409.504 330.424 410.658 335.34 410.59C340.479 410.569 345.441 408.718 349.34 405.37C349.34 405.37 380.75 409.86 396.45 408.51C412.15 407.16 431.89 408.96 439.97 403.13C448.05 397.3 437.73 382.04 436.83 380.69" stroke="#263238" stroke-linecap="round" stroke-linejoin="round"/>
<path d="M281.87 412.92C281.87 412.92 283.54 408.11 285.21 406.02C286.88 403.93 294.61 398.92 297.33 397.46C298.408 396.836 299.524 396.278 300.67 395.79" stroke="#263238" stroke-linecap="round" stroke-linejoin="round"/>
<path d="M301.76 402.71L309.65 397.46" stroke="#263238" stroke-linecap="round" stroke-linejoin="round"/>
<path d="M312.53 404.5L319.89 400.8" stroke="#263238" stroke-linecap="round" stroke-linejoin="round"/>
<path d="M419.69 375.441C413.02 373.851 403.6 372.291 398.22 374.441C390.22 377.631 372.74 384.701 358.87 388.131C360.835 390.293 361.972 393.081 362.08 396.001C362.237 399.66 361.736 403.318 360.6 406.801C371.17 407.991 386.77 409.371 396.43 408.541C412.13 407.191 431.87 408.991 439.95 403.161C448.03 397.331 437.71 382.071 436.81 380.721" fill="#006231"/>
<path d="M419.69 375.441C413.02 373.851 403.6 372.291 398.22 374.441C390.22 377.631 372.74 384.701 358.87 388.131C360.835 390.293 361.972 393.081 362.08 396.001C362.237 399.66 361.736 403.318 360.6 406.801C371.17 407.991 386.77 409.371 396.43 408.541C412.13 407.191 431.87 408.991 439.95 403.161C448.03 397.331 437.71 382.071 436.81 380.721" stroke="#263238" stroke-linecap="round" stroke-linejoin="round"/>
<path d="M182.8 374.09C183.64 371.82 189.8 366.39 198.09 367.84C206.38 369.29 215.79 378.5 221.17 385.58C226.55 392.66 230.84 394.58 230.84 394.58L224.5 413.95C224.5 413.95 220.6 413.01 213.28 411.15C205.96 409.29 189.58 406.87 182.05 404.53C174.52 402.19 171.31 394.09 172.95 386.53C173.786 382.329 175.217 378.268 177.2 374.47" fill="#006231"/>
<path d="M182.8 374.09C183.64 371.82 189.8 366.39 198.09 367.84C206.38 369.29 215.79 378.5 221.17 385.58C226.55 392.66 230.84 394.58 230.84 394.58L224.5 413.95C224.5 413.95 220.6 413.01 213.28 411.15C205.96 409.29 189.58 406.87 182.05 404.53C174.52 402.19 171.31 394.09 172.95 386.53C173.786 382.329 175.217 378.268 177.2 374.47" stroke="#263238" stroke-linecap="round" stroke-linejoin="round"/>
<path d="M221.17 385.58C220.6 384.84 219.99 384.08 219.35 383.3C214.66 385.17 208.71 388.62 205.56 394.7C202.41 400.78 202.39 405.8 203 409C207 409.76 210.69 410.48 213.26 411.13C220.58 412.99 224.48 413.93 224.48 413.93L230.82 394.56C230.82 394.56 226.54 392.67 221.17 385.58Z" fill="white" stroke="#263238" stroke-linecap="round" stroke-linejoin="round"/>
<path d="M218.58 404.501C218.16 407.501 217.24 410.931 221.58 412.831C225.92 414.731 230.24 419.421 232.97 420.521C236.272 421.786 239.724 422.62 243.24 423.001C246.02 423.181 249.45 424.091 254.9 422.571C260.35 421.051 260.2 419.651 260.2 419.651C260.2 419.651 263.6 419.781 265.28 418.951C266.96 418.121 265.78 416.041 263.74 415.221C261.7 414.401 259.2 413.301 259.2 413.301C259.2 413.301 262.3 410.441 261.52 409.731L260.75 409.021C260.75 409.021 264.33 409.441 264.64 408.301C264.95 407.161 262.7 402.121 261.8 397.881C260.9 393.641 259.01 394.211 255.56 393.531C252.11 392.851 247.41 393.721 241.21 392.401C235.01 391.081 226.03 393.301 222.48 394.241" fill="white"/>
<path d="M218.58 404.501C218.16 407.501 217.24 410.931 221.58 412.831C225.92 414.731 230.24 419.421 232.97 420.521C236.272 421.786 239.724 422.62 243.24 423.001C246.02 423.181 249.45 424.091 254.9 422.571C260.35 421.051 260.2 419.651 260.2 419.651C260.2 419.651 263.6 419.781 265.28 418.951C266.96 418.121 265.78 416.041 263.74 415.221C261.7 414.401 259.2 413.301 259.2 413.301C259.2 413.301 262.3 410.441 261.52 409.731L260.75 409.021C260.75 409.021 264.33 409.441 264.64 408.301C264.95 407.161 262.7 402.121 261.8 397.881C260.9 393.641 259.01 394.211 255.56 393.531C252.11 392.851 247.41 393.721 241.21 392.401C235.01 391.081 226.03 393.301 222.48 394.241" stroke="#263238" stroke-linecap="round" stroke-linejoin="round"/>
<path d="M242.79 375.651L248.45 395.651L252.97 397.801L246.27 374.641C246.2 374.395 246.078 374.167 245.913 373.972C245.748 373.777 245.543 373.619 245.312 373.509C245.082 373.4 244.83 373.34 244.574 373.335C244.319 373.33 244.065 373.38 243.83 373.481C243.421 373.652 243.089 373.968 242.898 374.368C242.706 374.768 242.668 375.224 242.79 375.651Z" fill="#263238"/>
<path d="M246 394.12C246 394.12 255.9 399.4 256.58 399.67C257.05 399.86 261.46 407.23 262.86 410.77C263.51 412.39 262.78 413.32 261.26 414.16L259.21 413.33L246.9 405.58L242.39 403.43" fill="white"/>
<path d="M246 394.12C246 394.12 255.9 399.4 256.58 399.67C257.05 399.86 261.46 407.23 262.86 410.77C263.51 412.39 262.78 413.32 261.26 414.16L259.21 413.33L246.9 405.58L242.39 403.43" stroke="#263238" stroke-linecap="round" stroke-linejoin="round"/>
<path d="M239.09 411.371C239.09 411.371 248.73 417.101 250.76 418.151C252.79 419.201 260.2 419.681 260.2 419.681" stroke="#263238" stroke-linecap="round" stroke-linejoin="round"/>
<path d="M235.48 417C235.48 417 243.57 421.46 245.16 422C246.75 422.54 250.16 423.48 250.16 423.48" stroke="#263238" stroke-linecap="round" stroke-linejoin="round"/>
<path d="M172.84 454.169L209.76 420.209L128.42 414.959L172.84 454.169Z" fill="#CCCCCC" stroke="#263238" stroke-linecap="round" stroke-linejoin="round"/>
<path d="M171.28 447.33L187.9 431.58L168.65 430.42L171.28 447.33Z" fill="#263238" stroke="#263238" stroke-linecap="round" stroke-linejoin="round"/>
<path d="M58.08 358.8L179.85 364.19L172.84 454.17L50 448.24L58.08 358.8Z" fill="#A6A6A6" stroke="#263238" stroke-linecap="round" stroke-linejoin="round"/>
<path d="M50.54 442.25C57.74 441.19 69.89 438.36 90.41 431.72C139.26 415.91 145.41 371.72 179.85 364.19L58.08 358.8L50.54 442.25Z" fill="#263238" stroke="#263238" stroke-linecap="round" stroke-linejoin="round"/>
<path d="M114.12 411.6C119.279 411.6 123.46 408.386 123.46 404.42C123.46 400.455 119.279 397.24 114.12 397.24C108.962 397.24 104.78 400.455 104.78 404.42C104.78 408.386 108.962 411.6 114.12 411.6Z" fill="white" stroke="#263238" stroke-linecap="round" stroke-linejoin="round"/>
</svg>
