<svg width="301" height="301" viewBox="0 0 301 301" fill="none" xmlns="http://www.w3.org/2000/svg">
<g clip-path="url(#clip0_1334_4169)">
<path d="M300.496 229.921H0.496094V230.071H300.496V229.921Z" fill="#EBEBEB"/>
<path d="M51.8447 235.633H31.9727V235.783H51.8447V235.633Z" fill="#EBEBEB"/>
<path d="M108.395 234.007H92.5605V234.157H108.395V234.007Z" fill="#EBEBEB"/>
<path d="M82.0305 239.173H54.4785V239.323H82.0305V239.173Z" fill="#EBEBEB"/>
<path d="M270.437 240.199H257.477V240.349H270.437V240.199Z" fill="#EBEBEB"/>
<path d="M254.561 240.199H235.379V240.349H254.561V240.199Z" fill="#EBEBEB"/>
<path d="M199.894 237.667H166.822V237.817H199.894V237.667Z" fill="#EBEBEB"/>
<path d="M142.696 203.161H26.8419C25.9343 203.16 25.0644 202.798 24.4232 202.156C23.782 201.514 23.4219 200.643 23.4219 199.735V36.8774C23.4298 35.9751 23.7934 35.1122 24.4337 34.4764C25.0741 33.8405 25.9395 33.483 26.8419 33.4814H142.696C143.605 33.4814 144.476 33.8424 145.118 34.4849C145.761 35.1274 146.122 35.9988 146.122 36.9074V199.735C146.122 200.644 145.761 201.516 145.118 202.158C144.476 202.801 143.605 203.161 142.696 203.161ZM26.8419 33.6014C25.9741 33.603 25.1423 33.9489 24.5293 34.5631C23.9162 35.1773 23.5719 36.0096 23.5719 36.8774V199.735C23.5719 200.603 23.9162 201.436 24.5293 202.05C25.1423 202.664 25.9741 203.01 26.8419 203.011H142.696C143.564 203.01 144.397 202.664 145.011 202.05C145.625 201.436 145.97 200.604 145.972 199.735V36.8774C145.97 36.0091 145.625 35.1767 145.011 34.5627C144.397 33.9487 143.564 33.603 142.696 33.6014H26.8419Z" fill="#EBEBEB"/>
<path d="M272.481 203.161H156.621C155.713 203.16 154.843 202.798 154.201 202.156C153.558 201.514 153.197 200.644 153.195 199.735V36.8774C153.205 35.9745 153.57 35.1117 154.211 34.476C154.852 33.8403 155.718 33.483 156.621 33.4814H272.481C273.383 33.4846 274.247 33.8428 274.886 34.4785C275.525 35.1142 275.887 35.9761 275.895 36.8774V199.735C275.895 200.642 275.536 201.512 274.896 202.154C274.256 202.796 273.388 203.158 272.481 203.161ZM156.621 33.6014C155.753 33.603 154.921 33.9487 154.307 34.5627C153.693 35.1767 153.347 36.0091 153.345 36.8774V199.735C153.347 200.604 153.693 201.436 154.307 202.05C154.921 202.664 155.753 203.01 156.621 203.011H272.481C273.35 203.01 274.182 202.664 274.796 202.05C275.41 201.436 275.756 200.604 275.757 199.735V36.8774C275.756 36.0091 275.41 35.1767 274.796 34.5627C274.182 33.9487 273.35 33.603 272.481 33.6014H156.621Z" fill="#EBEBEB"/>
<path d="M96.1054 130.009H133.941V68.5153H96.1054V130.009Z" fill="#EBEBEB"/>
<path d="M91.0546 130.009H132.059V68.5153H91.0546V130.009Z" fill="#F5F5F5"/>
<path d="M128.627 126.571V71.9473H94.493V126.571H128.627Z" fill="white"/>
<path d="M120.352 117.674V80.8516H102.766V117.674H120.352Z" fill="#F5F5F5"/>
<path d="M39.0038 102.368H76.8398L76.8398 40.8737L39.0038 40.8737L39.0038 102.368Z" fill="#EBEBEB"/>
<path d="M33.953 102.368H74.957L74.957 40.8737L33.953 40.8737L33.953 102.368Z" fill="#F5F5F5"/>
<path d="M71.5176 98.9355V44.3115H37.3836V98.9355H71.5176Z" fill="white"/>
<path d="M63.2441 81.2415V61.9995C63.2441 57.1449 59.3087 53.2095 54.4541 53.2095H54.4481C49.5936 53.2095 45.6581 57.1449 45.6581 61.9995V81.2415C45.6581 86.0961 49.5936 90.0315 54.4481 90.0315H54.4541C59.3087 90.0315 63.2441 86.0961 63.2441 81.2415Z" fill="#F5F5F5"/>
<path d="M35.6855 229.921H50.6855L50.6855 167.611H35.6855L35.6855 229.921Z" fill="#E6E6E6"/>
<path d="M38.5297 229.921H35.6797V222.049H41.5177L38.5297 229.921Z" fill="#F0F0F0"/>
<path d="M117.059 229.921H132.059V167.611H117.059V229.921Z" fill="#E6E6E6"/>
<path d="M35.681 226.436H119.543L119.543 167.612H35.681L35.681 226.436Z" fill="#F0F0F0"/>
<path d="M116.693 229.921H119.543V222.049H113.711L116.693 229.921Z" fill="#F0F0F0"/>
<path d="M117.167 174.553V195.163H38.0625V174.553H117.167ZM117.335 174.385H37.8945V195.331H117.335V174.385Z" fill="#FDFEFF"/>
<path d="M117.167 198.889V219.481H38.0625V198.889H117.167ZM117.335 198.715H37.8945V219.667H117.335V198.715Z" fill="#FDFEFF"/>
<path d="M83.2907 177.565H71.9267C71.5729 177.565 71.2226 177.496 70.8957 177.36C70.5689 177.225 70.2719 177.027 70.0217 176.776C69.7715 176.526 69.5731 176.229 69.4377 175.902C69.3023 175.576 69.2327 175.225 69.2327 174.871V174.379H85.9727V174.871C85.9727 175.584 85.6905 176.267 85.1878 176.772C84.6852 177.277 84.0031 177.562 83.2907 177.565Z" fill="#FDFEFF"/>
<path d="M83.2907 201.907H71.9267C71.5729 201.907 71.2226 201.838 70.8957 201.702C70.5689 201.567 70.2719 201.368 70.0217 201.118C69.7715 200.868 69.5731 200.571 69.4377 200.244C69.3023 199.917 69.2327 199.567 69.2327 199.213V198.721H85.9727V199.213C85.9727 199.926 85.6905 200.609 85.1878 201.114C84.6852 201.619 84.0031 201.904 83.2907 201.907Z" fill="#FDFEFF"/>
<path d="M61.8036 154.994L59.6016 153.968V119.768L61.8036 120.794V154.994Z" fill="#E6E6E6"/>
<path d="M58.8573 115.55C61.3713 118.88 61.1673 123.272 61.1673 123.272C61.1673 123.272 56.8953 122.282 54.3693 118.946C51.8433 115.61 52.0593 111.224 52.0593 111.224C52.0593 111.224 56.3433 112.226 58.8573 115.55Z" fill="#E6E6E6"/>
<path d="M58.9118 126.553C61.8578 131.245 61.0778 137.035 61.0778 137.035C61.0778 137.035 55.5278 135.235 52.5818 130.525C49.6358 125.815 50.4158 120.043 50.4158 120.043C50.4158 120.043 55.9658 121.861 58.9118 126.553Z" fill="#E6E6E6"/>
<path d="M63.0151 121.915C60.5011 125.239 60.7051 129.637 60.7051 129.637C60.7051 129.637 64.9892 128.635 67.5092 125.305C70.0292 121.975 69.8192 117.583 69.8192 117.583C69.8192 117.583 65.5351 118.585 63.0151 121.915Z" fill="#E6E6E6"/>
<path d="M62.9612 132.914C60.0212 137.606 60.7952 143.396 60.7952 143.396C60.7952 143.396 66.3512 141.596 69.2912 136.892C72.2312 132.188 71.4632 126.41 71.4632 126.41C71.4632 126.41 65.8952 128.222 62.9612 132.914Z" fill="#E6E6E6"/>
<path d="M53.8967 135.361C59.5667 139.813 61.1567 147.241 61.1567 147.241C61.1567 147.241 53.5787 147.481 47.8967 143.005C42.2147 138.529 40.6367 131.125 40.6367 131.125C40.6367 131.125 48.2507 130.909 53.8967 135.361Z" fill="#E6E6E6"/>
<path d="M59.8172 167.612C65.1572 167.612 69.5732 167.324 69.8792 161.99L70.7672 154.994H48.8672L49.7552 161.99C50.0612 167.324 54.4952 167.612 59.8172 167.612Z" fill="#F0F0F0"/>
<path d="M47.4463 157.879H72.1843L72.8983 148.969H46.7383L47.4463 157.879Z" fill="#F0F0F0"/>
<path d="M151.157 212.018V194.114H163.103V176.204H175.049V158.3H186.995V140.396H198.947V122.492H210.893V104.588H222.839V86.6836H234.785H300.497V229.922H151.157H139.211V212.018H151.157Z" fill="#FAFAFA"/>
<path d="M216.862 212.018V194.114H228.814V176.204H240.76V158.3H252.706V140.396H264.652V122.492H276.604V104.588H288.55V86.6836H300.496V104.588V229.922H216.862H204.916V212.018H216.862Z" fill="#E0E0E0"/>
<path d="M204.916 212.018H138.502V217.388H204.916V212.018Z" fill="#EBEBEB"/>
<path d="M216.861 194.113H150.447V199.483H216.861V194.113Z" fill="#EBEBEB"/>
<path d="M228.814 176.204H162.4V181.574H228.814V176.204Z" fill="#EBEBEB"/>
<path d="M240.76 158.299H174.346V163.669H240.76V158.299Z" fill="#EBEBEB"/>
<path d="M252.707 140.396H186.293V145.766H252.707V140.396Z" fill="#EBEBEB"/>
<path d="M264.652 122.491H198.238V127.861H264.652V122.491Z" fill="#EBEBEB"/>
<path d="M276.598 104.587H210.184V109.957H276.598V104.587Z" fill="#EBEBEB"/>
<path d="M288.551 86.6836H222.137V92.0536H288.551V86.6836Z" fill="#EBEBEB"/>
<path d="M257.926 93.9615L255.4 92.7855V53.5635L257.926 54.7395V93.9615Z" fill="#F5F5F5"/>
<path d="M254.549 48.7276C257.429 52.5436 257.195 57.5836 257.195 57.5836C257.195 57.5836 252.281 56.4316 249.395 52.6156C246.509 48.7996 246.743 43.7656 246.743 43.7656C246.743 43.7656 251.663 44.9116 254.549 48.7276Z" fill="#F5F5F5"/>
<path d="M254.609 61.3453C257.987 66.7453 257.093 73.3453 257.093 73.3453C257.093 73.3453 250.727 71.2813 247.349 65.8813C243.971 60.4813 244.865 53.8813 244.865 53.8813C244.865 53.8813 251.231 55.9633 254.609 61.3453Z" fill="#F5F5F5"/>
<path d="M259.319 56.0235C256.433 59.8395 256.667 64.8795 256.667 64.8795C256.667 64.8795 261.581 63.7335 264.467 59.9175C267.353 56.1015 267.113 51.0615 267.113 51.0615C267.113 51.0615 262.199 52.2075 259.319 56.0235Z" fill="#F5F5F5"/>
<path d="M259.251 68.6412C255.873 74.0412 256.767 80.6412 256.767 80.6412C256.767 80.6412 263.133 78.5532 266.511 73.1772C269.889 67.8012 268.995 61.1772 268.995 61.1772C268.995 61.1772 262.629 63.2592 259.251 68.6412Z" fill="#F5F5F5"/>
<path d="M256.696 104.587C262.816 104.587 267.88 104.257 268.234 98.1432L269.254 90.1152H244.15L245.176 98.1432C245.524 104.281 250.588 104.587 256.696 104.587Z" fill="#E0E0E0"/>
<path d="M242.525 93.4215H270.899L271.709 83.2095H241.715L242.525 93.4215Z" fill="#E0E0E0"/>
<path d="M150.496 257.018C214.746 257.018 266.83 253.977 266.83 250.226C266.83 246.474 214.746 243.434 150.496 243.434C86.2466 243.434 34.1621 246.474 34.1621 250.226C34.1621 253.977 86.2466 257.018 150.496 257.018Z" fill="#F5F5F5"/>
<path d="M82.5938 85.0035C81.9158 88.0035 81.1118 90.9255 80.1938 93.8355C79.7318 95.2875 79.2278 96.7215 78.7059 98.1615C78.4419 98.8815 78.1658 99.5955 77.8838 100.309L77.4458 101.401C77.1631 102.158 76.7304 102.85 76.1738 103.435C75.4389 104.192 74.4753 104.685 73.4318 104.839C72.6271 104.952 71.8073 104.884 71.0318 104.641C70.0185 104.316 69.0658 103.825 68.2118 103.189C66.8704 102.18 65.6377 101.034 64.5338 99.7695C62.4658 97.4398 60.6217 94.9207 59.0258 92.2455C58.7979 91.8797 58.7122 91.4429 58.7851 91.0181C58.858 90.5933 59.0845 90.2101 59.4214 89.9413C59.7583 89.6725 60.1823 89.5369 60.6126 89.5601C61.043 89.5834 61.4499 89.7639 61.7558 90.0675L61.8158 90.1215C62.8418 91.1175 63.8858 92.1795 64.9598 93.1215C66.0338 94.0635 67.0898 95.0835 68.1698 95.9775C69.1716 96.8365 70.2501 97.6017 71.3918 98.2635C71.7604 98.4942 72.1666 98.6587 72.5918 98.7495C72.6938 98.7495 72.6518 98.6895 72.4118 98.7075C72.1116 98.7447 71.8306 98.8747 71.6078 99.0795C71.4338 99.2475 71.4398 99.2835 71.4518 99.1935L71.7518 98.1675L72.3518 96.0675C72.7538 94.6635 73.1258 93.2415 73.5098 91.8315L75.7418 83.3535V83.2995C75.9862 82.4119 76.5667 81.6545 77.3602 81.1878C78.1537 80.7212 79.0978 80.5819 79.9922 80.7997C80.8866 81.0174 81.6611 81.575 82.1512 82.3542C82.6414 83.1334 82.8088 84.0729 82.6178 84.9735L82.5938 85.0035Z" fill="#FFC3BD"/>
<path d="M77.3437 76.5315C73.9837 79.5315 73.2637 88.1835 73.2637 88.1835L83.2957 94.3875C83.2957 94.3875 84.2197 89.5875 84.8617 83.7615C85.5877 77.4435 81.4117 72.8835 77.3437 76.5315Z" fill="#01a809"/>
<path d="M100.216 71.5456C93.2982 71.5096 86.4162 72.3016 79.5462 74.9596C78.0605 75.5552 76.8157 76.6289 76.0083 78.011C75.201 79.3932 74.8772 81.0049 75.0882 82.5916C75.9162 89.0476 78.2142 101.114 84.5922 117.716L108.682 111.116C107.896 107.378 100.99 89.7916 100.216 71.5456Z" fill="#01a809"/>
<path d="M62.195 90.6313L60.605 86.8213L56.375 90.0313C56.375 90.0313 57.125 93.2293 60.269 92.5873L62.195 90.6313Z" fill="#FFC3BD"/>
<path d="M57.0102 85.2913L55.5342 87.2413C55.4166 87.3731 55.3398 87.5363 55.3131 87.711C55.2865 87.8857 55.3112 88.0643 55.3842 88.2253L56.3742 90.0253L60.6042 86.8153L58.5162 84.9313C58.2686 84.7801 57.9712 84.7331 57.689 84.8006C57.4068 84.8681 57.1628 85.0445 57.0102 85.2913Z" fill="#FFC3BD"/>
<path opacity="0.2" d="M97.5215 80.2812C97.6295 82.0333 100.593 89.3232 102.921 90.6552C102.363 88.2072 101.847 85.6332 101.415 82.9692L97.5215 80.2812Z" fill="black"/>
<path d="M87.8136 60.9194C87.9876 64.3634 88.8576 70.5554 91.7556 72.2654C90.3876 74.4374 88.5276 77.0054 84.5856 77.9894C80.6436 78.9734 80.6556 76.1234 81.3456 74.4794C84.8616 72.8054 84.0756 70.0874 82.7796 67.6574L87.8136 60.9194Z" fill="#FFC3BD"/>
<path opacity="0.2" d="M85.7617 63.6675L82.7617 67.6575C83.0735 68.217 83.3345 68.8034 83.5417 69.4095C84.9157 68.9055 86.4877 66.9435 86.2717 65.4375C86.2086 64.8218 86.0359 64.2224 85.7617 63.6675Z" fill="black"/>
<path d="M78.9592 53.6416C81.6892 54.6016 81.1732 56.8276 80.0872 57.8416C81.7852 58.4416 82.9792 60.7156 82.9792 60.7156L80.0992 63.0256C80.0992 63.0256 76.0852 62.8996 75.3832 60.6256C74.6812 58.3516 70.7752 55.6456 75.0052 52.9996C79.2352 50.3536 78.9592 53.6416 78.9592 53.6416Z" fill="#263238"/>
<path d="M87.4955 55.7115C88.2155 60.2835 88.8695 62.9115 87.0995 65.7255C84.4295 69.9255 78.3875 69.0555 76.2995 64.7835C74.4275 60.9315 73.5635 54.1035 77.5955 51.3675C78.4892 50.7608 79.5223 50.3909 80.598 50.2923C81.6736 50.1937 82.7568 50.3696 83.7459 50.8036C84.7351 51.2377 85.5979 51.9156 86.2537 52.774C86.9095 53.6323 87.3367 54.643 87.4955 55.7115Z" fill="#FFC3BD"/>
<path d="M84.2497 52.1354C83.8237 53.6054 79.6177 52.1354 76.6297 53.6114C75.2677 54.2834 73.2037 57.2114 69.4297 55.2314C69.4297 55.2314 71.9977 54.1754 72.3037 52.1114C72.6637 49.7114 73.4077 46.6154 77.6317 47.3774C81.8557 48.1394 82.5577 46.3394 85.2937 46.9574C88.7437 47.7314 90.0277 54.3914 84.2497 52.1354Z" fill="#263238"/>
<path d="M83.399 51.8596C82.097 54.4816 84.047 55.6816 85.547 55.6816C84.773 57.3136 85.499 59.7617 85.499 59.7617L89.171 59.3836C89.171 59.3836 91.949 56.4857 90.845 54.3617C89.741 52.2377 90.647 47.5816 85.775 48.6556C80.903 49.7296 83.399 51.8596 83.399 51.8596Z" fill="#263238"/>
<path d="M84.5449 49.7834C87.0949 48.4814 88.0969 46.6814 88.2109 44.8154C89.5609 47.2454 88.8589 49.8134 84.5449 49.7834Z" fill="#263238"/>
<path d="M90.0829 59.8094C89.7394 60.8569 89.01 61.7343 88.0429 62.2634C86.8069 62.8634 86.0269 61.6634 86.2429 60.2534C86.4289 58.9514 87.2989 57.0614 88.6009 57.0374C89.9029 57.0134 90.5389 58.4714 90.0829 59.8094Z" fill="#FFC3BD"/>
<path d="M80.8066 215.419L86.6506 214.675L87.1966 203.929L80.8606 204.553L80.8066 215.419Z" fill="#FFC3BD"/>
<path d="M91.0597 159.925C97.5217 143.383 103.384 112.567 103.384 112.567L84.6097 117.709C84.6097 117.709 79.9897 146.461 79.5097 160.675C79.0057 175.459 79.4197 207.427 79.4197 207.427H88.3597C88.3597 207.427 92.7637 171.481 91.0597 159.925Z" fill="#263238"/>
<path opacity="0.2" d="M98.8963 127.633C94.1803 132.499 93.4543 142.237 94.1743 150.871C96.4843 143.323 98.5903 134.791 100.204 127.699L98.8963 127.633Z" fill="black"/>
<path d="M79.1867 208.507L88.5707 208.897L89.1828 205.867L78.7188 205.273L79.1867 208.507Z" fill="#01a809"/>
<path d="M81.6407 57.9495C81.7247 58.3215 81.5927 58.6575 81.3527 58.7115C81.1127 58.7655 80.8487 58.5015 80.7527 58.1115C80.6567 57.7215 80.8007 57.4035 81.0407 57.3555C81.2807 57.3075 81.5627 57.5835 81.6407 57.9495Z" fill="#263238"/>
<path d="M77.0685 58.8197C77.1525 59.1917 77.0205 59.5276 76.7805 59.5816C76.5405 59.6356 76.2765 59.3716 76.1805 58.9816C76.0845 58.5916 76.2285 58.2736 76.4685 58.2256C76.7085 58.1776 76.9905 58.4537 77.0685 58.8197Z" fill="#263238"/>
<path d="M77.8413 58.9692C77.652 60.1848 77.2945 61.3681 76.7793 62.4852C77.0652 62.6068 77.3739 62.6654 77.6845 62.6571C77.9951 62.6489 78.3003 62.5739 78.5793 62.4372L77.8413 58.9692Z" fill="#ED847E"/>
<path d="M79.7739 63.6492C80.1947 63.6218 80.6055 63.5086 80.9811 63.3167C81.3566 63.1248 81.689 62.8582 81.9579 62.5332C81.9705 62.5219 81.9804 62.5079 81.9869 62.4922C81.9934 62.4766 81.9963 62.4597 81.9955 62.4428C81.9946 62.4259 81.99 62.4093 81.982 62.3944C81.9739 62.3795 81.9627 62.3666 81.949 62.3565C81.9354 62.3465 81.9196 62.3397 81.903 62.3365C81.8863 62.3333 81.8692 62.3339 81.8528 62.3382C81.8364 62.3424 81.8212 62.3503 81.8082 62.3612C81.7952 62.3721 81.7849 62.3858 81.7779 62.4012C81.4752 62.7577 81.0921 63.0372 80.6602 63.2166C80.2284 63.396 79.76 63.4702 79.2939 63.4332C79.2646 63.4332 79.2365 63.4444 79.2153 63.4645C79.1941 63.4846 79.1814 63.512 79.1799 63.5412C79.179 63.5559 79.1812 63.5706 79.1863 63.5844C79.1914 63.5982 79.1992 63.6108 79.2093 63.6215C79.2194 63.6322 79.2316 63.6407 79.2451 63.6465C79.2586 63.6523 79.2732 63.6552 79.2879 63.6552C79.4498 63.6653 79.6122 63.6633 79.7739 63.6492Z" fill="#263238"/>
<path d="M81.6995 55.8914C81.7341 55.8794 81.7651 55.8587 81.7895 55.8314C81.8292 55.7891 81.8512 55.7334 81.8512 55.6754C81.8512 55.6174 81.8292 55.5617 81.7895 55.5194C81.527 55.2837 81.2121 55.1139 80.8709 55.0242C80.5297 54.9344 80.172 54.9273 79.8275 55.0034C79.7723 55.0201 79.7258 55.0577 79.6979 55.108C79.6699 55.1584 79.6626 55.2177 79.6775 55.2734C79.6943 55.3301 79.7325 55.3781 79.784 55.4072C79.8355 55.4363 79.8963 55.4443 79.9535 55.4294C80.2268 55.3714 80.51 55.3798 80.7794 55.4539C81.0488 55.528 81.2964 55.6657 81.5015 55.8554C81.5289 55.8775 81.5613 55.8924 81.5959 55.8987C81.6305 55.905 81.6661 55.9025 81.6995 55.8914Z" fill="#263238"/>
<path d="M74.4946 57.7874C74.5303 57.779 74.563 57.7612 74.5894 57.7359C74.6157 57.7106 74.6348 57.6786 74.6446 57.6434C74.7138 57.3707 74.8483 57.1191 75.0365 56.91C75.2246 56.7009 75.4608 56.5408 75.7246 56.4434C75.7531 56.4358 75.7797 56.4226 75.8028 56.4044C75.8259 56.3862 75.8451 56.3635 75.8591 56.3377C75.8732 56.3119 75.8818 56.2834 75.8845 56.2541C75.8871 56.2248 75.8838 56.1953 75.8746 56.1674C75.8579 56.1122 75.8204 56.0657 75.77 56.0377C75.7196 56.0097 75.6603 56.0024 75.6046 56.0174C75.2733 56.1315 74.9747 56.3244 74.7343 56.5794C74.494 56.8344 74.3191 57.1439 74.2246 57.4814C74.2116 57.5192 74.2094 57.56 74.2182 57.5991C74.227 57.6382 74.2465 57.674 74.2745 57.7027C74.3025 57.7313 74.3379 57.7516 74.3768 57.7612C74.4157 57.7709 74.4565 57.7695 74.4946 57.7574V57.7874Z" fill="#263238"/>
<path d="M127.534 198.434L132.028 194.624L126.64 185.312L121.666 189.29L127.534 198.434Z" fill="#FFC3BD"/>
<path d="M113.896 157.748C108.598 137.27 117.154 121.418 108.664 111.122L92.7461 115.478C92.7461 115.478 98.6141 147.164 103.588 160.622C108.772 174.608 121.696 192.482 121.696 192.482L129.346 187.826C129.346 187.826 122.098 170.552 113.896 157.748Z" fill="#263238"/>
<path d="M131.009 193.741C131.337 193.63 131.692 193.62 132.026 193.713C132.36 193.806 132.658 193.998 132.881 194.263L136.361 198.205C136.433 198.293 136.486 198.394 136.517 198.503C136.549 198.611 136.558 198.725 136.544 198.838C136.53 198.95 136.493 199.058 136.436 199.156C136.378 199.253 136.302 199.338 136.211 199.405C134.105 200.929 134.483 200.437 132.425 201.877C130.025 203.563 129.875 204.403 126.647 205.807C124.733 206.641 123.689 205.657 124.043 204.817C125.693 200.917 125.843 198.763 126.683 197.767C126.683 197.767 124.061 196.915 124.415 195.367C124.769 193.819 127.619 191.983 128.747 192.607C129.139 192.776 129.472 193.056 129.707 193.412C129.941 193.768 130.067 194.185 130.067 194.611C130.259 194.212 130.596 193.901 131.009 193.741Z" fill="#263238"/>
<path d="M85.7673 213.193C86.1144 213.191 86.4543 213.293 86.7423 213.487C87.0304 213.68 87.2531 213.957 87.3813 214.279L89.4333 219.127C89.4737 219.234 89.4918 219.348 89.4865 219.462C89.4813 219.577 89.4528 219.689 89.4028 219.791C89.3528 219.894 89.2824 219.986 89.1958 220.06C89.1092 220.135 89.0083 220.191 88.8993 220.225C86.4213 220.999 87.8613 220.459 85.4493 221.173C82.6293 222.007 78.2493 224.131 74.9493 225.109C72.9513 225.709 72.0633 223.873 72.7953 223.339C77.4693 219.931 79.2933 216.331 80.3913 215.647C80.3913 215.647 78.1713 214.009 78.9993 212.647C79.8273 211.285 81.0873 210.799 81.9573 211.747C82.2712 212.034 82.495 212.405 82.6015 212.816C82.708 213.227 82.6927 213.661 82.5573 214.063C83.6033 213.691 84.6765 213.4 85.7673 213.193Z" fill="#263238"/>
<path d="M122.135 193.922L130.175 189.068L129.017 186.206L119.963 191.48L122.135 193.922Z" fill="#01a809"/>
<path d="M101.752 73.4293C103.246 74.4553 104.59 75.4873 105.952 76.5613C107.314 77.6353 108.652 78.7573 109.972 79.9033C112.666 82.2399 115.154 84.8055 117.406 87.5713C117.694 87.9193 118.006 88.2913 118.246 88.6813C118.486 89.0713 118.804 89.4433 119.056 89.8393L119.788 91.0393L120.454 92.2393C121.279 93.8126 122.02 95.4289 122.674 97.0813C123.97 100.312 125.009 103.641 125.782 107.035C125.871 107.452 125.808 107.886 125.602 108.259C125.396 108.632 125.063 108.918 124.663 109.064C124.263 109.211 123.824 109.207 123.426 109.055C123.028 108.902 122.699 108.611 122.5 108.235V108.187C120.964 105.259 119.392 102.289 117.76 99.4633C116.932 98.0533 116.098 96.6673 115.222 95.3653C114.374 94.0976 113.433 92.8943 112.408 91.7653C110.228 89.4296 107.888 87.2484 105.406 85.2373C104.152 84.1873 102.868 83.1733 101.578 82.1593C100.288 81.1453 98.9496 80.1434 97.6956 79.2074L97.6475 79.1773C97.2689 78.9075 96.9472 78.5657 96.7007 78.1715C96.4542 77.7773 96.2877 77.3384 96.2109 76.8798C96.134 76.4213 96.1481 75.9521 96.2526 75.499C96.357 75.046 96.5497 74.6179 96.8195 74.2393C97.3646 73.4747 98.191 72.9579 99.1171 72.8027C99.5756 72.7258 100.045 72.7399 100.498 72.8444C100.951 72.9488 101.379 73.1415 101.758 73.4113L101.752 73.4293Z" fill="#FFC3BD"/>
<path d="M100.216 71.5454C104.728 71.6234 109.63 78.6854 109.63 78.6854L105.25 86.8214C101.772 85.656 98.7148 83.492 96.4597 80.5994C92.6617 75.4814 94.7497 71.4554 100.216 71.5454Z" fill="#01a809"/>
<path d="M121.967 106.682L123.221 111.236L128.021 108.236C128.021 108.236 126.383 104.252 124.127 104.78L121.967 106.682Z" fill="#FFC3BD"/>
<path d="M127.468 113.678L128.98 112.352C129.272 112.095 129.464 111.743 129.521 111.359C129.578 110.974 129.497 110.582 129.292 110.252L128.038 108.248L123.238 111.248L125.152 113.528C125.294 113.69 125.467 113.822 125.66 113.918C125.854 114.013 126.064 114.07 126.279 114.083C126.494 114.097 126.71 114.069 126.914 113.999C127.118 113.929 127.307 113.82 127.468 113.678Z" fill="#FFC3BD"/>
<path d="M223.875 97.4833C225.597 92.1313 238.089 101.233 238.941 104.629C239.793 108.025 229.389 110.629 236.163 115.531C242.937 120.433 230.211 118.699 232.755 122.017C235.299 125.335 236.595 132.031 224.355 127.381C212.115 122.731 203.055 117.781 210.855 115.279C218.655 112.777 205.857 108.679 213.807 105.463C221.757 102.247 212.121 98.5813 223.875 97.4833Z" fill="#01a809"/>
<path d="M233.518 133.915C234.202 136.273 235 138.745 235.84 141.115C236.272 142.315 236.722 143.443 237.202 144.559C237.46 145.105 237.706 145.663 237.976 146.179C238.102 146.449 238.24 146.701 238.378 146.941L238.588 147.313L238.642 147.409V147.457C238.496 147.334 238.324 147.248 238.138 147.205C238.007 147.152 237.861 147.152 237.73 147.205C238.035 147.149 238.32 147.014 238.558 146.815C239.48 146.144 240.331 145.38 241.096 144.535C242.776 142.735 244.42 140.707 245.974 138.691L246.01 138.649C246.233 138.362 246.554 138.166 246.911 138.098C247.269 138.03 247.639 138.095 247.952 138.281C248.265 138.466 248.499 138.76 248.611 139.106C248.723 139.452 248.705 139.827 248.56 140.161C247.475 142.686 246.142 145.098 244.582 147.361C243.743 148.602 242.758 149.738 241.648 150.745C240.898 151.423 240.012 151.935 239.05 152.245C238.284 152.481 237.468 152.499 236.692 152.299C235.873 152.07 235.138 151.61 234.574 150.973C234.442 150.835 234.352 150.709 234.244 150.577L234.136 150.421L234.052 150.307L233.734 149.845C233.518 149.533 233.32 149.245 233.134 148.915C232.732 148.315 232.402 147.673 232.06 147.043C231.412 145.789 230.824 144.529 230.302 143.251C229.252 140.716 228.384 138.109 227.704 135.451C227.522 134.693 227.642 133.895 228.039 133.224C228.435 132.553 229.077 132.063 229.829 131.858C230.58 131.652 231.382 131.746 232.065 132.121C232.748 132.496 233.258 133.123 233.488 133.867L233.518 133.915Z" fill="#FF8B7B"/>
<path d="M247.569 141.409L250.227 139.837L247.545 135.889C247.545 135.889 245.397 138.157 245.379 140.431L247.569 141.409Z" fill="#FF8B7B"/>
<path d="M251.253 135.397L251.133 135.277C250.828 134.915 250.395 134.685 249.924 134.635C249.453 134.585 248.982 134.718 248.607 135.007L247.545 135.889L250.227 139.837L251.367 138.763C251.784 138.295 252.004 137.684 251.983 137.058C251.962 136.431 251.7 135.836 251.253 135.397Z" fill="#FF8B7B"/>
<path d="M224.896 130.195C224.968 131.767 225.88 134.845 226.642 137.149C227.194 138.817 227.656 140.071 227.656 140.071L228.574 139.801L236.182 137.539C236.098 133.489 235.708 129.049 231.634 126.529C229.054 124.945 224.752 127.387 224.896 130.195Z" fill="#263238"/>
<path opacity="0.3" d="M226.623 137.149C227.175 138.817 227.637 140.071 227.637 140.071L228.555 139.801C228.621 138.217 228.603 135.703 227.895 134.473C227.283 135.263 226.849 136.176 226.623 137.149Z" fill="black"/>
<path d="M190.617 245.413L195.375 245.869L197.949 234.769L193.191 234.313L190.617 245.413Z" fill="#FF8B7B"/>
<path d="M156.826 232.279L160.792 235.075L168.232 226.693L164.266 223.903L156.826 232.279Z" fill="#FF8B7B"/>
<path d="M161.541 234.643L158.607 230.047C158.56 229.968 158.484 229.909 158.395 229.882C158.306 229.856 158.211 229.863 158.127 229.903L154.251 231.763C154.156 231.817 154.072 231.889 154.005 231.976C153.938 232.062 153.89 232.162 153.863 232.268C153.836 232.374 153.831 232.485 153.848 232.593C153.865 232.701 153.905 232.805 153.963 232.897C155.013 234.487 155.601 235.195 156.885 237.217C157.683 238.465 159.285 241.333 160.353 243.055C161.421 244.777 163.161 243.751 162.855 242.935C161.481 239.269 161.541 237.169 161.733 235.495C161.769 235.198 161.701 234.897 161.541 234.643Z" fill="#263238"/>
<path d="M196.03 244.429H190.3C190.198 244.431 190.1 244.466 190.019 244.529C189.939 244.592 189.882 244.679 189.856 244.777L188.74 249.307C188.713 249.416 188.712 249.53 188.736 249.64C188.76 249.749 188.809 249.852 188.88 249.939C188.95 250.027 189.039 250.097 189.141 250.145C189.242 250.192 189.354 250.216 189.466 250.213C191.482 250.213 192.466 250.075 194.962 250.075C196.51 250.075 200.518 250.225 202.66 250.225C204.802 250.225 205.132 248.107 204.262 247.915C200.35 247.057 198.082 245.869 196.852 244.741C196.627 244.537 196.333 244.426 196.03 244.429Z" fill="#263238"/>
<path opacity="0.2" d="M197.944 234.769L196.51 240.973L191.758 240.493L193.186 234.313L197.944 234.769Z" fill="black"/>
<path opacity="0.2" d="M164.26 223.903L168.232 226.693L164.392 231.013L160.426 228.217L164.26 223.903Z" fill="black"/>
<path d="M200.967 144.337L218.661 152.827C234.357 128.965 232.701 127.351 232.701 127.351C232.701 127.351 229.965 125.233 227.073 123.379C226.635 123.103 226.191 122.827 225.753 122.563C223.172 121.081 220.489 119.784 217.725 118.681C217.317 118.507 216.909 118.345 216.525 118.183C214.321 117.346 212.069 116.641 209.781 116.071C209.091 119.587 208.467 122.551 207.867 125.119C207.087 128.467 206.349 131.119 205.611 133.423C204.357 137.179 202.804 140.829 200.967 144.337Z" fill="#263238"/>
<path opacity="0.3" d="M205.594 133.447C207.652 131.143 210.028 125.479 209.848 123.205L207.85 125.143C207.07 128.491 206.332 131.161 205.594 133.447Z" fill="black"/>
<path d="M221.452 113.725C220.582 115.981 219.34 118.153 217.72 118.705C217.72 118.705 215.794 123.433 221.974 128.731C228.484 125.395 225.753 122.563 225.753 122.563C223.179 120.481 223.99 118.519 226.21 115.663L224.296 113.671C224.173 113.393 223.971 113.158 223.714 112.994C223.458 112.831 223.159 112.746 222.856 112.752C222.552 112.758 222.256 112.853 222.006 113.027C221.757 113.2 221.564 113.443 221.452 113.725Z" fill="#FF8B7B"/>
<path opacity="0.2" d="M224.295 113.671C224.182 113.406 223.997 113.177 223.76 113.012C223.524 112.847 223.245 112.751 222.957 112.736C222.669 112.721 222.382 112.788 222.13 112.927C221.878 113.067 221.669 113.275 221.529 113.527C221.862 115.576 222.814 117.473 224.259 118.963C224.695 117.754 225.35 116.635 226.191 115.663L224.295 113.671Z" fill="black"/>
<path d="M220.095 105.313C219.885 110.149 219.693 112.189 221.811 114.955C224.997 119.113 230.865 118.441 232.491 113.797C233.955 109.597 234.063 102.397 229.653 99.9191C228.694 99.3611 227.606 99.0636 226.496 99.0563C225.387 99.049 224.295 99.332 223.328 99.8773C222.362 100.423 221.555 101.211 220.988 102.165C220.421 103.118 220.113 104.204 220.095 105.313Z" fill="#FF8B7B"/>
<path d="M234.099 106.483C234.109 106.486 234.119 106.486 234.129 106.483C234.162 106.431 234.173 106.369 234.161 106.308C234.148 106.248 234.113 106.195 234.063 106.159C233.774 105.944 233.436 105.802 233.08 105.746C232.723 105.691 232.358 105.724 232.017 105.841C231.96 105.865 231.914 105.911 231.891 105.968C231.867 106.026 231.867 106.09 231.891 106.147C231.915 106.205 231.961 106.25 232.018 106.274C232.075 106.297 232.14 106.297 232.197 106.273C232.469 106.183 232.758 106.16 233.041 106.207C233.323 106.254 233.59 106.369 233.817 106.543C233.863 106.57 233.917 106.578 233.97 106.567C234.022 106.556 234.068 106.526 234.099 106.483Z" fill="#263238"/>
<path d="M222.676 100.819C226.402 106.183 221.434 104.419 222.352 107.419C222.952 109.441 218.35 113.713 217.102 110.113C215.854 106.513 216.604 100.081 222.676 100.819Z" fill="#01a809"/>
<path d="M221.164 100.783C221.836 105.817 226.462 100.513 228.01 103.183C229.558 105.853 237.214 104.299 234.994 101.203C232.774 98.1071 224.056 95.3891 221.164 100.783Z" fill="#01a809"/>
<path d="M218.343 109.375C218.477 110.385 218.998 111.304 219.795 111.937C220.851 112.765 221.859 111.937 221.961 110.665C222.051 109.519 221.613 107.713 220.359 107.383C219.105 107.053 218.187 108.133 218.343 109.375Z" fill="#FF8B7B"/>
<path d="M218.661 152.827C218.661 152.827 213.681 176.905 209.979 195.427C207.033 210.151 198.291 238.249 198.291 238.249L191.295 237.553C191.295 237.553 193.527 204.283 199.911 194.581C199.797 172.981 196.953 151.921 204.507 145.903L218.661 152.827Z" fill="#01a809"/>
<path d="M190.3 235.417L199.498 236.551L198.706 239.659L190.09 238.729L190.3 235.417Z" fill="#263238"/>
<path opacity="0.3" d="M206.26 164.564L199.66 158.228C198.874 165.71 199.402 175.49 199.696 185.87C203.782 178.724 206.812 170.948 206.26 164.564Z" fill="black"/>
<path d="M214.773 151.027C214.773 151.027 201.303 174.595 194.373 192.097C193.536 194.246 192.51 196.316 191.307 198.283C182.907 211.855 166.893 229.537 166.893 229.537L161.775 225.259C161.775 225.259 177.687 195.355 184.053 188.575C188.397 167.893 191.721 149.575 200.949 144.337L214.773 151.027Z" fill="#01a809"/>
<path d="M166.732 231.151L160.096 226.015L161.68 223.069L168.964 229.057L166.732 231.151Z" fill="#263238"/>
<path d="M201.171 143.155L199.659 144.355C199.545 144.445 199.629 144.643 199.839 144.745L218.391 153.655C218.553 153.727 218.715 153.715 218.775 153.619L219.645 152.089C219.711 151.987 219.609 151.825 219.435 151.741L201.495 143.161C201.445 143.135 201.39 143.121 201.333 143.12C201.277 143.119 201.221 143.131 201.171 143.155Z" fill="#01a809"/>
<path opacity="0.2" d="M201.171 143.155L199.659 144.355C199.545 144.445 199.629 144.643 199.839 144.745L218.391 153.655C218.553 153.727 218.715 153.715 218.775 153.619L219.645 152.089C219.711 151.987 219.609 151.825 219.435 151.741L201.495 143.161C201.445 143.135 201.39 143.121 201.333 143.12C201.277 143.119 201.221 143.131 201.171 143.155Z" fill="black"/>
<path d="M202.695 146.341L202.215 146.107C202.119 146.065 202.065 145.981 202.101 145.921L203.253 143.947C203.289 143.887 203.397 143.881 203.487 143.947L203.967 144.181C204.063 144.223 204.117 144.313 204.081 144.367L202.929 146.341C202.896 146.369 202.855 146.384 202.812 146.384C202.769 146.384 202.728 146.369 202.695 146.341Z" fill="#01a809"/>
<path d="M216.963 153.205L216.483 152.971C216.387 152.929 216.339 152.839 216.375 152.785L217.527 150.811C217.563 150.751 217.665 150.745 217.761 150.811L218.241 151.045C218.337 151.087 218.385 151.171 218.355 151.231L217.197 153.205C217.167 153.241 217.059 153.247 216.963 153.205Z" fill="#01a809"/>
<path d="M209.818 149.773L209.338 149.539C209.248 149.497 209.194 149.413 209.23 149.353L210.382 147.379C210.418 147.319 210.52 147.313 210.616 147.379L211.096 147.613C211.192 147.655 211.246 147.739 211.21 147.799L210.058 149.773C210.022 149.809 209.896 149.815 209.818 149.773Z" fill="#01a809"/>
<path d="M226.887 107.569C226.845 107.959 227.013 108.301 227.265 108.337C227.517 108.373 227.751 108.079 227.793 107.689C227.835 107.299 227.661 106.951 227.415 106.921C227.169 106.891 226.929 107.179 226.887 107.569Z" fill="#263238"/>
<path d="M231.219 108.127C231.177 108.517 231.345 108.859 231.597 108.895C231.849 108.931 232.083 108.637 232.125 108.241C232.167 107.845 231.999 107.509 231.747 107.479C231.495 107.449 231.261 107.737 231.219 108.127Z" fill="#263238"/>
<path d="M231.633 107.485L232.581 107.335C232.581 107.335 232.035 108.007 231.633 107.485Z" fill="#263238"/>
<path d="M227.146 110.611C226.957 110.611 226.77 110.587 226.588 110.539C226.225 110.443 225.889 110.265 225.605 110.02C225.322 109.775 225.097 109.468 224.95 109.123C224.617 108.355 224.547 107.499 224.751 106.688C224.955 105.876 225.422 105.154 226.078 104.635C226.368 104.395 226.71 104.227 227.077 104.144C227.445 104.062 227.826 104.066 228.191 104.158C228.556 104.249 228.894 104.426 229.179 104.672C229.463 104.919 229.685 105.229 229.828 105.577C230.176 106.341 230.246 107.203 230.026 108.013C229.836 108.831 229.367 109.557 228.7 110.065C228.254 110.41 227.709 110.602 227.146 110.611ZM227.632 104.371C227.13 104.381 226.644 104.551 226.246 104.857C225.64 105.337 225.21 106.004 225.021 106.753C224.832 107.503 224.896 108.293 225.202 109.003C225.327 109.314 225.523 109.591 225.775 109.811C226.028 110.031 226.328 110.189 226.653 110.27C226.978 110.352 227.317 110.356 227.644 110.282C227.97 110.208 228.274 110.057 228.532 109.843C229.137 109.363 229.568 108.696 229.756 107.947C229.945 107.198 229.882 106.407 229.576 105.697C229.444 105.391 229.246 105.118 228.994 104.898C228.743 104.679 228.445 104.52 228.124 104.431C227.963 104.391 227.798 104.37 227.632 104.371Z" fill="white"/>
<path d="M232.395 111.391C232.263 111.391 232.133 111.375 232.005 111.343C230.805 111.037 230.205 109.363 230.619 107.605C231.033 105.847 232.419 104.659 233.619 104.959C234.819 105.259 235.419 106.939 234.999 108.703C234.811 109.498 234.394 110.22 233.799 110.779C233.423 111.15 232.923 111.369 232.395 111.391ZM233.217 105.193C232.251 105.193 231.255 106.225 230.895 107.671C230.487 109.279 231.015 110.803 232.095 111.067C232.373 111.121 232.66 111.103 232.93 111.016C233.199 110.929 233.442 110.775 233.637 110.569C234.188 110.047 234.572 109.372 234.741 108.631C235.143 107.023 234.615 105.499 233.541 105.235C233.435 105.207 233.326 105.193 233.217 105.193Z" fill="white"/>
<path d="M230.732 107.881C230.71 107.883 230.687 107.878 230.667 107.867C230.647 107.857 230.63 107.841 230.618 107.821C230.456 107.611 230.018 107.749 230.018 107.749C230.001 107.755 229.983 107.758 229.965 107.757C229.946 107.755 229.928 107.751 229.912 107.743C229.895 107.735 229.881 107.723 229.869 107.71C229.857 107.696 229.847 107.68 229.841 107.662C229.836 107.645 229.833 107.627 229.834 107.608C229.835 107.59 229.84 107.572 229.848 107.556C229.856 107.539 229.868 107.525 229.881 107.513C229.895 107.501 229.911 107.491 229.928 107.485C229.928 107.485 230.57 107.275 230.852 107.653C230.878 107.68 230.892 107.716 230.892 107.752C230.892 107.789 230.878 107.825 230.852 107.851C230.817 107.875 230.775 107.886 230.732 107.881Z" fill="white"/>
<path d="M230.325 108.644C230.573 109.577 230.944 110.473 231.429 111.308C231.218 111.426 230.982 111.495 230.74 111.511C230.499 111.526 230.256 111.488 230.031 111.398L230.325 108.644Z" fill="#FF5652"/>
<path d="M228.459 112.771C228.481 112.764 228.501 112.75 228.516 112.732C228.531 112.714 228.54 112.692 228.543 112.669C228.545 112.639 228.536 112.61 228.517 112.587C228.498 112.563 228.471 112.548 228.441 112.543C227.957 112.489 227.493 112.322 227.084 112.056C226.676 111.791 226.335 111.434 226.089 111.013C226.085 110.997 226.077 110.982 226.066 110.969C226.055 110.956 226.041 110.945 226.025 110.939C226.01 110.932 225.993 110.928 225.976 110.929C225.959 110.929 225.942 110.934 225.927 110.941C225.912 110.949 225.899 110.96 225.888 110.974C225.878 110.987 225.871 111.003 225.868 111.02C225.864 111.037 225.864 111.054 225.869 111.07C225.873 111.087 225.881 111.102 225.891 111.115C226.149 111.574 226.513 111.963 226.953 112.251C227.392 112.539 227.895 112.718 228.417 112.771H228.459Z" fill="#263238"/>
<path d="M226.618 106.021C226.655 106.011 226.688 105.99 226.714 105.961C226.902 105.748 227.139 105.582 227.404 105.478C227.669 105.374 227.955 105.334 228.238 105.361C228.267 105.367 228.297 105.368 228.326 105.362C228.356 105.356 228.383 105.344 228.408 105.327C228.433 105.311 228.454 105.289 228.47 105.264C228.486 105.239 228.497 105.211 228.502 105.181C228.513 105.12 228.499 105.057 228.465 105.006C228.43 104.954 228.377 104.918 228.316 104.905C227.96 104.857 227.598 104.897 227.261 105.021C226.924 105.146 226.623 105.351 226.384 105.619C226.35 105.657 226.328 105.704 226.323 105.755C226.318 105.805 226.33 105.856 226.356 105.899C226.383 105.943 226.423 105.976 226.47 105.995C226.517 106.014 226.569 106.017 226.618 106.003V106.021Z" fill="#263238"/>
<path d="M162.369 237.133H162.441C162.548 237.158 162.66 237.154 162.765 237.122C162.87 237.091 162.965 237.032 163.041 236.953C163.095 236.908 163.136 236.851 163.161 236.786C163.186 236.721 163.194 236.65 163.185 236.581C163.089 235.981 161.517 235.249 161.337 235.165C161.316 235.156 161.293 235.153 161.27 235.158C161.248 235.162 161.227 235.173 161.211 235.189C161.195 235.205 161.184 235.226 161.18 235.248C161.175 235.271 161.178 235.294 161.187 235.315C161.397 235.921 161.823 236.911 162.369 237.133ZM161.499 235.519C162.099 235.825 162.915 236.317 162.969 236.641C162.973 236.672 162.968 236.704 162.955 236.732C162.943 236.761 162.923 236.785 162.897 236.803C162.848 236.857 162.786 236.897 162.716 236.919C162.647 236.942 162.572 236.945 162.501 236.929C162.183 236.845 161.817 236.329 161.499 235.519Z" fill="#01a809"/>
<path d="M161.362 235.453C161.902 235.669 163.072 235.783 163.438 235.417C163.501 235.35 163.54 235.265 163.549 235.174C163.559 235.083 163.539 234.992 163.492 234.913C163.454 234.834 163.4 234.764 163.333 234.708C163.265 234.652 163.187 234.611 163.102 234.589C162.436 234.397 161.302 235.189 161.236 235.189C161.22 235.2 161.207 235.216 161.198 235.234C161.19 235.252 161.186 235.271 161.188 235.291C161.188 235.311 161.194 235.331 161.204 235.348C161.215 235.365 161.23 235.378 161.248 235.387L161.362 235.453ZM163.09 234.823C163.178 234.859 163.249 234.928 163.288 235.015C163.354 235.147 163.318 235.213 163.288 235.249C163.054 235.489 162.088 235.465 161.56 235.279C161.994 234.966 162.518 234.802 163.054 234.811L163.09 234.823Z" fill="#01a809"/>
<path d="M198.597 245.371C198.986 245.401 199.374 245.308 199.707 245.107C199.792 245.042 199.861 244.959 199.909 244.863C199.957 244.767 199.982 244.662 199.983 244.555C199.988 244.494 199.976 244.432 199.949 244.377C199.921 244.322 199.879 244.276 199.827 244.243C199.299 243.895 197.373 244.777 196.995 244.957C196.974 244.968 196.956 244.986 196.946 245.007C196.935 245.029 196.931 245.053 196.935 245.077C196.938 245.1 196.949 245.122 196.965 245.139C196.981 245.157 197.002 245.168 197.025 245.173C197.541 245.295 198.068 245.361 198.597 245.371ZM199.479 244.387C199.558 244.38 199.638 244.396 199.707 244.435C199.707 244.435 199.755 244.477 199.755 244.543C199.756 244.617 199.738 244.69 199.705 244.755C199.672 244.821 199.623 244.878 199.563 244.921C199.233 245.179 198.447 245.209 197.415 245.023C198.066 244.705 198.762 244.491 199.479 244.387Z" fill="#01a809"/>
<path d="M197.05 245.179H197.092C197.734 244.915 199.006 243.871 198.892 243.331C198.892 243.211 198.79 243.061 198.496 243.025C197.35 242.893 196.93 244.963 196.912 245.047C196.906 245.068 196.907 245.089 196.914 245.109C196.92 245.129 196.932 245.147 196.948 245.161C196.962 245.171 196.979 245.178 196.997 245.181C197.014 245.184 197.032 245.183 197.05 245.179ZM198.418 243.241H198.496C198.616 243.241 198.682 243.277 198.694 243.349C198.742 243.661 197.866 244.489 197.218 244.849C197.356 244.351 197.734 243.241 198.418 243.241Z" fill="#01a809"/>
<path d="M227.295 106.927L228.243 106.777C228.243 106.777 227.703 107.449 227.295 106.927Z" fill="#263238"/>
<path d="M209.68 124.285C208.528 125.317 207.382 126.217 206.2 127.147C205.018 128.077 203.8 128.947 202.552 129.787C201.287 130.653 199.979 131.454 198.634 132.187C197.164 133.032 195.594 133.687 193.96 134.137L193.816 134.173C193.461 134.26 193.09 134.26 192.736 134.173C191.518 133.864 190.346 133.396 189.25 132.781C188.26 132.242 187.307 131.641 186.394 130.981C185.506 130.329 184.656 129.643 183.844 128.923C183.034 128.185 182.266 127.465 181.51 126.631C181.278 126.37 181.144 126.036 181.132 125.687C181.12 125.338 181.23 124.996 181.443 124.719C181.656 124.442 181.96 124.249 182.3 124.172C182.641 124.095 182.998 124.139 183.31 124.297H183.364C184.234 124.765 185.134 125.281 186.028 125.737C186.922 126.193 187.828 126.661 188.704 127.081C189.58 127.501 190.504 127.885 191.338 128.203C192.111 128.506 192.916 128.719 193.738 128.839L192.538 128.887C193.666 128.443 194.746 127.884 195.76 127.219C196.888 126.505 198.022 125.713 199.144 124.897C200.266 124.081 201.382 123.217 202.492 122.347C203.602 121.477 204.712 120.547 205.768 119.713H205.798C206.406 119.227 207.181 118.996 207.957 119.071C208.733 119.145 209.449 119.519 209.954 120.112C210.46 120.706 210.714 121.472 210.664 122.25C210.614 123.028 210.263 123.756 209.686 124.279L209.68 124.285Z" fill="#FF8B7B"/>
<path d="M184.161 125.665L182.577 122.065L179.463 124.681C179.463 124.681 181.173 127.195 183.099 127.621L184.161 125.665Z" fill="#FF8B7B"/>
<path d="M181.143 119.587L179.991 120.655C179.663 120.96 179.417 121.342 179.276 121.767C179.134 122.192 179.102 122.645 179.181 123.085L179.463 124.693L182.577 122.047L181.143 119.587Z" fill="#FF8B7B"/>
<path d="M209.758 116.095C207.388 115.651 201.994 120.973 201.994 120.973L205.9 129.187C205.9 129.187 212.86 124.987 212.83 121.987C212.806 119.281 212.788 116.665 209.758 116.095Z" fill="#263238"/>
<path d="M178.923 113.695C178.254 113.695 177.592 113.564 176.974 113.307C176.356 113.051 175.795 112.675 175.323 112.201C168.739 105.62 159.811 101.923 150.501 101.923C141.192 101.923 132.264 105.62 125.679 112.201C124.707 113.065 123.441 113.525 122.141 113.487C120.841 113.448 119.605 112.915 118.685 111.995C117.765 111.075 117.232 109.839 117.194 108.539C117.155 107.239 117.615 105.973 118.479 105.001C126.976 96.5073 138.499 91.7358 150.513 91.7358C162.528 91.7358 174.05 96.5073 182.547 105.001C183.26 105.714 183.746 106.622 183.943 107.611C184.139 108.599 184.039 109.624 183.654 110.556C183.269 111.487 182.616 112.284 181.778 112.845C180.94 113.406 179.955 113.706 178.947 113.707L178.923 113.695Z" fill="#01a809"/>
<path opacity="0.4" d="M178.923 113.695C178.254 113.695 177.592 113.564 176.974 113.307C176.356 113.051 175.795 112.675 175.323 112.201C168.739 105.62 159.811 101.923 150.501 101.923C141.192 101.923 132.264 105.62 125.679 112.201C124.707 113.065 123.441 113.525 122.141 113.487C120.841 113.448 119.605 112.915 118.685 111.995C117.765 111.075 117.232 109.839 117.194 108.539C117.155 107.239 117.615 105.973 118.479 105.001C126.976 96.5073 138.499 91.7358 150.513 91.7358C162.528 91.7358 174.05 96.5073 182.547 105.001C183.26 105.714 183.746 106.622 183.943 107.611C184.139 108.599 184.039 109.624 183.654 110.556C183.269 111.487 182.616 112.284 181.778 112.845C180.94 113.406 179.955 113.706 178.947 113.707L178.923 113.695Z" fill="white"/>
<path d="M182.53 169.081C183.394 168.109 183.854 166.844 183.816 165.543C183.778 164.243 183.244 163.007 182.324 162.087C181.405 161.168 180.168 160.634 178.868 160.596C177.568 160.557 176.302 161.017 175.33 161.881C168.721 168.338 159.833 171.929 150.593 171.875C141.354 171.821 132.508 168.127 125.974 161.593C119.441 155.06 115.746 146.214 115.693 136.975C115.639 127.735 119.229 118.847 125.686 112.237C126.55 111.265 127.01 110 126.972 108.699C126.934 107.399 126.4 106.163 125.48 105.243C124.561 104.324 123.324 103.79 122.024 103.752C120.724 103.713 119.458 104.173 118.486 105.037C112.457 111.065 108.251 118.671 106.353 126.982C104.454 135.293 104.939 143.971 107.753 152.018C110.566 160.066 115.593 167.156 122.257 172.473C128.92 177.791 136.949 181.12 145.42 182.077V199.573H135.094C133.742 199.573 132.444 200.111 131.488 201.067C130.532 202.024 129.994 203.321 129.994 204.673C129.994 206.026 130.532 207.323 131.488 208.28C132.444 209.236 133.742 209.773 135.094 209.773H145.396V220.021C145.396 221.374 145.934 222.671 146.89 223.628C147.846 224.584 149.144 225.121 150.496 225.121C151.849 225.121 153.146 224.584 154.102 223.628C155.059 222.671 155.596 221.374 155.596 220.021V209.725H165.898C167.251 209.725 168.548 209.188 169.504 208.232C170.461 207.275 170.998 205.978 170.998 204.625C170.998 203.273 170.461 201.976 169.504 201.019C168.548 200.063 167.251 199.525 165.898 199.525H155.596V182.029C165.787 180.908 175.289 176.34 182.53 169.081Z" fill="#01a809"/>
<path d="M216.575 76.4652C216.578 76.4253 216.578 76.3852 216.575 76.3452C216.575 76.1952 216.575 76.0392 216.575 75.8892C216.575 75.7392 216.575 75.7692 216.575 75.7092C216.575 75.6492 216.575 75.4212 216.533 75.2832C216.536 75.2333 216.536 75.1832 216.533 75.1332C216.467 74.7496 216.356 74.375 216.203 74.0172L216.149 73.9092C216.089 73.7665 216.018 73.6282 215.939 73.4952C215.939 73.4472 215.885 73.4052 215.855 73.3572C215.781 73.2303 215.699 73.108 215.609 72.9912L215.513 72.8652C215.394 72.7076 215.264 72.5592 215.123 72.4212C214.986 72.2817 214.839 72.1514 214.685 72.0312L214.553 71.9352C214.433 71.8452 214.313 71.7672 214.193 71.6892L214.043 71.5992C213.915 71.5261 213.782 71.46 213.647 71.4012L213.521 71.3412C213.168 71.1873 212.797 71.0765 212.417 71.0112H212.249C212.117 71.0112 211.979 70.9752 211.841 70.9692H211.649C211.505 70.9692 211.355 70.9692 211.211 70.9692H211.073C210.871 70.9845 210.671 71.0125 210.473 71.0532L180.323 77.3952C178.999 77.6737 177.84 78.4667 177.101 79.5998C176.361 80.7329 176.103 82.1133 176.381 83.4372C176.659 84.7612 177.452 85.9203 178.586 86.6596C179.719 87.3988 181.099 87.6577 182.423 87.3792L195.785 84.5652L175.343 105.007C175.098 105.252 174.879 105.522 174.689 105.811C174.594 105.95 174.508 106.094 174.431 106.243C174.276 106.536 174.151 106.843 174.059 107.161C173.966 107.477 173.901 107.8 173.867 108.127C173.867 108.291 173.867 108.453 173.867 108.613C173.867 108.781 173.867 108.943 173.867 109.105C173.982 110.283 174.504 111.385 175.343 112.219C181.914 118.809 185.604 127.735 185.604 137.041C185.604 146.347 181.914 155.273 175.343 161.863C174.823 162.325 174.404 162.888 174.11 163.518C173.816 164.147 173.654 164.831 173.633 165.525C173.613 166.22 173.734 166.912 173.991 167.558C174.247 168.203 174.633 168.79 175.125 169.282C175.616 169.773 176.203 170.159 176.849 170.415C177.495 170.672 178.186 170.794 178.881 170.773C179.576 170.753 180.259 170.59 180.889 170.296C181.518 170.002 182.081 169.583 182.543 169.063C190.399 161.184 195.086 150.693 195.712 139.584C196.338 128.475 192.86 117.523 185.939 108.811L202.985 91.7652L200.171 105.127C199.895 106.451 200.156 107.83 200.894 108.962C201.633 110.095 202.79 110.888 204.113 111.169C204.46 111.24 204.814 111.277 205.169 111.277C206.338 111.276 207.472 110.873 208.38 110.136C209.287 109.399 209.914 108.372 210.155 107.227L216.497 77.0712C216.535 76.871 216.561 76.6686 216.575 76.4652Z" fill="#01a809"/>
<path opacity="0.4" d="M216.575 76.4652C216.578 76.4253 216.578 76.3852 216.575 76.3452C216.575 76.1952 216.575 76.0392 216.575 75.8892C216.575 75.7392 216.575 75.7692 216.575 75.7092C216.575 75.6492 216.575 75.4212 216.533 75.2832C216.536 75.2333 216.536 75.1832 216.533 75.1332C216.467 74.7496 216.356 74.375 216.203 74.0172L216.149 73.9092C216.089 73.7665 216.018 73.6282 215.939 73.4952C215.939 73.4472 215.885 73.4052 215.855 73.3572C215.781 73.2303 215.699 73.108 215.609 72.9912L215.513 72.8652C215.394 72.7076 215.264 72.5592 215.123 72.4212C214.986 72.2817 214.839 72.1514 214.685 72.0312L214.553 71.9352C214.433 71.8452 214.313 71.7672 214.193 71.6892L214.043 71.5992C213.915 71.5261 213.782 71.46 213.647 71.4012L213.521 71.3412C213.168 71.1873 212.797 71.0765 212.417 71.0112H212.249C212.117 71.0112 211.979 70.9752 211.841 70.9692H211.649C211.505 70.9692 211.355 70.9692 211.211 70.9692H211.073C210.871 70.9845 210.671 71.0125 210.473 71.0532L180.323 77.3952C178.999 77.6737 177.84 78.4667 177.101 79.5998C176.361 80.7329 176.103 82.1133 176.381 83.4372C176.659 84.7612 177.452 85.9203 178.586 86.6596C179.719 87.3988 181.099 87.6577 182.423 87.3792L195.785 84.5652L175.343 105.007C175.098 105.252 174.879 105.522 174.689 105.811C174.594 105.95 174.508 106.094 174.431 106.243C174.276 106.536 174.151 106.843 174.059 107.161C173.966 107.477 173.901 107.8 173.867 108.127C173.867 108.291 173.867 108.453 173.867 108.613C173.867 108.781 173.867 108.943 173.867 109.105C173.982 110.283 174.504 111.385 175.343 112.219C181.914 118.809 185.604 127.735 185.604 137.041C185.604 146.347 181.914 155.273 175.343 161.863C174.823 162.325 174.404 162.888 174.11 163.518C173.816 164.147 173.654 164.831 173.633 165.525C173.613 166.22 173.734 166.912 173.991 167.558C174.247 168.203 174.633 168.79 175.125 169.282C175.616 169.773 176.203 170.159 176.849 170.415C177.495 170.672 178.186 170.794 178.881 170.773C179.576 170.753 180.259 170.59 180.889 170.296C181.518 170.002 182.081 169.583 182.543 169.063C190.399 161.184 195.086 150.693 195.712 139.584C196.338 128.475 192.86 117.523 185.939 108.811L202.985 91.7652L200.171 105.127C199.895 106.451 200.156 107.83 200.894 108.962C201.633 110.095 202.79 110.888 204.113 111.169C204.46 111.24 204.814 111.277 205.169 111.277C206.338 111.276 207.472 110.873 208.38 110.136C209.287 109.399 209.914 108.372 210.155 107.227L216.497 77.0712C216.535 76.871 216.561 76.6686 216.575 76.4652Z" fill="white"/>
</g>
<defs>
<clipPath id="clip0_1334_4169">
<rect width="300" height="300" fill="white" transform="translate(0.496094 0.481445)"/>
</clipPath>
</defs>
</svg>
