<svg width="301" height="301" viewBox="0 0 301 301" fill="none" xmlns="http://www.w3.org/2000/svg">
<path d="M258.497 40.4028H191.525V110.213H258.497V40.4028Z" fill="#E0E0E0"/>
<path d="M253.96 40.4028H186.988V110.213H253.96V40.4028Z" fill="#FAFAFA"/>
<path d="M253.979 110.237H186.971V40.3848H253.979V110.237ZM187.007 110.195H253.931V40.4268H187.007V110.195Z" fill="#E0E0E0"/>
<path d="M244.954 49.7866H195.988V100.829H244.954V49.7866Z" fill="#FAFAFA"/>
<path d="M195.989 101.171C195.647 101.686 195.244 102.157 194.789 102.575C194.009 103.403 192.911 104.519 191.675 105.731C190.439 106.943 189.311 108.023 188.477 108.791C188.054 109.245 187.578 109.648 187.061 109.991C187.403 109.478 187.806 109.009 188.261 108.593C189.041 107.765 190.145 106.649 191.375 105.431C192.605 104.213 193.745 103.127 194.585 102.365C195.004 101.913 195.475 101.512 195.989 101.171Z" fill="#E0E0E0"/>
<path d="M244.932 101.045C245.445 101.389 245.916 101.792 246.336 102.245C247.164 103.031 248.28 104.129 249.492 105.359C250.704 106.589 251.79 107.723 252.558 108.557C253.012 108.98 253.415 109.455 253.758 109.973C253.246 109.63 252.776 109.227 252.36 108.773C251.532 107.993 250.416 106.889 249.198 105.653C247.98 104.417 246.9 103.253 246.132 102.449C245.677 102.03 245.274 101.559 244.932 101.045Z" fill="#E0E0E0"/>
<path d="M244.822 49.9426C245.168 49.4305 245.57 48.9594 246.022 48.5386C246.808 47.7106 247.906 46.5946 249.136 45.3826C250.366 44.1706 251.5 43.0906 252.334 42.3226C252.757 41.8681 253.233 41.4653 253.75 41.1226C253.407 41.6359 253.004 42.1071 252.55 42.5266C251.764 43.3486 250.666 44.4706 249.43 45.6826C248.194 46.8946 247.06 47.9866 246.226 48.7546C245.809 49.2071 245.338 49.6061 244.822 49.9426Z" fill="#E0E0E0"/>
<path d="M195.857 50.0506C195.342 49.7089 194.871 49.3059 194.453 48.8506C193.625 48.0646 192.509 46.9666 191.297 45.7366C190.085 44.5066 189.005 43.3726 188.237 42.5386C187.783 42.1155 187.38 41.6402 187.037 41.1226C187.549 41.4656 188.018 41.8684 188.435 42.3226C189.263 43.1086 190.385 44.2066 191.597 45.4426C192.809 46.6786 193.901 47.8426 194.669 48.6466C195.122 49.0637 195.521 49.5353 195.857 50.0506Z" fill="#E0E0E0"/>
<path d="M244.822 100.829C244.817 100.747 244.817 100.665 244.822 100.583C244.822 100.409 244.822 100.175 244.822 99.8688C244.822 99.2328 244.822 98.3088 244.822 97.1148C244.822 94.7148 244.792 91.1808 244.768 86.7108C244.768 77.7708 244.714 65.0388 244.672 49.7868L244.864 49.9788H196.036L196.258 49.7568C196.258 68.4948 196.258 86.0208 196.222 100.799L196.036 100.613L231.394 100.709L241.324 100.757H243.952H244.63H244.87C244.799 100.767 244.726 100.767 244.654 100.757H243.994H241.402L231.514 100.805L196.036 100.895H195.85V100.703C195.85 85.9248 195.85 68.3988 195.82 49.6608V49.4448H196.042L244.87 49.4748H245.056V49.6608C245.02 64.9608 244.984 77.7408 244.96 86.7108C244.96 91.1568 244.924 94.6608 244.912 97.0668C244.912 98.2668 244.912 99.1548 244.912 99.7848C244.912 100.085 244.912 100.307 244.912 100.481C244.897 100.6 244.867 100.717 244.822 100.829Z" fill="#E0E0E0"/>
<path d="M228.641 67.1387H212.303V83.4767H228.641V67.1387Z" fill="#EBEBEB"/>
<path d="M123.632 36.8595L116.432 36.8984L116.625 72.7179L123.825 72.679L123.632 36.8595Z" fill="#E0E0E0"/>
<path d="M72.7042 36.9611L54.0625 37.062L54.1695 56.8377L72.8112 56.7369L72.7042 36.9611Z" fill="#EBEBEB"/>
<path d="M91.2609 36.8547L72.6191 36.9556L72.7261 56.7313L91.3679 56.6304L91.2609 36.8547Z" fill="#F5F5F5"/>
<path d="M54.0891 42.5269C66.4891 42.6309 78.8891 42.5729 91.2891 42.3529C91.3416 42.3529 91.392 42.3321 91.4291 42.2949C91.4662 42.2578 91.4871 42.2074 91.4871 42.1549C91.4871 42.1024 91.4662 42.052 91.4291 42.0149C91.392 41.9778 91.3416 41.9569 91.2891 41.9569C78.9051 41.8909 66.4851 41.9569 54.0891 42.1849C54.0492 42.1924 54.0132 42.2136 53.9873 42.2448C53.9614 42.2761 53.9473 42.3154 53.9473 42.3559C53.9473 42.3965 53.9614 42.4358 53.9873 42.467C54.0132 42.4982 54.0492 42.5194 54.0891 42.5269Z" fill="#E0E0E0"/>
<path d="M76.3129 56.4056L42.4434 56.5889L42.5306 72.7046L76.4001 72.5214L76.3129 56.4056Z" fill="#EBEBEB"/>
<path d="M110.276 55.7194L76.4062 56.0581L76.5674 72.1741L110.437 71.8354L110.276 55.7194Z" fill="#F5F5F5"/>
<path d="M42.4601 61.0726C64.966 61.3246 87.544 61.0726 110.044 60.7366C110.097 60.7366 110.147 60.7158 110.184 60.6786C110.221 60.6415 110.242 60.5911 110.242 60.5386C110.242 60.4861 110.221 60.4357 110.184 60.3986C110.147 60.3615 110.097 60.3406 110.044 60.3406C87.544 60.2206 64.966 60.2386 42.466 60.7306C42.4262 60.7381 42.3902 60.7593 42.3643 60.7905C42.3384 60.8218 42.3242 60.8611 42.3242 60.9016C42.3242 60.9422 42.3384 60.9815 42.3643 61.0127C42.3902 61.0439 42.4262 61.0651 42.466 61.0726H42.4601Z" fill="#E0E0E0"/>
<path d="M161.015 72.7065H29.7949V78.4785H161.015V72.7065Z" fill="#E0E0E0"/>
<path d="M56.6092 75.4785H51.2812V95.1765H56.6092V75.4785Z" fill="#E0E0E0"/>
<path d="M136.127 75.4785H130.799V95.1765H136.127V75.4785Z" fill="#E0E0E0"/>
<path d="M130.657 23.5016L123.457 23.5405L123.724 72.8058L130.923 72.7668L130.657 23.5016Z" fill="#EBEBEB"/>
<path d="M141.903 32.6748L130.719 32.7354L130.935 72.6588L142.119 72.5983L141.903 32.6748Z" fill="#F5F5F5"/>
<path d="M141.827 40.3727C141.827 40.4807 139.319 40.5707 136.229 40.5707C133.139 40.5707 130.637 40.4807 130.637 40.3727C130.637 40.2647 133.145 40.1807 136.229 40.1807C139.313 40.1807 141.827 40.2647 141.827 40.3727Z" fill="#E0E0E0"/>
<path d="M141.827 38.6985C141.827 38.8065 139.319 38.8905 136.229 38.8905C133.139 38.8905 130.637 38.8065 130.637 38.6985C130.637 38.5905 133.145 38.5005 136.229 38.5005C139.313 38.5005 141.827 38.5905 141.827 38.6985Z" fill="#E0E0E0"/>
<path d="M141.827 66.5987C141.827 66.7067 139.319 66.7967 136.229 66.7967C133.139 66.7967 130.637 66.7067 130.637 66.5987C130.637 66.4907 133.145 66.4067 136.229 66.4067C139.313 66.4067 141.827 66.4907 141.827 66.5987Z" fill="#E0E0E0"/>
<path d="M141.827 64.9426C141.827 65.0506 139.319 65.1346 136.229 65.1346C133.139 65.1346 130.637 65.0506 130.637 64.9426C130.637 64.8346 133.145 64.7446 136.229 64.7446C139.313 64.7446 141.827 64.8166 141.827 64.9426Z" fill="#E0E0E0"/>
<path d="M136.409 61.2646C136.307 61.2646 136.217 57.2326 136.217 52.2646C136.217 47.2966 136.307 43.2646 136.409 43.2646C136.511 43.2646 136.607 47.2906 136.607 52.2646C136.607 57.2386 136.517 61.2646 136.409 61.2646Z" fill="#E0E0E0"/>
<path d="M154.121 42.4849H141.947V72.6229H154.121V42.4849Z" fill="#EBEBEB"/>
<path d="M129.017 31.9426C129.017 32.352 128.896 32.7522 128.668 33.0926C128.441 33.433 128.117 33.6983 127.739 33.855C127.361 34.0117 126.945 34.0527 126.543 33.9728C126.142 33.8929 125.773 33.6958 125.483 33.4063C125.194 33.1168 124.997 32.7479 124.917 32.3464C124.837 31.9449 124.878 31.5286 125.035 31.1504C125.191 30.7722 125.457 30.4489 125.797 30.2214C126.137 29.994 126.538 29.8726 126.947 29.8726C127.495 29.8741 128.021 30.0927 128.409 30.4806C128.797 30.8685 129.015 31.394 129.017 31.9426Z" fill="#E0E0E0"/>
<path d="M127.583 37.6128H126.305V66.9228H127.583V37.6128Z" fill="#E0E0E0"/>
<path d="M194.189 94.4928C193.417 93.2523 192.917 91.8623 192.722 90.4144C192.526 88.9665 192.64 87.4936 193.055 86.0928C193.61 84.4681 194.401 82.9337 195.401 81.5388C196.449 79.8304 197.783 78.3144 199.343 77.0568C198.671 77.6568 199.589 76.8708 199.343 77.0568C199.625 76.7868 199.997 75.2568 200.171 74.8848C201.083 73.0848 201.737 72.5448 202.367 72.3468C203.243 72.0242 204.15 71.7949 205.073 71.6628C206.321 71.4768 208.439 72.3588 209.489 73.0548C209.733 72.253 210.178 71.527 210.782 70.9461C211.386 70.3652 212.129 69.9489 212.939 69.7368C213.755 69.5367 214.604 69.5103 215.431 69.6591C216.258 69.8079 217.044 70.1287 217.739 70.6008C217.808 70.6672 217.891 70.7163 217.982 70.7441C218.074 70.7719 218.17 70.7775 218.264 70.7604C218.358 70.7434 218.446 70.7043 218.522 70.6463C218.598 70.5882 218.658 70.513 218.699 70.4268C219.176 69.8165 219.81 69.3472 220.533 69.0693C221.256 68.7913 222.04 68.7151 222.803 68.8488C223.558 69.0196 224.227 69.4571 224.685 70.0809C225.144 70.7048 225.362 71.4731 225.299 72.2448C225.885 71.785 226.597 71.5136 227.34 71.4664C228.084 71.4193 228.824 71.5985 229.463 71.9806C230.103 72.3627 230.611 72.9296 230.922 73.6066C231.233 74.2836 231.331 75.0389 231.203 75.7728C232.295 75.5388 233.549 75.3408 234.437 76.0248C234.971 76.5209 235.377 77.1381 235.621 77.8242C235.865 78.5104 235.941 79.2453 235.841 79.9668C235.582 81.2279 234.99 82.3965 234.125 83.3508C233.111 84.2508 232.241 83.6808 230.915 83.9508C228.941 84.3888 226.853 84.8088 224.915 84.1908" fill="#263238"/>
<path d="M237.551 95.825C237.111 90.2491 234.589 85.0431 230.485 81.2422C226.382 77.4412 220.999 75.3238 215.405 75.311H214.253C201.821 76.013 195.473 86.957 196.517 99.365L198.731 156.671H227.219L226.967 138.023C226.967 138.023 238.919 136.187 239.087 124.223C239.189 118.475 238.397 106.583 237.551 95.825Z" fill="#B78876"/>
<path d="M227.081 138.005C221.533 137.996 216.104 136.395 211.439 133.391C211.439 133.391 215.105 141.995 227.039 140.945L227.081 138.005Z" fill="#995037"/>
<path d="M232.931 105.263C232.935 105.708 232.764 106.136 232.456 106.457C232.148 106.777 231.726 106.965 231.281 106.979C231.064 106.996 230.846 106.969 230.639 106.901C230.432 106.832 230.241 106.723 230.077 106.579C229.913 106.435 229.78 106.26 229.685 106.064C229.59 105.868 229.535 105.655 229.523 105.437C229.52 104.992 229.691 104.564 229.999 104.243C230.307 103.922 230.729 103.735 231.173 103.721C231.391 103.705 231.609 103.732 231.815 103.801C232.022 103.87 232.212 103.979 232.376 104.123C232.54 104.266 232.673 104.441 232.769 104.637C232.864 104.833 232.919 105.046 232.931 105.263Z" fill="#263238"/>
<path d="M234.97 101.663C234.754 101.885 233.464 100.925 231.628 100.931C229.792 100.937 228.448 101.843 228.25 101.621C228.154 101.519 228.37 101.117 228.958 100.691C229.754 100.144 230.699 99.8547 231.664 99.863C232.619 99.8636 233.55 100.166 234.322 100.727C234.88 101.165 235.072 101.543 234.97 101.663Z" fill="#263238"/>
<path d="M215.25 106.079C215.255 106.524 215.085 106.955 214.776 107.276C214.468 107.598 214.045 107.787 213.6 107.801C213.383 107.817 213.164 107.79 212.958 107.721C212.751 107.652 212.561 107.542 212.397 107.399C212.233 107.255 212.1 107.08 212.005 106.885C211.909 106.689 211.854 106.476 211.842 106.259C211.841 105.815 212.013 105.388 212.321 105.068C212.629 104.748 213.048 104.56 213.492 104.543C213.709 104.526 213.927 104.552 214.133 104.62C214.34 104.689 214.53 104.798 214.694 104.941C214.858 105.084 214.991 105.258 215.087 105.454C215.182 105.649 215.238 105.862 215.25 106.079Z" fill="#263238"/>
<path d="M216.904 102.581C216.688 102.803 215.398 101.843 213.562 101.843C211.726 101.843 210.382 102.761 210.184 102.539C210.088 102.437 210.298 102.035 210.886 101.609C211.685 101.063 212.631 100.774 213.598 100.781C214.551 100.782 215.48 101.084 216.25 101.645C216.814 102.077 217.006 102.485 216.904 102.581Z" fill="#263238"/>
<path d="M223.56 115.595C223.56 115.493 224.694 115.295 226.56 115.067C227.028 115.019 227.472 114.923 227.556 114.605C227.595 114.12 227.487 113.635 227.244 113.213C226.804 112.081 226.344 110.891 225.864 109.643C223.95 104.555 222.564 100.379 222.768 100.301C222.972 100.223 224.694 104.285 226.608 109.373L227.928 112.973C228.224 113.539 228.309 114.192 228.168 114.815C228.101 114.979 227.996 115.126 227.863 115.243C227.73 115.361 227.571 115.446 227.4 115.493C227.14 115.564 226.872 115.602 226.602 115.607C224.724 115.697 223.566 115.703 223.56 115.595Z" fill="#263238"/>
<path d="M218.153 116.855C218.453 116.855 218.453 118.829 220.157 120.251C221.861 121.673 223.979 121.451 223.997 121.733C223.997 121.853 223.523 122.117 222.623 122.141C221.456 122.151 220.322 121.752 219.419 121.013C218.554 120.301 217.999 119.282 217.871 118.169C217.793 117.335 218.021 116.843 218.153 116.855Z" fill="#263238"/>
<path d="M217.847 98.4228C217.673 98.9208 215.837 98.7048 213.683 98.9868C211.529 99.2688 209.801 99.8748 209.483 99.4308C209.357 99.2208 209.651 98.7468 210.347 98.2308C211.285 97.6288 212.347 97.2489 213.453 97.12C214.56 96.991 215.681 97.1165 216.731 97.4868C217.523 97.7988 217.931 98.1828 217.847 98.4228Z" fill="#263238"/>
<path d="M235.415 96.3589C235.067 96.8149 233.483 96.5389 231.629 96.7069C229.775 96.8749 228.233 97.3069 227.831 96.9349C227.651 96.7429 227.831 96.2989 228.503 95.8369C229.4 95.2513 230.434 94.91 231.503 94.8469C232.566 94.7438 233.637 94.9261 234.605 95.3749C235.331 95.7349 235.571 96.1429 235.415 96.3589Z" fill="#263238"/>
<path d="M198.305 108.209C198.131 108.143 190.103 105.743 190.331 113.933C190.559 122.123 198.731 120.167 198.731 119.933C198.731 119.699 198.305 108.209 198.305 108.209Z" fill="#B78876"/>
<path d="M196.876 116.915C196.84 116.915 196.738 117.017 196.504 117.137C196.17 117.289 195.79 117.309 195.442 117.191C194.566 116.897 193.798 115.553 193.714 114.083C193.674 113.382 193.791 112.681 194.056 112.031C194.124 111.773 194.253 111.537 194.433 111.341C194.613 111.146 194.838 110.997 195.088 110.909C195.251 110.859 195.425 110.869 195.581 110.936C195.737 111.003 195.864 111.123 195.94 111.275C196.06 111.497 196.012 111.665 196.054 111.677C196.096 111.689 196.228 111.533 196.15 111.197C196.1 110.995 195.981 110.817 195.814 110.693C195.583 110.533 195.3 110.468 195.022 110.513C194.688 110.587 194.379 110.747 194.125 110.976C193.871 111.205 193.68 111.496 193.57 111.821C193.244 112.538 193.1 113.326 193.15 114.113C193.246 115.757 194.14 117.269 195.328 117.575C195.55 117.632 195.781 117.64 196.005 117.596C196.229 117.553 196.441 117.459 196.624 117.323C196.87 117.143 196.93 116.927 196.876 116.915Z" fill="#995037"/>
<path d="M203.657 83.9327L207.695 80.4467L220.535 82.4147L229.535 80.0927L234.935 80.9147C233.927 82.2767 234.755 80.4527 232.697 78.8987C228.271 75.4693 222.874 73.5267 217.277 73.3487C211.727 73.2527 200.417 80.0147 196.397 83.8427C193.175 86.9087 193.199 89.5607 193.199 89.5607C192.683 93.9767 195.155 98.9927 196.139 103.331C196.643 105.569 197.627 112.331 197.627 112.331C199.499 112.331 200.201 110.831 199.913 108.977L199.565 101.699C199.565 101.699 205.931 97.1627 202.931 88.8647C202.445 88.1987 201.413 85.1687 203.657 83.9327Z" fill="#263238"/>
<path d="M201.995 85.8766C202.715 83.5486 205.259 82.0966 207.695 82.1266C210.131 82.1566 212.417 83.4286 214.193 85.1266C214.629 85.5863 215.12 85.9894 215.657 86.3266C215.925 86.4901 216.23 86.5855 216.543 86.6043C216.857 86.6231 217.171 86.5649 217.457 86.4346C217.625 86.3446 217.805 86.2066 217.991 86.2606C218.119 86.3133 218.225 86.4087 218.291 86.5306C218.753 87.2854 219.404 87.9061 220.181 88.3306C220.57 88.5266 221.01 88.5961 221.44 88.5294C221.871 88.4627 222.269 88.2632 222.581 87.9586C223.027 88.3716 223.585 88.6449 224.185 88.7451C224.785 88.8453 225.401 88.7679 225.958 88.5224C226.514 88.277 226.987 87.8742 227.318 87.3636C227.648 86.853 227.822 86.2569 227.819 85.6486C228.887 86.0146 230.045 85.3606 230.819 84.5206C231.423 83.8498 231.869 83.0524 232.124 82.1867C232.38 81.3211 232.438 80.4092 232.296 79.518C232.153 78.6268 231.813 77.7788 231.3 77.0362C230.787 76.2937 230.114 75.6753 229.331 75.2266C228.102 74.5982 226.764 74.2112 225.389 74.0866C223.244 73.7809 221.081 73.6186 218.915 73.6006C217.965 73.5408 217.011 73.6526 216.101 73.9306C214.859 74.3806 213.827 75.3946 212.501 75.5566C211.655 75.5921 210.81 75.4574 210.017 75.1606C208.86 74.7625 207.639 74.5834 206.417 74.6326C204.017 74.8486 202.055 76.5646 200.471 78.3706C199.276 79.5775 198.413 81.0714 197.963 82.7086C197.615 84.3586 198.125 86.3086 199.559 87.1846C199.832 87.3733 200.147 87.4945 200.476 87.5383C200.806 87.5821 201.141 87.5472 201.455 87.4366C201.762 87.3091 202.006 87.0653 202.134 86.7585C202.262 86.4517 202.264 86.1066 202.139 85.7986" fill="#263238"/>
<path d="M198.311 145.343L165.131 161.837L178.817 240.023L170.903 285.107L256.253 285.275L250.709 198.371L262.589 163.463L227.075 144.923C216.977 156.875 207.305 154.457 198.311 145.343Z" fill="#01a809"/>
<path d="M232.457 212.249C232.457 212.249 232.457 212.057 232.421 211.685C232.385 211.313 232.421 210.749 232.367 210.035C232.325 208.577 232.271 206.435 232.199 203.765C232.067 198.365 231.887 190.619 231.665 181.337L231.917 181.391C229.507 186.585 226.644 191.556 223.361 196.247L223.199 196.481L223.097 196.217C221.297 191.549 219.161 186.617 216.701 181.709L215.375 179.093H215.645C212.494 184.655 210.241 190.679 208.967 196.943L208.913 197.207L208.721 197.015L198.185 186.605L198.401 186.497C199.028 193.019 200.154 199.484 201.767 205.835C202.367 208.115 202.859 209.885 203.213 211.085C203.393 211.685 203.525 212.135 203.621 212.453C203.717 212.771 203.753 212.927 203.753 212.927C203.753 212.927 203.687 212.771 203.585 212.465C203.483 212.159 203.333 211.697 203.141 211.109C202.763 209.909 202.229 208.145 201.629 205.871C199.958 199.525 198.794 193.057 198.149 186.527L198.131 186.143L198.383 186.389L208.931 196.793L208.685 196.865C209.957 190.576 212.215 184.527 215.375 178.943L215.519 178.691L215.651 178.949C216.089 179.819 216.533 180.689 216.983 181.571C219.443 186.509 221.579 191.429 223.379 196.109L223.115 196.073C226.393 191.399 229.258 186.448 231.677 181.277L231.923 180.755V181.355C232.097 190.637 232.241 198.365 232.343 203.783C232.379 206.477 232.415 208.583 232.439 210.059C232.439 210.767 232.439 211.319 232.439 211.709C232.439 212.099 232.457 212.249 232.457 212.249Z" fill="#263238"/>
<path d="M195.731 180.539C195.731 180.539 195.827 180.461 196.031 180.437C196.329 180.419 196.625 180.49 196.883 180.641C197.079 180.753 197.251 180.904 197.387 181.084C197.523 181.265 197.621 181.471 197.675 181.691C197.725 181.97 197.696 182.258 197.59 182.521C197.483 182.785 197.305 183.013 197.075 183.179C196.858 183.36 196.598 183.48 196.319 183.528C196.041 183.575 195.755 183.548 195.491 183.449C195.275 183.367 195.085 183.227 194.943 183.045C194.8 182.863 194.709 182.646 194.681 182.417C194.668 182.263 194.694 182.108 194.756 181.967C194.817 181.826 194.913 181.702 195.035 181.607C195.215 181.481 195.341 181.481 195.341 181.499C195.341 181.517 195.245 181.559 195.119 181.697C195.034 181.79 194.97 181.9 194.931 182.02C194.893 182.141 194.881 182.268 194.897 182.393C194.936 182.574 195.021 182.742 195.144 182.881C195.267 183.02 195.424 183.125 195.599 183.185C195.817 183.254 196.049 183.267 196.273 183.223C196.498 183.179 196.707 183.079 196.883 182.933C197.069 182.798 197.213 182.615 197.301 182.403C197.389 182.191 197.417 181.959 197.381 181.733C197.303 181.362 197.089 181.035 196.781 180.815C196.464 180.627 196.1 180.531 195.731 180.539Z" fill="#263238"/>
<path d="M215.591 173.855C215.591 173.855 215.699 173.789 215.915 173.801C216.216 173.829 216.5 173.949 216.731 174.143C216.911 174.288 217.058 174.471 217.161 174.678C217.265 174.885 217.323 175.112 217.331 175.343C217.318 175.631 217.228 175.911 217.071 176.153C216.915 176.395 216.697 176.592 216.439 176.722C216.182 176.853 215.894 176.913 215.606 176.896C215.318 176.879 215.04 176.786 214.799 176.627C214.62 176.481 214.473 176.298 214.37 176.092C214.266 175.885 214.208 175.658 214.199 175.427C214.177 175.12 214.25 174.814 214.409 174.551C214.529 174.371 214.631 174.311 214.643 174.323C214.467 174.656 214.39 175.033 214.421 175.409C214.444 175.603 214.505 175.79 214.6 175.96C214.696 176.13 214.825 176.279 214.979 176.399C215.179 176.519 215.406 176.586 215.638 176.594C215.871 176.602 216.102 176.551 216.31 176.446C216.517 176.34 216.695 176.183 216.825 175.99C216.955 175.798 217.035 175.575 217.055 175.343C217.051 175.148 217.008 174.955 216.929 174.777C216.85 174.599 216.736 174.438 216.593 174.305C216.311 174.059 215.962 173.903 215.591 173.855Z" fill="#263238"/>
<path d="M233.231 175.679C232.86 175.727 232.516 175.898 232.253 176.165C232.121 176.305 232.022 176.473 231.962 176.657C231.903 176.841 231.886 177.035 231.911 177.227C231.961 177.451 232.079 177.654 232.248 177.808C232.418 177.963 232.631 178.062 232.859 178.091C233.083 178.144 233.319 178.127 233.533 178.042C233.748 177.957 233.931 177.809 234.059 177.617C234.15 177.447 234.202 177.26 234.211 177.068C234.22 176.876 234.187 176.684 234.113 176.507C233.963 176.163 233.701 175.882 233.369 175.709C233.369 175.709 233.495 175.709 233.687 175.769C233.965 175.907 234.187 176.135 234.317 176.417C234.42 176.626 234.473 176.856 234.473 177.089C234.473 177.322 234.42 177.551 234.317 177.761C234.156 178.002 233.927 178.192 233.659 178.305C233.392 178.418 233.097 178.451 232.811 178.399C232.525 178.346 232.261 178.211 232.051 178.011C231.841 177.81 231.694 177.552 231.629 177.269C231.605 177.036 231.636 176.802 231.718 176.583C231.8 176.364 231.932 176.168 232.103 176.009C232.321 175.792 232.607 175.659 232.913 175.631C233.123 175.613 233.237 175.667 233.231 175.679Z" fill="#263238"/>
<path d="M236.328 213.923C236.196 213.937 236.063 213.937 235.932 213.923H230.622C227.094 213.923 222.222 214.001 216.858 214.259C211.494 214.517 206.658 214.907 203.118 215.243L198.966 215.651L197.832 215.753C197.7 215.769 197.567 215.769 197.436 215.753C197.562 215.713 197.693 215.687 197.826 215.675L198.948 215.513C199.926 215.375 201.348 215.195 203.1 215.003C206.604 214.613 211.458 214.187 216.84 213.929C222.222 213.671 227.094 213.635 230.64 213.683C232.404 213.683 233.832 213.749 234.84 213.791L235.974 213.845C236.094 213.859 236.212 213.886 236.328 213.923Z" fill="#263238"/>
<path d="M249.533 206.315L275.963 205.157C275.963 205.157 269.837 164.957 261.251 162.707C252.665 160.457 247.223 185.573 247.223 185.573L249.533 206.315Z" fill="#01a809"/>
<path d="M150.785 215.231C150.911 213.791 155.387 166.319 165.185 161.831C174.983 157.343 180.785 211.499 180.785 211.499L150.785 215.231Z" fill="#01a809"/>
<path d="M252.858 232.091C252.858 232.091 252.858 232.049 252.858 231.959L252.816 231.557C252.786 231.179 252.744 230.663 252.696 230.021C252.6 228.653 252.474 226.721 252.312 224.351C252.012 219.551 251.646 212.951 251.334 205.637C251.022 198.323 250.824 191.693 250.764 186.899C250.764 184.499 250.728 182.561 250.764 181.217C250.764 180.569 250.764 180.053 250.764 179.675C250.757 179.494 250.767 179.313 250.794 179.135C250.794 179.135 250.794 179.183 250.794 179.273C250.794 179.363 250.794 179.513 250.794 179.675C250.794 180.053 250.794 180.569 250.83 181.217C250.83 182.585 250.89 184.517 250.938 186.893C251.058 191.693 251.274 198.293 251.598 205.625C251.922 212.957 252.246 219.551 252.486 224.339C252.606 226.709 252.702 228.641 252.768 230.009C252.768 230.663 252.816 231.173 252.834 231.557C252.858 231.734 252.866 231.912 252.858 232.091Z" fill="#263238"/>
<path d="M176.609 229.655C176.598 229.485 176.598 229.315 176.609 229.145C176.609 228.779 176.609 228.293 176.609 227.675C176.609 226.367 176.609 224.525 176.609 222.275C176.609 217.709 176.477 211.403 176.351 204.437C176.225 197.471 176.153 191.159 176.183 186.593C176.183 184.307 176.219 182.459 176.261 181.193C176.261 180.593 176.291 180.089 176.303 179.729C176.303 179.556 176.317 179.383 176.345 179.213C176.355 179.385 176.355 179.557 176.345 179.729C176.345 180.089 176.345 180.581 176.345 181.199C176.345 182.507 176.345 184.343 176.345 186.599C176.345 191.165 176.477 197.471 176.603 204.437C176.729 211.403 176.801 217.709 176.771 222.281C176.771 224.561 176.735 226.409 176.693 227.681C176.693 228.281 176.693 228.785 176.651 229.151C176.65 229.32 176.636 229.488 176.609 229.655Z" fill="#263238"/>
<path d="M176.358 175.811C176.304 175.811 176.112 174.827 175.626 173.279C175.005 171.26 174.076 169.35 172.872 167.615C171.653 165.892 170.069 164.458 168.234 163.415C167.454 163.013 166.653 162.655 165.834 162.341C166.072 162.359 166.306 162.41 166.53 162.491C167.152 162.676 167.755 162.922 168.33 163.223C170.238 164.226 171.882 165.665 173.13 167.423C174.358 169.184 175.275 171.142 175.842 173.213C176.02 173.833 176.166 174.462 176.28 175.097C176.334 175.331 176.36 175.571 176.358 175.811Z" fill="#263238"/>
<path d="M192.384 226.691L197.904 240.869C197.904 240.869 171.798 254.669 165.774 255.149C159.75 255.629 157.884 254.267 155.376 249.635C153.384 245.957 153.744 236.927 154.254 231.065C154.932 223.079 155.532 214.607 155.532 214.607L176.148 212.075L176.52 229.595L192.36 226.691" fill="#B78876"/>
<path d="M176.351 229.817C175.771 229.931 175.2 230.083 174.641 230.273C173.334 230.839 172.151 231.654 171.155 232.673C170.115 233.653 169.141 234.701 168.239 235.811C167.561 236.675 167.255 237.287 167.213 237.263C167.236 237.1 167.293 236.945 167.381 236.807C167.58 236.415 167.806 236.038 168.059 235.679C168.921 234.517 169.885 233.435 170.939 232.445C171.957 231.387 173.197 230.567 174.569 230.045C174.988 229.901 175.423 229.81 175.865 229.775C176.028 229.758 176.193 229.772 176.351 229.817Z" fill="#995037"/>
<path d="M274.481 205.223L252.557 206.183L255.959 231.563L249.671 232.343L238.685 229.301L232.787 245.237C232.787 245.237 256.709 255.851 263.897 256.601C271.085 257.351 276.023 253.001 277.697 247.769C279.371 242.537 274.481 205.223 274.481 205.223Z" fill="#B78876"/>
<path d="M224.447 199.469H210.755C208.558 199.469 206.777 201.25 206.777 203.447V238.745C206.777 240.942 208.558 242.723 210.755 242.723H224.447C226.644 242.723 228.425 240.942 228.425 238.745V203.447C228.425 201.25 226.644 199.469 224.447 199.469Z" fill="#455A64"/>
<path d="M217.445 206.885C218.124 206.885 218.675 206.334 218.675 205.655C218.675 204.975 218.124 204.425 217.445 204.425C216.766 204.425 216.215 204.975 216.215 205.655C216.215 206.334 216.766 206.885 217.445 206.885Z" fill="white"/>
<path d="M270.252 240.791C270.192 240.791 269.934 239.801 269.136 238.349C268.099 236.457 266.611 234.851 264.803 233.674C262.995 232.497 260.923 231.786 258.774 231.605C257.124 231.461 256.098 231.635 256.092 231.605C256.322 231.526 256.563 231.479 256.806 231.467C257.465 231.392 258.129 231.373 258.792 231.413C260.994 231.538 263.125 232.238 264.974 233.442C266.822 234.646 268.323 236.313 269.328 238.277C269.634 238.863 269.887 239.475 270.084 240.107C270.169 240.327 270.225 240.557 270.252 240.791Z" fill="#995037"/>
<path d="M207.06 209.603C205.821 209.539 204.579 209.539 203.34 209.603L198.072 215.375C198.072 215.375 197.472 220.775 196.566 221.897C195.66 223.019 191.67 226.919 191.67 226.919L197.19 241.097L201.21 240.347C201.21 240.347 203.61 241.853 206.1 241.097C208.59 240.341 212.25 236.831 212.25 236.831L219.738 236.453L223.404 232.997L218.502 226.397L208.488 226.019L213.504 223.883L225.426 222.755C225.426 222.755 228.186 222.503 227.058 219.995C225.93 217.487 218.658 217.859 218.658 217.859L213.006 218.237C213.006 218.237 217.53 216.563 218.25 215.075C218.802 213.941 218.952 212.849 217.65 211.961C217.05 211.535 207.6 212.183 207.6 212.183L207.06 209.603Z" fill="#B78876"/>
<path d="M201.245 235.169C201.245 235.169 201.167 235.169 201.023 235.127C200.81 235.063 200.608 234.968 200.423 234.845C199.78 234.369 199.33 233.677 199.157 232.895C198.946 231.745 199.018 230.561 199.367 229.445C199.445 229.133 199.523 228.815 199.601 228.485C199.656 228.342 199.678 228.188 199.666 228.036C199.653 227.883 199.607 227.735 199.529 227.603C199.309 227.334 199.067 227.085 198.803 226.859C198.542 226.575 198.339 226.243 198.203 225.881C197.924 225.163 197.924 224.367 198.203 223.649C198.521 223.08 198.636 222.42 198.527 221.777C198.312 221.213 198.059 220.664 197.771 220.133C197.511 219.519 197.377 218.859 197.377 218.192C197.377 217.525 197.511 216.865 197.771 216.251C197.859 216.057 197.961 215.871 198.077 215.693C198.161 215.573 198.209 215.513 198.221 215.519C198.233 215.525 198.077 215.789 197.885 216.293C197.623 217.008 197.523 217.772 197.591 218.531C197.639 219.048 197.773 219.553 197.987 220.025C198.291 220.563 198.556 221.123 198.779 221.699C198.873 222.045 198.873 222.409 198.779 222.755C198.686 223.092 198.576 223.425 198.449 223.751C198.195 224.399 198.195 225.119 198.449 225.767C198.574 226.092 198.762 226.39 199.001 226.643C199.277 226.885 199.53 227.153 199.757 227.441C199.869 227.611 199.931 227.808 199.937 228.011C199.939 228.195 199.915 228.379 199.865 228.557C199.781 228.881 199.697 229.205 199.619 229.517C199.265 230.59 199.171 231.731 199.343 232.847C199.506 233.598 199.927 234.269 200.531 234.743C200.758 234.904 200.996 235.046 201.245 235.169Z" fill="#995037"/>
<path d="M222.683 231.743C222.511 231.826 222.326 231.88 222.137 231.905C221.63 231.997 221.116 232.046 220.601 232.049C218.913 232.005 217.228 231.867 215.555 231.635C213.883 231.499 212.2 231.549 210.539 231.785C209.255 231.935 208.463 232.061 208.457 232.019C208.626 231.933 208.809 231.878 208.997 231.857C209.351 231.773 209.867 231.671 210.509 231.569C212.18 231.261 213.886 231.178 215.579 231.323C217.553 231.527 219.317 231.815 220.601 231.827C221.885 231.839 222.671 231.707 222.683 231.743Z" fill="#995037"/>
<path d="M213.604 218.045C213.604 218.147 211.546 218.531 209.104 219.359C206.662 220.187 204.79 221.159 204.742 221.081C205.11 220.795 205.514 220.557 205.942 220.373C206.934 219.864 207.961 219.425 209.014 219.059C210.07 218.704 211.148 218.422 212.242 218.213C212.687 218.098 213.145 218.042 213.604 218.045Z" fill="#995037"/>
<path d="M208.272 211.733C207.827 212.123 207.314 212.428 206.76 212.633C206.247 212.929 205.687 213.132 205.104 213.233C206.061 212.544 207.134 212.03 208.272 211.715V211.733Z" fill="#995037"/>
<path d="M228.966 211.271C228.966 211.271 238.482 216.281 238.752 217.643C238.96 219.011 239.064 220.393 239.064 221.777L238.686 229.301L232.788 245.237C232.788 245.237 227.892 245.741 225.762 244.637C223.632 243.533 222.372 240.743 222.372 240.743L219.732 236.453L222.966 232.787L217.596 226.415C217.596 226.415 222.24 224.159 225.396 225.539C227.48 226.524 229.387 227.846 231.042 229.451L230.04 224.909L224.004 221.081L221.244 219.101C220.541 218.61 220.003 217.919 219.701 217.116C219.399 216.314 219.347 215.439 219.552 214.607C219.651 214.065 219.946 213.578 220.38 213.239C221.748 212.363 232.932 219.143 232.932 219.143C232.932 219.143 228.528 215.123 228.168 213.695C227.808 212.267 228.282 210.839 228.966 211.271Z" fill="#B78876"/>
<path d="M238.931 240.245C238.781 239.718 238.691 239.177 238.661 238.631C238.547 237.629 238.445 236.231 238.427 234.695C238.409 233.159 238.475 231.761 238.565 230.753C238.582 230.206 238.659 229.663 238.793 229.133C238.84 229.676 238.84 230.222 238.793 230.765C238.757 231.773 238.727 233.165 238.745 234.689C238.763 236.213 238.829 237.611 238.889 238.613C238.945 239.155 238.959 239.701 238.931 240.245Z" fill="#995037"/>
<path d="M222.402 231.785C222.527 232.104 222.588 232.444 222.582 232.787C222.609 233.16 222.584 233.536 222.51 233.903C222.403 234.363 222.18 234.789 221.862 235.139C221.28 235.748 220.519 236.158 219.69 236.309C219.362 236.41 219.015 236.437 218.676 236.387C218.985 236.257 219.307 236.158 219.636 236.093C220.394 235.895 221.083 235.492 221.628 234.929C222.132 234.332 222.394 233.567 222.36 232.787C222.336 232.452 222.35 232.116 222.402 231.785Z" fill="#995037"/>
<path d="M236.88 226.787C236.788 226.277 236.728 225.762 236.7 225.245C236.565 224.015 236.32 222.8 235.968 221.615C235.745 220.994 235.309 220.473 234.738 220.145C234.262 219.862 233.767 219.614 233.256 219.401C232.899 219.252 232.561 219.063 232.248 218.837C232.202 218.798 232.166 218.749 232.144 218.694C232.122 218.638 232.115 218.578 232.122 218.519C232.152 218.435 232.212 218.435 232.212 218.441C232.212 218.447 232.182 218.477 232.212 218.531C232.218 218.575 232.234 218.618 232.259 218.655C232.284 218.693 232.317 218.724 232.356 218.747C232.682 218.922 233.021 219.072 233.37 219.197C233.905 219.385 234.423 219.62 234.918 219.899C235.555 220.253 236.041 220.826 236.286 221.513C236.65 222.721 236.871 223.967 236.946 225.227C237.001 225.747 236.979 226.273 236.88 226.787Z" fill="#995037"/>
<path d="M219.539 214.607C219.575 214.607 219.509 214.889 219.503 215.393C219.489 216.103 219.661 216.804 220.001 217.427C220.539 218.337 221.304 219.091 222.221 219.617L225.515 221.765L230.099 224.801L230.147 224.837V224.891C230.283 225.994 230.512 227.084 230.831 228.149C230.97 228.548 231.069 228.96 231.125 229.379C230.954 228.988 230.808 228.588 230.687 228.179C230.31 227.121 230.043 226.027 229.889 224.915L229.949 225.011L225.335 222.011L222.053 219.839C221.107 219.28 220.328 218.479 219.797 217.517C219.461 216.855 219.316 216.114 219.377 215.375C219.39 215.173 219.42 214.972 219.467 214.775C219.509 214.673 219.527 214.601 219.539 214.607Z" fill="#995037"/>
<path d="M233.681 234.197C233.781 234.062 233.869 233.92 233.945 233.771C234.021 233.562 234.051 233.339 234.034 233.118C234.016 232.896 233.951 232.681 233.843 232.487C233.478 231.909 233.023 231.395 232.493 230.963C231.893 230.429 231.293 229.859 230.579 229.283C229.187 228.125 227.849 227.177 226.865 226.511C226.318 226.178 225.789 225.816 225.281 225.425C225.88 225.662 226.452 225.964 226.985 226.325C228.314 227.137 229.581 228.046 230.777 229.043C231.479 229.643 232.121 230.207 232.691 230.759C233.234 231.22 233.693 231.772 234.047 232.391C234.157 232.614 234.215 232.859 234.215 233.108C234.215 233.356 234.157 233.602 234.047 233.825C233.879 234.143 233.681 234.209 233.681 234.197Z" fill="#995037"/>
<path d="M221.321 232.043C221.471 231.967 221.63 231.913 221.795 231.881C222.225 231.771 222.638 231.606 223.025 231.389C223.301 231.237 223.531 231.014 223.691 230.742C223.852 230.471 223.937 230.162 223.937 229.847C223.936 229.462 223.898 229.079 223.823 228.701C223.788 228.298 223.667 227.908 223.469 227.555C223.238 227.245 222.9 227.032 222.521 226.955C222.143 226.866 221.76 226.796 221.375 226.745C220.631 226.631 219.953 226.559 219.389 226.517C218.771 226.498 218.154 226.448 217.541 226.367C218.156 226.269 218.78 226.245 219.401 226.295C220.001 226.295 220.655 226.361 221.411 226.457C221.815 226.501 222.215 226.569 222.611 226.661C223.068 226.76 223.472 227.025 223.745 227.405C223.963 227.797 224.098 228.23 224.141 228.677C224.211 229.073 224.243 229.475 224.237 229.877C224.228 230.263 224.107 230.638 223.889 230.957C223.696 231.228 223.441 231.448 223.145 231.599C222.733 231.806 222.292 231.948 221.837 232.019C221.668 232.058 221.493 232.066 221.321 232.043Z" fill="#995037"/>
<path d="M227.326 237.395C226.283 236.73 225.337 235.922 224.518 234.995C223.905 234.37 223.355 233.687 222.874 232.955C222.655 232.662 222.494 232.33 222.4 231.977C222.448 231.977 222.658 232.307 223.054 232.829C223.582 233.511 224.147 234.164 224.746 234.785C226.144 236.243 227.386 237.323 227.326 237.395Z" fill="#995037"/>
<path d="M112.992 115.445C107.886 110.843 101.376 114.797 97.8955 117.449C94.4155 120.101 92.8315 123.905 91.9675 127.649C91.1035 131.393 90.8275 135.245 89.4055 138.881C87.6835 143.285 84.3055 147.281 83.5315 151.871C82.7095 156.713 84.8815 161.825 83.1115 166.493C82.0855 169.199 79.8295 171.485 77.9515 173.885C76.0735 176.285 74.5315 179.063 75.1315 181.871C76.0015 185.993 81.1315 188.813 86.2015 190.385C90.3355 191.675 94.7995 192.479 99.1795 192.119C103.56 191.759 107.85 190.139 110.268 187.319C112.344 184.919 112.896 181.919 112.986 178.997C113.28 169.577 109.386 160.331 107.676 150.965C105.612 139.535 108.498 126.299 113.01 115.427" fill="#263238"/>
<path d="M82.7989 189.455C82.7573 189.398 82.7211 189.338 82.6909 189.275C82.6249 189.155 82.5109 188.981 82.3969 188.735C82.0729 188.015 81.8702 187.247 81.7969 186.461C81.7048 185.215 81.8163 183.963 82.1269 182.753C82.5338 181.158 83.0655 179.597 83.7169 178.085C87.3286 169.303 90.0502 160.182 91.8409 150.857C92.8232 145.725 93.5202 140.543 93.9289 135.335C94.1149 132.935 94.2769 130.637 94.6309 128.513C94.9273 126.535 95.4883 124.605 96.2989 122.777C97.003 121.278 97.9542 119.909 99.1129 118.727C99.9847 117.839 100.999 117.103 102.113 116.549C102.825 116.212 103.577 115.968 104.351 115.823C104.615 115.781 104.819 115.763 104.951 115.745C105.021 115.738 105.091 115.738 105.161 115.745L104.957 115.793L104.357 115.895C103.596 116.063 102.859 116.323 102.161 116.669C101.066 117.235 100.069 117.975 99.2089 118.859C98.0783 120.036 97.1535 121.395 96.4729 122.879C95.6854 124.695 95.1427 126.608 94.8589 128.567C94.5169 130.679 94.3669 132.965 94.1869 135.371C93.7967 140.592 93.1055 145.787 92.1169 150.929C90.3271 160.273 87.5703 169.406 83.8909 178.181C83.2358 179.681 82.6924 181.227 82.2649 182.807C81.9474 183.997 81.8198 185.23 81.8869 186.461C81.9868 187.51 82.297 188.528 82.7989 189.455Z" fill="#455A64"/>
<path d="M82.9505 176.321L104.491 175.409L133.555 185.207L152.221 192.863L129.241 274.001L132.745 285.341H66.8945L69.8585 223.799L82.9505 176.321Z" fill="#01a809"/>
<g opacity="0.3">
<path d="M127.561 274.691C125.533 260.987 123.507 247.283 121.483 233.579C121.111 231.059 120.649 228.353 118.825 226.577C117.097 224.885 114.535 224.435 112.129 224.135C106.729 223.475 100.969 223.283 96.2047 225.893C92.1727 228.101 89.4127 232.031 86.8927 235.883C79.2727 247.541 74.5087 252.647 68.3767 265.151L67.3867 275.033C73.5967 273.125 79.5247 267.041 82.9867 261.563C86.4487 256.085 88.9327 250.001 92.1547 244.343C94.3687 240.467 97.1767 236.627 101.287 234.893C103.609 233.909 106.645 233.837 108.295 235.733C108.962 236.607 109.429 237.617 109.663 238.691C111.511 245.243 112.063 252.095 113.653 258.713C115.243 265.331 118.111 271.985 123.475 276.179C124.045 276.686 124.731 277.044 125.473 277.223C125.845 277.303 126.233 277.268 126.585 277.123C126.937 276.979 127.238 276.731 127.447 276.413C127.66 275.864 127.7 275.263 127.561 274.691Z" fill="black"/>
</g>
<path d="M56.1055 207.173C56.1055 206.573 65.6035 176.321 82.9495 176.321L77.6275 212.543L56.1055 207.173Z" fill="#01a809"/>
<path d="M152.221 192.863C152.221 192.863 157.621 197.483 158.443 201.353C159.265 205.223 160.213 224.201 160.213 224.201L139.135 222.743L152.221 192.863Z" fill="#01a809"/>
<path d="M79.5247 192.143C79.5394 192.277 79.5394 192.411 79.5247 192.545L79.3807 193.679C79.2547 194.663 79.0387 196.079 78.7507 197.843C78.1507 201.353 77.2447 206.177 76.1527 211.487C75.0607 216.797 74.1007 221.615 73.4707 225.107C73.1707 226.829 72.9187 228.233 72.7447 229.253L72.5407 230.381C72.5244 230.514 72.4942 230.645 72.4507 230.771C72.4357 230.637 72.4357 230.503 72.4507 230.369C72.4867 230.075 72.5347 229.703 72.5947 229.235C72.7207 228.245 72.9367 226.835 73.1947 225.071C73.7947 221.561 74.7007 216.737 75.7867 211.421C76.8727 206.105 77.8447 201.299 78.4687 197.801C78.7747 196.085 79.0207 194.675 79.2007 193.661C79.2847 193.199 79.3507 192.821 79.4047 192.533C79.4298 192.399 79.4701 192.268 79.5247 192.143Z" fill="#263238"/>
<path d="M144.377 206.153C144.382 206.444 144.358 206.736 144.305 207.023C144.239 207.587 144.125 208.391 143.975 209.387C143.669 211.379 143.171 214.121 142.589 217.139C142.007 220.157 141.485 222.833 141.089 224.867C140.909 225.815 140.765 226.601 140.645 227.213C140.608 227.503 140.541 227.788 140.447 228.065C140.447 227.771 140.473 227.478 140.525 227.189C140.597 226.631 140.717 225.827 140.873 224.831C141.191 222.839 141.695 220.097 142.283 217.079C142.871 214.061 143.369 211.385 143.753 209.351C143.927 208.403 144.077 207.617 144.185 207.005C144.227 206.716 144.291 206.431 144.377 206.153Z" fill="#263238"/>
<path d="M152.729 193.727C152.729 193.727 152.675 193.787 152.561 193.883L152.033 194.309C151.327 194.821 150.569 195.258 149.771 195.611C148.502 196.158 147.153 196.497 145.775 196.613C143.943 196.77 142.099 196.52 140.375 195.881C138.449 195.167 136.679 193.769 134.675 192.527C133.654 191.867 132.534 191.375 131.357 191.069C130.102 190.789 128.804 190.752 127.535 190.961C124.907 191.345 122.327 192.503 119.537 193.361C116.64 194.277 113.561 194.464 110.574 193.906C107.586 193.347 104.783 192.059 102.413 190.157C101.329 189.218 100.301 188.216 99.3353 187.157C98.4222 186.157 97.3497 185.316 96.1613 184.667C95.0029 184.109 93.7385 183.806 92.4533 183.779C91.2358 183.749 90.0186 183.851 88.8233 184.085C86.5013 184.535 84.3953 185.243 82.4033 185.645C80.6193 186.075 78.7678 186.148 76.9553 185.861C75.5887 185.608 74.3039 185.028 73.2113 184.169C72.5207 183.624 71.9644 182.928 71.5853 182.135C71.4869 181.932 71.4046 181.721 71.3393 181.505C71.2973 181.361 71.2793 181.283 71.2793 181.283C71.3161 181.35 71.3482 181.421 71.3753 181.493C71.4472 181.699 71.5355 181.9 71.6393 182.093C72.0372 182.859 72.5984 183.529 73.2833 184.055C74.3719 184.883 75.6437 185.436 76.9913 185.669C78.7808 185.937 80.6058 185.85 82.3613 185.411C84.3293 184.997 86.4293 184.277 88.7753 183.815C89.989 183.566 91.2268 183.456 92.4653 183.485C93.7912 183.511 95.0963 183.82 96.2933 184.391C97.5143 185.05 98.6156 185.91 99.5513 186.935C100.511 187.981 101.531 188.971 102.605 189.899C104.937 191.768 107.694 193.033 110.632 193.582C113.57 194.132 116.597 193.948 119.447 193.049C122.213 192.215 124.811 191.051 127.493 190.649C128.799 190.435 130.133 190.476 131.423 190.769C132.626 191.089 133.77 191.597 134.813 192.275C136.829 193.541 138.569 194.933 140.453 195.647C142.147 196.284 143.959 196.544 145.763 196.409C147.126 196.307 148.465 195.992 149.729 195.473C150.525 195.132 151.287 194.716 152.003 194.231L152.543 193.829L152.729 193.727Z" fill="#FAFAFA"/>
<path d="M76.2538 205.103C76.2538 205.103 76.1878 205.139 76.0558 205.169C75.8598 205.222 75.6586 205.254 75.4558 205.265C74.7283 205.311 73.9994 205.199 73.3198 204.935C72.3141 204.55 71.3915 203.975 70.6018 203.243C69.6958 202.439 68.8318 201.443 67.8778 200.459C67.008 199.52 65.9805 198.74 64.8418 198.155C63.9138 197.694 62.8636 197.538 61.8418 197.711C61.1497 197.823 60.5019 198.124 59.9698 198.581C59.5978 198.911 59.4538 199.181 59.4238 199.139C59.4434 199.072 59.4738 199.01 59.5138 198.953C59.6182 198.784 59.7432 198.629 59.8858 198.491C60.4106 197.976 61.077 197.629 61.7998 197.495C62.8728 197.28 63.9865 197.419 64.9738 197.891C66.1538 198.478 67.2171 199.275 68.1118 200.243C69.0778 201.233 69.9118 202.235 70.8058 203.027C71.5624 203.749 72.445 204.327 73.4098 204.731C74.312 205.09 75.2896 205.218 76.2538 205.103Z" fill="#FAFAFA"/>
<path d="M138.618 221.627C137.855 222.102 137.034 222.479 136.176 222.749C133.829 223.517 131.32 223.652 128.904 223.139C127.234 222.8 125.644 222.147 124.218 221.213C122.631 220.088 121.178 218.785 119.886 217.331C118.478 215.736 116.919 214.281 115.23 212.987C113.364 211.676 111.132 210.989 108.852 211.025C106.569 211.126 104.309 211.53 102.132 212.225C99.9961 212.825 97.9321 213.485 95.9341 213.893C89.9405 215.114 83.7257 214.646 77.9821 212.543C77.1721 212.225 76.5481 211.979 76.1401 211.775L75.6721 211.559C75.5641 211.505 75.5101 211.481 75.5161 211.475C75.5744 211.485 75.631 211.503 75.6841 211.529L76.1641 211.721C76.5841 211.901 77.2081 212.129 78.0241 212.429C80.3252 213.224 82.7047 213.771 85.1221 214.061C88.7066 214.5 92.3388 214.348 95.8741 213.611C97.8661 213.197 99.9061 212.537 102.048 211.931C104.252 211.229 106.541 210.825 108.852 210.731C110.033 210.719 111.209 210.889 112.338 211.235C113.433 211.577 114.468 212.089 115.404 212.753C117.11 214.058 118.679 215.532 120.09 217.151C121.366 218.594 122.799 219.89 124.362 221.015C125.757 221.94 127.315 222.593 128.952 222.941C131.337 223.466 133.817 223.367 136.152 222.653C136.784 222.457 137.401 222.219 138 221.939L138.462 221.711C138.51 221.676 138.563 221.648 138.618 221.627Z" fill="#FAFAFA"/>
<path d="M159.665 210.221C159.665 210.221 159.665 210.287 159.587 210.395C159.497 210.553 159.397 210.706 159.287 210.851C158.874 211.384 158.373 211.843 157.805 212.207C156.956 212.755 155.986 213.089 154.979 213.179C153.751 213.223 152.526 213.019 151.379 212.579C150.265 212.156 149.094 211.904 147.905 211.829C146.934 211.814 145.97 211.998 145.073 212.369C144.25 212.731 143.482 213.208 142.793 213.785C142.793 213.785 142.793 213.725 142.907 213.629C143.028 213.492 143.158 213.364 143.297 213.245C143.802 212.8 144.373 212.436 144.989 212.165C145.907 211.76 146.901 211.555 147.905 211.565C149.137 211.622 150.351 211.874 151.505 212.309C152.617 212.733 153.801 212.937 154.991 212.909C155.955 212.837 156.888 212.539 157.715 212.039C158.463 211.548 159.123 210.933 159.665 210.221Z" fill="#FAFAFA"/>
<path d="M136.692 239.639C136.63 239.648 136.568 239.648 136.506 239.639L135.954 239.603C135.247 239.572 134.539 239.598 133.836 239.681C132.727 239.826 131.634 240.075 130.572 240.425C129.318 240.815 127.938 241.379 126.414 242.015C124.763 242.754 123.063 243.377 121.326 243.881C119.319 244.496 117.193 244.619 115.128 244.241C114.018 243.988 112.959 243.547 111.996 242.939C111.006 242.339 110.082 241.619 109.116 240.935C108.16 240.209 107.118 239.605 106.014 239.135C104.867 238.697 103.639 238.511 102.414 238.589C99.912 238.721 97.614 239.627 95.424 240.581C93.3621 241.586 91.2081 242.389 88.992 242.981C86.941 243.438 84.8096 243.388 82.782 242.837C81.029 242.359 79.3567 241.623 77.82 240.653C76.5487 239.859 75.3447 238.962 74.22 237.971C73.224 237.107 72.42 236.315 71.76 235.661C71.1 235.007 70.608 234.491 70.272 234.143L69.894 233.735C69.81 233.645 69.768 233.597 69.774 233.591L69.918 233.711L70.314 234.095L71.844 235.577C73.6887 237.415 75.7219 239.054 77.91 240.467C79.4362 241.41 81.0915 242.125 82.824 242.591C84.8115 243.118 86.8971 243.155 88.902 242.699C91.0985 242.1 93.2339 241.297 95.28 240.299C97.446 239.339 99.804 238.409 102.372 238.277C103.642 238.199 104.914 238.391 106.104 238.841C107.229 239.306 108.291 239.911 109.266 240.641C110.238 241.331 111.162 242.045 112.128 242.633C113.059 243.23 114.086 243.662 115.164 243.911C117.185 244.288 119.268 244.175 121.236 243.581C122.965 243.096 124.659 242.495 126.306 241.781C127.836 241.181 129.228 240.581 130.506 240.227C131.583 239.888 132.69 239.655 133.812 239.531C134.772 239.417 135.743 239.453 136.692 239.639Z" fill="#FAFAFA"/>
<path d="M129.774 269.165C129.221 268.432 128.561 267.785 127.818 267.245C126.943 266.639 125.965 266.197 124.932 265.943C123.556 265.59 122.116 265.571 120.732 265.889C119.057 266.314 117.547 267.229 116.394 268.517C115.734 269.171 115.08 269.891 114.348 270.581C113.61 271.329 112.745 271.939 111.792 272.381C110.765 272.812 109.635 272.933 108.54 272.729C107.414 272.509 106.34 272.075 105.378 271.451C103.374 270.251 101.814 268.385 100.062 266.735C99.2134 265.899 98.2664 265.17 97.2418 264.563C96.2447 263.992 95.1429 263.626 94.0018 263.489C91.8203 263.299 89.6241 263.611 87.5818 264.401C85.6138 265.103 83.8258 266.015 82.1158 266.801C80.5423 267.559 78.8985 268.162 77.2078 268.601C74.7107 269.265 72.0582 269.012 69.7318 267.887C69.1177 267.575 68.5551 267.17 68.0638 266.687C67.937 266.561 67.8169 266.429 67.7038 266.291C67.6632 266.245 67.6251 266.197 67.5898 266.147C68.2224 266.815 68.9653 267.369 69.7858 267.785C72.0862 268.813 74.6735 269.004 77.0998 268.325C78.7728 267.885 80.3986 267.282 81.9538 266.525C83.6518 265.751 85.4398 264.827 87.4318 264.125C89.5166 263.312 91.7605 262.99 93.9898 263.183C95.1705 263.323 96.311 263.698 97.3438 264.287C98.3888 264.907 99.3557 265.651 100.224 266.501C102.024 268.175 103.536 270.005 105.486 271.187C106.416 271.79 107.453 272.211 108.54 272.429C109.579 272.628 110.654 272.516 111.63 272.105C112.55 271.688 113.389 271.111 114.108 270.401C114.834 269.723 115.488 269.009 116.16 268.349C117.352 267.038 118.908 266.112 120.63 265.691C122.051 265.377 123.527 265.412 124.932 265.793C125.99 266.069 126.985 266.543 127.866 267.191C128.044 267.307 128.21 267.44 128.364 267.587C128.508 267.719 128.658 267.839 128.778 267.959C129.006 268.223 129.216 268.427 129.378 268.613L129.684 269.057C129.717 269.09 129.747 269.127 129.774 269.165Z" fill="#FAFAFA"/>
<g opacity="0.3">
<path d="M145.573 188.927C144.958 188.146 144.16 187.528 143.251 187.127C135.373 182.873 125.851 177.731 117.019 176.429C114.685 183.119 113.251 190.829 109.891 197.027C109.441 197.861 108.955 198.779 109.147 199.709C109.369 200.777 110.407 201.449 111.391 201.923C116.244 204.223 121.801 204.548 126.889 202.829L126.961 205.703C129.148 206.343 131.453 206.476 133.7 206.092C135.946 205.708 138.076 204.817 139.927 203.486C141.778 202.156 143.301 200.421 144.381 198.414C145.461 196.407 146.07 194.18 146.161 191.903C146.275 190.874 146.07 189.835 145.573 188.927Z" fill="black"/>
</g>
<path d="M133.457 122.393C134.544 122.566 135.526 123.139 136.211 123.999C136.896 124.86 137.234 125.946 137.159 127.043L131.651 186.203C131.201 193.205 120.773 196.637 113.285 196.097C105.725 195.557 105.659 191.831 105.893 185.165C106.271 174.029 106.493 169.847 106.493 169.913C106.493 169.979 97.0133 167.837 95.6633 155.255C94.9913 148.997 95.8253 138.839 96.7733 130.547C97.6133 123.083 103.037 114.143 110.459 115.343L133.457 122.393Z" fill="#FFBE9D"/>
<path d="M101.796 139.943C101.772 140.36 101.912 140.77 102.185 141.085C102.458 141.401 102.844 141.598 103.26 141.635C103.462 141.661 103.668 141.646 103.865 141.591C104.062 141.537 104.246 141.443 104.407 141.316C104.567 141.189 104.701 141.032 104.799 140.853C104.898 140.673 104.96 140.476 104.982 140.273C105.007 139.857 104.868 139.447 104.596 139.131C104.324 138.815 103.939 138.618 103.524 138.581C103.32 138.554 103.114 138.568 102.916 138.623C102.718 138.677 102.533 138.771 102.372 138.898C102.211 139.024 102.077 139.182 101.978 139.362C101.879 139.541 101.817 139.739 101.796 139.943Z" fill="#263238"/>
<path d="M98.6751 136.397C98.8611 136.619 100.121 135.797 101.843 135.875C103.565 135.953 104.783 136.889 104.981 136.691C105.077 136.601 104.897 136.211 104.381 135.785C103.664 135.229 102.792 134.911 101.885 134.873C100.989 134.824 100.1 135.062 99.3471 135.551C98.7831 135.929 98.5851 136.301 98.6751 136.397Z" fill="#263238"/>
<path d="M118.157 141.455C118.133 141.872 118.273 142.281 118.546 142.597C118.82 142.913 119.205 143.11 119.621 143.147C119.824 143.173 120.03 143.158 120.227 143.103C120.424 143.048 120.608 142.955 120.768 142.828C120.929 142.701 121.062 142.543 121.161 142.364C121.259 142.185 121.321 141.988 121.343 141.785C121.368 141.368 121.23 140.959 120.957 140.643C120.685 140.327 120.3 140.129 119.885 140.093C119.682 140.066 119.475 140.08 119.277 140.135C119.079 140.189 118.895 140.282 118.734 140.409C118.573 140.536 118.439 140.694 118.339 140.874C118.24 141.053 118.178 141.251 118.157 141.455Z" fill="#263238"/>
<path d="M115.74 137.669C115.926 137.885 117.186 137.069 118.908 137.141C120.63 137.213 121.848 138.161 122.046 137.957C122.142 137.867 121.962 137.483 121.446 137.057C120.729 136.499 119.857 136.179 118.95 136.139C118.052 136.092 117.164 136.332 116.412 136.823C115.848 137.201 115.65 137.543 115.74 137.669Z" fill="#263238"/>
<path d="M108.731 149.591C108.731 149.495 107.687 149.255 105.959 148.943C105.527 148.877 105.113 148.769 105.053 148.463C105.04 148.007 105.166 147.557 105.413 147.173C105.881 146.129 106.371 145.035 106.883 143.891C108.935 139.217 110.441 135.359 110.249 135.281C110.057 135.203 108.251 138.923 106.199 143.603L104.783 146.909C104.478 147.423 104.365 148.029 104.465 148.619C104.519 148.775 104.606 148.918 104.721 149.036C104.836 149.154 104.976 149.245 105.131 149.303C105.373 149.378 105.623 149.424 105.875 149.441C107.615 149.627 108.731 149.687 108.731 149.591Z" fill="#263238"/>
<path d="M106.482 169.943C112.354 170.334 118.22 169.088 123.426 166.343C123.426 166.343 118.758 174.941 106.326 173.135L106.482 169.943Z" fill="#EB996E"/>
<path d="M109.229 153.779C109.578 153.383 110.021 153.083 110.517 152.906C111.014 152.728 111.547 152.68 112.067 152.765C112.445 152.819 112.809 152.949 113.136 153.147C113.462 153.345 113.746 153.607 113.969 153.917C114.185 154.215 114.304 154.572 114.31 154.94C114.317 155.308 114.21 155.669 114.005 155.975C113.712 156.271 113.337 156.472 112.929 156.554C112.521 156.635 112.097 156.592 111.713 156.431C110.916 156.102 110.193 155.619 109.583 155.009C109.396 154.861 109.238 154.68 109.115 154.475C109.06 154.375 109.034 154.262 109.04 154.149C109.046 154.035 109.085 153.925 109.151 153.833" fill="#EB996E"/>
<path d="M113.718 151.043C113.442 151.007 113.34 152.879 111.672 154.127C110.004 155.375 108.024 155.063 108 155.327C107.964 155.447 108.426 155.717 109.266 155.783C110.36 155.85 111.443 155.532 112.326 154.883C113.176 154.261 113.749 153.33 113.922 152.291C114.03 151.511 113.85 151.037 113.718 151.043Z" fill="#263238"/>
<path d="M115.026 130.829C115.224 131.285 116.928 130.967 118.962 131.093C120.996 131.219 122.664 131.693 122.904 131.237C123.012 131.033 122.706 130.607 122.022 130.193C121.112 129.688 120.098 129.397 119.058 129.343C118.018 129.289 116.98 129.473 116.022 129.881C115.29 130.223 114.942 130.613 115.026 130.829Z" fill="#263238"/>
<path d="M98.8978 134.201C99.1558 134.633 100.434 134.399 101.898 134.591C103.362 134.783 104.58 135.233 104.898 134.867C105.054 134.693 104.898 134.267 104.418 133.829C103.747 133.275 102.926 132.934 102.06 132.851C101.199 132.74 100.324 132.893 99.5518 133.289C99.0118 133.613 98.7838 133.991 98.8978 134.201Z" fill="#263238"/>
<path d="M131.857 145.973C132.115 143.321 135.097 141.689 137.335 143.135C138.535 143.927 139.459 145.439 139.201 148.253C138.529 155.759 131.137 153.533 131.143 153.317C131.149 153.101 131.533 149.075 131.857 145.973Z" fill="#FFBE9D"/>
<path d="M133.685 150.683C133.721 150.683 133.811 150.785 134.021 150.905C134.318 151.068 134.668 151.107 134.993 151.013C135.815 150.791 136.595 149.597 136.751 148.247C136.831 147.604 136.765 146.952 136.559 146.339C136.509 146.098 136.401 145.874 136.245 145.684C136.09 145.494 135.891 145.344 135.665 145.247C135.518 145.193 135.357 145.194 135.21 145.247C135.063 145.301 134.94 145.405 134.861 145.541C134.741 145.739 134.777 145.895 134.735 145.901C134.693 145.907 134.585 145.763 134.675 145.457C134.733 145.274 134.852 145.117 135.011 145.013C135.232 144.878 135.496 144.832 135.749 144.887C136.052 144.976 136.327 145.141 136.548 145.367C136.769 145.593 136.928 145.872 137.009 146.177C137.274 146.853 137.365 147.586 137.273 148.307C137.093 149.813 136.187 151.157 135.077 151.373C134.867 151.417 134.65 151.413 134.442 151.36C134.234 151.307 134.04 151.206 133.877 151.067C133.685 150.863 133.661 150.689 133.685 150.683Z" fill="#EB996E"/>
<path d="M147.594 177.665C146.994 172.505 149.064 169.187 149.022 163.991C148.974 157.625 147.534 150.515 146.298 144.263C145.098 138.113 143.196 132.755 140.994 126.863C138.792 120.971 133.074 115.109 127.254 112.463C122.118 110.135 115.41 110.777 111.456 114.527C111.167 114.545 110.876 114.545 110.586 114.527C101.784 113.777 100.566 120.245 100.566 120.245C106.032 115.139 109.764 119.645 109.764 119.645C113.088 116.201 118.62 119.177 120.528 122.441C123.216 127.043 123.468 129.785 124.17 132.191C125.934 138.221 131.37 139.421 131.022 145.697C130.62 153.737 126.042 159.935 125.418 167.963C125.28 170.319 124.953 172.661 124.44 174.965C123.738 177.425 112.746 195.965 119.754 197.525C120.013 197.535 120.272 197.521 120.528 197.483L128.328 197.057L134.616 193.025L134.418 197.147L144.732 197.843C147.24 195.719 147.954 192.155 147.696 188.915C147.438 185.675 147.984 180.893 147.594 177.665Z" fill="#263238"/>
<path d="M109.439 119.003C109.465 118.911 109.502 118.823 109.547 118.739C109.631 118.571 109.751 118.325 109.925 118.019C110.396 117.13 111.003 116.32 111.725 115.619C112.238 115.136 112.853 114.777 113.525 114.569C114.312 114.343 115.149 114.362 115.925 114.623C117.581 115.169 118.967 116.537 120.125 118.061C122.108 120.696 123.797 123.541 125.159 126.545C125.699 127.691 126.113 128.621 126.395 129.269C126.515 129.569 126.623 129.815 126.707 130.019C126.791 130.223 126.809 130.283 126.797 130.289C126.738 130.214 126.689 130.131 126.653 130.043L126.281 129.323L124.961 126.647C123.547 123.687 121.845 120.873 119.879 118.247C118.721 116.741 117.377 115.415 115.823 114.893C115.099 114.638 114.314 114.611 113.573 114.815C112.928 115.002 112.333 115.332 111.833 115.781C111.103 116.445 110.474 117.213 109.967 118.061C109.808 118.384 109.632 118.698 109.439 119.003Z" fill="#455A64"/>
<path d="M120.936 123.143C120.888 123.143 120.528 122.339 119.79 121.097C119.353 120.375 118.874 119.68 118.356 119.015C117.734 118.197 116.998 117.471 116.172 116.861C115.762 116.543 115.286 116.319 114.78 116.207C114.31 116.143 113.832 116.227 113.412 116.447C112.681 116.852 112.02 117.372 111.456 117.989C110.944 118.584 110.377 119.131 109.764 119.621C109.879 119.443 110.014 119.278 110.166 119.129C110.43 118.823 110.808 118.373 111.3 117.833C111.862 117.175 112.534 116.618 113.286 116.189C113.758 115.932 114.301 115.834 114.834 115.907C115.385 116.024 115.903 116.261 116.352 116.603C117.201 117.233 117.953 117.985 118.584 118.835C119.098 119.52 119.565 120.24 119.982 120.989C120.258 121.494 120.509 122.012 120.732 122.543C120.827 122.732 120.896 122.934 120.936 123.143Z" fill="#455A64"/>
<path d="M132.774 192.917C132.795 192.843 132.828 192.772 132.87 192.707C132.942 192.557 133.044 192.359 133.17 192.107C133.296 191.855 133.482 191.507 133.674 191.141C133.866 190.775 134.07 190.301 134.31 189.803C135.621 186.939 136.646 183.952 137.37 180.887C138.433 176.338 138.967 171.681 138.96 167.009C138.928 161.287 138.325 155.583 137.16 149.981C135.96 143.981 134.376 138.425 132.852 133.367C131.328 128.309 130.026 123.719 128.1 120.221C126.67 117.406 124.516 115.023 121.86 113.315C121.131 112.869 120.359 112.498 119.556 112.205C119.286 112.097 119.064 112.043 118.956 111.995C118.881 111.975 118.809 111.947 118.74 111.911L118.962 111.959C119.106 112.001 119.328 112.049 119.604 112.145C120.424 112.416 121.213 112.774 121.956 113.213C124.647 114.913 126.83 117.307 128.274 120.143C130.242 123.665 131.544 128.285 133.11 133.313C134.676 138.341 136.248 143.963 137.448 149.951C138.626 155.571 139.229 161.297 139.248 167.039C139.244 171.73 138.686 176.405 137.586 180.965C136.838 184.038 135.776 187.025 134.418 189.881L133.758 191.213L133.23 192.167C133.086 192.407 132.978 192.599 132.894 192.767C132.858 192.82 132.818 192.87 132.774 192.917Z" fill="#455A64"/>
<path d="M134.94 196.163L135.084 195.977C135.188 195.845 135.332 195.671 135.516 195.455L136.224 194.609L137.112 193.409C138.95 190.792 140.386 187.914 141.372 184.871C142.839 180.356 143.568 175.633 143.532 170.885C143.419 165.078 142.613 159.305 141.132 153.689C139.674 147.689 137.898 142.061 136.446 136.889C134.994 131.717 133.818 127.043 132.276 123.293C131.601 121.603 130.799 119.966 129.876 118.397C129.17 117.218 128.367 116.1 127.476 115.055C126.918 114.392 126.317 113.766 125.676 113.183L125.178 112.721C125.118 112.673 125.063 112.619 125.016 112.559C125.08 112.599 125.14 112.645 125.196 112.697L125.718 113.135C126.382 113.7 127.004 114.314 127.578 114.971C128.486 116.012 129.305 117.128 130.026 118.307C130.965 119.876 131.781 121.515 132.468 123.209C134.04 126.965 135.258 131.657 136.71 136.811C138.162 141.965 139.962 147.611 141.426 153.611C142.89 159.611 143.826 165.497 143.772 170.879C143.812 175.656 143.07 180.406 141.576 184.943C140.568 187.997 139.095 190.877 137.208 193.481C136.866 193.931 136.56 194.327 136.296 194.681L135.558 195.509L135.102 196.013L134.94 196.163Z" fill="#455A64"/>
<path d="M129.498 177.059C129.115 176.453 128.835 175.788 128.67 175.091C128.219 173.181 128.249 171.19 128.76 169.295C129.096 167.99 129.556 166.72 130.134 165.503C130.734 164.183 131.466 162.821 132.216 161.381C133.017 159.892 133.707 158.346 134.28 156.755C134.897 155.055 135.175 153.251 135.096 151.445C134.955 149.636 134.55 147.857 133.896 146.165C133.296 144.515 132.582 142.967 131.904 141.491C130.542 138.551 129.312 135.899 128.304 133.661L125.904 128.375L125.262 126.929L125.1 126.551C125.064 126.467 125.052 126.419 125.058 126.419C125.088 126.455 125.112 126.496 125.13 126.539C125.184 126.635 125.244 126.755 125.316 126.905L126.018 128.321C126.618 129.587 127.476 131.375 128.526 133.571C129.576 135.767 130.83 138.437 132.216 141.371C132.9 142.841 133.62 144.371 134.232 146.063C134.892 147.783 135.296 149.59 135.432 151.427C135.514 153.275 135.229 155.12 134.592 156.857C134.01 158.46 133.308 160.016 132.492 161.513C131.736 162.953 130.998 164.303 130.392 165.611C129.812 166.811 129.344 168.063 128.994 169.349C128.472 171.21 128.41 173.171 128.814 175.061C128.937 175.571 129.1 176.07 129.3 176.555C129.379 176.718 129.445 176.886 129.498 177.059Z" fill="#455A64"/>
<path d="M59.1178 207.929C59.1178 207.929 53.4658 231.443 52.6858 237.461C51.6538 245.411 49.3558 258.017 51.4378 263.009C53.5198 268.001 60.3538 271.001 64.5178 269.963C68.6818 268.925 93.8638 232.973 93.8638 232.115L85.7458 222.959L72.2158 232.115L75.7678 212.087L59.1178 207.929Z" fill="#FFBE9D"/>
<path d="M115.805 185.063H98.8974C97.7244 185.063 96.7734 186.014 96.7734 187.187V223.253C96.7734 224.426 97.7244 225.377 98.8974 225.377H115.805C116.978 225.377 117.929 224.426 117.929 223.253V187.187C117.929 186.014 116.978 185.063 115.805 185.063Z" fill="#455A64"/>
<path d="M110.531 208.343C108.971 208.079 105.917 208.607 105.917 208.607L95.1052 210.143L98.3512 206.129C98.3512 206.129 107.207 204.545 109.061 204.017C109.202 203.989 109.337 203.933 109.457 203.853C109.576 203.773 109.679 203.67 109.759 203.551C109.838 203.431 109.894 203.296 109.921 203.155C109.949 203.013 109.948 202.868 109.919 202.727C109.853 202.267 109.619 201.848 109.262 201.55C108.906 201.252 108.452 201.096 107.987 201.113L95.8432 201.371L87.5152 208.643V219.347L85.1152 223.409L93.4312 232.343C93.4312 232.343 99.1492 229.253 99.6772 228.065C99.9933 227.361 100.129 226.59 100.073 225.821L107.153 223.421C107.547 223.29 107.885 223.031 108.114 222.685C108.342 222.339 108.448 221.926 108.413 221.513V221.315L99.4132 220.649L109.211 218.957C109.514 218.905 109.787 218.745 109.98 218.506C110.173 218.268 110.273 217.968 110.261 217.661C110.25 217.354 110.127 217.062 109.916 216.84C109.705 216.617 109.421 216.478 109.115 216.449L97.7152 215.363L107.195 212.183C108.783 211.715 110.338 211.143 111.851 210.473C112.703 210.029 112.289 208.661 110.531 208.343Z" fill="#FFBE9D"/>
<path d="M73.9325 230.945C73.7494 231.134 73.5484 231.305 73.3325 231.455C72.9245 231.767 72.3184 232.205 71.5684 232.745C70.0745 233.819 67.9685 235.259 65.7965 237.017C64.7045 237.905 63.7145 238.817 62.8565 239.651C62.1026 240.406 61.3972 241.207 60.7445 242.051C59.6345 243.515 59.1185 244.535 59.0645 244.505C59.148 244.251 59.2608 244.007 59.4005 243.779C59.5424 243.498 59.7007 243.225 59.8745 242.963C60.0867 242.603 60.317 242.255 60.5645 241.919C61.1987 241.039 61.8966 240.207 62.6525 239.429C63.5838 238.483 64.5674 237.589 65.5985 236.753C67.7945 234.983 69.9185 233.567 71.4425 232.553L73.2425 231.353C73.4571 231.192 73.6884 231.056 73.9325 230.945Z" fill="#EB996E"/>
<path d="M108.462 189.893C108.462 190.085 108.405 190.273 108.298 190.433C108.191 190.593 108.039 190.717 107.862 190.791C107.684 190.864 107.489 190.884 107.3 190.846C107.111 190.809 106.938 190.716 106.802 190.58C106.666 190.444 106.574 190.271 106.536 190.083C106.499 189.894 106.518 189.699 106.592 189.521C106.665 189.343 106.79 189.192 106.95 189.085C107.109 188.978 107.297 188.921 107.49 188.921C107.747 188.921 107.995 189.023 108.177 189.206C108.359 189.388 108.462 189.635 108.462 189.893Z" fill="#E0E0E0"/>
<path d="M128.129 210.239L122.765 202.001C122.765 202.001 110.609 197.981 109.073 198.269C107.909 198.485 107.741 200.165 107.729 200.951C107.729 201.197 107.729 201.353 107.729 201.353L109.295 202.409L116.441 203.723L120.641 206.597L117.773 205.253L109.373 203.951C108.798 203.849 108.206 203.919 107.672 204.154C107.138 204.389 106.686 204.778 106.373 205.271C106.241 205.493 106.373 205.583 106.331 205.811C106.229 206.885 109.727 207.929 109.727 207.929L116.033 209.795L118.241 213.875L110.489 211.475C110.489 211.475 105.725 213.053 105.413 213.671C105.101 214.289 108.659 215.849 108.947 215.861C109.235 215.873 115.013 218.543 115.013 218.543L109.325 218.777L103.205 219.917L105.719 221.117L110.519 221.717L114.635 223.727L114.443 227.459C114.443 227.459 116.243 231.293 117.935 232.259C119.627 233.225 126.509 223.859 126.509 223.859L126.989 219.359L128.135 215.159L127.535 212.591L128.129 210.239Z" fill="#FFBE9D"/>
<path d="M117.93 232.259L126.732 273.491C126.732 273.491 129.408 282.173 139.074 282.173C147.948 282.173 151.2 265.427 151.2 265.427L158.922 224.111L141.624 222.593L136.878 247.049L126.51 223.835L117.93 232.259Z" fill="#FFBE9D"/>
<path d="M142.841 270.215C142.832 269.876 142.854 269.536 142.907 269.201C142.943 268.877 142.979 268.481 142.997 268.001C143.015 267.521 143.069 267.011 143.057 266.429C143.082 265.069 143.024 263.708 142.883 262.355C142.696 260.698 142.393 259.056 141.977 257.441C141.545 255.831 140.999 254.253 140.345 252.719C139.8 251.471 139.181 250.257 138.491 249.083C138.209 248.573 137.891 248.141 137.663 247.751C137.435 247.361 137.195 247.031 137.003 246.767C136.791 246.501 136.605 246.216 136.445 245.915C136.685 246.156 136.904 246.417 137.099 246.695C137.353 247.002 137.589 247.322 137.807 247.655C138.071 248.039 138.407 248.465 138.683 248.969C139.405 250.137 140.048 251.352 140.609 252.605C141.282 254.148 141.842 255.738 142.283 257.363C142.703 258.992 142.998 260.651 143.165 262.325C143.297 263.691 143.336 265.064 143.279 266.435C143.279 267.035 143.207 267.551 143.171 268.013C143.135 268.475 143.081 268.871 143.027 269.213C142.988 269.551 142.926 269.886 142.841 270.215Z" fill="#EB996E"/>
<path d="M160.212 224.201C160.178 224.075 160.158 223.947 160.152 223.817C160.124 223.529 160.088 223.157 160.044 222.701C159.96 221.693 159.846 220.301 159.702 218.597C159.414 215.135 159.054 210.341 158.574 205.061C158.418 203.489 158.298 201.947 158.052 200.513C157.665 199.193 156.97 197.983 156.024 196.985C154.566 195.338 152.941 193.846 151.176 192.533L148.596 191.429L147.912 191.123C147.832 191.09 147.756 191.049 147.684 191.003C147.684 191.003 147.774 191.003 147.936 191.075L148.632 191.333L151.248 192.359C153.056 193.646 154.716 195.129 156.198 196.781C157.187 197.81 157.912 199.064 158.31 200.435C158.568 201.899 158.688 203.435 158.844 205.007C159.324 210.293 159.654 215.087 159.882 218.555C159.984 220.265 160.068 221.657 160.128 222.671L160.176 223.787C160.201 223.923 160.213 224.062 160.212 224.201Z" fill="#263238"/>
<path d="M21.6406 258.761L25.6786 285.299H49.1386L54.5866 259.145L21.6406 258.761Z" fill="#01a809"/>
<path d="M51.3052 275.77C51.3052 275.848 45.3052 275.908 37.8772 275.908C30.4492 275.908 24.4492 275.848 24.4492 275.77C24.4492 275.692 30.4492 275.632 37.8772 275.632C45.3052 275.632 51.3052 275.692 51.3052 275.77Z" fill="#FAFAFA"/>
<path d="M51.3954 274.463C51.3954 274.541 45.3414 274.601 37.8774 274.601C30.4134 274.601 24.3594 274.541 24.3594 274.463C24.3594 274.385 30.4134 274.343 37.8774 274.343C45.3414 274.343 51.3954 274.391 51.3954 274.463Z" fill="#FAFAFA"/>
<path d="M51.3465 272.992C51.3465 273.064 45.2985 273.131 37.8285 273.131C30.3585 273.131 24.3105 273.064 24.3105 272.992C24.3105 272.92 30.3645 272.854 37.8285 272.854C45.2925 272.854 51.3465 272.914 51.3465 272.992Z" fill="#FAFAFA"/>
<path d="M28.3731 283.787C28.043 282.694 27.8022 281.576 27.6531 280.445C27.4141 279.328 27.2636 278.195 27.2031 277.055C27.5333 278.147 27.7741 279.265 27.9231 280.397C28.1622 281.513 28.3126 282.647 28.3731 283.787Z" fill="#FAFAFA"/>
<path d="M29.9696 283.505C29.8034 282.426 29.7052 281.338 29.6756 280.247C29.5562 279.161 29.5061 278.069 29.5256 276.977C29.9454 279.126 30.0946 281.319 29.9696 283.505Z" fill="#FAFAFA"/>
<path d="M32.8779 283.505C32.3247 281.294 32.0585 279.021 32.0859 276.743C32.3019 277.853 32.4541 278.975 32.5419 280.103C32.7205 281.229 32.8327 282.365 32.8779 283.505Z" fill="#FAFAFA"/>
<path d="M34.9304 283.642C34.7077 282.524 34.5992 281.386 34.6064 280.246C34.5266 279.11 34.5608 277.968 34.7084 276.838C34.8313 277.968 34.8894 279.104 34.8824 280.24C34.9656 281.372 34.9816 282.508 34.9304 283.642Z" fill="#FAFAFA"/>
<path d="M38.5309 283.504C38.3529 282.44 38.2686 281.362 38.2789 280.282C38.1857 279.206 38.1857 278.124 38.2789 277.048C38.4534 278.113 38.5357 279.191 38.5249 280.27C38.6144 281.346 38.6165 282.428 38.5309 283.504Z" fill="#FAFAFA"/>
<path d="M41.1759 283.643C41.0058 281.423 41.0239 279.193 41.2299 276.977C41.3919 279.196 41.3738 281.426 41.1759 283.643Z" fill="#FAFAFA"/>
<path d="M43.6479 283.289C43.628 282.123 43.6962 280.958 43.8519 279.803C43.9178 278.64 44.0763 277.484 44.3259 276.347C44.3457 277.512 44.2775 278.677 44.1219 279.833C44.0559 280.995 43.8974 282.151 43.6479 283.289Z" fill="#FAFAFA"/>
<path d="M46.8398 282.941C46.9424 280.945 47.37 278.979 48.1058 277.121C47.9639 278.104 47.7635 279.077 47.5058 280.037C47.3378 281.016 47.1155 281.986 46.8398 282.941Z" fill="#FAFAFA"/>
<path d="M44.5855 206.399C44.588 206.44 44.588 206.483 44.5855 206.525L44.4775 206.903L43.9975 208.343C43.7995 208.943 43.5595 209.717 43.3075 210.611C43.0555 211.505 42.7435 212.507 42.4615 213.611C42.1795 214.715 41.8615 215.969 41.5495 217.307C41.2375 218.645 40.9495 220.073 40.6435 221.579C40.0855 224.609 39.5695 227.951 39.2095 231.485C38.8495 235.019 38.7055 238.403 38.6575 241.481C38.6575 243.017 38.6575 244.481 38.6995 245.849C38.7415 247.217 38.7955 248.489 38.8675 249.653C38.9395 250.817 39.0295 251.861 39.1015 252.785C39.1735 253.709 39.2515 254.501 39.3235 255.149C39.3955 255.797 39.4435 256.276 39.4795 256.636C39.4795 256.798 39.4795 256.925 39.5155 257.027C39.5515 257.129 39.5155 257.158 39.5155 257.158C39.5155 257.158 39.5155 257.117 39.5155 257.033C39.5155 256.949 39.4795 256.805 39.4555 256.649C39.4075 256.283 39.3355 255.785 39.2515 255.161C39.1675 254.537 39.0595 253.721 38.9755 252.797C38.8915 251.873 38.7655 250.828 38.7055 249.665C38.6455 248.5 38.5375 247.228 38.5015 245.854C38.4655 244.48 38.4415 243.017 38.4355 241.475C38.4655 238.391 38.6215 235 38.9635 231.454C39.3055 227.908 39.8515 224.561 40.4275 221.531C40.7395 220.025 41.0275 218.585 41.3575 217.253C41.6875 215.921 41.9935 214.685 42.3055 213.563C42.6175 212.441 42.9055 211.427 43.1935 210.563C43.4815 209.699 43.7095 208.912 43.9255 208.3L44.4235 206.885L44.5315 206.543C44.5615 206.435 44.5795 206.393 44.5855 206.399Z" fill="#455A64"/>
<path d="M40.3303 222.827C40.975 220.914 42.2646 219.285 43.9783 218.219C44.2467 218.008 44.5622 217.866 44.8976 217.804C45.2331 217.743 45.5786 217.763 45.9043 217.865C46.7263 218.261 46.7923 219.413 46.5463 220.265C46.1232 221.744 45.1819 223.022 43.8943 223.865C42.7495 224.714 41.3152 225.077 39.9043 224.873" fill="#455A64"/>
<path d="M38.9216 233.927C39.5216 231.635 41.3576 228.377 43.2536 226.961C43.5443 226.723 43.8785 226.543 44.2376 226.433C44.419 226.383 44.6098 226.377 44.7937 226.417C44.9776 226.457 45.1492 226.54 45.2936 226.661C45.4552 226.876 45.5611 227.128 45.602 227.393C45.6428 227.659 45.6173 227.931 45.5276 228.185C45.1395 229.856 44.2933 231.385 43.084 232.602C41.8747 233.819 40.3502 234.674 38.6816 235.073" fill="#455A64"/>
<path d="M38.5312 243.694C39.4716 241.506 40.9796 239.608 42.8992 238.198C43.1043 238.011 43.3447 237.866 43.6064 237.772C43.868 237.678 44.1457 237.638 44.4232 237.652C45.2512 237.802 45.6232 238.816 45.5572 239.656C45.4072 241.384 44.0872 242.77 42.7252 243.856C41.4716 244.719 40.1125 245.416 38.6812 245.932" fill="#455A64"/>
<path d="M38.752 250.714C39.6619 249.045 40.9303 247.599 42.4659 246.478C42.7952 246.23 43.1769 246.059 43.582 245.98C43.7844 245.945 43.9928 245.964 44.185 246.037C44.3772 246.11 44.5462 246.233 44.6739 246.394C45.0519 246.946 44.674 247.684 44.296 248.194C42.9836 250.02 41.1268 251.383 38.9919 252.088" fill="#455A64"/>
<path d="M38.5671 247.859C36.9632 245.901 35.1838 244.093 33.2511 242.459C33.1211 242.309 32.956 242.194 32.7707 242.124C32.5854 242.054 32.3856 242.031 32.1891 242.057C32.0486 242.117 31.9282 242.216 31.8421 242.343C31.756 242.469 31.7078 242.618 31.7031 242.771C31.7021 243.078 31.7719 243.382 31.9071 243.659C32.5425 245.071 33.4879 246.322 34.6731 247.32C35.8582 248.317 37.2528 249.034 38.7531 249.419" fill="#455A64"/>
<path d="M38.7347 238.727L34.5347 233.633C34.1762 233.122 33.7242 232.685 33.2027 232.343C32.9471 232.151 32.6375 232.045 32.3181 232.04C31.9987 232.035 31.6859 232.132 31.4247 232.316C31.1635 232.5 30.9673 232.762 30.8642 233.064C30.761 233.366 30.7563 233.693 30.8507 233.999C31.0014 234.608 31.2795 235.178 31.6667 235.673C32.4761 236.936 33.5066 238.044 34.7087 238.943C35.9087 239.789 37.0487 240.335 38.5247 240.143" fill="#455A64"/>
<path d="M39.3167 228.437C38.4974 226.001 37.0484 223.825 35.1168 222.131C34.8123 221.825 34.434 221.604 34.0188 221.489C33.5934 221.456 33.1701 221.573 32.8211 221.818C32.472 222.063 32.2188 222.422 32.1048 222.833C31.9723 223.295 31.9375 223.779 32.0026 224.255C32.0677 224.732 32.2312 225.189 32.4827 225.599C32.9951 226.414 33.664 227.12 34.4508 227.675C35.8563 228.751 37.4238 229.598 39.0948 230.183" fill="#455A64"/>
<path d="M40.9853 219.263C40.5833 216.311 39.0473 213.863 37.2653 211.463C36.8873 210.959 36.3653 210.425 35.7473 210.521C35.55 210.562 35.3664 210.652 35.2133 210.783C35.0602 210.915 34.9426 211.082 34.8713 211.271C34.7299 211.654 34.6746 212.064 34.7093 212.471C34.7866 214.259 35.3888 215.986 36.4409 217.435C37.4929 218.884 38.9482 219.991 40.6253 220.619" fill="#455A64"/>
<path d="M42.1317 214.583C41.9389 213.069 41.8867 211.54 41.9757 210.017C42.0737 208.486 42.5997 207.014 43.4937 205.769C43.8775 205.234 44.4034 204.819 45.0117 204.569C45.3169 204.448 45.6481 204.407 45.9736 204.45C46.2992 204.493 46.6083 204.618 46.8717 204.815C47.0961 205.019 47.2718 205.271 47.386 205.553C47.5002 205.834 47.55 206.137 47.5317 206.441C47.478 207.048 47.3176 207.641 47.0577 208.193C45.9477 210.869 44.0937 213.833 42.1557 214.583" fill="#455A64"/>
<path d="M23.9635 218.099C23.9739 218.222 23.9739 218.347 23.9635 218.471C23.9635 218.747 23.9635 219.101 23.9635 219.545C23.9635 219.989 23.9635 220.577 23.9635 221.237C23.9635 221.897 23.9635 222.647 24.0475 223.481C24.1195 225.137 24.2755 227.081 24.5275 229.295C24.7795 231.509 25.1695 233.861 25.6855 236.339C26.2015 238.817 26.8315 241.139 27.4855 243.263C28.1395 245.387 28.7755 247.229 29.3755 248.783C29.6575 249.563 29.9755 250.253 30.2035 250.865C30.4315 251.477 30.6715 251.999 30.8575 252.425L31.2775 253.415C31.3317 253.527 31.3758 253.643 31.4095 253.763C31.3361 253.663 31.2756 253.554 31.2295 253.439L30.7615 252.473C30.5575 252.053 30.3175 251.537 30.0595 250.925C29.8015 250.313 29.4895 249.629 29.1955 248.849C28.5955 247.307 27.8995 245.435 27.2395 243.335C26.5795 241.235 25.9675 238.889 25.4395 236.399C24.9115 233.909 24.5575 231.509 24.2995 229.325C24.0415 227.141 23.9215 225.125 23.8735 223.487C23.8315 222.653 23.8435 221.903 23.8315 221.237C23.8195 220.571 23.8315 220.007 23.8315 219.545C23.8315 219.083 23.8315 218.741 23.8675 218.471C23.8834 218.343 23.9157 218.218 23.9635 218.099Z" fill="#263238"/>
<path d="M24.6172 230.195C24.6457 228.756 25.1715 227.372 26.1052 226.277C26.2432 226.074 26.4284 225.908 26.6448 225.793C26.8611 225.679 27.1022 225.618 27.3472 225.617C27.9892 225.713 28.2832 226.481 28.3012 227.129C28.3372 228.231 27.9728 229.31 27.2752 230.165C26.6778 230.986 25.7813 231.54 24.7792 231.707" fill="#263238"/>
<path d="M26.0328 238.06C25.9548 236.368 26.4948 233.758 27.4848 232.384C27.6311 232.159 27.8208 231.965 28.0428 231.814C28.1545 231.741 28.2822 231.697 28.4149 231.684C28.5477 231.672 28.6815 231.692 28.8048 231.742C28.9624 231.852 29.0899 232 29.1759 232.172C29.2618 232.344 29.3034 232.534 29.2968 232.726C29.3918 233.948 29.1446 235.173 28.5829 236.262C28.0212 237.351 27.1673 238.263 26.1168 238.894" fill="#263238"/>
<path d="M27.8691 244.792C28.0414 243.1 28.6628 241.484 29.6691 240.112C29.7682 239.941 29.9004 239.792 30.0581 239.672C30.2157 239.553 30.3955 239.466 30.5871 239.416C31.1871 239.338 31.6611 239.944 31.7871 240.532C32.0571 241.732 31.4571 242.968 30.7611 243.994C30.096 244.852 29.3214 245.618 28.4571 246.274" fill="#263238"/>
<path d="M29.5312 249.527C29.7934 248.194 30.3466 246.936 31.1513 245.843C31.3184 245.593 31.5426 245.388 31.8053 245.243C31.9353 245.173 32.0819 245.141 32.229 245.15C32.3761 245.158 32.518 245.207 32.6393 245.291C33.0113 245.579 32.9272 246.161 32.7652 246.605C32.2669 248.131 31.2961 249.459 29.9933 250.397" fill="#263238"/>
<path d="M28.7931 247.625C27.2733 246.633 25.6667 245.782 23.9931 245.081C23.8733 245.007 23.7369 244.965 23.5964 244.957C23.4559 244.95 23.3159 244.978 23.1891 245.039C23.1018 245.109 23.0378 245.204 23.0057 245.311C22.9736 245.418 22.9747 245.532 23.0091 245.639C23.0736 245.85 23.1866 246.043 23.3391 246.203C24.0753 247.027 24.9878 247.676 26.0088 248.1C27.0299 248.523 28.1332 248.712 29.2371 248.651" fill="#263238"/>
<path d="M26.9391 241.342L23.0031 238.774C22.6443 238.501 22.2372 238.298 21.8031 238.174C21.5803 238.079 21.3322 238.062 21.0981 238.124C20.864 238.186 20.6574 238.325 20.5112 238.518C20.365 238.711 20.2875 238.947 20.2911 239.19C20.2948 239.432 20.3792 239.666 20.5311 239.854C20.7661 240.236 21.079 240.563 21.4491 240.814C22.2714 241.491 23.2082 242.016 24.2151 242.363C24.6652 242.556 25.1501 242.657 25.6401 242.657C26.1302 242.657 26.6151 242.556 27.0651 242.363" fill="#263238"/>
<path d="M25.1206 234.238C24.0437 232.758 22.5948 231.589 20.9206 230.848C20.6497 230.704 20.3451 230.636 20.0386 230.65C19.7411 230.718 19.4765 230.887 19.2912 231.129C19.1059 231.372 19.0115 231.672 19.0246 231.976C19.0333 232.319 19.1136 232.656 19.2604 232.966C19.4071 233.276 19.617 233.552 19.8766 233.776C20.4056 234.222 21.0173 234.558 21.6766 234.766C22.8512 235.188 24.0836 235.427 25.3306 235.474" fill="#263238"/>
<path d="M24.2807 227.633C23.3747 225.713 21.7967 224.369 20.0807 223.127C19.9207 222.97 19.722 222.858 19.5048 222.804C19.2877 222.749 19.0599 222.753 18.8447 222.815C18.72 222.885 18.6151 222.986 18.5396 223.107C18.4641 223.229 18.4204 223.368 18.4127 223.511C18.398 223.798 18.4472 224.085 18.5567 224.351C18.9939 225.551 19.7751 226.596 20.8028 227.354C21.8304 228.113 23.0589 228.552 24.3347 228.617" fill="#263238"/>
<path d="M24.0706 224.194C23.6111 223.205 23.2474 222.175 22.9846 221.116C22.7186 220.055 22.7581 218.94 23.0986 217.9C23.2421 217.449 23.5105 217.047 23.8726 216.742C24.0552 216.595 24.2718 216.497 24.5026 216.456C24.7333 216.415 24.9707 216.433 25.1926 216.508C25.3882 216.603 25.5602 216.739 25.6962 216.908C25.8322 217.078 25.9287 217.275 25.9786 217.486C26.0749 217.911 26.0932 218.351 26.0326 218.782C25.8526 220.84 25.2286 223.258 24.0706 224.182" fill="#263238"/>
<path d="M53.6277 217.84C53.6367 217.964 53.6367 218.089 53.6277 218.212C53.6277 218.488 53.6277 218.842 53.6697 219.286C53.7117 219.73 53.6697 220.318 53.6697 220.978C53.6697 221.638 53.6697 222.394 53.6277 223.228C53.5797 224.896 53.4417 226.876 53.2017 229.066C52.9617 231.256 52.6017 233.65 52.0617 236.14C51.5217 238.63 50.9097 240.97 50.2617 243.076C49.6137 245.182 48.9357 247.048 48.3117 248.596C48.0117 249.37 47.7117 250.06 47.4417 250.666C47.1717 251.272 46.9437 251.794 46.7457 252.214C46.5477 252.634 46.3977 252.934 46.2777 253.18C46.2286 253.294 46.1683 253.403 46.0977 253.504C46.128 253.384 46.1702 253.268 46.2237 253.156L46.6437 252.166C46.8357 251.746 47.0577 251.224 47.3037 250.606C47.5497 249.988 47.8437 249.304 48.1257 248.524C48.7257 246.976 49.3737 245.104 50.0217 243.004C50.6697 240.904 51.2697 238.564 51.8217 236.08C52.3737 233.596 52.7097 231.214 52.9797 229.036C53.2497 226.858 53.3937 224.878 53.4657 223.222C53.5197 222.388 53.5257 221.638 53.5437 220.978C53.5617 220.318 53.5437 219.748 53.5437 219.286C53.5437 218.824 53.5437 218.488 53.5437 218.212C53.5569 218.085 53.5851 217.961 53.6277 217.84Z" fill="#455A64"/>
<path d="M52.9734 229.942C52.9436 228.501 52.4157 227.115 51.4794 226.018C51.3427 225.816 51.1586 225.65 50.9432 225.535C50.7278 225.42 50.4876 225.359 50.2434 225.358C49.6014 225.454 49.3074 226.222 49.2834 226.87C49.2496 227.974 49.6162 229.052 50.3154 229.906C50.9105 230.731 51.8081 231.285 52.8114 231.448" fill="#455A64"/>
<path d="M51.5515 237.803C51.6355 236.111 51.0895 233.501 50.1055 232.127C49.9592 231.901 49.7695 231.708 49.5475 231.557C49.4348 231.484 49.3061 231.439 49.1724 231.426C49.0387 231.414 48.9039 231.434 48.7795 231.485C48.6261 231.598 48.502 231.747 48.4175 231.918C48.3329 232.089 48.2905 232.278 48.2935 232.469C48.198 233.69 48.4443 234.914 49.0049 236.003C49.5654 237.093 50.4182 238.004 51.4675 238.637" fill="#455A64"/>
<path d="M49.7147 244.535C49.5427 242.842 48.9213 241.226 47.9147 239.855C47.8152 239.683 47.6821 239.532 47.5234 239.413C47.3647 239.293 47.1835 239.207 46.9907 239.159C46.3907 239.081 45.9227 239.687 45.7907 240.275C45.5207 241.475 46.1207 242.711 46.8167 243.737C47.4825 244.595 48.257 245.364 49.1207 246.023" fill="#455A64"/>
<path d="M48.058 249.268C47.7931 247.937 47.2402 246.679 46.438 245.584C46.2677 245.338 46.0442 245.133 45.784 244.984C45.6541 244.915 45.5074 244.882 45.3602 244.89C45.213 244.899 45.071 244.948 44.95 245.032C44.578 245.32 44.662 245.902 44.818 246.346C45.3163 247.872 46.2871 249.2 47.59 250.138" fill="#455A64"/>
<path d="M48.7975 247.343C50.3171 246.351 51.9237 245.499 53.5975 244.799C53.7184 244.725 53.8558 244.682 53.9972 244.675C54.1386 244.668 54.2796 244.696 54.4075 244.757C54.4924 244.828 54.5542 244.924 54.5852 245.03C54.6161 245.137 54.6149 245.251 54.5815 245.357C54.5192 245.567 54.4082 245.76 54.2575 245.921C53.5201 246.745 52.6065 247.394 51.5845 247.817C50.5625 248.241 49.4582 248.43 48.3535 248.369" fill="#455A64"/>
<path d="M50.645 241.109L54.587 238.541C54.945 238.266 55.3523 238.062 55.787 237.941C56.0014 237.888 56.226 237.895 56.4372 237.959C56.6483 238.024 56.8382 238.144 56.987 238.307C57.1062 238.497 57.1694 238.718 57.1694 238.943C57.1694 239.168 57.1062 239.388 56.987 239.579C56.7541 239.96 56.4433 240.287 56.075 240.539C55.2505 241.216 54.3118 241.74 53.303 242.087C52.8538 242.28 52.3699 242.38 51.881 242.38C51.392 242.38 50.9082 242.28 50.459 242.087" fill="#455A64"/>
<path d="M52.4625 233.98C53.5401 232.501 54.9888 231.331 56.6625 230.59C56.933 230.445 57.238 230.377 57.5445 230.392C57.8502 230.456 58.1229 230.628 58.3133 230.875C58.5037 231.123 58.5992 231.43 58.5825 231.742C58.5734 232.085 58.493 232.422 58.3463 232.732C58.1996 233.042 57.9899 233.318 57.7305 233.542C57.2024 233.989 56.5904 234.325 55.9305 234.532C54.7415 234.962 53.4921 235.201 52.2285 235.24" fill="#455A64"/>
<path d="M53.302 227.375C54.214 225.455 55.786 224.111 57.502 222.869C57.6624 222.712 57.8611 222.601 58.0781 222.546C58.2952 222.492 58.5228 222.495 58.738 222.557C58.8635 222.626 58.969 222.726 59.0446 222.848C59.1203 222.97 59.1634 223.109 59.17 223.253C59.184 223.539 59.137 223.825 59.032 224.093C58.5928 225.293 57.8103 226.338 56.782 227.098C55.7536 227.857 54.5247 228.298 53.248 228.365" fill="#455A64"/>
<path d="M53.5302 223.943C53.9872 222.953 54.3507 221.922 54.6162 220.865C54.8774 219.802 54.8358 218.688 54.4962 217.649C54.3503 217.2 54.0823 216.801 53.7222 216.497C53.5414 216.349 53.3254 216.25 53.0952 216.21C52.865 216.17 52.6284 216.19 52.4082 216.269C52.2116 216.362 52.0384 216.499 51.9013 216.668C51.7642 216.837 51.6668 217.035 51.6162 217.247C51.5185 217.671 51.4961 218.11 51.5502 218.543C51.7302 220.601 52.3603 223.019 53.5183 223.943" fill="#455A64"/>
<path d="M18.9473 253.504V258.472C18.9473 258.991 19.1533 259.489 19.5202 259.855C19.887 260.222 20.3845 260.428 20.9033 260.428H54.8753C55.1321 260.428 55.3865 260.378 55.6238 260.28C55.8611 260.181 56.0767 260.037 56.2584 259.855C56.44 259.674 56.5841 259.458 56.6824 259.221C56.7807 258.984 56.8313 258.729 56.8313 258.472V253.504H18.9473Z" fill="#01a809"/>
<g opacity="0.4">
<path d="M21.8926 260.429L22.1746 262.007L53.5246 264.245L54.3166 260.429H21.8926Z" fill="black"/>
</g>
<path d="M56.7702 115.895C71.8807 115.895 84.1301 103.688 84.1301 88.6307C84.1301 73.5732 71.8807 61.3667 56.7702 61.3667C41.6596 61.3667 29.4102 73.5732 29.4102 88.6307C29.4102 103.688 41.6596 115.895 56.7702 115.895Z" fill="#FAFAFA"/>
<path d="M85.5164 108.365C85.2543 108.431 84.9959 108.511 84.7424 108.605C84.0642 108.892 83.4919 109.382 83.1044 110.009C82.8337 110.434 82.6596 110.913 82.5944 111.413C82.5343 111.982 82.6384 112.556 82.8944 113.069C83.1595 113.677 83.6049 114.188 84.1703 114.535C84.7357 114.882 85.3939 115.047 86.056 115.008C86.7181 114.968 87.3523 114.727 87.8727 114.316C88.3932 113.905 88.7749 113.344 88.9664 112.709C89.161 112.17 89.1944 111.586 89.0624 111.029C88.9417 110.541 88.7142 110.086 88.3964 109.697C87.9355 109.119 87.3064 108.7 86.5964 108.497C86.3337 108.43 86.0672 108.38 85.7984 108.347C85.7984 108.347 85.8704 108.347 86.0144 108.347C86.1002 108.338 86.1866 108.338 86.2724 108.347C86.3898 108.357 86.5062 108.377 86.6204 108.407C87.3698 108.589 88.0395 109.01 88.5284 109.607C88.8747 110.009 89.125 110.485 89.2604 110.999C89.4081 111.594 89.381 112.219 89.1824 112.799C88.961 113.439 88.5689 114.008 88.0484 114.443C87.4999 114.935 86.8009 115.226 86.0653 115.27C85.3297 115.313 84.6011 115.106 83.9984 114.683C83.428 114.314 82.971 113.795 82.6784 113.183C82.4057 112.624 82.3034 111.998 82.3844 111.383C82.4567 110.868 82.6433 110.376 82.9304 109.943C83.3497 109.299 83.9666 108.808 84.6884 108.545C84.7997 108.502 84.914 108.468 85.0304 108.443C85.1131 108.422 85.1974 108.408 85.2824 108.401C85.4444 108.359 85.5164 108.353 85.5164 108.365Z" fill="#263238"/>
<path d="M84.0877 90.8689C84.0877 90.8689 84.0877 90.7189 84.0877 90.4249C84.0877 90.1309 84.0877 89.6929 84.0877 89.1289C84.0877 88.8409 84.0877 88.5289 84.0877 88.1689C84.0877 87.8089 84.0337 87.4369 84.0097 87.0229C83.9857 86.6089 83.9377 86.1589 83.9017 85.6789C83.89 85.4327 83.8579 85.1878 83.8057 84.9469C83.7577 84.6949 83.7157 84.4369 83.6677 84.1669C83.2326 81.5716 82.4072 79.0572 81.2197 76.7089C79.6718 73.5865 77.5369 70.7916 74.9317 68.4769L73.8277 67.5169C73.4377 67.2109 73.0237 66.9169 72.6277 66.6349L72.0277 66.1909C71.826 66.0311 71.6113 65.8886 71.3857 65.7649L70.0297 64.9789C69.8017 64.8469 69.5737 64.7089 69.3397 64.5829L68.6137 64.2529L67.1317 63.5749C66.6277 63.3649 66.0937 63.2149 65.5657 63.0229L64.7737 62.7529C64.6417 62.7109 64.5097 62.6569 64.3717 62.6209L63.9577 62.5249C62.8418 62.2276 61.7073 62.0051 60.5617 61.8589C59.9617 61.7929 59.3977 61.6909 58.8037 61.6549L57.0037 61.6069C56.7037 61.6069 56.4037 61.6069 56.0917 61.6069L55.1797 61.6729C54.5797 61.7269 53.9797 61.7509 53.3377 61.8289C52.0901 62.0056 50.8554 62.2641 49.6417 62.6029L48.7177 62.8669C48.5617 62.9089 48.4057 62.9449 48.2557 62.9989L47.8057 63.1729L46.0057 63.8809C45.4057 64.1449 44.8057 64.4809 44.2417 64.7569C43.9537 64.9129 43.6417 65.0389 43.3657 65.2189L42.5197 65.7529C41.3775 66.4821 40.2833 67.2837 39.2437 68.1529L37.7497 69.5629L37.3777 69.9169C37.2577 70.0429 37.1497 70.1749 37.0297 70.3009L36.3457 71.0869L35.6617 71.8669L35.0617 72.7189L34.4617 73.5709L34.1557 73.9969C34.0597 74.1469 33.9757 74.3029 33.8857 74.4529C33.5317 75.0529 33.1717 75.6529 32.8177 76.2949C32.4637 76.9369 32.2177 77.5909 31.9237 78.2389C29.6274 83.635 29.1596 89.6341 30.5917 95.3209L31.1917 97.3849C31.4477 98.0529 31.7057 98.7129 31.9657 99.3649L32.1577 99.8569L32.3977 100.331L32.8717 101.267L33.3457 102.203L33.9037 103.085L34.4557 103.961L34.7377 104.399L35.0557 104.807L36.3097 106.433C37.1923 107.425 38.134 108.363 39.1297 109.241L39.8797 109.895C40.1317 110.117 40.4137 110.291 40.6777 110.495C41.2177 110.879 41.7397 111.281 42.2857 111.635L43.9717 112.619L44.3857 112.859L44.8237 113.063L45.6997 113.465C46.8442 113.99 48.0229 114.437 49.2277 114.803C49.8277 114.977 50.4277 115.097 51.0277 115.241L51.9157 115.451C52.2157 115.517 52.5157 115.535 52.8157 115.583L54.6157 115.811C55.2157 115.865 55.8157 115.853 56.4157 115.883C57.5694 115.918 58.724 115.874 59.8717 115.751H60.2977L60.7117 115.679L61.5397 115.535C62.0857 115.433 62.6377 115.367 63.1717 115.235L64.7377 114.797L65.5117 114.581L66.2557 114.299L67.7137 113.729C67.9556 113.641 68.1903 113.535 68.4157 113.411L69.0937 113.069C69.5437 112.841 69.9937 112.625 70.4257 112.385L71.6677 111.605C74.6023 109.725 77.1451 107.294 79.1557 104.447C79.3837 104.135 79.6057 103.847 79.8157 103.529L80.3677 102.587L80.8957 101.681C80.9797 101.531 81.0757 101.387 81.1477 101.237C81.2197 101.087 81.2917 100.937 81.3577 100.787L82.1497 99.0709C82.3837 98.5189 82.5397 97.9669 82.7497 97.4569C82.8397 97.2049 82.9237 96.9529 83.0077 96.7129C83.0988 96.4837 83.1691 96.2467 83.2177 96.0049C83.3317 95.5369 83.4337 95.0989 83.5297 94.6969C83.6257 94.2949 83.7277 93.9169 83.7877 93.5689L83.9197 92.6269C83.9977 92.0629 84.0577 91.6369 84.0997 91.3429C84.1417 91.0489 84.1657 90.9049 84.1657 90.9049C84.1657 90.9049 84.1657 91.0489 84.1237 91.3429C84.0817 91.6369 84.0337 92.0689 83.9677 92.6329C83.9317 92.9149 83.8957 93.2329 83.8537 93.5809C83.8117 93.9289 83.6917 94.3009 83.6077 94.7089C83.5237 95.1169 83.4097 95.5549 83.3017 96.0289C83.2552 96.2725 83.187 96.5115 83.0977 96.7429C83.0137 96.9829 82.9297 97.2349 82.8457 97.4929C82.6597 98.0029 82.5097 98.5549 82.2757 99.1129C82.0417 99.6709 81.7657 100.235 81.4897 100.841C81.4237 100.991 81.3517 101.141 81.2857 101.297C81.2197 101.453 81.1177 101.591 81.0337 101.741L80.5057 102.653L79.9537 103.601C79.7497 103.913 79.5217 104.201 79.2997 104.531C77.2819 107.392 74.7314 109.836 71.7877 111.731L70.5457 112.523C70.1077 112.763 69.6517 112.979 69.2017 113.213L68.5177 113.561C68.2898 113.686 68.0532 113.794 67.8097 113.885L66.3457 114.455C66.0937 114.551 65.8477 114.653 65.5957 114.743L64.8217 114.965L63.2437 115.409C62.7037 115.541 62.1517 115.613 61.5997 115.715L60.7657 115.865C60.6277 115.865 60.4897 115.919 60.3457 115.931L59.9197 115.967C58.7622 116.092 57.5975 116.138 56.4337 116.105C55.8337 116.105 55.2337 116.105 54.6337 116.039L52.8337 115.805C52.5337 115.763 52.2337 115.739 51.9277 115.679L51.0277 115.469C50.4277 115.319 49.8277 115.205 49.2277 115.031C48.0129 114.661 46.8242 114.21 45.6697 113.681L44.7877 113.279L44.3437 113.075L43.9237 112.829L42.1297 111.833C41.5777 111.473 41.0497 111.065 40.5037 110.681C40.2397 110.483 39.9517 110.309 39.6997 110.081L38.9437 109.415C37.916 108.521 36.9479 107.561 36.0457 106.541L34.7737 104.903L34.4557 104.495L34.1737 104.051L33.6157 103.169L33.0517 102.281L32.5717 101.339L32.0917 100.391L31.8517 99.9109L31.6537 99.4189C31.3957 98.7529 31.1377 98.0869 30.8737 97.4149C30.6097 96.7429 30.4897 96.0349 30.2737 95.3329C28.8277 89.5938 29.3019 83.539 31.6237 78.0949L32.5237 76.1269C32.8837 75.5269 33.2437 74.8909 33.5977 74.2729C33.6937 74.1229 33.7777 73.9669 33.8737 73.8169L34.1797 73.3849L34.7797 72.5209L35.3797 71.6629L36.1297 70.8829L36.8197 70.0909C36.9397 69.9649 37.0477 69.8269 37.1677 69.7009L37.5457 69.3469L39.0817 67.9429C40.1278 67.0686 41.2323 66.2667 42.3877 65.5429L43.2397 65.0029C43.5217 64.8229 43.8397 64.6969 44.1217 64.5409C44.7217 64.2469 45.3217 63.9409 45.9217 63.6589L47.7577 62.9449L48.2077 62.7709C48.3637 62.7169 48.5197 62.6809 48.6757 62.6329L49.6117 62.3749C50.8353 62.0335 52.0799 61.7729 53.3377 61.5949C53.9377 61.5169 54.5797 61.4929 55.1977 61.4449L56.1157 61.3789C56.4217 61.3789 56.7157 61.3789 57.0337 61.3789L58.8337 61.4269C59.4337 61.4689 60.0337 61.5709 60.6337 61.6429C61.7882 61.7853 62.9311 62.0098 64.0537 62.3149L64.4677 62.4169C64.6057 62.4529 64.7377 62.5069 64.8757 62.5489L65.6737 62.8249C66.2017 63.0109 66.7417 63.1669 67.2517 63.3829L68.7397 64.0669L69.4717 64.4029C69.7117 64.5289 69.9397 64.6729 70.1677 64.8049L71.5297 65.6029C71.7527 65.7309 71.9671 65.8732 72.1717 66.0289L72.7717 66.4789C73.1857 66.7789 73.5997 67.0789 73.9717 67.3729C74.3437 67.6669 74.7157 68.0269 75.0817 68.3449C77.697 70.6813 79.8362 73.5009 81.3817 76.6489C82.5592 79.0141 83.3686 81.5453 83.7817 84.1549C83.8237 84.4189 83.8717 84.6769 83.9137 84.9349C83.9634 85.1783 83.9954 85.4249 84.0097 85.6729C84.0097 86.1529 84.0697 86.5969 84.0997 87.0169C84.1297 87.4369 84.1657 87.8149 84.1717 88.1689L84.1357 89.1289C84.1357 89.6929 84.0997 90.1249 84.0877 90.4249C84.0757 90.7249 84.0877 90.8689 84.0877 90.8689Z" fill="#263238"/>
<path d="M48.2977 82.0785H53.0977C53.0977 82.0785 53.0977 78.0705 57.2617 77.9985C58.0647 77.9692 58.8569 78.191 59.5279 78.633C60.199 79.075 60.7156 79.7152 61.0057 80.4645C61.2572 81.09 61.3573 81.766 61.2979 82.4375C61.2384 83.109 61.0212 83.7569 60.6637 84.3285C59.8537 85.6665 58.0837 86.8785 54.8617 86.3145V97.0785H59.5837V90.7725C59.5837 90.7725 66.1837 89.0625 66.1837 81.7725C66.1837 74.7945 59.9197 73.1745 57.2437 73.1745C55.1917 73.1625 48.2077 73.6545 48.2977 82.0785Z" fill="#263238"/>
<path d="M59.6202 99.2988H54.8262V103.775H59.6202V99.2988Z" fill="#263238"/>
<path d="M282.13 285.299C282.13 285.389 221.446 285.455 146.602 285.455C71.7584 285.455 11.0684 285.389 11.0684 285.299C11.0684 285.209 71.7404 285.143 146.602 285.143C221.464 285.143 282.13 285.215 282.13 285.299Z" fill="#263238"/>
</svg>
