<svg width="61" height="60" viewBox="0 0 61 60" fill="none" xmlns="http://www.w3.org/2000/svg">
<g clip-path="url(#clip0_1342_5256)">
<path d="M57.5469 10.0005V15.0005H50.0469V22.5005H45.0469V15.0005H37.5469V10.0005H45.0469V2.50049H50.0469V10.0005H57.5469ZM36.2969 27.5005C38.3669 27.5005 40.0469 25.8205 40.0469 23.7505C40.0469 21.6805 38.3669 20.0005 36.2969 20.0005C34.2269 20.0005 32.5469 21.6805 32.5469 23.7505C32.5469 25.8205 34.2269 27.5005 36.2969 27.5005ZM45.0469 35.5855L43.7644 34.1605C41.7794 31.948 38.3144 31.948 36.3244 34.1605L34.6869 35.9855L22.5469 22.5005L15.0469 30.833V15.0005H32.5469V10.0005H15.0469C12.2844 10.0005 10.0469 12.238 10.0469 15.0005V45.0005C10.0469 47.763 12.2844 50.0005 15.0469 50.0005H45.0469C47.8094 50.0005 50.0469 47.763 50.0469 45.0005V27.5005H45.0469V35.5855Z" fill="black" fill-opacity="0.5"/>
</g>
<defs>
<clipPath id="clip0_1342_5256">
<rect width="60" height="60" fill="white" transform="translate(0.046875 0.000488281)"/>
</clipPath>
</defs>
</svg>
