<svg width="31" height="27" viewBox="0 0 31 27" fill="none" xmlns="http://www.w3.org/2000/svg">
<path d="M30.3541 22.9383L17.2291 0.888276C17.0576 0.633044 16.8259 0.423915 16.5546 0.279314C16.2832 0.134714 15.9804 0.059082 15.6729 0.059082C15.3654 0.059082 15.0626 0.134714 14.7912 0.279314C14.5198 0.423915 14.2881 0.633044 14.1166 0.888276L0.972865 23.0695C0.260365 24.2695 0.841615 26.257 2.24786 26.257H29.1729C30.5604 26.257 31.0666 24.1383 30.3541 22.9383ZM17.2291 23.632H14.0604V20.4258H17.2479L17.2291 23.632ZM17.2291 16.9383H14.0979L13.7979 5.63203H17.5479L17.2291 16.9383Z" fill="white"/>
</svg>
