<svg width="61" height="61" viewBox="0 0 61 61" fill="none" xmlns="http://www.w3.org/2000/svg">
<g clip-path="url(#clip0_5598_4215)">
<path d="M47.6452 0.261719H13.3595C10.8278 0.261719 8.76807 2.32143 8.76807 4.853V55.6704C8.76807 58.2021 10.8278 60.2617 13.3595 60.2617H47.6452C50.1769 60.2617 52.2366 58.2021 52.2366 55.6704V4.853C52.2365 2.32143 50.1768 0.261719 47.6452 0.261719ZM30.5024 56.968C29.4246 56.968 28.5511 56.0944 28.5511 55.0167C28.5511 53.9392 29.4246 53.0654 30.5024 53.0654C31.5798 53.0654 32.4536 53.9392 32.4536 55.0167C32.4536 56.0944 31.5799 56.968 30.5024 56.968ZM49.1756 50.8891H11.8291V9.63429H49.1756V50.8891Z" fill="black"/>
<path d="M38.4229 26.1138C38.5089 26.1998 38.6284 26.2363 38.7513 26.2264C38.8746 26.2161 39.0013 26.1588 39.1037 26.0568L41.7604 23.4C41.9636 23.1967 41.9893 22.892 41.8166 22.7198L38.0456 18.9484C37.8734 18.776 37.5687 18.8014 37.3652 19.0046L34.7082 21.6611C34.5046 21.8648 34.479 22.17 34.6514 22.3421L38.4229 26.1138Z" fill="black"/>
<path d="M19.5167 41.6892C19.5573 41.6855 19.599 41.6771 19.6403 41.6626L25.0172 39.8471C25.1876 39.7895 25.3294 39.6488 25.3877 39.4788C25.4469 39.3091 25.4142 39.1349 25.3026 39.0233L21.741 35.4619C21.6294 35.3503 21.4556 35.3178 21.2854 35.3762C21.1153 35.4349 20.9747 35.5762 20.9169 35.7471L19.1017 41.1241C19.0442 41.2935 19.0776 41.4652 19.1886 41.5758C19.2722 41.6601 19.391 41.6995 19.5167 41.6892Z" fill="black"/>
<path d="M26.2878 30.0802L22.5326 33.8355C22.3289 34.0394 22.3035 34.3438 22.4762 34.516L26.2479 38.2872C26.3338 38.374 26.4528 38.4104 26.5762 38.4002C26.6989 38.3901 26.8265 38.3325 26.9282 38.2311L30.7562 34.403C31.0903 34.6982 31.4216 34.9861 31.7486 35.2631C31.9001 35.3915 32.0909 35.4605 32.2868 35.4605C32.3313 35.4605 32.3753 35.4571 32.4199 35.4501C32.6603 35.4111 32.8713 35.2687 32.9979 35.0607C33.2212 34.694 33.5128 34.3297 33.8636 33.979C34.3038 33.5387 34.7941 33.194 35.3196 32.9544C35.5563 32.8462 35.7291 32.6335 35.7865 32.38C35.8433 32.1262 35.7789 31.8598 35.6115 31.6608C35.2982 31.2881 34.9702 30.9092 34.6323 30.5274L37.5838 27.5761C37.6812 27.4787 37.7423 27.3517 37.7526 27.2238C37.7635 27.0965 37.7228 26.9781 37.6399 26.8957L33.8685 23.1242C33.6963 22.9515 33.3916 22.9768 33.1879 23.1804L30.3098 26.0592C28.3792 24.2291 26.4406 22.5965 24.7318 21.3681C23.5286 20.5035 21.3278 19.05 20.1025 19.0314C19.8788 19.0274 19.6623 19.115 19.5035 19.2725C19.3442 19.4302 19.2558 19.6458 19.2573 19.8698C19.2638 20.7048 19.9968 22.2112 21.3208 24.111C22.5808 25.9191 24.3123 27.9968 26.2878 30.0802Z" fill="black"/>
<path d="M37.4073 33.6523C36.4379 33.6523 35.5122 34.0658 34.7307 34.8473C33.7922 35.7858 33.3825 36.7703 33.5462 37.6943C33.7083 38.6096 34.4355 39.4295 35.5409 39.9425C36.4925 40.3845 37.3593 40.5216 38.1243 40.6423C38.9293 40.7696 39.689 40.8893 40.3649 41.3482C40.5055 41.4441 40.669 41.4923 40.833 41.4923C40.9483 41.4923 41.064 41.4686 41.1726 41.4196C41.4357 41.3026 41.6199 41.0566 41.6577 40.7706C41.9479 38.6086 41.5335 36.6672 40.49 35.3049C39.6853 34.2546 38.5617 33.6523 37.4073 33.6523Z" fill="black"/>
</g>
<defs>
<clipPath id="clip0_5598_4215">
<rect width="60" height="60" fill="white" transform="translate(0.502441 0.261719)"/>
</clipPath>
</defs>
</svg>
