<svg width="14" height="8" viewBox="0 0 14 8" fill="none" xmlns="http://www.w3.org/2000/svg">
<path d="M13.1992 4.6709C13.4754 4.6709 13.6992 4.44704 13.6992 4.1709C13.6992 3.89476 13.4754 3.6709 13.1992 3.6709V4.6709ZM1.05172 3.81735C0.856458 4.01261 0.856458 4.32919 1.05172 4.52445L4.2337 7.70643C4.42896 7.90169 4.74555 7.90169 4.94081 7.70643C5.13607 7.51117 5.13607 7.19459 4.94081 6.99933L2.11238 4.1709L4.94081 1.34247C5.13607 1.14721 5.13607 0.830627 4.94081 0.635365C4.74555 0.440102 4.42896 0.440102 4.2337 0.635365L1.05172 3.81735ZM13.1992 3.6709L1.40527 3.6709V4.6709L13.1992 4.6709V3.6709Z" fill="white"/>
</svg>
