<svg width="31" height="19" viewBox="0 0 31 19" fill="none" xmlns="http://www.w3.org/2000/svg">
<path d="M30.4198 14.3206C30.2959 14.1322 30.0855 14.0188 29.86 14.0188H28.3814V14.0121C28.3814 8.21016 23.6609 3.49003 17.8586 3.49003H17.8518V2.72661C17.8518 1.50517 16.8579 0.511475 15.636 0.511475H15.4242C14.2024 0.511475 13.2084 1.50517 13.2084 2.72661V3.49003H13.2016C7.39925 3.49003 2.67876 8.21022 2.67876 14.0121V14.0188H1.20056C0.975093 14.0188 0.764683 14.1322 0.640699 14.3206C0.516714 14.5089 0.495738 14.7469 0.584859 14.9541C1.50537 17.0923 3.60437 18.4739 5.93247 18.4739H25.1282C26.2685 18.4739 27.3753 18.1423 28.3289 17.5151C29.282 16.8882 30.0244 16.0027 30.4757 14.9541C30.5648 14.7469 30.5438 14.5089 30.4198 14.3206ZM14.549 2.72661C14.549 2.24433 14.9417 1.85192 15.4244 1.85192H15.6362C16.1188 1.85192 16.5115 2.24427 16.5115 2.72661V3.49003H14.549V2.72661ZM4.01956 14.0121C4.01956 8.94932 8.13876 4.83048 13.2018 4.83048H13.8788H17.1817H17.8587C22.9218 4.83048 27.041 8.94938 27.041 14.0121V14.0188H4.01956V14.0121ZM27.5923 16.3951C26.8581 16.8781 26.0059 17.1334 25.1281 17.1334H5.93242C4.508 17.1334 3.19503 16.4615 2.36042 15.3593H3.34931H27.7112H28.7002C28.3946 15.7629 28.0211 16.1131 27.5923 16.3951Z" fill="black"/>
<path d="M13.9565 6.03198H13.2031C9.58932 6.03198 6.41852 8.47194 5.49227 11.9654C5.39741 12.3232 5.61057 12.6902 5.96841 12.785C6.02589 12.8003 6.08378 12.8075 6.14061 12.8075C6.43721 12.8075 6.70845 12.6091 6.78802 12.309C7.55864 9.40241 10.1966 7.37243 13.2031 7.37243H13.9565C14.3266 7.37243 14.6267 7.07237 14.6267 6.70218C14.6267 6.33204 14.3266 6.03198 13.9565 6.03198Z" fill="black"/>
<path d="M16.3702 6.03198H16.0599C15.6898 6.03198 15.3896 6.33204 15.3896 6.70224C15.3896 7.07243 15.6898 7.37249 16.0599 7.37249H16.3702C16.7404 7.37249 17.0405 7.07243 17.0405 6.70224C17.0405 6.33204 16.7404 6.03198 16.3702 6.03198Z" fill="black"/>
</svg>
