<svg width="16" height="16" viewBox="0 0 16 16" fill="none" xmlns="http://www.w3.org/2000/svg">
<g clip-path="url(#clip0_562_3492)">
<path d="M1.7644 15.3373C1.76516 13.9093 2.09901 12.5012 2.7394 11.2248C2.9519 10.7623 3.18315 10.3311 3.3644 9.89981C3.86217 9.0013 4.13454 7.99546 4.15815 6.96856C4.09098 4.92224 3.6855 2.90117 2.95815 0.987305" stroke="#020202" stroke-miterlimit="10"/>
<path d="M13.7207 15.3373C13.7274 13.9342 13.4109 12.5484 12.7957 11.2873C12.5707 10.8123 12.3394 10.3686 12.1269 9.93106C11.627 9.03311 11.3524 8.02723 11.3269 6.99981C11.389 4.94277 11.7946 2.91058 12.5269 0.987305" stroke="#020202" stroke-miterlimit="10"/>
<path d="M12.7958 11.2869L8.80825 14.4119C8.50464 14.6483 8.13051 14.7759 7.74575 14.7744C7.35539 14.7742 6.97656 14.642 6.67075 14.3994L2.7395 11.2244C2.952 10.7619 3.18325 10.3307 3.3645 9.89941C6.23494 10.6338 9.24407 10.6338 12.1145 9.89941C12.3395 10.3369 12.5708 10.7807 12.7958 11.2869Z" stroke="#020202" stroke-miterlimit="10"/>
<path d="M7.7395 5.76855V6.96855" stroke="#020202" stroke-miterlimit="10"/>
<path d="M0.920654 5.52441L2.3644 6.96816L0.920654 8.41191" stroke="#020202" stroke-miterlimit="10"/>
<path d="M14.6708 8.41191L13.2271 6.96816L14.6708 5.52441" stroke="#020202" stroke-miterlimit="10"/>
</g>
<defs>
<clipPath id="clip0_562_3492">
<rect width="15" height="15" fill="white" transform="translate(0.239502 0.662109)"/>
</clipPath>
</defs>
</svg>
