<svg width="31" height="31" viewBox="0 0 31 31" fill="none" xmlns="http://www.w3.org/2000/svg">
<path d="M15.4473 14.9541C18.5539 14.9541 21.0723 12.4357 21.0723 9.3291C21.0723 6.2225 18.5539 3.7041 15.4473 3.7041C12.3407 3.7041 9.82227 6.2225 9.82227 9.3291C9.82227 12.4357 12.3407 14.9541 15.4473 14.9541Z" stroke="black" stroke-miterlimit="10" stroke-linecap="round" stroke-linejoin="round"/>
<path d="M21.0723 9.3291H24.8223C25.8535 9.3291 26.6973 10.1729 26.6973 11.2041V26.2041C26.6973 27.2354 25.8535 28.0791 24.8223 28.0791H6.07227C5.04102 28.0791 4.19727 27.2354 4.19727 26.2041V11.2041C4.19727 10.1729 5.04102 9.3291 6.07227 9.3291H9.82227" stroke="black" stroke-miterlimit="10" stroke-linecap="round" stroke-linejoin="round"/>
<path d="M15.4473 28.0791V14.9541" stroke="black" stroke-miterlimit="10" stroke-linecap="round" stroke-linejoin="round"/>
<path d="M16.1035 9.98535C15.7285 10.3604 15.166 10.3604 14.791 9.98535C14.416 9.61035 14.416 9.04785 14.791 8.67285C15.166 8.29785 17.416 7.36035 17.416 7.36035C17.416 7.36035 16.4785 9.61035 16.1035 9.98535Z" stroke="black" stroke-miterlimit="10" stroke-linecap="round" stroke-linejoin="round"/>
</svg>
