<svg width="18" height="18" viewBox="0 0 18 18" fill="none" xmlns="http://www.w3.org/2000/svg">
<g clip-path="url(#clip0_4564_6957)">
<path d="M9 3.9375C10.0873 3.9375 10.9688 3.05606 10.9688 1.96875C10.9688 0.881439 10.0873 0 9 0C7.91269 0 7.03125 0.881439 7.03125 1.96875C7.03125 3.05606 7.91269 3.9375 9 3.9375Z" fill="black"/>
<path d="M15.3633 4.50008H2.63672C2.38497 4.50008 2.14353 4.60008 1.96552 4.7781C1.78751 4.95611 1.6875 5.19755 1.6875 5.4493C1.6875 5.70105 1.78751 5.94248 1.96552 6.1205C2.14353 6.29851 2.38497 6.39852 2.63672 6.39852H6.21844C6.46137 6.39852 6.74578 6.50715 6.9068 6.92586C7.09488 7.41207 7.00277 8.35109 6.88676 9.07848L6.73488 9.93805C6.73517 9.94028 6.73493 9.94256 6.7342 9.94469C6.73347 9.94682 6.73226 9.94876 6.73066 9.95035L5.51426 16.8695C5.47014 17.1206 5.52731 17.379 5.67324 17.5881C5.81918 17.7973 6.04201 17.9401 6.29297 17.9853C6.41704 18.0073 6.54424 18.0043 6.66718 17.9767C6.79011 17.9491 6.90634 17.8973 7.00911 17.8244C7.11187 17.7515 7.19913 17.6589 7.26582 17.552C7.33251 17.4451 7.37729 17.326 7.39758 17.2017L8.23816 12.3923C8.23816 12.3923 8.50781 11.2501 9 11.2501C9.50027 11.2501 9.7643 12.3923 9.7643 12.3923L10.6049 17.2059C10.6252 17.3314 10.6703 17.4515 10.7376 17.5593C10.8048 17.6672 10.8928 17.7606 10.9965 17.8341C11.1002 17.9075 11.2175 17.9596 11.3415 17.9873C11.4656 18.015 11.5939 18.0177 11.719 17.9953C11.8441 17.973 11.9635 17.9259 12.0702 17.8569C12.1769 17.7879 12.2688 17.6983 12.3406 17.5934C12.4124 17.4885 12.4625 17.3704 12.4882 17.2459C12.5138 17.1214 12.5144 16.9931 12.49 16.8684L11.2732 9.9493C11.2735 9.94709 11.2732 9.94485 11.2726 9.94273C11.2719 9.94061 11.2708 9.93866 11.2693 9.93699L11.1171 9.07742C11.0011 8.35004 10.909 7.41102 11.0971 6.9248C11.2574 6.50715 11.5509 6.39746 11.7749 6.39746H15.3633C15.615 6.39746 15.8565 6.29745 16.0345 6.11944C16.2125 5.94143 16.3125 5.69999 16.3125 5.44824C16.3125 5.19649 16.2125 4.95506 16.0345 4.77704C15.8565 4.59903 15.615 4.49902 15.3633 4.49902V4.50008Z" fill="black"/>
</g>
<defs>
<clipPath id="clip0_4564_6957">
<rect width="18" height="18" fill="white"/>
</clipPath>
</defs>
</svg>
