<svg width="25" height="25" viewBox="0 0 25 25" fill="none" xmlns="http://www.w3.org/2000/svg">
<path d="M6.69191 22.7446C6.57979 22.8253 6.44757 22.8734 6.30984 22.8837C6.1721 22.894 6.0342 22.8661 5.91133 22.803C5.78846 22.7399 5.6854 22.6441 5.61351 22.5262C5.54162 22.4082 5.50369 22.2727 5.50391 22.1346V7.14062C5.50391 6.27867 5.84632 5.45202 6.45581 4.84253C7.0653 4.23303 7.89195 3.89063 8.75391 3.89062H16.2529C17.1145 3.89089 17.9408 4.23328 18.55 4.84253C19.1593 5.45178 19.5016 6.27802 19.5019 7.13963V22.1356C19.5019 22.2737 19.4639 22.409 19.3919 22.5268C19.32 22.6446 19.2169 22.7403 19.094 22.8032C18.9712 22.8662 18.8334 22.894 18.6957 22.8837C18.5581 22.8734 18.426 22.8252 18.3139 22.7446L12.5029 18.5636L6.69091 22.7436L6.69191 22.7446ZM18.0019 7.13963C18.0019 6.6755 17.8175 6.23038 17.4893 5.90219C17.1612 5.574 16.716 5.38963 16.2519 5.38963H8.75491C8.29078 5.38963 7.84566 5.574 7.51747 5.90219C7.18928 6.23038 7.00491 6.6755 7.00491 7.13963V20.6716L12.0669 17.0316C12.1945 16.9398 12.3477 16.8904 12.5049 16.8904C12.6621 16.8904 12.8153 16.9398 12.9429 17.0316L18.0029 20.6716V7.14062L18.0019 7.13963Z" fill="#536471"/>
</svg>
