<svg width="21" height="21" viewBox="0 0 21 21" fill="none" xmlns="http://www.w3.org/2000/svg">
<path d="M16.4694 3.37956H14.8027V2.54622C14.8027 2.32521 14.7149 2.11325 14.5587 1.95697C14.4024 1.80069 14.1904 1.71289 13.9694 1.71289C13.7484 1.71289 13.5364 1.80069 13.3801 1.95697C13.2239 2.11325 13.1361 2.32521 13.1361 2.54622V3.37956H8.13607V2.54622C8.13607 2.32521 8.04827 2.11325 7.89199 1.95697C7.73571 1.80069 7.52375 1.71289 7.30273 1.71289C7.08172 1.71289 6.86976 1.80069 6.71348 1.95697C6.5572 2.11325 6.4694 2.32521 6.4694 2.54622V3.37956H4.80273C4.13969 3.37956 3.50381 3.64295 3.03497 4.11179C2.56613 4.58063 2.30273 5.21652 2.30273 5.87956V15.8796C2.30273 16.5426 2.56613 17.1785 3.03497 17.6473C3.50381 18.1162 4.13969 18.3796 4.80273 18.3796H16.4694C17.1324 18.3796 17.7683 18.1162 18.2372 17.6473C18.706 17.1785 18.9694 16.5426 18.9694 15.8796V5.87956C18.9694 5.21652 18.706 4.58063 18.2372 4.11179C17.7683 3.64295 17.1324 3.37956 16.4694 3.37956ZM17.3027 15.8796C17.3027 16.1006 17.2149 16.3125 17.0587 16.4688C16.9024 16.6251 16.6904 16.7129 16.4694 16.7129H4.80273C4.58172 16.7129 4.36976 16.6251 4.21348 16.4688C4.0572 16.3125 3.9694 16.1006 3.9694 15.8796V10.0462H17.3027V15.8796ZM17.3027 8.37956H3.9694V5.87956C3.9694 5.65854 4.0572 5.44658 4.21348 5.2903C4.36976 5.13402 4.58172 5.04622 4.80273 5.04622H6.4694V5.87956C6.4694 6.10057 6.5572 6.31253 6.71348 6.46881C6.86976 6.62509 7.08172 6.71289 7.30273 6.71289C7.52375 6.71289 7.73571 6.62509 7.89199 6.46881C8.04827 6.31253 8.13607 6.10057 8.13607 5.87956V5.04622H13.1361V5.87956C13.1361 6.10057 13.2239 6.31253 13.3801 6.46881C13.5364 6.62509 13.7484 6.71289 13.9694 6.71289C14.1904 6.71289 14.4024 6.62509 14.5587 6.46881C14.7149 6.31253 14.8027 6.10057 14.8027 5.87956V5.04622H16.4694C16.6904 5.04622 16.9024 5.13402 17.0587 5.2903C17.2149 5.44658 17.3027 5.65854 17.3027 5.87956V8.37956Z" fill="black" fill-opacity="0.5"/>
</svg>
