<svg width="9" height="12" viewBox="0 0 9 12" fill="none" xmlns="http://www.w3.org/2000/svg">
<path d="M3.98857 1.71598C4.41874 2.13482 4.7538 2.64128 4.97102 3.201C5.18825 3.76072 5.28258 4.36061 5.24757 4.95999C5.24537 5.14359 5.30901 5.3219 5.42697 5.46261C5.54493 5.60332 5.7094 5.69711 5.89056 5.72699C5.93052 5.73834 5.97208 5.74307 6.01357 5.74099C6.21497 5.74232 6.40872 5.66386 6.55244 5.52276C6.69617 5.38166 6.77819 5.18939 6.78056 4.98799V4.87799C6.78056 4.82299 6.78057 4.69998 6.79457 4.56298C6.79412 4.5358 6.80176 4.5091 6.81653 4.48627C6.8313 4.46345 6.85253 4.44553 6.87752 4.43481C6.9025 4.42409 6.93011 4.42104 6.95683 4.42606C6.98355 4.43108 7.00818 4.44393 7.02757 4.46299C7.75264 5.24091 8.16253 6.26066 8.17757 7.32399C8.16201 7.79701 8.0523 8.26218 7.85484 8.6923C7.65738 9.12242 7.37615 9.50885 7.02757 9.82899C6.3221 10.5244 5.37602 10.9215 4.38557 10.938C3.39647 10.9152 2.45262 10.519 1.74356 9.82899C1.39499 9.50885 1.11375 9.12242 0.91629 8.6923C0.718831 8.26218 0.609118 7.79701 0.593567 7.32399C0.69818 6.07617 1.27597 4.91559 2.20857 4.07999C2.89407 3.42586 3.37958 2.59042 3.60857 1.67099C3.61122 1.6469 3.6205 1.62402 3.63538 1.60488C3.65025 1.58575 3.67014 1.57112 3.69284 1.56263C3.71554 1.55413 3.74015 1.55209 3.76393 1.55675C3.78772 1.5614 3.80974 1.57256 3.82756 1.58899L3.98857 1.71598ZM3.15356 0.566986C3.10744 0.565784 3.06179 0.576466 3.02098 0.598007C2.98018 0.619548 2.94559 0.651223 2.92056 0.689987C2.86556 0.789987 2.94756 0.989984 3.04356 1.25098C3.23556 1.83998 2.64357 2.78398 1.81157 3.72898C0.786397 4.6649 0.159318 5.95844 0.0595703 7.34299C0.104592 8.46374 0.581476 9.5236 1.39037 10.3007C2.19926 11.0777 3.27741 11.5117 4.39906 11.5117C5.52072 11.5117 6.59889 11.0777 7.40778 10.3007C8.21667 9.5236 8.69355 8.46374 8.73857 7.34299C8.72899 6.64115 8.56741 5.94973 8.26495 5.31634C7.9625 4.68295 7.52637 4.12263 6.98657 3.67398L6.84956 3.56399C6.78874 3.51131 6.71103 3.48222 6.63057 3.48199C6.56738 3.48169 6.50546 3.49966 6.45224 3.53372C6.39902 3.56778 6.35677 3.61648 6.33057 3.67398C6.2805 4.07813 6.25312 4.48477 6.24857 4.89199V4.99199C6.24897 5.02086 6.24359 5.04952 6.23273 5.07627C6.22186 5.10302 6.20574 5.12733 6.18532 5.14774C6.1649 5.16816 6.1406 5.18427 6.11385 5.19514C6.08709 5.206 6.05844 5.21139 6.02957 5.21099H5.98857C5.9343 5.20089 5.88531 5.172 5.8502 5.1294C5.8151 5.08679 5.79611 5.03319 5.79657 4.97799C5.8348 4.30117 5.72617 3.62409 5.47813 2.9932C5.23009 2.36231 4.84851 1.79254 4.35957 1.32299C4.04195 0.959883 3.62467 0.698048 3.15956 0.569984L3.15356 0.566986Z" fill="#03632C"/>
</svg>
