<svg width="21" height="21" viewBox="0 0 21 21" fill="none" xmlns="http://www.w3.org/2000/svg">
<path d="M12.0424 18.5006L12.4941 17.7375L11.4184 17.1007L10.9666 17.864L12.0424 18.5006ZM8.70378 17.7375L9.15554 18.5006L10.2312 17.864L9.77946 17.1007L8.70378 17.7375ZM10.9666 17.864C10.806 18.1353 10.3919 18.1353 10.2312 17.864L9.15554 18.5006C9.80021 19.5898 11.3977 19.5898 12.0424 18.5006L10.9666 17.864ZM9.34896 2.65088H11.849V1.40088H9.34896V2.65088ZM18.3073 9.10921V9.94254H19.5573V9.10921H18.3073ZM2.89063 9.94254V9.10921H1.64063V9.94254H2.89063ZM1.64063 9.94254C1.64063 10.9047 1.64028 11.6576 1.68172 12.2649C1.72354 12.8778 1.80998 13.3879 2.00537 13.8595L3.16022 13.3812C3.03843 13.0872 2.9663 12.729 2.92883 12.1798C2.89097 11.625 2.89063 10.9218 2.89063 9.94254H1.64063ZM7.10104 15.5605C6.05484 15.5425 5.50665 15.476 5.07695 15.298L4.5986 16.4528C5.26941 16.7306 6.03344 16.7923 7.07951 16.8103L7.10104 15.5605ZM2.00537 13.8595C2.49169 15.0336 3.42451 15.9665 4.5986 16.4528L5.07695 15.298C4.20914 14.9385 3.51968 14.249 3.16022 13.3812L2.00537 13.8595ZM18.3073 9.94254C18.3073 10.9218 18.307 11.625 18.2691 12.1798C18.2316 12.729 18.1595 13.0872 18.0377 13.3812L19.1925 13.8595C19.388 13.3879 19.4744 12.8778 19.5162 12.2649C19.5576 11.6576 19.5573 10.9047 19.5573 9.94254H18.3073ZM14.1184 16.8103C15.1645 16.7923 15.9285 16.7306 16.5993 16.4528L16.121 15.298C15.6913 15.476 15.143 15.5425 14.0969 15.5605L14.1184 16.8103ZM18.0377 13.3812C17.6782 14.249 16.9888 14.9385 16.121 15.298L16.5993 16.4528C17.7734 15.9665 18.7062 15.0336 19.1925 13.8595L18.0377 13.3812ZM11.849 2.65088C13.225 2.65088 14.2131 2.65154 14.9839 2.72482C15.7454 2.79722 16.2299 2.93607 16.6161 3.17278L17.2693 2.10698C16.6535 1.72969 15.9551 1.56154 15.1022 1.48044C14.2585 1.40022 13.2008 1.40088 11.849 1.40088V2.65088ZM19.5573 9.10921C19.5573 7.75739 19.558 6.69963 19.4777 5.85597C19.3966 5.00301 19.2285 4.30459 18.8512 3.6889L17.7854 4.34203C18.0221 4.7283 18.161 5.21283 18.2334 5.97429C18.3066 6.74505 18.3073 7.73318 18.3073 9.10921H19.5573ZM16.6161 3.17278C17.0927 3.46481 17.4934 3.86548 17.7854 4.34203L18.8512 3.6889C18.4561 3.04416 17.914 2.50208 17.2693 2.10698L16.6161 3.17278ZM9.34896 1.40088C7.99713 1.40088 6.93937 1.40022 6.09572 1.48044C5.24276 1.56154 4.54433 1.72969 3.92865 2.10698L4.58178 3.17278C4.96805 2.93607 5.45258 2.79722 6.21403 2.72482C6.98479 2.65154 7.97293 2.65088 9.34896 2.65088V1.40088ZM2.89063 9.10921C2.89063 7.73318 2.89128 6.74505 2.96457 5.97429C3.03697 5.21283 3.17582 4.7283 3.41253 4.34203L2.34673 3.6889C1.96943 4.30459 1.80128 5.00301 1.72018 5.85597C1.63997 6.69963 1.64063 7.75739 1.64063 9.10921H2.89063ZM3.92865 2.10698C3.28391 2.50208 2.74183 3.04416 2.34673 3.6889L3.41253 4.34203C3.70456 3.86548 4.10523 3.46481 4.58178 3.17278L3.92865 2.10698ZM9.77946 17.1007C9.61029 16.8149 9.46179 16.5626 9.31738 16.3645C9.16521 16.1558 8.99079 15.9679 8.74884 15.8271L8.12039 16.9077C8.1599 16.9306 8.21373 16.9725 8.30717 17.1007C8.40831 17.2395 8.52258 17.4313 8.70378 17.7375L9.77946 17.1007ZM7.07951 16.8103C7.44542 16.8166 7.67718 16.8213 7.85386 16.8408C8.01895 16.8591 8.08294 16.8859 8.12039 16.9077L8.74884 15.8271C8.50487 15.6852 8.25101 15.6271 7.99143 15.5984C7.74345 15.571 7.44375 15.5665 7.10104 15.5605L7.07951 16.8103ZM12.4941 17.7375C12.6753 17.4313 12.7895 17.2395 12.8907 17.1007C12.9841 16.9725 13.038 16.9306 13.0775 16.9077L12.449 15.8271C12.2071 15.9679 12.0326 16.1558 11.8805 16.3645C11.7361 16.5626 11.5876 16.8149 11.4184 17.1007L12.4941 17.7375ZM14.0969 15.5605C13.7541 15.5665 13.4545 15.571 13.2065 15.5984C12.9469 15.6271 12.693 15.6852 12.449 15.8271L13.0775 16.9077C13.115 16.8859 13.179 16.8591 13.344 16.8408C13.5207 16.8213 13.7525 16.8166 14.1184 16.8103L14.0969 15.5605Z" fill="black"/>
<path d="M7.26562 9.52588H7.27312M10.5915 9.52588H10.599M13.9248 9.52588H13.9323" stroke="black" stroke-width="2" stroke-linecap="round" stroke-linejoin="round"/>
</svg>
