<svg width="23" height="23" viewBox="0 0 23 23" fill="none" xmlns="http://www.w3.org/2000/svg">
<path d="M13.1603 20.862L13.6798 19.9843L12.4427 19.2521L11.9231 20.1298L13.1603 20.862ZM9.32087 19.9843L9.8404 20.862L11.0774 20.1298L10.5579 19.2521L9.32087 19.9843ZM11.9231 20.1298C11.7385 20.4418 11.2622 20.4418 11.0774 20.1298L9.8404 20.862C10.5818 22.1145 12.4189 22.1145 13.1603 20.862L11.9231 20.1298ZM10.0628 2.63477H12.9378V1.19727H10.0628V2.63477ZM20.3649 10.0618V11.0202H21.8024V10.0618H20.3649ZM2.63574 11.0202V10.0618H1.19824V11.0202H2.63574ZM1.19824 11.0202C1.19824 12.1267 1.19785 12.9925 1.2455 13.6909C1.2936 14.3957 1.393 14.9823 1.6177 15.5247L2.94577 14.9746C2.80572 14.6365 2.72277 14.2247 2.67967 13.593C2.63614 12.955 2.63574 12.1463 2.63574 11.0202H1.19824ZM7.47772 17.4809C6.27459 17.4601 5.64417 17.3836 5.15002 17.1789L4.59991 18.507C5.37134 18.8265 6.24998 18.8974 7.45296 18.9181L7.47772 17.4809ZM1.6177 15.5247C2.17697 16.8749 3.24971 17.9477 4.59991 18.507L5.15002 17.1789C4.15204 16.7655 3.35915 15.9727 2.94577 14.9746L1.6177 15.5247ZM20.3649 11.0202C20.3649 12.1463 20.3645 12.955 20.321 13.593C20.2779 14.2247 20.1949 14.6365 20.0549 14.9746L21.3829 15.5247C21.6077 14.9823 21.7071 14.3957 21.7552 13.6909C21.8028 12.9925 21.8024 12.1267 21.8024 11.0202H20.3649ZM15.5477 18.9181C16.7507 18.8974 17.6293 18.8265 18.4007 18.507L17.8506 17.1789C17.3565 17.3836 16.726 17.4601 15.5229 17.4809L15.5477 18.9181ZM20.0549 14.9746C19.6415 15.9727 18.8486 16.7655 17.8506 17.1789L18.4007 18.507C19.7509 17.9477 20.8237 16.8749 21.3829 15.5247L20.0549 14.9746ZM12.9378 2.63477C14.5202 2.63477 15.6566 2.63552 16.543 2.7198C17.4187 2.80306 17.9759 2.96274 18.4201 3.23495L19.1712 2.00928C18.4631 1.5754 17.6599 1.38202 16.6791 1.28876C15.7088 1.19651 14.4924 1.19727 12.9378 1.19727V2.63477ZM21.8024 10.0618C21.8024 8.50725 21.8032 7.29083 21.7109 6.32062C21.6176 5.33972 21.4243 4.53653 20.9904 3.82849L19.7647 4.57959C20.037 5.0238 20.1966 5.58101 20.2799 6.45668C20.3641 7.34306 20.3649 8.47941 20.3649 10.0618H21.8024ZM18.4201 3.23495C18.9681 3.57079 19.4289 4.03156 19.7647 4.57959L20.9904 3.82849C20.5361 3.08704 19.9127 2.46365 19.1712 2.00928L18.4201 3.23495ZM10.0628 1.19727C8.50823 1.19727 7.2918 1.19651 6.3216 1.28876C5.3407 1.38202 4.53751 1.5754 3.82947 2.00928L4.58056 3.23495C5.02478 2.96274 5.58198 2.80306 6.45766 2.7198C7.34403 2.63552 8.48039 2.63477 10.0628 2.63477V1.19727ZM2.63574 10.0618C2.63574 8.47941 2.6365 7.34306 2.72078 6.45668C2.80404 5.58101 2.96371 5.0238 3.23593 4.57959L2.01026 3.82849C1.57637 4.53653 1.383 5.33972 1.28973 6.32062C1.19749 7.29083 1.19824 8.50725 1.19824 10.0618H2.63574ZM3.82947 2.00928C3.08802 2.46365 2.46462 3.08704 2.01026 3.82849L3.23593 4.57959C3.57177 4.03156 4.03253 3.57079 4.58056 3.23495L3.82947 2.00928ZM10.5579 19.2521C10.3634 18.9234 10.1926 18.6333 10.0265 18.4054C9.85151 18.1654 9.65093 17.9493 9.37269 17.7875L8.64997 19.0301C8.69541 19.0565 8.75731 19.1047 8.86477 19.2521C8.98108 19.4117 9.11249 19.6322 9.32087 19.9843L10.5579 19.2521ZM7.45296 18.9181C7.87375 18.9254 8.14028 18.9307 8.34346 18.9532C8.53332 18.9743 8.60691 19.005 8.64997 19.0301L9.37269 17.7875C9.09213 17.6242 8.80018 17.5575 8.50167 17.5244C8.21649 17.4929 7.87184 17.4877 7.47772 17.4809L7.45296 18.9181ZM13.6798 19.9843C13.8881 19.6322 14.0195 19.4117 14.1358 19.2521C14.2433 19.1047 14.3052 19.0565 14.3506 19.0301L13.6279 17.7875C13.3497 17.9493 13.149 18.1654 12.9741 18.4054C12.8081 18.6333 12.6373 18.9234 12.4427 19.2521L13.6798 19.9843ZM15.5229 17.4809C15.1288 17.4877 14.7842 17.4929 14.499 17.5244C14.2004 17.5575 13.9085 17.6242 13.6279 17.7875L14.3506 19.0301C14.3937 19.005 14.4673 18.9743 14.6572 18.9532C14.8603 18.9307 15.1269 18.9254 15.5477 18.9181L15.5229 17.4809Z" fill="black" fill-opacity="0.5"/>
<path d="M7.66699 10.541H7.67562M11.4917 10.541H11.5003M15.325 10.541H15.3337" stroke="black" stroke-opacity="0.5" stroke-width="2" stroke-linecap="round" stroke-linejoin="round"/>
</svg>
