<svg width="25" height="25" viewBox="0 0 25 25" fill="none" xmlns="http://www.w3.org/2000/svg">
<path d="M12.5664 9.93164C12.5664 9.51743 12.9022 9.18164 13.3164 9.18164H17.3164C17.7306 9.18164 18.0664 9.51743 18.0664 9.93164C18.0664 10.3459 17.7306 10.6816 17.3164 10.6816H13.3164C12.9022 10.6816 12.5664 10.3459 12.5664 9.93164Z" fill="white" stroke="white" stroke-width="0.5"/>
<path d="M12.5664 18.9316C12.5664 18.5174 12.9022 18.1816 13.3164 18.1816H17.3164C17.7306 18.1816 18.0664 18.5174 18.0664 18.9316C18.0664 19.3459 17.7306 19.6816 17.3164 19.6816H13.3164C12.9022 19.6816 12.5664 19.3459 12.5664 18.9316Z" fill="white" stroke="white" stroke-width="0.5"/>
<path d="M12.5664 6.93164C12.5664 6.51743 12.9022 6.18164 13.3164 6.18164H21.3164C21.7306 6.18164 22.0664 6.51743 22.0664 6.93164C22.0664 7.34585 21.7306 7.68164 21.3164 7.68164H13.3164C12.9022 7.68164 12.5664 7.34585 12.5664 6.93164Z" fill="white" stroke="white" stroke-width="0.5"/>
<path d="M12.5664 15.9316C12.5664 15.5174 12.9022 15.1816 13.3164 15.1816H21.3164C21.7306 15.1816 22.0664 15.5174 22.0664 15.9316C22.0664 16.3459 21.7306 16.6816 21.3164 16.6816H13.3164C12.9022 16.6816 12.5664 16.3459 12.5664 15.9316Z" fill="white" stroke="white" stroke-width="0.5"/>
<path d="M3.71094 5.93359C3.71094 5.65745 3.93479 5.43359 4.21094 5.43359H9.21094C9.48708 5.43359 9.71094 5.65745 9.71094 5.93359V10.9336C9.71094 11.2098 9.48708 11.4336 9.21094 11.4336H4.21094C3.93479 11.4336 3.71094 11.2098 3.71094 10.9336V5.93359Z" fill="white" stroke="white"/>
<path d="M3.71094 14.9297C3.71094 14.6535 3.93479 14.4297 4.21094 14.4297H9.21094C9.48708 14.4297 9.71094 14.6535 9.71094 14.9297V19.9297C9.71094 20.2058 9.48708 20.4297 9.21094 20.4297H4.21094C3.93479 20.4297 3.71094 20.2058 3.71094 19.9297V14.9297Z" fill="white" stroke="white"/>
</svg>
