<svg width="31" height="18" viewBox="0 0 31 18" fill="none" xmlns="http://www.w3.org/2000/svg">
<path d="M9.96738 3.82597C9.96738 5.71581 8.52604 7.24791 6.74811 7.24791C4.97033 7.24791 3.5293 5.71581 3.5293 3.82597C3.5293 1.93626 4.97033 0.404297 6.74811 0.404297C8.52604 0.404297 9.96738 1.93626 9.96738 3.82597Z" fill="#7AC143"/>
<path d="M10.4168 9.86091C10.6493 9.73334 10.9065 9.65018 11.1729 9.61049C10.632 8.92362 10.2488 8.1868 10.0274 7.30499C9.96676 6.98274 9.47657 6.94494 9.11207 7.21224C8.43018 7.71254 7.63474 8.04734 6.74734 8.04734C5.84285 8.04734 5.01082 7.72348 4.34377 7.18147C4.13093 7.0084 3.81728 6.98221 3.57233 7.1168C2.3059 7.81312 1.34725 8.91821 0.929059 10.2308C0.816711 10.5825 0.895611 10.9625 1.14071 11.2552C1.38611 11.5476 1.7695 11.72 2.1766 11.72H7.97673C8.67107 10.9991 9.49052 10.3697 10.4168 9.86091Z" fill="#7AC143"/>
<path d="M21.793 3.82597C21.793 5.71581 23.2341 7.24791 25.0121 7.24791C26.7902 7.24791 28.2311 5.71581 28.2311 3.82597C28.2311 1.93626 26.7902 0.404297 25.0121 0.404297C23.2341 0.404297 21.793 1.93626 21.793 3.82597Z" fill="#7AC143"/>
<path d="M21.3421 9.86091C21.1096 9.73334 20.8522 9.65018 20.5859 9.61049C21.1268 8.92362 21.5101 8.1868 21.7315 7.30499C21.7922 6.98274 22.2824 6.94494 22.6469 7.21224C23.3288 7.71254 24.1241 8.04734 25.0115 8.04734C25.9158 8.04734 26.748 7.72348 27.4152 7.18147C27.628 7.0084 27.9416 6.98221 28.1865 7.1168C29.4531 7.81312 30.4119 8.91821 30.8298 10.2308C30.942 10.5825 30.8632 10.9625 30.6183 11.2552C30.3727 11.5476 29.9895 11.72 29.5825 11.72H23.7821C23.0878 10.9991 22.2685 10.3697 21.3421 9.86091Z" fill="#7AC143"/>
<path d="M24.651 15.5045C24.0213 13.5262 22.593 11.8535 20.7021 10.7806C20.3291 10.5692 19.8449 10.6034 19.514 10.8658C18.4991 11.6703 17.2433 12.1491 15.8798 12.1491C14.4895 12.1491 13.2112 11.6515 12.186 10.8187C11.8587 10.5526 11.377 10.5125 11.0007 10.7196C9.05417 11.7893 7.58089 13.4876 6.93845 15.5046C6.7658 16.0457 6.88685 16.6289 7.26334 17.079C7.64074 17.5285 8.22978 17.7933 8.85558 17.7933H22.7339C23.3598 17.7933 23.9493 17.5293 24.3266 17.079C24.7032 16.6288 24.8236 16.0461 24.651 15.5045Z" fill="white"/>
<path d="M20.8275 5.66262C20.8275 8.56684 18.6126 10.9215 15.8804 10.9215C13.1483 10.9215 10.9336 8.56684 10.9336 5.66262C10.9336 2.75813 13.1483 0.404297 15.8804 0.404297C18.6128 0.404297 20.8275 2.75826 20.8275 5.66262Z" fill="white"/>
</svg>
