<svg width="23" height="28" viewBox="0 0 23 28" fill="none" xmlns="http://www.w3.org/2000/svg">
<mask id="mask0_2024_4346" style="mask-type:luminance" maskUnits="userSpaceOnUse" x="0" y="0" width="23" height="28">
<path d="M19.9199 1.18311H2.41992C1.72957 1.18311 1.16992 1.74275 1.16992 2.43311V24.9331C1.16992 25.6235 1.72957 26.1831 2.41992 26.1831H19.9199C20.6103 26.1831 21.1699 25.6235 21.1699 24.9331V2.43311C21.1699 1.74275 20.6103 1.18311 19.9199 1.18311Z" fill="white" stroke="white" stroke-width="2" stroke-linejoin="round"/>
<path d="M9.29492 7.43311H16.7949M9.29492 13.6831H16.7949M9.29492 19.9331H16.7949" stroke="black" stroke-width="2" stroke-linecap="round" stroke-linejoin="round"/>
<path fill-rule="evenodd" clip-rule="evenodd" d="M5.54492 8.68311C5.87644 8.68311 6.19438 8.55141 6.42881 8.31699C6.66323 8.08257 6.79492 7.76463 6.79492 7.43311C6.79492 7.10158 6.66323 6.78364 6.42881 6.54922C6.19438 6.3148 5.87644 6.18311 5.54492 6.18311C5.2134 6.18311 4.89546 6.3148 4.66104 6.54922C4.42662 6.78364 4.29492 7.10158 4.29492 7.43311C4.29492 7.76463 4.42662 8.08257 4.66104 8.31699C4.89546 8.55141 5.2134 8.68311 5.54492 8.68311ZM5.54492 14.9331C5.87644 14.9331 6.19438 14.8014 6.42881 14.567C6.66323 14.3326 6.79492 14.0146 6.79492 13.6831C6.79492 13.3516 6.66323 13.0336 6.42881 12.7992C6.19438 12.5648 5.87644 12.4331 5.54492 12.4331C5.2134 12.4331 4.89546 12.5648 4.66104 12.7992C4.42662 13.0336 4.29492 13.3516 4.29492 13.6831C4.29492 14.0146 4.42662 14.3326 4.66104 14.567C4.89546 14.8014 5.2134 14.9331 5.54492 14.9331ZM5.54492 21.1831C5.87644 21.1831 6.19438 21.0514 6.42881 20.817C6.66323 20.5826 6.79492 20.2646 6.79492 19.9331C6.79492 19.6016 6.66323 19.2836 6.42881 19.0492C6.19438 18.8148 5.87644 18.6831 5.54492 18.6831C5.2134 18.6831 4.89546 18.8148 4.66104 19.0492C4.42662 19.2836 4.29492 19.6016 4.29492 19.9331C4.29492 20.2646 4.42662 20.5826 4.66104 20.817C4.89546 21.0514 5.2134 21.1831 5.54492 21.1831Z" fill="black"/>
</mask>
<g mask="url(#mask0_2024_4346)">
<path d="M-3.83008 -1.31689H26.1699V28.6831H-3.83008V-1.31689Z" fill="#01a809"/>
</g>
</svg>
