<svg width="12" height="12" viewBox="0 0 12 12" fill="none" xmlns="http://www.w3.org/2000/svg">
<path d="M6.12842 11.585C5.03652 11.585 3.96913 11.2612 3.06122 10.6546C2.15332 10.048 1.44568 9.18577 1.02778 8.177C0.60988 7.16822 0.500488 6.05819 0.713436 4.98725C0.926384 3.9163 1.45211 2.93255 2.22413 2.16039C2.99616 1.38822 3.97981 0.86232 5.05072 0.649178C6.12162 0.436036 7.23168 0.545227 8.24053 0.962945C9.24938 1.38066 10.1117 2.08815 10.7185 2.99594C11.3253 3.90373 11.6492 4.97106 11.6494 6.06297C11.6481 7.52692 11.066 8.93054 10.031 9.9658C8.99589 11.0011 7.59237 11.5834 6.12842 11.585ZM6.12842 1.17297C5.16127 1.17297 4.21584 1.45976 3.41169 1.99708C2.60753 2.5344 1.98077 3.29812 1.61065 4.19165C1.24054 5.08518 1.1437 6.0684 1.33238 7.01696C1.52107 7.96553 1.98679 8.83684 2.67067 9.52072C3.35455 10.2046 4.22587 10.6703 5.17443 10.859C6.123 11.0477 7.10622 10.9509 7.99975 10.5807C8.89328 10.2106 9.65699 9.58387 10.1943 8.77971C10.7316 7.97555 11.0184 7.03012 11.0184 6.06297C11.0158 4.76687 10.4997 3.52462 9.58326 2.60814C8.66678 1.69166 7.42452 1.17561 6.12842 1.17297Z" fill="#03632C"/>
<path d="M7.82248 8.07209C7.78108 8.07222 7.74006 8.06415 7.70179 8.04836C7.66352 8.03257 7.62875 8.00937 7.59948 7.98009L5.90548 6.28709C5.87624 6.25779 5.85307 6.22301 5.83728 6.18475C5.8215 6.14648 5.81341 6.10548 5.81348 6.06409V2.48109C5.81802 2.40049 5.85324 2.32468 5.9119 2.26922C5.97057 2.21376 6.04824 2.18286 6.12898 2.18286C6.20971 2.18286 6.28738 2.21376 6.34605 2.26922C6.40472 2.32468 6.43994 2.40049 6.44448 2.48109V5.93309L8.04448 7.53309C8.08849 7.57728 8.11844 7.63351 8.13056 7.69469C8.14268 7.75587 8.13643 7.81927 8.11258 7.8769C8.08874 7.93453 8.04837 7.98382 7.99657 8.01855C7.94477 8.05329 7.88385 8.07192 7.82148 8.07209H7.82248Z" fill="#03632C"/>
</svg>
