<svg width="31" height="31" viewBox="0 0 31 31" fill="none" xmlns="http://www.w3.org/2000/svg">
<path d="M12.6339 2.375H17.4214C18.3729 2.375 19.2853 2.75297 19.9581 3.42575C20.6309 4.09854 21.0089 5.01104 21.0089 5.9625V11.9375C21.0089 12.7232 20.8539 13.5012 20.5529 14.2269C20.2518 14.9527 19.8106 15.6119 19.2544 16.1669C18.6983 16.7219 18.0381 17.1617 17.3118 17.4613C16.5854 17.7608 15.8071 17.9141 15.0214 17.9125C13.4367 17.9125 11.917 17.283 10.7964 16.1625C9.67589 15.0419 9.04639 13.5222 9.04639 11.9375V5.9625C9.04639 5.01104 9.42435 4.09854 10.0971 3.42575C10.7699 2.75297 11.6824 2.375 12.6339 2.375Z" stroke="white" stroke-width="1.5" stroke-miterlimit="10"/>
<path d="M9.04639 7.16211H21.0089C21.0089 7.63428 20.9157 8.10181 20.7346 8.53788C20.5535 8.97395 20.2882 9.36999 19.9537 9.70328C19.6193 10.0366 19.2223 10.3006 18.7856 10.4801C18.3489 10.6597 17.8811 10.7513 17.4089 10.7496H12.6339C11.6824 10.7496 10.7699 10.3716 10.0971 9.69886C9.42435 9.02607 9.04639 8.11357 9.04639 7.16211Z" stroke="white" stroke-width="1.5" stroke-miterlimit="10"/>
<path d="M4.25879 29.8746V28.6246C4.27529 25.7799 5.41607 23.0572 7.43229 21.0503C9.44851 19.0435 12.1765 17.9154 15.0213 17.9121C17.8747 17.9154 20.6102 19.0504 22.6279 21.068C24.6455 23.0857 25.7805 25.8212 25.7838 28.6746V29.9246" stroke="white" stroke-width="1.5" stroke-miterlimit="10"/>
<path d="M15.0213 27.4879C15.684 27.4879 16.2213 26.9506 16.2213 26.2879C16.2213 25.6251 15.684 25.0879 15.0213 25.0879C14.3585 25.0879 13.8213 25.6251 13.8213 26.2879C13.8213 26.9506 14.3585 27.4879 15.0213 27.4879Z" stroke="white" stroke-width="1.5" stroke-miterlimit="10"/>
<path d="M16.2217 29.8746V26.2871" stroke="white" stroke-width="1.5" stroke-miterlimit="10"/>
<path d="M9.81299 19.2011L15.0216 25.0876L20.1214 18.9414" stroke="white" stroke-width="1.5" stroke-miterlimit="10"/>
</svg>
