<svg width="25" height="25" viewBox="0 0 25 25" fill="none" xmlns="http://www.w3.org/2000/svg">
<path d="M5.75 18.8906C4.88805 18.8906 4.0614 18.5482 3.4519 17.9387C2.84241 17.3292 2.5 16.5026 2.5 15.6406V7.14062C2.5 6.27867 2.84241 5.45202 3.4519 4.84253C4.0614 4.23303 4.88805 3.89063 5.75 3.89062H19.25C19.6768 3.89062 20.0994 3.97469 20.4937 4.13802C20.888 4.30134 21.2463 4.54074 21.5481 4.84253C21.8499 5.14432 22.0893 5.5026 22.2526 5.8969C22.4159 6.29121 22.5 6.71383 22.5 7.14062V15.6406C22.5 16.0674 22.4159 16.49 22.2526 16.8843C22.0893 17.2787 21.8499 17.6369 21.5481 17.9387C21.2463 18.2405 20.888 18.4799 20.4937 18.6432C20.0994 18.8066 19.6768 18.8906 19.25 18.8906H13.512L8.5 22.6406C8.31428 22.7796 8.09356 22.8642 7.86251 22.8849C7.63146 22.9056 7.39922 22.8616 7.19176 22.7578C6.9843 22.654 6.80981 22.4946 6.68782 22.2973C6.56582 22.1 6.50114 21.8726 6.501 21.6406V18.8906H5.751H5.75ZM13.014 17.3906H19.25C19.7141 17.3906 20.1592 17.2063 20.4874 16.8781C20.8156 16.5499 21 16.1048 21 15.6406V7.14062C21 6.6765 20.8156 6.23138 20.4874 5.90319C20.1592 5.575 19.7141 5.39062 19.25 5.39062H5.75C5.28587 5.39062 4.84075 5.575 4.51256 5.90319C4.18437 6.23138 4 6.6765 4 7.14062V15.6406C4 16.6066 4.784 17.3906 5.75 17.3906H7.999V21.1406L13.014 17.3906Z" fill="#536471"/>
</svg>
