<svg width="22" height="21" viewBox="0 0 22 21" fill="none" xmlns="http://www.w3.org/2000/svg">
<path d="M9.99583 0.135742C9.78427 0.135742 9.57271 0.235742 9.36115 0.335742L1.0046 4.73574C0.687266 4.93574 0.475708 5.23574 0.475708 5.63574V14.6357C0.475708 15.0357 0.687266 15.3357 1.0046 15.5357L9.36115 19.9357C9.57271 20.0357 9.78427 20.1357 9.99583 20.1357C10.2074 20.1357 10.4189 20.0357 10.6305 19.9357L11.5825 19.4357C11.2652 18.8357 11.1594 18.1357 11.0536 17.4357V10.7357L17.4004 7.33574V11.1357C18.1408 11.1357 18.8813 11.2357 19.516 11.4357V5.63574C19.516 5.23574 19.3044 4.93574 18.9871 4.73574L10.6305 0.335742C10.4189 0.235742 10.2074 0.135742 9.99583 0.135742ZM9.99583 2.33574L16.3426 5.63574L14.227 6.73574L7.98603 3.33574L9.99583 2.33574ZM5.87044 4.43574L12.1114 7.93574L9.99583 9.03574L3.64908 5.63574L5.87044 4.43574ZM2.59129 7.33574L8.93804 10.7357V17.4357L2.59129 14.0357V7.33574ZM19.8333 13.9357L16.0252 17.5357L14.3328 15.9357L13.1692 17.1357L16.131 20.1357L21.2084 15.3357L19.8333 13.9357Z" fill="white"/>
</svg>
