<svg width="23" height="23" viewBox="0 0 23 23" fill="none" xmlns="http://www.w3.org/2000/svg">
<path fill-rule="evenodd" clip-rule="evenodd" d="M3.15 0C2.31457 0 1.51335 0.331874 0.922614 0.922614C0.331874 1.51335 0 2.31457 0 3.15V6.65C0 7.48543 0.331874 8.28665 0.922614 8.87739C1.51335 9.46813 2.31457 9.8 3.15 9.8H6.65C7.48543 9.8 8.28665 9.46813 8.87739 8.87739C9.46813 8.28665 9.8 7.48543 9.8 6.65V3.15C9.8 2.31457 9.46813 1.51335 8.87739 0.922614C8.28665 0.331874 7.48543 0 6.65 0H3.15ZM3.15 12.6C2.31457 12.6 1.51335 12.9319 0.922614 13.5226C0.331874 14.1134 0 14.9146 0 15.75V19.25C0 20.0854 0.331874 20.8866 0.922614 21.4774C1.51335 22.0681 2.31457 22.4 3.15 22.4H6.65C7.48543 22.4 8.28665 22.0681 8.87739 21.4774C9.46813 20.8866 9.8 20.0854 9.8 19.25V15.75C9.8 14.9146 9.46813 14.1134 8.87739 13.5226C8.28665 12.9319 7.48543 12.6 6.65 12.6H3.15ZM15.75 0C14.9146 0 14.1134 0.331874 13.5226 0.922614C12.9319 1.51335 12.6 2.31457 12.6 3.15V6.65C12.6 7.48543 12.9319 8.28665 13.5226 8.87739C14.1134 9.46813 14.9146 9.8 15.75 9.8H19.25C20.0854 9.8 20.8866 9.46813 21.4774 8.87739C22.0681 8.28665 22.4 7.48543 22.4 6.65V3.15C22.4 2.31457 22.0681 1.51335 21.4774 0.922614C20.8866 0.331874 20.0854 0 19.25 0H15.75ZM15.75 12.6C14.9146 12.6 14.1134 12.9319 13.5226 13.5226C12.9319 14.1134 12.6 14.9146 12.6 15.75V19.25C12.6 20.0854 12.9319 20.8866 13.5226 21.4774C14.1134 22.0681 14.9146 22.4 15.75 22.4H19.25C20.0854 22.4 20.8866 22.0681 21.4774 21.4774C22.0681 20.8866 22.4 20.0854 22.4 19.25V15.75C22.4 14.9146 22.0681 14.1134 21.4774 13.5226C20.8866 12.9319 20.0854 12.6 19.25 12.6H15.75Z" fill="#01a809"/>
</svg>
