<svg width="22" height="22" viewBox="0 0 22 22" fill="none" xmlns="http://www.w3.org/2000/svg">
<circle cx="11.0234" cy="11.3931" r="5.6" stroke="#03632C" stroke-width="1.8"/>
<path fill-rule="evenodd" clip-rule="evenodd" d="M19.7234 11.3931C19.7234 16.1979 15.8283 20.0931 11.0234 20.0931C6.21856 20.0931 2.32344 16.1979 2.32344 11.3931C2.32344 9.55785 2.89168 7.85535 3.86181 6.45192C3.82262 5.90376 3.62591 5.56692 3.37307 5.42094C3.1421 5.28759 2.79661 5.27444 2.36177 5.45621C1.20209 7.1449 0.523438 9.18973 0.523438 11.3931C0.523438 17.1921 5.22445 21.8931 11.0234 21.8931C16.8224 21.8931 21.5234 17.1921 21.5234 11.3931C21.5234 5.59408 16.8224 0.893066 11.0234 0.893066C7.75882 0.893066 4.84218 2.38295 2.91637 4.71986C3.18579 4.71174 3.44214 4.768 3.67307 4.90133C4.0075 5.09441 4.22862 5.4145 4.35104 5.80981C5.94695 3.90461 8.34371 2.69307 11.0234 2.69307C15.8283 2.69307 19.7234 6.58819 19.7234 11.3931Z" fill="#01a809"/>
</svg>
