<svg width="28" height="27" viewBox="0 0 28 27" fill="none" xmlns="http://www.w3.org/2000/svg">
<g clip-path="url(#clip0_4369_4186)">
<path d="M18.8121 8.92285C18.8121 5.14707 15.7746 2.06738 11.9988 2.06738C8.22305 2.06738 5.18555 5.14707 5.18555 8.92285C5.18555 12.6986 8.24414 15.7783 11.9988 15.7783C15.7535 15.7783 18.8121 12.6986 18.8121 8.92285ZM6.3668 8.92285C6.3668 5.80098 8.89805 3.26973 11.9988 3.26973C15.0996 3.26973 17.6309 5.80098 17.6309 8.92285C17.6309 12.0447 15.0996 14.576 11.9988 14.576C8.89805 14.576 6.3668 12.0447 6.3668 8.92285Z" fill="#3D3D3E"/>
<path d="M12.2941 16.3902C17.4832 16.3902 21.8285 19.9762 22.6934 24.9332H23.8957C23.0098 19.3012 18.116 15.209 12.273 15.209C6.43008 15.209 1.55742 19.3012 0.650391 24.9332H1.85273C2.78086 19.9551 7.10508 16.3902 12.2941 16.3902Z" fill="#3D3D3E"/>
<path d="M20.5635 15.2504L19.9307 15.0184L20.4791 14.6387C22.2088 13.4152 23.2424 11.4113 23.2002 9.30195C23.158 5.92695 20.5002 3.16367 17.1885 2.93164V4.17617C19.8252 4.4082 21.9346 6.62305 21.9557 9.30195C21.9768 10.6941 21.4494 12.002 20.4791 13.0145C19.5088 14.0059 18.201 14.5754 16.8088 14.5965C16.1549 14.5965 15.4799 14.5965 14.826 14.6387C14.4252 14.6809 13.7291 14.6387 13.3916 14.8918C13.3494 14.9129 13.3073 14.8918 13.2651 14.8918L13.0119 15.2082C12.9909 15.2504 12.9487 15.2926 12.9065 15.3348C12.9276 15.377 12.8854 15.7566 12.9065 15.7988C13.2229 15.9043 14.7838 15.7988 17.0409 15.8621C21.7659 15.9043 25.6471 20.102 26.0268 24.7848L27.2713 24.8691C27.0182 20.7559 24.4237 16.6848 20.5635 15.2504Z" fill="#3D3D3E"/>
</g>
<defs>
<clipPath id="clip0_4369_4186">
<rect width="27" height="27" fill="white" transform="translate(0.25)"/>
</clipPath>
</defs>
</svg>
