<svg width="44" height="41" viewBox="0 0 44 41" fill="none" xmlns="http://www.w3.org/2000/svg">
<mask id="path-1-inside-1_174_1543" fill="white">
<path d="M23.1221 10.0693C21.1055 10.0693 19.4648 11.71 19.4648 13.7266C19.4648 15.7433 21.1055 17.3839 23.1221 17.3839C25.1388 17.3839 26.7794 15.7433 26.7794 13.7266C26.7794 11.71 25.1388 10.0693 23.1221 10.0693ZM23.1221 16.9899C21.3226 16.9899 19.8582 15.5262 19.8582 13.7259C19.8582 11.9257 21.3219 10.462 23.1221 10.462C24.9224 10.462 26.3861 11.9257 26.3861 13.7259C26.3861 15.5262 24.9217 16.9899 23.1221 16.9899Z"/>
</mask>
<path d="M23.1221 10.0693C21.1055 10.0693 19.4648 11.71 19.4648 13.7266C19.4648 15.7433 21.1055 17.3839 23.1221 17.3839C25.1388 17.3839 26.7794 15.7433 26.7794 13.7266C26.7794 11.71 25.1388 10.0693 23.1221 10.0693ZM23.1221 16.9899C21.3226 16.9899 19.8582 15.5262 19.8582 13.7259C19.8582 11.9257 21.3219 10.462 23.1221 10.462C24.9224 10.462 26.3861 11.9257 26.3861 13.7259C26.3861 15.5262 24.9217 16.9899 23.1221 16.9899Z" fill="white"/>
<path d="M23.1221 8.06934C20.0009 8.06934 17.4648 10.6054 17.4648 13.7266H21.4648C21.4648 12.8146 22.2101 12.0693 23.1221 12.0693V8.06934ZM17.4648 13.7266C17.4648 16.8479 20.0009 19.3839 23.1221 19.3839V15.3839C22.2101 15.3839 21.4648 14.6387 21.4648 13.7266H17.4648ZM23.1221 19.3839C26.2434 19.3839 28.7794 16.8479 28.7794 13.7266H24.7794C24.7794 14.6387 24.0342 15.3839 23.1221 15.3839V19.3839ZM28.7794 13.7266C28.7794 10.6054 26.2434 8.06934 23.1221 8.06934V12.0693C24.0342 12.0693 24.7794 12.8146 24.7794 13.7266H28.7794ZM23.1221 14.9899C22.4269 14.9899 21.8582 14.4213 21.8582 13.7259H17.8582C17.8582 16.631 20.2183 18.9899 23.1221 18.9899V14.9899ZM21.8582 13.7259C21.8582 13.0303 22.4265 12.462 23.1221 12.462V8.46198C20.2174 8.46198 17.8582 10.8212 17.8582 13.7259H21.8582ZM23.1221 12.462C23.8178 12.462 24.3861 13.0303 24.3861 13.7259H28.3861C28.3861 10.8212 26.0269 8.46198 23.1221 8.46198V12.462ZM24.3861 13.7259C24.3861 14.4213 23.8174 14.9899 23.1221 14.9899V18.9899C26.026 18.9899 28.3861 16.631 28.3861 13.7259H24.3861Z" fill="white" mask="url(#path-1-inside-1_174_1543)"/>
<mask id="path-3-inside-2_174_1543" fill="white">
<path d="M23.0713 11.39C22.4337 11.4156 21.8441 11.6883 21.4119 12.1565C20.9797 12.6248 20.7556 13.2346 20.7813 13.8721C20.7847 13.9567 20.8541 14.0226 20.9388 14.0226C20.9408 14.0226 20.9429 14.0226 20.945 14.0226C21.0317 14.0192 21.099 13.9463 21.0955 13.8589C21.0733 13.3053 21.2676 12.776 21.6429 12.3695C22.0182 11.963 22.5302 11.7264 23.0837 11.7042C23.1705 11.7007 23.2377 11.6279 23.2343 11.5405C23.2315 11.4538 23.1725 11.3844 23.0713 11.39Z"/>
</mask>
<path d="M23.0713 11.39C22.4337 11.4156 21.8441 11.6883 21.4119 12.1565C20.9797 12.6248 20.7556 13.2346 20.7813 13.8721C20.7847 13.9567 20.8541 14.0226 20.9388 14.0226C20.9408 14.0226 20.9429 14.0226 20.945 14.0226C21.0317 14.0192 21.099 13.9463 21.0955 13.8589C21.0733 13.3053 21.2676 12.776 21.6429 12.3695C22.0182 11.963 22.5302 11.7264 23.0837 11.7042C23.1705 11.7007 23.2377 11.6279 23.2343 11.5405C23.2315 11.4538 23.1725 11.3844 23.0713 11.39Z" fill="white"/>
<path d="M23.0713 11.39L23.1517 13.3883L23.1662 13.3878L23.1807 13.387L23.0713 11.39ZM20.7813 13.8721L18.7829 13.9526L18.783 13.954L20.7813 13.8721ZM20.945 14.0226V16.0226H20.985L21.0249 16.021L20.945 14.0226ZM21.0955 13.8589L23.094 13.7796L23.0939 13.7788L21.0955 13.8589ZM23.0837 11.7042L23.0038 9.70581L23.0036 9.70582L23.0837 11.7042ZM23.2343 11.5405L21.2353 11.6045L21.2355 11.6121L21.2359 11.6198L23.2343 11.5405ZM22.9908 9.39158C21.8234 9.43858 20.734 9.9421 19.9422 10.8001L22.8816 13.513C22.9541 13.4344 23.044 13.3927 23.1517 13.3883L22.9908 9.39158ZM19.9422 10.8001C19.1495 11.6589 18.7359 12.7859 18.7829 13.9526L22.7797 13.7916C22.7753 13.6833 22.8099 13.5906 22.8816 13.513L19.9422 10.8001ZM18.783 13.954C18.8308 15.1215 19.7925 16.0226 20.9388 16.0226V12.0226C21.9158 12.0226 22.7387 12.792 22.7796 13.7902L18.783 13.954ZM20.9388 16.0226C20.9388 16.0226 20.9388 16.0226 20.9388 16.0226C20.9388 16.0226 20.9388 16.0226 20.9388 16.0226C20.9388 16.0226 20.9388 16.0226 20.9388 16.0226C20.9388 16.0226 20.9388 16.0226 20.9388 16.0226C20.9388 16.0226 20.9388 16.0226 20.9388 16.0226C20.9388 16.0226 20.9388 16.0226 20.9388 16.0226C20.9388 16.0226 20.9388 16.0226 20.9388 16.0226C20.9388 16.0226 20.9388 16.0226 20.9389 16.0226C20.9389 16.0226 20.9389 16.0226 20.9389 16.0226C20.9389 16.0226 20.9389 16.0226 20.9389 16.0226C20.9389 16.0226 20.9389 16.0226 20.9389 16.0226C20.9389 16.0226 20.9389 16.0226 20.9389 16.0226C20.9389 16.0226 20.9389 16.0226 20.9389 16.0226C20.9389 16.0226 20.9389 16.0226 20.9389 16.0226C20.9389 16.0226 20.9389 16.0226 20.9389 16.0226C20.9389 16.0226 20.9389 16.0226 20.939 16.0226C20.939 16.0226 20.939 16.0226 20.939 16.0226C20.939 16.0226 20.939 16.0226 20.939 16.0226C20.939 16.0226 20.939 16.0226 20.939 16.0226C20.939 16.0226 20.939 16.0226 20.939 16.0226C20.939 16.0226 20.939 16.0226 20.939 16.0226C20.939 16.0226 20.939 16.0226 20.939 16.0226C20.939 16.0226 20.939 16.0226 20.939 16.0226C20.939 16.0226 20.939 16.0226 20.939 16.0226C20.9391 16.0226 20.9391 16.0226 20.9391 16.0226C20.9391 16.0226 20.9391 16.0226 20.9391 16.0226C20.9391 16.0226 20.9391 16.0226 20.9391 16.0226C20.9391 16.0226 20.9391 16.0226 20.9391 16.0226C20.9391 16.0226 20.9391 16.0226 20.9391 16.0226C20.9391 16.0226 20.9391 16.0226 20.9391 16.0226C20.9391 16.0226 20.9391 16.0226 20.9391 16.0226C20.9391 16.0226 20.9391 16.0226 20.9391 16.0226C20.9391 16.0226 20.9392 16.0226 20.9392 16.0226C20.9392 16.0226 20.9392 16.0226 20.9392 16.0226C20.9392 16.0226 20.9392 16.0226 20.9392 16.0226C20.9392 16.0226 20.9392 16.0226 20.9392 16.0226C20.9392 16.0226 20.9392 16.0226 20.9392 16.0226C20.9392 16.0226 20.9392 16.0226 20.9392 16.0226C20.9392 16.0226 20.9392 16.0226 20.9392 16.0226C20.9392 16.0226 20.9392 16.0226 20.9392 16.0226C20.9392 16.0226 20.9393 16.0226 20.9393 16.0226C20.9393 16.0226 20.9393 16.0226 20.9393 16.0226C20.9393 16.0226 20.9393 16.0226 20.9393 16.0226C20.9393 16.0226 20.9393 16.0226 20.9393 16.0226C20.9393 16.0226 20.9393 16.0226 20.9393 16.0226C20.9393 16.0226 20.9393 16.0226 20.9393 16.0226C20.9393 16.0226 20.9393 16.0226 20.9393 16.0226C20.9393 16.0226 20.9393 16.0226 20.9393 16.0226C20.9393 16.0226 20.9393 16.0226 20.9394 16.0226C20.9394 16.0226 20.9394 16.0226 20.9394 16.0226C20.9394 16.0226 20.9394 16.0226 20.9394 16.0226C20.9394 16.0226 20.9394 16.0226 20.9394 16.0226C20.9394 16.0226 20.9394 16.0226 20.9394 16.0226C20.9394 16.0226 20.9394 16.0226 20.9394 16.0226C20.9394 16.0226 20.9394 16.0226 20.9394 16.0226C20.9394 16.0226 20.9394 16.0226 20.9394 16.0226C20.9394 16.0226 20.9394 16.0226 20.9395 16.0226C20.9395 16.0226 20.9395 16.0226 20.9395 16.0226C20.9395 16.0226 20.9395 16.0226 20.9395 16.0226C20.9395 16.0226 20.9395 16.0226 20.9395 16.0226C20.9395 16.0226 20.9395 16.0226 20.9395 16.0226C20.9395 16.0226 20.9395 16.0226 20.9395 16.0226C20.9395 16.0226 20.9395 16.0226 20.9395 16.0226C20.9395 16.0226 20.9395 16.0226 20.9395 16.0226C20.9395 16.0226 20.9395 16.0226 20.9395 16.0226C20.9396 16.0226 20.9396 16.0226 20.9396 16.0226C20.9396 16.0226 20.9396 16.0226 20.9396 16.0226C20.9396 16.0226 20.9396 16.0226 20.9396 16.0226C20.9396 16.0226 20.9396 16.0226 20.9396 16.0226C20.9396 16.0226 20.9396 16.0226 20.9396 16.0226C20.9396 16.0226 20.9396 16.0226 20.9396 16.0226C20.9396 16.0226 20.9396 16.0226 20.9396 16.0226C20.9396 16.0226 20.9396 16.0226 20.9396 16.0226C20.9396 16.0226 20.9397 16.0226 20.9397 16.0226C20.9397 16.0226 20.9397 16.0226 20.9397 16.0226C20.9397 16.0226 20.9397 16.0226 20.9397 16.0226C20.9397 16.0226 20.9397 16.0226 20.9397 16.0226C20.9397 16.0226 20.9397 16.0226 20.9397 16.0226C20.9397 16.0226 20.9397 16.0226 20.9397 16.0226C20.9397 16.0226 20.9397 16.0226 20.9397 16.0226C20.9397 16.0226 20.9397 16.0226 20.9397 16.0226C20.9397 16.0226 20.9398 16.0226 20.9398 16.0226C20.9398 16.0226 20.9398 16.0226 20.9398 16.0226C20.9398 16.0226 20.9398 16.0226 20.9398 16.0226C20.9398 16.0226 20.9398 16.0226 20.9398 16.0226C20.9398 16.0226 20.9398 16.0226 20.9398 16.0226C20.9398 16.0226 20.9398 16.0226 20.9398 16.0226C20.9398 16.0226 20.9398 16.0226 20.9398 16.0226C20.9398 16.0226 20.9398 16.0226 20.9398 16.0226C20.9398 16.0226 20.9398 16.0226 20.9399 16.0226C20.9399 16.0226 20.9399 16.0226 20.9399 16.0226C20.9399 16.0226 20.9399 16.0226 20.9399 16.0226C20.9399 16.0226 20.9399 16.0226 20.9399 16.0226C20.9399 16.0226 20.9399 16.0226 20.9399 16.0226C20.9399 16.0226 20.9399 16.0226 20.9399 16.0226C20.9399 16.0226 20.9399 16.0226 20.9399 16.0226C20.9399 16.0226 20.9399 16.0226 20.9399 16.0226C20.9399 16.0226 20.9399 16.0226 20.94 16.0226C20.94 16.0226 20.94 16.0226 20.94 16.0226C20.94 16.0226 20.94 16.0226 20.94 16.0226C20.94 16.0226 20.94 16.0226 20.94 16.0226C20.94 16.0226 20.94 16.0226 20.94 16.0226C20.94 16.0226 20.94 16.0226 20.94 16.0226C20.94 16.0226 20.94 16.0226 20.94 16.0226C20.94 16.0226 20.94 16.0226 20.94 16.0226C20.94 16.0226 20.94 16.0226 20.94 16.0226C20.9401 16.0226 20.9401 16.0226 20.9401 16.0226C20.9401 16.0226 20.9401 16.0226 20.9401 16.0226C20.9401 16.0226 20.9401 16.0226 20.9401 16.0226C20.9401 16.0226 20.9401 16.0226 20.9401 16.0226C20.9401 16.0226 20.9401 16.0226 20.9401 16.0226C20.9401 16.0226 20.9401 16.0226 20.9401 16.0226C20.9401 16.0226 20.9401 16.0226 20.9401 16.0226C20.9401 16.0226 20.9401 16.0226 20.9401 16.0226C20.9401 16.0226 20.9402 16.0226 20.9402 16.0226C20.9402 16.0226 20.9402 16.0226 20.9402 16.0226C20.9402 16.0226 20.9402 16.0226 20.9402 16.0226C20.9402 16.0226 20.9402 16.0226 20.9402 16.0226C20.9402 16.0226 20.9402 16.0226 20.9402 16.0226C20.9402 16.0226 20.9402 16.0226 20.9402 16.0226C20.9402 16.0226 20.9402 16.0226 20.9402 16.0226C20.9402 16.0226 20.9402 16.0226 20.9402 16.0226C20.9402 16.0226 20.9403 16.0226 20.9403 16.0226C20.9403 16.0226 20.9403 16.0226 20.9403 16.0226C20.9403 16.0226 20.9403 16.0226 20.9403 16.0226C20.9403 16.0226 20.9403 16.0226 20.9403 16.0226C20.9403 16.0226 20.9403 16.0226 20.9403 16.0226C20.9403 16.0226 20.9403 16.0226 20.9403 16.0226C20.9403 16.0226 20.9403 16.0226 20.9403 16.0226C20.9403 16.0226 20.9403 16.0226 20.9403 16.0226C20.9403 16.0226 20.9403 16.0226 20.9404 16.0226C20.9404 16.0226 20.9404 16.0226 20.9404 16.0226C20.9404 16.0226 20.9404 16.0226 20.9404 16.0226C20.9404 16.0226 20.9404 16.0226 20.9404 16.0226C20.9404 16.0226 20.9404 16.0226 20.9404 16.0226C20.9404 16.0226 20.9404 16.0226 20.9404 16.0226C20.9404 16.0226 20.9404 16.0226 20.9404 16.0226C20.9404 16.0226 20.9404 16.0226 20.9404 16.0226C20.9404 16.0226 20.9404 16.0226 20.9405 16.0226C20.9405 16.0226 20.9405 16.0226 20.9405 16.0226C20.9405 16.0226 20.9405 16.0226 20.9405 16.0226C20.9405 16.0226 20.9405 16.0226 20.9405 16.0226C20.9405 16.0226 20.9405 16.0226 20.9405 16.0226C20.9405 16.0226 20.9405 16.0226 20.9405 16.0226C20.9405 16.0226 20.9405 16.0226 20.9405 16.0226C20.9405 16.0226 20.9405 16.0226 20.9405 16.0226C20.9405 16.0226 20.9405 16.0226 20.9405 16.0226C20.9406 16.0226 20.9406 16.0226 20.9406 16.0226C20.9406 16.0226 20.9406 16.0226 20.9406 16.0226C20.9406 16.0226 20.9406 16.0226 20.9406 16.0226C20.9406 16.0226 20.9406 16.0226 20.9406 16.0226C20.9406 16.0226 20.9406 16.0226 20.9406 16.0226C20.9406 16.0226 20.9406 16.0226 20.9406 16.0226C20.9406 16.0226 20.9406 16.0226 20.9406 16.0226C20.9406 16.0226 20.9406 16.0226 20.9406 16.0226C20.9406 16.0226 20.9407 16.0226 20.9407 16.0226C20.9407 16.0226 20.9407 16.0226 20.9407 16.0226C20.9407 16.0226 20.9407 16.0226 20.9407 16.0226C20.9407 16.0226 20.9407 16.0226 20.9407 16.0226C20.9407 16.0226 20.9407 16.0226 20.9407 16.0226C20.9407 16.0226 20.9407 16.0226 20.9407 16.0226C20.9407 16.0226 20.9407 16.0226 20.9407 16.0226C20.9407 16.0226 20.9407 16.0226 20.9407 16.0226C20.9407 16.0226 20.9408 16.0226 20.9408 16.0226C20.9408 16.0226 20.9408 16.0226 20.9408 16.0226C20.9408 16.0226 20.9408 16.0226 20.9408 16.0226C20.9408 16.0226 20.9408 16.0226 20.9408 16.0226C20.9408 16.0226 20.9408 16.0226 20.9408 16.0226C20.9408 16.0226 20.9408 16.0226 20.9408 16.0226C20.9408 16.0226 20.9408 16.0226 20.9408 16.0226C20.9408 16.0226 20.9408 16.0226 20.9408 16.0226C20.9408 16.0226 20.9408 16.0226 20.9409 16.0226C20.9409 16.0226 20.9409 16.0226 20.9409 16.0226C20.9409 16.0226 20.9409 16.0226 20.9409 16.0226C20.9409 16.0226 20.9409 16.0226 20.9409 16.0226C20.9409 16.0226 20.9409 16.0226 20.9409 16.0226C20.9409 16.0226 20.9409 16.0226 20.9409 16.0226C20.9409 16.0226 20.9409 16.0226 20.9409 16.0226C20.9409 16.0226 20.9409 16.0226 20.9409 16.0226C20.9409 16.0226 20.9409 16.0226 20.941 16.0226C20.941 16.0226 20.941 16.0226 20.941 16.0226C20.941 16.0226 20.941 16.0226 20.941 16.0226C20.941 16.0226 20.941 16.0226 20.941 16.0226C20.941 16.0226 20.941 16.0226 20.941 16.0226C20.941 16.0226 20.941 16.0226 20.941 16.0226C20.941 16.0226 20.941 16.0226 20.941 16.0226C20.941 16.0226 20.941 16.0226 20.941 16.0226C20.941 16.0226 20.941 16.0226 20.941 16.0226C20.9411 16.0226 20.9411 16.0226 20.9411 16.0226C20.9411 16.0226 20.9411 16.0226 20.9411 16.0226C20.9411 16.0226 20.9411 16.0226 20.9411 16.0226C20.9411 16.0226 20.9411 16.0226 20.9411 16.0226C20.9411 16.0226 20.9411 16.0226 20.9411 16.0226C20.9411 16.0226 20.9411 16.0226 20.9411 16.0226C20.9411 16.0226 20.9411 16.0226 20.9411 16.0226C20.9411 16.0226 20.9411 16.0226 20.9411 16.0226C20.9411 16.0226 20.9412 16.0226 20.9412 16.0226C20.9412 16.0226 20.9412 16.0226 20.9412 16.0226C20.9412 16.0226 20.9412 16.0226 20.9412 16.0226C20.9412 16.0226 20.9412 16.0226 20.9412 16.0226C20.9412 16.0226 20.9412 16.0226 20.9412 16.0226C20.9412 16.0226 20.9412 16.0226 20.9412 16.0226C20.9412 16.0226 20.9412 16.0226 20.9412 16.0226C20.9412 16.0226 20.9412 16.0226 20.9412 16.0226C20.9412 16.0226 20.9413 16.0226 20.9413 16.0226C20.9413 16.0226 20.9413 16.0226 20.9413 16.0226C20.9413 16.0226 20.9413 16.0226 20.9413 16.0226C20.9413 16.0226 20.9413 16.0226 20.9413 16.0226C20.9413 16.0226 20.9413 16.0226 20.9413 16.0226C20.9413 16.0226 20.9413 16.0226 20.9413 16.0226C20.9413 16.0226 20.9413 16.0226 20.9413 16.0226C20.9413 16.0226 20.9413 16.0226 20.9413 16.0226C20.9413 16.0226 20.9413 16.0226 20.9414 16.0226C20.9414 16.0226 20.9414 16.0226 20.9414 16.0226C20.9414 16.0226 20.9414 16.0226 20.9414 16.0226C20.9414 16.0226 20.9414 16.0226 20.9414 16.0226C20.9414 16.0226 20.9414 16.0226 20.9414 16.0226C20.9414 16.0226 20.9414 16.0226 20.9414 16.0226C20.9414 16.0226 20.9414 16.0226 20.9414 16.0226C20.9414 16.0226 20.9414 16.0226 20.9414 16.0226C20.9414 16.0226 20.9414 16.0226 20.9415 16.0226C20.9415 16.0226 20.9415 16.0226 20.9415 16.0226C20.9415 16.0226 20.9415 16.0226 20.9415 16.0226C20.9415 16.0226 20.9415 16.0226 20.9415 16.0226C20.9415 16.0226 20.9415 16.0226 20.9415 16.0226C20.9415 16.0226 20.9415 16.0226 20.9415 16.0226C20.9415 16.0226 20.9415 16.0226 20.9415 16.0226C20.9415 16.0226 20.9415 16.0226 20.9415 16.0226C20.9415 16.0226 20.9415 16.0226 20.9415 16.0226C20.9416 16.0226 20.9416 16.0226 20.9416 16.0226C20.9416 16.0226 20.9416 16.0226 20.9416 16.0226C20.9416 16.0226 20.9416 16.0226 20.9416 16.0226C20.9416 16.0226 20.9416 16.0226 20.9416 16.0226C20.9416 16.0226 20.9416 16.0226 20.9416 16.0226C20.9416 16.0226 20.9416 16.0226 20.9416 16.0226C20.9416 16.0226 20.9416 16.0226 20.9416 16.0226C20.9416 16.0226 20.9416 16.0226 20.9416 16.0226C20.9416 16.0226 20.9417 16.0226 20.9417 16.0226C20.9417 16.0226 20.9417 16.0226 20.9417 16.0226C20.9417 16.0226 20.9417 16.0226 20.9417 16.0226C20.9417 16.0226 20.9417 16.0226 20.9417 16.0226C20.9417 16.0226 20.9417 16.0226 20.9417 16.0226C20.9417 16.0226 20.9417 16.0226 20.9417 16.0226C20.9417 16.0226 20.9417 16.0226 20.9417 16.0226C20.9417 16.0226 20.9417 16.0226 20.9417 16.0226C20.9417 16.0226 20.9418 16.0226 20.9418 16.0226C20.9418 16.0226 20.9418 16.0226 20.9418 16.0226C20.9418 16.0226 20.9418 16.0226 20.9418 16.0226C20.9418 16.0226 20.9418 16.0226 20.9418 16.0226C20.9418 16.0226 20.9418 16.0226 20.9418 16.0226C20.9418 16.0226 20.9418 16.0226 20.9418 16.0226C20.9418 16.0226 20.9418 16.0226 20.9418 16.0226C20.9418 16.0226 20.9418 16.0226 20.9418 16.0226C20.9418 16.0226 20.9418 16.0226 20.9419 16.0226C20.9419 16.0226 20.9419 16.0226 20.9419 16.0226C20.9419 16.0226 20.9419 16.0226 20.9419 16.0226C20.9419 16.0226 20.9419 16.0226 20.9419 16.0226C20.9419 16.0226 20.9419 16.0226 20.9419 16.0226C20.9419 16.0226 20.9419 16.0226 20.9419 16.0226C20.9419 16.0226 20.9419 16.0226 20.9419 16.0226C20.9419 16.0226 20.9419 16.0226 20.9419 16.0226C20.9419 16.0226 20.9419 16.0226 20.942 16.0226C20.942 16.0226 20.942 16.0226 20.942 16.0226C20.942 16.0226 20.942 16.0226 20.942 16.0226C20.942 16.0226 20.942 16.0226 20.942 16.0226C20.942 16.0226 20.942 16.0226 20.942 16.0226C20.942 16.0226 20.942 16.0226 20.942 16.0226C20.942 16.0226 20.942 16.0226 20.942 16.0226C20.942 16.0226 20.942 16.0226 20.942 16.0226C20.942 16.0226 20.942 16.0226 20.942 16.0226C20.9421 16.0226 20.9421 16.0226 20.9421 16.0226C20.9421 16.0226 20.9421 16.0226 20.9421 16.0226C20.9421 16.0226 20.9421 16.0226 20.9421 16.0226C20.9421 16.0226 20.9421 16.0226 20.9421 16.0226C20.9421 16.0226 20.9421 16.0226 20.9421 16.0226C20.9421 16.0226 20.9421 16.0226 20.9421 16.0226C20.9421 16.0226 20.9421 16.0226 20.9421 16.0226C20.9421 16.0226 20.9421 16.0226 20.9421 16.0226C20.9421 16.0226 20.9422 16.0226 20.9422 16.0226C20.9422 16.0226 20.9422 16.0226 20.9422 16.0226C20.9422 16.0226 20.9422 16.0226 20.9422 16.0226C20.9422 16.0226 20.9422 16.0226 20.9422 16.0226C20.9422 16.0226 20.9422 16.0226 20.9422 16.0226C20.9422 16.0226 20.9422 16.0226 20.9422 16.0226C20.9422 16.0226 20.9422 16.0226 20.9422 16.0226C20.9422 16.0226 20.9422 16.0226 20.9422 16.0226C20.9422 16.0226 20.9423 16.0226 20.9423 16.0226C20.9423 16.0226 20.9423 16.0226 20.9423 16.0226C20.9423 16.0226 20.9423 16.0226 20.9423 16.0226C20.9423 16.0226 20.9423 16.0226 20.9423 16.0226C20.9423 16.0226 20.9423 16.0226 20.9423 16.0226C20.9423 16.0226 20.9423 16.0226 20.9423 16.0226C20.9423 16.0226 20.9423 16.0226 20.9423 16.0226C20.9423 16.0226 20.9423 16.0226 20.9423 16.0226C20.9423 16.0226 20.9423 16.0226 20.9424 16.0226C20.9424 16.0226 20.9424 16.0226 20.9424 16.0226C20.9424 16.0226 20.9424 16.0226 20.9424 16.0226C20.9424 16.0226 20.9424 16.0226 20.9424 16.0226C20.9424 16.0226 20.9424 16.0226 20.9424 16.0226C20.9424 16.0226 20.9424 16.0226 20.9424 16.0226C20.9424 16.0226 20.9424 16.0226 20.9424 16.0226C20.9424 16.0226 20.9424 16.0226 20.9424 16.0226C20.9424 16.0226 20.9424 16.0226 20.9425 16.0226C20.9425 16.0226 20.9425 16.0226 20.9425 16.0226C20.9425 16.0226 20.9425 16.0226 20.9425 16.0226C20.9425 16.0226 20.9425 16.0226 20.9425 16.0226C20.9425 16.0226 20.9425 16.0226 20.9425 16.0226C20.9425 16.0226 20.9425 16.0226 20.9425 16.0226C20.9425 16.0226 20.9425 16.0226 20.9425 16.0226C20.9425 16.0226 20.9425 16.0226 20.9425 16.0226C20.9425 16.0226 20.9425 16.0226 20.9425 16.0226C20.9426 16.0226 20.9426 16.0226 20.9426 16.0226C20.9426 16.0226 20.9426 16.0226 20.9426 16.0226C20.9426 16.0226 20.9426 16.0226 20.9426 16.0226C20.9426 16.0226 20.9426 16.0226 20.9426 16.0226C20.9426 16.0226 20.9426 16.0226 20.9426 16.0226C20.9426 16.0226 20.9426 16.0226 20.9426 16.0226C20.9426 16.0226 20.9426 16.0226 20.9426 16.0226C20.9426 16.0226 20.9426 16.0226 20.9426 16.0226C20.9426 16.0226 20.9427 16.0226 20.9427 16.0226C20.9427 16.0226 20.9427 16.0226 20.9427 16.0226C20.9427 16.0226 20.9427 16.0226 20.9427 16.0226C20.9427 16.0226 20.9427 16.0226 20.9427 16.0226C20.9427 16.0226 20.9427 16.0226 20.9427 16.0226C20.9427 16.0226 20.9427 16.0226 20.9427 16.0226C20.9427 16.0226 20.9427 16.0226 20.9427 16.0226C20.9427 16.0226 20.9427 16.0226 20.9427 16.0226C20.9427 16.0226 20.9428 16.0226 20.9428 16.0226C20.9428 16.0226 20.9428 16.0226 20.9428 16.0226C20.9428 16.0226 20.9428 16.0226 20.9428 16.0226C20.9428 16.0226 20.9428 16.0226 20.9428 16.0226C20.9428 16.0226 20.9428 16.0226 20.9428 16.0226C20.9428 16.0226 20.9428 16.0226 20.9428 16.0226C20.9428 16.0226 20.9428 16.0226 20.9428 16.0226C20.9428 16.0226 20.9428 16.0226 20.9428 16.0226C20.9428 16.0226 20.9428 16.0226 20.9429 16.0226C20.9429 16.0226 20.9429 16.0226 20.9429 16.0226C20.9429 16.0226 20.9429 16.0226 20.9429 16.0226C20.9429 16.0226 20.9429 16.0226 20.9429 16.0226C20.9429 16.0226 20.9429 16.0226 20.9429 16.0226C20.9429 16.0226 20.9429 16.0226 20.9429 16.0226C20.9429 16.0226 20.9429 16.0226 20.9429 16.0226C20.9429 16.0226 20.9429 16.0226 20.9429 16.0226C20.9429 16.0226 20.9429 16.0226 20.943 16.0226C20.943 16.0226 20.943 16.0226 20.943 16.0226C20.943 16.0226 20.943 16.0226 20.943 16.0226C20.943 16.0226 20.943 16.0226 20.943 16.0226C20.943 16.0226 20.943 16.0226 20.943 16.0226C20.943 16.0226 20.943 16.0226 20.943 16.0226C20.943 16.0226 20.943 16.0226 20.943 16.0226C20.943 16.0226 20.943 16.0226 20.943 16.0226C20.943 16.0226 20.943 16.0226 20.943 16.0226C20.9431 16.0226 20.9431 16.0226 20.9431 16.0226C20.9431 16.0226 20.9431 16.0226 20.9431 16.0226C20.9431 16.0226 20.9431 16.0226 20.9431 16.0226C20.9431 16.0226 20.9431 16.0226 20.9431 16.0226C20.9431 16.0226 20.9431 16.0226 20.9431 16.0226C20.9431 16.0226 20.9431 16.0226 20.9431 16.0226C20.9431 16.0226 20.9431 16.0226 20.9431 16.0226C20.9431 16.0226 20.9431 16.0226 20.9431 16.0226C20.9431 16.0226 20.9432 16.0226 20.9432 16.0226C20.9432 16.0226 20.9432 16.0226 20.9432 16.0226C20.9432 16.0226 20.9432 16.0226 20.9432 16.0226C20.9432 16.0226 20.9432 16.0226 20.9432 16.0226C20.9432 16.0226 20.9432 16.0226 20.9432 16.0226C20.9432 16.0226 20.9432 16.0226 20.9432 16.0226C20.9432 16.0226 20.9432 16.0226 20.9432 16.0226C20.9432 16.0226 20.9432 16.0226 20.9432 16.0226C20.9432 16.0226 20.9433 16.0226 20.9433 16.0226C20.9433 16.0226 20.9433 16.0226 20.9433 16.0226C20.9433 16.0226 20.9433 16.0226 20.9433 16.0226C20.9433 16.0226 20.9433 16.0226 20.9433 16.0226C20.9433 16.0226 20.9433 16.0226 20.9433 16.0226C20.9433 16.0226 20.9433 16.0226 20.9433 16.0226C20.9433 16.0226 20.9433 16.0226 20.9433 16.0226C20.9433 16.0226 20.9433 16.0226 20.9433 16.0226C20.9433 16.0226 20.9433 16.0226 20.9434 16.0226C20.9434 16.0226 20.9434 16.0226 20.9434 16.0226C20.9434 16.0226 20.9434 16.0226 20.9434 16.0226C20.9434 16.0226 20.9434 16.0226 20.9434 16.0226C20.9434 16.0226 20.9434 16.0226 20.9434 16.0226C20.9434 16.0226 20.9434 16.0226 20.9434 16.0226C20.9434 16.0226 20.9434 16.0226 20.9434 16.0226C20.9434 16.0226 20.9434 16.0226 20.9434 16.0226C20.9434 16.0226 20.9434 16.0226 20.9435 16.0226C20.9435 16.0226 20.9435 16.0226 20.9435 16.0226C20.9435 16.0226 20.9435 16.0226 20.9435 16.0226C20.9435 16.0226 20.9435 16.0226 20.9435 16.0226C20.9435 16.0226 20.9435 16.0226 20.9435 16.0226C20.9435 16.0226 20.9435 16.0226 20.9435 16.0226C20.9435 16.0226 20.9435 16.0226 20.9435 16.0226C20.9435 16.0226 20.9435 16.0226 20.9435 16.0226C20.9435 16.0226 20.9435 16.0226 20.9435 16.0226C20.9436 16.0226 20.9436 16.0226 20.9436 16.0226C20.9436 16.0226 20.9436 16.0226 20.9436 16.0226C20.9436 16.0226 20.9436 16.0226 20.9436 16.0226C20.9436 16.0226 20.9436 16.0226 20.9436 16.0226C20.9436 16.0226 20.9436 16.0226 20.9436 16.0226C20.9436 16.0226 20.9436 16.0226 20.9436 16.0226C20.9436 16.0226 20.9436 16.0226 20.9436 16.0226C20.9436 16.0226 20.9436 16.0226 20.9436 16.0226C20.9436 16.0226 20.9437 16.0226 20.9437 16.0226C20.9437 16.0226 20.9437 16.0226 20.9437 16.0226C20.9437 16.0226 20.9437 16.0226 20.9437 16.0226C20.9437 16.0226 20.9437 16.0226 20.9437 16.0226C20.9437 16.0226 20.9437 16.0226 20.9437 16.0226C20.9437 16.0226 20.9437 16.0226 20.9437 16.0226C20.9437 16.0226 20.9437 16.0226 20.9437 16.0226C20.9437 16.0226 20.9437 16.0226 20.9437 16.0226C20.9437 16.0226 20.9438 16.0226 20.9438 16.0226C20.9438 16.0226 20.9438 16.0226 20.9438 16.0226C20.9438 16.0226 20.9438 16.0226 20.9438 16.0226C20.9438 16.0226 20.9438 16.0226 20.9438 16.0226C20.9438 16.0226 20.9438 16.0226 20.9438 16.0226C20.9438 16.0226 20.9438 16.0226 20.9438 16.0226C20.9438 16.0226 20.9438 16.0226 20.9438 16.0226C20.9438 16.0226 20.9438 16.0226 20.9438 16.0226C20.9438 16.0226 20.9438 16.0226 20.9439 16.0226C20.9439 16.0226 20.9439 16.0226 20.9439 16.0226C20.9439 16.0226 20.9439 16.0226 20.9439 16.0226C20.9439 16.0226 20.9439 16.0226 20.9439 16.0226C20.9439 16.0226 20.9439 16.0226 20.9439 16.0226C20.9439 16.0226 20.9439 16.0226 20.9439 16.0226C20.9439 16.0226 20.9439 16.0226 20.9439 16.0226C20.9439 16.0226 20.9439 16.0226 20.9439 16.0226C20.9439 16.0226 20.9439 16.0226 20.944 16.0226C20.944 16.0226 20.944 16.0226 20.944 16.0226C20.944 16.0226 20.944 16.0226 20.944 16.0226C20.944 16.0226 20.944 16.0226 20.944 16.0226C20.944 16.0226 20.944 16.0226 20.944 16.0226C20.944 16.0226 20.944 16.0226 20.944 16.0226C20.944 16.0226 20.944 16.0226 20.944 16.0226C20.944 16.0226 20.944 16.0226 20.944 16.0226C20.944 16.0226 20.944 16.0226 20.944 16.0226C20.9441 16.0226 20.9441 16.0226 20.9441 16.0226C20.9441 16.0226 20.9441 16.0226 20.9441 16.0226C20.9441 16.0226 20.9441 16.0226 20.9441 16.0226C20.9441 16.0226 20.9441 16.0226 20.9441 16.0226C20.9441 16.0226 20.9441 16.0226 20.9441 16.0226C20.9441 16.0226 20.9441 16.0226 20.9441 16.0226C20.9441 16.0226 20.9441 16.0226 20.9441 16.0226C20.9441 16.0226 20.9441 16.0226 20.9441 16.0226C20.9441 16.0226 20.9442 16.0226 20.9442 16.0226C20.9442 16.0226 20.9442 16.0226 20.9442 16.0226C20.9442 16.0226 20.9442 16.0226 20.9442 16.0226C20.9442 16.0226 20.9442 16.0226 20.9442 16.0226C20.9442 16.0226 20.9442 16.0226 20.9442 16.0226C20.9442 16.0226 20.9442 16.0226 20.9442 16.0226C20.9442 16.0226 20.9442 16.0226 20.9442 16.0226C20.9442 16.0226 20.9442 16.0226 20.9442 16.0226C20.9442 16.0226 20.9443 16.0226 20.9443 16.0226C20.9443 16.0226 20.9443 16.0226 20.9443 16.0226C20.9443 16.0226 20.9443 16.0226 20.9443 16.0226C20.9443 16.0226 20.9443 16.0226 20.9443 16.0226C20.9443 16.0226 20.9443 16.0226 20.9443 16.0226C20.9443 16.0226 20.9443 16.0226 20.9443 16.0226C20.9443 16.0226 20.9443 16.0226 20.9443 16.0226C20.9443 16.0226 20.9443 16.0226 20.9443 16.0226C20.9443 16.0226 20.9443 16.0226 20.9444 16.0226C20.9444 16.0226 20.9444 16.0226 20.9444 16.0226C20.9444 16.0226 20.9444 16.0226 20.9444 16.0226C20.9444 16.0226 20.9444 16.0226 20.9444 16.0226C20.9444 16.0226 20.9444 16.0226 20.9444 16.0226C20.9444 16.0226 20.9444 16.0226 20.9444 16.0226C20.9444 16.0226 20.9444 16.0226 20.9444 16.0226C20.9444 16.0226 20.9444 16.0226 20.9444 16.0226C20.9444 16.0226 20.9444 16.0226 20.9445 16.0226C20.9445 16.0226 20.9445 16.0226 20.9445 16.0226C20.9445 16.0226 20.9445 16.0226 20.9445 16.0226C20.9445 16.0226 20.9445 16.0226 20.9445 16.0226C20.9445 16.0226 20.9445 16.0226 20.9445 16.0226C20.9445 16.0226 20.9445 16.0226 20.9445 16.0226C20.9445 16.0226 20.9445 16.0226 20.9445 16.0226C20.9445 16.0226 20.9445 16.0226 20.9445 16.0226C20.9445 16.0226 20.9445 16.0226 20.9445 16.0226C20.9446 16.0226 20.9446 16.0226 20.9446 16.0226C20.9446 16.0226 20.9446 16.0226 20.9446 16.0226C20.9446 16.0226 20.9446 16.0226 20.9446 16.0226C20.9446 16.0226 20.9446 16.0226 20.9446 16.0226C20.9446 16.0226 20.9446 16.0226 20.9446 16.0226C20.9446 16.0226 20.9446 16.0226 20.9446 16.0226C20.9446 16.0226 20.9446 16.0226 20.9446 16.0226C20.9446 16.0226 20.9446 16.0226 20.9446 16.0226C20.9446 16.0226 20.9447 16.0226 20.9447 16.0226C20.9447 16.0226 20.9447 16.0226 20.9447 16.0226C20.9447 16.0226 20.9447 16.0226 20.9447 16.0226C20.9447 16.0226 20.9447 16.0226 20.9447 16.0226C20.9447 16.0226 20.9447 16.0226 20.9447 16.0226C20.9447 16.0226 20.9447 16.0226 20.9447 16.0226C20.9447 16.0226 20.9447 16.0226 20.9447 16.0226C20.9447 16.0226 20.9447 16.0226 20.9447 16.0226C20.9447 16.0226 20.9448 16.0226 20.9448 16.0226C20.9448 16.0226 20.9448 16.0226 20.9448 16.0226C20.9448 16.0226 20.9448 16.0226 20.9448 16.0226C20.9448 16.0226 20.9448 16.0226 20.9448 16.0226C20.9448 16.0226 20.9448 16.0226 20.9448 16.0226C20.9448 16.0226 20.9448 16.0226 20.9448 16.0226C20.9448 16.0226 20.9448 16.0226 20.9448 16.0226C20.9448 16.0226 20.9448 16.0226 20.9448 16.0226C20.9448 16.0226 20.9448 16.0226 20.9449 16.0226C20.9449 16.0226 20.9449 16.0226 20.9449 16.0226C20.9449 16.0226 20.9449 16.0226 20.9449 16.0226C20.9449 16.0226 20.9449 16.0226 20.9449 16.0226C20.9449 16.0226 20.9449 16.0226 20.9449 16.0226C20.9449 16.0226 20.9449 16.0226 20.9449 16.0226C20.9449 16.0226 20.9449 16.0226 20.9449 16.0226C20.9449 16.0226 20.9449 16.0226 20.9449 16.0226C20.9449 16.0226 20.9449 16.0226 20.945 16.0226C20.945 16.0226 20.945 16.0226 20.945 16.0226C20.945 16.0226 20.945 16.0226 20.945 16.0226C20.945 16.0226 20.945 16.0226 20.945 16.0226C20.945 16.0226 20.945 16.0226 20.945 16.0226V12.0226C20.945 12.0226 20.945 12.0226 20.945 12.0226C20.945 12.0226 20.945 12.0226 20.945 12.0226C20.945 12.0226 20.945 12.0226 20.945 12.0226C20.945 12.0226 20.945 12.0226 20.945 12.0226C20.9449 12.0226 20.9449 12.0226 20.9449 12.0226C20.9449 12.0226 20.9449 12.0226 20.9449 12.0226C20.9449 12.0226 20.9449 12.0226 20.9449 12.0226C20.9449 12.0226 20.9449 12.0226 20.9449 12.0226C20.9449 12.0226 20.9449 12.0226 20.9449 12.0226C20.9449 12.0226 20.9449 12.0226 20.9449 12.0226C20.9449 12.0226 20.9449 12.0226 20.9449 12.0226C20.9449 12.0226 20.9449 12.0226 20.9449 12.0226C20.9448 12.0226 20.9448 12.0226 20.9448 12.0226C20.9448 12.0226 20.9448 12.0226 20.9448 12.0226C20.9448 12.0226 20.9448 12.0226 20.9448 12.0226C20.9448 12.0226 20.9448 12.0226 20.9448 12.0226C20.9448 12.0226 20.9448 12.0226 20.9448 12.0226C20.9448 12.0226 20.9448 12.0226 20.9448 12.0226C20.9448 12.0226 20.9448 12.0226 20.9448 12.0226C20.9448 12.0226 20.9448 12.0226 20.9448 12.0226C20.9448 12.0226 20.9447 12.0226 20.9447 12.0226C20.9447 12.0226 20.9447 12.0226 20.9447 12.0226C20.9447 12.0226 20.9447 12.0226 20.9447 12.0226C20.9447 12.0226 20.9447 12.0226 20.9447 12.0226C20.9447 12.0226 20.9447 12.0226 20.9447 12.0226C20.9447 12.0226 20.9447 12.0226 20.9447 12.0226C20.9447 12.0226 20.9447 12.0226 20.9447 12.0226C20.9447 12.0226 20.9447 12.0226 20.9447 12.0226C20.9447 12.0226 20.9446 12.0226 20.9446 12.0226C20.9446 12.0226 20.9446 12.0226 20.9446 12.0226C20.9446 12.0226 20.9446 12.0226 20.9446 12.0226C20.9446 12.0226 20.9446 12.0226 20.9446 12.0226C20.9446 12.0226 20.9446 12.0226 20.9446 12.0226C20.9446 12.0226 20.9446 12.0226 20.9446 12.0226C20.9446 12.0226 20.9446 12.0226 20.9446 12.0226C20.9446 12.0226 20.9446 12.0226 20.9446 12.0226C20.9446 12.0226 20.9446 12.0226 20.9445 12.0226C20.9445 12.0226 20.9445 12.0226 20.9445 12.0226C20.9445 12.0226 20.9445 12.0226 20.9445 12.0226C20.9445 12.0226 20.9445 12.0226 20.9445 12.0226C20.9445 12.0226 20.9445 12.0226 20.9445 12.0226C20.9445 12.0226 20.9445 12.0226 20.9445 12.0226C20.9445 12.0226 20.9445 12.0226 20.9445 12.0226C20.9445 12.0226 20.9445 12.0226 20.9445 12.0226C20.9445 12.0226 20.9445 12.0226 20.9445 12.0226C20.9444 12.0226 20.9444 12.0226 20.9444 12.0226C20.9444 12.0226 20.9444 12.0226 20.9444 12.0226C20.9444 12.0226 20.9444 12.0226 20.9444 12.0226C20.9444 12.0226 20.9444 12.0226 20.9444 12.0226C20.9444 12.0226 20.9444 12.0226 20.9444 12.0226C20.9444 12.0226 20.9444 12.0226 20.9444 12.0226C20.9444 12.0226 20.9444 12.0226 20.9444 12.0226C20.9444 12.0226 20.9444 12.0226 20.9444 12.0226C20.9443 12.0226 20.9443 12.0226 20.9443 12.0226C20.9443 12.0226 20.9443 12.0226 20.9443 12.0226C20.9443 12.0226 20.9443 12.0226 20.9443 12.0226C20.9443 12.0226 20.9443 12.0226 20.9443 12.0226C20.9443 12.0226 20.9443 12.0226 20.9443 12.0226C20.9443 12.0226 20.9443 12.0226 20.9443 12.0226C20.9443 12.0226 20.9443 12.0226 20.9443 12.0226C20.9443 12.0226 20.9443 12.0226 20.9443 12.0226C20.9443 12.0226 20.9442 12.0226 20.9442 12.0226C20.9442 12.0226 20.9442 12.0226 20.9442 12.0226C20.9442 12.0226 20.9442 12.0226 20.9442 12.0226C20.9442 12.0226 20.9442 12.0226 20.9442 12.0226C20.9442 12.0226 20.9442 12.0226 20.9442 12.0226C20.9442 12.0226 20.9442 12.0226 20.9442 12.0226C20.9442 12.0226 20.9442 12.0226 20.9442 12.0226C20.9442 12.0226 20.9442 12.0226 20.9442 12.0226C20.9442 12.0226 20.9441 12.0226 20.9441 12.0226C20.9441 12.0226 20.9441 12.0226 20.9441 12.0226C20.9441 12.0226 20.9441 12.0226 20.9441 12.0226C20.9441 12.0226 20.9441 12.0226 20.9441 12.0226C20.9441 12.0226 20.9441 12.0226 20.9441 12.0226C20.9441 12.0226 20.9441 12.0226 20.9441 12.0226C20.9441 12.0226 20.9441 12.0226 20.9441 12.0226C20.9441 12.0226 20.9441 12.0226 20.9441 12.0226C20.9441 12.0226 20.9441 12.0226 20.944 12.0226C20.944 12.0226 20.944 12.0226 20.944 12.0226C20.944 12.0226 20.944 12.0226 20.944 12.0226C20.944 12.0226 20.944 12.0226 20.944 12.0226C20.944 12.0226 20.944 12.0226 20.944 12.0226C20.944 12.0226 20.944 12.0226 20.944 12.0226C20.944 12.0226 20.944 12.0226 20.944 12.0226C20.944 12.0226 20.944 12.0226 20.944 12.0226C20.944 12.0226 20.944 12.0226 20.944 12.0226C20.9439 12.0226 20.9439 12.0226 20.9439 12.0226C20.9439 12.0226 20.9439 12.0226 20.9439 12.0226C20.9439 12.0226 20.9439 12.0226 20.9439 12.0226C20.9439 12.0226 20.9439 12.0226 20.9439 12.0226C20.9439 12.0226 20.9439 12.0226 20.9439 12.0226C20.9439 12.0226 20.9439 12.0226 20.9439 12.0226C20.9439 12.0226 20.9439 12.0226 20.9439 12.0226C20.9439 12.0226 20.9439 12.0226 20.9439 12.0226C20.9438 12.0226 20.9438 12.0226 20.9438 12.0226C20.9438 12.0226 20.9438 12.0226 20.9438 12.0226C20.9438 12.0226 20.9438 12.0226 20.9438 12.0226C20.9438 12.0226 20.9438 12.0226 20.9438 12.0226C20.9438 12.0226 20.9438 12.0226 20.9438 12.0226C20.9438 12.0226 20.9438 12.0226 20.9438 12.0226C20.9438 12.0226 20.9438 12.0226 20.9438 12.0226C20.9438 12.0226 20.9438 12.0226 20.9438 12.0226C20.9438 12.0226 20.9437 12.0226 20.9437 12.0226C20.9437 12.0226 20.9437 12.0226 20.9437 12.0226C20.9437 12.0226 20.9437 12.0226 20.9437 12.0226C20.9437 12.0226 20.9437 12.0226 20.9437 12.0226C20.9437 12.0226 20.9437 12.0226 20.9437 12.0226C20.9437 12.0226 20.9437 12.0226 20.9437 12.0226C20.9437 12.0226 20.9437 12.0226 20.9437 12.0226C20.9437 12.0226 20.9437 12.0226 20.9437 12.0226C20.9437 12.0226 20.9436 12.0226 20.9436 12.0226C20.9436 12.0226 20.9436 12.0226 20.9436 12.0226C20.9436 12.0226 20.9436 12.0226 20.9436 12.0226C20.9436 12.0226 20.9436 12.0226 20.9436 12.0226C20.9436 12.0226 20.9436 12.0226 20.9436 12.0226C20.9436 12.0226 20.9436 12.0226 20.9436 12.0226C20.9436 12.0226 20.9436 12.0226 20.9436 12.0226C20.9436 12.0226 20.9436 12.0226 20.9436 12.0226C20.9436 12.0226 20.9436 12.0226 20.9435 12.0226C20.9435 12.0226 20.9435 12.0226 20.9435 12.0226C20.9435 12.0226 20.9435 12.0226 20.9435 12.0226C20.9435 12.0226 20.9435 12.0226 20.9435 12.0226C20.9435 12.0226 20.9435 12.0226 20.9435 12.0226C20.9435 12.0226 20.9435 12.0226 20.9435 12.0226C20.9435 12.0226 20.9435 12.0226 20.9435 12.0226C20.9435 12.0226 20.9435 12.0226 20.9435 12.0226C20.9435 12.0226 20.9435 12.0226 20.9435 12.0226C20.9434 12.0226 20.9434 12.0226 20.9434 12.0226C20.9434 12.0226 20.9434 12.0226 20.9434 12.0226C20.9434 12.0226 20.9434 12.0226 20.9434 12.0226C20.9434 12.0226 20.9434 12.0226 20.9434 12.0226C20.9434 12.0226 20.9434 12.0226 20.9434 12.0226C20.9434 12.0226 20.9434 12.0226 20.9434 12.0226C20.9434 12.0226 20.9434 12.0226 20.9434 12.0226C20.9434 12.0226 20.9434 12.0226 20.9434 12.0226C20.9433 12.0226 20.9433 12.0226 20.9433 12.0226C20.9433 12.0226 20.9433 12.0226 20.9433 12.0226C20.9433 12.0226 20.9433 12.0226 20.9433 12.0226C20.9433 12.0226 20.9433 12.0226 20.9433 12.0226C20.9433 12.0226 20.9433 12.0226 20.9433 12.0226C20.9433 12.0226 20.9433 12.0226 20.9433 12.0226C20.9433 12.0226 20.9433 12.0226 20.9433 12.0226C20.9433 12.0226 20.9433 12.0226 20.9433 12.0226C20.9433 12.0226 20.9432 12.0226 20.9432 12.0226C20.9432 12.0226 20.9432 12.0226 20.9432 12.0226C20.9432 12.0226 20.9432 12.0226 20.9432 12.0226C20.9432 12.0226 20.9432 12.0226 20.9432 12.0226C20.9432 12.0226 20.9432 12.0226 20.9432 12.0226C20.9432 12.0226 20.9432 12.0226 20.9432 12.0226C20.9432 12.0226 20.9432 12.0226 20.9432 12.0226C20.9432 12.0226 20.9432 12.0226 20.9432 12.0226C20.9432 12.0226 20.9431 12.0226 20.9431 12.0226C20.9431 12.0226 20.9431 12.0226 20.9431 12.0226C20.9431 12.0226 20.9431 12.0226 20.9431 12.0226C20.9431 12.0226 20.9431 12.0226 20.9431 12.0226C20.9431 12.0226 20.9431 12.0226 20.9431 12.0226C20.9431 12.0226 20.9431 12.0226 20.9431 12.0226C20.9431 12.0226 20.9431 12.0226 20.9431 12.0226C20.9431 12.0226 20.9431 12.0226 20.9431 12.0226C20.9431 12.0226 20.9431 12.0226 20.943 12.0226C20.943 12.0226 20.943 12.0226 20.943 12.0226C20.943 12.0226 20.943 12.0226 20.943 12.0226C20.943 12.0226 20.943 12.0226 20.943 12.0226C20.943 12.0226 20.943 12.0226 20.943 12.0226C20.943 12.0226 20.943 12.0226 20.943 12.0226C20.943 12.0226 20.943 12.0226 20.943 12.0226C20.943 12.0226 20.943 12.0226 20.943 12.0226C20.943 12.0226 20.943 12.0226 20.943 12.0226C20.9429 12.0226 20.9429 12.0226 20.9429 12.0226C20.9429 12.0226 20.9429 12.0226 20.9429 12.0226C20.9429 12.0226 20.9429 12.0226 20.9429 12.0226C20.9429 12.0226 20.9429 12.0226 20.9429 12.0226C20.9429 12.0226 20.9429 12.0226 20.9429 12.0226C20.9429 12.0226 20.9429 12.0226 20.9429 12.0226C20.9429 12.0226 20.9429 12.0226 20.9429 12.0226C20.9429 12.0226 20.9429 12.0226 20.9429 12.0226C20.9428 12.0226 20.9428 12.0226 20.9428 12.0226C20.9428 12.0226 20.9428 12.0226 20.9428 12.0226C20.9428 12.0226 20.9428 12.0226 20.9428 12.0226C20.9428 12.0226 20.9428 12.0226 20.9428 12.0226C20.9428 12.0226 20.9428 12.0226 20.9428 12.0226C20.9428 12.0226 20.9428 12.0226 20.9428 12.0226C20.9428 12.0226 20.9428 12.0226 20.9428 12.0226C20.9428 12.0226 20.9428 12.0226 20.9428 12.0226C20.9428 12.0226 20.9427 12.0226 20.9427 12.0226C20.9427 12.0226 20.9427 12.0226 20.9427 12.0226C20.9427 12.0226 20.9427 12.0226 20.9427 12.0226C20.9427 12.0226 20.9427 12.0226 20.9427 12.0226C20.9427 12.0226 20.9427 12.0226 20.9427 12.0226C20.9427 12.0226 20.9427 12.0226 20.9427 12.0226C20.9427 12.0226 20.9427 12.0226 20.9427 12.0226C20.9427 12.0226 20.9427 12.0226 20.9427 12.0226C20.9427 12.0226 20.9426 12.0226 20.9426 12.0226C20.9426 12.0226 20.9426 12.0226 20.9426 12.0226C20.9426 12.0226 20.9426 12.0226 20.9426 12.0226C20.9426 12.0226 20.9426 12.0226 20.9426 12.0226C20.9426 12.0226 20.9426 12.0226 20.9426 12.0226C20.9426 12.0226 20.9426 12.0226 20.9426 12.0226C20.9426 12.0226 20.9426 12.0226 20.9426 12.0226C20.9426 12.0226 20.9426 12.0226 20.9426 12.0226C20.9426 12.0226 20.9426 12.0226 20.9425 12.0226C20.9425 12.0226 20.9425 12.0226 20.9425 12.0226C20.9425 12.0226 20.9425 12.0226 20.9425 12.0226C20.9425 12.0226 20.9425 12.0226 20.9425 12.0226C20.9425 12.0226 20.9425 12.0226 20.9425 12.0226C20.9425 12.0226 20.9425 12.0226 20.9425 12.0226C20.9425 12.0226 20.9425 12.0226 20.9425 12.0226C20.9425 12.0226 20.9425 12.0226 20.9425 12.0226C20.9425 12.0226 20.9425 12.0226 20.9425 12.0226C20.9424 12.0226 20.9424 12.0226 20.9424 12.0226C20.9424 12.0226 20.9424 12.0226 20.9424 12.0226C20.9424 12.0226 20.9424 12.0226 20.9424 12.0226C20.9424 12.0226 20.9424 12.0226 20.9424 12.0226C20.9424 12.0226 20.9424 12.0226 20.9424 12.0226C20.9424 12.0226 20.9424 12.0226 20.9424 12.0226C20.9424 12.0226 20.9424 12.0226 20.9424 12.0226C20.9424 12.0226 20.9424 12.0226 20.9424 12.0226C20.9423 12.0226 20.9423 12.0226 20.9423 12.0226C20.9423 12.0226 20.9423 12.0226 20.9423 12.0226C20.9423 12.0226 20.9423 12.0226 20.9423 12.0226C20.9423 12.0226 20.9423 12.0226 20.9423 12.0226C20.9423 12.0226 20.9423 12.0226 20.9423 12.0226C20.9423 12.0226 20.9423 12.0226 20.9423 12.0226C20.9423 12.0226 20.9423 12.0226 20.9423 12.0226C20.9423 12.0226 20.9423 12.0226 20.9423 12.0226C20.9423 12.0226 20.9422 12.0226 20.9422 12.0226C20.9422 12.0226 20.9422 12.0226 20.9422 12.0226C20.9422 12.0226 20.9422 12.0226 20.9422 12.0226C20.9422 12.0226 20.9422 12.0226 20.9422 12.0226C20.9422 12.0226 20.9422 12.0226 20.9422 12.0226C20.9422 12.0226 20.9422 12.0226 20.9422 12.0226C20.9422 12.0226 20.9422 12.0226 20.9422 12.0226C20.9422 12.0226 20.9422 12.0226 20.9422 12.0226C20.9422 12.0226 20.9421 12.0226 20.9421 12.0226C20.9421 12.0226 20.9421 12.0226 20.9421 12.0226C20.9421 12.0226 20.9421 12.0226 20.9421 12.0226C20.9421 12.0226 20.9421 12.0226 20.9421 12.0226C20.9421 12.0226 20.9421 12.0226 20.9421 12.0226C20.9421 12.0226 20.9421 12.0226 20.9421 12.0226C20.9421 12.0226 20.9421 12.0226 20.9421 12.0226C20.9421 12.0226 20.9421 12.0226 20.9421 12.0226C20.9421 12.0226 20.9421 12.0226 20.942 12.0226C20.942 12.0226 20.942 12.0226 20.942 12.0226C20.942 12.0226 20.942 12.0226 20.942 12.0226C20.942 12.0226 20.942 12.0226 20.942 12.0226C20.942 12.0226 20.942 12.0226 20.942 12.0226C20.942 12.0226 20.942 12.0226 20.942 12.0226C20.942 12.0226 20.942 12.0226 20.942 12.0226C20.942 12.0226 20.942 12.0226 20.942 12.0226C20.942 12.0226 20.942 12.0226 20.942 12.0226C20.9419 12.0226 20.9419 12.0226 20.9419 12.0226C20.9419 12.0226 20.9419 12.0226 20.9419 12.0226C20.9419 12.0226 20.9419 12.0226 20.9419 12.0226C20.9419 12.0226 20.9419 12.0226 20.9419 12.0226C20.9419 12.0226 20.9419 12.0226 20.9419 12.0226C20.9419 12.0226 20.9419 12.0226 20.9419 12.0226C20.9419 12.0226 20.9419 12.0226 20.9419 12.0226C20.9419 12.0226 20.9419 12.0226 20.9419 12.0226C20.9418 12.0226 20.9418 12.0226 20.9418 12.0226C20.9418 12.0226 20.9418 12.0226 20.9418 12.0226C20.9418 12.0226 20.9418 12.0226 20.9418 12.0226C20.9418 12.0226 20.9418 12.0226 20.9418 12.0226C20.9418 12.0226 20.9418 12.0226 20.9418 12.0226C20.9418 12.0226 20.9418 12.0226 20.9418 12.0226C20.9418 12.0226 20.9418 12.0226 20.9418 12.0226C20.9418 12.0226 20.9418 12.0226 20.9418 12.0226C20.9418 12.0226 20.9417 12.0226 20.9417 12.0226C20.9417 12.0226 20.9417 12.0226 20.9417 12.0226C20.9417 12.0226 20.9417 12.0226 20.9417 12.0226C20.9417 12.0226 20.9417 12.0226 20.9417 12.0226C20.9417 12.0226 20.9417 12.0226 20.9417 12.0226C20.9417 12.0226 20.9417 12.0226 20.9417 12.0226C20.9417 12.0226 20.9417 12.0226 20.9417 12.0226C20.9417 12.0226 20.9417 12.0226 20.9417 12.0226C20.9417 12.0226 20.9416 12.0226 20.9416 12.0226C20.9416 12.0226 20.9416 12.0226 20.9416 12.0226C20.9416 12.0226 20.9416 12.0226 20.9416 12.0226C20.9416 12.0226 20.9416 12.0226 20.9416 12.0226C20.9416 12.0226 20.9416 12.0226 20.9416 12.0226C20.9416 12.0226 20.9416 12.0226 20.9416 12.0226C20.9416 12.0226 20.9416 12.0226 20.9416 12.0226C20.9416 12.0226 20.9416 12.0226 20.9416 12.0226C20.9416 12.0226 20.9416 12.0226 20.9415 12.0226C20.9415 12.0226 20.9415 12.0226 20.9415 12.0226C20.9415 12.0226 20.9415 12.0226 20.9415 12.0226C20.9415 12.0226 20.9415 12.0226 20.9415 12.0226C20.9415 12.0226 20.9415 12.0226 20.9415 12.0226C20.9415 12.0226 20.9415 12.0226 20.9415 12.0226C20.9415 12.0226 20.9415 12.0226 20.9415 12.0226C20.9415 12.0226 20.9415 12.0226 20.9415 12.0226C20.9415 12.0226 20.9415 12.0226 20.9415 12.0226C20.9414 12.0226 20.9414 12.0226 20.9414 12.0226C20.9414 12.0226 20.9414 12.0226 20.9414 12.0226C20.9414 12.0226 20.9414 12.0226 20.9414 12.0226C20.9414 12.0226 20.9414 12.0226 20.9414 12.0226C20.9414 12.0226 20.9414 12.0226 20.9414 12.0226C20.9414 12.0226 20.9414 12.0226 20.9414 12.0226C20.9414 12.0226 20.9414 12.0226 20.9414 12.0226C20.9414 12.0226 20.9414 12.0226 20.9414 12.0226C20.9413 12.0226 20.9413 12.0226 20.9413 12.0226C20.9413 12.0226 20.9413 12.0226 20.9413 12.0226C20.9413 12.0226 20.9413 12.0226 20.9413 12.0226C20.9413 12.0226 20.9413 12.0226 20.9413 12.0226C20.9413 12.0226 20.9413 12.0226 20.9413 12.0226C20.9413 12.0226 20.9413 12.0226 20.9413 12.0226C20.9413 12.0226 20.9413 12.0226 20.9413 12.0226C20.9413 12.0226 20.9413 12.0226 20.9413 12.0226C20.9413 12.0226 20.9412 12.0226 20.9412 12.0226C20.9412 12.0226 20.9412 12.0226 20.9412 12.0226C20.9412 12.0226 20.9412 12.0226 20.9412 12.0226C20.9412 12.0226 20.9412 12.0226 20.9412 12.0226C20.9412 12.0226 20.9412 12.0226 20.9412 12.0226C20.9412 12.0226 20.9412 12.0226 20.9412 12.0226C20.9412 12.0226 20.9412 12.0226 20.9412 12.0226C20.9412 12.0226 20.9412 12.0226 20.9412 12.0226C20.9412 12.0226 20.9411 12.0226 20.9411 12.0226C20.9411 12.0226 20.9411 12.0226 20.9411 12.0226C20.9411 12.0226 20.9411 12.0226 20.9411 12.0226C20.9411 12.0226 20.9411 12.0226 20.9411 12.0226C20.9411 12.0226 20.9411 12.0226 20.9411 12.0226C20.9411 12.0226 20.9411 12.0226 20.9411 12.0226C20.9411 12.0226 20.9411 12.0226 20.9411 12.0226C20.9411 12.0226 20.9411 12.0226 20.9411 12.0226C20.9411 12.0226 20.9411 12.0226 20.941 12.0226C20.941 12.0226 20.941 12.0226 20.941 12.0226C20.941 12.0226 20.941 12.0226 20.941 12.0226C20.941 12.0226 20.941 12.0226 20.941 12.0226C20.941 12.0226 20.941 12.0226 20.941 12.0226C20.941 12.0226 20.941 12.0226 20.941 12.0226C20.941 12.0226 20.941 12.0226 20.941 12.0226C20.941 12.0226 20.941 12.0226 20.941 12.0226C20.941 12.0226 20.941 12.0226 20.941 12.0226C20.9409 12.0226 20.9409 12.0226 20.9409 12.0226C20.9409 12.0226 20.9409 12.0226 20.9409 12.0226C20.9409 12.0226 20.9409 12.0226 20.9409 12.0226C20.9409 12.0226 20.9409 12.0226 20.9409 12.0226C20.9409 12.0226 20.9409 12.0226 20.9409 12.0226C20.9409 12.0226 20.9409 12.0226 20.9409 12.0226C20.9409 12.0226 20.9409 12.0226 20.9409 12.0226C20.9409 12.0226 20.9409 12.0226 20.9409 12.0226C20.9408 12.0226 20.9408 12.0226 20.9408 12.0226C20.9408 12.0226 20.9408 12.0226 20.9408 12.0226C20.9408 12.0226 20.9408 12.0226 20.9408 12.0226C20.9408 12.0226 20.9408 12.0226 20.9408 12.0226C20.9408 12.0226 20.9408 12.0226 20.9408 12.0226C20.9408 12.0226 20.9408 12.0226 20.9408 12.0226C20.9408 12.0226 20.9408 12.0226 20.9408 12.0226C20.9408 12.0226 20.9408 12.0226 20.9408 12.0226C20.9408 12.0226 20.9407 12.0226 20.9407 12.0226C20.9407 12.0226 20.9407 12.0226 20.9407 12.0226C20.9407 12.0226 20.9407 12.0226 20.9407 12.0226C20.9407 12.0226 20.9407 12.0226 20.9407 12.0226C20.9407 12.0226 20.9407 12.0226 20.9407 12.0226C20.9407 12.0226 20.9407 12.0226 20.9407 12.0226C20.9407 12.0226 20.9407 12.0226 20.9407 12.0226C20.9407 12.0226 20.9407 12.0226 20.9407 12.0226C20.9407 12.0226 20.9406 12.0226 20.9406 12.0226C20.9406 12.0226 20.9406 12.0226 20.9406 12.0226C20.9406 12.0226 20.9406 12.0226 20.9406 12.0226C20.9406 12.0226 20.9406 12.0226 20.9406 12.0226C20.9406 12.0226 20.9406 12.0226 20.9406 12.0226C20.9406 12.0226 20.9406 12.0226 20.9406 12.0226C20.9406 12.0226 20.9406 12.0226 20.9406 12.0226C20.9406 12.0226 20.9406 12.0226 20.9406 12.0226C20.9406 12.0226 20.9406 12.0226 20.9405 12.0226C20.9405 12.0226 20.9405 12.0226 20.9405 12.0226C20.9405 12.0226 20.9405 12.0226 20.9405 12.0226C20.9405 12.0226 20.9405 12.0226 20.9405 12.0226C20.9405 12.0226 20.9405 12.0226 20.9405 12.0226C20.9405 12.0226 20.9405 12.0226 20.9405 12.0226C20.9405 12.0226 20.9405 12.0226 20.9405 12.0226C20.9405 12.0226 20.9405 12.0226 20.9405 12.0226C20.9405 12.0226 20.9405 12.0226 20.9405 12.0226C20.9404 12.0226 20.9404 12.0226 20.9404 12.0226C20.9404 12.0226 20.9404 12.0226 20.9404 12.0226C20.9404 12.0226 20.9404 12.0226 20.9404 12.0226C20.9404 12.0226 20.9404 12.0226 20.9404 12.0226C20.9404 12.0226 20.9404 12.0226 20.9404 12.0226C20.9404 12.0226 20.9404 12.0226 20.9404 12.0226C20.9404 12.0226 20.9404 12.0226 20.9404 12.0226C20.9404 12.0226 20.9404 12.0226 20.9404 12.0226C20.9403 12.0226 20.9403 12.0226 20.9403 12.0226C20.9403 12.0226 20.9403 12.0226 20.9403 12.0226C20.9403 12.0226 20.9403 12.0226 20.9403 12.0226C20.9403 12.0226 20.9403 12.0226 20.9403 12.0226C20.9403 12.0226 20.9403 12.0226 20.9403 12.0226C20.9403 12.0226 20.9403 12.0226 20.9403 12.0226C20.9403 12.0226 20.9403 12.0226 20.9403 12.0226C20.9403 12.0226 20.9403 12.0226 20.9403 12.0226C20.9403 12.0226 20.9402 12.0226 20.9402 12.0226C20.9402 12.0226 20.9402 12.0226 20.9402 12.0226C20.9402 12.0226 20.9402 12.0226 20.9402 12.0226C20.9402 12.0226 20.9402 12.0226 20.9402 12.0226C20.9402 12.0226 20.9402 12.0226 20.9402 12.0226C20.9402 12.0226 20.9402 12.0226 20.9402 12.0226C20.9402 12.0226 20.9402 12.0226 20.9402 12.0226C20.9402 12.0226 20.9402 12.0226 20.9402 12.0226C20.9402 12.0226 20.9401 12.0226 20.9401 12.0226C20.9401 12.0226 20.9401 12.0226 20.9401 12.0226C20.9401 12.0226 20.9401 12.0226 20.9401 12.0226C20.9401 12.0226 20.9401 12.0226 20.9401 12.0226C20.9401 12.0226 20.9401 12.0226 20.9401 12.0226C20.9401 12.0226 20.9401 12.0226 20.9401 12.0226C20.9401 12.0226 20.9401 12.0226 20.9401 12.0226C20.9401 12.0226 20.9401 12.0226 20.9401 12.0226C20.9401 12.0226 20.9401 12.0226 20.94 12.0226C20.94 12.0226 20.94 12.0226 20.94 12.0226C20.94 12.0226 20.94 12.0226 20.94 12.0226C20.94 12.0226 20.94 12.0226 20.94 12.0226C20.94 12.0226 20.94 12.0226 20.94 12.0226C20.94 12.0226 20.94 12.0226 20.94 12.0226C20.94 12.0226 20.94 12.0226 20.94 12.0226C20.94 12.0226 20.94 12.0226 20.94 12.0226C20.94 12.0226 20.94 12.0226 20.94 12.0226C20.9399 12.0226 20.9399 12.0226 20.9399 12.0226C20.9399 12.0226 20.9399 12.0226 20.9399 12.0226C20.9399 12.0226 20.9399 12.0226 20.9399 12.0226C20.9399 12.0226 20.9399 12.0226 20.9399 12.0226C20.9399 12.0226 20.9399 12.0226 20.9399 12.0226C20.9399 12.0226 20.9399 12.0226 20.9399 12.0226C20.9399 12.0226 20.9399 12.0226 20.9399 12.0226C20.9399 12.0226 20.9399 12.0226 20.9399 12.0226C20.9398 12.0226 20.9398 12.0226 20.9398 12.0226C20.9398 12.0226 20.9398 12.0226 20.9398 12.0226C20.9398 12.0226 20.9398 12.0226 20.9398 12.0226C20.9398 12.0226 20.9398 12.0226 20.9398 12.0226C20.9398 12.0226 20.9398 12.0226 20.9398 12.0226C20.9398 12.0226 20.9398 12.0226 20.9398 12.0226C20.9398 12.0226 20.9398 12.0226 20.9398 12.0226C20.9398 12.0226 20.9398 12.0226 20.9398 12.0226C20.9398 12.0226 20.9397 12.0226 20.9397 12.0226C20.9397 12.0226 20.9397 12.0226 20.9397 12.0226C20.9397 12.0226 20.9397 12.0226 20.9397 12.0226C20.9397 12.0226 20.9397 12.0226 20.9397 12.0226C20.9397 12.0226 20.9397 12.0226 20.9397 12.0226C20.9397 12.0226 20.9397 12.0226 20.9397 12.0226C20.9397 12.0226 20.9397 12.0226 20.9397 12.0226C20.9397 12.0226 20.9397 12.0226 20.9397 12.0226C20.9397 12.0226 20.9396 12.0226 20.9396 12.0226C20.9396 12.0226 20.9396 12.0226 20.9396 12.0226C20.9396 12.0226 20.9396 12.0226 20.9396 12.0226C20.9396 12.0226 20.9396 12.0226 20.9396 12.0226C20.9396 12.0226 20.9396 12.0226 20.9396 12.0226C20.9396 12.0226 20.9396 12.0226 20.9396 12.0226C20.9396 12.0226 20.9396 12.0226 20.9396 12.0226C20.9396 12.0226 20.9396 12.0226 20.9396 12.0226C20.9396 12.0226 20.9396 12.0226 20.9395 12.0226C20.9395 12.0226 20.9395 12.0226 20.9395 12.0226C20.9395 12.0226 20.9395 12.0226 20.9395 12.0226C20.9395 12.0226 20.9395 12.0226 20.9395 12.0226C20.9395 12.0226 20.9395 12.0226 20.9395 12.0226C20.9395 12.0226 20.9395 12.0226 20.9395 12.0226C20.9395 12.0226 20.9395 12.0226 20.9395 12.0226C20.9395 12.0226 20.9395 12.0226 20.9395 12.0226C20.9395 12.0226 20.9395 12.0226 20.9395 12.0226C20.9394 12.0226 20.9394 12.0226 20.9394 12.0226C20.9394 12.0226 20.9394 12.0226 20.9394 12.0226C20.9394 12.0226 20.9394 12.0226 20.9394 12.0226C20.9394 12.0226 20.9394 12.0226 20.9394 12.0226C20.9394 12.0226 20.9394 12.0226 20.9394 12.0226C20.9394 12.0226 20.9394 12.0226 20.9394 12.0226C20.9394 12.0226 20.9394 12.0226 20.9394 12.0226C20.9394 12.0226 20.9394 12.0226 20.9394 12.0226C20.9393 12.0226 20.9393 12.0226 20.9393 12.0226C20.9393 12.0226 20.9393 12.0226 20.9393 12.0226C20.9393 12.0226 20.9393 12.0226 20.9393 12.0226C20.9393 12.0226 20.9393 12.0226 20.9393 12.0226C20.9393 12.0226 20.9393 12.0226 20.9393 12.0226C20.9393 12.0226 20.9393 12.0226 20.9393 12.0226C20.9393 12.0226 20.9393 12.0226 20.9393 12.0226C20.9393 12.0226 20.9393 12.0226 20.9393 12.0226C20.9393 12.0226 20.9392 12.0226 20.9392 12.0226C20.9392 12.0226 20.9392 12.0226 20.9392 12.0226C20.9392 12.0226 20.9392 12.0226 20.9392 12.0226C20.9392 12.0226 20.9392 12.0226 20.9392 12.0226C20.9392 12.0226 20.9392 12.0226 20.9392 12.0226C20.9392 12.0226 20.9392 12.0226 20.9392 12.0226C20.9392 12.0226 20.9392 12.0226 20.9392 12.0226C20.9392 12.0226 20.9392 12.0226 20.9392 12.0226C20.9392 12.0226 20.9391 12.0226 20.9391 12.0226C20.9391 12.0226 20.9391 12.0226 20.9391 12.0226C20.9391 12.0226 20.9391 12.0226 20.9391 12.0226C20.9391 12.0226 20.9391 12.0226 20.9391 12.0226C20.9391 12.0226 20.9391 12.0226 20.9391 12.0226C20.9391 12.0226 20.9391 12.0226 20.9391 12.0226C20.9391 12.0226 20.9391 12.0226 20.9391 12.0226C20.9391 12.0226 20.9391 12.0226 20.9391 12.0226C20.9391 12.0226 20.9391 12.0226 20.939 12.0226C20.939 12.0226 20.939 12.0226 20.939 12.0226C20.939 12.0226 20.939 12.0226 20.939 12.0226C20.939 12.0226 20.939 12.0226 20.939 12.0226C20.939 12.0226 20.939 12.0226 20.939 12.0226C20.939 12.0226 20.939 12.0226 20.939 12.0226C20.939 12.0226 20.939 12.0226 20.939 12.0226C20.939 12.0226 20.939 12.0226 20.939 12.0226C20.939 12.0226 20.939 12.0226 20.939 12.0226C20.9389 12.0226 20.9389 12.0226 20.9389 12.0226C20.9389 12.0226 20.9389 12.0226 20.9389 12.0226C20.9389 12.0226 20.9389 12.0226 20.9389 12.0226C20.9389 12.0226 20.9389 12.0226 20.9389 12.0226C20.9389 12.0226 20.9389 12.0226 20.9389 12.0226C20.9389 12.0226 20.9389 12.0226 20.9389 12.0226C20.9389 12.0226 20.9389 12.0226 20.9389 12.0226C20.9389 12.0226 20.9389 12.0226 20.9389 12.0226C20.9388 12.0226 20.9388 12.0226 20.9388 12.0226C20.9388 12.0226 20.9388 12.0226 20.9388 12.0226C20.9388 12.0226 20.9388 12.0226 20.9388 12.0226C20.9388 12.0226 20.9388 12.0226 20.9388 12.0226C20.9388 12.0226 20.9388 12.0226 20.9388 12.0226C20.9388 12.0226 20.9388 12.0226 20.9388 12.0226C20.9388 12.0226 20.9388 12.0226 20.9388 12.0226C20.9388 12.0226 20.9388 12.0226 20.9388 12.0226V16.0226ZM21.0249 16.021C22.2203 15.9732 23.141 14.9653 23.094 13.7796L19.0971 13.9382C19.057 12.9274 19.8431 12.0651 20.8651 12.0242L21.0249 16.021ZM23.0939 13.7788C23.0933 13.7622 23.0959 13.7531 23.0975 13.7487C23.0991 13.7443 23.1026 13.7368 23.1124 13.7262L20.1734 11.0128C19.4369 11.8106 19.0538 12.8572 19.0971 13.9391L23.0939 13.7788ZM23.1124 13.7262C23.1228 13.7149 23.1305 13.7105 23.135 13.7085C23.1395 13.7064 23.148 13.7032 23.1639 13.7026L23.0036 9.70582C21.9203 9.74926 20.9085 10.2165 20.1734 11.0128L23.1124 13.7262ZM23.1637 13.7026C24.359 13.6548 25.2798 12.6469 25.2327 11.4612L21.2359 11.6198C21.1957 10.609 21.9819 9.74669 23.0038 9.70581L23.1637 13.7026ZM25.2333 11.4765C25.2182 11.0048 25.0434 10.4517 24.5972 10.0098C24.1277 9.54462 23.5176 9.3625 22.9618 9.39296L23.1807 13.387C22.7262 13.4119 22.1962 13.2617 21.7822 12.8515C21.3915 12.4645 21.2476 11.9895 21.2353 11.6045L25.2333 11.4765Z" fill="white" mask="url(#path-3-inside-2_174_1543)"/>
<path d="M14.5612 23.7518C14.5611 23.7513 14.561 23.7509 14.5609 23.7505L14.2341 23.8212C14.2508 23.8996 14.3202 23.953 14.3972 23.953C14.409 23.953 14.4208 23.9516 14.4325 23.9489C14.5223 23.9295 14.5797 23.8415 14.5612 23.7518Z" fill="white" stroke="white" stroke-width="2"/>
<mask id="path-6-inside-3_174_1543" fill="white">
<path d="M43.2658 15.1747C42.7539 14.7071 42.1378 14.5129 41.4406 14.5947C40.9294 14.6551 40.4687 14.8583 40.1566 15.0435C39.2499 11.6845 37.4837 8.60512 34.9481 6.08899C31.1749 2.34567 26.176 0.288086 20.8648 0.288086H20.7823C15.4399 0.309591 10.4257 2.41088 6.66367 6.20345C2.90161 9.99603 0.84126 15.0269 0.863459 20.3693C0.885658 25.7116 2.98625 30.7258 6.77882 34.4879C10.552 38.2305 15.5502 40.2888 20.8614 40.2881H20.9446C26.287 40.2666 31.3012 38.166 35.0633 34.3734C38.7518 30.6544 40.7989 25.7442 40.8572 20.5184C40.7636 20.6218 40.6505 20.6904 40.5305 20.7425C41.9443 19.6519 42.9849 18.8923 43.2728 18.6835C43.3914 18.5954 43.7792 17.9211 43.8659 17.1199C43.9436 16.3831 43.7431 15.7178 43.2658 15.1747ZM40.1552 21.1365C39.9491 25.9482 37.9873 30.4469 34.5728 33.8885C30.9398 37.5507 26.0983 39.5791 20.9405 39.5999C15.8048 39.6138 10.9245 37.6318 7.26235 33.9988C3.60019 30.3658 1.57175 25.5243 1.55094 20.3665C1.53013 15.208 3.51903 10.3505 7.15205 6.68836C10.7851 3.02621 15.6266 0.997763 20.7844 0.976952C20.8114 0.976952 20.8371 0.976952 20.8635 0.976952C29.8853 0.976952 37.4864 7.2038 39.5898 15.5958C39.3879 15.8975 39.0438 16.4074 38.5908 17.063C36.9779 8.72027 29.6383 2.39561 20.8336 2.39561C10.8517 2.39561 2.73026 10.517 2.73026 20.499C2.73026 30.4809 10.8517 38.6017 20.8336 38.6017C30.2925 38.6017 38.0712 31.3072 38.8614 22.0494C39.3352 21.6721 39.7903 21.3141 40.2141 20.986C40.194 21.0359 40.1788 21.0893 40.1552 21.1365ZM13.6793 28.9152C13.4531 28.6308 13.1409 28.483 12.8648 28.3533C12.7337 28.2916 12.6012 28.2298 12.4819 28.1507C12.1413 27.926 11.9158 27.5312 11.8936 27.1199C11.8818 26.8951 11.9235 26.6523 11.9672 26.3949C12.0476 25.9274 12.1385 25.3967 11.8777 24.9062C11.5468 24.286 10.8655 24.1001 10.2634 23.9364C9.71882 23.7879 9.24848 23.6603 9.091 23.2822C9.01955 23.1115 9.02232 22.8944 9.02579 22.6648C9.02856 22.4691 9.03065 22.2666 8.99249 22.0564C8.86762 21.3849 8.3945 20.9367 7.93665 20.5031C7.56481 20.1507 7.21379 19.8177 7.091 19.4008C6.99457 19.072 7.04452 18.7022 7.09724 18.3103C7.11736 18.1632 7.13679 18.0161 7.14997 17.8705C7.2235 17.0297 6.95087 16.354 6.42017 16.0633C6.20581 15.9461 5.97966 15.9065 5.77987 15.8725C5.76668 15.8705 5.7535 15.8684 5.74032 15.8656C6.09828 15.679 6.43127 15.5 6.75663 15.3231C6.79964 15.3398 6.8371 15.3647 6.88219 15.3765C6.98278 15.4036 7.08545 15.4209 7.18812 15.439C7.36433 15.4695 7.53151 15.4979 7.67164 15.5749C8.18639 15.8573 8.15864 16.6523 8.13783 16.8888C8.12603 17.0276 8.1073 17.1663 8.08788 17.3058C8.0303 17.7331 7.97064 18.175 8.09759 18.6079C8.25853 19.1573 8.67685 19.5541 9.08198 19.9378C9.49891 20.3325 9.89225 20.7057 9.98659 21.2135C10.0164 21.3738 10.0143 21.5437 10.0116 21.7227C10.0081 21.9939 10.0046 22.2742 10.1163 22.5434C10.3702 23.1518 11.0091 23.3252 11.6266 23.4938C12.1767 23.6436 12.697 23.7851 12.9238 24.2111C13.1021 24.5462 13.0334 24.9478 12.9606 25.3724C12.9134 25.6464 12.8648 25.9294 12.8801 26.2118C12.9113 26.7813 13.2242 27.3287 13.6973 27.6415C13.8402 27.7359 13.9949 27.8087 14.1441 27.8795C14.3903 27.996 14.6241 28.1063 14.776 28.2971C15.1035 28.7085 14.946 29.3606 14.7948 29.8288C14.6082 30.4053 14.3973 31.0588 14.6866 31.6367C14.7469 31.7567 14.8274 31.8677 14.9294 31.9724C14.5104 32.2596 14.1579 32.5052 13.9283 32.6703C13.7958 32.5663 13.7042 32.4601 13.6467 32.345C13.451 31.9544 13.6203 31.4306 13.7896 30.9097C13.972 30.3422 14.16 29.5187 13.6793 28.9152ZM8.45624 23.5486C8.74414 24.2361 9.4552 24.4303 10.083 24.601C10.5957 24.7404 11.0799 24.8729 11.2707 25.2309C11.4212 25.5125 11.3602 25.8677 11.2894 26.2791C11.2408 26.5628 11.1902 26.8555 11.2069 27.158C11.2408 27.7824 11.5835 28.3838 12.1031 28.7258C12.2495 28.8223 12.4105 28.9 12.5714 28.9756C12.8087 29.0879 13.014 29.1844 13.1409 29.3439C13.3498 29.6062 13.3477 30.0363 13.1298 30.7106C13.1236 30.7307 13.1167 30.7522 13.1104 30.7723C12.5187 30.354 11.9512 29.8947 11.4268 29.3745C9.18673 27.1525 7.86589 24.261 7.61545 21.1497C7.94983 21.4716 8.24397 21.7907 8.31611 22.1819C8.34247 22.3255 8.34039 22.4858 8.33831 22.6558C8.33415 22.9326 8.32999 23.2454 8.45624 23.5486ZM15.1187 29.9169C15.2894 29.389 15.4663 28.6259 15.039 28.0883C14.8385 27.8365 14.5589 27.704 14.2877 27.5763C14.1427 27.5076 14.0053 27.4431 13.8825 27.362C13.4961 27.1067 13.2401 26.6585 13.2152 26.193C13.202 25.9482 13.2471 25.6839 13.2908 25.4279C13.3699 24.9659 13.4517 24.4886 13.2193 24.0529C12.9245 23.5 12.3092 23.3321 11.7147 23.1705C11.15 23.0165 10.6165 22.8715 10.425 22.4143C10.3397 22.2097 10.3425 21.9752 10.3459 21.7269C10.348 21.5389 10.3508 21.3453 10.3154 21.1525C10.2016 20.5378 9.74934 20.1091 9.3116 19.695C8.92173 19.3259 8.55406 18.977 8.41809 18.5142C8.31126 18.15 8.36329 17.7616 8.41878 17.3509C8.43821 17.2066 8.45833 17.0616 8.47081 16.918C8.5381 16.1493 8.29877 15.5375 7.83189 15.2815C7.6432 15.1781 7.44064 15.1428 7.24501 15.1095C7.22073 15.1053 7.19714 15.099 7.17216 15.0949C8.45416 14.381 9.59117 13.6797 11.1292 12.7064C11.134 12.7154 11.1396 12.7237 11.1437 12.7328C11.3505 13.1178 11.1971 13.6464 11.0438 14.1722C10.878 14.7439 10.7143 15.5729 11.2131 16.1611C11.4476 16.4386 11.7639 16.5767 12.0435 16.6981C12.1767 16.7557 12.3106 16.8132 12.4327 16.8882C12.7795 17.1025 13.0161 17.4903 13.0515 17.9003C13.0702 18.1251 13.0362 18.3693 12.9994 18.628C12.9328 19.0984 12.8579 19.6311 13.1333 20.1133C13.4823 20.723 14.1697 20.8882 14.776 21.0331C15.3248 21.1643 15.7986 21.2787 15.9672 21.6512C16.0435 21.8198 16.0469 22.0363 16.0511 22.2659C16.0546 22.4615 16.058 22.6641 16.1031 22.8729C16.2474 23.5403 16.7344 23.9738 17.2048 24.3935C17.587 24.7348 17.9477 25.0567 18.083 25.4702C18.1892 25.7955 18.1503 26.1667 18.1094 26.5593C18.0941 26.7071 18.0789 26.8556 18.0698 27.0019C18.0213 27.8448 18.3147 28.5115 18.8537 28.7862C19.0286 28.875 19.2103 28.9138 19.3789 28.9395C18.9259 29.2537 18.2682 29.7005 17.5822 30.1667C17.5072 30.0994 17.4441 30.0259 17.3962 29.9426C17.2075 29.6124 17.2644 29.2093 17.3248 28.7827C17.3636 28.5073 17.4039 28.2229 17.3803 27.9412C17.3324 27.3724 17.0036 26.834 16.5208 26.5364C16.3751 26.4463 16.2183 26.3783 16.0671 26.3124C15.8173 26.2035 15.5808 26.1001 15.4233 25.9142C15.3629 25.8434 15.2582 25.8358 15.1874 25.8947C15.1167 25.9544 15.1083 26.0599 15.168 26.1306C15.3761 26.3762 15.6592 26.4997 15.9339 26.6197C16.0809 26.6835 16.2204 26.7446 16.3459 26.8223C16.7393 27.0651 17.0084 27.5049 17.0473 27.9704C17.0681 28.2146 17.0306 28.4802 16.9946 28.7369C16.9294 29.201 16.8614 29.6804 17.107 30.1098C17.1597 30.2021 17.2284 30.2818 17.3033 30.3575C17.2242 30.4109 17.1458 30.4643 17.0667 30.5177C16.4243 30.9534 15.7736 31.3946 15.2131 31.7782C15.1153 31.6852 15.0383 31.5895 14.9862 31.4861C14.7587 31.0311 14.9391 30.4719 15.1187 29.9169ZM17.4524 31.0873C18.8156 30.1625 20.1038 29.2891 20.3744 29.0755L20.7483 28.7799L20.3501 28.5184C20.2218 28.4338 20.0733 28.3706 19.9193 28.3339C19.8132 28.3089 19.7049 28.2929 19.596 28.2777C19.4337 28.2548 19.2804 28.2333 19.1645 28.1743C18.8253 28.0009 18.731 27.4764 18.7552 27.0429C18.7629 26.9069 18.7774 26.7702 18.792 26.6329C18.8392 26.1847 18.8877 25.7227 18.7358 25.2579C18.5437 24.6682 18.0948 24.268 17.6612 23.8816C17.2554 23.5194 16.8711 23.1767 16.7747 22.7286C16.7441 22.5864 16.7414 22.4254 16.7386 22.2555C16.7344 21.9794 16.7289 21.6658 16.5936 21.3675C16.2856 20.6884 15.5683 20.5163 14.9363 20.3651C14.4195 20.2409 13.9318 20.1244 13.7306 19.7727C13.5717 19.4952 13.6224 19.1386 13.6807 18.7251C13.7209 18.44 13.7625 18.1452 13.7369 17.8434C13.6841 17.2204 13.3234 16.6301 12.7948 16.3033C12.6456 16.2111 12.4819 16.1382 12.3189 16.0675C12.0782 15.9627 11.8707 15.8719 11.7389 15.7172C11.5225 15.4612 11.5121 15.0311 11.7098 14.3505C11.8798 13.7664 12.0907 13.0394 11.7507 12.4067C11.6723 12.2603 11.5676 12.1285 11.4323 12.003L11.2381 11.8233L11.0147 11.9648C10.5894 12.2347 10.203 12.4775 9.82981 12.7113C10.278 12.055 10.7809 11.43 11.3525 10.8542C13.8159 8.37064 17.0993 6.99499 20.5978 6.98111C20.6165 6.98111 20.6345 6.98111 20.6526 6.98111C22.1794 6.98111 23.6599 7.2586 25.057 7.75878C23.9027 8.52534 22.7372 8.26103 21.4295 7.95996C19.9151 7.6124 18.2003 7.21698 16.4999 8.71403C15.4427 9.64431 15.0293 10.9582 14.869 11.8961C14.5284 13.8878 15.0473 16.4088 16.9925 17.2371C17.297 17.3668 17.6307 17.457 17.9533 17.5437C18.8114 17.7754 19.3449 17.953 19.5093 18.4698C19.6266 18.8382 19.4774 19.2614 19.3192 19.7095C19.2748 19.8365 19.2304 19.9627 19.1909 20.0876C18.8038 21.3328 19.0175 22.6523 19.7473 23.5312C20.2773 24.1688 21.0646 24.5122 21.8277 24.5122C22.2898 24.5122 22.7428 24.3866 23.1243 24.1237C23.6786 23.7421 23.9984 23.1684 24.3078 22.6141C24.5513 22.1771 24.7816 21.7636 25.1111 21.4632C25.9602 20.6891 27.2006 20.8098 28.5138 20.9367C28.9432 20.9783 29.3872 21.0213 29.8139 21.0297C31.3962 21.0581 32.792 20.5274 33.7216 19.568C33.7285 19.7199 33.7452 19.8712 33.7459 20.0245C33.7528 21.6402 33.4545 23.2059 32.9009 24.6731C31.8347 25.9766 30.7282 27.2537 29.6418 28.3783C28.4784 27.765 26.8135 28.1313 26.0109 28.9319L22.928 32.5788L22.4993 33.0255C21.9082 33.1101 21.3102 33.1705 20.7025 33.1733C20.6838 33.1733 20.6657 33.1733 20.6477 33.1733C18.9536 33.1733 17.3178 32.8292 15.791 32.2166C16.305 31.8663 16.8808 31.475 17.4524 31.0873ZM31.6737 13.5035C31.9575 13.9974 32.3855 14.336 32.8003 14.6634C33.0972 14.8979 33.3782 15.1199 33.5953 15.3876C34.3452 16.311 34.2502 17.8954 33.3844 18.9194C32.6096 19.8351 31.2762 20.3575 29.8277 20.3353C29.4275 20.3276 29.0161 20.2874 28.5804 20.2458C27.1742 20.1091 25.7195 19.9683 24.6436 20.9506C24.2308 21.3273 23.9616 21.8094 23.7015 22.2763C23.4184 22.7834 23.152 23.2628 22.7303 23.5527C22.0192 24.0425 20.8968 23.8302 20.2807 23.0886C19.7077 22.3991 19.5398 21.3023 19.8527 20.2936C19.8888 20.1771 19.9304 20.0592 19.972 19.9405C20.1524 19.4293 20.357 18.8493 20.1697 18.2596C19.8784 17.3453 18.9509 17.0949 18.133 16.8743C17.8194 16.7896 17.5232 16.7099 17.263 16.5989C15.7362 15.9482 15.2464 13.7997 15.5516 12.0127C15.6932 11.1851 16.0518 10.0307 16.9564 9.23432C18.3903 7.97314 19.7903 8.29502 21.2728 8.63564C22.8961 9.00817 24.7351 9.43134 26.4576 7.41677C27.1583 6.59749 28.8954 6.53505 30.1739 7.28358C30.8995 7.70744 32.0081 8.7175 31.2776 10.7154C30.9849 11.5174 31.1319 12.56 31.6737 13.5035ZM34.1392 20.0224C34.1378 19.7158 34.1212 19.4112 34.0976 19.1088C34.9994 17.8309 35.0383 16.0654 34.1337 14.9513C33.868 14.6232 33.5433 14.3672 33.2297 14.1195C32.8503 13.8198 32.4916 13.5368 32.2752 13.1587C31.8347 12.3908 31.7049 11.5659 31.929 10.9534C32.579 9.17466 32.0539 7.57841 30.5235 6.6842C28.9502 5.76363 26.8461 5.89336 25.9297 6.96585C25.7625 7.16079 25.5967 7.32659 25.4302 7.47158C23.9221 6.89926 22.312 6.58777 20.6505 6.58777H20.5943C16.9911 6.60234 13.6092 8.01892 11.0716 10.5774C10.2835 11.3717 9.61545 12.2506 9.05909 13.1878C7.6654 14.0432 6.47497 14.7217 4.81212 15.5694L4.43196 15.7629L4.70182 16.0938C4.84889 16.2735 5.08129 16.4164 5.33796 16.4844C5.44341 16.5129 5.55232 16.5323 5.66124 16.551C5.82218 16.5794 5.9748 16.6051 6.08857 16.6676C6.42295 16.8507 6.50134 17.3786 6.46387 17.8115C6.45208 17.9468 6.43335 18.0834 6.41531 18.2194C6.35496 18.6655 6.29253 19.1268 6.42988 19.5958C6.56724 20.0626 6.86554 20.4164 7.19159 20.7411C7.35461 24.114 8.73651 27.2614 11.1493 29.6547C11.7202 30.2215 12.3446 30.7113 12.9932 31.158C12.8621 31.6374 12.7885 32.1674 13.0313 32.653C13.1722 32.9346 13.4018 33.1677 13.7535 33.3856L13.9568 33.5118L14.1455 33.3654C14.3251 33.226 14.7913 32.9006 15.3935 32.4879C17.0355 33.1858 18.81 33.5673 20.647 33.5673H20.7032C21.1638 33.5652 21.6175 33.5264 22.0685 33.4743L21.9582 33.5895C21.8236 33.7296 21.7535 33.9156 21.7604 34.1112C21.7674 34.3054 21.8492 34.4872 21.9914 34.6225C22.1357 34.7605 22.314 34.8389 22.5221 34.8306C22.7143 34.8264 22.8933 34.7487 23.0244 34.6114L24.6262 32.9402C24.9377 32.8431 25.2457 32.7383 25.5489 32.619L25.1493 33.056L23.3546 34.9284C23.0896 35.2052 23.0917 35.6464 23.3782 35.9502C23.6751 36.2055 24.1149 36.1889 24.3806 35.9121L26.1711 34.0439L28.4618 31.7643C28.5055 31.7206 28.5631 31.6956 28.6248 31.6956C28.6748 31.7033 28.7428 31.7199 28.7878 31.7657C28.8343 31.8115 28.8468 31.867 28.8468 31.9121L24.7101 36.2277C24.5756 36.3679 24.5062 36.5531 24.5131 36.7501C24.5201 36.9437 24.6012 37.1254 24.7428 37.26C24.8877 37.3994 25.0744 37.4681 25.2596 37.4681C25.449 37.4681 25.637 37.3953 25.7771 37.2496L26.7351 36.2499L30.2738 32.9901C31.0265 32.1688 31.322 30.49 30.6588 29.3536C32.9953 26.8958 36.0241 24.3193 38.5388 22.3047C37.6307 31.278 30.0421 38.3068 20.8336 38.3068C11.014 38.3068 3.0251 30.3179 3.0251 20.499C3.0251 10.68 11.014 2.69044 20.8336 2.69044C29.5933 2.69044 36.8836 9.05257 38.3577 17.396C37.2159 19.0373 35.5003 21.4223 33.5912 23.8164C33.9457 22.5975 34.1441 21.3273 34.1392 20.0224ZM25.2339 32.3061L27.1611 30.2957C27.2124 30.2936 27.263 30.3047 27.313 30.3512C27.3581 30.3921 27.3851 30.4476 27.3872 30.508C27.39 30.5697 27.3685 30.6287 27.3255 30.6752L26.1947 31.9121C25.8798 32.0557 25.56 32.1882 25.2339 32.3061ZM42.9536 18.3068C42.1281 18.9048 34.7518 24.2902 30.1697 29.1559L30.0317 29.3023L30.1482 29.4667C30.8087 30.3977 30.5638 31.9468 29.9269 32.6433L26.3917 35.8989L25.4233 36.9097C25.3352 37.0012 25.1833 36.9998 25.0841 36.9055C25.0362 36.8597 25.0084 36.798 25.0057 36.7321C25.0036 36.6696 25.0251 36.6114 25.0667 36.5677L29.3074 32.1431L29.322 32.0751C29.3754 31.8309 29.3054 31.5847 29.1375 31.4182C29.0022 31.2801 28.8218 31.2038 28.629 31.2031C28.6283 31.2031 28.6269 31.2031 28.6255 31.2031C28.4327 31.2031 28.2516 31.278 28.1149 31.4154L25.8215 33.6991L24.0268 35.5715C23.9422 35.6596 23.7979 35.6617 23.7188 35.5951C23.63 35.5 23.6266 35.3564 23.7105 35.2676L25.5093 33.3911L27.689 31.0068C27.8208 30.8632 27.8888 30.678 27.8798 30.4844C27.8707 30.2922 27.7868 30.1147 27.646 29.9884C27.4712 29.8254 27.2207 29.7657 26.9793 29.8288L26.912 29.8462L22.6706 34.2701C22.6297 34.3124 22.5742 34.3366 22.5124 34.338C22.4465 34.329 22.382 34.3144 22.3328 34.2666C22.2835 34.2194 22.2551 34.1577 22.253 34.0925C22.2509 34.0307 22.2724 33.9724 22.314 33.9287L23.2929 32.9069L26.3723 29.2642C27.0542 28.5829 28.5922 28.2721 29.5509 28.893L29.7202 29.0026L29.8603 28.8583C34.509 24.0938 39.5912 16.4844 40.1552 15.6325L40.1531 15.6304C40.2232 15.5756 41.7556 14.4594 42.9162 15.5174C43.9651 16.7189 42.9557 18.3061 42.9536 18.3068Z"/>
</mask>
<path d="M43.2658 15.1747C42.7539 14.7071 42.1378 14.5129 41.4406 14.5947C40.9294 14.6551 40.4687 14.8583 40.1566 15.0435C39.2499 11.6845 37.4837 8.60512 34.9481 6.08899C31.1749 2.34567 26.176 0.288086 20.8648 0.288086H20.7823C15.4399 0.309591 10.4257 2.41088 6.66367 6.20345C2.90161 9.99603 0.84126 15.0269 0.863459 20.3693C0.885658 25.7116 2.98625 30.7258 6.77882 34.4879C10.552 38.2305 15.5502 40.2888 20.8614 40.2881H20.9446C26.287 40.2666 31.3012 38.166 35.0633 34.3734C38.7518 30.6544 40.7989 25.7442 40.8572 20.5184C40.7636 20.6218 40.6505 20.6904 40.5305 20.7425C41.9443 19.6519 42.9849 18.8923 43.2728 18.6835C43.3914 18.5954 43.7792 17.9211 43.8659 17.1199C43.9436 16.3831 43.7431 15.7178 43.2658 15.1747ZM40.1552 21.1365C39.9491 25.9482 37.9873 30.4469 34.5728 33.8885C30.9398 37.5507 26.0983 39.5791 20.9405 39.5999C15.8048 39.6138 10.9245 37.6318 7.26235 33.9988C3.60019 30.3658 1.57175 25.5243 1.55094 20.3665C1.53013 15.208 3.51903 10.3505 7.15205 6.68836C10.7851 3.02621 15.6266 0.997763 20.7844 0.976952C20.8114 0.976952 20.8371 0.976952 20.8635 0.976952C29.8853 0.976952 37.4864 7.2038 39.5898 15.5958C39.3879 15.8975 39.0438 16.4074 38.5908 17.063C36.9779 8.72027 29.6383 2.39561 20.8336 2.39561C10.8517 2.39561 2.73026 10.517 2.73026 20.499C2.73026 30.4809 10.8517 38.6017 20.8336 38.6017C30.2925 38.6017 38.0712 31.3072 38.8614 22.0494C39.3352 21.6721 39.7903 21.3141 40.2141 20.986C40.194 21.0359 40.1788 21.0893 40.1552 21.1365ZM13.6793 28.9152C13.4531 28.6308 13.1409 28.483 12.8648 28.3533C12.7337 28.2916 12.6012 28.2298 12.4819 28.1507C12.1413 27.926 11.9158 27.5312 11.8936 27.1199C11.8818 26.8951 11.9235 26.6523 11.9672 26.3949C12.0476 25.9274 12.1385 25.3967 11.8777 24.9062C11.5468 24.286 10.8655 24.1001 10.2634 23.9364C9.71882 23.7879 9.24848 23.6603 9.091 23.2822C9.01955 23.1115 9.02232 22.8944 9.02579 22.6648C9.02856 22.4691 9.03065 22.2666 8.99249 22.0564C8.86762 21.3849 8.3945 20.9367 7.93665 20.5031C7.56481 20.1507 7.21379 19.8177 7.091 19.4008C6.99457 19.072 7.04452 18.7022 7.09724 18.3103C7.11736 18.1632 7.13679 18.0161 7.14997 17.8705C7.2235 17.0297 6.95087 16.354 6.42017 16.0633C6.20581 15.9461 5.97966 15.9065 5.77987 15.8725C5.76668 15.8705 5.7535 15.8684 5.74032 15.8656C6.09828 15.679 6.43127 15.5 6.75663 15.3231C6.79964 15.3398 6.8371 15.3647 6.88219 15.3765C6.98278 15.4036 7.08545 15.4209 7.18812 15.439C7.36433 15.4695 7.53151 15.4979 7.67164 15.5749C8.18639 15.8573 8.15864 16.6523 8.13783 16.8888C8.12603 17.0276 8.1073 17.1663 8.08788 17.3058C8.0303 17.7331 7.97064 18.175 8.09759 18.6079C8.25853 19.1573 8.67685 19.5541 9.08198 19.9378C9.49891 20.3325 9.89225 20.7057 9.98659 21.2135C10.0164 21.3738 10.0143 21.5437 10.0116 21.7227C10.0081 21.9939 10.0046 22.2742 10.1163 22.5434C10.3702 23.1518 11.0091 23.3252 11.6266 23.4938C12.1767 23.6436 12.697 23.7851 12.9238 24.2111C13.1021 24.5462 13.0334 24.9478 12.9606 25.3724C12.9134 25.6464 12.8648 25.9294 12.8801 26.2118C12.9113 26.7813 13.2242 27.3287 13.6973 27.6415C13.8402 27.7359 13.9949 27.8087 14.1441 27.8795C14.3903 27.996 14.6241 28.1063 14.776 28.2971C15.1035 28.7085 14.946 29.3606 14.7948 29.8288C14.6082 30.4053 14.3973 31.0588 14.6866 31.6367C14.7469 31.7567 14.8274 31.8677 14.9294 31.9724C14.5104 32.2596 14.1579 32.5052 13.9283 32.6703C13.7958 32.5663 13.7042 32.4601 13.6467 32.345C13.451 31.9544 13.6203 31.4306 13.7896 30.9097C13.972 30.3422 14.16 29.5187 13.6793 28.9152ZM8.45624 23.5486C8.74414 24.2361 9.4552 24.4303 10.083 24.601C10.5957 24.7404 11.0799 24.8729 11.2707 25.2309C11.4212 25.5125 11.3602 25.8677 11.2894 26.2791C11.2408 26.5628 11.1902 26.8555 11.2069 27.158C11.2408 27.7824 11.5835 28.3838 12.1031 28.7258C12.2495 28.8223 12.4105 28.9 12.5714 28.9756C12.8087 29.0879 13.014 29.1844 13.1409 29.3439C13.3498 29.6062 13.3477 30.0363 13.1298 30.7106C13.1236 30.7307 13.1167 30.7522 13.1104 30.7723C12.5187 30.354 11.9512 29.8947 11.4268 29.3745C9.18673 27.1525 7.86589 24.261 7.61545 21.1497C7.94983 21.4716 8.24397 21.7907 8.31611 22.1819C8.34247 22.3255 8.34039 22.4858 8.33831 22.6558C8.33415 22.9326 8.32999 23.2454 8.45624 23.5486ZM15.1187 29.9169C15.2894 29.389 15.4663 28.6259 15.039 28.0883C14.8385 27.8365 14.5589 27.704 14.2877 27.5763C14.1427 27.5076 14.0053 27.4431 13.8825 27.362C13.4961 27.1067 13.2401 26.6585 13.2152 26.193C13.202 25.9482 13.2471 25.6839 13.2908 25.4279C13.3699 24.9659 13.4517 24.4886 13.2193 24.0529C12.9245 23.5 12.3092 23.3321 11.7147 23.1705C11.15 23.0165 10.6165 22.8715 10.425 22.4143C10.3397 22.2097 10.3425 21.9752 10.3459 21.7269C10.348 21.5389 10.3508 21.3453 10.3154 21.1525C10.2016 20.5378 9.74934 20.1091 9.3116 19.695C8.92173 19.3259 8.55406 18.977 8.41809 18.5142C8.31126 18.15 8.36329 17.7616 8.41878 17.3509C8.43821 17.2066 8.45833 17.0616 8.47081 16.918C8.5381 16.1493 8.29877 15.5375 7.83189 15.2815C7.6432 15.1781 7.44064 15.1428 7.24501 15.1095C7.22073 15.1053 7.19714 15.099 7.17216 15.0949C8.45416 14.381 9.59117 13.6797 11.1292 12.7064C11.134 12.7154 11.1396 12.7237 11.1437 12.7328C11.3505 13.1178 11.1971 13.6464 11.0438 14.1722C10.878 14.7439 10.7143 15.5729 11.2131 16.1611C11.4476 16.4386 11.7639 16.5767 12.0435 16.6981C12.1767 16.7557 12.3106 16.8132 12.4327 16.8882C12.7795 17.1025 13.0161 17.4903 13.0515 17.9003C13.0702 18.1251 13.0362 18.3693 12.9994 18.628C12.9328 19.0984 12.8579 19.6311 13.1333 20.1133C13.4823 20.723 14.1697 20.8882 14.776 21.0331C15.3248 21.1643 15.7986 21.2787 15.9672 21.6512C16.0435 21.8198 16.0469 22.0363 16.0511 22.2659C16.0546 22.4615 16.058 22.6641 16.1031 22.8729C16.2474 23.5403 16.7344 23.9738 17.2048 24.3935C17.587 24.7348 17.9477 25.0567 18.083 25.4702C18.1892 25.7955 18.1503 26.1667 18.1094 26.5593C18.0941 26.7071 18.0789 26.8556 18.0698 27.0019C18.0213 27.8448 18.3147 28.5115 18.8537 28.7862C19.0286 28.875 19.2103 28.9138 19.3789 28.9395C18.9259 29.2537 18.2682 29.7005 17.5822 30.1667C17.5072 30.0994 17.4441 30.0259 17.3962 29.9426C17.2075 29.6124 17.2644 29.2093 17.3248 28.7827C17.3636 28.5073 17.4039 28.2229 17.3803 27.9412C17.3324 27.3724 17.0036 26.834 16.5208 26.5364C16.3751 26.4463 16.2183 26.3783 16.0671 26.3124C15.8173 26.2035 15.5808 26.1001 15.4233 25.9142C15.3629 25.8434 15.2582 25.8358 15.1874 25.8947C15.1167 25.9544 15.1083 26.0599 15.168 26.1306C15.3761 26.3762 15.6592 26.4997 15.9339 26.6197C16.0809 26.6835 16.2204 26.7446 16.3459 26.8223C16.7393 27.0651 17.0084 27.5049 17.0473 27.9704C17.0681 28.2146 17.0306 28.4802 16.9946 28.7369C16.9294 29.201 16.8614 29.6804 17.107 30.1098C17.1597 30.2021 17.2284 30.2818 17.3033 30.3575C17.2242 30.4109 17.1458 30.4643 17.0667 30.5177C16.4243 30.9534 15.7736 31.3946 15.2131 31.7782C15.1153 31.6852 15.0383 31.5895 14.9862 31.4861C14.7587 31.0311 14.9391 30.4719 15.1187 29.9169ZM17.4524 31.0873C18.8156 30.1625 20.1038 29.2891 20.3744 29.0755L20.7483 28.7799L20.3501 28.5184C20.2218 28.4338 20.0733 28.3706 19.9193 28.3339C19.8132 28.3089 19.7049 28.2929 19.596 28.2777C19.4337 28.2548 19.2804 28.2333 19.1645 28.1743C18.8253 28.0009 18.731 27.4764 18.7552 27.0429C18.7629 26.9069 18.7774 26.7702 18.792 26.6329C18.8392 26.1847 18.8877 25.7227 18.7358 25.2579C18.5437 24.6682 18.0948 24.268 17.6612 23.8816C17.2554 23.5194 16.8711 23.1767 16.7747 22.7286C16.7441 22.5864 16.7414 22.4254 16.7386 22.2555C16.7344 21.9794 16.7289 21.6658 16.5936 21.3675C16.2856 20.6884 15.5683 20.5163 14.9363 20.3651C14.4195 20.2409 13.9318 20.1244 13.7306 19.7727C13.5717 19.4952 13.6224 19.1386 13.6807 18.7251C13.7209 18.44 13.7625 18.1452 13.7369 17.8434C13.6841 17.2204 13.3234 16.6301 12.7948 16.3033C12.6456 16.2111 12.4819 16.1382 12.3189 16.0675C12.0782 15.9627 11.8707 15.8719 11.7389 15.7172C11.5225 15.4612 11.5121 15.0311 11.7098 14.3505C11.8798 13.7664 12.0907 13.0394 11.7507 12.4067C11.6723 12.2603 11.5676 12.1285 11.4323 12.003L11.2381 11.8233L11.0147 11.9648C10.5894 12.2347 10.203 12.4775 9.82981 12.7113C10.278 12.055 10.7809 11.43 11.3525 10.8542C13.8159 8.37064 17.0993 6.99499 20.5978 6.98111C20.6165 6.98111 20.6345 6.98111 20.6526 6.98111C22.1794 6.98111 23.6599 7.2586 25.057 7.75878C23.9027 8.52534 22.7372 8.26103 21.4295 7.95996C19.9151 7.6124 18.2003 7.21698 16.4999 8.71403C15.4427 9.64431 15.0293 10.9582 14.869 11.8961C14.5284 13.8878 15.0473 16.4088 16.9925 17.2371C17.297 17.3668 17.6307 17.457 17.9533 17.5437C18.8114 17.7754 19.3449 17.953 19.5093 18.4698C19.6266 18.8382 19.4774 19.2614 19.3192 19.7095C19.2748 19.8365 19.2304 19.9627 19.1909 20.0876C18.8038 21.3328 19.0175 22.6523 19.7473 23.5312C20.2773 24.1688 21.0646 24.5122 21.8277 24.5122C22.2898 24.5122 22.7428 24.3866 23.1243 24.1237C23.6786 23.7421 23.9984 23.1684 24.3078 22.6141C24.5513 22.1771 24.7816 21.7636 25.1111 21.4632C25.9602 20.6891 27.2006 20.8098 28.5138 20.9367C28.9432 20.9783 29.3872 21.0213 29.8139 21.0297C31.3962 21.0581 32.792 20.5274 33.7216 19.568C33.7285 19.7199 33.7452 19.8712 33.7459 20.0245C33.7528 21.6402 33.4545 23.2059 32.9009 24.6731C31.8347 25.9766 30.7282 27.2537 29.6418 28.3783C28.4784 27.765 26.8135 28.1313 26.0109 28.9319L22.928 32.5788L22.4993 33.0255C21.9082 33.1101 21.3102 33.1705 20.7025 33.1733C20.6838 33.1733 20.6657 33.1733 20.6477 33.1733C18.9536 33.1733 17.3178 32.8292 15.791 32.2166C16.305 31.8663 16.8808 31.475 17.4524 31.0873ZM31.6737 13.5035C31.9575 13.9974 32.3855 14.336 32.8003 14.6634C33.0972 14.8979 33.3782 15.1199 33.5953 15.3876C34.3452 16.311 34.2502 17.8954 33.3844 18.9194C32.6096 19.8351 31.2762 20.3575 29.8277 20.3353C29.4275 20.3276 29.0161 20.2874 28.5804 20.2458C27.1742 20.1091 25.7195 19.9683 24.6436 20.9506C24.2308 21.3273 23.9616 21.8094 23.7015 22.2763C23.4184 22.7834 23.152 23.2628 22.7303 23.5527C22.0192 24.0425 20.8968 23.8302 20.2807 23.0886C19.7077 22.3991 19.5398 21.3023 19.8527 20.2936C19.8888 20.1771 19.9304 20.0592 19.972 19.9405C20.1524 19.4293 20.357 18.8493 20.1697 18.2596C19.8784 17.3453 18.9509 17.0949 18.133 16.8743C17.8194 16.7896 17.5232 16.7099 17.263 16.5989C15.7362 15.9482 15.2464 13.7997 15.5516 12.0127C15.6932 11.1851 16.0518 10.0307 16.9564 9.23432C18.3903 7.97314 19.7903 8.29502 21.2728 8.63564C22.8961 9.00817 24.7351 9.43134 26.4576 7.41677C27.1583 6.59749 28.8954 6.53505 30.1739 7.28358C30.8995 7.70744 32.0081 8.7175 31.2776 10.7154C30.9849 11.5174 31.1319 12.56 31.6737 13.5035ZM34.1392 20.0224C34.1378 19.7158 34.1212 19.4112 34.0976 19.1088C34.9994 17.8309 35.0383 16.0654 34.1337 14.9513C33.868 14.6232 33.5433 14.3672 33.2297 14.1195C32.8503 13.8198 32.4916 13.5368 32.2752 13.1587C31.8347 12.3908 31.7049 11.5659 31.929 10.9534C32.579 9.17466 32.0539 7.57841 30.5235 6.6842C28.9502 5.76363 26.8461 5.89336 25.9297 6.96585C25.7625 7.16079 25.5967 7.32659 25.4302 7.47158C23.9221 6.89926 22.312 6.58777 20.6505 6.58777H20.5943C16.9911 6.60234 13.6092 8.01892 11.0716 10.5774C10.2835 11.3717 9.61545 12.2506 9.05909 13.1878C7.6654 14.0432 6.47497 14.7217 4.81212 15.5694L4.43196 15.7629L4.70182 16.0938C4.84889 16.2735 5.08129 16.4164 5.33796 16.4844C5.44341 16.5129 5.55232 16.5323 5.66124 16.551C5.82218 16.5794 5.9748 16.6051 6.08857 16.6676C6.42295 16.8507 6.50134 17.3786 6.46387 17.8115C6.45208 17.9468 6.43335 18.0834 6.41531 18.2194C6.35496 18.6655 6.29253 19.1268 6.42988 19.5958C6.56724 20.0626 6.86554 20.4164 7.19159 20.7411C7.35461 24.114 8.73651 27.2614 11.1493 29.6547C11.7202 30.2215 12.3446 30.7113 12.9932 31.158C12.8621 31.6374 12.7885 32.1674 13.0313 32.653C13.1722 32.9346 13.4018 33.1677 13.7535 33.3856L13.9568 33.5118L14.1455 33.3654C14.3251 33.226 14.7913 32.9006 15.3935 32.4879C17.0355 33.1858 18.81 33.5673 20.647 33.5673H20.7032C21.1638 33.5652 21.6175 33.5264 22.0685 33.4743L21.9582 33.5895C21.8236 33.7296 21.7535 33.9156 21.7604 34.1112C21.7674 34.3054 21.8492 34.4872 21.9914 34.6225C22.1357 34.7605 22.314 34.8389 22.5221 34.8306C22.7143 34.8264 22.8933 34.7487 23.0244 34.6114L24.6262 32.9402C24.9377 32.8431 25.2457 32.7383 25.5489 32.619L25.1493 33.056L23.3546 34.9284C23.0896 35.2052 23.0917 35.6464 23.3782 35.9502C23.6751 36.2055 24.1149 36.1889 24.3806 35.9121L26.1711 34.0439L28.4618 31.7643C28.5055 31.7206 28.5631 31.6956 28.6248 31.6956C28.6748 31.7033 28.7428 31.7199 28.7878 31.7657C28.8343 31.8115 28.8468 31.867 28.8468 31.9121L24.7101 36.2277C24.5756 36.3679 24.5062 36.5531 24.5131 36.7501C24.5201 36.9437 24.6012 37.1254 24.7428 37.26C24.8877 37.3994 25.0744 37.4681 25.2596 37.4681C25.449 37.4681 25.637 37.3953 25.7771 37.2496L26.7351 36.2499L30.2738 32.9901C31.0265 32.1688 31.322 30.49 30.6588 29.3536C32.9953 26.8958 36.0241 24.3193 38.5388 22.3047C37.6307 31.278 30.0421 38.3068 20.8336 38.3068C11.014 38.3068 3.0251 30.3179 3.0251 20.499C3.0251 10.68 11.014 2.69044 20.8336 2.69044C29.5933 2.69044 36.8836 9.05257 38.3577 17.396C37.2159 19.0373 35.5003 21.4223 33.5912 23.8164C33.9457 22.5975 34.1441 21.3273 34.1392 20.0224ZM25.2339 32.3061L27.1611 30.2957C27.2124 30.2936 27.263 30.3047 27.313 30.3512C27.3581 30.3921 27.3851 30.4476 27.3872 30.508C27.39 30.5697 27.3685 30.6287 27.3255 30.6752L26.1947 31.9121C25.8798 32.0557 25.56 32.1882 25.2339 32.3061ZM42.9536 18.3068C42.1281 18.9048 34.7518 24.2902 30.1697 29.1559L30.0317 29.3023L30.1482 29.4667C30.8087 30.3977 30.5638 31.9468 29.9269 32.6433L26.3917 35.8989L25.4233 36.9097C25.3352 37.0012 25.1833 36.9998 25.0841 36.9055C25.0362 36.8597 25.0084 36.798 25.0057 36.7321C25.0036 36.6696 25.0251 36.6114 25.0667 36.5677L29.3074 32.1431L29.322 32.0751C29.3754 31.8309 29.3054 31.5847 29.1375 31.4182C29.0022 31.2801 28.8218 31.2038 28.629 31.2031C28.6283 31.2031 28.6269 31.2031 28.6255 31.2031C28.4327 31.2031 28.2516 31.278 28.1149 31.4154L25.8215 33.6991L24.0268 35.5715C23.9422 35.6596 23.7979 35.6617 23.7188 35.5951C23.63 35.5 23.6266 35.3564 23.7105 35.2676L25.5093 33.3911L27.689 31.0068C27.8208 30.8632 27.8888 30.678 27.8798 30.4844C27.8707 30.2922 27.7868 30.1147 27.646 29.9884C27.4712 29.8254 27.2207 29.7657 26.9793 29.8288L26.912 29.8462L22.6706 34.2701C22.6297 34.3124 22.5742 34.3366 22.5124 34.338C22.4465 34.329 22.382 34.3144 22.3328 34.2666C22.2835 34.2194 22.2551 34.1577 22.253 34.0925C22.2509 34.0307 22.2724 33.9724 22.314 33.9287L23.2929 32.9069L26.3723 29.2642C27.0542 28.5829 28.5922 28.2721 29.5509 28.893L29.7202 29.0026L29.8603 28.8583C34.509 24.0938 39.5912 16.4844 40.1552 15.6325L40.1531 15.6304C40.2232 15.5756 41.7556 14.4594 42.9162 15.5174C43.9651 16.7189 42.9557 18.3061 42.9536 18.3068Z" fill="white" stroke="white" stroke-width="4" mask="url(#path-6-inside-3_174_1543)"/>
</svg>
