<svg width="21" height="21" viewBox="0 0 21 21" fill="none" xmlns="http://www.w3.org/2000/svg">
<g clip-path="url(#clip0_612_3828)">
<path d="M10.5961 5.64914V5.55824C11.1416 5.37641 11.5052 4.87641 11.5052 4.28551C11.5052 3.51277 10.9143 2.92188 10.1416 2.92188C9.36885 2.92188 8.77795 3.51277 8.77795 4.28551C8.77795 4.87641 9.14159 5.37641 9.68706 5.55824V6.10371C9.68706 6.37645 9.86889 6.55824 10.1416 6.55824C14.4143 6.55824 17.8689 10.0128 17.8689 14.2855C17.8689 14.5582 18.0507 14.74 18.3234 14.74C18.5961 14.74 18.7779 14.5582 18.7779 14.2855C18.778 9.69461 15.1416 5.87641 10.5961 5.64914ZM10.1416 4.74004C9.86885 4.74004 9.68706 4.5582 9.68706 4.28551C9.68706 4.01277 9.86889 3.83098 10.1416 3.83098C10.4143 3.83098 10.5961 4.01281 10.5961 4.28551C10.5961 4.55824 10.4143 4.74004 10.1416 4.74004Z" fill="black" fill-opacity="0.5"/>
<path d="M9.23249 7.96733C9.18702 7.74006 8.91432 7.55823 8.68702 7.6037C7.36885 7.87643 6.23249 8.55823 5.27792 9.5128C5.09608 9.69463 5.09608 9.96733 5.27792 10.1492C5.36882 10.2401 5.45975 10.2855 5.59608 10.2855C5.73241 10.2855 5.82335 10.2401 5.91425 10.1492C6.73241 9.331 7.73241 8.74006 8.86878 8.5128C9.09612 8.46733 9.27796 8.19463 9.23249 7.96733Z" fill="black" fill-opacity="0.5"/>
<path d="M19.9598 16.5586C19.6871 16.0131 19.0961 15.6495 18.5052 15.6495H3.77797C3.50523 15.6495 3.32344 15.8313 3.32344 16.104C3.32344 16.3767 3.50527 16.5585 3.77797 16.5585H18.5052C18.778 16.5585 19.0507 16.6949 19.1416 16.9676C19.1871 17.0585 19.2325 17.1949 19.2325 17.2858V17.4676H1.0507V17.2858C1.0507 17.1949 1.09617 17.0585 1.1416 16.9676C1.2325 16.6949 1.50523 16.5585 1.77797 16.5585H1.9598C2.23254 16.5585 2.41434 16.3767 2.41434 16.104V14.2858C2.41434 10.6494 4.86887 7.55854 8.41434 6.74034C8.6416 6.69487 8.82344 6.42217 8.77797 6.19487C8.7325 5.9676 8.45977 5.78577 8.2325 5.83123C4.27797 6.74037 1.50523 10.2404 1.50523 14.2858V15.6949C1.00523 15.7404 0.550703 16.104 0.323398 16.5586C0.18707 16.7858 0.141602 17.0586 0.141602 17.2858V17.9222C0.141602 18.1949 0.323437 18.3767 0.596133 18.3767H19.687C19.9598 18.3767 20.1416 18.1949 20.1416 17.9222V17.2858C20.1416 17.0586 20.0961 16.7858 19.9598 16.5586Z" fill="black" fill-opacity="0.5"/>
</g>
<defs>
<clipPath id="clip0_612_3828">
<rect width="20" height="20" fill="white" transform="translate(0.141602 0.649414)"/>
</clipPath>
</defs>
</svg>
