<svg width="16" height="19" viewBox="0 0 16 19" fill="none" xmlns="http://www.w3.org/2000/svg">
<path d="M9.80208 1.64111V5.08323C9.80208 5.54994 9.80208 5.7833 9.89291 5.96156C9.97281 6.11836 10.1003 6.24584 10.2571 6.32574C10.4354 6.41656 10.6687 6.41656 11.1354 6.41656H14.5775M11.4687 10.5832H4.80208M11.4687 13.9165H4.80208M6.46875 7.24984H4.80208M9.80208 1.4165H5.46875C4.06862 1.4165 3.36855 1.4165 2.83377 1.68899C2.36337 1.92867 1.98092 2.31112 1.74123 2.78153C1.46875 3.31631 1.46875 4.01637 1.46875 5.4165V14.0832C1.46875 15.4833 1.46875 16.1834 1.74123 16.7181C1.98092 17.1886 2.36337 17.571 2.83377 17.8107C3.36855 18.0832 4.06862 18.0832 5.46875 18.0832H10.8021C12.2022 18.0832 12.9023 18.0832 13.4371 17.8107C13.9075 17.571 14.2899 17.1886 14.5296 16.7181C14.8021 16.1834 14.8021 15.4833 14.8021 14.0832V6.4165L9.80208 1.4165Z" stroke="#2E70E8" stroke-width="1.25" stroke-linecap="round" stroke-linejoin="round"/>
</svg>
