<svg width="20" height="21" viewBox="0 0 20 21" fill="none" xmlns="http://www.w3.org/2000/svg">
<path d="M9.16732 10.6829C9.16732 11.1432 9.54041 11.5163 10.0007 11.5163C10.4609 11.5163 10.834 11.1432 10.834 10.6829C10.834 10.2227 10.4609 9.84961 10.0007 9.84961C9.54041 9.84961 9.16732 10.2227 9.16732 10.6829Z" stroke="#9CA3AF" stroke-width="2" stroke-linecap="round" stroke-linejoin="round"/>
<path d="M3.33333 10.6829C3.33333 11.1432 3.70643 11.5163 4.16667 11.5163C4.6269 11.5163 5 11.1432 5 10.6829C5 10.2227 4.6269 9.84961 4.16667 9.84961C3.70643 9.84961 3.33333 10.2227 3.33333 10.6829Z" stroke="#9CA3AF" stroke-width="2" stroke-linecap="round" stroke-linejoin="round"/>
<path d="M15.0003 10.6829C15.0003 11.1432 15.3734 11.5163 15.8337 11.5163C16.2939 11.5163 16.667 11.1432 16.667 10.6829C16.667 10.2227 16.2939 9.84961 15.8337 9.84961C15.3734 9.84961 15.0003 10.2227 15.0003 10.6829Z" stroke="#9CA3AF" stroke-width="2" stroke-linecap="round" stroke-linejoin="round"/>
</svg>
