<svg width="30" height="26" viewBox="0 0 30 26" fill="none" xmlns="http://www.w3.org/2000/svg">
<path d="M29.2929 12.9999L29.9405 11.057C30.142 10.4524 29.8153 9.79898 29.2108 9.59744C28.6063 9.39599 27.9528 9.72267 27.7513 10.3272L27.245 11.846H25.3314C24.7465 5.38618 19.3017 0.307617 12.6922 0.307617C5.69371 0.307617 0 6.00133 0 12.9998C0 19.9983 5.69371 25.692 12.6922 25.692C19.3017 25.692 24.7464 20.6134 25.3314 14.1536H27.245L27.7513 15.6724C27.9125 16.1559 28.3626 16.4616 28.8457 16.4616C28.9666 16.4616 29.0897 16.4424 29.2108 16.4021C29.8152 16.2006 30.1419 15.5472 29.9405 14.9426L29.2929 12.9999ZM12.6922 23.3844C6.96616 23.3844 2.30767 18.726 2.30767 12.9999C2.30767 7.27378 6.96616 2.61536 12.6922 2.61536C18.0282 2.61536 22.4364 6.66109 23.0122 11.846H20.6863C20.1246 7.93715 16.7541 4.92303 12.6922 4.92303C8.23868 4.92303 4.61534 8.5463 4.61534 12.9999C4.61534 17.4534 8.23868 21.0767 12.6922 21.0767C16.7541 21.0767 20.1246 18.0626 20.6863 14.1537H23.0122C22.4364 19.3387 18.0282 23.3844 12.6922 23.3844ZM15.9552 11.846C15.4789 10.5031 14.1964 9.53837 12.6922 9.53837C10.7835 9.53837 9.23067 11.0912 9.23067 12.9999C9.23067 14.9085 10.7836 16.4614 12.6922 16.4614C14.1964 16.4614 15.4789 15.4966 15.9552 14.1537H18.3452C17.8092 16.7838 15.4782 18.769 12.6922 18.769C9.51106 18.769 6.92301 16.181 6.92301 12.9999C6.92301 9.81875 9.51106 7.2307 12.6922 7.2307C15.4782 7.2307 17.8092 9.21591 18.3452 11.846H15.9552Z" fill="white"/>
</svg>
