
<svg width="31" height="31" viewBox="0 0 31 31" fill="none" xmlns="http://www.w3.org/2000/svg">
<path d="M26.8343 8.13843L14.9093 20.0634C13.7218 21.2509 10.1967 21.8009 9.40921 21.0134C8.62171 20.2259 9.15922 16.7009 10.3467 15.5134L22.2843 3.57589C22.5786 3.25472 22.935 2.99654 23.332 2.81692C23.7289 2.63729 24.1581 2.53992 24.5938 2.53074C25.0293 2.52158 25.4623 2.60076 25.8664 2.76352C26.2705 2.92628 26.6375 3.16928 26.9451 3.47778C27.2528 3.78628 27.4948 4.15391 27.6564 4.55848C27.818 4.96307 27.8961 5.39619 27.8858 5.83175C27.8754 6.26732 27.7768 6.69631 27.5961 7.09274C27.4154 7.48918 27.1563 7.84492 26.8343 8.13843Z" stroke="white" stroke-linecap="round" stroke-linejoin="round"/>
<path d="M13.9844 5.13843H7.73438C6.40829 5.13843 5.1366 5.6652 4.19891 6.60289C3.26124 7.54058 2.73438 8.81234 2.73438 10.1384V22.6384C2.73438 23.9646 3.26124 25.2363 4.19891 26.1739C5.1366 27.1117 6.40829 27.6384 7.73438 27.6384H21.4844C24.2469 27.6384 25.2344 25.3884 25.2344 22.6384V16.3884" stroke="white" stroke-linecap="round" stroke-linejoin="round"/>
</svg>
