<svg width="21" height="21" viewBox="0 0 21 21" fill="none" xmlns="http://www.w3.org/2000/svg">
<g clip-path="url(#clip0_1375_5214)">
<path d="M18.1804 3.09277H3.73371C2.20027 3.09277 0.957031 4.33602 0.957031 5.86945V15.0095C0.957031 16.5429 2.20027 17.7861 3.73371 17.7861H18.1804C19.7137 17.7861 20.957 16.5429 20.957 15.0095V5.86945C20.957 4.33602 19.7137 3.09277 18.1804 3.09277ZM7.91664 13.0066L4.02836 16.3238C3.7541 16.5579 3.3418 16.5254 3.10777 16.2508C2.87371 15.9766 2.90625 15.5643 3.18082 15.3302L7.0691 12.013C7.34332 11.779 7.75559 11.8115 7.98965 12.0861C8.22371 12.3603 8.19117 12.7726 7.91664 13.0066ZM10.957 11.7455C10.437 11.7443 9.93281 11.5714 9.53867 11.2306L9.53898 11.2309L9.53773 11.23C9.53805 11.2303 9.5384 11.2303 9.53867 11.2306L3.57273 6.0525C3.30008 5.81586 3.27105 5.40359 3.50734 5.13129C3.74395 4.85863 4.15625 4.82961 4.42852 5.0659L10.3961 10.2453C10.5237 10.3588 10.7338 10.4407 10.957 10.4395C11.1799 10.4401 11.3865 10.3604 11.5211 10.243L11.524 10.2405L17.4855 5.06594C17.7578 4.82965 18.1701 4.85867 18.4067 5.13133C18.643 5.40359 18.614 5.8159 18.3413 6.05254L12.3738 11.2322C11.9809 11.5695 11.4774 11.7449 10.957 11.7455ZM18.8066 16.2508C18.5725 16.5254 18.1602 16.5579 17.886 16.3238L13.9977 13.0066C13.7232 12.7726 13.6907 12.3603 13.9247 12.0861C14.1587 11.8115 14.5711 11.779 14.8453 12.013L18.7336 15.3302C19.0081 15.5643 19.0406 15.9766 18.8066 16.2508Z" fill="black"/>
</g>
<defs>
<clipPath id="clip0_1375_5214">
<rect width="20" height="20" fill="white" transform="translate(0.957031 0.439453)"/>
</clipPath>
</defs>
</svg>
