<svg width="60" height="61" viewBox="0 0 60 61" fill="none" xmlns="http://www.w3.org/2000/svg">
<path fill-rule="evenodd" clip-rule="evenodd" d="M30 55.4014C18.2149 55.4014 12.3223 55.4014 8.66117 51.7401C5 48.0791 5 42.1864 5 30.4014C5 18.6162 5 12.7237 8.66117 9.06254C12.3223 5.40137 18.2149 5.40137 30 5.40137L30.6445 5.40139C29.6335 6.81762 29.1998 8.41487 28.9895 9.97954C28.7495 11.7634 28.7498 13.9674 28.75 16.4203V16.8824C28.7498 19.3354 28.7495 21.5393 28.9895 23.3232C29.2513 25.2708 29.8592 27.2689 31.4957 28.9056C33.1325 30.5421 35.1305 31.1501 37.0782 31.4119C38.862 31.6519 41.066 31.6516 43.519 31.6514H43.981C46.434 31.6516 48.638 31.6519 50.4217 31.4119C51.9865 31.2016 53.5837 30.7679 55 29.7569V30.4014C55 42.1864 55 48.0791 51.3387 51.7401C47.6777 55.4014 41.785 55.4014 30 55.4014ZM15.625 35.4014C15.625 34.3659 16.4645 33.5264 17.5 33.5264H27.5C28.5355 33.5264 29.375 34.3659 29.375 35.4014C29.375 36.4369 28.5355 37.2764 27.5 37.2764H17.5C16.4645 37.2764 15.625 36.4369 15.625 35.4014ZM15.625 44.1514C15.625 43.1159 16.4645 42.2764 17.5 42.2764H32.5C33.5355 42.2764 34.375 43.1159 34.375 44.1514C34.375 45.1869 33.5355 46.0264 32.5 46.0264H17.5C16.4645 46.0264 15.625 45.1869 15.625 44.1514Z" fill="black"/>
<path fill-rule="evenodd" clip-rule="evenodd" d="M43.75 27.9014C38.4468 27.9014 35.795 27.9014 34.1475 26.2539C32.5 24.6063 32.5 21.9547 32.5 16.6514C32.5 11.3481 32.5 8.69642 34.1475 7.04889C35.795 5.40137 38.4468 5.40137 43.75 5.40137C49.0532 5.40137 51.705 5.40137 53.3525 7.04889C55 8.69642 55 11.3481 55 16.6514C55 21.9547 55 24.6063 53.3525 26.2539C51.705 27.9014 49.0532 27.9014 43.75 27.9014ZM37.4242 10.3255C38.1565 9.59332 39.3435 9.59332 40.0758 10.3255L43.75 13.9997L47.4242 10.3255C48.1565 9.59332 49.3435 9.59332 50.0758 10.3255C50.808 11.0578 50.808 12.245 50.0758 12.9772L46.4017 16.6514L50.0758 20.3255C50.808 21.0578 50.808 22.245 50.0758 22.9772C49.3435 23.7094 48.1565 23.7094 47.4242 22.9772L43.75 19.303L40.0758 22.9772C39.3435 23.7094 38.1565 23.7094 37.4242 22.9772C36.692 22.245 36.692 21.0578 37.4242 20.3255L41.0983 16.6514L37.4242 12.9772C36.692 12.245 36.692 11.0578 37.4242 10.3255Z" fill="black"/>
</svg>
