<svg width="20" height="20" viewBox="0 0 20 20" fill="none" xmlns="http://www.w3.org/2000/svg">
<path d="M12.2384 9.59375L5.32031 8.375V17.3806C5.32039 17.4785 5.33975 17.5753 5.37726 17.6657C5.41478 17.756 5.46972 17.8381 5.53896 17.9072C5.6082 17.9764 5.69037 18.0312 5.78079 18.0685C5.87121 18.1059 5.9681 18.1251 6.06594 18.125H18.0034C18.1014 18.1252 18.1984 18.1062 18.289 18.0689C18.3795 18.0316 18.4619 17.9768 18.5312 17.9077C18.6006 17.8385 18.6557 17.7564 18.6932 17.666C18.7308 17.5755 18.7502 17.4786 18.7503 17.3806V14.0625L12.2384 9.59375Z" fill="#185C37"/>
<path d="M12.2384 1.875H6.06594C5.9681 1.87492 5.87121 1.89411 5.78079 1.93147C5.69037 1.96883 5.6082 2.02364 5.53896 2.09276C5.46972 2.16189 5.41478 2.24397 5.37726 2.33432C5.33975 2.42468 5.32039 2.52154 5.32031 2.61938V5.9375L12.2384 10L15.9016 11.2188L18.7503 10V5.9375L12.2384 1.875Z" fill="#21A366"/>
<path d="M5.32031 5.9375H12.2384V10H5.32031V5.9375Z" fill="#107C41"/>
<path opacity="0.1" d="M10.2716 5.125H5.32031V15.2812H10.2716C10.4689 15.2803 10.6578 15.2016 10.7975 15.0623C10.9372 14.9229 11.0163 14.7342 11.0178 14.5369V5.86937C11.0163 5.67209 10.9372 5.48333 10.7975 5.34399C10.6578 5.20466 10.4689 5.12598 10.2716 5.125Z" fill="black"/>
<path opacity="0.2" d="M9.86469 5.53125H5.32031V15.6875H9.86469C10.062 15.6865 10.2509 15.6078 10.3906 15.4685C10.5303 15.3292 10.6095 15.1404 10.6109 14.9431V6.27562C10.6095 6.07834 10.5303 5.88958 10.3906 5.75024C10.2509 5.61091 10.062 5.53223 9.86469 5.53125Z" fill="black"/>
<path opacity="0.2" d="M9.86469 5.53125H5.32031V14.875H9.86469C10.062 14.874 10.2509 14.7953 10.3906 14.656C10.5303 14.5167 10.6095 14.3279 10.6109 14.1306V6.27562C10.6095 6.07834 10.5303 5.88958 10.3906 5.75024C10.2509 5.61091 10.062 5.53223 9.86469 5.53125Z" fill="black"/>
<path opacity="0.2" d="M9.45781 5.53125H5.32031V14.875H9.45781C9.6551 14.874 9.84406 14.7953 9.98375 14.656C10.1234 14.5167 10.2026 14.3279 10.2041 14.1306V6.27562C10.2026 6.07834 10.1234 5.88958 9.98375 5.75024C9.84406 5.61091 9.6551 5.53223 9.45781 5.53125Z" fill="black"/>
<path d="M1.99625 5.53125H9.4575C9.65514 5.53109 9.84477 5.6094 9.9847 5.74898C10.1246 5.88856 10.2034 6.07798 10.2037 6.27563V13.7244C10.2034 13.922 10.1246 14.1114 9.9847 14.251C9.84477 14.3906 9.65514 14.4689 9.4575 14.4688H1.99625C1.89836 14.4689 1.8014 14.4498 1.71091 14.4125C1.62042 14.3751 1.53817 14.3203 1.46887 14.2512C1.39956 14.1821 1.34456 14.1 1.30701 14.0096C1.26945 13.9192 1.25008 13.8223 1.25 13.7244V6.27563C1.25008 6.17774 1.26945 6.08083 1.30701 5.99043C1.34456 5.90003 1.39956 5.81792 1.46887 5.74879C1.53817 5.67966 1.62042 5.62487 1.71091 5.58754C1.8014 5.55021 1.89836 5.53109 1.99625 5.53125Z" fill="url(#paint0_linear_4103_9264)"/>
<path d="M3.5625 12.4213L5.13188 9.99383L3.69437 7.58008H4.84875L5.63312 9.1257C5.70562 9.27195 5.75813 9.3807 5.78188 9.4532H5.7925C5.84375 9.3357 5.89812 9.22258 5.955 9.11195L6.79375 7.58258H7.85625L6.38188 9.98258L7.89375 12.4232H6.76313L5.85688 10.7288C5.8148 10.656 5.77904 10.5797 5.75 10.5007H5.735C5.70857 10.5776 5.67334 10.6512 5.63 10.7201L4.69688 12.4213H3.5625Z" fill="white"/>
<path d="M18.0039 1.875H12.2383V5.9375H18.7502V2.61938C18.7501 2.52149 18.7307 2.42458 18.6931 2.33418C18.6556 2.24378 18.6006 2.16167 18.5313 2.09254C18.462 2.02341 18.3797 1.96862 18.2892 1.93129C18.1988 1.89396 18.1018 1.87484 18.0039 1.875Z" fill="#33C481"/>
<path d="M12.2383 10H18.7502V14.0625H12.2383V10Z" fill="#107C41"/>
<defs>
<linearGradient id="paint0_linear_4103_9264" x1="2.80875" y1="4.94625" x2="8.645" y2="15.0538" gradientUnits="userSpaceOnUse">
<stop stop-color="#18884F"/>
<stop offset="0.5" stop-color="#117E43"/>
<stop offset="1" stop-color="#0B6631"/>
</linearGradient>
</defs>
</svg>
