<svg width="18" height="18" viewBox="0 0 18 18" fill="none" xmlns="http://www.w3.org/2000/svg">
<path d="M6.68379 2.52344H4.88379C3.76368 2.52344 3.20321 2.52344 2.77539 2.74143C2.39906 2.93317 2.09332 3.23891 1.90158 3.61524C1.68359 4.04306 1.68359 4.60353 1.68359 5.72364V13.3236C1.68359 14.4437 1.68359 15.0035 1.90158 15.4313C2.09332 15.8076 2.39906 16.1139 2.77539 16.3056C3.20279 16.5234 3.76258 16.5234 4.8805 16.5234H12.4867C13.6046 16.5234 14.1636 16.5234 14.591 16.3056C14.9673 16.1139 15.2741 15.8073 15.4658 15.431C15.6836 15.0036 15.6836 14.4444 15.6836 13.3265V11.5234M16.6836 6.52344V1.52344M16.6836 1.52344H11.6836M16.6836 1.52344L9.68359 8.52344" stroke="#01a809" stroke-width="1.5" stroke-linecap="round" stroke-linejoin="round"/>
</svg>
