<svg width="38" height="38" viewBox="0 0 38 38" fill="none" xmlns="http://www.w3.org/2000/svg">
<path fill-rule="evenodd" clip-rule="evenodd" d="M32.3327 0.666504C35.0942 0.666504 37.3327 2.90509 37.3327 5.6665V32.3332C37.3327 35.0947 35.0942 37.3332 32.3327 37.3332H5.66602C2.9046 37.3332 0.666016 35.0947 0.666016 32.3332V5.6665C0.666016 2.90509 2.9046 0.666504 5.66602 0.666504H32.3327ZM32.3327 3.99984C33.2532 3.99984 33.9994 4.74604 33.9994 5.6665V32.3332C33.9994 33.2537 33.2532 33.9998 32.3327 33.9998H23.9993V22.333H27.4597C28.177 22.333 28.8139 21.874 29.0409 21.1933L29.7792 18.9783C30.049 18.1688 29.4465 17.333 28.5933 17.333H23.9993V13.9997C23.9993 13.1664 24.8327 12.333 25.666 12.333H28.9993C29.9198 12.333 30.666 11.5868 30.666 10.6664V9.52305C30.666 8.98469 30.3222 8.502 29.8015 8.36462C27.6169 7.78809 25.666 7.78809 25.666 7.78809C21.4993 7.78809 18.9993 10.6664 18.9993 13.1664V17.333H15.666C14.7455 17.333 13.9993 18.0792 13.9993 18.9997V20.6663C13.9993 21.5868 14.7455 22.333 15.666 22.333H18.9993V33.9998H5.66602C4.74555 33.9998 3.99935 33.2537 3.99935 32.3332V5.6665C3.99935 4.74604 4.74555 3.99984 5.66602 3.99984H32.3327Z" fill="#0F0F0F"/>
</svg>
