<svg width="26" height="26" viewBox="0 0 26 26" fill="none" xmlns="http://www.w3.org/2000/svg">
<g clip-path="url(#clip0_59_599)">
<path d="M6.14193 3.625H20.7253C21.2778 3.625 21.8077 3.84449 22.1984 4.23519C22.5891 4.62589 22.8086 5.1558 22.8086 5.70833V20.2917C22.8086 20.8442 22.5891 21.3741 22.1984 21.7648C21.8077 22.1555 21.2778 22.375 20.7253 22.375H6.14193C5.58939 22.375 5.05949 22.1555 4.66879 21.7648C4.27809 21.3741 4.05859 20.8442 4.05859 20.2917V5.70833C4.05859 5.1558 4.27809 4.62589 4.66879 4.23519C5.05949 3.84449 5.58939 3.625 6.14193 3.625ZM19.6836 5.70833H17.0794C16.1125 5.70833 15.1852 6.09245 14.5014 6.77617C13.8177 7.4599 13.4336 8.38723 13.4336 9.35417V11.9583H11.3503V15.0833H13.4336V22.375H16.5586V15.0833H19.6836V11.9583H16.5586V9.875C16.5586 9.59873 16.6683 9.33378 16.8637 9.13843C17.059 8.94308 17.324 8.83333 17.6003 8.83333H19.6836V5.70833Z" fill="#01a809"/>
</g>
<defs>
<clipPath id="clip0_59_599">
<rect width="25" height="25" fill="white" transform="translate(0.933594 0.5)"/>
</clipPath>
</defs>
</svg>
