<svg width="30" height="32" viewBox="0 0 30 32" fill="none" xmlns="http://www.w3.org/2000/svg">
<g clip-path="url(#clip0_1220_1540)">
<rect x="0.887695" y="0.808594" width="29" height="31" rx="2" fill="white"/>
<path d="M3.47953 0.808594H26.9749C27.8651 0.808594 28.7188 1.17149 29.3483 1.81745C29.9778 2.46341 30.3314 3.33951 30.3314 4.25304V28.3641C30.3314 29.2777 29.9778 30.1538 29.3483 30.7997C28.7188 31.4457 27.8651 31.8086 26.9749 31.8086H3.47953C2.58933 31.8086 1.7356 31.4457 1.10614 30.7997C0.476675 30.1538 0.123047 29.2777 0.123047 28.3641V4.25304C0.123047 3.33951 0.476675 2.46341 1.10614 1.81745C1.7356 1.17149 2.58933 0.808594 3.47953 0.808594ZM25.2967 4.25304H21.1011C19.5432 4.25304 18.0492 4.88811 16.9476 6.01853C15.8461 7.14896 15.2272 8.68215 15.2272 10.2808V14.5864H11.8707V19.753H15.2272V31.8086H20.2619V19.753H25.2967V14.5864H20.2619V11.1419C20.2619 10.6852 20.4388 10.2471 20.7535 9.92413C21.0682 9.60115 21.4951 9.4197 21.9402 9.4197H25.2967V4.25304Z" fill="#0045CC"/>
</g>
<defs>
<clipPath id="clip0_1220_1540">
<rect x="0.887695" y="0.808594" width="29" height="31" rx="2" fill="white"/>
</clipPath>
</defs>
</svg>
