<svg width="136" height="128" viewBox="0 0 136 128" fill="none" xmlns="http://www.w3.org/2000/svg">
<path d="M81.2029 13.7532C81.2029 18.8349 80.6453 24.0344 78.9169 27.9288C78.0581 29.8639 76.9298 31.4318 75.4797 32.5153C74.0417 33.5898 72.2299 34.2316 69.9143 34.2316C64.8441 34.2316 61.6137 31.5112 59.6609 27.582C57.6814 23.5992 57.0568 18.4207 57.3337 13.8132C57.6056 9.2867 59.053 6.19869 61.1998 4.23578C63.3523 2.2676 66.3377 1.31177 69.9143 1.31177C76.7427 1.31177 81.2029 6.75536 81.2029 13.7532Z" stroke="white" stroke-width="2"/>
<path d="M40.1329 126.02C40.1329 126.02 40.6586 114.35 39.1889 107.1C38.3402 102.912 36.7174 100.833 36.0977 96.6056C35.4575 92.2392 35.6568 89.6962 36.0977 85.3053C36.7862 78.4478 38.5568 74.8244 40.5788 68.2358C41.9996 63.6064 44.5572 56.4912 44.5572 56.4912" stroke="white" stroke-width="2" stroke-linecap="round"/>
<path d="M58.103 34.1589C58.103 34.1589 52.3269 34.8094 49.8642 36.1876C47.5632 37.4753 43.1862 39.0007 40.8661 41.2839C38.9643 43.1553 28.3012 50.51 25.2199 64.1376C21.4427 80.8434 22.4598 103.235 22.4598 103.235" stroke="white" stroke-width="2"/>
<line x1="57.4975" y1="34.2317" x2="81.5717" y2="34.3586" stroke="white" stroke-width="2"/>
<path d="M69.1465 108.073L69.1465 125.967" stroke="white" stroke-width="2" stroke-linecap="round"/>
<path d="M22.529 102.403L22.4628 106.007L22.529 108.237L23.2399 110.333C23.2399 110.333 24.7272 112.652 26.8818 113.525C28.8753 114.333 30.2406 114.239 32.3727 113.955C37.5395 113.267 37.4611 101.147 37.4611 101.147" stroke="white" stroke-width="2"/>
<path d="M97.3217 125.967C97.3217 125.967 96.8154 114.298 98.2309 107.047C99.0484 102.86 100.611 100.78 101.208 96.5533C101.825 92.187 101.633 89.644 101.208 85.253C100.545 78.3956 98.8398 74.7722 96.8922 68.1836C95.5238 63.5541 93.0604 56.4389 93.0604 56.4389" stroke="white" stroke-width="2" stroke-linecap="round"/>
<path d="M81.3822 34.3467C81.3822 34.3467 85.5755 34.7567 87.9475 36.1349C90.1638 37.4226 94.3797 38.948 96.6144 41.2311C98.4461 43.1026 108.717 50.4573 111.684 64.0849C115.323 80.7907 114.343 103.183 114.343 103.183" stroke="white" stroke-width="2"/>
<path d="M114.277 102.351L114.341 105.955L114.277 108.185L113.592 110.281C113.592 110.281 112.16 112.6 110.084 113.473C108.164 114.281 106.849 114.186 104.796 113.903C99.8192 113.215 99.8947 101.095 99.8947 101.095" stroke="white" stroke-width="2"/>
</svg>
