<svg width="251" height="251" viewBox="0 0 251 251" fill="none" xmlns="http://www.w3.org/2000/svg">
<path d="M184.35 51.9312C182.455 50.7812 180.035 51.6762 178.92 53.5012C177.805 55.3262 177.625 57.0012 178.175 59.2612C177.68 58.3737 176.999 57.6039 176.178 57.0049C175.357 56.4059 174.416 55.9918 173.42 55.7912C171.33 55.2912 168.97 56.4012 168.445 58.5612C168.188 59.8968 168.444 61.2801 169.16 62.4362C169.783 63.6384 170.721 64.648 171.875 65.3562C175.95 67.5212 177.67 67.4912 182.12 68.3812C184.59 64.6062 185.455 63.5612 186.77 59.1462C187.075 57.8216 187.015 56.439 186.595 55.1462C186.27 53.8337 185.47 52.6882 184.35 51.9312Z" fill="#F5F5F5"/>
<path d="M28.565 138.586C28.9578 138.148 29.2144 137.605 29.3032 137.023C29.392 136.442 29.3092 135.847 29.065 135.311C28.94 134.939 28.7389 134.597 28.4744 134.306C28.21 134.016 27.888 133.784 27.5289 133.625C27.1699 133.465 26.7816 133.383 26.3889 133.382C25.9961 133.381 25.6075 133.462 25.2477 133.619C24.8879 133.777 24.5648 134.007 24.2989 134.296C24.0331 134.585 23.8303 134.927 23.7036 135.298C23.5768 135.67 23.5288 136.064 23.5626 136.455C23.5964 136.847 23.7113 137.227 23.9 137.571C24.129 138.12 24.516 138.589 25.0119 138.917C25.5078 139.246 26.0902 139.419 26.685 139.416C22.97 141.776 25.06 146.016 25.06 146.016L34.5 141.901C34.5 141.901 32.77 137.436 28.565 138.586Z" fill="#E0E0E0"/>
<path d="M74.26 44.6214C75.4046 44.47 76.4799 43.9869 77.3533 43.2317C78.2267 42.4765 78.8599 41.4822 79.175 40.3714C80.105 37.2364 78.475 33.9914 75.535 33.1214C72.595 32.2514 69.465 34.0864 68.535 37.2214C68.188 38.3353 68.1786 39.5271 68.5078 40.6464C68.837 41.7658 69.4902 42.7626 70.385 43.5114C61.83 42.3414 59.605 51.3714 59.605 51.3714L78.965 57.1064C78.965 57.1064 82.03 48.2164 74.26 44.6214Z" fill="#EBEBEB"/>
<path d="M210.775 62.7262C210.434 62.4315 209.991 62.2817 209.541 62.3088C209.09 62.3359 208.669 62.5377 208.365 62.8712C208.061 63.1749 207.828 63.5411 207.68 63.9444C207.532 64.3476 207.474 64.7782 207.51 65.2062C207.388 64.7893 207.176 64.404 206.891 64.0768C206.605 63.7496 206.252 63.4884 205.855 63.3112C205.453 63.1001 204.985 63.0536 204.549 63.1814C204.113 63.3093 203.744 63.6014 203.52 63.9962C203.286 64.5294 203.263 65.1316 203.455 65.6812C203.601 66.2413 203.896 66.7512 204.31 67.1562C205.81 68.4412 206.525 68.5862 208.31 69.3762C209.695 68.0362 210.155 67.6812 211.115 65.9662C211.367 65.4442 211.47 64.8631 211.415 64.2862C211.404 63.7045 211.176 63.1481 210.775 62.7262Z" fill="#E0E0E0"/>
<path d="M63.505 65.1768L64.165 66.5118L65.64 66.7268L64.575 67.7668L64.825 69.2318L63.505 68.5418L62.19 69.2318L62.44 67.7668L61.375 66.7268L62.845 66.5118L63.505 65.1768Z" fill="#E0E0E0"/>
<path d="M169.735 82.6016L170.93 85.0166L173.595 85.4066L171.665 87.2866L172.12 89.9416L169.735 88.6866L167.35 89.9416L167.81 87.2866L165.88 85.4066L168.545 85.0166L169.735 82.6016Z" fill="#E0E0E0"/>
<path d="M53.75 95.3213L54.075 95.9863L54.815 96.0963L54.28 96.6163L54.405 97.3463L53.75 97.0013L53.09 97.3463L53.215 96.6163L52.68 96.0963L53.42 95.9863L53.75 95.3213Z" fill="#E0E0E0"/>
<path d="M147.395 212.146C138.99 206.276 137.085 195.381 137.395 185.586C137.45 183.951 137.27 182.226 138.045 180.791C138.82 179.356 140.64 178.381 142.1 179.066C143.315 179.641 143.845 181.066 144.525 182.221C145.433 183.778 146.763 185.047 148.36 185.881C149.4 186.421 150.69 186.751 151.715 186.186C153.125 185.406 153.29 183.461 153.28 181.831C153.28 178.801 153.262 175.771 153.225 172.741C153.225 171.116 153.225 169.456 153.725 167.911C154.225 166.366 155.35 164.936 156.895 164.501C158.44 164.066 160.355 164.961 160.68 166.551C160.744 167.224 160.761 167.901 160.73 168.576C160.775 169.251 161.09 170.001 161.73 170.186C162.37 170.371 163.03 169.916 163.515 169.441C165.195 167.801 166.33 165.686 167.395 163.581C168.46 161.476 169.495 159.326 171.015 157.531C172.535 155.736 174.645 154.326 176.975 154.191C179.305 154.056 181.785 155.496 182.37 157.781C182.955 160.066 181.625 162.401 180.17 164.256C178.011 167.01 175.465 169.437 172.61 171.461C172.057 171.77 171.616 172.246 171.35 172.821C170.995 173.901 172.02 174.981 173.095 175.321C174.305 175.726 175.595 175.601 176.885 175.746C178.175 175.891 179.53 176.456 180.01 177.656C180.675 179.316 179.285 181.061 177.915 182.201C175.177 184.487 172.064 186.284 168.715 187.511C167.52 187.951 166.26 188.331 165.295 189.176C164.33 190.021 163.75 191.476 164.33 192.621C164.91 193.766 166.41 194.121 167.665 193.901C168.92 193.681 170.04 192.991 171.23 192.536C173.465 191.696 176.35 191.851 177.785 193.781C178.725 195.051 178.785 196.816 178.33 198.331C177.782 199.815 176.944 201.175 175.865 202.331C172.323 206.584 167.716 209.821 162.515 211.711C157.33 213.506 152.515 213.996 147.38 212.111" fill="#EBEBEB"/>
<path d="M147.265 219.407C147.72 214.866 148.609 210.378 149.92 206.007C151.546 200.672 153.478 195.435 155.705 190.322L157.43 186.287C158 184.962 158.565 183.652 159.2 182.402C160.417 180.007 161.766 177.682 163.24 175.437C164.635 173.282 166.035 171.287 167.36 169.437C168.685 167.587 169.955 165.882 171.18 164.382C173.108 161.999 175.221 159.772 177.5 157.722C178.305 156.997 178.945 156.452 179.385 156.092L179.885 155.687C179.941 155.637 180.001 155.591 180.065 155.552C180.017 155.609 179.964 155.661 179.905 155.707L179.405 156.137C178.98 156.517 178.355 157.072 177.565 157.807C175.33 159.883 173.255 162.125 171.355 164.512C170.145 166.012 168.885 167.727 167.57 169.582C166.255 171.437 164.865 173.437 163.48 175.582C162.025 177.826 160.689 180.146 159.48 182.532C158.855 183.777 158.295 185.077 157.725 186.402C157.155 187.727 156.58 189.072 156 190.432C153.778 195.536 151.843 200.761 150.205 206.082C148.888 210.436 147.982 214.904 147.5 219.427" fill="#E0E0E0"/>
<path d="M159.285 182.371C159.207 182.146 159.154 181.913 159.125 181.676C159.04 181.226 158.94 180.576 158.825 179.766C158.595 178.146 158.355 175.901 158.095 173.421C157.835 170.941 157.565 168.706 157.315 167.096C157.19 166.286 157.08 165.636 157 165.186C156.946 164.955 156.916 164.719 156.91 164.481C157.001 164.701 157.07 164.928 157.115 165.161C157.23 165.606 157.37 166.256 157.52 167.056C157.83 168.666 158.135 170.906 158.395 173.386C158.655 175.866 158.865 178.046 159.035 179.736C159.115 180.501 159.185 181.146 159.24 181.661C159.282 181.896 159.297 182.134 159.285 182.371Z" fill="#E0E0E0"/>
<path d="M180.19 178.487C179.915 178.545 179.636 178.579 179.355 178.587C178.82 178.632 178.045 178.697 177.085 178.807C175.17 179.017 172.535 179.392 169.65 179.937C166.765 180.482 164.15 181.097 162.305 181.592C161.37 181.832 160.62 182.047 160.1 182.192C159.835 182.282 159.562 182.349 159.285 182.392C159.535 182.263 159.796 182.157 160.065 182.077C160.565 181.897 161.32 181.652 162.25 181.382C164.1 180.837 166.695 180.192 169.595 179.642C172.065 179.162 174.558 178.814 177.065 178.597C178.03 178.512 178.81 178.477 179.35 178.467C179.63 178.442 179.912 178.449 180.19 178.487Z" fill="#E0E0E0"/>
<path d="M150.18 205.621C150.12 205.543 150.071 205.458 150.035 205.366L149.68 204.611C149.37 203.951 148.95 202.986 148.445 201.791C147.665 200.026 146.775 197.791 144.775 192.326C143.405 188.606 142.145 185.246 141.19 182.826L140.05 179.971L139.74 179.191C139.699 179.102 139.67 179.008 139.655 178.911C139.712 178.99 139.759 179.076 139.795 179.166L140.155 179.921C140.46 180.581 140.88 181.546 141.385 182.741C142.385 185.136 143.685 188.491 145.055 192.211C146.425 195.931 147.685 199.286 148.64 201.711C149.11 202.881 149.495 203.846 149.785 204.561C149.905 204.876 150.005 205.131 150.09 205.341C150.131 205.431 150.161 205.525 150.18 205.621Z" fill="#E0E0E0"/>
<path d="M177.96 196.666C177.872 196.716 177.778 196.754 177.68 196.781L176.875 197.051L173.9 198.016C171.4 198.831 167.935 200.016 164.115 201.286C160.295 202.556 156.825 203.716 154.3 204.476C153.035 204.861 152.005 205.156 151.3 205.351L150.475 205.566C150.381 205.596 150.284 205.615 150.185 205.621C150.27 205.569 150.363 205.53 150.46 205.506L151.265 205.236L154.265 204.271C156.765 203.461 160.235 202.296 164.05 201.001C167.865 199.706 171.34 198.576 173.87 197.811C175.13 197.431 176.16 197.131 176.87 196.941L177.695 196.721C177.781 196.692 177.87 196.674 177.96 196.666Z" fill="#E0E0E0"/>
<path d="M131.945 37.2662V43.7062C131.948 44.0552 131.881 44.4013 131.749 44.7246C131.618 45.0478 131.423 45.3417 131.177 45.5895C130.931 45.8372 130.639 46.0338 130.317 46.168C129.995 46.3021 129.649 46.3712 129.3 46.3712H118.15V50.0562L116.15 46.5562C115.557 46.512 115.003 46.2452 114.598 45.8093C114.194 45.3735 113.97 44.8008 113.97 44.2062V37.2662C113.97 36.5634 114.249 35.8894 114.746 35.3924C115.243 34.8954 115.917 34.6162 116.62 34.6162H129.3C129.648 34.6162 129.992 34.6848 130.313 34.818C130.635 34.9513 130.926 35.1465 131.172 35.3927C131.418 35.6388 131.612 35.931 131.745 36.2525C131.878 36.574 131.946 36.9184 131.945 37.2662Z" fill="#EBEBEB"/>
<path d="M126.96 41.9212C127.562 41.9212 128.05 41.4332 128.05 40.8312C128.05 40.2292 127.562 39.7412 126.96 39.7412C126.358 39.7412 125.87 40.2292 125.87 40.8312C125.87 41.4332 126.358 41.9212 126.96 41.9212Z" fill="#E0E0E0"/>
<path d="M122.82 41.9212C123.422 41.9212 123.91 41.4332 123.91 40.8312C123.91 40.2292 123.422 39.7412 122.82 39.7412C122.218 39.7412 121.73 40.2292 121.73 40.8312C121.73 41.4332 122.218 41.9212 122.82 41.9212Z" fill="#E0E0E0"/>
<path d="M117.59 40.8312C117.59 41.0468 117.654 41.2575 117.774 41.4368C117.893 41.616 118.064 41.7557 118.263 41.8382C118.462 41.9207 118.681 41.9423 118.893 41.9003C119.104 41.8582 119.298 41.7544 119.451 41.602C119.603 41.4495 119.707 41.2553 119.749 41.0439C119.791 40.8324 119.769 40.6133 119.687 40.4141C119.604 40.2149 119.465 40.0447 119.286 39.9249C119.106 39.8051 118.896 39.7412 118.68 39.7412C118.537 39.7412 118.395 39.7694 118.263 39.8242C118.131 39.879 118.01 39.9593 117.909 40.0605C117.808 40.1617 117.728 40.2818 117.673 40.4141C117.618 40.5463 117.59 40.6881 117.59 40.8312Z" fill="#E0E0E0"/>
<path d="M151.065 39.7412L152.77 43.1962L156.585 43.7512L153.825 46.4412L154.475 50.2362L151.065 48.4462L147.655 50.2362L148.305 46.4412L145.55 43.7512L149.36 43.1962L151.065 39.7412Z" fill="#E0E0E0"/>
<path d="M105.45 57.2764L106.305 59.0014L108.21 59.2764L106.83 60.6214L107.155 62.5214L105.45 61.6264L103.745 62.5214L104.07 60.6214L102.69 59.2764L104.6 59.0014L105.45 57.2764Z" fill="#E0E0E0"/>
<path d="M238.42 220.206C238.42 220.276 187.86 220.336 125.505 220.336C63.15 220.336 12.58 220.276 12.58 220.206C12.58 220.136 63.13 220.076 125.505 220.076C187.88 220.076 238.42 220.131 238.42 220.206Z" fill="#263238"/>
<path d="M141.5 72.6212L131.5 72.5712C130.847 72.5868 130.227 72.8571 129.771 73.3243C129.315 73.7914 129.06 74.4184 129.06 75.0712V76.8862C129.06 77.5389 128.805 78.1659 128.349 78.6331C127.893 79.1002 127.273 79.3705 126.62 79.3862L107.155 79.3712C106.497 79.3502 105.874 79.0708 105.421 78.5934C104.968 78.116 104.722 77.4792 104.735 76.8212V75.0112C104.749 74.354 104.503 73.7179 104.051 73.2407C103.599 72.7634 102.977 72.4834 102.32 72.4612H98.82L90.07 72.3712C89.0374 72.3666 88.014 72.5655 87.0583 72.9565C86.1026 73.3476 85.2333 73.9232 84.5001 74.6503C83.767 75.3775 83.1842 76.242 82.7853 77.1944C82.3863 78.1468 82.179 79.1686 82.175 80.2012L81.64 206.296C81.6307 208.381 82.4498 210.385 83.9171 211.866C85.3844 213.347 87.38 214.186 89.465 214.196L140.895 214.431C141.928 214.436 142.951 214.237 143.907 213.846C144.862 213.455 145.732 212.879 146.465 212.152C147.198 211.425 147.781 210.56 148.18 209.608C148.579 208.656 148.786 207.634 148.79 206.601L149.325 80.5062C149.332 78.4233 148.511 76.4229 147.044 74.9445C145.577 73.4661 143.583 72.6304 141.5 72.6212Z" fill="white"/>
<path d="M92.525 91.6306C92.8196 91.5051 93.0711 91.2963 93.2488 91.0298C93.4264 90.7634 93.5224 90.4509 93.525 90.1306C93.5369 89.9214 93.506 89.7118 93.4342 89.5149C93.3623 89.318 93.251 89.1378 93.107 88.9855C92.9631 88.8331 92.7895 88.7117 92.597 88.6287C92.4045 88.5457 92.1971 88.5029 91.9875 88.5029C91.7779 88.5029 91.5705 88.5457 91.378 88.6287C91.1854 88.7117 91.0119 88.8331 90.868 88.9855C90.724 89.1378 90.6127 89.318 90.5408 89.5149C90.469 89.7118 90.438 89.9214 90.45 90.1306C90.4454 90.4563 90.5381 90.7758 90.7162 91.0484C90.8944 91.321 91.1499 91.5342 91.45 91.6606C90.964 91.7183 90.5062 91.9194 90.1349 92.2382C89.7636 92.5569 89.4956 92.979 89.365 93.4506C89.9169 94.0762 90.674 94.484 91.5 94.6006H92.445C93.2842 94.4907 94.0551 94.0803 94.615 93.4456C94.4934 92.966 94.228 92.5351 93.8544 92.2106C93.4808 91.8862 93.0169 91.6838 92.525 91.6306Z" fill="#455A64"/>
<path d="M91.95 94.6053C91.95 94.5753 92.26 94.6053 92.79 94.4453C93.536 94.2394 94.1911 93.7886 94.65 93.1653C94.9879 92.7119 95.2074 92.1814 95.2886 91.6218C95.3698 91.0621 95.3101 90.4911 95.115 89.9603C94.8873 89.3336 94.4761 88.79 93.935 88.4003C93.3573 87.9694 92.6558 87.7366 91.935 87.7366C91.2142 87.7366 90.5128 87.9694 89.935 88.4003C89.3939 88.79 88.9828 89.3336 88.755 89.9603C88.5599 90.4911 88.5002 91.0621 88.5814 91.6218C88.6626 92.1814 88.8821 92.7119 89.22 93.1653C89.6816 93.7858 90.3356 94.2359 91.08 94.4453C91.61 94.5903 91.925 94.5753 91.925 94.6053C91.8506 94.618 91.7745 94.618 91.7 94.6053C91.4827 94.6085 91.2658 94.5833 91.055 94.5303C90.3899 94.3749 89.7838 94.0309 89.3093 93.5396C88.8348 93.0482 88.5122 92.4305 88.38 91.7603C88.2505 91.0908 88.3132 90.3983 88.561 89.7629C88.8087 89.1276 89.2314 88.5754 89.78 88.1703C90.4006 87.7127 91.1514 87.4658 91.9225 87.4658C92.6936 87.4658 93.4444 87.7127 94.065 88.1703C94.6564 88.593 95.1047 89.1861 95.35 89.8703C95.5657 90.4798 95.6141 91.1359 95.49 91.7703C95.3579 92.4405 95.0352 93.0582 94.5607 93.5496C94.0863 94.0409 93.4801 94.3849 92.815 94.5403C92.6042 94.5933 92.3874 94.6185 92.17 94.6153C92.0967 94.6251 92.0222 94.6217 91.95 94.6053Z" fill="#455A64"/>
<path d="M127.775 90.8203H99.675V92.2203H127.775V90.8203Z" fill="#455A64"/>
<path d="M143.18 90.2212C143.371 90.2212 143.525 90.0668 143.525 89.8762C143.525 89.6857 143.371 89.5312 143.18 89.5312C142.99 89.5312 142.835 89.6857 142.835 89.8762C142.835 90.0668 142.99 90.2212 143.18 90.2212Z" fill="#455A64"/>
<path d="M143.525 91.1106C143.525 91.2021 143.489 91.2899 143.424 91.3546C143.359 91.4193 143.272 91.4556 143.18 91.4556C143.089 91.4556 143.001 91.4193 142.936 91.3546C142.871 91.2899 142.835 91.2021 142.835 91.1106C142.835 91.0191 142.871 90.9314 142.936 90.8667C143.001 90.802 143.089 90.7656 143.18 90.7656C143.272 90.7656 143.359 90.802 143.424 90.8667C143.489 90.9314 143.525 91.0191 143.525 91.1106Z" fill="#455A64"/>
<path d="M143.18 92.691C143.371 92.691 143.525 92.5365 143.525 92.346C143.525 92.1554 143.371 92.001 143.18 92.001C142.99 92.001 142.835 92.1554 142.835 92.346C142.835 92.5365 142.99 92.691 143.18 92.691Z" fill="#455A64"/>
<path d="M149.325 97.8506H82.115V156.196H149.325V97.8506Z" fill="#F5F5F5"/>
<path d="M146.255 151.671C146.659 151.544 147.084 151.5 147.505 151.541L147.375 151.671V151.426V151.191C147.375 151.041 147.375 150.906 147.4 150.796C147.425 150.566 147.46 150.426 147.495 150.426C147.53 150.426 147.565 150.566 147.585 150.796C147.585 150.906 147.61 151.041 147.615 151.191V151.691L147.485 151.826C147.069 151.86 146.65 151.808 146.255 151.671Z" fill="#E0E0E0"/>
<path d="M141.4 151.671C142.201 151.498 143.029 151.498 143.83 151.671C143.03 151.851 142.2 151.851 141.4 151.671Z" fill="#E0E0E0"/>
<path d="M136.55 151.671C136.94 151.544 137.352 151.5 137.76 151.541C138.17 151.501 138.583 151.545 138.975 151.671C138.585 151.804 138.17 151.85 137.76 151.806C137.352 151.85 136.939 151.804 136.55 151.671Z" fill="#E0E0E0"/>
<path d="M131.695 151.671C132.087 151.545 132.5 151.501 132.91 151.541C133.318 151.5 133.73 151.544 134.12 151.671C133.731 151.804 133.318 151.85 132.91 151.806C132.5 151.85 132.086 151.804 131.695 151.671Z" fill="#E0E0E0"/>
<path d="M126.84 151.671C127.641 151.498 128.469 151.498 129.27 151.671C128.47 151.851 127.64 151.851 126.84 151.671Z" fill="#E0E0E0"/>
<path d="M122 151.671C122.799 151.498 123.626 151.498 124.425 151.671C123.627 151.851 122.798 151.851 122 151.671Z" fill="#E0E0E0"/>
<path d="M117.135 151.671C117.936 151.498 118.764 151.498 119.565 151.671C118.765 151.851 117.935 151.851 117.135 151.671Z" fill="#E0E0E0"/>
<path d="M112.285 151.671C112.675 151.544 113.087 151.5 113.495 151.541C113.905 151.501 114.318 151.545 114.71 151.671C114.32 151.804 113.905 151.85 113.495 151.806C113.087 151.85 112.674 151.804 112.285 151.671Z" fill="#E0E0E0"/>
<path d="M107.43 151.671C107.822 151.545 108.235 151.501 108.645 151.541C109.053 151.5 109.465 151.544 109.855 151.671C109.466 151.804 109.053 151.85 108.645 151.806C108.235 151.85 107.82 151.804 107.43 151.671Z" fill="#E0E0E0"/>
<path d="M102.575 151.671C103.376 151.498 104.204 151.498 105.005 151.671C104.205 151.851 103.375 151.851 102.575 151.671Z" fill="#E0E0E0"/>
<path d="M97.725 151.671C98.115 151.544 98.5271 151.5 98.935 151.541C99.3447 151.501 99.7582 151.545 100.15 151.671C99.7596 151.804 99.345 151.85 98.935 151.806C98.5267 151.85 98.1137 151.804 97.725 151.671Z" fill="#E0E0E0"/>
<path d="M92.87 151.671C93.6707 151.498 94.4993 151.498 95.3 151.671C94.5 151.851 93.67 151.851 92.87 151.671Z" fill="#E0E0E0"/>
<path d="M89.195 150.421C89.3218 150.825 89.366 151.25 89.325 151.671L89.195 151.541H89.695L90.095 151.571C90.32 151.596 90.46 151.626 90.46 151.661C90.46 151.696 90.32 151.731 90.095 151.756H89.695H89.46H89.21C89.15 151.696 89.34 151.886 89.08 151.621C89.0409 151.217 89.0799 150.81 89.195 150.421Z" fill="#E0E0E0"/>
<path d="M89.195 145.496C89.3683 146.309 89.3683 147.149 89.195 147.961C89.0217 147.149 89.0217 146.309 89.195 145.496Z" fill="#E0E0E0"/>
<path d="M89.195 140.57C89.3217 140.967 89.366 141.386 89.325 141.8C89.3657 142.217 89.3214 142.637 89.195 143.035C89.0685 142.637 89.0243 142.217 89.065 141.8C89.024 141.386 89.0682 140.967 89.195 140.57Z" fill="#E0E0E0"/>
<path d="M89.195 135.646C89.3683 136.456 89.3683 137.295 89.195 138.106C89.0217 137.295 89.0217 136.456 89.195 135.646Z" fill="#E0E0E0"/>
<path d="M89.195 130.716C89.3214 131.114 89.3657 131.535 89.325 131.951C89.366 132.365 89.3217 132.784 89.195 133.181C89.0682 132.784 89.024 132.365 89.065 131.951C89.0243 131.535 89.0685 131.114 89.195 130.716Z" fill="#E0E0E0"/>
<path d="M89.195 125.791C89.3217 126.188 89.366 126.606 89.325 127.021C89.3657 127.437 89.3214 127.857 89.195 128.256C89.0685 127.857 89.0243 127.437 89.065 127.021C89.024 126.606 89.0682 126.188 89.195 125.791Z" fill="#E0E0E0"/>
<path d="M89.195 120.871C89.3683 121.682 89.3683 122.52 89.195 123.331C89.0217 122.52 89.0217 121.682 89.195 120.871Z" fill="#E0E0E0"/>
<path d="M89.195 115.936C89.3214 116.334 89.3657 116.754 89.325 117.171C89.366 117.585 89.3217 118.004 89.195 118.401C89.0682 118.004 89.024 117.585 89.065 117.171C89.0243 116.754 89.0685 116.334 89.195 115.936Z" fill="#E0E0E0"/>
<path d="M89.195 111.011C89.3217 111.408 89.366 111.826 89.325 112.241C89.3657 112.657 89.3214 113.077 89.195 113.476C89.0685 113.077 89.0243 112.657 89.065 112.241C89.024 111.826 89.0682 111.408 89.195 111.011Z" fill="#E0E0E0"/>
<path d="M89.195 106.086C89.3683 106.897 89.3683 107.735 89.195 108.546C89.0217 107.735 89.0217 106.897 89.195 106.086Z" fill="#E0E0E0"/>
<path d="M90.445 102.371C90.0419 102.501 89.6162 102.545 89.195 102.501L89.325 102.371V102.871C89.325 103.021 89.325 103.156 89.295 103.271C89.295 103.496 89.24 103.636 89.205 103.636C89.17 103.636 89.135 103.496 89.11 103.271C89.11 103.156 89.11 103.021 89.11 102.871V102.641V102.371L89.24 102.241C89.6463 102.206 90.0556 102.25 90.445 102.371Z" fill="#E0E0E0"/>
<path d="M95.3 102.371C94.4993 102.544 93.6707 102.544 92.87 102.371C93.6707 102.198 94.4993 102.198 95.3 102.371Z" fill="#E0E0E0"/>
<path d="M100.15 102.37C99.7589 102.5 99.3447 102.544 98.935 102.5C98.527 102.544 98.1144 102.5 97.725 102.37C98.115 102.244 98.5271 102.199 98.935 102.24C99.3447 102.2 99.7582 102.244 100.15 102.37Z" fill="#E0E0E0"/>
<path d="M105 102.371C104.199 102.544 103.371 102.544 102.57 102.371C103.371 102.198 104.199 102.198 105 102.371Z" fill="#E0E0E0"/>
<path d="M109.855 102.37C109.466 102.5 109.053 102.544 108.645 102.5C108.235 102.544 107.821 102.5 107.43 102.37C107.822 102.244 108.235 102.2 108.645 102.24C109.053 102.199 109.465 102.244 109.855 102.37Z" fill="#E0E0E0"/>
<path d="M114.71 102.37C114.319 102.5 113.905 102.544 113.495 102.5C113.087 102.544 112.674 102.5 112.285 102.37C112.675 102.244 113.087 102.199 113.495 102.24C113.905 102.2 114.318 102.244 114.71 102.37Z" fill="#E0E0E0"/>
<path d="M119.565 102.371C118.764 102.544 117.936 102.544 117.135 102.371C117.936 102.198 118.764 102.198 119.565 102.371Z" fill="#E0E0E0"/>
<path d="M124.415 102.371C123.616 102.545 122.789 102.545 121.99 102.371C122.789 102.198 123.616 102.198 124.415 102.371Z" fill="#E0E0E0"/>
<path d="M129.27 102.371C128.469 102.544 127.641 102.544 126.84 102.371C127.641 102.198 128.469 102.198 129.27 102.371Z" fill="#E0E0E0"/>
<path d="M134.12 102.37C133.731 102.5 133.318 102.544 132.91 102.5C132.5 102.544 132.086 102.5 131.695 102.37C132.087 102.244 132.5 102.2 132.91 102.24C133.318 102.199 133.73 102.244 134.12 102.37Z" fill="#E0E0E0"/>
<path d="M139 102.37C138.609 102.5 138.195 102.544 137.785 102.5C137.377 102.544 136.964 102.5 136.575 102.37C136.965 102.244 137.377 102.199 137.785 102.24C138.195 102.2 138.608 102.244 139 102.37Z" fill="#E0E0E0"/>
<path d="M143.83 102.371C143.029 102.544 142.201 102.544 141.4 102.371C142.201 102.198 143.029 102.198 143.83 102.371Z" fill="#E0E0E0"/>
<path d="M147.5 103.621C147.371 103.218 147.326 102.792 147.37 102.371C147.63 102.631 147.44 102.446 147.5 102.501H147.25H147.015L146.615 102.476C146.39 102.451 146.25 102.416 146.25 102.381C146.25 102.346 146.39 102.311 146.615 102.291C146.73 102.291 146.865 102.291 147.015 102.261H147.515L147.645 102.391C147.678 102.806 147.629 103.224 147.5 103.621Z" fill="#E0E0E0"/>
<path d="M147.5 108.546C147.327 107.735 147.327 106.897 147.5 106.086C147.673 106.897 147.673 107.735 147.5 108.546Z" fill="#E0E0E0"/>
<path d="M147.5 113.476C147.371 113.078 147.327 112.657 147.37 112.241C147.326 111.826 147.37 111.407 147.5 111.011C147.627 111.408 147.671 111.826 147.63 112.241C147.671 112.657 147.626 113.077 147.5 113.476Z" fill="#E0E0E0"/>
<path d="M147.5 118.401C147.37 118.004 147.326 117.585 147.37 117.171C147.327 116.754 147.371 116.334 147.5 115.936C147.626 116.334 147.671 116.754 147.63 117.171C147.671 117.585 147.627 118.004 147.5 118.401Z" fill="#E0E0E0"/>
<path d="M147.5 123.326C147.327 122.515 147.327 121.677 147.5 120.866C147.673 121.677 147.673 122.515 147.5 123.326Z" fill="#E0E0E0"/>
<path d="M147.5 128.256C147.371 127.858 147.327 127.437 147.37 127.021C147.326 126.606 147.37 126.187 147.5 125.791C147.627 126.188 147.671 126.606 147.63 127.021C147.671 127.437 147.626 127.857 147.5 128.256Z" fill="#E0E0E0"/>
<path d="M147.5 133.181C147.37 132.785 147.326 132.365 147.37 131.951C147.327 131.535 147.371 131.114 147.5 130.716C147.626 131.114 147.671 131.535 147.63 131.951C147.671 132.365 147.627 132.784 147.5 133.181Z" fill="#E0E0E0"/>
<path d="M147.5 138.106C147.327 137.295 147.327 136.456 147.5 135.646C147.673 136.456 147.673 137.295 147.5 138.106Z" fill="#E0E0E0"/>
<path d="M147.5 143.035C147.371 142.637 147.327 142.217 147.37 141.8C147.326 141.386 147.37 140.967 147.5 140.57C147.627 140.967 147.671 141.386 147.63 141.8C147.671 142.217 147.626 142.637 147.5 143.035Z" fill="#E0E0E0"/>
<path d="M147.5 147.961C147.327 147.149 147.327 146.309 147.5 145.496C147.673 146.309 147.673 147.149 147.5 147.961Z" fill="#E0E0E0"/>
<path d="M108.185 125.456V133.886H122.78V125.456H119.655V130.806H111.28V125.456H108.185Z" fill="#E0E0E0"/>
<path d="M113.82 128.605H117.205V122.91H120.42L115.685 115.315L110.6 122.745H113.9L113.82 128.605Z" fill="#E0E0E0"/>
<path d="M97.275 165.566L96.62 165.266C96.2444 165.442 95.8166 165.471 95.4204 165.348C95.0242 165.225 94.6882 164.959 94.4782 164.601C94.2681 164.244 94.1992 163.82 94.2848 163.415C94.3704 163.009 94.6045 162.649 94.9411 162.407C95.2777 162.165 95.6927 162.057 96.1048 162.104C96.5168 162.152 96.8963 162.351 97.1689 162.664C97.4415 162.977 97.5876 163.38 97.5786 163.795C97.5695 164.209 97.406 164.606 97.12 164.906L97.275 165.566ZM95.775 161.996C95.3241 161.996 94.8917 162.175 94.5729 162.494C94.2541 162.813 94.075 163.245 94.075 163.696C94.075 164.147 94.2541 164.579 94.5729 164.898C94.8917 165.217 95.3241 165.396 95.775 165.396C96.0653 165.381 96.3472 165.293 96.595 165.141L97.095 165.361L97 164.871V164.846C97.2924 164.535 97.4551 164.123 97.455 163.696C97.455 163.248 97.278 162.818 96.9624 162.499C96.6468 162.181 96.2183 162 95.77 161.996H95.775Z" fill="#263238"/>
<path d="M101.5 165.316L100.76 163.476L99.36 162.176H102.785L101.5 165.316ZM99.675 162.316L100.87 163.431L101.5 165.001L102.6 162.316H99.675Z" fill="#263238"/>
<path d="M102.672 162.167L100.793 163.368L100.86 163.473L102.739 162.272L102.672 162.167Z" fill="#263238"/>
<path d="M114.715 162.83C114.719 162.97 114.681 163.107 114.607 163.225C114.532 163.343 114.424 163.436 114.296 163.492C114.168 163.548 114.026 163.564 113.889 163.539C113.752 163.514 113.625 163.448 113.526 163.351C113.426 163.253 113.358 163.128 113.33 162.991C113.302 162.855 113.315 162.713 113.368 162.584C113.421 162.455 113.512 162.345 113.628 162.267C113.744 162.19 113.881 162.149 114.02 162.15C114.202 162.149 114.377 162.22 114.508 162.347C114.638 162.475 114.712 162.648 114.715 162.83Z" fill="#263238"/>
<path d="M116.88 162.841C116.884 162.981 116.846 163.118 116.772 163.236C116.697 163.354 116.589 163.447 116.461 163.502C116.333 163.558 116.191 163.575 116.054 163.55C115.917 163.525 115.79 163.459 115.691 163.362C115.591 163.264 115.523 163.139 115.495 163.002C115.467 162.866 115.48 162.724 115.533 162.595C115.586 162.466 115.677 162.356 115.793 162.278C115.909 162.201 116.046 162.16 116.185 162.161C116.275 162.16 116.365 162.176 116.449 162.21C116.533 162.244 116.609 162.293 116.674 162.357C116.739 162.42 116.79 162.495 116.825 162.578C116.861 162.661 116.879 162.751 116.88 162.841Z" fill="#263238"/>
<path d="M119.05 162.87C119.054 163.01 119.016 163.147 118.942 163.265C118.867 163.382 118.76 163.475 118.632 163.531C118.505 163.587 118.363 163.604 118.226 163.579C118.089 163.555 117.962 163.49 117.863 163.393C117.763 163.296 117.694 163.171 117.665 163.035C117.637 162.898 117.649 162.757 117.702 162.627C117.754 162.498 117.844 162.388 117.959 162.31C118.075 162.232 118.211 162.191 118.35 162.191C118.441 162.189 118.531 162.206 118.615 162.239C118.699 162.273 118.776 162.322 118.841 162.385C118.906 162.449 118.958 162.524 118.994 162.607C119.03 162.69 119.049 162.78 119.05 162.87Z" fill="#263238"/>
<path d="M142.595 165.74L141.18 164.325L139.835 165.67V161.605H142.595V165.74ZM141.18 164.15L141.225 164.19L142.47 165.44V161.73H139.97V165.37L141.18 164.15Z" fill="#263238"/>
<path d="M139.78 172.636C139.78 172.706 127.98 172.766 113.43 172.766C98.88 172.766 87.08 172.706 87.08 172.636C87.08 172.566 98.875 172.506 113.43 172.506C127.985 172.506 139.78 172.561 139.78 172.636Z" fill="#263238"/>
<path d="M113.315 175.751C113.315 175.821 107.44 175.881 100.2 175.881C92.96 175.881 87.08 175.821 87.08 175.751C87.08 175.681 92.95 175.621 100.2 175.621C107.45 175.621 113.315 175.676 113.315 175.751Z" fill="#263238"/>
<path d="M126.14 185.096C126.14 185.166 120.27 185.226 113.025 185.226C105.78 185.226 99.905 185.166 99.905 185.096C99.905 185.026 105.78 184.961 113.025 184.961C120.27 184.961 126.14 185.021 126.14 185.096Z" fill="#263238"/>
<path d="M97.53 185.095C97.53 185.165 95.19 185.225 92.305 185.225C89.42 185.225 87.08 185.165 87.08 185.095C88.8182 184.96 90.5622 184.915 92.305 184.96C94.0478 184.915 95.7918 184.96 97.53 185.095Z" fill="#263238"/>
<path d="M126.14 195.985C126.14 196.055 120.27 196.115 113.025 196.115C105.78 196.115 99.905 196.055 99.905 195.985C99.905 195.915 105.78 195.855 113.025 195.855C120.27 195.855 126.14 195.91 126.14 195.985Z" fill="#263238"/>
<path d="M97.53 195.986C97.53 196.056 95.19 196.116 92.305 196.116C89.42 196.116 87.08 196.056 87.08 195.986C88.8184 195.854 90.5623 195.811 92.305 195.856C94.0478 195.811 95.7917 195.854 97.53 195.986Z" fill="#263238"/>
<path d="M116.17 189.021C116.17 189.096 112.605 189.156 108.21 189.156C103.815 189.156 100.255 189.096 100.255 189.021C100.255 188.946 103.815 188.891 108.21 188.891C112.605 188.891 116.17 188.951 116.17 189.021Z" fill="#263238"/>
<path d="M116.17 200.256C116.17 200.331 112.605 200.386 108.21 200.386C103.815 200.386 100.255 200.331 100.255 200.256C100.255 200.181 103.815 200.126 108.21 200.126C112.605 200.126 116.17 200.186 116.17 200.256Z" fill="#263238"/>
<path d="M91.91 162.501C91.8625 162.255 91.7293 162.033 91.5342 161.876C91.339 161.719 91.0944 161.636 90.8439 161.642C90.5933 161.648 90.353 161.742 90.1655 161.909C89.9781 162.075 89.8557 162.303 89.82 162.551C89.7843 162.303 89.6619 162.075 89.4745 161.909C89.287 161.742 89.0467 161.648 88.7961 161.642C88.5456 161.636 88.301 161.719 88.1058 161.876C87.9106 162.033 87.7775 162.255 87.73 162.501C87.6782 162.864 87.7696 163.233 87.985 163.531C88.1955 163.827 88.4444 164.095 88.725 164.326L89.835 165.326C90.215 164.986 90.535 164.666 90.915 164.326C91.1959 164.093 91.4463 163.826 91.66 163.531C91.8741 163.233 91.9638 162.864 91.91 162.501Z" fill="#01a809"/>
<path d="M141.575 68.2108L90.04 67.9708C87.0625 67.9588 84.2021 69.1299 82.0878 71.2264C79.9734 73.3229 78.7783 76.1733 78.765 79.1508L78.22 208.341C78.2134 209.814 78.4971 211.275 79.0549 212.638C79.6127 214.002 80.4337 215.243 81.4709 216.289C82.5081 217.336 83.7413 218.168 85.1001 218.738C86.4589 219.308 87.9166 219.604 89.39 219.611L140.925 219.851C142.4 219.858 143.861 219.574 145.226 219.016C146.591 218.458 147.833 217.637 148.88 216.598C149.927 215.56 150.76 214.325 151.329 212.965C151.899 211.605 152.195 210.145 152.2 208.671L152.745 79.4808C152.752 78.0074 152.468 76.5471 151.91 75.1833C151.352 73.8195 150.531 72.5789 149.494 71.5324C148.457 70.4859 147.224 69.6539 145.865 69.084C144.506 68.514 143.048 68.2173 141.575 68.2108ZM148.79 206.661C148.786 207.693 148.579 208.715 148.18 209.668C147.781 210.62 147.198 211.485 146.465 212.212C145.732 212.939 144.862 213.514 143.907 213.905C142.951 214.296 141.928 214.495 140.895 214.491L89.465 214.251C87.383 214.242 85.3898 213.407 83.9227 211.929C82.4557 210.452 81.6347 208.453 81.64 206.371L82.175 80.2758C82.179 79.2432 82.3863 78.2215 82.7853 77.269C83.1842 76.3166 83.7669 75.4521 84.5001 74.7249C85.2333 73.9978 86.1026 73.4222 87.0583 73.0312C88.014 72.6401 89.0374 72.4412 90.07 72.4458L98.815 72.4858H102.315C102.972 72.508 103.594 72.788 104.046 73.2653C104.498 73.7426 104.744 74.3786 104.73 75.0358V76.8708C104.717 77.528 104.962 78.164 105.414 78.6413C105.866 79.1185 106.488 79.3986 107.145 79.4208L126.62 79.5108C127.272 79.4938 127.891 79.223 128.346 78.756C128.801 78.289 129.055 77.6627 129.055 77.0108V75.1958C129.045 74.8658 129.101 74.5371 129.218 74.2287C129.336 73.9203 129.514 73.6382 129.741 73.3988C129.968 73.1594 130.241 72.9674 130.543 72.8339C130.845 72.7003 131.17 72.6279 131.5 72.6208L141.5 72.6708C142.532 72.6747 143.553 72.882 144.505 73.2807C145.457 73.6794 146.321 74.2617 147.047 74.9944C147.774 75.7272 148.349 76.5959 148.74 77.551C149.131 78.5061 149.33 79.5288 149.325 80.5608L148.79 206.661Z" fill="#263238"/>
<path d="M201.915 112.976L192.89 109.976C192.89 109.976 188.89 121.476 187.68 121.576C180.905 122.196 173.68 119.951 171.12 119.076C170.865 118.791 170.57 118.441 170.24 118.016C169.96 117.65 169.746 117.239 169.605 116.801C169.407 116.262 169.284 115.698 169.24 115.126C169.251 115.016 169.228 114.905 169.173 114.809C169.118 114.714 169.035 114.637 168.935 114.591C168.835 114.545 168.722 114.531 168.614 114.552C168.506 114.572 168.406 114.626 168.33 114.706C168.035 115.086 167.96 116.536 168.63 118.101C169.3 119.666 166.93 118.416 166.06 117.981C165.19 117.546 162.435 116.316 162.09 116.481C161.59 116.716 161.74 117.301 162.62 117.721C163.5 118.141 166.05 119.571 165.795 120.016C165.54 120.461 161.145 118.176 161.145 118.176C161.145 118.176 160.285 117.531 159.975 118.041C159.415 118.961 164.275 121.041 164.74 121.231C165.065 121.361 164.805 121.856 164.465 121.701C164.125 121.546 160.13 119.316 159.555 120.246C159.11 120.961 163.53 122.001 164.1 122.916C164.67 123.831 160.83 121.791 160.435 122.486C160.285 122.746 160.215 122.986 162.59 123.821C164.331 124.364 166.101 124.815 167.89 125.171V125.196C167.89 125.196 191.64 135.816 196.76 125.576C202.185 114.681 201.915 112.976 201.915 112.976Z" fill="#EB996E"/>
<path d="M187.509 96.7218L120.434 96.8506L120.537 150.475L187.612 150.347L187.509 96.7218Z" fill="#EBEBEB"/>
<path d="M187.5 96.7354H187.175H186.24H182.6L168.875 96.7904L120.425 96.9354L120.54 96.8204C120.575 112.78 120.615 131.075 120.655 150.435L120.525 150.305L187.595 150.2L187.5 150.37C187.5 134.215 187.5 120.82 187.5 111.46C187.5 106.78 187.5 103.105 187.5 100.6C187.5 99.3454 187.5 98.3904 187.5 97.7354C187.5 97.0804 187.5 96.7354 187.5 96.7354C187.5 96.7354 187.5 97.0604 187.5 97.7054C187.5 98.3504 187.5 99.3054 187.5 100.545C187.5 103.045 187.525 106.71 187.545 111.385C187.58 120.76 187.62 134.175 187.675 150.385V150.495H187.565L120.495 150.64H120.365V150.5C120.335 131.14 120.305 112.845 120.28 96.8854V96.7704H120.395L168.895 96.7404H187.5V96.7354Z" fill="#263238"/>
<path d="M185.11 100.101L122.75 100.221L122.84 147.091L185.2 146.971L185.11 100.101Z" fill="#01a809"/>
<path d="M122.83 147.106L144.555 117.931L158.085 136.131L167.215 126.371L185.19 146.991L122.83 147.106Z" fill="#01a809"/>
<path d="M163.77 114.326C163.772 115.297 163.486 116.247 162.948 117.055C162.41 117.864 161.645 118.495 160.748 118.868C159.852 119.242 158.865 119.341 157.912 119.153C156.959 118.966 156.083 118.5 155.395 117.815C154.707 117.129 154.238 116.256 154.046 115.303C153.855 114.351 153.95 113.364 154.32 112.466C154.69 111.568 155.318 110.8 156.124 110.259C156.93 109.718 157.879 109.428 158.85 109.426C159.495 109.424 160.134 109.55 160.73 109.796C161.326 110.041 161.868 110.402 162.325 110.857C162.782 111.312 163.145 111.852 163.392 112.448C163.64 113.043 163.769 113.681 163.77 114.326Z" fill="#01a809"/>
<g opacity="0.2">
<path d="M122.83 147.106L144.555 117.931L158.085 136.131L167.215 126.371L185.19 146.991L122.83 147.106Z" fill="black"/>
</g>
<g opacity="0.2">
<path d="M163.77 114.326C163.772 115.297 163.486 116.247 162.948 117.055C162.41 117.864 161.645 118.495 160.748 118.868C159.852 119.242 158.865 119.341 157.912 119.153C156.959 118.966 156.083 118.5 155.395 117.815C154.707 117.129 154.238 116.256 154.046 115.303C153.855 114.351 153.95 113.364 154.32 112.466C154.69 111.568 155.318 110.8 156.124 110.259C156.93 109.718 157.879 109.428 158.85 109.426C159.495 109.424 160.134 109.55 160.73 109.796C161.326 110.041 161.868 110.402 162.325 110.857C162.782 111.312 163.145 111.852 163.392 112.448C163.64 113.043 163.769 113.681 163.77 114.326Z" fill="black"/>
</g>
<path d="M240.28 199.751L222.78 189.136L219.365 197.691L237.45 206.836C237.45 206.836 236.155 211.861 236.45 212.961L241.285 200.371L240.28 199.751Z" fill="#FFBE9D"/>
<path d="M236.43 212.965L236.935 213.16L241.95 200.205L241.41 199.99L236.43 212.965Z" fill="#263238"/>
<path d="M238.545 208.516C238.545 208.591 238.08 208.641 237.61 208.936C237.14 209.231 236.885 209.616 236.815 209.581C236.745 209.546 236.93 209.046 237.475 208.716C238.02 208.386 238.555 208.446 238.545 208.516Z" fill="#263238"/>
<path d="M239.97 199.44C240.045 199.44 239.865 200.395 239.94 201.56C240.015 202.725 240.285 203.64 240.215 203.665C239.862 203.025 239.678 202.306 239.68 201.575C239.592 200.851 239.692 200.116 239.97 199.44Z" fill="#263238"/>
<path d="M239.55 199.605C239.146 200.792 238.662 201.95 238.1 203.07C237.619 204.228 237.056 205.349 236.415 206.425C237.302 204.083 238.349 201.804 239.55 199.605Z" fill="#263238"/>
<path d="M189.795 198.021H180.585L178.8 218.206C178.8 218.206 173.655 218.871 172.735 219.536L186.235 219.371L186.445 218.206L189.795 198.021Z" fill="#FFBE9D"/>
<path d="M172.735 219.536V220.076L186.63 219.926V219.346L172.735 219.536Z" fill="#263238"/>
<path d="M177.65 219.87C177.58 219.9 177.36 219.485 176.91 219.16C176.46 218.835 176.01 218.735 176.02 218.66C176.205 218.622 176.397 218.629 176.579 218.68C176.761 218.731 176.927 218.826 177.065 218.955C177.58 219.305 177.715 219.83 177.65 219.87Z" fill="#263238"/>
<path d="M186.605 217.806C186.605 217.881 185.68 218.066 184.605 218.566C183.53 219.066 182.8 219.661 182.75 219.601C183.745 218.524 185.121 217.88 186.585 217.806H186.605Z" fill="#263238"/>
<path d="M186.295 217.475C185.043 217.541 183.789 217.521 182.54 217.415C181.287 217.397 180.038 217.29 178.8 217.095C180.052 217.03 181.306 217.05 182.555 217.155C183.808 217.177 185.057 217.283 186.295 217.475Z" fill="#263238"/>
<path d="M199.115 145.24C199.115 145.24 201.035 186.74 202.345 188.455C203.655 190.17 227.535 205.455 227.535 205.455L233.17 192.235C233.17 192.235 215.84 180.2 215.855 179.42C215.87 178.64 215.985 138.23 215.985 138.23L199.115 145.24Z" fill="#455A64"/>
<path d="M204.05 170.075C204.075 170.179 204.094 170.284 204.105 170.39L204.225 171.3L204.64 174.71C204.975 177.645 205.44 181.71 205.975 186.45L205.94 186.375L210.235 190.675L210.47 190.91C212.713 192.734 215.05 194.44 217.47 196.02L223.35 199.87C225.03 200.98 226.35 201.905 227.275 202.56C227.73 202.89 228.08 203.155 228.315 203.33L228.58 203.535C228.64 203.585 228.67 203.61 228.665 203.615L228.565 203.555L228.285 203.37L227.215 202.645C226.29 202.015 224.94 201.11 223.25 200.025C221.56 198.94 219.535 197.66 217.31 196.195C214.884 194.624 212.547 192.92 210.31 191.09L210.075 190.855L205.79 186.55L205.755 186.515V186.475C205.255 181.75 204.82 177.66 204.51 174.72C204.37 173.28 204.255 172.125 204.17 171.305L204.095 170.39C204.067 170.287 204.052 170.182 204.05 170.075Z" fill="#263238"/>
<path d="M209.695 160.291C209.702 160.332 209.702 160.375 209.695 160.416V160.786C209.695 161.131 209.695 161.606 209.72 162.206C209.72 163.466 209.745 165.246 209.765 167.441C209.785 169.636 209.765 172.281 209.79 175.196C209.79 176.656 209.79 178.196 209.79 179.781C209.753 180.579 209.818 181.379 209.985 182.161C210.359 183.767 211.234 185.212 212.485 186.286C213.11 186.786 213.775 187.286 214.41 187.741C215.685 188.686 216.91 189.586 218.115 190.436L224.42 194.936C226.21 196.231 227.65 197.291 228.635 198.036L229.76 198.906L230.05 199.136C230.113 199.193 230.143 199.223 230.14 199.226L230.035 199.161L229.73 198.946L228.575 198.121L224.315 195.086C222.505 193.811 220.355 192.296 217.975 190.586C216.785 189.741 215.54 188.846 214.26 187.901C213.62 187.426 212.97 186.961 212.315 186.436C211.672 185.885 211.12 185.235 210.68 184.511C210.24 183.787 209.919 182.997 209.73 182.171C209.564 181.371 209.499 180.553 209.535 179.736C209.535 178.146 209.535 176.611 209.535 175.151C209.535 172.236 209.535 169.611 209.565 167.396L209.605 162.161C209.605 161.561 209.605 161.086 209.605 160.741V160.371C209.63 160.339 209.66 160.312 209.695 160.291Z" fill="#263238"/>
<path d="M213.535 153.636C213.539 153.676 213.539 153.716 213.535 153.756V154.111C213.535 154.441 213.535 154.891 213.535 155.466C213.535 156.661 213.505 158.366 213.48 160.466C213.405 164.721 213.305 170.596 213.19 177.166V177.191C213.077 177.748 213.077 178.323 213.19 178.881C213.366 179.707 213.706 180.489 214.19 181.181C214.661 181.864 215.204 182.494 215.81 183.061C217.02 184.156 218.26 185.166 219.42 186.126C221.755 188.046 223.92 189.706 225.765 191.046C227.61 192.386 229.16 193.411 230.235 194.101L231.5 194.871L231.825 195.081L231.93 195.161C231.93 195.161 231.885 195.161 231.81 195.106L231.475 194.916C231.18 194.751 230.75 194.501 230.205 194.166C229.115 193.501 227.555 192.496 225.705 191.166C223.855 189.836 221.66 188.196 219.31 186.286C218.14 185.321 216.91 184.326 215.68 183.216C215.061 182.638 214.504 181.996 214.02 181.301C213.512 180.579 213.155 179.763 212.97 178.901C212.847 178.309 212.847 177.698 212.97 177.106V177.131C213.115 170.561 213.24 164.686 213.335 160.436C213.395 158.331 213.44 156.631 213.475 155.436C213.475 154.866 213.51 154.411 213.525 154.081V153.731C213.524 153.699 213.528 153.667 213.535 153.636Z" fill="#263238"/>
<path d="M217.155 135.371L217.525 136.871C218.614 141.312 217.946 146.001 215.66 149.961L199.08 178.701C197.906 180.737 197.049 182.941 196.54 185.236L191.905 207.906L177.65 207.596C177.65 207.596 180.495 191.096 181.99 181.771C183.12 174.771 192.52 152.951 197.07 142.656L199.15 138.371L217.155 135.371Z" fill="#455A64"/>
<path d="M200.67 140.565C200.653 140.624 200.631 140.681 200.605 140.735L200.405 141.235L199.6 143.09C199.245 143.89 198.81 144.87 198.335 146.025C197.86 147.18 197.29 148.47 196.715 149.93C196.14 151.39 195.485 152.975 194.84 154.7C194.195 156.425 193.51 158.27 192.8 160.2C191.425 164.105 189.995 168.435 188.635 173.015C187.275 177.595 186.135 182.015 185.185 186.05C184.725 188.05 184.275 189.985 183.91 191.795C183.545 193.605 183.195 195.295 182.91 196.795C182.625 198.295 182.375 199.73 182.155 200.955C181.935 202.18 181.76 203.24 181.625 204.105C181.49 204.97 181.375 205.605 181.3 206.105C181.26 206.325 181.23 206.495 181.205 206.605C181.199 206.665 181.185 206.724 181.165 206.78C181.158 206.721 181.158 206.66 181.165 206.6C181.165 206.47 181.205 206.3 181.23 206.1C181.295 205.625 181.39 204.955 181.51 204.1C181.63 203.245 181.785 202.17 182.01 200.94C182.235 199.71 182.43 198.31 182.73 196.77C183.03 195.23 183.325 193.54 183.705 191.735C184.085 189.93 184.51 188.005 184.965 185.98C185.91 181.94 187.05 177.525 188.395 172.93C189.74 168.335 191.195 164.01 192.585 160.105C193.3 158.155 193.965 156.3 194.65 154.605C195.335 152.91 195.955 151.29 196.555 149.84C197.155 148.39 197.72 147.09 198.21 145.945C198.7 144.8 199.145 143.825 199.515 143.03L200.365 141.195L200.595 140.72C200.612 140.665 200.637 140.613 200.67 140.565Z" fill="#263238"/>
<path d="M208.72 139.291C208.702 139.35 208.676 139.407 208.645 139.461C208.58 139.586 208.5 139.751 208.4 139.961L207.43 141.846C207.005 142.661 206.485 143.661 205.93 144.846C205.375 146.031 204.675 147.346 203.985 148.846C203.635 149.586 203.265 150.346 202.885 151.176C202.505 152.006 202.13 152.846 201.73 153.726C200.925 155.486 200.13 157.391 199.28 159.391C197.625 163.391 195.905 167.891 194.28 172.611C192.655 177.331 191.28 181.936 190.115 186.111C189.555 188.211 189.01 190.206 188.565 192.111C188.34 193.051 188.105 193.956 187.905 194.831C187.705 195.706 187.52 196.546 187.34 197.331C186.97 198.936 186.69 200.396 186.425 201.676C186.16 202.956 185.925 204.056 185.785 204.961C185.645 205.866 185.48 206.556 185.39 207.046C185.345 207.271 185.31 207.451 185.28 207.586C185.271 207.647 185.256 207.708 185.235 207.766C185.227 207.705 185.227 207.642 185.235 207.581C185.235 207.446 185.285 207.266 185.32 207.036C185.4 206.536 185.515 205.841 185.665 204.946C185.815 204.051 186.005 202.946 186.26 201.646C186.515 200.346 186.76 198.901 187.14 197.296L187.69 194.771C187.885 193.891 188.115 192.986 188.335 192.046C188.77 190.161 189.335 188.161 189.86 186.046C191.015 181.851 192.39 177.266 194.015 172.511C195.64 167.756 197.385 163.301 199.055 159.286C199.915 157.286 200.715 155.376 201.555 153.621C201.96 152.746 202.335 151.886 202.72 151.076L203.84 148.751C204.54 147.251 205.23 145.941 205.84 144.776C206.45 143.611 206.955 142.611 207.395 141.806C207.835 141.001 208.17 140.381 208.395 139.941L208.665 139.441C208.678 139.389 208.697 139.339 208.72 139.291Z" fill="#263238"/>
<path d="M218.09 137.731C218.09 137.731 218.055 137.791 217.98 137.896L217.65 138.371C217.34 138.791 216.905 139.396 216.345 140.171L215.4 141.471L214.32 143.046C213.555 144.186 212.645 145.456 211.74 146.926L210.29 149.211C209.79 150.006 209.29 150.861 208.79 151.711C207.73 153.441 206.71 155.356 205.615 157.356C203.49 161.396 201.32 165.921 199.32 170.791C197.32 175.661 195.735 180.431 194.43 184.791C193.815 186.986 193.205 189.071 192.75 191.046C192.515 192.046 192.25 192.981 192.065 193.901C191.88 194.821 191.685 195.706 191.505 196.551C191.125 198.236 190.89 199.781 190.64 201.126C190.52 201.801 190.41 202.431 190.31 203.011C190.21 203.591 190.145 204.121 190.08 204.601C189.935 205.541 189.825 206.281 189.75 206.796C189.71 207.041 189.68 207.226 189.655 207.371C189.649 207.435 189.635 207.499 189.615 207.561C189.612 207.496 189.612 207.431 189.615 207.366C189.615 207.226 189.655 207.036 189.68 206.791C189.75 206.291 189.84 205.531 189.96 204.586C190.025 204.086 190.095 203.586 190.17 202.991C190.245 202.396 190.37 201.781 190.48 201.101C190.715 199.751 190.94 198.206 191.31 196.516L191.855 193.856C192.045 192.936 192.295 191.986 192.525 190.996C192.975 188.996 193.575 186.926 194.185 184.721C195.48 180.341 197.085 175.576 199.06 170.681C201.035 165.786 203.25 161.271 205.385 157.236C206.49 155.236 207.52 153.321 208.59 151.591C209.115 150.721 209.59 149.871 210.09 149.091L211.56 146.811C212.48 145.346 213.4 144.081 214.175 142.951C214.57 142.386 214.93 141.856 215.275 141.381L216.24 140.096L217.58 138.321L217.935 137.866C218.04 137.776 218.085 137.726 218.09 137.731Z" fill="#263238"/>
<path d="M199.08 178.69C199.02 178.655 202.68 172.19 207.255 164.255C211.83 156.32 215.6 149.915 215.66 149.95C215.72 149.985 212.06 156.45 207.485 164.385C202.91 172.32 199.145 178.725 199.08 178.69Z" fill="#263238"/>
<path d="M210.835 103.466L214.775 103.536L217.91 112.506L214.585 123.951C213.84 126.951 219.395 132.516 219.395 137.201L195.855 140.571L197.355 130.621L195.32 123.926V123.426L187.67 119.611L190.195 113.426C194.08 104.326 200.865 103.771 200.865 103.771L210.835 103.466Z" fill="#263238"/>
<path d="M195.455 123.326C195.273 123.276 195.103 123.189 194.955 123.071C194.557 122.788 194.218 122.432 193.955 122.021C193.561 121.39 193.385 120.647 193.455 119.906C193.489 119.099 193.73 118.315 194.155 117.628C194.579 116.942 195.174 116.376 195.88 115.986L195.815 116.076C196 114.721 196.165 113.576 196.315 112.731C196.362 112.29 196.444 111.854 196.56 111.426C196.564 111.869 196.532 112.312 196.465 112.751C196.38 113.581 196.245 114.751 196.08 116.111V116.171L196.02 116.201C195.357 116.58 194.799 117.118 194.397 117.768C193.995 118.418 193.762 119.158 193.72 119.921C193.65 120.617 193.804 121.318 194.16 121.921C194.407 122.328 194.721 122.69 195.09 122.991C195.218 123.096 195.34 123.208 195.455 123.326Z" fill="#455A64"/>
<path d="M214.775 103.536C214.775 103.536 222.195 104.411 221.41 113.231C220.61 122.231 219.245 123.326 219.245 123.326L208.78 119.246C210.965 114.821 211.025 114.776 212.07 110.016L214.775 103.516V103.536Z" fill="#263238"/>
<path d="M212.465 109.956C212.377 110.424 212.247 110.882 212.075 111.326C211.8 112.156 211.415 113.326 210.93 114.556C210.445 115.786 209.93 116.906 209.55 117.696C209.364 118.131 209.138 118.548 208.875 118.941C209.003 118.486 209.171 118.043 209.375 117.616C209.715 116.811 210.19 115.701 210.675 114.461L211.89 111.261C212.043 110.81 212.235 110.373 212.465 109.956Z" fill="#455A64"/>
<path d="M214.205 86.0254C215.135 87.8904 215.63 89.5254 217.48 90.4654C218.315 90.9004 219.33 91.1454 219.835 91.9404C220.34 92.7354 220.125 94.0554 220.835 94.8104C221.835 95.9054 223.9 95.0154 225.03 95.9854C226.03 96.8454 225.715 98.7004 226.8 99.4854C227.41 99.9154 228.245 99.8204 228.94 100.09C230.085 100.53 230.625 101.845 230.775 103.06C230.93 104.033 230.807 105.03 230.42 105.935C230.22 106.384 229.91 106.776 229.52 107.075C229.13 107.373 228.671 107.57 228.185 107.645C226.89 107.78 225.425 106.89 224.375 107.645C224.038 107.959 223.745 108.317 223.505 108.71C223.178 109.126 222.754 109.456 222.271 109.672C221.788 109.888 221.26 109.984 220.732 109.951C220.204 109.918 219.692 109.758 219.239 109.483C218.787 109.209 218.408 108.829 218.135 108.375C217.41 107.17 217.455 105.51 216.4 104.585C215.793 104.165 215.116 103.857 214.4 103.675C213.715 103.42 213 102.99 212.795 102.29C212.558 101.668 212.22 101.089 211.795 100.575C211.265 99.7854 210.56 100.75 209.86 100.36C209.16 99.9704 209.425 99.2104 209.36 98.4104" fill="#01a809"/>
<path d="M210.67 103.115C210.716 103.278 210.735 103.447 210.725 103.615C210.712 104.088 210.618 104.555 210.445 104.995C210.186 105.657 209.765 106.244 209.22 106.7C208.538 107.249 207.701 107.572 206.827 107.625C205.953 107.678 205.084 107.458 204.34 106.995C203.745 106.607 203.257 106.076 202.92 105.45C202.692 105.035 202.543 104.58 202.48 104.11C202.447 103.945 202.447 103.775 202.48 103.61C202.583 104.229 202.789 104.825 203.09 105.375C203.431 105.957 203.908 106.448 204.48 106.805C205.182 107.233 205.999 107.434 206.82 107.38C207.643 107.335 208.431 107.038 209.08 106.53C209.603 106.104 210.016 105.559 210.285 104.94C210.513 104.357 210.643 103.741 210.67 103.115Z" fill="#455A64"/>
<path d="M210.575 103.576L211.245 88.0411L205.07 83.3711L199.465 86.1161C199.465 86.1161 199.28 93.1561 199.465 96.2111C199.65 99.2661 202.735 99.5911 202.735 99.5911C202.735 99.5911 202.665 101.376 202.595 103.261C202.577 103.8 202.668 104.337 202.863 104.84C203.057 105.343 203.352 105.802 203.728 106.188C204.105 106.574 204.555 106.88 205.053 107.088C205.551 107.296 206.086 107.4 206.625 107.396C207.647 107.384 208.625 106.982 209.36 106.272C210.094 105.561 210.529 104.597 210.575 103.576Z" fill="#FFBE9D"/>
<path d="M200.08 91.266C200.08 91.3431 200.103 91.4185 200.146 91.4827C200.189 91.5468 200.25 91.5968 200.321 91.6263C200.392 91.6558 200.471 91.6635 200.546 91.6485C200.622 91.6334 200.691 91.5963 200.746 91.5417C200.8 91.4872 200.838 91.4177 200.853 91.3421C200.868 91.2664 200.86 91.188 200.83 91.1167C200.801 91.0455 200.751 90.9846 200.687 90.9417C200.623 90.8989 200.547 90.876 200.47 90.876C200.367 90.876 200.267 90.9171 200.194 90.9902C200.121 91.0633 200.08 91.1625 200.08 91.266Z" fill="#263238"/>
<path d="M199.7 90.8402C199.75 90.8902 200.04 90.6452 200.46 90.6202C200.88 90.5952 201.195 90.8002 201.24 90.7452C201.285 90.6902 201.21 90.6252 201.07 90.5302C200.885 90.4093 200.665 90.353 200.445 90.3702C200.222 90.3805 200.009 90.465 199.84 90.6102C199.715 90.7202 199.675 90.8202 199.7 90.8402Z" fill="#263238"/>
<path d="M204.61 91.2661C204.611 91.343 204.635 91.4179 204.678 91.4814C204.722 91.5449 204.783 91.5941 204.854 91.6228C204.926 91.6516 205.004 91.6586 205.079 91.643C205.154 91.6274 205.223 91.5898 205.278 91.5351C205.332 91.4804 205.368 91.4109 205.383 91.3354C205.397 91.2598 205.389 91.1817 205.36 91.1107C205.33 91.0397 205.28 90.9791 205.216 90.9365C205.152 90.8939 205.077 90.8711 205 90.8711C204.948 90.8711 204.897 90.8813 204.85 90.9013C204.802 90.9212 204.759 90.9503 204.722 90.9871C204.686 91.0238 204.658 91.0674 204.638 91.1153C204.619 91.1632 204.609 91.2145 204.61 91.2661Z" fill="#263238"/>
<path d="M204.365 90.8355C204.415 90.8855 204.705 90.6405 205.125 90.6205C205.545 90.6005 205.86 90.8005 205.905 90.7405C205.95 90.6805 205.875 90.6255 205.735 90.5305C205.549 90.4103 205.329 90.3527 205.108 90.3662C204.886 90.3797 204.675 90.4635 204.505 90.6055C204.38 90.7155 204.34 90.8155 204.365 90.8355Z" fill="#263238"/>
<path d="M220.135 96.8311C219.751 96.8456 219.37 96.7594 219.03 96.5811C218.525 96.3123 218.106 95.9068 217.82 95.4111C217.465 94.7926 217.162 94.1453 216.915 93.4761C216.345 92.0611 215.915 90.7411 215.62 89.7811L215.5 89.3711C215.48 89.2314 215.454 89.0929 215.42 88.9561C213.75 82.5911 208.15 81.4061 207.045 81.4061C205.855 81.4061 203.78 80.7561 200.75 83.9061C200.295 84.3769 199.909 84.9107 199.605 85.4911C198.938 86.3315 198.475 87.3158 198.255 88.3661C198.126 88.8555 198.102 89.3667 198.185 89.8661C198.245 89.8661 198.255 89.2861 198.49 88.4011C198.629 87.8808 198.825 87.3777 199.075 86.9011C198.815 88.0722 198.925 89.2952 199.39 90.4011L200.475 90.1011L204.36 88.7761C204.01 87.5711 204.525 86.0761 204.82 85.3761L204.85 85.3511C205.063 86.6268 205.677 87.8014 206.603 88.7042C207.529 89.6069 208.719 90.1909 210 90.3711L210.725 100.371C215.895 99.2611 215.77 92.3711 215.725 90.9411C215.96 91.7311 216.265 92.6411 216.645 93.5961C216.9 94.2807 217.218 94.9402 217.595 95.5661C217.916 96.0895 218.382 96.5095 218.935 96.7761C219.313 96.9514 219.733 97.0122 220.145 96.9511C220.43 96.8961 220.565 96.8061 220.56 96.7911C220.418 96.7954 220.276 96.8088 220.135 96.8311Z" fill="#01a809"/>
<path d="M202.85 94.3706C202.624 94.3191 202.392 94.2906 202.16 94.2856C202.055 94.2856 201.95 94.2856 201.925 94.1856C201.921 94.0758 201.947 93.967 202 93.8706C202.09 93.5956 202.185 93.3056 202.29 93.0006C202.49 92.3806 202.66 91.8156 202.79 91.4056C202.87 91.1864 202.922 90.9579 202.945 90.7256C202.831 90.9279 202.74 91.1426 202.675 91.3656C202.53 91.7706 202.34 92.3256 202.14 92.9456C202.045 93.2556 201.955 93.5456 201.865 93.8256C201.803 93.9638 201.789 94.1185 201.825 94.2656C201.841 94.3031 201.865 94.3364 201.897 94.3625C201.928 94.3886 201.965 94.4068 202.005 94.4156C202.065 94.4247 202.125 94.4247 202.185 94.4156C202.408 94.4277 202.631 94.4126 202.85 94.3706Z" fill="#263238"/>
<path d="M211.575 94.2605C211.528 93.7549 211.583 93.245 211.735 92.7605C211.817 92.5186 211.962 92.303 212.156 92.136C212.349 91.969 212.584 91.8566 212.835 91.8105C213.128 91.7989 213.415 91.8938 213.643 92.0777C213.871 92.2616 214.024 92.522 214.075 92.8105C214.106 93.1018 214.051 93.3957 213.917 93.656C213.783 93.9163 213.575 94.1317 213.32 94.2755C213.06 94.4116 212.772 94.4869 212.478 94.4955C212.185 94.5042 211.893 94.4461 211.625 94.3255" fill="#FFBE9D"/>
<path d="M212.465 93.8153C212.465 93.7803 212.63 93.8553 212.845 93.8153C212.979 93.7676 213.095 93.6794 213.176 93.5629C213.258 93.4464 213.301 93.3075 213.3 93.1653C213.312 93.0939 213.309 93.0206 213.29 92.9507C213.271 92.8808 213.237 92.8158 213.19 92.7603C213.145 92.7223 213.092 92.6938 213.035 92.6766C212.978 92.6594 212.919 92.6539 212.86 92.6603C212.63 92.6603 212.47 92.7403 212.455 92.7003C212.44 92.6603 212.56 92.5603 212.83 92.4803C212.916 92.4592 213.005 92.4573 213.091 92.4745C213.178 92.4918 213.259 92.5279 213.33 92.5803C213.41 92.6564 213.471 92.7505 213.508 92.8549C213.544 92.9592 213.555 93.0708 213.54 93.1803C213.53 93.3899 213.451 93.5902 213.315 93.7503C213.199 93.8825 213.039 93.9679 212.865 93.9903C212.575 93.9953 212.44 93.8303 212.465 93.8153Z" fill="#EB996E"/>
<path d="M209.9 83.0257C209.554 82.8928 209.245 82.6799 208.997 82.4044C208.749 82.1289 208.57 81.7986 208.475 81.4407C208.391 81.0819 208.405 80.7072 208.515 80.3555C208.625 80.0038 208.827 79.688 209.1 79.4407C209.385 79.2032 209.735 79.0576 210.105 79.0228C210.474 78.988 210.846 79.0657 211.17 79.2457C211.672 79.5919 212.036 80.1033 212.2 80.6907C212.357 81.063 212.401 81.4736 212.325 81.8707C212.231 82.1583 212.064 82.4163 211.839 82.619C211.615 82.8216 211.341 82.9619 211.045 83.0257C210.455 83.1499 209.847 83.1668 209.25 83.0757" fill="#01a809"/>
<path d="M222.16 91.4909C222.213 91.2886 222.223 91.0774 222.19 90.8709C222.135 90.6338 222.02 90.415 221.855 90.2359C221.635 90.0028 221.352 89.8394 221.04 89.7659C220.656 89.6725 220.259 89.6437 219.865 89.6809C219.435 89.7109 218.975 89.7859 218.47 89.8009C217.928 89.833 217.389 89.7043 216.92 89.4309C216.452 89.0793 216.124 88.5724 215.995 88.0009C215.679 86.9961 215.16 86.0669 214.47 85.2709C213.906 84.6219 213.241 84.0682 212.5 83.6309C211.803 83.2442 211.065 82.9356 210.3 82.7109C210.519 82.7147 210.736 82.7501 210.945 82.8159C211.52 82.9613 212.073 83.1815 212.59 83.4709C213.365 83.8984 214.062 84.4547 214.65 85.1159C215.374 85.9266 215.917 86.883 216.24 87.9209C216.354 88.4364 216.644 88.8961 217.06 89.2209C217.486 89.4658 217.974 89.5838 218.465 89.5609C218.965 89.5609 219.41 89.4859 219.85 89.4659C220.267 89.4351 220.687 89.4757 221.09 89.5859C221.43 89.6806 221.734 89.8737 221.965 90.1409C222.135 90.344 222.248 90.5893 222.29 90.8509C222.312 91.0189 222.297 91.1897 222.245 91.3509C222.205 91.4459 222.165 91.4959 222.16 91.4909Z" fill="#01a809"/>
<path d="M212.14 83.6206C211.117 82.6117 209.82 81.9265 208.41 81.6506C209.151 81.6177 209.887 81.7829 210.542 82.1292C211.198 82.4754 211.75 82.9903 212.14 83.6206Z" fill="#263238"/>
<path d="M202.735 99.6005C204.186 99.5376 205.589 99.0624 206.78 98.2305C206.78 98.2305 205.78 100.485 202.705 100.36L202.735 99.6005Z" fill="#EB996E"/>
<path d="M204.24 94.7803C203.598 95.1082 202.913 95.3455 202.205 95.4853C202.361 95.6963 202.583 95.8495 202.835 95.921C203.088 95.9925 203.357 95.9782 203.6 95.8803C203.716 95.8532 203.825 95.8026 203.921 95.7318C204.017 95.6609 204.097 95.5713 204.157 95.4683C204.217 95.3653 204.255 95.2511 204.27 95.1328C204.284 95.0145 204.274 94.8945 204.24 94.7803Z" fill="white"/>
<path d="M209.835 119.636C208.685 122.521 207.385 125.421 206.77 125.476C200 126.096 192.77 123.851 190.215 122.976C189.955 122.686 189.66 122.341 189.335 121.911C189.055 121.545 188.839 121.134 188.695 120.696C188.5 120.158 188.379 119.596 188.335 119.026C188.348 118.915 188.325 118.803 188.27 118.706C188.215 118.609 188.131 118.531 188.029 118.485C187.928 118.438 187.815 118.425 187.705 118.447C187.596 118.468 187.496 118.524 187.42 118.606C187.13 118.986 187.055 120.436 187.72 121.996C188.385 123.556 186.025 122.316 185.155 121.881C184.285 121.446 181.53 120.216 181.18 120.381C180.68 120.616 180.835 121.206 181.715 121.621C182.595 122.036 185.14 123.471 184.885 123.921C184.63 124.371 180.24 122.076 180.24 122.076C180.24 122.076 179.375 121.436 179.07 121.946C178.51 122.861 183.365 124.946 183.835 125.136C184.155 125.266 183.9 125.761 183.56 125.601C183.22 125.441 179.225 123.221 178.645 124.151C178.2 124.861 182.645 125.901 183.195 126.821C183.745 127.741 179.92 125.691 179.525 126.391C179.38 126.651 179.305 126.866 181.685 127.721C183.431 128.261 185.206 128.707 187 129.056V129.081C187 129.081 211.275 139.946 215.87 129.461C216.97 126.961 218.05 124.526 218.665 123.091" fill="#FFBE9D"/>
<path d="M152.575 150.57L152.91 96.7204L149.49 96.6504L149.235 150.57H152.575Z" fill="#263238"/>
<path d="M60.435 140.786L35.33 163.581C34.3928 164.464 33.6463 165.53 33.1364 166.712C32.6264 167.894 32.3639 169.169 32.365 170.456C32.365 175.686 36.8 179.106 42.03 179.086C54.785 179.036 75.495 178.276 75.345 178.426C75.195 178.576 75.55 170.581 75.55 170.581L46.225 169.301L69.315 149.606L60.435 140.786Z" fill="#CC8F71"/>
<path d="M61.75 146.445C61.75 146.445 58.435 176.08 58.71 178.29C58.985 180.5 59.815 217.4 59.815 217.4L67.59 217.095L69.69 178.19L76.19 148.63L61.75 146.445Z" fill="#CC8F71"/>
<path d="M58.5 170.576C58.5377 171.075 58.5377 171.577 58.5 172.076C58.5 173.011 58.5 174.301 58.555 175.731C58.61 177.161 58.74 178.441 58.84 179.371C58.9145 179.868 58.9579 180.369 58.97 180.871C58.8113 180.384 58.7057 179.881 58.655 179.371C58.4727 178.16 58.3525 176.94 58.295 175.716C58.2385 174.492 58.2468 173.265 58.32 172.041C58.3296 171.548 58.3899 171.057 58.5 170.576Z" fill="#A8674A"/>
<path d="M43.375 171.001C43.7946 170.597 44.2734 170.26 44.795 170.001C45.2702 169.672 45.7929 169.417 46.345 169.246C45.9233 169.647 45.4448 169.984 44.925 170.246C44.4474 170.571 43.9253 170.825 43.375 171.001Z" fill="#A8674A"/>
<path d="M37.935 112.451L27.29 105.061L26.795 105.891L37.37 113.376L37.935 112.451Z" fill="#263238"/>
<path d="M34.32 112.316C34.32 112.316 33 108.636 32.68 107.871C32.36 107.106 31.87 105.721 31.68 105.691C31.49 105.661 30.745 105.761 31.68 108.101C32.615 110.441 30.5 108.966 30.5 108.966L28.46 107.526C28.46 107.526 26.83 112.216 27.71 113.666C28.4017 114.753 29.1827 115.779 30.045 116.736L34.32 112.316Z" fill="#CC8F71"/>
<path d="M57.35 89.8711C55.18 91.3711 56.76 94.3061 55.515 95.5511C55.05 96.0111 54.39 96.2411 53.935 96.7111C52.37 98.3261 54.175 101.376 52.805 103.156C52.34 103.766 51.595 104.076 50.985 104.546C50.1818 105.206 49.6401 106.131 49.4569 107.155C49.2736 108.178 49.4608 109.233 49.985 110.131L62.055 107.476L60.175 91.0211L57.35 89.8711Z" fill="#263238"/>
<path d="M71.94 88.0059C72.7 89.8059 75.47 89.6209 76.765 91.0809C77.605 92.0309 77.66 93.4909 78.5 94.4359C79.34 95.3809 80.76 95.5609 81.88 96.1759C84.135 97.4109 84.93 100.176 85.52 102.706C81.2681 104.439 76.8404 105.705 72.315 106.481C71.785 106.576 69.89 106.611 66.9 107.186L65.9 90.2109L71.94 88.0059Z" fill="#263238"/>
<path d="M62.04 109.22C62.04 108.22 61.54 103.72 61.54 103.72C61.54 103.72 58.325 103.54 57.975 100.375C57.625 97.2104 57.475 89.8754 57.475 89.8754L63.16 86.7354L68.455 91.4654L69.63 107.19L62.04 109.22Z" fill="#CC8F71"/>
<path d="M69.325 93.7458C69.325 93.7458 64.065 93.5108 62.905 88.8108L57.5 94.3358C56.9665 93.2166 56.7846 91.9621 56.9783 90.7375C57.172 89.5129 57.7321 88.3757 58.585 87.4758C61.585 84.0508 63.765 84.6258 64.995 84.5608C66.15 84.5058 72.025 85.4508 74.085 91.9808C74.235 92.4558 74.395 93.6408 74.505 94.1708L69.325 93.7458Z" fill="#263238"/>
<path d="M58.25 95.1762C58.2564 95.2841 58.3052 95.385 58.3857 95.4571C58.4663 95.5292 58.572 95.5666 58.68 95.5612C58.7596 95.5561 58.8361 95.5277 58.8996 95.4794C58.9632 95.4311 59.011 95.365 59.0372 95.2896C59.0633 95.2142 59.0666 95.1327 59.0466 95.0554C59.0266 94.9781 58.9841 94.9085 58.9247 94.8552C58.8652 94.802 58.7913 94.7675 58.7123 94.7561C58.6333 94.7447 58.5526 94.7569 58.4805 94.7912C58.4085 94.8255 58.3481 94.8803 58.3071 94.9488C58.2661 95.0173 58.2462 95.0964 58.25 95.1762Z" fill="#263238"/>
<path d="M57.835 94.7558C57.89 94.8058 58.18 94.5358 58.615 94.4908C59.05 94.4458 59.39 94.6358 59.435 94.5758C59.48 94.5158 59.395 94.4558 59.245 94.3658C59.0469 94.2463 58.8144 94.197 58.585 94.2258C58.3554 94.2513 58.1399 94.3493 57.97 94.5058C57.845 94.6258 57.81 94.7308 57.835 94.7558Z" fill="#263238"/>
<path d="M62.96 94.9461C62.965 95.0258 62.9934 95.1022 63.0418 95.1657C63.0901 95.2293 63.1561 95.2771 63.2315 95.3033C63.307 95.3294 63.3884 95.3327 63.4657 95.3127C63.543 95.2927 63.6126 95.2503 63.6659 95.1908C63.7192 95.1313 63.7536 95.0574 63.765 94.9784C63.7764 94.8994 63.7642 94.8188 63.7299 94.7467C63.6956 94.6746 63.6408 94.6142 63.5723 94.5732C63.5038 94.5322 63.4247 94.5123 63.345 94.5161C63.2913 94.5186 63.2387 94.5318 63.1902 94.5549C63.1417 94.578 63.0983 94.6105 63.0624 94.6505C63.0266 94.6905 62.9991 94.7372 62.9815 94.788C62.9639 94.8387 62.9566 94.8925 62.96 94.9461Z" fill="#263238"/>
<path d="M62.685 94.5107C62.74 94.5607 63.025 94.2907 63.46 94.2457C63.895 94.2007 64.235 94.3957 64.28 94.3357C64.325 94.2757 64.24 94.2157 64.095 94.1257C63.8954 94.0097 63.6639 93.9608 63.4345 93.9859C63.205 94.0111 62.9896 94.1092 62.82 94.2657C62.695 94.3707 62.66 94.4907 62.685 94.5107Z" fill="#263238"/>
<path d="M61.29 98.2858C61.0533 98.2367 60.8114 98.2182 60.57 98.2308C60.46 98.2308 60.35 98.2308 60.32 98.1358C60.3009 98.0156 60.3165 97.8925 60.365 97.7808L60.62 96.8608C60.8646 96.0778 61.0485 95.2771 61.17 94.4658C60.8751 95.2317 60.6329 96.0169 60.445 96.8158C60.365 97.1408 60.285 97.4458 60.205 97.7408C60.1543 97.89 60.1543 98.0517 60.205 98.2008C60.2251 98.2382 60.2528 98.2709 60.2864 98.2967C60.32 98.3226 60.3587 98.341 60.4 98.3508C60.463 98.3606 60.527 98.3606 60.59 98.3508C60.8251 98.3578 61.0602 98.336 61.29 98.2858Z" fill="#263238"/>
<path d="M62.755 98.6257C63.185 98.3107 61.57 99.4157 60.675 99.4607C60.8464 99.6741 61.0845 99.8236 61.3511 99.8852C61.6177 99.9469 61.8973 99.9171 62.145 99.8007C63.06 99.3707 62.755 98.6257 62.755 98.6257Z" fill="white"/>
<path d="M61.44 103.711C62.945 103.571 64.3791 103.006 65.575 102.081C65.575 102.081 64.735 104.456 61.545 104.486L61.44 103.711Z" fill="#A8674A"/>
<path d="M63.04 88.4205C63.04 88.4205 61.99 90.7255 62.57 92.3905L57.57 93.9555C57.57 93.9555 56.07 87.5655 63.04 88.4205Z" fill="#263238"/>
<path d="M69.6 179.871L37.875 158.926C44.585 151.746 51.875 145.426 60.06 140.326L79.31 139.041C81.34 154.566 69.69 167.406 69.6 179.871Z" fill="#263238"/>
<path d="M59.84 216.751L59.795 218.131C59.795 218.131 53.015 219.461 54.635 220.001C56.08 220.501 65.035 220.396 67.225 220.336H67.725V217.051L59.84 216.751Z" fill="#01a809"/>
<g opacity="0.5">
<path d="M64.845 220.175C64.9785 219.509 65.3567 218.917 65.905 218.515C66.4392 218.11 67.1076 217.922 67.775 217.99L67.71 220.205L64.845 220.175Z" fill="white"/>
</g>
<g opacity="0.5">
<path d="M56.5 218.896C56.5 218.896 54.12 219.511 54.4 219.896C54.68 220.281 63.735 220.541 67.735 220.306V220.126L57.175 219.921C57.175 219.921 56.94 218.931 56.5 218.896Z" fill="white"/>
</g>
<path d="M67.835 220.141H67.695H67.305H65.865C64.645 220.141 62.96 220.141 61.105 220.091C59.25 220.041 57.565 219.961 56.35 219.886L54.91 219.786L54.52 219.751H54.385H54.5H54.89L56.335 219.821C57.55 219.881 59.23 219.951 61.085 220.001C62.94 220.051 64.625 220.071 65.845 220.076H67.285H67.675C67.7306 220.092 67.7842 220.114 67.835 220.141Z" fill="#263238"/>
<path d="M57.15 220.061C57.0909 219.821 57.0071 219.588 56.9 219.366C56.7541 219.16 56.5865 218.971 56.4 218.801C56.6407 218.895 56.8394 219.072 56.96 219.301C57.119 219.52 57.187 219.792 57.15 220.061Z" fill="#263238"/>
<path d="M59.5 218.941C59.5 218.941 59.37 218.816 59.26 218.631C59.1813 218.523 59.1267 218.401 59.1 218.271C59.125 218.271 59.23 218.396 59.34 218.581C59.45 218.766 59.545 218.926 59.5 218.941Z" fill="#263238"/>
<path d="M60.17 218.616C60.17 218.616 60.03 218.551 59.9 218.426C59.77 218.301 59.67 218.181 59.69 218.161C59.71 218.141 59.83 218.226 59.965 218.356C60.1 218.486 60.19 218.601 60.17 218.616Z" fill="#263238"/>
<path d="M60.6 217.871C60.4663 217.915 60.3245 217.929 60.185 217.911C59.955 217.911 59.77 217.886 59.77 217.856C59.9036 217.812 60.0454 217.798 60.185 217.816C60.3256 217.805 60.4671 217.824 60.6 217.871Z" fill="#263238"/>
<path d="M60.755 217.371C60.6156 217.458 60.4539 217.501 60.29 217.496C60.119 217.524 59.9437 217.496 59.79 217.416C59.9464 217.404 60.1036 217.404 60.26 217.416C60.4234 217.387 60.589 217.372 60.755 217.371Z" fill="#263238"/>
<path d="M59.27 218.241C59.1045 218.269 58.9355 218.269 58.77 218.241C58.5884 218.21 58.4095 218.165 58.235 218.106C58.1268 218.071 58.0228 218.024 57.925 217.966C57.8951 217.949 57.8689 217.926 57.8483 217.898C57.8276 217.871 57.8129 217.839 57.805 217.806C57.7977 217.768 57.8019 217.728 57.817 217.693C57.8322 217.657 57.8576 217.627 57.89 217.606C58.0864 217.514 58.3085 217.495 58.5177 217.551C58.727 217.606 58.91 217.734 59.035 217.911C59.1122 218.012 59.1652 218.13 59.19 218.256C59.2019 218.3 59.2019 218.346 59.19 218.391C59.1436 218.232 59.0691 218.083 58.97 217.951C58.8597 217.813 58.7121 217.711 58.545 217.656C58.4485 217.615 58.3448 217.594 58.24 217.594C58.1352 217.594 58.0315 217.615 57.935 217.656C57.855 217.716 57.88 217.811 57.97 217.866C58.0611 217.917 58.1565 217.96 58.255 217.996C58.4178 218.058 58.5849 218.108 58.755 218.146C59.08 218.221 59.27 218.226 59.27 218.241Z" fill="#263238"/>
<path d="M59.14 218.261C59.08 218.153 59.0622 218.026 59.09 217.906C59.1087 217.774 59.1603 217.648 59.24 217.541C59.2836 217.465 59.3463 217.403 59.4217 217.359C59.4972 217.315 59.5827 217.292 59.67 217.291C59.7211 217.304 59.7651 217.336 59.7931 217.381C59.821 217.426 59.8306 217.479 59.82 217.531C59.8063 217.612 59.7757 217.688 59.73 217.756C59.6594 217.866 59.5754 217.967 59.48 218.056C59.3989 218.147 59.2956 218.216 59.18 218.256C59.18 218.256 59.285 218.166 59.43 218.011C59.5143 217.92 59.5881 217.819 59.65 217.711C59.725 217.606 59.78 217.411 59.65 217.386C59.52 217.361 59.39 217.491 59.31 217.591C59.2352 217.689 59.1823 217.801 59.155 217.921C59.1369 218.033 59.1318 218.147 59.14 218.261Z" fill="#263238"/>
<path d="M67.73 217.966C67.73 217.966 67.505 217.941 67.145 217.966C66.6776 218.006 66.2309 218.177 65.856 218.459C65.4811 218.741 65.1931 219.123 65.025 219.561C64.895 219.901 64.875 220.126 64.86 220.126C64.845 220.126 64.86 220.066 64.86 219.966C64.8795 219.821 64.913 219.679 64.96 219.541C65.1149 219.078 65.406 218.674 65.7951 218.38C66.1842 218.087 66.6531 217.918 67.14 217.896C67.2854 217.891 67.431 217.9 67.575 217.921C67.6288 217.927 67.6811 217.942 67.73 217.966Z" fill="#263238"/>
<path d="M63.87 219.371C63.4885 219.448 63.0985 219.475 62.71 219.451C62.3195 219.46 61.9296 219.417 61.55 219.326C61.55 219.301 62.05 219.326 62.71 219.356C63.37 219.386 63.865 219.371 63.87 219.371Z" fill="#263238"/>
<path d="M65.42 219.415C65.42 219.415 65.375 219.525 65.32 219.64C65.265 219.755 65.235 219.86 65.205 219.86C65.175 219.86 65.17 219.735 65.235 219.6C65.3 219.465 65.405 219.395 65.42 219.415Z" fill="#263238"/>
<path d="M66.03 218.701C66.03 218.701 65.995 218.801 65.91 218.886C65.825 218.971 65.74 219.016 65.725 218.996C65.71 218.976 65.76 218.896 65.84 218.816C65.92 218.736 66 218.686 66.03 218.701Z" fill="#263238"/>
<path d="M66.875 218.371C66.875 218.401 66.765 218.371 66.645 218.436C66.525 218.501 66.445 218.531 66.42 218.511C66.395 218.491 66.47 218.386 66.615 218.341C66.76 218.296 66.885 218.371 66.875 218.371Z" fill="#263238"/>
<path d="M67.5 218.251C67.5 218.276 67.465 218.316 67.395 218.341C67.325 218.366 67.27 218.366 67.26 218.341C67.25 218.316 67.3 218.276 67.365 218.251C67.43 218.226 67.465 218.226 67.5 218.251Z" fill="#263238"/>
<path d="M74.32 178.515L75.7 178.56C75.7 178.56 77.025 185.34 77.565 183.72C78.065 182.275 77.965 173.32 77.905 171.13V170.63L74.625 170.605L74.32 178.515Z" fill="#01a809"/>
<g opacity="0.5">
<path d="M77.745 173.511C77.0778 173.376 76.4844 172.999 76.08 172.451C75.6849 171.912 75.5064 171.245 75.58 170.581L77.795 170.646L77.745 173.511Z" fill="white"/>
</g>
<g opacity="0.5">
<path d="M76.465 181.871C76.465 181.871 77.08 184.251 77.465 183.966C77.85 183.681 78.115 174.636 77.875 170.636H77.7L77.5 181.206C77.5 181.206 76.5 181.416 76.465 181.871Z" fill="white"/>
</g>
<path d="M77.71 170.521C77.71 170.521 77.71 170.571 77.71 170.661C77.71 170.751 77.71 170.906 77.71 171.051C77.71 171.441 77.71 171.926 77.71 172.491C77.71 173.711 77.71 175.396 77.66 177.251C77.61 179.106 77.525 180.791 77.45 182.006C77.41 182.576 77.38 183.056 77.35 183.446C77.35 183.592 77.34 183.722 77.32 183.836C77.3253 183.88 77.3253 183.926 77.32 183.971C77.3133 183.926 77.3133 183.88 77.32 183.836C77.32 183.716 77.32 183.591 77.32 183.441C77.32 183.051 77.36 182.571 77.39 182.001C77.445 180.786 77.52 179.106 77.57 177.251C77.62 175.396 77.64 173.711 77.645 172.491C77.645 171.926 77.645 171.441 77.645 171.051C77.645 170.906 77.645 170.776 77.645 170.661C77.6584 170.61 77.6804 170.563 77.71 170.521Z" fill="#263238"/>
<path d="M77.63 181.206C77.39 181.264 77.157 181.348 76.935 181.456C76.7291 181.592 76.5396 181.752 76.37 181.931C76.4639 181.69 76.6414 181.491 76.87 181.371C77.0935 181.222 77.3649 181.163 77.63 181.206Z" fill="#263238"/>
<path d="M76.5 178.835C76.4129 178.937 76.3056 179.018 76.185 179.075C76.0784 179.155 75.9554 179.21 75.825 179.235C75.825 179.21 75.95 179.105 76.135 178.99C76.32 178.875 76.5 178.81 76.5 178.835Z" fill="#263238"/>
<path d="M76.185 178.18C76.185 178.18 76.12 178.325 75.99 178.455C75.86 178.585 75.745 178.685 75.73 178.665C75.715 178.645 75.795 178.525 75.92 178.39C76.045 178.255 76.165 178.165 76.185 178.18Z" fill="#263238"/>
<path d="M75.45 177.756C75.494 177.889 75.5077 178.031 75.49 178.171C75.5011 178.312 75.4824 178.453 75.435 178.586C75.3909 178.452 75.3773 178.31 75.395 178.171C75.3838 178.03 75.4026 177.889 75.45 177.756Z" fill="#263238"/>
<path d="M74.925 177.601C75.0114 177.74 75.0532 177.902 75.045 178.066C75.0703 178.228 75.0441 178.394 74.97 178.541C74.9577 178.384 74.9577 178.227 74.97 178.071C74.942 177.915 74.927 177.758 74.925 177.601Z" fill="#263238"/>
<path d="M75.81 179.086C75.8396 179.251 75.8396 179.421 75.81 179.586C75.7846 179.77 75.7393 179.951 75.675 180.126C75.644 180.235 75.5986 180.339 75.54 180.436C75.5029 180.494 75.446 180.537 75.38 180.556C75.3412 180.564 75.3011 180.56 75.2646 180.544C75.2281 180.529 75.1969 180.504 75.175 180.471C75.0867 180.274 75.0688 180.053 75.1243 179.844C75.1799 179.636 75.3054 179.453 75.48 179.326C75.5826 179.25 75.7002 179.197 75.825 179.171C75.8708 179.159 75.9191 179.159 75.965 179.171C75.8052 179.215 75.6557 179.289 75.525 179.391C75.3863 179.5 75.2835 179.648 75.23 179.816C75.1932 179.914 75.1764 180.019 75.1807 180.123C75.185 180.228 75.2103 180.331 75.255 180.426C75.31 180.506 75.405 180.476 75.465 180.391C75.5163 180.3 75.5598 180.204 75.595 180.106C75.6571 179.943 75.7073 179.776 75.745 179.606C75.785 179.276 75.795 179.086 75.81 179.086Z" fill="#263238"/>
<path d="M75.83 179.215C75.7219 179.275 75.5954 179.293 75.475 179.265C75.3414 179.246 75.2145 179.194 75.105 179.115C75.0303 179.071 74.9685 179.008 74.9256 178.933C74.8826 178.857 74.86 178.772 74.86 178.685C74.8659 178.66 74.8768 178.636 74.892 178.614C74.9073 178.593 74.9266 178.575 74.9489 178.561C74.9712 178.547 74.996 178.537 75.0219 178.533C75.0479 178.529 75.0744 178.529 75.1 178.535C75.1805 178.549 75.2572 178.58 75.325 178.625C75.4349 178.696 75.5357 178.78 75.625 178.875C75.7142 178.958 75.7827 179.061 75.825 179.175C75.825 179.175 75.735 179.07 75.575 178.925C75.4853 178.84 75.3863 178.764 75.28 178.7C75.17 178.63 74.98 178.575 74.955 178.7C74.93 178.825 75.06 178.96 75.16 179.04C75.2563 179.114 75.367 179.167 75.485 179.195C75.5988 179.215 75.7146 179.222 75.83 179.215Z" fill="#263238"/>
<path d="M75.535 170.625C75.5242 170.82 75.5242 171.015 75.535 171.21C75.5801 171.678 75.7531 172.124 76.035 172.5C76.318 172.875 76.701 173.163 77.14 173.33C77.3253 173.395 77.5139 173.45 77.705 173.495C77.6522 173.506 77.5978 173.506 77.545 173.495C77.4001 173.48 77.2574 173.449 77.12 173.4C76.6578 173.245 76.2533 172.954 75.9597 172.565C75.6661 172.176 75.4971 171.707 75.475 171.22C75.4681 171.075 75.4765 170.929 75.5 170.785C75.5 170.675 75.53 170.62 75.535 170.625Z" fill="#263238"/>
<path d="M76.94 174.485C77.0205 174.866 77.0491 175.257 77.025 175.645C77.0338 176.036 76.9918 176.426 76.9 176.805C76.87 176.805 76.9 176.305 76.93 175.645C76.96 174.985 76.915 174.49 76.94 174.485Z" fill="#263238"/>
<path d="M77 172.931C77 172.931 77.105 172.981 77.225 173.036C77.345 173.091 77.445 173.121 77.445 173.151C77.445 173.181 77.315 173.186 77.18 173.121C77.045 173.056 76.965 172.951 77 172.931Z" fill="#263238"/>
<path d="M76.27 172.326C76.27 172.326 76.37 172.361 76.45 172.446C76.53 172.531 76.585 172.616 76.565 172.631C76.545 172.646 76.465 172.596 76.38 172.516C76.295 172.436 76.25 172.371 76.27 172.326Z" fill="#263238"/>
<path d="M75.96 171.481C75.99 171.481 75.985 171.591 76.02 171.711C76.055 171.831 76.12 171.911 76.1 171.931C76.08 171.951 75.975 171.886 75.93 171.736C75.885 171.586 75.935 171.471 75.96 171.481Z" fill="#263238"/>
<path d="M75.82 170.871C75.845 170.871 75.885 170.906 75.91 170.976C75.935 171.046 75.91 171.101 75.91 171.111C75.91 171.121 75.845 171.071 75.825 171.006C75.805 170.941 75.795 170.871 75.82 170.871Z" fill="#263238"/>
<path d="M34.205 111.96C34.42 111.46 47.13 122.75 49.705 121.865C50.91 121.45 54.27 117.99 57.51 114.41V114.33C59.3225 111.282 61.6544 108.575 64.4 106.33C65.0526 105.804 65.8188 105.436 66.6379 105.257C67.457 105.078 68.3067 105.091 69.1196 105.297C69.9325 105.503 70.6864 105.895 71.3217 106.442C71.957 106.989 72.4563 107.677 72.78 108.45C75.28 114.415 74.965 121.865 77.675 133.08L77.865 133.765L77.825 133.695C78.235 135.345 78.715 137.07 79.27 138.885L77.865 133.765C78.2054 134.357 78.5969 134.917 79.035 135.44C79.5616 135.955 79.9679 136.58 80.225 137.27C80.405 137.985 80.03 138.9 79.3 138.98V139.04L60.34 140.31V140.37C59.9843 140.403 59.6274 140.324 59.3184 140.145C59.0094 139.966 58.7636 139.695 58.615 139.37C58.3296 138.714 58.2836 137.977 58.485 137.29C58.6861 136.606 58.9385 135.937 59.24 135.29C59.33 135.065 59.415 134.835 59.49 134.605L58.935 128.97C54.985 131.83 51.125 134.105 49.19 133.77C44.315 132.925 29.05 117.495 29.05 117.495C29.05 117.495 34 112.435 34.205 111.96Z" fill="#455A64"/>
<path d="M71.665 112.69C71.595 112.962 71.4995 113.227 71.38 113.48C71.185 113.98 70.88 114.7 70.44 115.565C70 116.43 69.44 117.445 68.785 118.535C68.0416 119.707 67.2389 120.84 66.38 121.93C65.5064 123.008 64.5768 124.04 63.595 125.02C62.68 125.92 61.82 126.685 61.065 127.29C60.31 127.895 59.69 128.37 59.24 128.67C59.0168 128.841 58.7792 128.991 58.53 129.12C58.7326 128.926 58.95 128.747 59.18 128.585C59.61 128.26 60.215 127.775 60.95 127.15C61.685 126.525 62.525 125.75 63.425 124.855C64.325 123.96 65.255 122.91 66.175 121.765C67.095 120.62 67.89 119.47 68.58 118.405C69.27 117.34 69.835 116.34 70.275 115.485C70.715 114.63 71.065 113.93 71.275 113.44C71.3851 113.181 71.5155 112.93 71.665 112.69Z" fill="#263238"/>
<path d="M49.59 126.031C49.4026 125.38 49.2968 124.708 49.275 124.031C49.1696 123.36 49.1494 122.677 49.215 122.001C49.4056 122.651 49.5131 123.323 49.535 124.001C49.6404 124.672 49.6589 125.355 49.59 126.031Z" fill="#263238"/>
<path d="M50.605 125.816C50.1323 124.668 49.8243 123.459 49.69 122.226C50.1627 123.373 50.4707 124.582 50.605 125.816Z" fill="#263238"/>
<path d="M40.2 79.0664C40.0413 78.3964 39.657 77.8013 39.1115 77.3811C38.5659 76.9609 37.8925 76.7412 37.2041 76.7588C36.5158 76.7764 35.8544 77.0302 35.3311 77.4777C34.8077 77.9252 34.4543 78.5392 34.33 79.2164C34.2058 78.5392 33.8523 77.9252 33.3289 77.4777C32.8056 77.0302 32.1443 76.7764 31.4559 76.7588C30.7675 76.7412 30.0941 76.9609 29.5486 77.3811C29.0031 77.8013 28.6187 78.3964 28.46 79.0664C28.3169 80.0899 28.5709 81.1294 29.17 81.9714C29.7682 82.7998 30.4707 83.5476 31.26 84.1964C32.325 85.1514 33.305 86.0514 34.37 87.0064C35.435 86.0514 36.34 85.1514 37.405 84.1964C38.1961 83.5479 38.9003 82.8001 39.5 81.9714C40.0999 81.1299 40.3507 80.0888 40.2 79.0664Z" fill="#01a809"/>
<path d="M45.695 86.8364C45.695 86.8364 45.74 86.9614 45.81 87.1964L46.125 88.2464C46.395 89.1814 46.785 90.5364 47.29 92.2714L47.32 92.3764L47.215 92.3464L42.215 91.1214H42.29C40.8783 92.2327 39.259 93.0511 37.527 93.5285C35.795 94.006 33.9851 94.1329 32.2034 93.9019C30.4217 93.6709 28.704 93.0865 27.151 92.1831C25.598 91.2797 24.241 90.0754 23.1595 88.6408C22.0779 87.2062 21.2936 85.5701 20.8525 83.8284C20.4114 82.0868 20.3224 80.2746 20.5907 78.4981C20.859 76.7217 21.4791 75.0166 22.4149 73.4829C23.3506 71.9492 24.583 70.6176 26.04 69.5664C28.3624 67.9154 31.1509 67.0484 34 67.0914C35.3176 67.1203 36.6248 67.3306 37.885 67.7164C39.0639 68.1066 40.188 68.646 41.23 69.3214C43.0868 70.5644 44.6166 72.2366 45.69 74.1964C46.5497 75.822 47.0734 77.6041 47.23 79.4364C47.3499 80.8164 47.2521 82.2067 46.94 83.5564C46.744 84.4065 46.4608 85.2343 46.095 86.0264C45.97 86.3014 45.87 86.5014 45.795 86.6364C45.72 86.7714 45.68 86.8364 45.68 86.8364C45.68 86.8364 45.68 86.7664 45.77 86.6264C45.86 86.4864 45.93 86.2814 46.05 86.0064C46.3906 85.2098 46.6551 84.3827 46.84 83.5364C47.1342 82.1958 47.2168 80.8175 47.085 79.4514C46.9036 77.4468 46.2693 75.5096 45.23 73.7859C44.1906 72.0623 42.7733 70.5972 41.085 69.5014C38.9797 68.1149 36.5207 67.3617 34 67.3314C32.6465 67.328 31.2996 67.5182 30 67.8964C28.6474 68.3188 27.3675 68.9461 26.205 69.7564C24.7642 70.7889 23.5445 72.0991 22.6177 73.6101C21.6909 75.121 21.0757 76.8021 20.8083 78.5543C20.5409 80.3066 20.6268 82.0946 21.0608 83.8132C21.4948 85.5318 22.2683 87.1462 23.3356 88.5614C24.4029 89.9766 25.7425 91.164 27.2756 92.0537C28.8087 92.9434 30.5043 93.5174 32.2625 93.7419C34.0208 93.9665 35.8062 93.8371 37.5137 93.3613C39.2212 92.8854 40.8163 92.0729 42.205 90.9714H42.235H42.275L47.275 92.2414L47.2 92.3214C46.7 90.5714 46.345 89.2014 46.09 88.2614L45.81 87.2114C45.715 86.9564 45.695 86.8364 45.695 86.8364Z" fill="#263238"/>
</svg>
