<svg width="31" height="31" viewBox="0 0 31 31" fill="none" xmlns="http://www.w3.org/2000/svg">
<path fill-rule="evenodd" clip-rule="evenodd" d="M11.8836 10.4824H19.5071C20.3381 10.4824 21.0542 10.4823 21.6276 10.5594C22.2422 10.6421 22.8312 10.8284 23.3091 11.3062C23.7868 11.784 23.9732 12.3731 24.0558 12.9877C24.1329 13.561 24.1328 14.277 24.1328 15.1082V20.2317C24.1328 21.0627 24.1329 21.7788 24.0558 22.3522C23.9732 22.9668 23.7868 23.5558 23.3091 24.0337C22.8312 24.5114 22.2422 24.6978 21.6276 24.7804C21.0542 24.8575 20.3382 24.8574 19.5072 24.8574H11.8836C11.0526 24.8574 10.3364 24.8575 9.76301 24.7804C9.14846 24.6978 8.55939 24.5114 8.08158 24.0337C7.60378 23.5558 7.41745 22.9668 7.33483 22.3522C7.25773 21.7788 7.25777 21.0627 7.25782 20.2317V15.1082C7.25777 14.2772 7.25773 13.561 7.33483 12.9877C7.41745 12.3731 7.60378 11.784 8.08158 11.3062C8.55939 10.8284 9.14846 10.6421 9.76301 10.5594C10.3364 10.4823 11.0525 10.4824 11.8836 10.4824ZM10.0129 12.4177C9.60623 12.4724 9.47878 12.5606 9.4074 12.632C9.33604 12.7034 9.24778 12.8308 9.1931 13.2374C9.13482 13.671 9.13282 14.2595 9.13282 15.1699V20.1699C9.13282 21.0803 9.13482 21.6688 9.1931 22.1024C9.24778 22.509 9.33604 22.6364 9.4074 22.7078C9.47878 22.7792 9.60623 22.8674 10.0129 22.9222C10.4465 22.9804 11.0349 22.9824 11.9453 22.9824H19.4453C20.3557 22.9824 20.9442 22.9804 21.3778 22.9222C21.7844 22.8674 21.9118 22.7792 21.9832 22.7078C22.0546 22.6364 22.1428 22.509 22.1976 22.1024C22.2558 21.6688 22.2578 21.0803 22.2578 20.1699V15.1699C22.2578 14.2595 22.2558 13.671 22.1976 13.2374C22.1428 12.8308 22.0546 12.7034 21.9832 12.632C21.9118 12.5606 21.7844 12.4724 21.3778 12.4177C20.9442 12.3594 20.3557 12.3574 19.4453 12.3574H11.9453C11.0349 12.3574 10.4465 12.3594 10.0129 12.4177Z" fill="#C7C7C7"/>
<path d="M9.44531 6.73242C8.92755 6.73242 8.50781 7.15216 8.50781 7.66992C8.50781 8.18768 8.92755 8.60742 9.44531 8.60742H15.6953C16.2131 8.60742 16.6328 8.18768 16.6328 7.66992C16.6328 7.15216 16.2131 6.73242 15.6953 6.73242H9.44531Z" fill="#C7C7C7"/>
<path fill-rule="evenodd" clip-rule="evenodd" d="M14.3748 1.73242H17.0158C19.3131 1.7324 21.1326 1.73238 22.5566 1.92385C24.0221 2.12087 25.2083 2.53602 26.1438 3.47147C27.0792 4.40693 27.4943 5.59312 27.6914 7.05865C27.8828 8.48265 27.8828 10.3022 27.8828 12.5993V17.7404C27.8828 20.0377 27.8828 21.8572 27.6914 23.2812C27.4943 24.7467 27.0792 25.9329 26.1438 26.8684C25.2083 27.8038 24.0221 28.2189 22.5566 28.416C21.1326 28.6074 19.3131 28.6074 17.0159 28.6074H14.3748C12.0776 28.6074 10.258 28.6074 8.83404 28.416C7.36851 28.2189 6.18233 27.8038 5.24686 26.8684C4.31141 25.9329 3.89626 24.7467 3.69924 23.2812C3.50778 21.8572 3.50779 20.0377 3.50781 17.7404V12.5994C3.50779 10.3022 3.50778 8.48266 3.69924 7.05865C3.89626 5.59312 4.31141 4.40693 5.24686 3.47147C6.18233 2.53602 7.36851 2.12087 8.83404 1.92385C10.2581 1.73238 12.0776 1.7324 14.3748 1.73242ZM9.08388 3.78212C7.82626 3.9512 7.1017 4.26829 6.57269 4.7973C6.04368 5.32631 5.72659 6.05087 5.55751 7.30848C5.3848 8.59306 5.38281 10.2864 5.38281 12.6699V17.6699C5.38281 20.0534 5.3848 21.7468 5.55751 23.0314C5.72659 24.2889 6.04368 25.0135 6.57269 25.5425C7.1017 26.0715 7.82626 26.3887 9.08388 26.5577C10.3685 26.7304 12.0618 26.7324 14.4453 26.7324H16.9453C19.3288 26.7324 21.0222 26.7304 22.3068 26.5577C23.5643 26.3887 24.2889 26.0715 24.8179 25.5425C25.3469 25.0135 25.6641 24.2889 25.8331 23.0314C26.0058 21.7468 26.0078 20.0534 26.0078 17.6699V12.6699C26.0078 10.2864 26.0058 8.59306 25.8331 7.30848C25.6641 6.05087 25.3469 5.32631 24.8179 4.7973C24.2889 4.26829 23.5643 3.9512 22.3068 3.78212C21.0222 3.60941 19.3288 3.60742 16.9453 3.60742H14.4453C12.0618 3.60742 10.3685 3.60941 9.08388 3.78212Z" fill="#C7C7C7"/>
</svg>
