<svg width="31" height="31" viewBox="0 0 31 31" fill="none" xmlns="http://www.w3.org/2000/svg">
<path d="M15.832 9.21777C15.1417 9.21777 14.582 9.63832 14.582 10.1571C14.582 10.6759 15.1417 11.0964 15.832 11.0964H20.832C21.5224 11.0964 22.082 10.6759 22.082 10.1571C22.082 9.63832 21.5224 9.21777 20.832 9.21777H15.832Z" fill="#D9D9D9"/>
<path d="M15.832 21.9512C15.1417 21.9512 14.582 22.3717 14.582 22.8905C14.582 23.4093 15.1417 23.8298 15.832 23.8298H20.832C21.5224 23.8298 22.082 23.4093 22.082 22.8905C22.082 22.3717 21.5224 21.9512 20.832 21.9512H15.832Z" fill="#D9D9D9"/>
<path d="M15.832 6.39941C15.1417 6.39941 14.582 6.81996 14.582 7.33873C14.582 7.85749 15.1417 8.27804 15.832 8.27804H25.832C26.5224 8.27804 27.082 7.85749 27.082 7.33873C27.082 6.81996 26.5224 6.39941 25.832 6.39941H15.832Z" fill="#F5F9FF"/>
<path d="M15.832 19.1338C15.1417 19.1338 14.582 19.5543 14.582 20.0731C14.582 20.5919 15.1417 21.0124 15.832 21.0124H25.832C26.5224 21.0124 27.082 20.5919 27.082 20.0731C27.082 19.5543 26.5224 19.1338 25.832 19.1338H15.832Z" fill="#F5F9FF"/>
<path d="M4.45264 5.08301C3.76227 5.08301 3.20264 5.64265 3.20264 6.33301V12.583C3.20264 13.2734 3.76227 13.833 4.45264 13.833H10.7026C11.393 13.833 11.9526 13.2734 11.9526 12.583V6.33301C11.9526 5.64265 11.393 5.08301 10.7026 5.08301H4.45264Z" fill="white"/>
<path d="M4.45264 16.3271C3.76227 16.3271 3.20264 16.8868 3.20264 17.5771V23.8271C3.20264 24.5175 3.76227 25.0771 4.45264 25.0771H10.7026C11.393 25.0771 11.9526 24.5175 11.9526 23.8271V17.5771C11.9526 16.8868 11.393 16.3271 10.7026 16.3271H4.45264Z" fill="white"/>
</svg>
