<svg width="126" height="138" viewBox="0 0 126 138" fill="none" xmlns="http://www.w3.org/2000/svg">
<path d="M62.7341 128.217C97.2519 128.217 125.234 101.651 125.234 68.8813C125.234 36.1113 97.2519 9.5459 62.7341 9.5459C28.2163 9.5459 0.234131 36.1113 0.234131 68.8813C0.234131 101.651 28.2163 128.217 62.7341 128.217Z" fill="url(#paint0_linear_4445_4016)"/>
<g filter="url(#filter0_d_4445_4016)">
<path d="M98.5675 43.5654H26.9008C24.5996 43.5654 22.7341 45.3365 22.7341 47.5211V130.591C22.7341 132.775 24.5996 134.546 26.9008 134.546H98.5675C100.869 134.546 102.734 132.775 102.734 130.591V47.5211C102.734 45.3365 100.869 43.5654 98.5675 43.5654Z" fill="white"/>
</g>
<path d="M54.4008 55.4316H32.7341C31.3534 55.4316 30.2341 56.4943 30.2341 57.8051C30.2341 59.1159 31.3534 60.1785 32.7341 60.1785H54.4008C55.7815 60.1785 56.9008 59.1159 56.9008 57.8051C56.9008 56.4943 55.7815 55.4316 54.4008 55.4316Z" fill="#01a809"/>
<path d="M69.4008 65.7158H32.7341C31.3534 65.7158 30.2341 66.7784 30.2341 68.0892C30.2341 69.4 31.3534 70.4627 32.7341 70.4627H69.4008C70.7815 70.4627 71.9008 69.4 71.9008 68.0892C71.9008 66.7784 70.7815 65.7158 69.4008 65.7158Z" fill="#786FE9" fill-opacity="0.15"/>
<path d="M54.4008 76.793H32.7341C31.3534 76.793 30.2341 77.8556 30.2341 79.1664C30.2341 80.4772 31.3534 81.5398 32.7341 81.5398H54.4008C55.7815 81.5398 56.9008 80.4772 56.9008 79.1664C56.9008 77.8556 55.7815 76.793 54.4008 76.793Z" fill="#01a809"/>
<path d="M69.4008 87.0771H32.7341C31.3534 87.0771 30.2341 88.1398 30.2341 89.4506C30.2341 90.7614 31.3534 91.824 32.7341 91.824H69.4008C70.7815 91.824 71.9008 90.7614 71.9008 89.4506C71.9008 88.1398 70.7815 87.0771 69.4008 87.0771Z" fill="#786FE9" fill-opacity="0.15"/>
<path d="M54.4008 98.1533H32.7341C31.3534 98.1533 30.2341 99.2159 30.2341 100.527C30.2341 101.838 31.3534 102.9 32.7341 102.9H54.4008C55.7815 102.9 56.9008 101.838 56.9008 100.527C56.9008 99.2159 55.7815 98.1533 54.4008 98.1533Z" fill="#01a809"/>
<path d="M69.4008 108.438H32.7341C31.3534 108.438 30.2341 109.501 30.2341 110.812C30.2341 112.123 31.3534 113.185 32.7341 113.185H69.4008C70.7815 113.185 71.9008 112.123 71.9008 110.812C71.9008 109.501 70.7815 108.438 69.4008 108.438Z" fill="#786FE9" fill-opacity="0.15"/>
<g filter="url(#filter1_d_4445_4016)">
<path d="M107.457 9.38574H21.4568C18.6954 9.38574 16.4568 11.004 16.4568 13.0002V34.6869C16.4568 36.6832 18.6954 38.3014 21.4568 38.3014H107.457C110.218 38.3014 112.457 36.6832 112.457 34.6869V13.0002C112.457 11.004 110.218 9.38574 107.457 9.38574Z" fill="#01a809"/>
</g>
<path d="M54.4568 17.3379H28.4568C26.7999 17.3379 25.4568 18.3088 25.4568 19.5066C25.4568 20.7043 26.7999 21.6752 28.4568 21.6752H54.4568C56.1136 21.6752 57.4568 20.7043 57.4568 19.5066C57.4568 18.3088 56.1136 17.3379 54.4568 17.3379Z" fill="white"/>
<path d="M72.4568 26.7354H28.4568C26.7999 26.7354 25.4568 27.7063 25.4568 28.904C25.4568 30.1018 26.7999 31.0727 28.4568 31.0727H72.4568C74.1136 31.0727 75.4568 30.1018 75.4568 28.904C75.4568 27.7063 74.1136 26.7354 72.4568 26.7354Z" fill="white"/>
<defs>
<filter id="filter0_d_4445_4016" x="16.7341" y="34.5654" width="92" height="102.981" filterUnits="userSpaceOnUse" color-interpolation-filters="sRGB">
<feFlood flood-opacity="0" result="BackgroundImageFix"/>
<feColorMatrix in="SourceAlpha" type="matrix" values="0 0 0 0 0 0 0 0 0 0 0 0 0 0 0 0 0 0 127 0" result="hardAlpha"/>
<feOffset dy="-3"/>
<feGaussianBlur stdDeviation="3"/>
<feColorMatrix type="matrix" values="0 0 0 0 0.788235 0 0 0 0 0.803922 0 0 0 0 0.85098 0 0 0 0.349 0"/>
<feBlend mode="normal" in2="BackgroundImageFix" result="effect1_dropShadow_4445_4016"/>
<feBlend mode="normal" in="SourceGraphic" in2="effect1_dropShadow_4445_4016" result="shape"/>
</filter>
<filter id="filter1_d_4445_4016" x="10.4568" y="0.385742" width="108" height="40.916" filterUnits="userSpaceOnUse" color-interpolation-filters="sRGB">
<feFlood flood-opacity="0" result="BackgroundImageFix"/>
<feColorMatrix in="SourceAlpha" type="matrix" values="0 0 0 0 0 0 0 0 0 0 0 0 0 0 0 0 0 0 127 0" result="hardAlpha"/>
<feOffset dy="-3"/>
<feGaussianBlur stdDeviation="3"/>
<feColorMatrix type="matrix" values="0 0 0 0 0.788235 0 0 0 0 0.803922 0 0 0 0 0.85098 0 0 0 0.349 0"/>
<feBlend mode="normal" in2="BackgroundImageFix" result="effect1_dropShadow_4445_4016"/>
<feBlend mode="normal" in="SourceGraphic" in2="effect1_dropShadow_4445_4016" result="shape"/>
</filter>
<linearGradient id="paint0_linear_4445_4016" x1="62.7341" y1="9.5459" x2="62.7341" y2="128.217" gradientUnits="userSpaceOnUse">
<stop stop-color="#E3ECFA"/>
<stop offset="1" stop-color="#DAE7FF"/>
</linearGradient>
</defs>
</svg>
