<svg width="60" height="60" viewBox="0 0 60 60" fill="none" xmlns="http://www.w3.org/2000/svg">
<path d="M23.1375 35.0114C25.5537 35.0114 27.5125 36.9701 27.5125 39.3864V48.1336C27.5125 50.5499 25.5537 52.5086 23.1375 52.5086H9.375C6.95875 52.5086 5 50.5499 5 48.1336V39.3864C5 36.9701 6.95875 35.0114 9.375 35.0114H23.1375ZM50.625 35.0114C53.0412 35.0114 55 36.9701 55 39.3864V48.1336C55 50.5499 53.0412 52.5086 50.625 52.5086H36.8625C34.4463 52.5086 32.4875 50.5499 32.4875 48.1336V39.3864C32.4875 36.9701 34.4463 35.0114 36.8625 35.0114H50.625ZM23.1375 38.7614H9.375C9.02982 38.7614 8.75 39.0412 8.75 39.3864V48.1336C8.75 48.4788 9.02982 48.7586 9.375 48.7586H23.1375C23.4826 48.7586 23.7625 48.4788 23.7625 48.1336V39.3864C23.7625 39.0412 23.4826 38.7614 23.1375 38.7614ZM50.625 38.7614H36.8625C36.5174 38.7614 36.2375 39.0412 36.2375 39.3864V48.1336C36.2375 48.4788 36.5174 48.7586 36.8625 48.7586H50.625C50.9702 48.7586 51.25 48.4788 51.25 48.1336V39.3864C51.25 39.0412 50.9702 38.7614 50.625 38.7614ZM50.625 7.5C53.0412 7.5 55 9.45875 55 11.875V25.625C55 28.0412 53.0412 30 50.625 30H9.375C6.95875 30 5 28.0412 5 25.625V11.875C5 9.57957 6.76778 7.69702 9.01618 7.5145L9.375 7.5H50.625ZM50.625 11.25H9.375L9.23169 11.2665C8.95558 11.3313 8.75 11.5791 8.75 11.875V25.625C8.75 25.9702 9.02982 26.25 9.375 26.25H50.625C50.9702 26.25 51.25 25.9702 51.25 25.625V11.875C51.25 11.5298 50.9702 11.25 50.625 11.25Z" fill="black"/>
</svg>
