<svg width="21" height="20" viewBox="0 0 21 20" fill="none" xmlns="http://www.w3.org/2000/svg">
<g id="female_svgrepo.com">
<path id="Vector" fill-rule="evenodd" clip-rule="evenodd" d="M17.015 7.49992C17.015 10.9002 14.4694 13.7058 11.1801 14.1152C11.1811 14.1322 11.1816 14.1493 11.1816 14.1666V15.8333H12.015C12.4752 15.8333 12.8483 16.2063 12.8483 16.6666C12.8483 17.1268 12.4752 17.4999 12.015 17.4999H11.1816V18.3333C11.1816 18.7935 10.8086 19.1666 10.3483 19.1666C9.88806 19.1666 9.51497 18.7935 9.51497 18.3333V17.4999H8.68164C8.22141 17.4999 7.84831 17.1268 7.84831 16.6666C7.84831 16.2063 8.22141 15.8333 8.68164 15.8333H9.51497V14.1666C9.51497 14.1493 9.51547 14.1322 9.51656 14.1152C6.22719 13.7058 3.68164 10.9002 3.68164 7.49992C3.68164 3.81802 6.66641 0.833252 10.3483 0.833252C14.0302 0.833252 17.015 3.81802 17.015 7.49992ZM5.35135 7.49992C5.35135 10.2597 7.58857 12.4968 10.3483 12.4968C13.1081 12.4968 15.3452 10.2597 15.3452 7.49992C15.3452 4.74018 13.1081 2.50296 10.3483 2.50296C7.58857 2.50296 5.35135 4.74018 5.35135 7.49992Z" fill="#FF048C"/>
</g>
</svg>
