<svg width="21" height="19" viewBox="0 0 21 19" fill="none" xmlns="http://www.w3.org/2000/svg">
<path d="M19.9222 2.39948H8.00665C7.67906 1.43379 6.75877 0.736084 5.67675 0.736084C4.59473 0.736084 3.67444 1.43379 3.34685 2.39948H1.48693C1.05487 2.39948 0.70459 2.74714 0.70459 3.17597C0.70459 3.6048 1.05487 3.95246 1.48693 3.95246H3.3469C3.67449 4.91815 4.59478 5.61585 5.6768 5.61585C6.75883 5.61585 7.67911 4.91815 8.0067 3.95246H19.9223C20.3543 3.95246 20.7046 3.6048 20.7046 3.17597C20.7046 2.74714 20.3543 2.39948 19.9222 2.39948ZM5.67675 4.06288C5.18404 4.06288 4.78317 3.665 4.78317 3.17597C4.78317 2.68694 5.18404 2.28906 5.67675 2.28906C6.16947 2.28906 6.57034 2.68694 6.57034 3.17597C6.57034 3.665 6.16947 4.06288 5.67675 4.06288Z" fill="white"/>
<path d="M19.9222 9.05329H18.0622C17.7346 8.08759 16.8143 7.38989 15.7323 7.38989C14.6504 7.38989 13.7301 8.08759 13.4025 9.05329H1.48693C1.05487 9.05329 0.70459 9.40095 0.70459 9.82978C0.70459 10.2586 1.05487 10.6063 1.48693 10.6063H13.4025C13.7301 11.572 14.6504 12.2697 15.7324 12.2697C16.8143 12.2697 17.7347 11.572 18.0623 10.6063H19.9223C20.3543 10.6063 20.7046 10.2586 20.7046 9.82978C20.7046 9.40095 20.3543 9.05329 19.9222 9.05329ZM15.7324 10.7167C15.2397 10.7167 14.8388 10.3188 14.8388 9.82978C14.8388 9.34074 15.2397 8.94287 15.7324 8.94287C16.2251 8.94287 16.626 9.34074 16.626 9.82978C16.626 10.3188 16.2251 10.7167 15.7324 10.7167Z" fill="white"/>
<path d="M19.9222 15.7066H11.3585C11.031 14.7409 10.1107 14.0432 9.02864 14.0432C7.94662 14.0432 7.02633 14.7409 6.69874 15.7066H1.48693C1.05487 15.7066 0.70459 16.0543 0.70459 16.4831C0.70459 16.9119 1.05487 17.2596 1.48693 17.2596H6.69874C7.02633 18.2253 7.94662 18.923 9.02864 18.923C10.1107 18.923 11.031 18.2253 11.3585 17.2596H19.9223C20.3543 17.2596 20.7046 16.9119 20.7046 16.4831C20.7046 16.0543 20.3543 15.7066 19.9222 15.7066ZM9.02864 17.3701C8.53593 17.3701 8.13506 16.9722 8.13506 16.4831C8.13506 15.9941 8.53593 15.5962 9.02864 15.5962C9.52136 15.5962 9.92223 15.9941 9.92223 16.4831C9.92223 16.9721 9.52136 17.3701 9.02864 17.3701Z" fill="white"/>
</svg>
