<svg width="15" height="18" viewBox="0 0 15 18" fill="none" xmlns="http://www.w3.org/2000/svg">
<path d="M3.91428 5.13965C4.7402 3.86933 5.55817 2.56439 6.0686 1.28725C6.28497 0.745751 6.95197 0.491309 7.41581 0.844676C10.2251 2.98473 14.4386 7.12155 14.4386 10.9731C14.4386 11.9511 14.2726 12.7777 13.9967 13.473M2.32657 7.63963C1.61633 8.85122 1.10522 9.98405 1.10522 10.9731C1.10522 13.5622 2.97654 15.3971 4.50641 16.2827C4.85692 16.4856 5.19812 16.0624 5.0142 15.7016C4.60922 14.907 4.21633 13.8809 4.21633 13.0565C4.21633 11.9136 5.0871 10.9952 5.70907 10.4063C5.86859 10.2553 6.11856 10.2576 6.25689 10.4283C6.51364 10.7452 6.77039 11.1464 7.02714 11.4711C7.17789 11.6616 7.45864 11.6448 7.59089 11.441C8.41264 10.1746 8.60322 8.55888 8.64747 7.35122C8.66081 6.98672 9.08739 6.80763 9.33197 7.07822C10.4018 8.26188 11.7719 10.181 11.7719 11.8065C11.7719 13.3197 10.9238 14.9283 10.1901 15.9827C9.97506 16.2917 10.2114 16.7109 10.5709 16.599C10.9997 16.4656 11.4606 16.2654 11.9096 15.9827" stroke="black" stroke-opacity="0.5" stroke-linecap="round"/>
</svg>
