<svg width="44" height="44" viewBox="0 0 44 44" fill="none" xmlns="http://www.w3.org/2000/svg">
<g clip-path="url(#clip0_174_2079)">
<path d="M26.8571 34.7608H6.82138V6.02462H26.8516V8.17435H29.5439V5.43779C29.5457 2.86 27.4292 0.749023 24.8532 0.749023H8.82346C6.24379 0.749023 4.13281 2.86 4.13281 5.43779V39.0584C4.13281 41.6399 6.24379 43.749 8.82346 43.749H24.8532C27.4292 43.749 29.5457 41.6399 29.5457 39.0584V34.7109H26.8571V34.7608ZM16.8355 41.4019C15.6472 41.4019 14.6877 40.4405 14.6877 39.254C14.6877 38.0638 15.6472 37.1043 16.8355 37.1043C18.0257 37.1043 18.9871 38.0656 18.9871 39.254C18.9871 40.4405 18.0258 41.4019 16.8355 41.4019Z" fill="#01a809"/>
<path d="M15.1272 8.90869H9.11719V12.5734H15.1272V8.90869Z" fill="#01a809"/>
<path d="M15.1272 18.292H9.11719V21.9567H15.1272V18.292Z" fill="#01a809"/>
<path d="M15.1272 28.1123H9.11719V31.7751H15.1272V28.1123Z" fill="#01a809"/>
<path d="M36.4577 19.9029C36.2455 18.792 35.8155 17.7642 35.2066 16.8655L37.3619 14.7084L35.1605 12.5144L33.0089 14.6678C32.1139 14.0552 31.0807 13.6308 29.9735 13.4167V10.3628H26.8587V13.4167C25.7497 13.6308 24.7256 14.057 23.8215 14.6678L21.6736 12.5144L19.4722 14.7102L21.6238 16.8673C21.0167 17.766 20.5887 18.7938 20.3764 19.9028H17.3262V23.0157H20.3763C20.5886 24.121 21.0185 25.1489 21.6255 26.0512L19.4721 28.2046L21.6735 30.3967L23.8269 28.2451C24.7275 28.8577 25.7552 29.284 26.8642 29.4999V32.5483H29.9789V29.4981C31.086 29.2859 32.1121 28.8559 33.0144 28.247L35.166 30.3986L37.3674 28.2046L35.2121 26.0512C35.821 25.1525 36.2492 24.1229 36.4632 23.0139H39.5152V19.9029H36.4577ZM28.4198 24.8463C26.5469 24.8463 25.0263 23.3332 25.0263 21.4584C25.0263 19.5855 26.5468 18.0631 28.4198 18.0631C30.2946 18.0631 31.8077 19.5836 31.8077 21.4584C31.8077 23.335 30.2908 24.8463 28.4198 24.8463Z" fill="#01a809"/>
</g>
<defs>
<clipPath id="clip0_174_2079">
<rect width="43" height="43" fill="white" transform="translate(0.324219 0.749023)"/>
</clipPath>
</defs>
</svg>
