<svg width="89" height="90" viewBox="0 0 89 90" fill="none" xmlns="http://www.w3.org/2000/svg">
<g clip-path="url(#clip0_174_2073)">
<path d="M19.929 7.35155C24.8744 6.70288 30.0129 7.81624 34.2457 10.4849C36.6349 11.9093 38.5459 13.971 40.5057 15.9227C41.9272 17.3301 43.3338 18.7545 44.7591 20.1581L44.8116 20.3041C43.7469 21.3642 42.5388 23.484 41.1874 26.6634C38.3529 27.6719 36.4185 28.6899 35.384 29.7174C33.0754 27.4698 30.8418 25.1426 28.5426 22.8836C26.3559 20.8124 23.0515 19.9779 20.1878 20.9281C16.9265 21.8556 14.4378 25.0098 14.2653 28.4333C14.1528 30.2143 14.6122 32.0238 15.5649 33.526C16.1576 34.4933 17.024 35.2311 17.8004 36.0391C19.6664 37.9358 21.5774 39.7889 23.4153 41.7121C22.4339 42.6876 21.2717 44.5759 19.929 47.377C17.0727 48.7461 15.0911 49.9911 13.984 51.1122C11.5029 48.7527 9.13049 46.2661 6.67186 43.88C3.74438 40.7998 1.78648 36.8035 1.11134 32.5871C0.368683 28.0635 1.07383 23.3009 3.14425 19.2173C4.88274 15.7938 7.51391 12.8197 10.7152 10.7315C13.4983 8.96185 16.6508 7.72141 19.929 7.35155Z" fill="#EA4335"/>
<path d="M44.8532 63.067L66.3057 41.6836L72.106 45.1678L75.7352 51.1329L44.8532 82.032L23.4307 60.5975L27.5416 54.7466L32.9182 51.1254L44.8532 63.067Z" fill="#34A853"/>
<path d="M35.4032 29.7383L40.7991 32.6902L44.8532 39.2142L23.4307 60.5975L13.9844 51.1122L35.4032 29.7383Z" fill="#FBBC05"/>
<path d="M70.7198 7.48253C77.0061 8.55986 82.7879 12.5296 85.9573 18.1458C89.5674 24.3157 89.7644 32.3217 86.5612 38.706C85.2334 41.4486 83.2061 43.7626 81.0476 45.866C79.2566 47.5977 77.5556 49.4451 75.7346 51.1331C72.584 47.9922 69.4295 44.8532 66.3052 41.6838C68.5312 39.4096 70.793 37.1734 73.0265 34.9069C74.4668 33.435 75.3689 31.417 75.442 29.3401C75.5414 26.9825 74.6206 24.5907 72.9309 22.9558C71.2093 21.3076 68.7975 20.3706 66.4233 20.5697C64.381 20.6684 62.41 21.6053 60.9697 23.0658C55.5948 28.4448 50.2331 33.839 44.8526 39.2143C41.6888 36.0696 38.5213 32.9286 35.4025 29.7384C35.3988 29.7327 35.3894 29.7232 35.3838 29.7175C38.5344 26.588 41.6645 23.4376 44.8114 20.3042C47.0918 18.032 49.3648 15.7502 51.6471 13.4761C54.6027 10.4736 58.4998 8.50675 62.5713 7.60392C65.2549 7.09371 68.023 7.03681 70.7198 7.48253Z" fill="#4285F4"/>
</g>
<defs>
<clipPath id="clip0_174_2073">
<rect width="88" height="89" fill="white" transform="translate(0.824219 0.218018)"/>
</clipPath>
</defs>
</svg>
