<svg width="47" height="48" viewBox="0 0 47 48" fill="none" xmlns="http://www.w3.org/2000/svg">
<g clip-path="url(#clip0_174_2088)">
<path d="M23.7722 16.8569C23.5604 16.0995 22.9251 15.5454 22.1596 15.4508C21.3942 15.3561 20.6477 15.7393 20.2653 16.4233L16.9837 22.2907H16.1794C15.1208 22.2907 14.2627 23.1675 14.2627 24.2491C14.2627 25.3307 15.1208 26.2074 16.1794 26.2074H18.096C18.7838 26.2074 19.4189 25.8308 19.7602 25.2206L21.3363 22.4026L23.9198 31.6412C24.122 32.3642 24.7114 32.9051 25.4367 33.033C26.1617 33.1609 26.8947 32.8534 27.3223 32.2414L31.5409 26.2072C32.5864 26.1917 33.4294 25.3211 33.4294 24.2491C33.4294 23.1675 32.5713 22.2907 31.5127 22.2907H30.5544C29.9353 22.2907 29.3545 22.5962 28.9948 23.1109L26.5136 26.66L23.7722 16.8569Z" fill="#01a809"/>
<path fill-rule="evenodd" clip-rule="evenodd" d="M14.2627 6.62402V8.58236C11.0871 8.58236 8.5127 11.2127 8.5127 14.4574V34.0407C8.5127 37.2855 11.0871 39.9157 14.2627 39.9157V41.874C14.2627 45.1188 16.8371 47.749 20.0127 47.749H27.6794C30.8551 47.749 33.4294 45.1188 33.4294 41.874V39.9157C36.6051 39.9157 39.1794 37.2855 39.1794 34.0407V26.2074C40.2379 26.2074 41.096 25.3306 41.096 24.249C41.096 23.1674 40.2379 22.2907 39.1794 22.2907V14.4574C39.1794 11.2127 36.6051 8.58236 33.4294 8.58236V6.62402C33.4294 3.37936 30.8551 0.749023 27.6794 0.749023H20.0127C16.8371 0.749023 14.2627 3.37936 14.2627 6.62402ZM20.0127 4.66569C18.9542 4.66569 18.096 5.54248 18.096 6.62402V8.58236H29.596V6.62402C29.596 5.54248 28.7379 4.66569 27.6794 4.66569H20.0127ZM14.2627 35.999C13.2042 35.999 12.346 35.1223 12.346 34.0407V14.4574C12.346 13.3758 13.2042 12.499 14.2627 12.499H33.4294C34.4879 12.499 35.346 13.3758 35.346 14.4574V34.0407C35.346 35.1223 34.4879 35.999 33.4294 35.999H14.2627ZM18.096 39.9157H29.596V41.874C29.596 42.9556 28.7379 43.8324 27.6794 43.8324H20.0127C18.9542 43.8324 18.096 42.9556 18.096 41.874V39.9157Z" fill="#01a809"/>
</g>
<defs>
<clipPath id="clip0_174_2088">
<rect width="46" height="47" fill="white" transform="translate(0.845703 0.749023)"/>
</clipPath>
</defs>
</svg>
