<svg width="29" height="29" viewBox="0 0 29 29" fill="none" xmlns="http://www.w3.org/2000/svg">
<path d="M10.9037 3.85094C10.8643 3.65867 10.7512 3.4895 10.5885 3.37973C10.4258 3.26996 10.2265 3.22835 10.0335 3.26381C9.84044 3.29928 9.66899 3.409 9.55593 3.56943C9.44288 3.72986 9.39721 3.92822 9.42874 4.12194C9.44274 4.19927 9.45807 4.27594 9.47474 4.35194C7.03274 5.10894 5.64674 6.34294 4.90074 7.75294C4.20574 9.06494 4.11574 10.4429 4.10574 11.4829L3.07274 12.8029C2.88259 13.0459 2.74446 13.3255 2.66692 13.6241C2.58939 13.9228 2.57411 14.2342 2.62203 14.539C2.66996 14.8438 2.78006 15.1355 2.94551 15.3959C3.11095 15.6564 3.32819 15.88 3.58374 16.0529L15.2067 23.9129C16.4885 24.7797 18.0004 25.2429 19.5477 25.2429H22.9137C23.4044 25.243 23.8902 25.1453 24.3426 24.9556C24.7951 24.7658 25.2052 24.4878 25.5491 24.1377C25.8929 23.7877 26.1635 23.3726 26.3451 22.9168C26.5267 22.461 26.6156 21.9735 26.6067 21.4829C26.5687 19.4429 24.8767 17.9999 23.2647 17.3479C22.6227 17.0879 22.0737 16.7209 21.7317 16.2159L17.9367 9.73994L17.9797 9.73194C18.1699 9.69257 18.3373 9.581 18.4469 9.42071C18.5564 9.26041 18.5995 9.06387 18.5672 8.87243C18.5348 8.681 18.4294 8.50957 18.2732 8.39422C18.1171 8.27888 17.9222 8.22859 17.7297 8.25394C17.3771 8.31327 17.0287 8.34394 16.6847 8.34594C14.1657 8.36594 11.9547 6.92494 11.1447 4.73294C11.0395 4.4464 10.9582 4.1513 10.9037 3.85094ZM8.15674 6.53394L10.4067 10.4299C10.5052 10.6006 10.569 10.789 10.5947 10.9843C10.6203 11.1796 10.6072 11.3781 10.5562 11.5684C10.5051 11.7586 10.417 11.937 10.297 12.0932C10.177 12.2495 10.0274 12.3805 9.85674 12.4789L7.94874 13.5809L5.60474 12.0009V11.7429C5.60474 10.6969 5.65874 9.52694 6.22574 8.45494C6.58174 7.78294 7.16474 7.10594 8.15674 6.53394ZM9.62674 14.7139L13.5587 12.4439C13.7294 12.3455 13.9178 12.2816 14.1131 12.256C14.3084 12.2304 14.5069 12.2434 14.6972 12.2945C14.8874 12.3456 15.0658 12.4336 15.222 12.5537C15.3783 12.6737 15.5093 12.8233 15.6077 12.9939L16.4077 14.3809C16.6067 14.7253 16.6608 15.1347 16.558 15.5189C16.4552 15.9032 16.2041 16.2309 15.8597 16.4299L13.8727 17.5769L9.62674 14.7139ZM19.5637 22.2459H24.9937C24.8482 22.6823 24.5689 23.0617 24.1956 23.3304C23.8222 23.5991 23.3737 23.7435 22.9137 23.7429H19.5477C18.3002 23.7429 17.0813 23.3696 16.0477 22.6709L4.42374 14.8109C4.33848 14.7533 4.26601 14.6787 4.21083 14.5918C4.15565 14.5049 4.11895 14.4076 4.103 14.3059C4.08705 14.2042 4.09221 14.1003 4.11814 14.0007C4.14407 13.9011 4.19023 13.8079 4.25374 13.7269L4.67874 13.1849L16.9077 21.4349C17.6925 21.9638 18.6174 22.2462 19.5637 22.2459Z" fill="#01a809"/>
</svg>
