<svg width="301" height="300" viewBox="0 0 301 300" fill="none" xmlns="http://www.w3.org/2000/svg">
<path d="M100.09 41.9404C100.09 41.9404 55.8404 64.4884 33.7784 99.2344C11.7164 133.98 13.4384 178.644 40.2644 211.836C67.0904 245.028 118.348 240.636 161.272 261.666C204.196 282.696 251.578 278.358 271.852 233.832C292.126 189.306 261.544 172.668 256.252 121.14C250.96 69.6124 204.574 -5.84356 100.09 41.9404Z" fill="#01a809"/>
<path opacity="0.7" d="M100.09 41.9404C100.09 41.9404 55.8404 64.4884 33.7784 99.2344C11.7164 133.98 13.4384 178.644 40.2644 211.836C67.0904 245.028 118.348 240.636 161.272 261.666C204.196 282.696 251.578 278.358 271.852 233.832C292.126 189.306 261.544 172.668 256.252 121.14C250.96 69.6124 204.574 -5.84356 100.09 41.9404Z" fill="white"/>
<path d="M156.058 284.274C221.865 284.274 275.212 281.789 275.212 278.724C275.212 275.659 221.865 273.174 156.058 273.174C90.2514 273.174 36.9043 275.659 36.9043 278.724C36.9043 281.789 90.2514 284.274 156.058 284.274Z" fill="#263238"/>
<path d="M236.734 23.244C237.586 24.672 240.664 26.766 240.664 26.772C240.664 26.778 241.432 24.324 241.462 24.162C241.786 22.296 241.324 18.498 239.452 17.508C239.136 17.3506 238.79 17.2618 238.438 17.2472C238.085 17.2327 237.733 17.2928 237.405 17.4237C237.077 17.5545 236.781 17.7531 236.535 18.0065C236.289 18.2598 236.099 18.5623 235.978 18.894C235.42 20.286 236.008 22.032 236.734 23.244Z" fill="#263238"/>
<path d="M266.902 45.8039C266.902 45.8399 268.888 44.1839 269.002 44.0639C270.304 42.6899 272.002 39.2639 271 37.4099C270.823 37.105 270.583 36.8408 270.297 36.6348C270.011 36.4287 269.684 36.2853 269.339 36.214C268.994 36.1426 268.637 36.1449 268.293 36.2207C267.948 36.2965 267.624 36.4441 267.34 36.6539C266.104 37.4999 265.63 39.2819 265.54 40.6979C265.486 42.3539 266.902 45.8039 266.902 45.8039Z" fill="#263238"/>
<path d="M231.508 32.7719C232.66 33.8759 235.924 35.0219 236.182 35.1119C235.523 36.97 234.99 38.8703 234.586 40.7999C234.34 41.9219 234.13 43.0679 233.932 44.2139C233.932 43.6799 233.932 43.1939 233.932 43.1279C233.758 41.2439 232.312 37.7279 230.236 37.2419C229.889 37.1722 229.53 37.1767 229.185 37.2552C228.839 37.3338 228.514 37.4845 228.231 37.6975C227.947 37.9106 227.712 38.1811 227.541 38.4914C227.37 38.8017 227.266 39.1447 227.236 39.4979C227.062 40.9859 228.088 42.4979 229.108 43.4939C230.128 44.4899 232.906 45.5219 233.644 45.7859C233.572 46.2299 233.494 46.6679 233.428 47.1119C233.098 49.2299 232.774 51.3119 232.396 53.4119C232.264 54.1379 232.108 54.8519 231.952 55.5599C231.952 55.0859 231.952 54.6839 231.952 54.6239C231.778 52.7339 230.332 49.2239 228.262 48.7319C227.915 48.6632 227.557 48.6684 227.212 48.7473C226.866 48.8262 226.542 48.9771 226.258 49.1899C225.975 49.4028 225.74 49.6729 225.569 49.9827C225.397 50.2926 225.293 50.6351 225.262 50.9879C225.088 52.4759 226.114 53.9879 227.134 54.9899C228.154 55.9919 230.668 56.9159 231.538 57.2339C231.358 57.9539 231.178 58.6859 230.968 59.3759C230.818 59.8499 230.704 60.3119 230.524 60.7799L230.02 62.1539C229.672 63.0179 229.318 63.9119 228.952 64.7459C228.706 65.3459 228.46 65.8799 228.214 66.4319C228.352 65.7119 228.598 64.2899 228.604 64.1699C228.718 62.2799 227.824 58.5599 225.844 57.7919C225.511 57.6738 225.157 57.6274 224.805 57.6558C224.452 57.6842 224.11 57.7868 223.8 57.9567C223.49 58.1267 223.22 58.3602 223.006 58.642C222.793 58.9238 222.642 59.2476 222.562 59.5919C222.16 61.0379 222.946 62.7059 223.804 63.8279C224.752 65.0639 227.68 66.6419 228.046 66.8279C227.632 67.7399 227.224 68.6279 226.846 69.4619C225.694 71.8619 224.626 73.9199 223.774 75.4619L224.932 76.2899C225.766 74.6759 226.834 72.5339 227.986 69.9779C228.412 69.0539 228.844 68.0519 229.276 67.0199C230.317 67.2776 231.37 67.4779 232.432 67.6199C232.63 69.2039 234.094 71.9399 234.286 72.2939C233.434 72.8339 232.606 73.3439 231.814 73.8179C229.558 75.1739 227.578 76.2659 226.024 77.0939L227.284 77.9939C228.736 77.1659 230.5 76.1339 232.468 74.8919C233.338 74.3459 234.268 73.7519 235.18 73.1279C235.456 73.4279 237.73 75.8639 239.164 76.4699C240.472 77.0219 242.284 77.3579 243.58 76.6079C243.891 76.4412 244.163 76.211 244.378 75.9324C244.594 75.6538 244.749 75.3329 244.833 74.9907C244.916 74.6484 244.927 74.2923 244.864 73.9456C244.802 73.5988 244.667 73.2692 244.468 72.9779C243.226 71.2559 239.398 71.3339 237.598 71.9159C237.49 71.9519 236.398 72.4559 235.684 72.7859C236.068 72.5339 236.434 72.2879 236.824 72.0179C237.592 71.4959 238.348 70.9499 239.158 70.3619L240.316 69.4619C240.706 69.1739 241.084 68.8139 241.48 68.4899C242.368 67.7099 243.232 66.8819 244.084 66.0299C244.546 66.7019 246.22 69.0659 247.432 69.8099C248.644 70.5539 250.378 71.1539 251.77 70.6079C252.103 70.4917 252.408 70.3064 252.664 70.0642C252.92 69.8221 253.122 69.5285 253.257 69.2028C253.392 68.877 253.456 68.5265 253.446 68.1741C253.436 67.8217 253.352 67.4754 253.198 67.1579C252.232 65.2739 248.44 64.7579 246.568 65.0699C246.454 65.0699 245.14 65.4599 244.42 65.6699C244.924 65.1479 245.434 64.6379 245.932 64.0979C247.366 62.5379 248.77 60.9119 250.18 59.2979L251.482 57.8279C251.644 58.0679 253.57 60.9239 254.926 61.7579C256.126 62.4959 257.878 63.1019 259.27 62.5559C259.602 62.4381 259.905 62.2519 260.16 62.0095C260.415 61.767 260.617 61.4737 260.751 61.1485C260.886 60.8233 260.951 60.4734 260.942 60.1216C260.933 59.7697 260.85 59.4237 260.698 59.1059C259.732 57.2159 255.94 56.7059 254.068 57.0179C253.93 57.0179 252.034 57.5759 251.56 57.7379C252.514 56.6579 253.48 55.5959 254.47 54.5819C255.822 53.2119 257.261 51.9312 258.778 50.7479C258.856 50.8619 260.854 53.8499 262.246 54.7019C263.446 55.4399 265.192 56.0459 266.59 55.4999C266.923 55.3829 267.226 55.1972 267.482 54.9549C267.738 54.7126 267.94 54.4191 268.074 54.0936C268.209 53.7682 268.274 53.4179 268.264 53.0658C268.254 52.7137 268.171 52.3676 268.018 52.0499C267.046 50.1659 263.254 49.6499 261.388 49.9619C261.262 49.9619 259.822 50.3939 259.138 50.6039L259.084 50.4959C260.625 49.3399 262.265 48.3239 263.986 47.4599C264.928 46.9679 265.852 46.5599 266.764 46.1759C267.082 46.7759 268.564 49.4699 269.716 50.3759C270.868 51.2819 272.5 52.0379 273.946 51.6479C274.29 51.5691 274.613 51.4186 274.894 51.2063C275.175 50.9939 275.408 50.7246 275.578 50.4159C275.748 50.1072 275.851 49.7661 275.88 49.4149C275.909 49.0637 275.863 48.7103 275.746 48.3779C274.99 46.3919 271.276 45.4739 269.386 45.5759C269.284 45.5759 268.24 45.7499 267.484 45.8879C267.898 45.7199 268.324 45.5399 268.726 45.3899C270.22 44.7899 271.63 44.3879 272.878 44.0159C273.592 43.8119 274.24 43.6379 274.846 43.4819C275.446 43.9079 277.96 45.5759 279.382 45.8399C280.804 46.1039 282.616 46.0319 283.72 45.0179C283.988 44.7891 284.204 44.5065 284.356 44.1884C284.507 43.8704 284.589 43.5241 284.598 43.172C284.606 42.82 284.541 42.4701 284.405 42.1451C284.269 41.8201 284.067 41.5274 283.81 41.2859C282.226 39.8759 278.506 40.7699 276.874 41.7299C276.736 41.8139 274.678 43.3619 274.708 43.3859H274.744C274.144 43.5239 273.544 43.6799 272.842 43.8599C271.582 44.2019 270.16 44.6039 268.642 45.1439C267.006 45.7121 265.403 46.3732 263.842 47.1239C262.069 47.9652 260.374 48.9631 258.778 50.1059L258.724 50.1479C259.09 49.6499 260.08 48.2159 260.14 48.0959C261.034 46.4279 261.784 42.6959 260.308 41.1479C260.056 40.9023 259.755 40.7123 259.425 40.5902C259.095 40.4682 258.743 40.4168 258.392 40.4394C258.041 40.462 257.698 40.5582 257.386 40.7215C257.075 40.8849 256.801 41.112 256.582 41.3879C255.616 42.5339 255.628 44.3879 255.934 45.7559C256.288 47.3159 258.376 50.0699 258.544 50.2919C256.964 51.4834 255.465 52.7782 254.056 54.1679C253.234 54.9719 252.43 55.8119 251.656 56.6579C251.962 56.2199 252.256 55.8179 252.256 55.7639C253.15 54.0899 253.9 50.3639 252.424 48.8099C252.172 48.5643 251.871 48.3743 251.541 48.2522C251.211 48.1302 250.859 48.0788 250.508 48.1014C250.157 48.124 249.814 48.2201 249.502 48.3835C249.191 48.5469 248.917 48.774 248.698 49.0499C247.726 50.1959 247.744 52.0499 248.05 53.4179C248.356 54.7859 250.102 57.2039 250.57 57.8339C250.264 58.1579 249.97 58.4879 249.658 58.8179C248.218 60.4019 246.784 61.9859 245.326 63.5039C244.816 64.0379 244.288 64.5419 243.766 65.0519C244.036 64.6559 244.264 64.3259 244.294 64.2719C245.188 62.5979 245.932 58.8719 244.456 57.3239C244.205 57.0771 243.905 56.8859 243.575 56.7628C243.245 56.6397 242.893 56.5875 242.541 56.6096C242.19 56.6316 241.847 56.7275 241.535 56.8909C241.223 57.0543 240.949 57.2816 240.73 57.5579C239.764 58.7039 239.776 60.5579 240.088 61.9259C240.4 63.2939 241.966 65.4839 242.488 66.2279C241.942 66.7319 241.39 67.2419 240.832 67.7039C240.442 68.0159 240.094 68.3399 239.686 68.6279L238.486 69.4979C237.718 70.0259 236.926 70.5779 236.164 71.0699C235.636 71.4179 235.126 71.7419 234.616 72.0719C235.132 71.5439 236.122 70.4939 236.194 70.3979C237.143 69.0274 237.725 67.437 237.886 65.7779C237.999 65.6316 238.097 65.4749 238.18 65.3099C238.348 64.9995 238.449 64.6573 238.475 64.3055C238.502 63.9537 238.454 63.6002 238.336 63.268C238.217 62.9358 238.029 62.6323 237.785 62.3773C237.542 62.1223 237.247 61.9215 236.92 61.7879C234.934 61.0439 231.79 63.2159 230.608 64.6979C230.536 64.7819 229.888 65.8199 229.492 66.4979C229.666 66.0719 229.84 65.6639 230.02 65.2259C230.368 64.3619 230.698 63.4919 231.052 62.5559C231.202 62.0999 231.364 61.6379 231.52 61.1699C231.676 60.7019 231.802 60.2039 231.952 59.7119C232.264 58.5779 232.552 57.4079 232.768 56.2259C233.524 56.5319 236.224 57.5819 237.646 57.5339C239.068 57.4859 240.898 56.9999 241.762 55.7999C241.975 55.5189 242.126 55.1962 242.205 54.8529C242.285 54.5096 242.291 54.1534 242.224 53.8075C242.156 53.4616 242.017 53.1338 241.814 52.8455C241.612 52.5571 241.351 52.3147 241.048 52.1339C239.2 51.0899 235.756 52.7339 234.37 54.0479C234.28 54.1319 233.386 55.1639 232.906 55.7459C233.05 55.0319 233.188 54.3239 233.308 53.5979C233.644 51.5039 233.908 49.3979 234.202 47.2559C234.286 46.6019 234.382 45.9599 234.472 45.3119C234.742 45.4199 237.922 46.7399 239.518 46.6859C240.928 46.6379 242.716 46.1819 243.58 44.9579C243.792 44.6761 243.942 44.3529 244.021 44.0093C244.1 43.6657 244.106 43.3094 244.039 42.9633C243.972 42.6172 243.833 42.2891 243.631 42.0002C243.429 41.7112 243.168 41.4679 242.866 41.2859C241.018 40.2479 237.574 41.9219 236.188 43.2059C236.08 43.3019 234.796 44.7959 234.49 45.1919C234.694 43.7639 234.91 42.3419 235.18 40.9559C235.524 39.0752 235.991 37.2192 236.578 35.3999C236.704 35.4539 240.016 36.8399 241.648 36.7859C243.058 36.7379 244.846 36.2819 245.71 35.0579C245.923 34.7769 246.074 34.4542 246.153 34.1109C246.233 33.7676 246.239 33.4114 246.172 33.0655C246.104 32.7196 245.965 32.3918 245.762 32.1035C245.56 31.8151 245.299 31.5727 244.996 31.3919C243.148 30.3539 239.704 32.0219 238.318 33.3059C238.228 33.3899 237.244 34.5059 236.794 35.1059L236.686 35.0459C237.33 33.2325 238.133 31.4796 239.086 29.8079C239.602 28.8839 240.148 28.0079 240.694 27.2039C241.294 27.5279 244.006 28.9679 245.494 29.0819C246.982 29.1959 248.734 28.9319 249.724 27.8099C249.966 27.5535 250.152 27.2491 250.268 26.9164C250.385 26.5837 250.43 26.2301 250.401 25.8788C250.373 25.5274 250.27 25.186 250.101 24.8768C249.931 24.5676 249.699 24.2974 249.418 24.0839C247.696 22.8479 244.09 24.1319 242.566 25.2839C242.482 25.3439 241.708 26.0579 241.156 26.5919C241.408 26.2259 241.666 25.8419 241.912 25.4939C242.848 24.1919 243.784 23.0519 244.624 22.0559C245.104 21.4919 245.548 20.9879 245.968 20.5259C246.718 20.5259 249.718 20.5259 251.05 19.9859C252.382 19.4459 253.858 18.3599 254.218 16.9079C254.315 16.5693 254.34 16.214 254.29 15.8652C254.241 15.5164 254.118 15.182 253.931 14.8837C253.744 14.5854 253.496 14.3299 253.203 14.1339C252.91 13.9378 252.579 13.8056 252.232 13.7459C250.132 13.4459 247.522 16.2419 246.694 17.9459C246.622 18.0899 245.758 20.5199 245.8 20.5199H245.842C245.428 20.9579 244.99 21.4379 244.516 21.9659C243.658 22.9439 242.716 24.0659 241.726 25.3559C240.67 26.7324 239.695 28.1688 238.804 29.6579C237.799 31.3217 236.945 33.0728 236.254 34.8899C236.251 34.9118 236.251 34.9341 236.254 34.9559C236.29 34.3559 236.32 32.5979 236.308 32.4599C236.134 30.5759 234.688 27.0599 232.618 26.5739C232.271 26.5042 231.912 26.5087 231.567 26.5872C231.221 26.6658 230.896 26.8165 230.613 27.0295C230.329 27.2426 230.094 27.5131 229.923 27.8234C229.752 28.1337 229.648 28.4767 229.618 28.8299C229.462 30.2579 230.488 31.7999 231.508 32.7719Z" fill="#263238"/>
<path d="M175.906 54.1202C177.466 53.5202 180.106 50.9102 180.106 50.9102C180.106 50.9102 177.844 49.7102 177.706 49.6442C175.936 48.9782 172.12 48.7322 170.8 50.3942C170.589 50.6755 170.439 50.9981 170.361 51.341C170.282 51.6839 170.277 52.0395 170.345 52.3847C170.412 52.7298 170.552 53.0569 170.755 53.3445C170.957 53.6321 171.218 53.8739 171.52 54.0542C172.75 54.8642 174.58 54.6002 175.906 54.1202Z" fill="#263238"/>
<path d="M203.644 28.6375C203.686 28.6375 202.444 26.3815 202.324 26.2375C201.214 24.7015 198.166 22.3915 196.15 23.0455C195.818 23.1637 195.515 23.3505 195.26 23.5938C195.005 23.837 194.804 24.1313 194.671 24.4574C194.537 24.7834 194.474 25.134 194.485 25.4862C194.496 25.8384 194.581 26.1844 194.734 26.5015C195.334 27.8755 197.002 28.6735 198.382 28.9975C199.978 29.3995 203.644 28.6375 203.644 28.6375Z" fill="#263238"/>
<path d="M184.3 61.0138C185.602 60.0838 187.33 57.0898 187.468 56.8498C189.178 57.8423 190.952 58.7202 192.778 59.4778C193.84 59.9278 194.926 60.3418 196.018 60.7498C195.49 60.6358 195.016 60.5398 194.95 60.5338C193.066 60.3598 189.316 61.1338 188.482 63.0838C188.354 63.4115 188.295 63.7627 188.311 64.1145C188.326 64.4662 188.415 64.8108 188.573 65.1259C188.73 65.441 188.952 65.7195 189.223 65.9434C189.495 66.1674 189.811 66.3317 190.15 66.4258C191.578 66.8698 193.276 66.1438 194.428 65.3218C195.58 64.4998 197.122 61.9618 197.512 61.2898L198.772 61.7458C200.794 62.4598 202.816 63.1678 204.772 63.9178C205.462 64.1878 206.128 64.4698 206.8 64.7578C206.338 64.6558 205.942 64.5778 205.882 64.5718C203.992 64.3978 200.248 65.1718 199.414 67.1158C199.283 67.4434 199.223 67.7949 199.237 68.1474C199.252 68.4998 199.34 68.8453 199.497 69.1613C199.654 69.4773 199.876 69.7566 200.148 69.981C200.42 70.2055 200.736 70.37 201.076 70.4638C202.51 70.9078 204.202 70.1818 205.354 69.3598C206.506 68.5378 207.898 66.2458 208.354 65.4478C209.032 65.7598 209.716 66.0478 210.358 66.4018C210.79 66.6418 211.228 66.8398 211.654 67.1038L212.914 67.8478C213.7 68.3518 214.51 68.8618 215.26 69.3718C215.788 69.7258 216.286 70.0678 216.784 70.4158C216.1 70.1458 214.75 69.6418 214.63 69.6118C212.794 69.1498 208.972 69.3418 207.85 71.1478C207.673 71.4517 207.562 71.7895 207.523 72.1392C207.485 72.489 207.521 72.8429 207.629 73.1779C207.736 73.5129 207.913 73.8215 208.148 74.0837C208.382 74.3459 208.669 74.5558 208.99 74.6998C210.34 75.3598 212.122 74.8978 213.388 74.2618C214.774 73.5598 216.868 70.9738 217.126 70.6618C217.948 71.2618 218.746 71.8018 219.49 72.3478C221.656 73.9318 223.462 75.3478 224.836 76.4758L225.862 75.4978C224.428 74.3758 222.52 72.9298 220.222 71.2978C219.388 70.6978 218.482 70.0978 217.546 69.4978C217.99 68.5217 218.375 67.5199 218.698 66.4978C220.294 66.5938 223.252 65.6578 223.636 65.5378C224.008 66.4678 224.362 67.3798 224.68 68.2498C225.592 70.7158 226.3 72.8638 226.828 74.5438L227.944 73.4698C227.404 71.8918 226.708 69.9658 225.85 67.7998C225.478 66.8518 225.064 65.8438 224.62 64.7998C224.968 64.5838 227.782 62.8018 228.64 61.4998C229.42 60.2998 230.086 58.5958 229.588 57.1858C229.482 56.8497 229.307 56.5396 229.073 56.2759C228.839 56.0122 228.553 55.8007 228.232 55.6552C227.911 55.5097 227.563 55.4335 227.21 55.4315C226.858 55.4295 226.509 55.5019 226.186 55.6438C224.266 56.5438 223.636 60.3178 223.882 62.1958C223.882 62.3098 224.182 63.4918 224.38 64.2358C224.2 63.8158 224.026 63.4078 223.834 62.9758C223.462 62.1238 223.06 61.2838 222.634 60.3778C222.418 59.9458 222.19 59.5138 221.968 59.0758C221.746 58.6378 221.47 58.1998 221.224 57.7498C220.624 56.7358 219.97 55.7338 219.286 54.7498C220.036 54.4198 222.67 53.2138 223.624 52.1578C224.578 51.1018 225.49 49.5118 225.208 48.0418C225.155 47.6933 225.029 47.3598 224.839 47.0633C224.648 46.7667 224.397 46.5136 224.102 46.3205C223.807 46.1275 223.475 45.9988 223.127 45.9428C222.779 45.8869 222.423 45.9049 222.082 45.9958C220.048 46.5958 218.848 50.2318 218.806 52.1278C218.806 52.2478 218.926 53.6098 219.004 54.3538C218.59 53.7538 218.182 53.1538 217.744 52.5538C216.472 50.8558 215.14 49.1758 213.814 47.4958C213.406 46.9798 213.004 46.4638 212.614 45.9418C212.878 45.8278 216.04 44.4598 217.108 43.2838C218.056 42.2338 218.974 40.6318 218.698 39.1618C218.645 38.8131 218.518 38.4797 218.327 38.1833C218.136 37.8869 217.884 37.6342 217.588 37.4417C217.293 37.2492 216.96 37.1212 216.611 37.0661C216.263 37.0109 215.907 37.0299 215.566 37.1218C213.538 37.7218 212.338 41.3578 212.296 43.2538C212.296 43.3918 212.47 45.3538 212.536 45.8518C211.654 44.7118 210.784 43.5658 209.974 42.4078C208.869 40.8445 207.867 39.2111 206.974 37.5178C207.094 37.4638 210.406 36.0538 211.498 34.8418C212.446 33.7978 213.364 32.1958 213.088 30.7258C213.034 30.3775 212.906 30.0445 212.715 29.7484C212.524 29.4523 212.272 29.1996 211.977 29.0068C211.682 28.8139 211.349 28.6852 211.001 28.6289C210.653 28.5726 210.297 28.5899 209.956 28.6798C207.922 29.2798 206.728 32.9218 206.686 34.8118C206.686 34.9378 206.812 36.4318 206.896 37.1398L206.776 37.1758C205.926 35.4407 205.231 33.6336 204.7 31.7758C204.394 30.7618 204.16 29.7778 203.95 28.8118C204.598 28.6078 207.52 27.6598 208.63 26.6818C209.74 25.7038 210.778 24.2818 210.658 22.7638C210.646 22.4095 210.559 22.0619 210.403 21.7436C210.247 21.4253 210.026 21.1436 209.753 20.9169C209.481 20.6903 209.163 20.5239 208.822 20.4285C208.48 20.3332 208.123 20.3111 207.772 20.3638C205.684 20.7418 204.1 24.2218 203.848 26.0998C203.848 26.2018 203.806 27.2578 203.8 28.0258C203.716 27.5878 203.614 27.1378 203.542 26.7178C203.254 25.1338 203.092 23.6758 202.942 22.3798C202.87 21.6358 202.822 20.9698 202.78 20.3458C203.308 19.8178 205.414 17.6758 205.93 16.3198C206.446 14.9638 206.722 13.1758 205.93 11.9038C205.755 11.5983 205.516 11.3333 205.231 11.1261C204.946 10.9188 204.621 10.774 204.276 10.7009C203.931 10.6279 203.575 10.6283 203.23 10.7022C202.886 10.7761 202.561 10.9218 202.276 11.1298C200.596 12.4258 200.788 16.2478 201.43 18.0298C201.484 18.1798 202.63 20.4898 202.66 20.4658L202.69 20.4298C202.69 21.0298 202.75 21.6838 202.804 22.3858C202.912 23.6878 203.044 25.1638 203.296 26.7538C203.546 28.4714 203.899 30.1724 204.352 31.8478C204.846 33.727 205.506 35.5583 206.326 37.3198L206.362 37.3798C205.936 36.9238 204.712 35.6938 204.61 35.5798C203.134 34.3798 199.582 32.9638 197.812 34.1338C197.523 34.3352 197.279 34.5954 197.097 34.8973C196.915 35.1992 196.799 35.5361 196.756 35.8859C196.713 36.2358 196.744 36.5908 196.848 36.9279C196.951 37.2649 197.124 37.5763 197.356 37.8418C198.304 38.9998 200.116 39.3298 201.556 39.2758C203.152 39.2218 206.248 37.6798 206.494 37.5538C207.377 39.3279 208.379 41.0399 209.494 42.6778C210.13 43.6378 210.808 44.5798 211.492 45.5218C211.114 45.1378 210.778 44.8018 210.724 44.7598C209.248 43.5598 205.696 42.1438 203.926 43.3138C203.637 43.5152 203.393 43.7754 203.211 44.0773C203.029 44.3792 202.913 44.7161 202.87 45.0659C202.827 45.4158 202.858 45.7708 202.962 46.1078C203.065 46.4449 203.238 46.7563 203.47 47.0218C204.418 48.1798 206.23 48.5098 207.67 48.4618C209.11 48.4138 211.768 47.1478 212.47 46.7998C212.74 47.1598 212.998 47.5198 213.268 47.8738C214.558 49.5898 215.854 51.2938 217.072 52.9978C217.504 53.5978 217.906 54.1978 218.308 54.7978L217.642 54.1318C216.166 52.9318 212.614 51.5218 210.844 52.6858C210.555 52.8872 210.311 53.1474 210.129 53.4493C209.947 53.7512 209.831 54.0881 209.788 54.4379C209.745 54.7878 209.776 55.1428 209.88 55.4799C209.983 55.8169 210.156 56.1283 210.388 56.3938C211.33 57.5578 213.148 57.8878 214.588 57.8338C216.028 57.7798 218.428 56.6338 219.262 56.2378C219.658 56.8738 220.054 57.5098 220.408 58.1398C220.636 58.5778 220.888 58.9858 221.098 59.4358C221.308 59.8858 221.53 60.3178 221.74 60.7558C222.118 61.6078 222.508 62.4838 222.856 63.3238C223.102 63.9238 223.324 64.4698 223.552 65.0338C223.132 64.4338 222.28 63.2338 222.202 63.1738C221.03 61.9872 219.574 61.1198 217.972 60.6538C217.85 60.516 217.713 60.3913 217.564 60.2818C217.29 60.06 216.972 59.8986 216.631 59.8081C216.29 59.7176 215.933 59.7001 215.585 59.7568C215.237 59.8134 214.904 59.9429 214.61 60.1367C214.315 60.3306 214.064 60.5845 213.874 60.8818C212.776 62.6818 214.324 66.1918 215.566 67.6198C215.638 67.7038 216.538 68.5318 217.108 69.0478C216.724 68.7958 216.358 68.5498 215.962 68.2978C215.176 67.7938 214.378 67.3078 213.526 66.7918L212.248 66.0718C211.828 65.8198 211.348 65.6098 210.898 65.3818C209.836 64.8598 208.738 64.3858 207.622 63.9298C208.06 63.2458 209.59 60.7858 209.806 59.3818C210.022 57.9778 209.902 56.1418 208.858 55.0678C208.623 54.8057 208.334 54.5962 208.012 54.4527C207.69 54.3093 207.342 54.2352 206.989 54.2352C206.637 54.2352 206.288 54.3093 205.966 54.4527C205.644 54.5962 205.356 54.8057 205.12 55.0678C203.758 56.6938 204.766 60.3838 205.774 61.9858C205.834 62.0878 206.692 63.1858 207.172 63.7318C206.494 63.4678 205.822 63.1978 205.132 62.9458C203.14 62.2318 201.1 61.5658 199.066 60.8938L197.206 60.2938C197.362 60.0538 199.246 57.1678 199.486 55.5898C199.696 54.1918 199.582 52.3498 198.538 51.2818C198.303 51.0197 198.014 50.8102 197.692 50.6667C197.37 50.5233 197.022 50.4492 196.669 50.4492C196.317 50.4492 195.968 50.5233 195.646 50.6667C195.324 50.8102 195.036 51.0197 194.8 51.2818C193.438 52.9078 194.446 56.6038 195.454 58.2058C195.526 58.3258 196.756 59.8618 197.092 60.2398C195.724 59.7718 194.368 59.3038 193.054 58.7818C191.273 58.092 189.538 57.2904 187.858 56.3818C187.93 56.2678 189.91 53.2618 190.156 51.6538C190.372 50.2558 190.252 48.4138 189.208 47.3398C188.973 47.0777 188.684 46.8682 188.362 46.7247C188.04 46.5813 187.692 46.5072 187.339 46.5072C186.987 46.5072 186.638 46.5813 186.316 46.7247C185.994 46.8682 185.706 47.0777 185.47 47.3398C184.108 48.9658 185.116 52.6558 186.124 54.2578C186.19 54.3658 187.126 55.5358 187.582 56.0578L187.504 56.1538C185.842 55.1816 184.27 54.0632 182.806 52.8118C181.99 52.1338 181.246 51.4378 180.544 50.7478C180.97 50.2258 182.89 47.8198 183.268 46.3978C183.646 44.9758 183.724 43.1878 182.8 42.0058C182.594 41.7204 182.329 41.4816 182.024 41.3052C181.719 41.1287 181.381 41.0185 181.03 40.9817C180.68 40.945 180.326 40.9824 179.991 41.0916C179.656 41.2009 179.348 41.3795 179.086 41.6158C177.55 43.0858 178.15 46.8658 178.972 48.5698C179.02 48.6598 179.572 49.5538 179.998 50.1958C179.686 49.8778 179.356 49.5598 179.062 49.2478C177.952 48.0898 177.004 46.9618 176.182 45.9538C175.714 45.3538 175.306 44.8438 174.922 44.3458C175.078 43.6138 175.648 40.6678 175.336 39.2518C175.024 37.8358 174.256 36.1918 172.894 35.5678C172.567 35.4068 172.208 35.3191 171.844 35.3106C171.479 35.3021 171.117 35.3731 170.782 35.5187C170.447 35.6643 170.149 35.8809 169.906 36.1536C169.664 36.4263 169.484 36.7485 169.378 37.0978C168.694 39.1078 170.962 42.1858 172.48 43.3198C172.612 43.4158 174.838 44.7118 174.85 44.6758C174.862 44.6398 174.85 44.6398 174.85 44.6278C175.204 45.1198 175.588 45.6418 176.05 46.1998C176.854 47.2258 177.778 48.3778 178.864 49.5658C180.022 50.8608 181.254 52.0869 182.554 53.2378C184.005 54.5315 185.567 55.694 187.222 56.7118H187.288C186.688 56.5678 184.978 56.2078 184.846 56.1958C182.962 56.0218 179.212 56.7958 178.378 58.7398C178.248 59.0679 178.189 59.4196 178.204 59.7721C178.219 60.1245 178.308 60.4699 178.466 60.7857C178.623 61.1015 178.845 61.3806 179.117 61.605C179.39 61.8293 179.706 61.9938 180.046 62.0878C181.456 62.5618 183.178 61.8358 184.3 61.0138Z" fill="#263238"/>
<path d="M87.0823 233.61C88.1983 233.994 90.0823 235.836 90.0823 235.836C90.0823 235.836 88.4863 236.73 88.3783 236.772C87.1243 237.276 84.4063 237.51 83.4403 236.346C83.287 236.148 83.1768 235.92 83.1168 235.677C83.0568 235.433 83.0483 235.18 83.0918 234.933C83.1353 234.686 83.2298 234.451 83.3694 234.243C83.5089 234.035 83.6904 233.858 83.9023 233.724C84.8203 233.124 86.1283 233.28 87.0823 233.61Z" fill="#263238"/>
<path d="M107.236 251.363C107.236 251.363 106.396 252.989 106.33 253.085C105.562 254.195 103.42 255.887 101.974 255.449C101.737 255.369 101.519 255.239 101.335 255.069C101.15 254.899 101.003 254.693 100.903 254.463C100.803 254.233 100.752 253.985 100.754 253.734C100.755 253.484 100.809 253.236 100.912 253.007C101.326 252.023 102.496 251.429 103.474 251.177C104.62 250.883 107.236 251.363 107.236 251.363Z" fill="#263238"/>
<path d="M92.9623 228.599C93.9043 229.241 95.1823 231.353 95.2843 231.521C96.4892 230.786 97.742 230.133 99.0343 229.565C99.7843 229.235 100.552 228.917 101.32 228.617C100.948 228.701 100.612 228.779 100.564 228.779C99.2263 228.935 96.5443 228.443 95.9143 227.063C95.82 226.832 95.775 226.583 95.7821 226.333C95.7892 226.084 95.8482 225.838 95.9554 225.612C96.0627 225.386 96.2158 225.185 96.405 225.022C96.5941 224.859 96.8153 224.737 97.0543 224.663C98.0683 224.321 99.2863 224.813 100.12 225.383C100.954 225.953 102.094 227.741 102.382 228.215L103.276 227.867C104.704 227.327 106.132 226.793 107.518 226.229C108.01 226.031 108.484 225.815 108.958 225.629L108.304 225.773C106.96 225.923 104.278 225.431 103.654 224.051C103.56 223.82 103.515 223.571 103.522 223.321C103.529 223.072 103.588 222.826 103.695 222.6C103.803 222.374 103.956 222.173 104.145 222.01C104.334 221.847 104.555 221.725 104.794 221.651C105.802 221.309 107.02 221.807 107.854 222.371C108.688 222.935 109.714 224.555 110.068 225.119C110.542 224.885 111.028 224.651 111.478 224.405C111.784 224.231 112.078 224.081 112.39 223.889L113.278 223.337C113.83 222.971 114.406 222.587 114.934 222.215L115.978 221.399C115.492 221.603 114.538 221.999 114.454 221.999C113.152 222.353 110.422 222.269 109.6 221.003C109.47 220.789 109.386 220.549 109.354 220.3C109.323 220.05 109.343 219.797 109.415 219.557C109.487 219.316 109.608 219.093 109.771 218.902C109.934 218.711 110.136 218.556 110.362 218.447C111.31 217.961 112.588 218.261 113.5 218.699C114.412 219.137 116.026 220.991 116.218 221.219C116.818 220.799 117.358 220.379 117.88 219.983C119.398 218.819 120.664 217.775 121.63 216.983L122.374 217.667C121.366 218.483 120.028 219.545 118.414 220.721C117.814 221.153 117.214 221.603 116.536 222.053C116.865 222.742 117.154 223.449 117.4 224.171C118.6 224.208 119.789 224.41 120.934 224.771C121.186 224.099 121.426 223.445 121.636 222.821C122.236 221.051 122.728 219.509 123.076 218.303L123.886 219.047C123.526 220.181 123.058 221.567 122.482 223.127C122.23 223.805 121.948 224.531 121.648 225.275C121.9 225.419 123.934 226.649 124.564 227.567C125.194 228.485 125.638 229.613 125.302 230.627C125.23 230.867 125.109 231.09 124.946 231.28C124.784 231.471 124.583 231.625 124.357 231.734C124.131 231.842 123.885 231.902 123.634 231.91C123.384 231.918 123.135 231.873 122.902 231.779C121.522 231.179 121.012 228.479 121.156 227.135C121.156 227.057 121.354 226.211 121.486 225.677C121.36 225.977 121.246 226.277 121.114 226.583C120.862 227.183 120.586 227.783 120.298 228.455C120.148 228.761 119.998 229.055 119.842 229.391C119.686 229.727 119.5 230.027 119.332 230.345C118.918 231.083 118.468 231.803 117.994 232.523C118.534 232.751 120.43 233.573 121.126 234.323C121.822 235.073 122.494 236.183 122.326 237.239C122.291 237.487 122.205 237.725 122.073 237.938C121.941 238.15 121.766 238.333 121.559 238.474C121.353 238.615 121.119 238.712 120.873 238.757C120.627 238.803 120.374 238.797 120.13 238.739C118.672 238.343 117.76 235.769 117.73 234.419C117.73 234.335 117.79 233.363 117.838 232.829C117.55 233.261 117.238 233.687 116.962 234.113C116.08 235.343 115.162 236.561 114.232 237.779C113.95 238.151 113.674 238.529 113.398 238.901C113.59 238.979 115.864 239.909 116.644 240.737C117.334 241.469 118.012 242.597 117.844 243.647C117.809 243.896 117.723 244.134 117.59 244.347C117.458 244.56 117.283 244.743 117.075 244.885C116.868 245.026 116.633 245.122 116.386 245.167C116.14 245.213 115.886 245.206 115.642 245.147C114.184 244.751 113.278 242.177 113.242 240.827C113.242 240.725 113.332 239.327 113.374 238.973C112.774 239.795 112.174 240.623 111.574 241.463C110.813 242.595 110.124 243.773 109.51 244.991C109.6 245.027 111.982 245.987 112.78 246.833C113.47 247.565 114.148 248.693 113.98 249.749C113.945 249.998 113.859 250.236 113.726 250.449C113.594 250.662 113.418 250.845 113.211 250.987C113.004 251.128 112.769 251.224 112.522 251.269C112.276 251.315 112.022 251.308 111.778 251.249C110.32 250.847 109.414 248.249 109.378 246.929C109.378 246.839 109.444 245.771 109.492 245.267H109.408C108.828 246.511 108.36 247.804 108.01 249.131C107.806 249.857 107.65 250.565 107.518 251.261C107.98 251.393 110.08 252.023 110.884 252.707C111.688 253.391 112.45 254.405 112.39 255.467C112.383 255.718 112.323 255.964 112.215 256.191C112.107 256.417 111.953 256.618 111.763 256.782C111.572 256.945 111.35 257.067 111.11 257.139C110.87 257.211 110.617 257.232 110.368 257.201C108.874 256.967 107.692 254.507 107.482 253.175C107.482 253.103 107.44 252.353 107.422 251.801C107.368 252.119 107.302 252.437 107.26 252.737C107.08 253.871 106.984 254.915 106.906 255.839C106.864 256.367 106.84 256.847 106.822 257.291C107.206 257.663 108.736 259.157 109.126 260.117C109.516 261.077 109.726 262.343 109.192 263.261C109.07 263.48 108.903 263.67 108.703 263.82C108.502 263.97 108.273 264.077 108.029 264.134C107.785 264.19 107.532 264.195 107.286 264.148C107.04 264.101 106.806 264.004 106.6 263.861C105.4 262.967 105.46 260.261 105.892 258.959C105.934 258.845 106.714 257.159 106.732 257.201C106.732 256.769 106.732 256.307 106.786 255.803C106.84 254.873 106.912 253.823 107.068 252.689C107.225 251.462 107.452 250.244 107.746 249.041C108.072 247.693 108.515 246.376 109.072 245.105C109.074 245.091 109.074 245.077 109.072 245.063C108.778 245.393 107.926 246.293 107.872 246.353C106.834 247.223 104.326 248.291 103.042 247.487C102.834 247.347 102.658 247.164 102.524 246.951C102.391 246.738 102.304 246.5 102.268 246.251C102.233 246.002 102.25 245.749 102.318 245.507C102.386 245.266 102.504 245.041 102.664 244.847C103.324 244.007 104.608 243.749 105.622 243.761C106.756 243.761 108.988 244.835 109.162 244.919C109.752 243.637 110.425 242.394 111.178 241.199C111.622 240.503 112.09 239.819 112.564 239.141C112.3 239.417 112.06 239.663 112.024 239.693C110.992 240.563 108.478 241.631 107.224 240.827C107.016 240.687 106.84 240.504 106.706 240.291C106.573 240.078 106.486 239.84 106.45 239.591C106.415 239.342 106.432 239.089 106.5 238.847C106.568 238.606 106.686 238.381 106.846 238.187C107.5 237.347 108.79 237.089 109.798 237.101C110.806 237.113 112.744 237.977 113.248 238.211L113.8 237.437C114.694 236.195 115.6 234.959 116.44 233.723C116.734 233.291 117.04 232.847 117.292 232.409C117.058 232.655 116.86 232.865 116.824 232.889C115.786 233.759 113.278 234.827 112.024 234.023C111.817 233.883 111.642 233.7 111.509 233.488C111.376 233.276 111.289 233.038 111.254 232.79C111.218 232.542 111.235 232.289 111.302 232.048C111.37 231.807 111.487 231.583 111.646 231.389C112.3 230.543 113.59 230.285 114.598 230.297C115.606 230.309 117.352 231.089 117.952 231.365C118.228 230.909 118.498 230.453 118.744 229.997C118.9 229.679 119.074 229.397 119.218 229.061C119.362 228.725 119.512 228.425 119.656 228.113C119.908 227.513 120.178 226.865 120.412 226.265C120.58 225.845 120.73 225.443 120.88 225.035C120.592 225.473 120.004 226.313 119.944 226.379C119.131 227.245 118.108 227.886 116.974 228.239C116.886 228.337 116.789 228.427 116.686 228.509C116.494 228.671 116.27 228.79 116.029 228.859C115.788 228.929 115.535 228.947 115.287 228.914C115.038 228.88 114.799 228.794 114.586 228.663C114.372 228.531 114.188 228.356 114.046 228.149C113.236 226.871 114.292 224.357 115.15 223.313C115.204 223.253 115.828 222.653 116.23 222.275C115.96 222.461 115.702 222.641 115.42 222.827C114.874 223.199 114.31 223.553 113.71 223.937L112.81 224.471C112.516 224.657 112.174 224.813 111.856 224.981C111.112 225.371 110.332 225.725 109.54 226.061C109.864 226.547 110.992 228.281 111.166 229.277C111.34 230.273 111.286 231.587 110.566 232.367C110.4 232.555 110.196 232.706 109.968 232.811C109.74 232.916 109.493 232.971 109.242 232.975C108.991 232.978 108.743 232.929 108.512 232.831C108.281 232.732 108.073 232.587 107.902 232.403C106.912 231.263 107.572 228.617 108.268 227.459C108.31 227.387 108.904 226.613 109.234 226.193C108.76 226.397 108.286 226.595 107.794 226.793C106.384 227.333 104.938 227.837 103.498 228.347C103.06 228.497 102.622 228.659 102.184 228.821C102.298 228.989 103.684 231.017 103.876 232.139C104.05 233.129 103.996 234.443 103.276 235.223C103.111 235.411 102.908 235.561 102.68 235.666C102.453 235.771 102.207 235.827 101.957 235.831C101.706 235.834 101.458 235.786 101.228 235.689C100.997 235.592 100.79 235.447 100.618 235.265C99.6223 234.125 100.282 231.479 100.978 230.321C101.026 230.231 101.884 229.121 102.112 228.845C101.146 229.199 100.186 229.553 99.2563 229.949C97.995 230.466 96.7702 231.067 95.5903 231.749C95.6443 231.827 97.0963 233.939 97.3003 235.085C97.4683 236.075 97.4143 237.389 96.7003 238.169C96.5345 238.358 96.3312 238.509 96.1034 238.614C95.8756 238.719 95.6284 238.776 95.3776 238.78C95.1267 238.784 94.8778 238.735 94.6468 238.637C94.4159 238.539 94.2079 238.394 94.0363 238.211C93.0403 237.071 93.7003 234.425 94.3963 233.267C94.4443 233.189 95.0923 232.343 95.4103 231.947L95.3503 231.881C94.1797 232.598 93.0753 233.417 92.0503 234.329C91.4803 234.827 90.9643 235.331 90.4723 235.835C90.7783 236.201 92.1823 237.887 92.4763 238.895C92.7703 239.903 92.8483 241.181 92.2123 242.033C92.0679 242.239 91.8821 242.412 91.6668 242.541C91.4515 242.671 91.2116 242.753 90.9624 242.785C90.7132 242.816 90.4602 242.794 90.2198 242.722C89.9793 242.649 89.7567 242.527 89.5663 242.363C88.4503 241.343 88.8163 238.643 89.3803 237.413C89.4103 237.347 89.8003 236.705 90.0883 236.213C89.8723 236.441 89.6383 236.675 89.4343 236.903C88.6603 237.743 88.0063 238.565 87.4303 239.303C87.1063 239.717 86.8303 240.107 86.5603 240.467C86.6803 240.983 87.1303 243.077 86.9263 244.067C86.7223 245.057 86.2063 246.263 85.2403 246.725C85.0182 246.841 84.7744 246.908 84.5247 246.924C84.2749 246.94 84.0246 246.904 83.7897 246.817C83.5548 246.731 83.3406 246.596 83.1605 246.422C82.9805 246.249 82.8388 246.039 82.7443 245.807C82.2283 244.385 83.8003 242.153 84.8623 241.325C84.9583 241.253 86.5243 240.299 86.5303 240.323C86.7763 239.969 87.0463 239.591 87.3463 239.189C87.9043 238.445 88.5463 237.605 89.3023 236.747C90.1101 235.808 90.9715 234.917 91.8823 234.077C92.8805 233.16 93.9565 232.331 95.0983 231.599H95.1403C94.7143 231.713 93.5023 231.995 93.4123 232.007C92.0683 232.157 89.3863 231.665 88.7623 230.285C88.6679 230.054 88.6226 229.806 88.6293 229.557C88.636 229.307 88.6946 229.062 88.8012 228.836C88.9078 228.61 89.0603 228.409 89.2488 228.245C89.4373 228.082 89.6578 227.959 89.8963 227.885C90.9103 227.507 92.1283 227.999 92.9623 228.599Z" fill="#263238"/>
<path d="M123.43 242.19C124.534 241.752 127.186 241.908 127.186 241.908C127.186 241.908 126.55 243.624 126.496 243.708C125.896 244.908 123.958 246.846 122.464 246.588C122.219 246.536 121.988 246.434 121.784 246.288C121.581 246.142 121.41 245.956 121.283 245.74C121.156 245.524 121.076 245.284 121.046 245.036C121.017 244.787 121.04 244.535 121.114 244.296C121.378 243.288 122.494 242.556 123.43 242.19Z" fill="#263238"/>
<path d="M150.286 242.58C150.286 242.58 150.706 244.38 150.718 244.476C150.856 245.82 150.334 248.496 148.918 249.102C148.685 249.196 148.435 249.24 148.184 249.231C147.933 249.223 147.686 249.162 147.46 249.052C147.234 248.942 147.033 248.787 146.871 248.595C146.709 248.403 146.589 248.179 146.518 247.938C146.188 246.924 146.698 245.706 147.274 244.884C147.988 243.912 150.286 242.58 150.286 242.58Z" fill="#263238"/>
<path d="M124.625 234.534C125.759 234.414 128.098 235.188 128.284 235.248C128.725 233.906 129.254 232.595 129.868 231.324C130.216 230.586 130.6 229.848 130.984 229.116C130.762 229.422 130.553 229.716 130.523 229.716C129.599 230.7 127.241 232.074 125.873 231.432C125.648 231.318 125.451 231.159 125.292 230.964C125.133 230.769 125.017 230.543 124.951 230.301C124.885 230.058 124.87 229.805 124.908 229.556C124.946 229.308 125.035 229.07 125.171 228.858C125.717 227.946 126.97 227.526 127.966 227.418C128.962 227.31 130.996 227.922 131.53 228.096L131.98 227.256C132.718 225.912 133.457 224.58 134.141 223.248C134.387 222.78 134.603 222.312 134.825 221.838C134.627 222.114 134.453 222.342 134.423 222.372C133.505 223.362 131.141 224.73 129.773 224.088C129.549 223.974 129.352 223.815 129.194 223.621C129.036 223.426 128.92 223.201 128.854 222.959C128.788 222.718 128.773 222.465 128.81 222.217C128.848 221.969 128.936 221.732 129.071 221.52C129.623 220.602 130.871 220.188 131.873 220.08C132.875 219.972 134.704 220.524 135.334 220.728C135.544 220.236 135.76 219.75 135.934 219.264C136.054 218.934 136.193 218.622 136.289 218.28C136.385 217.938 136.505 217.614 136.607 217.284C136.787 216.642 136.972 215.988 137.134 215.358C137.248 214.92 137.344 214.5 137.446 214.08C137.212 214.548 136.732 215.46 136.684 215.532C135.922 216.648 133.798 218.358 132.346 217.932C132.108 217.853 131.889 217.725 131.703 217.557C131.518 217.388 131.369 217.183 131.267 216.953C131.166 216.724 131.113 216.476 131.113 216.225C131.113 215.974 131.165 215.726 131.266 215.496C131.668 214.512 132.838 213.906 133.816 213.648C134.89 213.36 137.224 213.744 137.518 213.792C137.686 213.096 137.843 212.418 137.975 211.776C138.377 209.904 138.658 208.29 138.862 207.036L139.871 207.078C139.643 208.35 139.312 210.024 138.85 211.968C138.682 212.676 138.497 213.432 138.292 214.206C138.989 214.512 139.667 214.861 140.321 215.25C141.26 214.511 142.298 213.905 143.405 213.45C143.159 212.772 142.913 212.124 142.673 211.512C141.989 209.766 141.347 208.284 140.825 207.138L141.928 207.18C142.39 208.278 142.937 209.628 143.507 211.194C143.765 211.872 144.017 212.61 144.275 213.366C144.563 213.318 146.903 212.928 147.976 213.21C148.955 213.468 150.124 214.068 150.532 215.058C150.634 215.288 150.686 215.536 150.686 215.787C150.686 216.038 150.633 216.286 150.532 216.515C150.43 216.745 150.281 216.95 150.096 217.119C149.91 217.287 149.691 217.415 149.452 217.494C148 217.926 145.852 216.216 145.114 215.094C145.066 215.028 144.658 214.26 144.412 213.774C144.514 214.08 144.616 214.374 144.718 214.704C144.922 215.334 145.114 215.97 145.318 216.654C145.402 216.99 145.493 217.326 145.576 217.662C145.66 217.998 145.733 218.37 145.81 218.724C145.972 219.546 146.104 220.392 146.212 221.244C146.764 221.064 148.738 220.458 149.746 220.566C150.754 220.674 151.996 221.088 152.548 222.006C152.683 222.217 152.772 222.454 152.81 222.702C152.847 222.949 152.833 223.202 152.768 223.444C152.702 223.685 152.587 223.911 152.429 224.105C152.272 224.3 152.075 224.46 151.852 224.574C150.484 225.222 148.12 223.854 147.202 222.87C147.142 222.804 146.56 222.024 146.248 221.586C146.308 222.102 146.375 222.612 146.423 223.134C146.555 224.64 146.638 226.17 146.734 227.694C146.734 228.162 146.795 228.624 146.825 229.092C147.023 229.026 149.356 228.252 150.484 228.372C151.486 228.48 152.734 228.894 153.286 229.806C153.422 230.018 153.512 230.255 153.55 230.503C153.588 230.751 153.574 231.005 153.509 231.247C153.443 231.49 153.328 231.716 153.169 231.911C153.011 232.106 152.814 232.266 152.591 232.38C151.223 233.022 148.858 231.66 147.934 230.67C147.868 230.598 147.028 229.47 146.83 229.176C146.902 230.202 146.98 231.222 147.1 232.224C147.258 233.578 147.501 234.921 147.826 236.244C147.923 236.214 150.353 235.398 151.505 235.524C152.507 235.626 153.755 236.046 154.307 236.958C154.442 237.17 154.532 237.407 154.57 237.655C154.608 237.903 154.594 238.157 154.529 238.399C154.463 238.642 154.348 238.868 154.189 239.063C154.031 239.258 153.834 239.418 153.611 239.532C152.243 240.174 149.878 238.812 148.961 237.822C148.9 237.756 148.258 236.898 147.964 236.484L147.886 236.52C148.253 237.846 148.739 239.135 149.339 240.372C149.657 241.056 149.998 241.692 150.346 242.304C150.784 242.106 152.795 241.218 153.845 241.218C154.895 241.218 156.143 241.488 156.785 242.34C156.941 242.535 157.056 242.761 157.12 243.003C157.185 243.244 157.199 243.497 157.16 243.744C157.122 243.991 157.032 244.228 156.897 244.439C156.763 244.65 156.585 244.83 156.376 244.968C155.086 245.76 152.59 244.662 151.576 243.768C151.523 243.72 150.977 243.168 150.641 242.766C150.803 243.036 150.965 243.324 151.127 243.582C151.726 244.56 152.327 245.412 152.873 246.168C153.185 246.594 153.473 246.972 153.755 247.326C154.283 247.326 156.418 247.494 157.354 247.968C158.29 248.442 159.263 249.27 159.449 250.32C159.498 250.566 159.496 250.82 159.442 251.065C159.388 251.31 159.284 251.541 159.135 251.743C158.986 251.946 158.797 252.115 158.579 252.24C158.362 252.364 158.12 252.442 157.871 252.468C156.365 252.576 154.648 250.452 154.145 249.198C154.103 249.09 153.616 247.32 153.646 247.32H153.677C153.401 246.99 153.113 246.63 152.807 246.228C152.243 245.484 151.607 244.638 151.007 243.672C150.326 242.639 149.707 241.567 149.152 240.462C148.523 239.227 148.005 237.938 147.605 236.61C147.605 236.61 147.605 236.574 147.605 236.562C147.605 237.006 147.532 238.242 147.514 238.362C147.292 239.694 146.08 242.136 144.586 242.358C144.337 242.387 144.084 242.363 143.845 242.288C143.605 242.213 143.384 242.088 143.195 241.923C143.006 241.757 142.854 241.554 142.749 241.326C142.643 241.099 142.587 240.851 142.582 240.6C142.534 239.532 143.344 238.494 144.118 237.852C144.994 237.126 147.376 236.478 147.568 236.424C147.194 235.065 146.911 233.682 146.723 232.284C146.609 231.468 146.518 230.646 146.434 229.818C146.434 230.202 146.398 230.544 146.386 230.592C146.164 231.924 144.953 234.366 143.458 234.588C143.204 234.622 142.945 234.602 142.699 234.528C142.453 234.453 142.225 234.327 142.032 234.158C141.839 233.988 141.684 233.78 141.578 233.545C141.472 233.311 141.418 233.057 141.418 232.8C141.37 231.738 142.181 230.7 142.955 230.052C143.729 229.404 145.762 228.81 146.296 228.66C146.296 228.342 146.242 228.024 146.212 227.706C146.086 226.182 145.967 224.664 145.805 223.176C145.751 222.648 145.672 222.132 145.6 221.622C145.6 221.958 145.565 222.222 145.559 222.288C145.337 223.62 144.125 226.068 142.625 226.284C142.376 226.312 142.124 226.287 141.885 226.212C141.646 226.136 141.425 226.012 141.237 225.846C141.049 225.681 140.898 225.478 140.793 225.251C140.687 225.023 140.631 224.777 140.626 224.526C140.579 223.464 141.388 222.426 142.162 221.784C142.936 221.142 144.773 220.584 145.409 220.41C145.319 219.888 145.228 219.36 145.114 218.856C145.03 218.514 144.97 218.178 144.868 217.836L144.58 216.834C144.376 216.198 144.172 215.544 143.98 214.932C143.836 214.506 143.687 214.104 143.542 213.696C143.603 214.218 143.705 215.244 143.705 215.328C143.645 216.514 143.281 217.665 142.648 218.67C142.649 218.803 142.637 218.936 142.612 219.066C142.571 219.314 142.478 219.55 142.34 219.76C142.201 219.969 142.021 220.148 141.809 220.283C141.598 220.419 141.361 220.509 141.113 220.547C140.864 220.585 140.611 220.572 140.368 220.506C138.922 220.062 138.089 217.464 138.071 216.114C138.071 216.036 138.148 215.172 138.214 214.626C138.124 214.938 138.047 215.226 137.957 215.568C137.783 216.21 137.585 216.846 137.357 217.53C137.249 217.854 137.135 218.184 137.021 218.514C136.907 218.844 136.762 219.186 136.63 219.522C136.312 220.302 135.953 221.076 135.575 221.85C136.133 222.006 138.118 222.588 138.898 223.236C139.678 223.884 140.489 224.91 140.441 225.978C140.437 226.229 140.381 226.477 140.276 226.705C140.171 226.933 140.02 227.136 139.832 227.302C139.644 227.469 139.423 227.593 139.184 227.669C138.944 227.745 138.692 227.77 138.443 227.742C136.943 227.52 135.73 225.084 135.502 223.752C135.502 223.668 135.436 222.69 135.418 222.156C135.184 222.618 134.957 223.08 134.705 223.542C133.985 224.868 133.216 226.194 132.448 227.514L131.759 228.714C131.957 228.768 134.332 229.41 135.202 230.13C136.072 230.85 136.792 231.81 136.75 232.878C136.746 233.129 136.69 233.377 136.584 233.604C136.479 233.832 136.327 234.035 136.138 234.201C135.949 234.366 135.728 234.491 135.488 234.566C135.249 234.641 134.996 234.665 134.746 234.636C133.252 234.42 132.034 231.978 131.812 230.646C131.812 230.544 131.716 229.146 131.716 228.786C131.212 229.68 130.715 230.586 130.259 231.48C129.644 232.698 129.105 233.952 128.644 235.236C128.74 235.236 131.218 235.92 132.112 236.658C132.892 237.306 133.703 238.338 133.655 239.406C133.65 239.657 133.594 239.903 133.488 240.131C133.383 240.358 133.232 240.561 133.044 240.726C132.856 240.892 132.635 241.016 132.396 241.092C132.157 241.167 131.905 241.192 131.657 241.164C130.163 240.948 128.944 238.506 128.716 237.174C128.716 237.09 128.644 236.022 128.632 235.512H128.543C128.12 236.818 127.815 238.16 127.63 239.52C127.516 240.27 127.451 240.99 127.409 241.692C127.883 241.77 130.043 242.136 130.925 242.712C131.807 243.288 132.688 244.206 132.76 245.274C132.784 245.524 132.755 245.776 132.675 246.015C132.595 246.253 132.466 246.472 132.297 246.657C132.127 246.842 131.921 246.99 131.69 247.091C131.46 247.192 131.212 247.243 130.96 247.242C129.448 247.188 127.96 244.896 127.6 243.6C127.6 243.528 127.457 242.784 127.373 242.244C127.373 242.562 127.331 242.892 127.325 243.192C127.283 244.338 127.325 245.388 127.355 246.318C127.355 246.846 127.414 247.32 127.45 247.764C127.876 248.082 129.58 249.378 130.084 250.284C130.588 251.19 130.966 252.42 130.534 253.398C130.441 253.63 130.299 253.84 130.12 254.015C129.94 254.189 129.726 254.325 129.491 254.412C129.256 254.498 129.005 254.535 128.755 254.52C128.505 254.505 128.261 254.437 128.039 254.322C126.719 253.578 126.466 250.86 126.736 249.522C126.736 249.408 127.336 247.662 127.336 247.674C127.294 247.242 127.252 246.78 127.216 246.282C127.156 245.352 127.096 244.296 127.114 243.15C127.115 241.913 127.19 240.677 127.336 239.448C127.497 238.071 127.776 236.71 128.171 235.38V235.332C127.919 235.698 127.18 236.694 127.114 236.766C126.196 237.756 123.839 239.124 122.471 238.482C122.247 238.368 122.05 238.209 121.892 238.015C121.734 237.82 121.618 237.595 121.552 237.353C121.486 237.112 121.471 236.859 121.508 236.611C121.546 236.363 121.634 236.126 121.768 235.914C122.374 235.062 123.623 234.648 124.625 234.534Z" fill="#263238"/>
<path d="M261.274 58.3379H93.7123C91.4358 58.3379 89.5903 60.1834 89.5903 62.4599V225.354C89.5903 227.63 91.4358 229.476 93.7123 229.476H261.274C263.551 229.476 265.396 227.63 265.396 225.354V62.4599C265.396 60.1834 263.551 58.3379 261.274 58.3379Z" fill="white" stroke="#263238" stroke-linecap="round" stroke-linejoin="round"/>
<path d="M261.388 58.3379H93.6103C92.5452 58.3379 91.5236 58.7606 90.7699 59.5132C90.0162 60.2658 89.5919 61.2868 89.5903 62.3519V69.4379H265.378V62.3519C265.377 61.2919 264.957 60.2755 264.209 59.5237C263.462 58.772 262.448 58.3458 261.388 58.3379Z" fill="#01a809" stroke="#263238" stroke-linecap="round" stroke-linejoin="round"/>
<path d="M98.0263 63.6959C98.0275 64.0237 97.9314 64.3444 97.7502 64.6176C97.5689 64.8907 97.3107 65.1039 97.0082 65.2301C96.7057 65.3564 96.3726 65.39 96.051 65.3268C95.7293 65.2636 95.4337 65.1063 95.2015 64.875C94.9693 64.6436 94.811 64.3486 94.7466 64.0272C94.6822 63.7058 94.7147 63.3725 94.8398 63.0696C94.965 62.7666 95.1772 62.5076 95.4497 62.3254C95.7222 62.1432 96.0426 62.0459 96.3704 62.0459C96.808 62.0475 97.2274 62.2216 97.5375 62.5305C97.8475 62.8395 98.0232 63.2582 98.0263 63.6959Z" fill="white" stroke="#263238" stroke-linecap="round" stroke-linejoin="round"/>
<path d="M104.968 63.6959C104.969 64.0237 104.873 64.3444 104.692 64.6176C104.511 64.8907 104.253 65.1039 103.95 65.2301C103.648 65.3564 103.314 65.39 102.993 65.3268C102.671 65.2636 102.376 65.1063 102.143 64.875C101.911 64.6436 101.753 64.3486 101.689 64.0272C101.624 63.7058 101.657 63.3725 101.782 63.0696C101.907 62.7666 102.119 62.5076 102.392 62.3254C102.664 62.1432 102.984 62.0459 103.312 62.0459C103.75 62.0459 104.171 62.2195 104.481 62.5288C104.791 62.8381 104.967 63.2577 104.968 63.6959Z" fill="white" stroke="#263238" stroke-linecap="round" stroke-linejoin="round"/>
<path d="M111.91 63.6959C111.911 64.0239 111.815 64.3449 111.634 64.6182C111.452 64.8914 111.193 65.1046 110.891 65.2307C110.588 65.3568 110.254 65.3901 109.933 65.3264C109.611 65.2627 109.315 65.1048 109.083 64.8729C108.851 64.6409 108.693 64.3453 108.63 64.0235C108.566 63.7017 108.599 63.3682 108.725 63.0654C108.851 62.7626 109.065 62.504 109.338 62.3225C109.611 62.141 109.932 62.0447 110.26 62.0459C110.697 62.0475 111.116 62.2218 111.425 62.5309C111.734 62.84 111.909 63.2588 111.91 63.6959Z" fill="white" stroke="#263238" stroke-linecap="round" stroke-linejoin="round"/>
<path d="M180.179 89.6456V78.4076H177.875V77.1416H183.875V78.4076H181.571V89.6456H180.179Z" fill="#263238"/>
<path d="M184.738 80.1596C184.738 78.2456 185.686 77.0156 187.594 77.0156C189.502 77.0156 190.474 78.2156 190.474 80.1596V86.6216C190.474 88.5176 189.526 89.7656 187.594 89.7656C185.662 89.7656 184.738 88.5176 184.738 86.6216V80.1596ZM186.112 86.6936C186.112 87.8396 186.598 88.4936 187.594 88.4936C188.59 88.4936 189.076 87.8336 189.076 86.6936V80.0936C189.076 78.9656 188.614 78.2936 187.594 78.2936C186.574 78.2936 186.112 78.9716 186.112 80.0936V86.6936Z" fill="#263238"/>
<path d="M194.722 77.1416C196.666 77.1416 197.56 78.3416 197.56 80.2496V86.5556C197.56 88.4636 196.666 89.6456 194.722 89.6456H191.794V77.1416H194.722ZM194.722 88.3736C195.724 88.3736 196.204 87.7736 196.204 86.6096V80.1776C196.204 79.0316 195.724 78.4076 194.704 78.4076H193.204V88.3736H194.722Z" fill="#263238"/>
<path d="M200.254 87.1256L199.774 89.6456H198.49L200.89 77.1416H202.906L205.306 89.6456H203.914L203.428 87.1256H200.254ZM200.434 85.9256H203.224L201.808 78.7256L200.434 85.9256Z" fill="#263238"/>
<path d="M207.724 85.1576L205.078 77.1416H206.524L208.474 83.2856L210.436 77.1416H211.756L209.098 85.1576V89.6456H207.724V85.1576Z" fill="#263238"/>
<path d="M100.558 77.4836V77.6636H99.8562V77.4416C99.8562 76.8416 99.6282 76.4936 99.0942 76.4936C98.5602 76.4936 98.3382 76.8476 98.3382 77.4356C98.3382 78.9236 100.564 79.0676 100.564 80.9336C100.564 81.9356 100.084 82.5896 99.0702 82.5896C98.0562 82.5896 97.5762 81.9356 97.5762 80.9336V80.5556H98.2722V80.9996C98.2722 81.5996 98.5182 81.9476 99.0462 81.9476C99.5742 81.9476 99.8262 81.5996 99.8262 80.9996C99.8262 79.5236 97.6062 79.3796 97.6062 77.5136C97.6062 76.4876 98.0802 75.8516 99.0762 75.8516C100.072 75.8516 100.558 76.4756 100.558 77.4836Z" fill="#263238"/>
<path d="M104.14 77.4903V78.0903H103.438V77.4543C103.438 76.8543 103.204 76.4943 102.664 76.4943C102.124 76.4943 101.884 76.8543 101.884 77.4543V80.9643C101.884 81.5643 102.13 81.9183 102.664 81.9183C103.198 81.9183 103.438 81.5583 103.438 80.9643V80.1003H104.14V80.9223C104.14 81.9303 103.666 82.5903 102.646 82.5903C101.626 82.5903 101.152 81.9303 101.152 80.9223V77.4903C101.152 76.4883 101.626 75.8223 102.646 75.8223C103.666 75.8223 104.14 76.4883 104.14 77.4903Z" fill="#263238"/>
<path d="M105.556 79.5417V82.5417H104.818V75.8877H105.556V78.8877H107.188V75.8877H107.926V82.5237H107.188V79.5237L105.556 79.5417Z" fill="#263238"/>
<path d="M111.046 78.8277V79.4937H109.426V81.8517H111.418V82.5237H108.688V75.8877H111.418V76.5597H109.426V78.8277H111.046Z" fill="#263238"/>
<path d="M113.657 75.8877C114.689 75.8877 115.163 76.4877 115.163 77.5377V80.8857C115.163 81.8997 114.689 82.5237 113.657 82.5237H112.103V75.8877H113.657ZM113.657 81.8517C114.191 81.8517 114.443 81.5217 114.443 80.9157V77.5017C114.443 76.9017 114.191 76.5597 113.651 76.5597H112.853V81.8517H113.657Z" fill="#263238"/>
<path d="M116.578 80.9637C116.578 81.5637 116.812 81.9177 117.352 81.9177C117.892 81.9177 118.12 81.5577 118.12 80.9637V75.8877H118.816V80.9217C118.816 81.9297 118.348 82.6017 117.328 82.6017C116.308 82.6017 115.846 81.9297 115.846 80.9217V75.8877H116.578V80.9637Z" fill="#263238"/>
<path d="M119.524 82.5237V75.8877H120.268V81.8517H122.164V82.5237H119.524Z" fill="#263238"/>
<path d="M125.086 78.8277V79.4937H123.46V81.8517H125.452V82.5237H122.722V75.8877H125.452V76.5597H123.46V78.8277H125.086Z" fill="#263238"/>
<path d="M143.338 97.4043V97.6023C143.373 97.8678 143.322 98.1373 143.192 98.3716C143.063 98.6059 142.862 98.7926 142.618 98.9043C142.865 99.0206 143.067 99.2126 143.197 99.4522C143.326 99.6918 143.376 99.9665 143.338 100.236V100.704C143.338 101.102 143.18 101.484 142.899 101.765C142.618 102.046 142.236 102.204 141.838 102.204C141.44 102.204 141.059 102.046 140.778 101.765C140.496 101.484 140.338 101.102 140.338 100.704V100.236C140.3 99.965 140.35 99.6884 140.482 99.4482C140.614 99.208 140.821 99.0172 141.07 98.9043C140.823 98.7968 140.618 98.6114 140.485 98.3764C140.353 98.1413 140.302 97.8695 140.338 97.6023V97.4043C140.338 97.0065 140.496 96.6249 140.778 96.3436C141.059 96.0623 141.44 95.9043 141.838 95.9043C142.236 95.9043 142.618 96.0623 142.899 96.3436C143.18 96.6249 143.338 97.0065 143.338 97.4043ZM141.058 97.4043V97.7103C141.058 98.3103 141.352 98.5983 141.85 98.5983C142.348 98.5983 142.642 98.3223 142.642 97.7103V97.4043C142.642 96.7563 142.348 96.4623 141.85 96.4623C141.352 96.4623 141.058 96.7743 141.058 97.4223V97.4043ZM141.058 100.134V100.668C141.058 101.316 141.346 101.622 141.85 101.622C142.354 101.622 142.636 101.316 142.642 100.668V100.134C142.642 99.5343 142.372 99.2283 141.85 99.2283C141.328 99.2283 141.058 99.5403 141.058 100.152V100.134Z" fill="#263238"/>
<path d="M144.652 97.9082V98.7842H143.974V97.9082H144.652ZM144.652 101.346V102.216H143.974V101.346H144.652Z" fill="#263238"/>
<path d="M145.318 97.4337C145.318 96.4677 145.798 95.8438 146.764 95.8438C147.73 95.8438 148.21 96.4437 148.21 97.4337V100.686C148.21 101.652 147.736 102.282 146.764 102.282C145.792 102.282 145.318 101.652 145.318 100.686V97.4337ZM146.014 100.728C146.014 101.328 146.254 101.64 146.764 101.64C147.274 101.64 147.508 101.298 147.508 100.728V97.3977C147.508 96.7977 147.274 96.4797 146.764 96.4797C146.254 96.4797 146.014 96.8217 146.014 97.3977V100.728Z" fill="#263238"/>
<path d="M148.822 97.4337C148.822 96.4677 149.302 95.8438 150.268 95.8438C151.234 95.8438 151.714 96.4437 151.714 97.4337V100.686C151.714 101.652 151.24 102.282 150.268 102.282C149.296 102.282 148.822 101.652 148.822 100.686V97.4337ZM149.518 100.728C149.518 101.328 149.758 101.64 150.268 101.64C150.778 101.64 151.012 101.298 151.012 100.728V97.3977C151.012 96.7977 150.778 96.4797 150.268 96.4797C149.758 96.4797 149.518 96.8217 149.518 97.3977V100.728Z" fill="#263238"/>
<path d="M159.064 97.0557C158.799 97.2165 158.498 97.3092 158.188 97.3257V96.7257C158.438 96.732 158.682 96.6517 158.878 96.4986C159.075 96.3455 159.213 96.1289 159.268 95.8857H159.778V102.192H159.082L159.064 97.0557Z" fill="#263238"/>
<path d="M160.769 97.4337C160.769 96.4677 161.243 95.8438 162.209 95.8438C163.175 95.8438 163.661 96.4437 163.661 97.4337V100.686C163.661 101.652 163.181 102.282 162.209 102.282C161.237 102.282 160.769 101.652 160.769 100.686V97.4337ZM161.459 100.728C161.459 101.328 161.705 101.64 162.209 101.64C162.713 101.64 162.959 101.298 162.959 100.728V97.3977C162.959 96.7977 162.725 96.4797 162.209 96.4797C161.693 96.4797 161.459 96.8217 161.459 97.3977V100.728Z" fill="#263238"/>
<path d="M164.998 97.9082V98.7842H164.326V97.9082H164.998ZM164.998 101.346V102.216H164.326V101.346H164.998Z" fill="#263238"/>
<path d="M165.67 97.4337C165.67 96.4677 166.144 95.8438 167.11 95.8438C168.076 95.8438 168.562 96.4437 168.562 97.4337V100.686C168.562 101.652 168.082 102.282 167.11 102.282C166.138 102.282 165.67 101.652 165.67 100.686V97.4337ZM166.36 100.728C166.36 101.328 166.606 101.64 167.11 101.64C167.614 101.64 167.86 101.298 167.86 100.728V97.3977C167.86 96.7977 167.62 96.4797 167.11 96.4797C166.6 96.4797 166.36 96.8217 166.36 97.3977V100.728Z" fill="#263238"/>
<path d="M169.174 97.4337C169.174 96.4677 169.648 95.8438 170.614 95.8438C171.58 95.8438 172.066 96.4437 172.066 97.4337V100.686C172.066 101.652 171.586 102.282 170.614 102.282C169.642 102.282 169.174 101.652 169.174 100.686V97.4337ZM169.864 100.728C169.864 101.328 170.11 101.64 170.614 101.64C171.118 101.64 171.364 101.298 171.364 100.728V97.3977C171.364 96.7977 171.13 96.4797 170.614 96.4797C170.098 96.4797 169.864 96.8217 169.864 97.3977V100.728Z" fill="#263238"/>
<path d="M179.86 97.0557C179.595 97.2165 179.294 97.3092 178.984 97.3257V96.7257C179.234 96.732 179.477 96.6517 179.674 96.4986C179.871 96.3455 180.009 96.1289 180.064 95.8857H180.556V102.192H179.86V97.0557Z" fill="#263238"/>
<path d="M184.456 97.4396C184.456 99.3416 182.32 100.026 182.308 101.478V101.58H184.378V102.216H181.618V101.676C181.618 99.6416 183.754 99.2456 183.754 97.4756C183.754 96.8276 183.538 96.4856 183.01 96.4856C182.482 96.4856 182.272 96.8516 182.272 97.4096V97.9676H181.618V97.4576C181.618 96.4916 182.056 95.8496 183.034 95.8496C184.012 95.8496 184.456 96.4796 184.456 97.4396Z" fill="#263238"/>
<path d="M185.782 97.9082V98.7842H185.104V97.9082H185.782ZM185.782 101.346V102.216H185.104V101.346H185.782Z" fill="#263238"/>
<path d="M186.448 97.4337C186.448 96.4677 186.922 95.8438 187.888 95.8438C188.854 95.8438 189.34 96.4437 189.34 97.4337V100.686C189.34 101.652 188.86 102.282 187.888 102.282C186.916 102.282 186.448 101.652 186.448 100.686V97.4337ZM187.138 100.728C187.138 101.328 187.384 101.64 187.888 101.64C188.392 101.64 188.638 101.298 188.638 100.728V97.3977C188.638 96.7977 188.398 96.4797 187.888 96.4797C187.378 96.4797 187.138 96.8217 187.138 97.3977V100.728Z" fill="#263238"/>
<path d="M189.952 97.4337C189.952 96.4677 190.426 95.8438 191.392 95.8438C192.358 95.8438 192.844 96.4437 192.844 97.4337V100.686C192.844 101.652 192.364 102.282 191.392 102.282C190.42 102.282 189.952 101.652 189.952 100.686V97.4337ZM190.642 100.728C190.642 101.328 190.888 101.64 191.392 101.64C191.896 101.64 192.142 101.298 192.142 100.728V97.3977C192.142 96.7977 191.908 96.4797 191.392 96.4797C190.876 96.4797 190.642 96.8217 190.642 97.3977V100.728Z" fill="#263238"/>
<path d="M202.978 97.4396C202.978 99.3416 200.842 100.026 200.83 101.478V101.58H202.906V102.216H200.14V101.676C200.14 99.6416 202.27 99.2456 202.27 97.4756C202.27 96.8276 202.054 96.4856 201.532 96.4856C201.01 96.4856 200.794 96.8516 200.794 97.4096V97.9676H200.14V97.4576C200.14 96.4916 200.578 95.8496 201.55 95.8496C202.522 95.8496 202.978 96.4796 202.978 97.4396Z" fill="#263238"/>
<path d="M204.298 97.9082V98.7842H203.626V97.9082H204.298ZM204.298 101.346V102.216H203.626V101.346H204.298Z" fill="#263238"/>
<path d="M204.964 97.4337C204.964 96.4677 205.444 95.8438 206.41 95.8438C207.376 95.8438 207.856 96.4437 207.856 97.4337V100.686C207.856 101.652 207.382 102.282 206.41 102.282C205.438 102.282 204.964 101.652 204.964 100.686V97.4337ZM205.66 100.728C205.66 101.328 205.906 101.64 206.41 101.64C206.914 101.64 207.154 101.298 207.154 100.728V97.3977C207.154 96.7977 206.92 96.4797 206.41 96.4797C205.9 96.4797 205.66 96.8217 205.66 97.3977V100.728Z" fill="#263238"/>
<path d="M208.468 97.4337C208.468 96.4677 208.948 95.8438 209.914 95.8438C210.88 95.8438 211.366 96.4437 211.366 97.4337V100.686C211.366 101.652 210.886 102.282 209.914 102.282C208.942 102.282 208.468 101.652 208.468 100.686V97.4337ZM209.164 100.728C209.164 101.328 209.41 101.64 209.914 101.64C210.418 101.64 210.658 101.298 210.658 100.728V97.3977C210.658 96.7977 210.424 96.4797 209.914 96.4797C209.404 96.4797 209.164 96.8217 209.164 97.3977V100.728Z" fill="#263238"/>
<path d="M222.724 100.944V102.216H222.034V100.944H220V100.308L221.956 95.9102H222.724V100.308H223.228V100.944H222.724ZM220.648 100.308H222.034V97.2002L220.648 100.308Z" fill="#263238"/>
<path d="M224.441 97.9082V98.7842H223.769V97.9082H224.441ZM224.441 101.346V102.216H223.769V101.346H224.441Z" fill="#263238"/>
<path d="M225.106 97.4337C225.106 96.4677 225.586 95.8438 226.552 95.8438C227.518 95.8438 227.998 96.4437 227.998 97.4337V100.686C227.998 101.652 227.524 102.282 226.552 102.282C225.58 102.282 225.106 101.652 225.106 100.686V97.4337ZM225.802 100.728C225.802 101.328 226.048 101.64 226.552 101.64C227.056 101.64 227.296 101.298 227.296 100.728V97.3977C227.296 96.7977 227.062 96.4797 226.552 96.4797C226.042 96.4797 225.802 96.8217 225.802 97.3977V100.728Z" fill="#263238"/>
<path d="M228.616 97.4337C228.616 96.4677 229.09 95.8438 230.056 95.8438C231.022 95.8438 231.508 96.4437 231.508 97.4337V100.686C231.508 101.652 231.028 102.282 230.056 102.282C229.084 102.282 228.616 101.652 228.616 100.686V97.4337ZM229.306 100.728C229.306 101.328 229.552 101.64 230.056 101.64C230.56 101.64 230.806 101.298 230.806 100.728V97.3977C230.806 96.7977 230.566 96.4797 230.056 96.4797C229.546 96.4797 229.306 96.8217 229.306 97.3977V100.728Z" fill="#263238"/>
<path d="M244.174 97.4217V97.5418H243.514V97.3797C243.514 96.7797 243.28 96.4797 242.77 96.4797C242.26 96.4797 242.002 96.8217 242.002 97.4937V98.9098C242.075 98.701 242.214 98.5218 242.398 98.3994C242.582 98.277 242.802 98.2181 243.022 98.2317C243.832 98.2317 244.192 98.8317 244.192 99.7317V100.686C244.192 101.652 243.712 102.282 242.746 102.282C241.78 102.282 241.3 101.652 241.3 100.686V97.4697C241.3 96.4677 241.75 95.8438 242.746 95.8438C243.742 95.8438 244.174 96.4617 244.174 97.4217ZM241.978 99.7857V100.728C241.978 101.328 242.212 101.64 242.722 101.64C243.232 101.64 243.472 101.298 243.472 100.728V99.7857C243.472 99.2157 243.232 98.8737 242.722 98.8737C242.212 98.8737 241.978 99.2157 241.978 99.7857Z" fill="#263238"/>
<path d="M245.524 97.9082V98.7842H244.846V97.9082H245.524ZM245.524 101.346V102.216H244.846V101.346H245.524Z" fill="#263238"/>
<path d="M246.178 97.4337C246.178 96.4677 246.658 95.8438 247.618 95.8438C248.578 95.8438 249.07 96.4437 249.07 97.4337V100.686C249.07 101.652 248.596 102.282 247.618 102.282C246.64 102.282 246.178 101.652 246.178 100.686V97.4337ZM246.874 100.728C246.874 101.328 247.114 101.64 247.618 101.64C248.122 101.64 248.368 101.298 248.368 100.728V97.3977C248.368 96.7977 248.134 96.4797 247.618 96.4797C247.102 96.4797 246.874 96.8217 246.874 97.3977V100.728Z" fill="#263238"/>
<path d="M249.694 97.4337C249.694 96.4677 250.174 95.8438 251.14 95.8438C252.106 95.8438 252.586 96.4437 252.586 97.4337V100.686C252.586 101.652 252.112 102.282 251.14 102.282C250.168 102.282 249.694 101.652 249.694 100.686V97.4337ZM250.39 100.728C250.39 101.328 250.63 101.64 251.14 101.64C251.65 101.64 251.884 101.298 251.884 100.728V97.3977C251.884 96.7977 251.65 96.4797 251.14 96.4797C250.63 96.4797 250.39 96.8217 250.39 97.3977V100.728Z" fill="#263238"/>
<path d="M156.484 172.53H137.272V190.632H156.484V172.53Z" stroke="#ADADAD" stroke-miterlimit="10"/>
<path d="M176.254 172.53H157.042V190.632H176.254V172.53Z" stroke="#ADADAD" stroke-miterlimit="10"/>
<path d="M196.024 172.53H176.812V190.632H196.024V172.53Z" stroke="#ADADAD" stroke-miterlimit="10"/>
<path d="M215.8 172.53H196.588V190.632H215.8V172.53Z" stroke="#ADADAD" stroke-miterlimit="10"/>
<path d="M235.57 172.53H216.358V190.632H235.57V172.53Z" stroke="#ADADAD" stroke-miterlimit="10"/>
<path d="M255.424 172.53H236.212V190.632H255.424V172.53Z" stroke="#ADADAD" stroke-miterlimit="10"/>
<path d="M97.7686 106.02H128.879" stroke="#ADADAD" stroke-miterlimit="10"/>
<path d="M97.7686 109.434H128.879" stroke="#ADADAD" stroke-miterlimit="10"/>
<path d="M97.7686 112.842H128.879" stroke="#ADADAD" stroke-miterlimit="10"/>
<path d="M97.7686 116.25H128.879" stroke="#ADADAD" stroke-miterlimit="10"/>
<path d="M97.7686 119.658H128.879" stroke="#ADADAD" stroke-miterlimit="10"/>
<path d="M97.7686 123.072H128.879" stroke="#ADADAD" stroke-miterlimit="10"/>
<path d="M97.7686 126.479H128.879" stroke="#ADADAD" stroke-miterlimit="10"/>
<path d="M97.7686 129.888H128.879" stroke="#ADADAD" stroke-miterlimit="10"/>
<path d="M97.7686 181.956H128.879" stroke="#ADADAD" stroke-miterlimit="10"/>
<path d="M97.7686 185.364H128.879" stroke="#ADADAD" stroke-miterlimit="10"/>
<path d="M97.7686 188.771H128.879" stroke="#ADADAD" stroke-miterlimit="10"/>
<path d="M97.7686 192.18H128.879" stroke="#ADADAD" stroke-miterlimit="10"/>
<path d="M97.7686 195.594H128.879" stroke="#ADADAD" stroke-miterlimit="10"/>
<path d="M97.7686 199.002H128.879" stroke="#ADADAD" stroke-miterlimit="10"/>
<path d="M97.7686 202.41H128.879" stroke="#ADADAD" stroke-miterlimit="10"/>
<path d="M97.7686 205.818H128.879" stroke="#ADADAD" stroke-miterlimit="10"/>
<path d="M156.484 106.038H137.272V124.14H156.484V106.038Z" stroke="#ADADAD" stroke-miterlimit="10"/>
<path d="M176.254 106.038H157.042V124.14H176.254V106.038Z" fill="#01a809" stroke="#ADADAD" stroke-miterlimit="10"/>
<path d="M196.024 106.038H176.812V124.14H196.024V106.038Z" fill="#01a809" stroke="#ADADAD" stroke-miterlimit="10"/>
<path d="M215.8 106.038H196.588V124.14H215.8V106.038Z" stroke="#ADADAD" stroke-miterlimit="10"/>
<path d="M235.57 106.038H216.358V124.14H235.57V106.038Z" stroke="#ADADAD" stroke-miterlimit="10"/>
<path d="M255.424 106.038H236.212V124.14H255.424V106.038Z" stroke="#ADADAD" stroke-miterlimit="10"/>
<path d="M160.415 111.198H173.849" stroke="#ADADAD" stroke-miterlimit="10"/>
<path d="M160.415 113.244H173.849" stroke="#ADADAD" stroke-miterlimit="10"/>
<path d="M160.415 115.29H173.849" stroke="#ADADAD" stroke-miterlimit="10"/>
<path d="M160.415 117.33H173.849" stroke="#ADADAD" stroke-miterlimit="10"/>
<path d="M160.415 119.376H173.849" stroke="#ADADAD" stroke-miterlimit="10"/>
<path d="M156.484 128.184H137.272V146.286H156.484V128.184Z" stroke="#ADADAD" stroke-miterlimit="10"/>
<path d="M176.254 128.184H157.042V146.286H176.254V128.184Z" fill="#01a809" stroke="#ADADAD" stroke-miterlimit="10"/>
<path d="M196.024 128.184H176.812V146.286H196.024V128.184Z" stroke="#ADADAD" stroke-miterlimit="10"/>
<path d="M215.8 128.184H196.588V146.286H215.8V128.184Z" stroke="#ADADAD" stroke-miterlimit="10"/>
<path d="M235.57 128.184H216.358V146.286H235.57V128.184Z" stroke="#ADADAD" stroke-miterlimit="10"/>
<path d="M255.424 128.184H236.212V146.286H255.424V128.184Z" stroke="#ADADAD" stroke-miterlimit="10"/>
<path d="M160.415 133.104H173.849" stroke="#ADADAD" stroke-miterlimit="10"/>
<path d="M160.415 135.144H173.849" stroke="#ADADAD" stroke-miterlimit="10"/>
<path d="M160.415 137.189H173.849" stroke="#ADADAD" stroke-miterlimit="10"/>
<path d="M160.415 139.236H173.849" stroke="#ADADAD" stroke-miterlimit="10"/>
<path d="M160.415 141.282H173.849" stroke="#ADADAD" stroke-miterlimit="10"/>
<path d="M156.484 150.324H137.272V168.426H156.484V150.324Z" stroke="#ADADAD" stroke-miterlimit="10"/>
<path d="M176.254 150.324H157.042V168.426H176.254V150.324Z" stroke="#ADADAD" stroke-miterlimit="10"/>
<path d="M196.024 150.324H176.812V168.426H196.024V150.324Z" stroke="#ADADAD" stroke-miterlimit="10"/>
<path d="M215.8 150.324H196.588V168.426H215.8V150.324Z" stroke="#ADADAD" stroke-miterlimit="10"/>
<path d="M235.57 150.324H216.358V168.426H235.57V150.324Z" fill="#01a809" stroke="#ADADAD" stroke-miterlimit="10"/>
<path d="M255.424 150.324H236.212V168.426H255.424V150.324Z" stroke="#ADADAD" stroke-miterlimit="10"/>
<path d="M219.988 155.298H233.422" stroke="#ADADAD" stroke-miterlimit="10"/>
<path d="M219.988 157.344H233.422" stroke="#ADADAD" stroke-miterlimit="10"/>
<path d="M219.988 159.384H233.422" stroke="#ADADAD" stroke-miterlimit="10"/>
<path d="M219.988 161.43H233.422" stroke="#ADADAD" stroke-miterlimit="10"/>
<path d="M219.988 163.476H233.422" stroke="#ADADAD" stroke-miterlimit="10"/>
<path d="M156.484 194.729H137.272V212.832H156.484V194.729Z" stroke="#ADADAD" stroke-miterlimit="10"/>
<path d="M176.254 194.729H157.042V212.832H176.254V194.729Z" stroke="#ADADAD" stroke-miterlimit="10"/>
<path d="M196.024 194.729H176.812V212.832H196.024V194.729Z" fill="#01a809" stroke="#ADADAD" stroke-miterlimit="10"/>
<path d="M215.8 194.729H196.588V212.832H215.8V194.729Z" fill="#01a809" stroke="#ADADAD" stroke-miterlimit="10"/>
<path d="M235.57 194.729H216.358V212.832H235.57V194.729Z" fill="#01a809" stroke="#ADADAD" stroke-miterlimit="10"/>
<path d="M255.424 194.729H236.212V212.832H255.424V194.729Z" stroke="#ADADAD" stroke-miterlimit="10"/>
<path d="M179.98 199.686H193.414" stroke="#ADADAD" stroke-miterlimit="10"/>
<path d="M179.98 201.731H193.414" stroke="#ADADAD" stroke-miterlimit="10"/>
<path d="M179.98 203.778H193.414" stroke="#ADADAD" stroke-miterlimit="10"/>
<path d="M179.98 205.818H193.414" stroke="#ADADAD" stroke-miterlimit="10"/>
<path d="M179.98 207.864H193.414" stroke="#ADADAD" stroke-miterlimit="10"/>
<path d="M199.546 199.686H212.98" stroke="#ADADAD" stroke-miterlimit="10"/>
<path d="M199.546 201.731H212.98" stroke="#ADADAD" stroke-miterlimit="10"/>
<path d="M199.546 203.778H212.98" stroke="#ADADAD" stroke-miterlimit="10"/>
<path d="M199.546 205.818H212.98" stroke="#ADADAD" stroke-miterlimit="10"/>
<path d="M199.546 207.864H212.98" stroke="#ADADAD" stroke-miterlimit="10"/>
<path d="M219.112 199.686H232.546" stroke="#ADADAD" stroke-miterlimit="10"/>
<path d="M219.112 201.731H232.546" stroke="#ADADAD" stroke-miterlimit="10"/>
<path d="M219.112 203.778H232.546" stroke="#ADADAD" stroke-miterlimit="10"/>
<path d="M219.112 205.818H232.546" stroke="#ADADAD" stroke-miterlimit="10"/>
<path d="M219.112 207.864H232.546" stroke="#ADADAD" stroke-miterlimit="10"/>
<path d="M84.1062 68.1295C78.6702 64.1035 71.5062 64.5295 67.2042 67.2235C62.9022 69.9175 61.5702 74.7655 60.3642 78.0835C57.9642 84.6835 52.8102 88.6075 47.2302 92.4175C41.8302 96.1195 34.8162 101.544 38.5182 108.942C40.1922 112.296 42.2862 114.6 39.1182 120.048C35.9502 125.496 32.6202 128.016 34.9182 133.248C37.2162 138.48 40.1562 146.664 52.5222 143.73C64.8882 140.796 68.6622 126.75 69.9222 121.53C71.1822 116.31 77.2362 114.168 81.6582 110.418C86.0802 106.668 85.6422 100.776 84.3822 97.0075C83.4222 94.1155 82.3422 89.9995 85.6482 86.7235L86.0802 86.8555C86.0802 86.8555 92.7222 83.8556 93.8262 82.0256C94.9302 80.1955 89.5362 72.1495 84.1062 68.1295Z" fill="#263238" stroke="#263238" stroke-linecap="round" stroke-linejoin="round"/>
<path d="M93.778 103.506C93.778 103.506 106.714 113.496 110.086 115.602C113.458 117.708 121.624 121.65 123.448 123.06C125.272 124.47 122.464 130.512 118.528 132.762C114.592 135.012 110.932 132.48 108.826 131.352C106.72 130.224 92.626 121.086 92.626 121.086L93.778 103.506Z" fill="#919191" stroke="#263238" stroke-linecap="round" stroke-linejoin="round"/>
<path d="M96.6643 109.451L94.4683 122.045L99.4663 112.049" stroke="#263238" stroke-linecap="round" stroke-linejoin="round"/>
<path d="M98.1222 169.2C98.1222 169.2 94.7502 169.338 90.9222 165.822C87.0942 162.306 86.1222 160.758 86.1222 160.758C86.1222 160.758 84.1782 141.198 84.1782 139.368C84.1782 137.538 85.7502 128.4 87.1782 123.9C88.6062 119.4 91.2582 124.746 91.2582 124.746C91.2582 124.746 94.4922 156.246 95.0562 159.342C95.6202 162.438 98.1222 169.2 98.1222 169.2Z" fill="#787878" stroke="#263238" stroke-linecap="round" stroke-linejoin="round"/>
<path d="M86.8301 203.718C86.8301 203.718 82.9901 213.27 82.8401 217.884C82.6901 222.498 83.6381 229.458 80.0801 237.264C76.5221 245.07 73.1861 256.512 72.6281 260.01C72.0701 263.508 75.2681 273.084 76.9241 276.21C78.5801 279.336 77.9321 279.102 76.1741 279.042C74.8605 279.045 73.5694 278.7 72.4315 278.044C71.2937 277.388 70.3493 276.442 69.6941 275.304C67.8221 272.16 68.5421 270.204 67.2941 269.064L66.0101 267.918L64.9061 274.704L63.3701 274.434L64.7681 265.68C64.7681 265.68 64.6121 263.694 65.5181 262.842C66.4241 261.99 67.8341 259.398 67.8341 259.398C67.8341 259.398 69.3461 247.128 68.9681 238.752C68.5901 230.376 68.3261 225.09 69.3221 221.604C70.3181 218.118 70.3541 217.014 70.4741 213.498C70.5941 209.982 70.5101 205.8 70.5281 205.14C70.5461 204.48 86.8301 203.718 86.8301 203.718Z" fill="white"/>
<mask id="mask0_480_8602" style="mask-type:luminance" maskUnits="userSpaceOnUse" x="63" y="203" width="24" height="77">
<path d="M86.8301 203.718C86.8301 203.718 82.9901 213.27 82.8401 217.884C82.6901 222.498 83.6381 229.458 80.0801 237.264C76.5221 245.07 73.1861 256.512 72.6281 260.01C72.0701 263.508 75.2681 273.084 76.9241 276.21C78.5801 279.336 77.9321 279.102 76.1741 279.042C74.8605 279.045 73.5694 278.7 72.4315 278.044C71.2937 277.388 70.3493 276.442 69.6941 275.304C67.8221 272.16 68.5421 270.204 67.2941 269.064L66.0101 267.918L64.9061 274.704L63.3701 274.434L64.7681 265.68C64.7681 265.68 64.6121 263.694 65.5181 262.842C66.4241 261.99 67.8341 259.398 67.8341 259.398C67.8341 259.398 69.3461 247.128 68.9681 238.752C68.5901 230.376 68.3261 225.09 69.3221 221.604C70.3181 218.118 70.3541 217.014 70.4741 213.498C70.5941 209.982 70.5101 205.8 70.5281 205.14C70.5461 204.48 86.8301 203.718 86.8301 203.718Z" fill="white"/>
</mask>
<g mask="url(#mask0_480_8602)">
<path opacity="0.2" d="M70.498 205.152C70.498 205.632 70.498 208.008 70.498 210.624C72.412 211.02 77.098 211.548 84.7 209.652C85.744 206.424 86.83 203.718 86.83 203.718C86.83 203.718 70.522 204.492 70.498 205.152Z" fill="black"/>
</g>
<path d="M86.8301 203.718C86.8301 203.718 82.9901 213.27 82.8401 217.884C82.6901 222.498 83.6381 229.458 80.0801 237.264C76.5221 245.07 73.1861 256.512 72.6281 260.01C72.0701 263.508 75.2681 273.084 76.9241 276.21C78.5801 279.336 77.9321 279.102 76.1741 279.042C74.8605 279.045 73.5694 278.7 72.4315 278.044C71.2937 277.388 70.3493 276.442 69.6941 275.304C67.8221 272.16 68.5421 270.204 67.2941 269.064L66.0101 267.918L64.9061 274.704L63.3701 274.434L64.7681 265.68C64.7681 265.68 64.6121 263.694 65.5181 262.842C66.4241 261.99 67.8341 259.398 67.8341 259.398C67.8341 259.398 69.3461 247.128 68.9681 238.752C68.5901 230.376 68.3261 225.09 69.3221 221.604C70.3181 218.118 70.3541 217.014 70.4741 213.498C70.5941 209.982 70.5101 205.8 70.5281 205.14C70.5461 204.48 86.8301 203.718 86.8301 203.718Z" stroke="#263238" stroke-linecap="round" stroke-linejoin="round"/>
<path d="M76.9243 276.222L76.7503 275.874C72.9823 277.002 71.3503 273.198 69.4003 268.674C68.4687 266.501 67.219 264.479 65.6923 262.674C65.6203 262.746 65.5543 262.818 65.4883 262.878C64.5823 263.73 64.7383 265.716 64.7383 265.716L63.3403 274.47L64.8763 274.74L65.9803 267.954L67.2643 269.1C68.5423 270.24 67.8223 272.196 69.6643 275.34C70.3196 276.478 71.2639 277.424 72.4018 278.08C73.5396 278.736 74.8307 279.081 76.1443 279.078C77.9323 279.114 78.5803 279.354 76.9243 276.222Z" fill="#01a809" stroke="#263238" stroke-linecap="round" stroke-linejoin="round"/>
<path d="M63.0283 270.695L63.2563 278.633L64.3543 278.669L64.9423 272.735L63.0283 270.695Z" fill="#01a809" stroke="#263238" stroke-linecap="round" stroke-linejoin="round"/>
<path d="M56.7341 202.271C56.7341 202.271 59.1941 207.629 57.1601 215.927C55.1261 224.225 57.1061 237.269 60.1601 245.513C63.2141 253.757 62.9321 261.227 63.3161 262.997C63.7001 264.767 62.9201 268.265 63.0581 270.695C63.1961 273.125 67.2581 277.217 68.0741 278.561C68.8901 279.905 75.0641 280.115 76.6061 280.169C78.1481 280.223 78.4061 278.687 77.3381 277.991C76.2701 277.295 73.9721 273.257 73.9721 273.257C73.9721 273.257 70.4981 265.457 70.1441 262.787C69.7901 260.117 68.5541 244.469 69.1061 241.187C69.6581 237.905 71.5841 219.707 72.1841 214.889C72.7841 210.071 73.2341 203.261 73.2341 203.261L56.7341 202.271Z" fill="white"/>
<mask id="mask1_480_8602" style="mask-type:luminance" maskUnits="userSpaceOnUse" x="56" y="202" width="22" height="79">
<path d="M56.7341 202.271C56.7341 202.271 59.1941 207.629 57.1601 215.927C55.1261 224.225 57.1061 237.269 60.1601 245.513C63.2141 253.757 62.9321 261.227 63.3161 262.997C63.7001 264.767 62.9201 268.265 63.0581 270.695C63.1961 273.125 67.2581 277.217 68.0741 278.561C68.8901 279.905 75.0641 280.115 76.6061 280.169C78.1481 280.223 78.4061 278.687 77.3381 277.991C76.2701 277.295 73.9721 273.257 73.9721 273.257C73.9721 273.257 70.4981 265.457 70.1441 262.787C69.7901 260.117 68.5541 244.469 69.1061 241.187C69.6581 237.905 71.5841 219.707 72.1841 214.889C72.7841 210.071 73.2341 203.261 73.2341 203.261L56.7341 202.271Z" fill="white"/>
</mask>
<g mask="url(#mask1_480_8602)">
<path opacity="0.2" d="M72.6699 210.035C72.9939 206.465 73.2039 203.261 73.2039 203.261L56.7339 202.271C57.4687 204.161 57.8745 206.161 57.9339 208.187C60.6459 209.153 65.4699 210.299 72.6699 210.035Z" fill="black"/>
</g>
<path d="M56.7341 202.271C56.7341 202.271 59.1941 207.629 57.1601 215.927C55.1261 224.225 57.1061 237.269 60.1601 245.513C63.2141 253.757 62.9321 261.227 63.3161 262.997C63.7001 264.767 62.9201 268.265 63.0581 270.695C63.1961 273.125 67.2581 277.217 68.0741 278.561C68.8901 279.905 75.0641 280.115 76.6061 280.169C78.1481 280.223 78.4061 278.687 77.3381 277.991C76.2701 277.295 73.9721 273.257 73.9721 273.257C73.9721 273.257 70.4981 265.457 70.1441 262.787C69.7901 260.117 68.5541 244.469 69.1061 241.187C69.6581 237.905 71.5841 219.707 72.1841 214.889C72.7841 210.071 73.2341 203.261 73.2341 203.261L56.7341 202.271Z" stroke="#263238" stroke-linecap="round" stroke-linejoin="round"/>
<path d="M77.3082 277.991C76.8288 277.599 76.4121 277.136 76.0722 276.617C73.1202 276.473 69.5682 276.137 68.3862 275.051C67.0002 273.785 63.7122 267.755 63.2262 266.855C63.069 268.129 63.0029 269.412 63.0282 270.695C63.1662 273.095 67.2282 277.217 68.0442 278.561C68.8602 279.905 75.0342 280.115 76.5762 280.169C78.1182 280.223 78.3822 278.687 77.3082 277.991Z" fill="#01a809" stroke="#263238" stroke-linecap="round" stroke-linejoin="round"/>
<path d="M53.9622 141.899C53.9622 141.899 46.3722 164.699 46.9302 174.527C47.4882 184.355 53.1222 203.783 53.1222 203.783C53.1222 203.783 65.7762 207.155 74.7762 207.155C80.5127 207.082 86.2043 206.133 91.6542 204.341C91.6542 204.341 96.1542 172.541 94.1862 161.309C92.9471 154.452 90.2615 147.938 86.3082 142.199L53.9622 141.899Z" fill="#263238" stroke="#263238" stroke-linecap="round" stroke-linejoin="round"/>
<path d="M60.436 102.666C60.436 102.666 67.744 99.4316 71.404 99.4316C75.064 99.4316 83.074 105.618 84.34 106.746C85.606 107.874 90.106 120.666 90.808 124.182C91.51 127.698 86.308 143.166 86.308 143.166C86.308 143.166 76.888 145.134 69.856 144.858C62.824 144.582 59.728 143.73 59.728 143.73C59.728 143.73 56.92 129.666 55.528 121.368C54.136 113.07 52.576 107.568 53.842 105.48C55.108 103.392 60.436 102.666 60.436 102.666Z" fill="white"/>
<mask id="mask2_480_8602" style="mask-type:luminance" maskUnits="userSpaceOnUse" x="53" y="99" width="38" height="46">
<path d="M60.436 102.666C60.436 102.666 67.744 99.4316 71.404 99.4316C75.064 99.4316 83.074 105.618 84.34 106.746C85.606 107.874 90.106 120.666 90.808 124.182C91.51 127.698 86.308 143.166 86.308 143.166C86.308 143.166 76.888 145.134 69.856 144.858C62.824 144.582 59.728 143.73 59.728 143.73C59.728 143.73 56.92 129.666 55.528 121.368C54.136 113.07 52.576 107.568 53.842 105.48C55.108 103.392 60.436 102.666 60.436 102.666Z" fill="white"/>
</mask>
<g mask="url(#mask2_480_8602)">
<path opacity="0.3" d="M86.3078 143.165C86.3078 143.165 91.5158 127.697 90.8078 124.181C90.0998 120.665 85.6058 107.867 84.3398 106.745C83.9558 106.397 82.9358 105.581 81.6038 104.615L80.6978 105.929C80.6978 105.929 85.3778 119.399 85.5338 124.625C85.6838 129.503 81.3338 142.445 80.7338 144.113C83.9738 143.657 86.3078 143.165 86.3078 143.165Z" fill="black"/>
</g>
<path d="M60.436 102.666C60.436 102.666 67.744 99.4316 71.404 99.4316C75.064 99.4316 83.074 105.618 84.34 106.746C85.606 107.874 90.106 120.666 90.808 124.182C91.51 127.698 86.308 143.166 86.308 143.166C86.308 143.166 76.888 145.134 69.856 144.858C62.824 144.582 59.728 143.73 59.728 143.73C59.728 143.73 56.92 129.666 55.528 121.368C54.136 113.07 52.576 107.568 53.842 105.48C55.108 103.392 60.436 102.666 60.436 102.666Z" stroke="#263238" stroke-linecap="round" stroke-linejoin="round"/>
<path d="M78.0103 101.537C78.0103 101.537 85.3242 114.617 87.4362 122.777C89.5482 130.937 93.0583 165.107 94.6063 166.655C95.6548 167.659 96.8382 168.511 98.1223 169.187C98.1223 169.187 93.9223 146.123 93.9223 139.229C93.9223 132.335 95.0503 105.335 94.3423 103.787C93.6343 102.239 91.2523 103.085 86.3263 102.521C81.4003 101.957 78.0103 101.537 78.0103 101.537Z" fill="#919191" stroke="#263238" stroke-linecap="round" stroke-linejoin="round"/>
<path d="M65.992 98.7119L42.592 107.586C42.592 107.586 43.432 134.868 43.714 138.384C43.996 141.9 45.406 143.73 47.374 145.134C49.342 146.538 50.044 144.858 50.044 144.858C50.044 144.858 46.108 159.624 43.714 164.658C41.32 169.692 42.592 170.004 42.592 170.004C42.592 170.004 51.73 173.94 58.342 171.834C64.954 169.728 66.922 164.94 66.922 164.94L63.244 121.8C63.244 121.8 63.244 109.422 63.946 106.608C64.648 103.794 65.992 98.7119 65.992 98.7119Z" fill="#919191" stroke="#263238" stroke-linecap="round" stroke-linejoin="round"/>
<path d="M49.498 152.225C49.498 152.225 56.494 152.423 60.688 150.827V153.425C57.576 153.845 54.4382 154.045 51.298 154.025" stroke="#263238" stroke-linecap="round" stroke-linejoin="round"/>
<path d="M47.5 107.651C47.5 107.651 53.698 111.851 55.696 118.451" stroke="#263238" stroke-linecap="round" stroke-linejoin="round"/>
<path d="M65.9925 98.7111C65.366 99.224 64.7931 99.7989 64.2824 100.427C63.4784 101.429 61.2824 106.061 59.9564 107.465C58.6304 108.869 59.3565 109.175 59.8605 109.079C60.3645 108.983 65.1885 107.279 66.0945 106.865C66.8509 106.554 67.6241 106.286 68.4105 106.061L75.6525 113.201L77.6684 105.959C77.6684 105.959 85.2105 106.559 86.1165 106.661C87.0225 106.763 87.7245 106.259 87.0225 106.259C86.3205 106.259 80.4825 103.343 79.6785 102.941C78.8745 102.539 77.7645 100.121 75.3525 98.5131C72.9405 96.9051 67.7085 96.4011 65.9925 98.7111Z" fill="white" stroke="#263238" stroke-linecap="round" stroke-linejoin="round"/>
<path d="M76.1563 101.13L75.6523 113.202C75.6523 113.202 68.3083 103.944 67.3783 102.84C66.7393 101.897 66.2946 100.836 66.0703 99.7199L66.8743 89.2559C66.8743 89.2559 71.6023 96.9059 72.8143 97.7099C74.0263 98.5139 76.0543 100.122 76.1563 101.13Z" fill="white" stroke="#263238" stroke-linecap="round" stroke-linejoin="round"/>
<path d="M72.8383 97.7099C71.6383 96.9059 66.8983 89.2559 66.8983 89.2559L66.2983 97.0919C67.2223 98.9579 74.3203 103.134 75.5023 103.326C75.6865 103.36 75.8731 103.38 76.0603 103.386L76.1563 101.13C76.0543 100.122 74.0443 98.5139 72.8383 97.7099Z" fill="#263238" stroke="#263238" stroke-linecap="round" stroke-linejoin="round"/>
<path d="M84.8083 76.5771C84.8083 76.5771 74.0443 82.9192 70.8223 84.4252L69.0223 84.9292C69.0223 84.9292 66.7063 81.6112 65.5963 82.3132C64.4863 83.0152 63.8863 84.8272 64.4923 86.4412C65.0301 87.5744 65.8581 88.5453 66.8923 89.2551C66.8923 89.2551 66.9943 94.0852 67.7023 95.8972C68.4103 97.7092 75.7783 102.035 76.9783 102.233C78.1783 102.431 79.2943 102.233 79.9003 101.129C80.5063 100.025 84.3223 95.4951 86.0323 89.2551C87.7423 83.0151 86.7223 77.5851 84.8083 76.5771Z" fill="white" stroke="#263238" stroke-linecap="round" stroke-linejoin="round"/>
<path d="M82.3961 86.7412L82.6961 92.5792L79.4741 91.8712" stroke="#263238" stroke-linecap="round" stroke-linejoin="round"/>
<path d="M75.4541 92.5791C75.4541 92.5791 76.1561 93.4791 79.0541 94.4871" stroke="#263238" stroke-linecap="round" stroke-linejoin="round"/>
<path d="M74.9502 86.0391C74.9502 86.0391 75.7542 87.7491 78.6702 87.1431" stroke="#263238" stroke-linecap="round" stroke-linejoin="round"/>
<path d="M83.5 88.3496C83.7145 88.6951 84.0429 88.9549 84.4284 89.0842C84.814 89.2134 85.2326 89.204 85.612 89.0576" stroke="#263238" stroke-linecap="round" stroke-linejoin="round"/>
<path d="M75.7783 83.2195C76.5258 82.9013 77.3299 82.7373 78.1423 82.7373C78.9547 82.7373 79.7588 82.9013 80.5063 83.2195" stroke="#263238" stroke-linecap="round" stroke-linejoin="round"/>
<path d="M86.416 85.5354C86.014 84.4254 84.208 84.0234 84.208 84.0234" stroke="#263238" stroke-linecap="round" stroke-linejoin="round"/>
<path d="M104.716 129.119L95.716 131.141C95.716 131.141 84.55 130.655 83.716 130.979C82.882 131.303 83.638 134.621 83.638 134.621C82.4256 134.709 81.2084 134.709 79.996 134.621C78.622 134.459 77.974 134.705 78.298 135.593C78.622 136.481 79.996 137.291 81.298 137.291C82.6299 137.199 83.9533 137.01 85.258 136.727C85.258 136.727 88.576 137.927 89.794 137.927C91.012 137.927 92.794 136.877 92.794 136.877C92.794 136.877 94.978 136.955 96.112 137.039C97.246 137.123 98.698 135.659 98.698 135.659L107.518 135.419L104.716 129.119Z" fill="white" stroke="#263238" stroke-linecap="round" stroke-linejoin="round"/>
<path d="M82.2222 130.416C82.2222 130.416 80.1162 130.578 80.1162 131.226C80.1162 131.874 81.8202 136.728 81.8202 136.728L85.2162 137.052C85.2162 137.052 85.7022 136.89 85.2942 136.242C84.8231 135.639 84.2812 135.095 83.6802 134.622L83.7582 130.98L82.2222 130.416Z" fill="white" stroke="#263238" stroke-linecap="round" stroke-linejoin="round"/>
<path d="M85.6903 129.845C85.6903 129.845 82.0243 129.527 81.8863 129.941C81.7483 130.355 82.4863 136.541 82.4863 136.541C82.4863 136.541 86.1943 137.339 86.6863 137.303C86.8133 137.288 86.9335 137.238 87.0333 137.158C87.1331 137.078 87.2085 136.972 87.2509 136.851C87.2934 136.731 87.3013 136.601 87.2736 136.476C87.2459 136.351 87.1838 136.236 87.0943 136.145C86.4946 135.682 85.842 135.291 85.1503 134.981L85.6903 129.845Z" fill="white" stroke="#263238" stroke-linecap="round" stroke-linejoin="round"/>
<path d="M87.8083 129.443C87.8083 129.443 84.1663 128.843 84.0043 129.281C83.8423 129.719 84.1663 135.917 84.1663 135.917C84.1663 135.917 87.8083 136.967 88.2883 136.967C88.4162 136.959 88.5393 136.916 88.6441 136.843C88.7488 136.769 88.831 136.668 88.8814 136.55C88.9318 136.432 88.9485 136.303 88.9296 136.176C88.9107 136.05 88.857 135.931 88.7743 135.833C88.207 135.332 87.5828 134.899 86.9143 134.543L87.8083 129.443Z" fill="white" stroke="#263238" stroke-linecap="round" stroke-linejoin="round"/>
<path d="M97.1923 131.868C97.1923 131.868 88.1263 128.472 87.6463 128.31C87.1663 128.148 86.8363 128.394 86.8363 128.718C86.8363 129.042 85.3783 135 85.8643 135.432C86.3503 135.864 89.2603 136.728 89.2603 136.728C89.2603 136.728 90.0703 136.158 90.1543 135.918C90.2383 135.678 89.2603 135.024 89.2603 135.024L89.4223 133.224L91.5283 133.95" fill="white"/>
<path d="M97.1923 131.868C97.1923 131.868 88.1263 128.472 87.6463 128.31C87.1663 128.148 86.8363 128.394 86.8363 128.718C86.8363 129.042 85.3783 135 85.8643 135.432C86.3503 135.864 89.2603 136.728 89.2603 136.728C89.2603 136.728 90.0703 136.158 90.1543 135.918C90.2383 135.678 89.2603 135.024 89.2603 135.024L89.4223 133.224L91.5283 133.95" stroke="#263238" stroke-linecap="round" stroke-linejoin="round"/>
<path d="M98.0801 130.494C98.0801 130.494 100.108 132.894 99.1361 135.432H101.236C101.236 135.432 102.046 131.388 100.186 130.254L98.0801 130.494Z" fill="#263238" stroke="#263238" stroke-linecap="round" stroke-linejoin="round"/>
<path d="M101.236 129.282C101.236 129.282 102.67 131.154 103.036 137.436C103.108 138.6 118.21 136.566 122.416 135.756C126.622 134.946 128.242 133.356 128.566 129.846C128.89 126.336 125.002 122.808 122.092 121.596C119.182 120.384 101.236 129.282 101.236 129.282Z" fill="#919191" stroke="#263238" stroke-linecap="round" stroke-linejoin="round"/>
<path d="M62.8353 79.2103L57.5453 81.8455C56.9669 82.1336 56.7316 82.8361 57.0197 83.4144L63.9622 97.351C64.2503 97.9294 64.9527 98.1647 65.5311 97.8766L70.8211 95.2414C71.3995 94.9533 71.6348 94.2508 71.3467 93.6724L64.4042 79.7359C64.1161 79.1575 63.4137 78.9222 62.8353 79.2103Z" fill="#01a809" stroke="#263238" stroke-linecap="round" stroke-linejoin="round"/>
<path d="M58.6481 107.465L60.0581 101.735L57.0581 92.2731C57.0581 92.2731 59.7761 85.3311 60.2801 84.6291C60.7841 83.9271 62.0801 83.2191 62.5901 83.4291C63.1001 83.6391 63.0941 84.3351 62.3921 84.7371C61.8965 85.0904 61.5115 85.5774 61.2821 86.1412L59.7761 91.2772L60.4601 92.3991L62.3741 86.5611C62.3741 86.5611 67.9061 85.8592 68.2061 85.8592C68.5061 85.8592 69.7181 85.9611 69.1121 86.7651C68.7756 87.2339 68.2739 87.5577 67.7081 87.6711H70.0181C70.0181 87.6711 70.8221 88.0731 70.3181 88.6791C69.8141 89.2851 66.4001 90.1851 66.4001 90.1851L65.0921 94.3131L67.6061 91.3912L70.1201 90.9891C70.1201 90.9891 71.8301 91.3911 71.5301 92.0991C71.2301 92.8071 69.7301 92.3991 69.7301 92.3991L68.2181 93.2031L65.9081 97.4031V102.635C65.9081 103.943 63.5921 108.677 63.5921 108.677L58.6481 107.465Z" fill="white" stroke="#263238" stroke-linecap="round" stroke-linejoin="round"/>
<path d="M67.7081 87.6475L64.2821 88.4515L62.4761 94.2895" stroke="#263238" stroke-linecap="round" stroke-linejoin="round"/>
<path d="M57.4781 105.6L66.6221 108.696C66.6221 108.696 59.3741 140.688 58.2221 143.616C56.3861 148.344 49.8761 147.366 47.2001 146.526C44.5241 145.686 43.0001 140.478 43.6841 138.366C44.3681 136.254 57.4781 105.6 57.4781 105.6Z" fill="#919191" stroke="#263238" stroke-linecap="round" stroke-linejoin="round"/>
</svg>
