<svg width="23" height="25" viewBox="0 0 23 25" fill="none" xmlns="http://www.w3.org/2000/svg">
<path d="M7.30864 10.8696H4.82422V13.3542H7.30864V10.8696Z" fill="white"/>
<path d="M18.1758 10.8696H15.6914V13.3542H18.1758V10.8696Z" fill="white"/>
<path d="M14.5547 10.8696H12.0703V13.3542H14.5547V10.8696Z" fill="white"/>
<path d="M7.30864 14.7515H4.82422V17.2361H7.30864V14.7515Z" fill="white"/>
<path d="M14.5547 14.7515H12.0703V17.2361H14.5547V14.7515Z" fill="white"/>
<path d="M10.9297 14.7515H8.44531V17.2361H10.9297V14.7515Z" fill="white"/>
<path d="M18.1758 18.6333H15.6914V21.1179H18.1758V18.6333Z" fill="white"/>
<path d="M14.5547 18.6333H12.0703V21.1179H14.5547V18.6333Z" fill="white"/>
<path d="M10.9297 18.6333H8.44531V21.1179H10.9297V18.6333Z" fill="white"/>
<path d="M20.4484 2.68799H18.4281V4.625C18.4281 5.34775 17.8327 5.93555 17.1008 5.93555H14.4629C13.7311 5.93555 13.1356 5.34775 13.1356 4.625V2.68799H9.85957V4.60679C9.85957 5.3396 9.25757 5.93555 8.51758 5.93555H5.90898C5.16899 5.93555 4.56699 5.3396 4.56699 4.60679V2.68799H2.54668C1.23291 2.68799 0.164062 3.74717 0.164062 5.04902V22.6392C0.164062 23.941 1.23291 25.0002 2.54668 25.0002H20.4484C21.7642 25.0002 22.8347 23.941 22.8347 22.6392V5.04902C22.8347 3.74722 21.7642 2.68799 20.4484 2.68799ZM21.1267 22.5933C21.1267 23.0113 20.8458 23.292 20.4279 23.292H2.57085C2.15288 23.292 1.87207 23.0113 1.87207 22.5933V8.69595H21.1267V22.5933Z" fill="white"/>
<path d="M5.9083 5.00523H8.51533C8.73608 5.00523 8.91567 4.82686 8.91567 4.60757V1.00063C8.91567 0.448877 8.46304 0 7.90659 0H6.51699C5.9606 0 5.50781 0.448828 5.50781 1.00063V4.60757C5.50786 4.82686 5.68745 5.00523 5.9083 5.00523Z" fill="white"/>
<path d="M14.463 5.00523H17.1009C17.3132 5.00523 17.4859 4.83369 17.4859 4.6231V0.985254C17.4859 0.442041 17.0402 0 16.4922 0H15.0717C14.5238 0 14.0781 0.442041 14.0781 0.985254V4.6231C14.0781 4.83369 14.2508 5.00523 14.463 5.00523Z" fill="white"/>
</svg>
