<svg width="60" height="61" viewBox="0 0 60 61" fill="none" xmlns="http://www.w3.org/2000/svg">
<g clip-path="url(#clip0_5598_4247)">
<path fill-rule="evenodd" clip-rule="evenodd" d="M17.5 2.76172C16.1193 2.76172 15 3.88102 15 5.26172V7.76172H12.5C8.35788 7.76172 5 11.1196 5 15.2617V50.2617C5 54.404 8.35788 57.7617 12.5 57.7617H32.7525C31.2877 56.3265 30.0743 54.6357 29.184 52.7617H12.5C11.1193 52.7617 10 51.6425 10 50.2617V27.7617H50V28.4865C51.806 29.024 53.49 29.8452 55 30.8985V15.2617C55 11.1196 51.6423 7.76172 47.5 7.76172H45V5.26172C45 3.88102 43.8807 2.76172 42.5 2.76172C41.1193 2.76172 40 3.88102 40 5.26172V7.76172H20V5.26172C20 3.88102 18.8807 2.76172 17.5 2.76172ZM40 15.2617V12.7617H20V15.2617C20 16.6424 18.8807 17.7617 17.5 17.7617C16.1193 17.7617 15 16.6424 15 15.2617V12.7617H12.5C11.1193 12.7617 10 13.881 10 15.2617V22.7617H50V15.2617C50 13.881 48.8807 12.7617 47.5 12.7617H45V15.2617C45 16.6424 43.8807 17.7617 42.5 17.7617C41.1193 17.7617 40 16.6424 40 15.2617Z" fill="#0F0F0F"/>
<path d="M38.2322 44.5295C39.2084 43.5533 40.7914 43.5533 41.7677 44.5295L43.3707 46.1323L48.1182 41.3845C49.0947 40.4083 50.6774 40.4083 51.6539 41.3845C52.6302 42.361 52.6302 43.9438 51.6539 44.9203L45.3032 51.2708C45.0872 51.4868 44.8417 51.655 44.5794 51.7753C43.6219 52.3353 42.3719 52.2048 41.5507 51.3835L38.2322 48.065C37.2559 47.0888 37.2559 45.5058 38.2322 44.5295Z" fill="#0F0F0F"/>
<path fill-rule="evenodd" clip-rule="evenodd" d="M60 45.2617C60 53.546 53.2842 60.2617 45 60.2617C36.7158 60.2617 30 53.546 30 45.2617C30 36.9775 36.7158 30.2617 45 30.2617C53.2842 30.2617 60 36.9775 60 45.2617ZM34.9548 45.2617C34.9548 50.8095 39.4523 55.307 45 55.307C50.5477 55.307 55.0453 50.8095 55.0453 45.2617C55.0453 39.714 50.5477 35.2165 45 35.2165C39.4523 35.2165 34.9548 39.714 34.9548 45.2617Z" fill="#0F0F0F"/>
</g>
<defs>
<clipPath id="clip0_5598_4247">
<rect width="60" height="60" fill="white" transform="translate(0 0.261719)"/>
</clipPath>
</defs>
</svg>
