<svg width="44" height="44" viewBox="0 0 44 44" fill="none" xmlns="http://www.w3.org/2000/svg">
<g clip-path="url(#clip0_3048_12875)">
<path d="M26.7719 34.6133H6.73618V5.87716H26.7664V8.02689H29.4587V5.29033C29.4605 2.71254 27.344 0.601562 24.768 0.601562H8.73825C6.15858 0.601562 4.04761 2.71254 4.04761 5.29033V38.9109C4.04761 41.4925 6.15858 43.6016 8.73825 43.6016H24.768C27.344 43.6016 29.4605 41.4925 29.4605 38.9109V34.5635H26.7719V34.6133ZM16.7503 41.2544C15.5619 41.2544 14.6025 40.2931 14.6025 39.1066C14.6025 37.9164 15.562 36.9568 16.7503 36.9568C17.9405 36.9568 18.9019 37.9182 18.9019 39.1066C18.9019 40.2931 17.9406 41.2544 16.7503 41.2544Z" fill="#01a809"/>
<path d="M15.0416 8.75781H9.03162V12.4225H15.0416V8.75781Z" fill="#01a809"/>
<path d="M15.0416 18.1406H9.03162V21.8053H15.0416V18.1406Z" fill="#01a809"/>
<path d="M15.0416 27.9688H9.03162V31.6316H15.0416V27.9688Z" fill="#01a809"/>
<path d="M36.3727 19.7588C36.1605 18.6479 35.7306 17.6201 35.1217 16.7215L37.2769 14.5644L35.0756 12.3704L32.9239 14.5238C32.029 13.9112 30.9957 13.4867 29.8885 13.2727V10.2188H26.7737V13.2727C25.6647 13.4867 24.6406 13.913 23.7365 14.5238L21.5887 12.3704L19.3873 14.5662L21.5389 16.7233C20.9318 17.6219 20.5037 18.6497 20.2915 19.7587H17.2412V22.8717H20.2914C20.5036 23.977 20.9336 25.0048 21.5406 25.9071L19.3872 28.0605L21.5886 30.2527L23.742 28.1011C24.6425 28.7137 25.6702 29.1399 26.7792 29.3558V32.4042H29.894V29.3541C31.0011 29.1418 32.0271 28.7119 32.9294 28.103L35.081 30.2546L37.2824 28.0605L35.1271 25.9071C35.736 25.0085 36.1642 23.9789 36.3782 22.8699H39.4303V19.7588H36.3727ZM28.3348 24.7022C26.4619 24.7022 24.9414 23.1891 24.9414 21.3143C24.9414 19.4414 26.4619 17.9191 28.3348 17.9191C30.2096 17.9191 31.7227 19.4396 31.7227 21.3143C31.7227 23.1909 30.2059 24.7022 28.3348 24.7022Z" fill="#01a809"/>
</g>
<defs>
<clipPath id="clip0_3048_12875">
<rect width="43" height="43" fill="white" transform="translate(0.239014 0.601562)"/>
</clipPath>
</defs>
</svg>
