<svg width="89" height="90" viewBox="0 0 89 90" fill="none" xmlns="http://www.w3.org/2000/svg">
<g clip-path="url(#clip0_3048_12869)">
<path d="M19.844 7.20385C24.7894 6.55518 29.9279 7.66854 34.1607 10.3372C36.5499 11.7616 38.461 13.8233 40.4207 15.775C41.8423 17.1824 43.2488 18.6068 44.6741 20.0103L44.7266 20.1564C43.6619 21.2165 42.4539 23.3363 41.1024 26.5157C38.268 27.5241 36.3335 28.5422 35.2991 29.5697C32.9905 27.3221 30.7569 24.9949 28.4576 22.7359C26.2709 20.6647 22.9665 19.8302 20.1028 20.7804C16.8415 21.7079 14.3529 24.8621 14.1803 28.2856C14.0678 30.0666 14.5273 31.8761 15.48 33.3783C16.0726 34.3456 16.939 35.0834 17.7154 35.8914C19.5814 37.7881 21.4925 39.6412 23.3303 41.5644C22.3489 42.5399 21.1868 44.4282 19.844 47.2293C16.9878 48.5984 15.0061 49.8434 13.899 50.9645C11.4179 48.605 9.04553 46.1184 6.58689 43.7323C3.65942 40.6521 1.70151 36.6558 1.02638 32.4394C0.283722 27.9158 0.988867 23.1532 3.05929 19.0696C4.79778 15.646 7.42894 12.672 10.6302 10.5838C13.4133 8.81414 16.5658 7.5737 19.844 7.20385Z" fill="#EA4335"/>
<path d="M44.7679 62.9224L66.2204 41.5391L72.0207 45.0233L75.6499 50.9884L44.7679 81.8875L23.3453 60.4529L27.4562 54.6021L32.8329 50.9808L44.7679 62.9224Z" fill="#34A853"/>
<path d="M35.3178 29.5938L40.7138 32.5457L44.7679 39.0697L23.3454 60.453L13.899 50.9676L35.3178 29.5938Z" fill="#FBBC05"/>
<path d="M70.6351 7.33214C76.9214 8.40947 82.7032 12.3793 85.8726 17.9954C89.4827 24.1653 89.6796 32.1713 86.4765 38.5556C85.1487 41.2982 83.1214 43.6122 80.9628 45.7156C79.1719 47.4473 77.4709 49.2947 75.6499 50.9827C72.4992 47.8418 69.3448 44.7028 66.2204 41.5334C68.4465 39.2593 70.7082 37.023 72.9418 34.7565C74.3821 33.2847 75.2842 31.2666 75.3573 29.1897C75.4567 26.8321 74.5359 24.4404 72.8462 22.8054C71.1246 21.1572 68.7128 20.2202 66.3386 20.4194C64.2963 20.518 62.3253 21.455 60.885 22.9154C55.5101 28.2944 50.1484 33.6887 44.7679 39.0639C41.6041 35.9192 38.4366 32.7782 35.3178 29.588C35.3141 29.5823 35.3047 29.5728 35.2991 29.5671C38.4497 26.4376 41.5797 23.2872 44.7266 20.1538C47.0071 17.8816 49.2801 15.5998 51.5624 13.3257C54.518 10.3232 58.4151 8.35636 62.4865 7.45353C65.1702 6.94332 67.9383 6.88642 70.6351 7.33214Z" fill="#4285F4"/>
</g>
<defs>
<clipPath id="clip0_3048_12869">
<rect width="88" height="89" fill="white" transform="translate(0.739258 0.0703125)"/>
</clipPath>
</defs>
</svg>
