<svg width="47" height="48" viewBox="0 0 47 48" fill="none" xmlns="http://www.w3.org/2000/svg">
<g clip-path="url(#clip0_3048_12884)">
<path d="M23.6869 16.7095C23.4751 15.952 22.8397 15.3979 22.0742 15.3033C21.3089 15.2087 20.5624 15.5919 20.18 16.2758L16.8984 22.1433H16.094C15.0355 22.1433 14.1774 23.02 14.1774 24.1016C14.1774 25.1832 15.0355 26.0599 16.094 26.0599H18.0107C18.6985 26.0599 19.3336 25.6834 19.6748 25.0731L21.251 22.2551L23.8345 31.4937C24.0367 32.2168 24.6261 32.7576 25.3513 32.8855C26.0764 33.0134 26.8094 32.7059 27.237 32.094L31.4555 26.0598C32.5011 26.0443 33.344 25.1736 33.344 24.1016C33.344 23.02 32.4859 22.1433 31.4274 22.1433H30.469C29.85 22.1433 29.2692 22.4488 28.9094 22.9634L26.4283 26.5125L23.6869 16.7095Z" fill="#01a809"/>
<path fill-rule="evenodd" clip-rule="evenodd" d="M14.1774 6.47656V8.4349C11.0017 8.4349 8.42737 11.0652 8.42737 14.3099V33.8932C8.42737 37.138 11.0017 39.7682 14.1774 39.7682V41.7266C14.1774 44.9713 16.7517 47.6016 19.9274 47.6016H27.594C30.7698 47.6016 33.344 44.9713 33.344 41.7266V39.7682C36.5198 39.7682 39.094 37.138 39.094 33.8932V26.0599C40.1526 26.0599 41.0107 25.1832 41.0107 24.1016C41.0107 23.02 40.1526 22.1432 39.094 22.1432V14.3099C39.094 11.0652 36.5198 8.4349 33.344 8.4349V6.47656C33.344 3.2319 30.7698 0.601562 27.594 0.601562H19.9274C16.7517 0.601562 14.1774 3.2319 14.1774 6.47656ZM19.9274 4.51823C18.8688 4.51823 18.0107 5.39501 18.0107 6.47656V8.4349H29.5107V6.47656C29.5107 5.39501 28.6526 4.51823 27.594 4.51823H19.9274ZM14.1774 35.8516C13.1188 35.8516 12.2607 34.9748 12.2607 33.8932V14.3099C12.2607 13.2283 13.1188 12.3516 14.1774 12.3516H33.344C34.4026 12.3516 35.2607 13.2283 35.2607 14.3099V33.8932C35.2607 34.9748 34.4026 35.8516 33.344 35.8516H14.1774ZM18.0107 39.7682H29.5107V41.7266C29.5107 42.8082 28.6526 43.6849 27.594 43.6849H19.9274C18.8688 43.6849 18.0107 42.8082 18.0107 41.7266V39.7682Z" fill="#01a809"/>
</g>
<defs>
<clipPath id="clip0_3048_12884">
<rect width="46" height="47" fill="white" transform="translate(0.760742 0.601562)"/>
</clipPath>
</defs>
</svg>
