<svg width="19" height="18" viewBox="0 0 19 18" fill="none" xmlns="http://www.w3.org/2000/svg">
<g clip-path="url(#clip0_233_2541)">
<path d="M4.47181 7.65092C5.17125 5.64924 7.16299 4.21165 9.52216 4.21165C10.7903 4.21165 11.9358 4.63665 12.8358 5.3321L15.454 2.85938C13.8585 1.54574 11.8131 0.734375 9.52216 0.734375C5.97471 0.734375 2.92047 2.64567 1.45215 5.44481L4.47181 7.65092Z" fill="#EA4335"/>
<path d="M12.5526 13.4933C11.7353 13.9918 10.6967 14.2571 9.5221 14.2571C7.17196 14.2571 5.18644 12.8305 4.47984 10.8408L1.4502 13.0134C2.91669 15.8174 5.97085 17.7344 9.5221 17.7344C11.7217 17.7344 13.8236 16.9959 15.3977 15.6091L12.5526 13.4933Z" fill="#34A853"/>
<path d="M15.3981 15.6086C17.0443 14.1583 18.1134 11.999 18.1134 9.23393C18.1134 8.73166 18.0316 8.19075 17.9088 7.68848H9.52246V10.9726H14.3497C14.1115 12.0769 13.4722 12.9323 12.553 13.4928L15.3981 15.6086Z" fill="#4A90E2"/>
<path d="M4.4802 10.8403C4.30121 10.3363 4.20428 9.79615 4.20428 9.2339C4.20428 8.68018 4.29829 8.14789 4.47211 7.65044L1.45245 5.44434C0.849901 6.58504 0.522461 7.87063 0.522461 9.2339C0.522461 10.5936 0.856046 11.8761 1.45056 13.0129L4.4802 10.8403Z" fill="#FBBC05"/>
</g>
<defs>
<clipPath id="clip0_233_2541">
<rect width="18" height="17" fill="white" transform="translate(0.522461 0.734375)"/>
</clipPath>
</defs>
</svg>
