<svg width="31" height="31" viewBox="0 0 31 31" fill="none" xmlns="http://www.w3.org/2000/svg">
<path d="M14.5156 23.3396H17.0156V20.8396H14.5156V23.3396ZM15.7656 3.3396C14.1241 3.3396 12.4987 3.66292 10.9821 4.29111C9.46551 4.91929 8.08752 5.84003 6.92679 7.00077C4.58259 9.34497 3.26563 12.5244 3.26562 15.8396C3.26563 19.1548 4.58259 22.3342 6.92679 24.6784C8.08752 25.8392 9.46551 26.7599 10.9821 27.3881C12.4987 28.0163 14.1241 28.3396 15.7656 28.3396C19.0808 28.3396 22.2603 27.0226 24.6045 24.6784C26.9487 22.3342 28.2656 19.1548 28.2656 15.8396C28.2656 14.1981 27.9423 12.5726 27.3141 11.0561C26.6859 9.53949 25.7652 8.1615 24.6045 7.00077C23.4437 5.84003 22.0657 4.91929 20.5492 4.29111C19.0326 3.66292 17.4071 3.3396 15.7656 3.3396ZM15.7656 25.8396C10.2531 25.8396 5.76563 21.3521 5.76563 15.8396C5.76563 10.3271 10.2531 5.8396 15.7656 5.8396C21.2781 5.8396 25.7656 10.3271 25.7656 15.8396C25.7656 21.3521 21.2781 25.8396 15.7656 25.8396ZM15.7656 8.3396C14.4395 8.3396 13.1678 8.86638 12.2301 9.80407C11.2924 10.7417 10.7656 12.0135 10.7656 13.3396H13.2656C13.2656 12.6766 13.529 12.0407 13.9979 11.5718C14.4667 11.103 15.1026 10.8396 15.7656 10.8396C16.4287 10.8396 17.0646 11.103 17.5334 11.5718C18.0022 12.0407 18.2656 12.6766 18.2656 13.3396C18.2656 15.8396 14.5156 15.5271 14.5156 19.5896H17.0156C17.0156 16.7771 20.7656 16.4646 20.7656 13.3396C20.7656 12.0135 20.2388 10.7417 19.3012 9.80407C18.3635 8.86638 17.0917 8.3396 15.7656 8.3396Z" fill="white" fill-opacity="0.5"/>
</svg>
