<svg width="20" height="20" viewBox="0 0 20 20" fill="none" xmlns="http://www.w3.org/2000/svg">
<path d="M11.8329 4.49989C11.526 4.5029 11.2197 4.52741 10.9162 4.57322C10.8652 3.47921 10.3816 2.45028 9.57194 1.71279C8.76225 0.975304 7.69276 0.58967 6.59874 0.640724C5.50472 0.691778 4.4758 1.17534 3.73831 1.98503C3.00082 2.79472 2.61519 3.86421 2.66624 4.95822V5.41656C2.18001 5.41656 1.7137 5.60971 1.36988 5.95353C1.02606 6.29735 0.832909 6.76366 0.832909 7.24989V15.4999C0.825276 15.7427 0.867477 15.9845 0.956909 16.2104C1.04634 16.4363 1.18111 16.6415 1.35289 16.8132C1.52468 16.985 1.72984 17.1198 1.95573 17.2092C2.18161 17.2987 2.42342 17.3409 2.66624 17.3332H7.00208C7.89261 18.1186 8.96053 18.676 10.114 18.9575C11.2676 19.239 12.4722 19.2362 13.6244 18.9493C14.7766 18.6624 15.8419 18.1 16.7287 17.3105C17.6156 16.521 18.2975 15.5279 18.7158 14.4167C19.1341 13.3055 19.2763 12.1092 19.1302 10.9309C18.9841 9.75255 18.5541 8.6273 17.8771 7.65185C17.2 6.67641 16.2963 5.87994 15.2435 5.33091C14.1907 4.78188 13.0203 4.4967 11.8329 4.49989ZM4.49958 4.95822C4.51546 4.3782 4.74991 3.8256 5.15596 3.41112C5.56201 2.99663 6.10966 2.75086 6.68923 2.72304C7.2688 2.69522 7.83749 2.8874 8.28136 3.2611C8.72524 3.63479 9.01154 4.16239 9.08291 4.73822V5.41656H4.49958V4.95822ZM11.8329 17.3332C10.7451 17.3332 9.68174 17.0107 8.77727 16.4063C7.8728 15.802 7.16785 14.943 6.75157 13.938C6.33529 12.933 6.22637 11.8271 6.43859 10.7602C6.65081 9.69333 7.17463 8.71333 7.94382 7.94414C8.71301 7.17495 9.69302 6.65112 10.7599 6.43891C11.8268 6.22669 12.9327 6.33561 13.9377 6.75189C14.9427 7.16817 15.8016 7.87312 16.406 8.77759C17.0103 9.68206 17.3329 10.7454 17.3329 11.8332C17.3329 13.2919 16.7534 14.6909 15.722 15.7223C14.6905 16.7538 13.2916 17.3332 11.8329 17.3332ZM10.4579 9.99989V10.9166H14.1246C14.3677 10.9166 14.6009 11.0131 14.7728 11.185C14.9447 11.357 15.0412 11.5901 15.0412 11.8332V14.5832C15.0412 14.8263 14.9447 15.0595 14.7728 15.2314C14.6009 15.4033 14.3677 15.4999 14.1246 15.4999H12.7496V16.4166H10.9162V15.4999H8.62458V13.6666H13.2079V12.7499H9.54124C9.29813 12.7499 9.06497 12.6533 8.89306 12.4814C8.72115 12.3095 8.62458 12.0763 8.62458 11.8332V9.08322C8.62458 8.84011 8.72115 8.60695 8.89306 8.43504C9.06497 8.26313 9.29813 8.16656 9.54124 8.16656H10.9162V7.24989H12.7496V8.16656H15.0412V9.99989H10.4579Z" fill="#706A6D"/>
</svg>
