<svg width="21" height="21" viewBox="0 0 21 21" fill="none" xmlns="http://www.w3.org/2000/svg">
<path fill-rule="evenodd" clip-rule="evenodd" d="M1.02994 6.18187C0.510742 7.13041 0.510742 8.27462 0.510742 10.563V12.0841C0.510742 15.9849 0.510742 17.9354 1.68231 19.1472C2.85389 20.3591 4.7395 20.3591 8.51074 20.3591H12.5107C16.2819 20.3591 18.1676 20.3591 19.3391 19.1472C20.5107 17.9354 20.5107 15.9849 20.5107 12.0841V10.563C20.5107 8.27462 20.5107 7.13041 19.9915 6.18187C19.4723 5.23334 18.5238 4.64464 16.6267 3.46725L14.6267 2.226C12.6213 0.981421 11.6186 0.359131 10.5107 0.359131C9.40284 0.359131 8.40013 0.981421 6.39477 2.226L4.39477 3.46726C2.49769 4.64464 1.54914 5.23334 1.02994 6.18187ZM7.51074 15.6091C7.09653 15.6091 6.76074 15.9449 6.76074 16.3591C6.76074 16.7733 7.09653 17.1091 7.51074 17.1091H13.5107C13.9249 17.1091 14.2607 16.7733 14.2607 16.3591C14.2607 15.9449 13.9249 15.6091 13.5107 15.6091H7.51074Z" fill="black"/>
</svg>
