<svg width="60" height="61" viewBox="0 0 60 61" fill="none" xmlns="http://www.w3.org/2000/svg">
<path fill-rule="evenodd" clip-rule="evenodd" d="M28.2758 4.70136C29.2415 3.78184 30.7585 3.78184 31.7243 4.70136L51.7243 23.749L57.9743 29.7015C58.974 30.6535 59.0125 32.236 58.0603 33.236C57.1083 34.2357 55.5258 34.2742 54.5258 33.322L52.5 31.3927V50.2617C52.5 53.0232 50.2615 55.2617 47.5 55.2617H35H25H12.5C9.73858 55.2617 7.50001 53.0232 7.50001 50.2617V31.3927L5.47416 33.322C4.47431 34.2742 2.89188 34.2357 1.93966 33.236C0.987445 32.236 1.02604 30.6535 2.02587 29.7015L8.27586 23.749L28.2758 4.70136ZM12.5 26.6307V50.2617H22.5V37.7617C22.5 33.6195 25.8578 30.2617 30 30.2617C34.1423 30.2617 37.5 33.6195 37.5 37.7617V50.2617H47.5V26.6307L30 9.96409L12.5 26.6307ZM32.5 50.2617V37.7617C32.5 36.381 31.3808 35.2617 30 35.2617C28.6193 35.2617 27.5 36.381 27.5 37.7617V50.2617H32.5Z" fill="black"/>
</svg>
