<svg width="26" height="26" viewBox="0 0 26 26" fill="none" xmlns="http://www.w3.org/2000/svg">
<path d="M17.8262 5.79199H21.8887C22.2339 5.79199 22.5137 6.07181 22.5137 6.41699V21.8337C22.5137 22.1789 22.2339 22.4587 21.8887 22.4587H4.38867C4.04349 22.4587 3.76367 22.1789 3.76367 21.8337V6.41699C3.76367 6.07181 4.04349 5.79199 4.38867 5.79199H8.45117" stroke="white" stroke-width="1.5" stroke-linecap="round" stroke-linejoin="round"/>
<path d="M17.5946 7.17616L17.8083 5.89474C17.8195 5.82671 17.8195 5.75727 17.8083 5.68924L17.5946 4.40783C17.4272 3.40327 16.5581 2.66699 15.5396 2.66699H10.736C9.71763 2.66699 8.84848 3.40327 8.68106 4.40783L8.46748 5.68924C8.45615 5.75727 8.45615 5.82671 8.46748 5.89474L8.68106 7.17616C8.84848 8.18071 9.71763 8.91699 10.736 8.91699H15.5396C16.5581 8.91699 17.4272 8.18071 17.5946 7.17616Z" stroke="white" stroke-width="1.5" stroke-linecap="round" stroke-linejoin="round"/>
<path d="M13.1393 8.91667L12.0977 6.3125" stroke="white" stroke-width="1.5" stroke-linecap="round" stroke-linejoin="round"/>
<path d="M7.92969 18.292H18.3464" stroke="white" stroke-width="1.5" stroke-linecap="round" stroke-linejoin="round"/>
</svg>
