<svg width="30" height="29" viewBox="0 0 30 29" fill="none" xmlns="http://www.w3.org/2000/svg">
<path d="M7.5 9.96875C7.5 8.04593 8.29018 6.20186 9.6967 4.84223C11.1032 3.48259 13.0109 2.71875 15 2.71875C16.9891 2.71875 18.8968 3.48259 20.3033 4.84223C21.7098 6.20186 22.5 8.04593 22.5 9.96875C22.5 11.8916 21.7098 13.7356 20.3033 15.0953C18.8968 16.4549 16.9891 17.2187 15 17.2188C13.0109 17.2187 11.1032 16.4549 9.6967 15.0953C8.29018 13.7356 7.5 11.8916 7.5 9.96875ZM22.957 3.625C21.0645 1.41035 18.2051 0 15 0C11.7949 0 8.93555 1.41035 7.04297 3.625H3.75C1.68164 3.625 0 5.25059 0 7.25V25.375C0 27.3744 1.68164 29 3.75 29H26.25C28.3184 29 30 27.3744 30 25.375V7.25C30 5.25059 28.3184 3.625 26.25 3.625H22.957ZM17.3438 12.6875C17.3438 12.0871 17.1035 11.5434 16.7051 11.1355L18.6738 6.70059C18.8789 6.2418 18.6563 5.70938 18.1816 5.51113C17.707 5.31289 17.1562 5.52812 16.9512 5.98691L14.9824 10.4219C13.6934 10.4275 12.6562 11.4414 12.6562 12.6875C12.6562 13.9393 13.7051 14.9531 15 14.9531C16.2949 14.9531 17.3438 13.9393 17.3438 12.6875Z" fill="#01a809"/>
</svg>
