<svg width="32" height="33" viewBox="0 0 32 33" fill="none" xmlns="http://www.w3.org/2000/svg">
<path d="M24.1377 2.54102H8.6377C5.42754 2.54102 2.8252 5.22731 2.8252 8.54102V24.541C2.8252 27.8547 5.42754 30.541 8.6377 30.541H24.1377C27.3479 30.541 29.9502 27.8547 29.9502 24.541V8.54102C29.9502 5.22731 27.3479 2.54102 24.1377 2.54102Z" fill="url(#paint0_radial_1220_1546)"/>
<path d="M24.1377 2.54102H8.6377C5.42754 2.54102 2.8252 5.22731 2.8252 8.54102V24.541C2.8252 27.8547 5.42754 30.541 8.6377 30.541H24.1377C27.3479 30.541 29.9502 27.8547 29.9502 24.541V8.54102C29.9502 5.22731 27.3479 2.54102 24.1377 2.54102Z" fill="url(#paint1_radial_1220_1546)"/>
<path d="M24.1377 2.54102H8.6377C5.42754 2.54102 2.8252 5.22731 2.8252 8.54102V24.541C2.8252 27.8547 5.42754 30.541 8.6377 30.541H24.1377C27.3479 30.541 29.9502 27.8547 29.9502 24.541V8.54102C29.9502 5.22731 27.3479 2.54102 24.1377 2.54102Z" fill="url(#paint2_radial_1220_1546)"/>
<path d="M23.1689 11.041C23.1689 11.8694 22.5183 12.541 21.7158 12.541C20.9133 12.541 20.2627 11.8694 20.2627 11.041C20.2627 10.2126 20.9133 9.54102 21.7158 9.54102C22.5183 9.54102 23.1689 10.2126 23.1689 11.041Z" fill="white"/>
<path fill-rule="evenodd" clip-rule="evenodd" d="M16.3877 21.541C19.0628 21.541 21.2314 19.3024 21.2314 16.541C21.2314 13.7796 19.0628 11.541 16.3877 11.541C13.7126 11.541 11.5439 13.7796 11.5439 16.541C11.5439 19.3024 13.7126 21.541 16.3877 21.541ZM16.3877 19.541C17.9928 19.541 19.2939 18.1979 19.2939 16.541C19.2939 14.8841 17.9928 13.541 16.3877 13.541C14.7826 13.541 13.4814 14.8841 13.4814 16.541C13.4814 18.1979 14.7826 19.541 16.3877 19.541Z" fill="white"/>
<path fill-rule="evenodd" clip-rule="evenodd" d="M6.7002 16.141C6.7002 12.7807 6.7002 11.1005 7.33372 9.81708C7.89098 8.6881 8.78018 7.77022 9.87388 7.19498C11.1172 6.54102 12.7449 6.54102 16.0002 6.54102H16.7752C20.0305 6.54102 21.6582 6.54102 22.9015 7.19498C23.9952 7.77022 24.8844 8.6881 25.4416 9.81708C26.0752 11.1005 26.0752 12.7807 26.0752 16.141V16.941C26.0752 20.3013 26.0752 21.9815 25.4416 23.2649C24.8844 24.3939 23.9952 25.3118 22.9015 25.887C21.6582 26.541 20.0305 26.541 16.7752 26.541H16.0002C12.7449 26.541 11.1172 26.541 9.87388 25.887C8.78018 25.3118 7.89098 24.3939 7.33372 23.2649C6.7002 21.9815 6.7002 20.3013 6.7002 16.941V16.141ZM16.0002 8.54102H16.7752C18.4349 8.54102 19.563 8.54258 20.435 8.61612C21.2845 8.68776 21.7189 8.81761 22.0219 8.97699C22.751 9.36049 23.3438 9.97241 23.7153 10.725C23.8697 11.0378 23.9956 11.4862 24.0649 12.3631C24.1361 13.2633 24.1377 14.4278 24.1377 16.141V16.941C24.1377 18.6542 24.1361 19.8187 24.0649 20.7189C23.9956 21.5958 23.8697 22.0442 23.7153 22.357C23.3438 23.1096 22.751 23.7215 22.0219 24.105C21.7189 24.2644 21.2845 24.3943 20.435 24.4659C19.563 24.5394 18.4349 24.541 16.7752 24.541H16.0002C14.3405 24.541 13.2124 24.5394 12.3404 24.4659C11.4909 24.3943 11.0565 24.2644 10.7534 24.105C10.0244 23.7215 9.43156 23.1096 9.06004 22.357C8.90564 22.0442 8.77985 21.5958 8.71045 20.7189C8.63921 19.8187 8.6377 18.6542 8.6377 16.941V16.141C8.6377 14.4278 8.63921 13.2633 8.71045 12.3631C8.77985 11.4862 8.90564 11.0378 9.06004 10.725C9.43156 9.97241 10.0244 9.36049 10.7534 8.97699C11.0565 8.81761 11.4909 8.68776 12.3404 8.61612C13.2124 8.54258 14.3405 8.54102 16.0002 8.54102Z" fill="white"/>
<defs>
<radialGradient id="paint0_radial_1220_1546" cx="0" cy="0" r="1" gradientUnits="userSpaceOnUse" gradientTransform="translate(12.5127 23.541) rotate(-56.2214) scale(25.2649 24.9714)">
<stop stop-color="#B13589"/>
<stop offset="0.79309" stop-color="#C62F94"/>
<stop offset="1" stop-color="#8A3AC8"/>
</radialGradient>
<radialGradient id="paint1_radial_1220_1546" cx="0" cy="0" r="1" gradientUnits="userSpaceOnUse" gradientTransform="translate(11.5439 31.541) rotate(-65.8231) scale(22.471 22.0081)">
<stop stop-color="#E0E8B7"/>
<stop offset="0.444662" stop-color="#FB8A2E"/>
<stop offset="0.71474" stop-color="#E2425C"/>
<stop offset="1" stop-color="#E2425C" stop-opacity="0"/>
</radialGradient>
<radialGradient id="paint2_radial_1220_1546" cx="0" cy="0" r="1" gradientUnits="userSpaceOnUse" gradientTransform="translate(1.37207 3.54102) rotate(-8.38869) scale(37.7003 8.31291)">
<stop offset="0.156701" stop-color="#406ADC"/>
<stop offset="0.467799" stop-color="#6A45BE"/>
<stop offset="1" stop-color="#6A45BE" stop-opacity="0"/>
</radialGradient>
</defs>
</svg>
