<svg width="15" height="16" viewBox="0 0 15 16" fill="none" xmlns="http://www.w3.org/2000/svg">
<path d="M11.1113 3.57031C10.6895 3.57031 10.2676 3.92187 10.2676 4.41406C10.2676 4.90625 10.6191 5.25781 11.1113 5.25781C11.6035 5.25781 11.9551 4.90625 11.9551 4.41406C11.8848 3.92187 11.5332 3.57031 11.1113 3.57031Z" fill="white"/>
<path d="M7.38477 4.625C5.48633 4.625 3.93945 6.17188 3.93945 8.07031C3.93945 9.96875 5.48633 11.5156 7.38477 11.5156C9.2832 11.5156 10.8301 9.96875 10.8301 8.07031C10.9004 6.17188 9.35352 4.625 7.38477 4.625ZM7.38477 10.3203C6.18945 10.3203 5.13477 9.33594 5.13477 8.07031C5.13477 6.875 6.11914 5.82031 7.38477 5.82031C8.58008 5.82031 9.63477 6.80469 9.63477 8.07031C9.63477 9.33594 8.65039 10.3203 7.38477 10.3203Z" fill="white"/>
<path d="M10.1973 0.96875H4.57227C2.25195 0.96875 0.353516 2.86719 0.353516 5.1875V10.8125C0.353516 13.1328 2.25195 15.0312 4.57227 15.0312H10.1973C12.5176 15.0312 14.416 13.1328 14.416 10.8125V5.1875C14.416 2.86719 12.5176 0.96875 10.1973 0.96875ZM13.0801 10.8125C13.0801 12.4297 11.7441 13.6953 10.1973 13.6953H4.57227C2.95508 13.6953 1.68945 12.3594 1.68945 10.8125V5.1875C1.68945 3.57031 3.02539 2.30469 4.57227 2.30469H10.1973C11.8145 2.30469 13.0801 3.64062 13.0801 5.1875V10.8125Z" fill="white"/>
</svg>
