<svg width="21" height="21" viewBox="0 0 21 21" fill="none" xmlns="http://www.w3.org/2000/svg">
<g clip-path="url(#clip0_1375_5208)">
<path fill-rule="evenodd" clip-rule="evenodd" d="M10.957 15.4395C13.7184 15.4395 15.957 13.2009 15.957 10.4395C15.957 7.67803 13.7184 5.43945 10.957 5.43945C8.19561 5.43945 5.95703 7.67803 5.95703 10.4395C5.95703 13.2009 8.19561 15.4395 10.957 15.4395ZM10.957 13.7728C12.7979 13.7728 14.2904 12.2804 14.2904 10.4395C14.2904 8.5985 12.7979 7.10612 10.957 7.10612C9.11608 7.10612 7.6237 8.5985 7.6237 10.4395C7.6237 12.2804 9.11608 13.7728 10.957 13.7728Z" fill="black"/>
<path d="M15.9564 4.60596C15.4961 4.60596 15.123 4.97906 15.123 5.43929C15.123 5.89952 15.4961 6.27262 15.9564 6.27262C16.4166 6.27262 16.7897 5.89952 16.7897 5.43929C16.7897 4.97906 16.4166 4.60596 15.9564 4.60596Z" fill="black"/>
<path fill-rule="evenodd" clip-rule="evenodd" d="M2.33598 4.003C1.79102 5.07256 1.79102 6.47269 1.79102 9.27295V11.6063C1.79102 14.4065 1.79102 15.8067 2.33598 16.8762C2.81535 17.817 3.58025 18.582 4.52107 19.0613C5.59062 19.6063 6.99076 19.6063 9.79102 19.6063H12.1243C14.9246 19.6063 16.3248 19.6063 17.3943 19.0613C18.3351 18.582 19.1 17.817 19.5793 16.8762C20.1243 15.8067 20.1243 14.4065 20.1243 11.6063V9.27295C20.1243 6.47269 20.1243 5.07256 19.5793 4.003C19.1 3.06218 18.3351 2.29728 17.3943 1.81792C16.3248 1.27295 14.9246 1.27295 12.1243 1.27295H9.79102C6.99076 1.27295 5.59062 1.27295 4.52107 1.81792C3.58025 2.29728 2.81535 3.06218 2.33598 4.003ZM12.1243 2.93962H9.79102C8.36338 2.93962 7.39289 2.94092 6.64275 3.0022C5.91205 3.0619 5.53838 3.17011 5.27772 3.30292C4.65051 3.62251 4.14057 4.13244 3.82099 4.75965C3.68817 5.02032 3.57997 5.39398 3.52027 6.12468C3.45898 6.87482 3.45768 7.84532 3.45768 9.27295V11.6063C3.45768 13.0339 3.45898 14.0044 3.52027 14.7545C3.57997 15.4853 3.68817 15.8589 3.82099 16.1196C4.14057 16.7468 4.65051 17.2567 5.27772 17.5763C5.53838 17.7091 5.91205 17.8174 6.64275 17.877C7.39289 17.9383 8.36338 17.9396 9.79102 17.9396H12.1243C13.552 17.9396 14.5224 17.9383 15.2726 17.877C16.0034 17.8174 16.377 17.7091 16.6377 17.5763C17.2648 17.2567 17.7748 16.7468 18.0943 16.1196C18.2272 15.8589 18.3354 15.4853 18.3951 14.7545C18.4564 14.0044 18.4577 13.0339 18.4577 11.6063V9.27295C18.4577 7.84532 18.4564 6.87482 18.3951 6.12468C18.3354 5.39398 18.2272 5.02032 18.0943 4.75965C17.7748 4.13244 17.2648 3.62251 16.6377 3.30292C16.377 3.17011 16.0034 3.0619 15.2726 3.0022C14.5224 2.94092 13.552 2.93962 12.1243 2.93962Z" fill="black"/>
</g>
<defs>
<clipPath id="clip0_1375_5208">
<rect width="20" height="20" fill="white" transform="translate(0.957031 0.439453)"/>
</clipPath>
</defs>
</svg>
