<svg width="23" height="24" viewBox="0 0 23 24" fill="none" xmlns="http://www.w3.org/2000/svg">
<path d="M4.51855 2.35938H18.5811C20.1279 2.35938 21.3936 3.625 21.3936 5.17188V19.2344C21.3936 20.7812 20.1279 22.0469 18.5811 22.0469H4.51855C2.97168 22.0469 1.70605 20.7812 1.70605 19.2344V5.17188C1.70605 3.625 2.97168 2.35938 4.51855 2.35938Z" fill="#01a809"/>
<path d="M15.2764 7.77344C14.8545 7.77344 14.4326 8.125 14.4326 8.61719C14.4326 9.10937 14.7842 9.46094 15.2764 9.46094C15.7686 9.46094 16.1201 9.10937 16.1201 8.61719C16.0498 8.125 15.6982 7.77344 15.2764 7.77344Z" fill="black"/>
<path d="M11.5498 8.82812C9.65137 8.82812 8.10449 10.375 8.10449 12.2734C8.10449 14.1719 9.65137 15.7188 11.5498 15.7188C13.4482 15.7188 14.9951 14.1719 14.9951 12.2734C15.0654 10.375 13.5186 8.82812 11.5498 8.82812ZM11.5498 14.5234C10.3545 14.5234 9.2998 13.5391 9.2998 12.2734C9.2998 11.0781 10.2842 10.0234 11.5498 10.0234C12.7451 10.0234 13.7998 11.0078 13.7998 12.2734C13.7998 13.5391 12.8154 14.5234 11.5498 14.5234Z" fill="black"/>
<path d="M14.3623 5.17188H8.7373C6.41699 5.17188 4.51855 7.07031 4.51855 9.39062V15.0156C4.51855 17.3359 6.41699 19.2344 8.7373 19.2344H14.3623C16.6826 19.2344 18.5811 17.3359 18.5811 15.0156V9.39062C18.5811 7.07031 16.6826 5.17188 14.3623 5.17188ZM17.2451 15.0156C17.2451 16.6328 15.9092 17.8984 14.3623 17.8984H8.7373C7.12012 17.8984 5.85449 16.5625 5.85449 15.0156V9.39062C5.85449 7.77344 7.19043 6.50781 8.7373 6.50781H14.3623C15.9795 6.50781 17.2451 7.84375 17.2451 9.39062V15.0156Z" fill="black"/>
</svg>
