<svg width="31" height="31" viewBox="0 0 31 31" fill="none" xmlns="http://www.w3.org/2000/svg">
<path d="M12.0156 15.4275C14.4281 15.4275 16.3906 13.465 16.3906 11.0525C16.3906 8.63999 14.4281 6.67749 12.0156 6.67749C9.60313 6.67749 7.64063 8.63999 7.64063 11.0525C7.64063 13.465 9.60313 15.4275 12.0156 15.4275ZM12.0156 9.17749C13.0531 9.17749 13.8906 10.015 13.8906 11.0525C13.8906 12.09 13.0531 12.9275 12.0156 12.9275C10.9781 12.9275 10.1406 12.09 10.1406 11.0525C10.1406 10.015 10.9781 9.17749 12.0156 9.17749ZM12.0156 17.615C9.09063 17.615 3.26562 19.0775 3.26562 21.99V24.1775H20.7656V21.99C20.7656 19.0775 14.9406 17.615 12.0156 17.615ZM6.19063 21.6775C7.24063 20.9525 9.77813 20.115 12.0156 20.115C14.2531 20.115 16.7906 20.9525 17.8406 21.6775H6.19063ZM20.8156 17.69C22.2656 18.74 23.2656 20.14 23.2656 21.99V24.1775H28.2656V21.99C28.2656 19.465 23.8906 18.0275 20.8156 17.69ZM19.5156 15.4275C21.9281 15.4275 23.8906 13.465 23.8906 11.0525C23.8906 8.63999 21.9281 6.67749 19.5156 6.67749C18.8406 6.67749 18.2156 6.83999 17.6406 7.11499C18.4281 8.22749 18.8906 9.58999 18.8906 11.0525C18.8906 12.515 18.4281 13.8775 17.6406 14.99C18.2156 15.265 18.8406 15.4275 19.5156 15.4275Z" fill="white" fill-opacity="0.5"/>
</svg>
