<svg width="143" height="183" viewBox="0 0 143 183" fill="none" xmlns="http://www.w3.org/2000/svg">
<path d="M83.446 16.2184H13.4179C6.97202 16.2184 1.74658 21.4438 1.74658 27.8897V97.9178C1.74658 104.364 6.97202 109.589 13.4179 109.589H83.446C89.8919 109.589 95.1173 104.364 95.1173 97.9178V27.8897C95.1173 21.4438 89.8919 16.2184 83.446 16.2184Z" stroke="black" stroke-width="2" stroke-linecap="round" stroke-linejoin="round"/>
<path d="M45.3173 40.5H51.3923L64.1173 75.5H58.6173L56.1923 68.85H40.5173L38.1173 75.5H32.5923L45.3173 40.5ZM42.4423 63.65H54.2673L48.3423 47.4L42.4423 63.65Z" fill="black"/>
<path d="M130.131 89.1123H60.103C53.6571 89.1123 48.4316 94.3377 48.4316 100.784V170.812C48.4316 177.258 53.6571 182.483 60.103 182.483H130.131C136.577 182.483 141.802 177.258 141.802 170.812V100.784C141.802 94.3377 136.577 89.1123 130.131 89.1123Z" fill="black" stroke="black" stroke-linecap="round" stroke-linejoin="round"/>
<path d="M115.776 114.982H103.702C103.062 114.982 102.448 115.237 101.995 115.689C101.542 116.142 101.288 116.757 101.288 117.397C101.288 118.037 101.542 118.652 101.995 119.104C102.448 119.557 103.062 119.812 103.702 119.812H107.325V134.3H95.3716C96.9689 132.222 97.839 129.677 97.8482 127.056C97.8481 124.398 96.9711 121.815 95.3531 119.706C93.7351 117.597 91.4665 116.082 88.8993 115.394C86.332 114.706 83.6095 114.884 81.1539 115.901C78.6984 116.919 76.6471 118.717 75.3181 121.019C75.1576 121.294 75.053 121.597 75.0102 121.913C74.9674 122.228 74.9873 122.548 75.0688 122.856C75.1503 123.163 75.2917 123.452 75.485 123.704C75.6783 123.957 75.9196 124.169 76.195 124.328C76.4704 124.487 76.7746 124.59 77.09 124.631C77.4054 124.672 77.7258 124.651 78.0328 124.568C78.3399 124.485 78.6275 124.342 78.8791 124.147C79.1307 123.953 79.3414 123.71 79.4991 123.434C80.1348 122.332 81.0493 121.418 82.1506 120.782C83.2519 120.146 84.5012 119.811 85.773 119.811C87.0447 119.811 88.2941 120.145 89.3955 120.781C90.497 121.417 91.4116 122.331 92.0476 123.433C92.6836 124.534 93.0185 125.783 93.0186 127.055C93.0187 128.327 92.6841 129.576 92.0483 130.677C91.4125 131.779 90.498 132.694 89.3967 133.33C88.2954 133.965 87.046 134.3 85.7743 134.3C85.1338 134.3 84.5196 134.555 84.0668 135.008C83.6139 135.461 83.3595 136.075 83.3595 136.715C83.3595 137.356 83.6139 137.97 84.0668 138.423C84.5196 138.876 85.1338 139.13 85.7743 139.13C87.0459 139.13 88.295 139.465 89.3961 140.101C90.4972 140.737 91.4116 141.652 92.0472 142.753C92.6828 143.854 93.0174 145.104 93.0172 146.375C93.0171 147.647 92.6822 148.896 92.0463 149.997C91.4104 151.098 90.4959 152.013 89.3946 152.648C88.2933 153.284 87.0441 153.619 85.7725 153.619C84.5009 153.619 83.2518 153.284 82.1506 152.648C81.0493 152.012 80.1349 151.098 79.4991 149.997C79.1778 149.444 78.6507 149.042 78.0332 148.877C77.4156 148.713 76.7581 148.8 76.2048 149.12C75.6514 149.439 75.2474 149.965 75.0811 150.582C74.9149 151.199 75.0001 151.857 75.318 152.411C76.647 154.713 78.6983 156.512 81.1539 157.529C83.6094 158.546 86.332 158.725 88.8992 158.037C91.4665 157.349 93.7351 155.833 95.3531 153.724C96.9711 151.616 97.8482 149.032 97.8482 146.374C97.839 143.753 96.9689 141.208 95.3716 139.13H107.325V156.033C107.325 156.674 107.579 157.288 108.032 157.741C108.485 158.194 109.099 158.448 109.739 158.448C110.38 158.448 110.994 158.194 111.447 157.741C111.9 157.288 112.154 156.674 112.154 156.033V119.812H115.776C116.417 119.812 117.031 119.557 117.484 119.104C117.937 118.652 118.191 118.037 118.191 117.397C118.191 116.757 117.937 116.142 117.484 115.689C117.031 115.237 116.417 114.982 115.776 114.982Z" fill="white"/>
</svg>
