<svg width="25" height="25" viewBox="0 0 25 25" fill="none" xmlns="http://www.w3.org/2000/svg">
<path d="M13.3196 6.47061L12.4996 7.29261L11.6756 6.46861C10.6675 5.46065 9.30028 4.89444 7.87472 4.89454C6.44916 4.89463 5.08203 5.46102 4.07407 6.46911C3.06612 7.4772 2.49991 8.84441 2.5 10.27C2.50009 11.6955 3.06648 13.0627 4.07457 14.0706L11.9696 21.9656C12.1102 22.1061 12.3008 22.1849 12.4996 22.1849C12.6983 22.1849 12.8889 22.1061 13.0296 21.9656L20.9316 14.0686C21.9385 13.0604 22.5039 11.6938 22.5038 10.2689C22.5036 8.84403 21.9377 7.47752 20.9306 6.46961C20.4309 5.96965 19.8377 5.57304 19.1847 5.30245C18.5318 5.03185 17.8319 4.89258 17.1251 4.89258C16.4183 4.89258 15.7184 5.03185 15.0654 5.30245C14.4124 5.57304 13.8192 5.96965 13.3196 6.46961V6.47061ZM19.8676 13.0106L12.4996 20.3756L5.13457 13.0106C4.7716 12.6515 4.48319 12.2242 4.28591 11.7532C4.08863 11.2822 3.98637 10.7769 3.98501 10.2663C3.98365 9.75573 4.08322 9.2499 4.27799 8.7779C4.47277 8.3059 4.7589 7.87705 5.11996 7.51599C5.48101 7.15494 5.90986 6.8688 6.38186 6.67403C6.85386 6.47926 7.3597 6.37969 7.8703 6.38105C8.38091 6.3824 8.88621 6.48466 9.35717 6.68194C9.82812 6.87923 10.2554 7.16764 10.6146 7.53061L11.9726 8.88761C12.0432 8.95835 12.1273 9.01424 12.2199 9.05201C12.3124 9.08978 12.4116 9.10866 12.5116 9.10754C12.6116 9.10642 12.7103 9.08533 12.802 9.0455C12.8937 9.00567 12.9765 8.94791 13.0456 8.87561L14.3796 7.53061C15.1149 6.84618 16.087 6.47362 17.0914 6.49129C18.0958 6.50897 19.0542 6.9155 19.7649 7.62537C20.4757 8.33524 20.8835 9.29311 20.9024 10.2975C20.9214 11.3019 20.5501 12.2744 19.8666 13.0106H19.8676Z" fill="#536471"/>
</svg>
