<svg width="20" height="20" viewBox="0 0 20 20" fill="none" xmlns="http://www.w3.org/2000/svg">
<path d="M17.3249 0.625C17.8774 0.625 18.4073 0.844493 18.798 1.23519C19.1887 1.62589 19.4082 2.1558 19.4082 2.70833V17.2917C19.4082 17.8442 19.1887 18.3741 18.798 18.7648C18.4073 19.1555 17.8774 19.375 17.3249 19.375H2.74154C2.189 19.375 1.6591 19.1555 1.2684 18.7648C0.877696 18.3741 0.658203 17.8442 0.658203 17.2917V2.70833C0.658203 2.1558 0.877696 1.62589 1.2684 1.23519C1.6591 0.844493 2.189 0.625 2.74154 0.625H17.3249ZM16.804 16.7708V11.25C16.804 10.3494 16.4463 9.48562 15.8094 8.84878C15.1726 8.21194 14.3088 7.85417 13.4082 7.85417C12.9266 7.87075 12.4559 8.00233 12.0355 8.2379C11.6151 8.47348 11.2571 8.80622 10.9915 9.20833V8.05208H8.08529V16.7708H10.9915V11.6354C10.9745 11.4342 10.9994 11.2317 11.0647 11.0407C11.13 10.8496 11.2342 10.6742 11.3708 10.5256C11.5074 10.3769 11.6734 10.2582 11.8582 10.177C12.0431 10.0959 12.2428 10.0539 12.4447 10.0539C12.6466 10.0539 12.8462 10.0959 13.0311 10.177C13.2159 10.2582 13.3819 10.3769 13.5185 10.5256C13.6551 10.6742 13.7594 10.8496 13.8246 11.0407C13.8899 11.2317 13.9148 11.4342 13.8978 11.6354V16.7708H16.804ZM4.69987 6.41667C5.164 6.41667 5.60912 6.23229 5.93731 5.9041C6.2655 5.57592 6.44987 5.1308 6.44987 4.66667C6.46852 4.4248 6.43697 4.18169 6.35722 3.95259C6.27747 3.72349 6.15123 3.51335 5.98642 3.33535C5.82161 3.15734 5.62179 3.01532 5.3995 2.9182C5.17721 2.82107 4.93724 2.77093 4.69466 2.77093C4.45208 2.77093 4.21211 2.82107 3.98982 2.9182C3.76753 3.01532 3.56771 3.15734 3.4029 3.33535C3.23809 3.51335 3.11185 3.72349 3.0321 3.95259C2.95235 4.18169 2.92081 4.4248 2.93945 4.66667C2.94221 5.13175 3.12889 5.57685 3.45874 5.90474C3.78858 6.23263 4.23478 6.41668 4.69987 6.41667ZM6.14779 16.7708V8.05208H3.26237V16.7708H6.14779Z" fill="black"/>
</svg>
