<svg width="25" height="24" viewBox="0 0 25 24" fill="none" xmlns="http://www.w3.org/2000/svg">
<mask id="mask0_539_3849" style="mask-type:alpha" maskUnits="userSpaceOnUse" x="0" y="0" width="25" height="24">
<rect x="0.364502" width="24" height="24" fill="#D9D9D9"/>
</mask>
<g mask="url(#mask0_539_3849)">
<path d="M13.3645 17.5L16.8645 14C17.0478 13.8167 17.1937 13.6 17.302 13.35C17.4103 13.1 17.4645 12.8333 17.4645 12.55C17.4645 11.9833 17.2645 11.5 16.8645 11.1C16.4645 10.7 15.9812 10.5 15.4145 10.5C15.0978 10.5 14.7853 10.5917 14.477 10.775C14.1687 10.9583 13.7978 11.2667 13.3645 11.7C12.8645 11.2333 12.4728 10.9167 12.1895 10.75C11.9062 10.5833 11.6145 10.5 11.3145 10.5C10.7478 10.5 10.2645 10.7 9.8645 11.1C9.4645 11.5 9.2645 11.9833 9.2645 12.55C9.2645 12.8333 9.31867 13.1 9.427 13.35C9.53534 13.6 9.68117 13.8167 9.8645 14L13.3645 17.5ZM14.6145 21.4C14.2312 21.7833 13.7562 21.975 13.1895 21.975C12.6228 21.975 12.1478 21.7833 11.7645 21.4L2.9645 12.6C2.78117 12.4167 2.63534 12.2 2.527 11.95C2.41867 11.7 2.3645 11.4333 2.3645 11.15V4C2.3645 3.45 2.56034 2.97917 2.952 2.5875C3.34367 2.19583 3.8145 2 4.3645 2H11.5145C11.7978 2 12.0645 2.05417 12.3145 2.1625C12.5645 2.27083 12.7812 2.41667 12.9645 2.6L21.7645 11.425C22.1478 11.8083 22.3395 12.2792 22.3395 12.8375C22.3395 13.3958 22.1478 13.8667 21.7645 14.25L14.6145 21.4ZM13.1895 20L20.3395 12.85L11.5145 4H4.3645V11.15L13.1895 20ZM6.8645 8C7.28117 8 7.63534 7.85417 7.927 7.5625C8.21867 7.27083 8.3645 6.91667 8.3645 6.5C8.3645 6.08333 8.21867 5.72917 7.927 5.4375C7.63534 5.14583 7.28117 5 6.8645 5C6.44784 5 6.09367 5.14583 5.802 5.4375C5.51034 5.72917 5.3645 6.08333 5.3645 6.5C5.3645 6.91667 5.51034 7.27083 5.802 7.5625C6.09367 7.85417 6.44784 8 6.8645 8Z" fill="#1C1B1F"/>
</g>
</svg>
