<svg width="25" height="25" viewBox="0 0 25 25" fill="none" xmlns="http://www.w3.org/2000/svg">
<path fill-rule="evenodd" clip-rule="evenodd" d="M12.4699 4.4082H20.4699V6.4082H12.4699V4.4082ZM12.4699 11.4082H20.4699V13.4082H12.4699V11.4082ZM4.46986 16.4082H9.46986V21.4082H4.46986V16.4082ZM5.96986 17.9082V19.9082H7.96986V17.9082H5.96986ZM12.4699 18.4082H20.4699V20.4082H12.4699V18.4082ZM9.36749 2.57034L10.5564 3.48491L6.9924 8.11814L3.77599 5.30379L4.76374 4.17492L6.77786 5.9362L9.36749 2.57034ZM9.36749 9.57034L10.5564 10.4849L6.9924 15.1181L3.77599 12.3038L4.76374 11.1749L6.77786 12.9362L9.36749 9.57034Z" fill="white"/>
</svg>
