<svg width="24" height="24" viewBox="0 0 24 24" fill="none" xmlns="http://www.w3.org/2000/svg">
<path d="M12.502 4.95235L12.926 4.33435L11.689 3.48535L11.265 4.10435C10.603 5.06935 10.486 5.98535 10.619 6.74635C10.746 7.48035 11.097 8.01435 11.267 8.26035L11.27 8.26535C11.424 8.48735 11.59 8.72835 11.651 9.06935C11.708 9.38935 11.684 9.88935 11.243 10.6144L10.853 11.2554L12.135 12.0354L12.525 11.3944C13.129 10.4004 13.257 9.53435 13.128 8.80735C13.009 8.13735 12.681 7.66735 12.522 7.43835L12.5 7.40735C12.367 7.21435 12.168 6.89735 12.096 6.48935C12.03 6.10735 12.066 5.58935 12.502 4.95235ZM4.074 14.0024V14.0044H3C2.86868 14.0044 2.73864 14.0302 2.61732 14.0805C2.49599 14.1307 2.38575 14.2044 2.29289 14.2972C2.20003 14.3901 2.12638 14.5003 2.07612 14.6217C2.02587 14.743 2 14.873 2 15.0044C2 15.1357 2.02587 15.2657 2.07612 15.387C2.12638 15.5084 2.20003 15.6186 2.29289 15.7115C2.38575 15.8043 2.49599 15.878 2.61732 15.9282C2.73864 15.9785 2.86868 16.0044 3 16.0044H4.074C4.07506 17.3297 4.60231 18.6005 5.53988 19.5373C6.47745 20.4741 7.74861 21.0004 9.074 21.0004H15C16.3254 21.0004 17.5966 20.4741 18.5341 19.5373C19.4717 18.6005 19.9989 17.3297 20 16.0044H21C21.2652 16.0044 21.5196 15.899 21.7071 15.7115C21.8946 15.5239 22 15.2696 22 15.0044C22 14.7391 21.8946 14.4848 21.7071 14.2972C21.5196 14.1097 21.2652 14.0044 21 14.0044H20V14.0024H4.074ZM8.135 5.89035L7.711 6.50935C7.406 6.95335 7.389 7.29935 7.432 7.54335C7.479 7.81435 7.612 8.02935 7.709 8.16935L7.727 8.19435C7.849 8.37035 8.118 8.75535 8.216 9.30435C8.322 9.90435 8.212 10.6064 7.734 11.3944L7.344 12.0344L6.062 11.2554L6.452 10.6154C6.768 10.0954 6.773 9.76035 6.739 9.56535C6.699 9.34835 6.594 9.19335 6.476 9.02335C6.21558 8.65824 6.03749 8.24098 5.954 7.80035C5.846 7.17735 5.944 6.43335 6.474 5.66035L6.899 5.04235L8.135 5.89035ZM17.288 6.50935L17.712 5.89035L16.475 5.04235L16.051 5.66035C15.521 6.43335 15.422 7.17735 15.531 7.80035C15.635 8.39735 15.919 8.83035 16.053 9.02335C16.171 9.19335 16.276 9.34835 16.315 9.56635C16.349 9.76035 16.345 10.0964 16.028 10.6144L15.638 11.2554L16.921 12.0354L17.311 11.3944C17.789 10.6064 17.899 9.90435 17.792 9.30435C17.7136 8.90257 17.5466 8.52335 17.303 8.19435L17.286 8.16935C17.1496 7.98311 17.0551 7.76956 17.009 7.54335C16.966 7.29935 16.983 6.95335 17.288 6.50935Z" fill="black" fill-opacity="0.5"/>
</svg>
