<svg width="60" height="61" viewBox="0 0 60 61" fill="none" xmlns="http://www.w3.org/2000/svg">
<path d="M7.5001 20.9207V20.887C7.50005 17.5534 8.48732 14.2946 10.3373 11.5215C12.1874 8.74847 14.8173 6.58547 17.8952 5.30542C20.9732 4.02537 24.3614 3.68563 27.6322 4.32904C30.903 4.97246 33.9101 6.57021 36.2738 8.92072C38.1337 8.00276 40.2111 7.61681 42.2765 7.8055C44.342 7.99419 46.315 8.75017 47.9777 9.98994C49.6405 11.2297 50.9281 12.905 51.6984 14.8307C52.4687 16.7564 52.6916 18.8575 52.3426 20.902C52.8557 20.9496 53.3535 21.1025 53.805 21.3511C54.2564 21.5996 54.6517 21.9386 54.9663 22.3468C55.2809 22.755 55.5079 23.2236 55.6333 23.7235C55.7587 24.2233 55.7798 24.7436 55.6951 25.252C54.0001 35.4482 49.8076 41.902 43.1251 44.617V47.137C43.1251 48.6288 42.5325 50.0596 41.4776 51.1144C40.4227 52.1693 38.9919 52.762 37.5001 52.762H22.5001C21.0083 52.762 19.5775 52.1693 18.5226 51.1144C17.4677 50.0596 16.8751 48.6288 16.8751 47.137V44.617C10.1926 41.902 6.0001 35.4482 4.3051 25.252C4.22329 24.7571 4.24159 24.2509 4.35889 23.7633C4.47619 23.2756 4.69013 22.8165 4.98803 22.413C5.28593 22.0095 5.66174 21.6699 6.09323 21.4142C6.52472 21.1585 7.00311 20.992 7.5001 20.9245V20.9207ZM11.2501 20.887H15.0001C15.0001 18.4006 15.9878 16.016 17.746 14.2578C19.5041 12.4997 21.8887 11.512 24.3751 11.512C26.8615 11.512 29.2461 12.4997 31.0042 14.2578C32.7624 16.016 33.7501 18.4006 33.7501 20.887H37.5001C37.5001 17.406 36.1173 14.0676 33.6559 11.6062C31.1945 9.14478 27.8561 7.76197 24.3751 7.76197C20.8941 7.76197 17.5557 9.14478 15.0943 11.6062C12.6329 14.0676 11.2501 17.406 11.2501 20.887ZM18.7501 20.887H30.0001C30.0001 19.3951 29.4075 17.9644 28.3526 16.9095C27.2977 15.8546 25.8669 15.262 24.3751 15.262C22.8833 15.262 21.4525 15.8546 20.3976 16.9095C19.3427 17.9644 18.7501 19.3951 18.7501 20.887ZM44.4976 20.887H48.5138C48.797 19.7787 48.8233 18.6205 48.591 17.5005C48.3587 16.3806 47.8738 15.3284 47.1732 14.4242C46.4727 13.52 45.5749 12.7877 44.5485 12.283C43.522 11.7783 42.3939 11.5146 41.2501 11.512C40.3501 11.512 39.4951 11.6695 38.7001 11.9582C39.3638 13.0232 39.9113 14.1707 40.3313 15.3745C41.0456 15.1973 41.7961 15.2338 42.4898 15.4794C43.1835 15.7249 43.7899 16.1688 44.2336 16.7559C44.6773 17.343 44.9388 18.0474 44.9857 18.7818C45.0327 19.5162 44.8629 20.2482 44.4976 20.887ZM39.3751 45.262H20.6251V47.137C20.6251 47.6343 20.8226 48.1112 21.1743 48.4628C21.5259 48.8144 22.0028 49.012 22.5001 49.012H37.5001C37.9974 49.012 38.4743 48.8144 38.8259 48.4628C39.1776 48.1112 39.3751 47.6343 39.3751 47.137V45.262ZM19.3051 41.512H40.6951C46.6426 39.5995 50.4076 34.192 51.9976 24.637H8.0026C9.5926 34.192 13.3576 39.5995 19.3051 41.512Z" fill="black"/>
</svg>
