<svg width="61" height="61" viewBox="0 0 61 61" fill="none" xmlns="http://www.w3.org/2000/svg">
<g clip-path="url(#clip0_5598_4251)">
<path d="M18.3126 9.63672V4.01172C18.3126 3.2658 18.6089 2.55043 19.1363 2.02298C19.6638 1.49553 20.3791 1.19922 21.1251 1.19922C21.871 1.19922 22.5864 1.49553 23.1138 2.02298C23.6412 2.55043 23.9376 3.2658 23.9376 4.01172V9.63672C23.9376 10.3826 23.6412 11.098 23.1138 11.6255C22.5864 12.1529 21.871 12.4492 21.1251 12.4492C20.3791 12.4492 19.6638 12.1529 19.1363 11.6255C18.6089 11.098 18.3126 10.3826 18.3126 9.63672ZM30.5001 12.4492C31.246 12.4492 31.9613 12.1529 32.4888 11.6255C33.0162 11.098 33.3126 10.3826 33.3126 9.63672V4.01172C33.3126 3.2658 33.0162 2.55043 32.4888 2.02298C31.9613 1.49553 31.246 1.19922 30.5001 1.19922C29.7541 1.19922 29.0388 1.49553 28.5113 2.02298C27.9839 2.55043 27.6876 3.2658 27.6876 4.01172V9.63672C27.6876 10.3826 27.9839 11.098 28.5113 11.6255C29.0388 12.1529 29.7541 12.4492 30.5001 12.4492ZM39.8751 12.4492C40.621 12.4492 41.3363 12.1529 41.8638 11.6255C42.3912 11.098 42.6876 10.3826 42.6876 9.63672V4.01172C42.6876 3.2658 42.3912 2.55043 41.8638 2.02298C41.3363 1.49553 40.621 1.19922 39.8751 1.19922C39.1291 1.19922 38.4138 1.49553 37.8863 2.02298C37.3589 2.55043 37.0626 3.2658 37.0626 4.01172V9.63672C37.0626 10.3826 37.3589 11.098 37.8863 11.6255C38.4138 12.1529 39.1291 12.4492 39.8751 12.4492ZM59.3751 25.0117L53.0001 29.793V43.3867C52.9975 45.6237 52.1078 47.7684 50.526 49.3501C48.9442 50.9319 46.7995 51.8217 44.5626 51.8242H16.4376C14.2006 51.8217 12.0559 50.9319 10.4741 49.3501C8.89233 47.7684 8.00258 45.6237 8.00006 43.3867V29.793L1.62501 25.0117C1.02827 24.5642 0.633761 23.8979 0.528276 23.1594C0.422791 22.421 0.61497 21.6709 1.06253 21.0742C1.5101 20.4774 2.17639 20.0829 2.91483 19.9774C3.65327 19.872 4.40336 20.0641 5.00011 20.5117L8.00006 22.7617V20.8867C8.00144 19.6439 8.49574 18.4525 9.37452 17.5737C10.2533 16.6949 11.4448 16.2006 12.6876 16.1992H48.3126C49.5553 16.2006 50.7468 16.6949 51.6256 17.5737C52.5044 18.4525 52.9987 19.6439 53.0001 20.8867V22.7617L56 20.5117C56.5968 20.0641 57.3469 19.872 58.0853 19.9774C58.8237 20.0829 59.49 20.4774 59.9376 21.0742C60.3851 21.6709 60.5773 22.421 60.4718 23.1594C60.3664 23.8979 59.9718 24.5642 59.3751 25.0117ZM47.3751 21.8242H13.6251V43.3867C13.6259 44.1324 13.9225 44.8473 14.4498 45.3745C14.977 45.9018 15.6919 46.1984 16.4376 46.1992H44.5626C45.3082 46.1984 46.0231 45.9018 46.5504 45.3745C47.0776 44.8473 47.3742 44.1324 47.3751 43.3867V21.8242Z" fill="black"/>
</g>
<defs>
<clipPath id="clip0_5598_4251">
<rect width="60" height="60" fill="white" transform="translate(0.5 0.261719)"/>
</clipPath>
</defs>
</svg>
