<svg width="72" height="84" viewBox="0 0 72 84" fill="none" xmlns="http://www.w3.org/2000/svg">
<path d="M11.25 3.75H3.75V11.25H11.25V3.75Z" fill="white"/>
<path d="M11.25 18.75H3.75V26.25H11.25V18.75Z" fill="white"/>
<path d="M3.75 33.75H11.25V41.25H3.75V33.75Z" fill="white"/>
<path d="M11.25 48.75H3.75V56.25H11.25V48.75Z" fill="white"/>
<path d="M56.25 3.75H18.75V11.25H56.25V3.75Z" fill="white"/>
<path d="M56.25 18.75H18.75V26.25H56.25V18.75Z" fill="white"/>
<path d="M18.75 33.75H56.25V41.25H18.75V33.75Z" fill="white"/>
<path d="M56.25 48.75H18.75V56.25H56.25V48.75Z" fill="white"/>
<g clip-path="url(#clip0_2228_1742)">
<g filter="url(#filter0_d_2228_1742)">
<path fill-rule="evenodd" clip-rule="evenodd" d="M48 80C59.0456 80 68 71.0456 68 60C68 48.9543 59.0456 40 48 40C36.9543 40 28 48.9543 28 60C28 71.0456 36.9543 80 48 80ZM49.5 54C49.5 53.1716 48.8284 52.5 48 52.5C47.1716 52.5 46.5 53.1716 46.5 54V58.5H42C41.1716 58.5 40.5 59.1716 40.5 60C40.5 60.8284 41.1716 61.5 42 61.5H46.5V66C46.5 66.8284 47.1716 67.5 48 67.5C48.8284 67.5 49.5 66.8284 49.5 66V61.5H54C54.8284 61.5 55.5 60.8284 55.5 60C55.5 59.1716 54.8284 58.5 54 58.5H49.5V54Z" fill="white"/>
</g>
</g>
<defs>
<filter id="filter0_d_2228_1742" x="20" y="32" width="48" height="48" filterUnits="userSpaceOnUse" color-interpolation-filters="sRGB">
<feFlood flood-opacity="0" result="BackgroundImageFix"/>
<feColorMatrix in="SourceAlpha" type="matrix" values="0 0 0 0 0 0 0 0 0 0 0 0 0 0 0 0 0 0 127 0" result="hardAlpha"/>
<feOffset dx="-4" dy="-4"/>
<feGaussianBlur stdDeviation="2"/>
<feComposite in2="hardAlpha" operator="out"/>
<feColorMatrix type="matrix" values="0 0 0 0 0 0 0 0 0 0 0 0 0 0 0 0 0 0 0.25 0"/>
<feBlend mode="normal" in2="BackgroundImageFix" result="effect1_dropShadow_2228_1742"/>
<feBlend mode="normal" in="SourceGraphic" in2="effect1_dropShadow_2228_1742" result="shape"/>
</filter>
<clipPath id="clip0_2228_1742">
<rect width="48" height="48" fill="white" transform="translate(24 36)"/>
</clipPath>
</defs>
</svg>
