<svg width="60" height="61" viewBox="0 0 60 61" fill="none" xmlns="http://www.w3.org/2000/svg">
<path d="M27.6 51.975H3.75V4.25H41.925V23.35" stroke="white" stroke-width="4.775" stroke-miterlimit="10"/>
<path d="M10.9004 13.7998H15.6754" stroke="white" stroke-width="4.775" stroke-miterlimit="10"/>
<path d="M20.4492 13.7998H34.7742" stroke="white" stroke-width="4.775" stroke-miterlimit="10"/>
<path d="M10.9004 23.3501H15.6754" stroke="white" stroke-width="4.775" stroke-miterlimit="10"/>
<path d="M20.4492 23.3501H34.7742" stroke="white" stroke-width="4.775" stroke-miterlimit="10"/>
<path d="M10.9004 32.875H15.6754" stroke="white" stroke-width="4.775" stroke-miterlimit="10"/>
<path d="M20.4492 32.875H34.7742" stroke="white" stroke-width="4.775" stroke-miterlimit="10"/>
<path d="M44.3254 56.7499C50.9114 56.7499 56.2504 52.4742 56.2504 47.1999C56.2504 41.9256 50.9114 37.6499 44.3254 37.6499C37.7394 37.6499 32.4004 41.9256 32.4004 47.1999C32.4004 52.4742 37.7394 56.7499 44.3254 56.7499Z" stroke="white" stroke-width="4.775" stroke-miterlimit="10"/>
<path d="M50.2751 28H53.8501V31.575C53.8501 33.1597 53.2206 34.6794 52.1 35.8C50.9795 36.9205 49.4597 37.55 47.8751 37.55H44.3251V34.075C44.3118 33.2841 44.4558 32.4984 44.7485 31.7635C45.0413 31.0287 45.4771 30.3593 46.0306 29.7941C46.5841 29.229 47.2443 28.7794 47.9729 28.4714C48.7015 28.1634 49.484 28.0032 50.2751 28Z" stroke="white" stroke-width="4.775" stroke-miterlimit="10"/>
<path d="M37.1504 28.125C38.0914 28.1218 39.0239 28.3043 39.8943 28.6621C40.7646 29.02 41.5558 29.5461 42.2224 30.2104C42.889 30.8746 43.4179 31.664 43.7787 32.5331C44.1396 33.4022 44.3254 34.334 44.3254 35.275V37.65" stroke="white" stroke-width="4.775" stroke-miterlimit="10"/>
</svg>
