<svg width="21" height="21" viewBox="0 0 21 21" fill="none" xmlns="http://www.w3.org/2000/svg">
<path d="M15.5638 10.4416C16.6768 10.8379 17.8096 9.06116 19.1957 6.20837C20.4958 3.53233 21.0162 2.08944 20.6719 1.09538C20.3282 0.100677 19.2894 0.766776 18.9039 1.244C18.5188 1.72163 14.3434 6.86202 13.822 7.52385L11.2247 10.6327L9.11406 8.10663C8.79982 7.71787 8.89978 7.24619 8.97556 6.79278C9.11015 5.98591 9.0997 4.53684 8.17329 3.42551C7.24688 2.31485 5.07191 0.408418 4.86413 0.209813C4.65639 0.0112075 4.33429 -0.101797 4.07167 0.109852C3.809 0.320902 3.924 0.572399 4.1311 0.828484L6.78429 4.11542C7.0103 4.39568 6.97376 4.64458 6.75357 4.823C6.55234 4.98499 6.20933 4.98762 6.04994 4.79033L3.31387 1.4008C3.09173 1.12509 2.70951 1.1434 2.4861 1.3237C2.26264 1.50404 2.16464 1.87316 2.38678 2.14951L5.12293 5.539C5.28233 5.73629 5.20718 6.0708 5.00598 6.23282C4.78579 6.41116 4.53426 6.39353 4.30817 6.11391L1.65502 2.82706C1.44856 2.5703 1.2271 2.40564 0.964431 2.61733C0.702443 2.82965 0.745562 3.16811 0.895862 3.4131C1.04612 3.6581 2.4508 6.18647 3.34059 7.32657C4.2311 8.46598 5.64491 8.78282 6.46223 8.82139C6.9215 8.84293 7.40368 8.84425 7.71728 9.23364L9.97457 12.1289L5.05596 18.0164C4.8763 18.2313 4.7907 18.509 4.81814 18.7873C4.84559 19.0656 4.98312 19.3217 5.20099 19.4968L5.33426 19.6046C5.55181 19.78 5.83079 19.8611 6.10846 19.8287C6.38644 19.7967 6.64025 19.655 6.81177 19.4341L11.2247 13.7325L16.125 20.0175C16.2969 20.2371 16.5497 20.3795 16.828 20.4122C17.1056 20.4442 17.3846 20.3631 17.6022 20.1874L17.7355 20.0802C17.953 19.9045 18.0909 19.6484 18.1184 19.3707C18.1458 19.0917 18.0596 18.8147 17.8805 18.5998L12.47 12.1233L13.7391 10.4834C14.053 10.094 14.9451 10.2214 15.5638 10.4416Z" fill="#7AC143"/>
</svg>
