<svg width="27" height="16" viewBox="0 0 27 16" fill="none" xmlns="http://www.w3.org/2000/svg">
<path d="M26.4056 11.8787C26.2997 11.7177 26.1199 11.6208 25.9272 11.6208H24.6636V11.6151C24.6636 6.65662 20.6293 2.62269 15.6705 2.62269H15.6647V1.97025C15.6647 0.926379 14.8153 0.0771484 13.771 0.0771484H13.59C12.5458 0.0771484 11.6963 0.926379 11.6963 1.97025V2.62269H11.6905C6.73171 2.62269 2.69748 6.65667 2.69748 11.6151V11.6208H1.43417C1.24148 11.6208 1.06166 11.7177 0.9557 11.8787C0.84974 12.0396 0.831813 12.2431 0.907978 12.4201C1.69466 14.2475 3.48852 15.4282 5.47817 15.4282H21.8833C22.8578 15.4282 23.8037 15.1449 24.6187 14.6089C25.4332 14.0731 26.0677 13.3163 26.4534 12.4201C26.5295 12.243 26.5116 12.0396 26.4056 11.8787ZM12.8421 1.97025C12.8421 1.55808 13.1776 1.22273 13.5902 1.22273H13.7712C14.1836 1.22273 14.5193 1.55803 14.5193 1.97025V2.62269H12.8421V1.97025ZM3.84335 11.6151C3.84335 7.28832 7.36371 3.76826 11.6907 3.76826H12.2693H15.092H15.6706C19.9977 3.76826 23.518 7.28837 23.518 11.6151V11.6208H3.84335V11.6151ZM23.9891 13.6517C23.3616 14.0644 22.6334 14.2826 21.8832 14.2826H5.47812C4.26078 14.2826 3.13869 13.7084 2.42542 12.7664H3.27054H24.0908H24.936C24.6748 13.1114 24.3556 13.4106 23.9891 13.6517Z" fill="#C7C7C7"/>
<path d="M12.3351 4.79602H11.6912C8.60278 4.79602 5.89294 6.88127 5.10135 9.86687C5.02027 10.1726 5.20245 10.4863 5.50826 10.5673C5.55738 10.5804 5.60686 10.5866 5.65543 10.5866C5.90891 10.5866 6.14071 10.417 6.20872 10.1605C6.86731 7.67646 9.12176 5.9416 11.6912 5.9416H12.3351C12.6514 5.9416 12.9079 5.68516 12.9079 5.36878C12.9078 5.05246 12.6513 4.79602 12.3351 4.79602Z" fill="#C7C7C7"/>
<path d="M14.3985 4.7959H14.1333C13.817 4.7959 13.5605 5.05233 13.5605 5.36871C13.5605 5.68509 13.817 5.94153 14.1333 5.94153H14.3985C14.7148 5.94153 14.9713 5.68509 14.9713 5.36871C14.9713 5.05233 14.7148 4.7959 14.3985 4.7959Z" fill="#C7C7C7"/>
</svg>
