<svg width="72" height="122" viewBox="0 0 72 122" fill="none" xmlns="http://www.w3.org/2000/svg">
<g id="Group 56295">
<g id="Group 56286">
<path id="Ellipse 240" d="M47.2752 13.9112C47.2752 18.9928 46.7175 24.1924 44.9892 28.0867C44.1304 30.0218 43.002 31.5897 41.552 32.6732C40.1139 33.7477 38.3022 34.3895 35.9866 34.3895C30.9164 34.3895 27.686 31.6692 25.7331 27.74C23.7536 23.7571 23.1291 18.5786 23.4059 13.9711C23.6779 9.44466 25.1253 6.35665 27.272 4.39374C29.4246 2.42556 32.41 1.46973 35.9866 1.46973C42.815 1.46973 47.2752 6.91332 47.2752 13.9112Z" stroke="black" stroke-width="2"/>
<path id="Line 351" d="M1.72722 108.728L1.72558 86.7816L3.36616 68.6544L5.04088 58.803" stroke="black" stroke-width="2"/>
<path id="Line 353" d="M23.4469 40.4719C23.4469 40.4719 19.2608 41.9249 16.7981 43.3031C14.4971 44.5907 13.1484 45.328 11.2666 47.1751C9.36254 49.0442 8.49066 50.3411 7.25634 52.7065C5.93522 55.2384 4.92693 59.6384 4.92693 59.6384" stroke="black" stroke-width="2"/>
<path id="Line 352" d="M17.6562 61.5546C17.6517 61.0023 17.2004 60.5583 16.6481 60.5628C16.0958 60.5673 15.6518 61.0186 15.6563 61.5709L17.6562 61.5546ZM16.1132 70.1955L17.0936 70.3925L16.1132 70.1955ZM13.6871 85.4336L12.6954 85.3047L12.6912 85.337L12.6891 85.3695L13.6871 85.4336ZM13.2332 98.4832L12.2332 98.4832L12.2332 98.5137L12.235 98.5442L13.2332 98.4832ZM13.6871 105.912L12.6889 105.973L12.6913 106.012L12.6965 106.049L13.6871 105.912ZM13.2332 92.5012L12.2352 92.4371L12.2332 92.4691L12.2332 92.5012L13.2332 92.5012ZM17.0936 70.3925C17.4062 68.8372 17.5431 66.6055 17.6052 64.8138C17.6366 63.9072 17.6494 63.094 17.6543 62.5075C17.6567 62.2141 17.6572 61.9769 17.6571 61.8126C17.657 61.7305 17.6568 61.6665 17.6566 61.6228C17.6565 61.601 17.6564 61.5842 17.6564 61.5728C17.6563 61.567 17.6563 61.5626 17.6563 61.5596C17.6563 61.5581 17.6562 61.5569 17.6562 61.5561C17.6562 61.5556 17.6562 61.5553 17.6562 61.5551C17.6562 61.5549 17.6562 61.5548 17.6562 61.5548C17.6562 61.5547 17.6562 61.5546 16.6563 61.5627C15.6563 61.5709 15.6563 61.5709 15.6563 61.5709C15.6563 61.5709 15.6563 61.5709 15.6563 61.5709C15.6563 61.5711 15.6563 61.5712 15.6563 61.5715C15.6563 61.5721 15.6563 61.573 15.6563 61.5742C15.6563 61.5767 15.6564 61.5805 15.6564 61.5856C15.6565 61.5959 15.6566 61.6115 15.6566 61.6321C15.6568 61.6733 15.657 61.7347 15.6571 61.8141C15.6572 61.973 15.6567 62.204 15.6543 62.4908C15.6495 63.0646 15.6371 63.8596 15.6064 64.7445C15.5443 66.5358 15.4098 68.6205 15.1328 69.9984L17.0936 70.3925ZM13.6871 85.4336C14.6787 85.5625 14.6787 85.5625 14.6787 85.5624C14.6787 85.5624 14.6788 85.5623 14.6788 85.5622C14.6788 85.5619 14.6788 85.5615 14.6789 85.561C14.679 85.56 14.6793 85.5584 14.6795 85.5563C14.6801 85.5521 14.6809 85.5458 14.682 85.5374C14.6842 85.5205 14.6875 85.4952 14.6919 85.4619C14.7007 85.3953 14.7137 85.2966 14.7308 85.1686C14.7649 84.9125 14.8151 84.5394 14.8794 84.0718C15.0079 83.1366 15.1923 81.8242 15.4161 80.3161C15.8642 77.2962 16.4677 73.5068 17.0936 70.3925L15.1328 69.9984C14.4967 73.1637 13.8872 76.9933 13.4377 80.0226C13.2127 81.5392 13.0272 82.8589 12.898 83.7996C12.8334 84.27 12.7828 84.6458 12.7483 84.9042C12.7311 85.0334 12.7179 85.1333 12.709 85.201C12.7045 85.2349 12.7012 85.2607 12.6989 85.2781C12.6977 85.2868 12.6969 85.2934 12.6963 85.2978C12.696 85.3001 12.6958 85.3018 12.6956 85.3029C12.6956 85.3035 12.6955 85.3039 12.6955 85.3042C12.6954 85.3044 12.6954 85.3045 12.6954 85.3046C12.6954 85.3047 12.6954 85.3047 13.6871 85.4336ZM15.5509 112.084L14.6776 105.775L12.6965 106.049L13.5698 112.358L15.5509 112.084ZM14.6852 105.851L14.2313 98.4222L12.235 98.5442L12.6889 105.973L14.6852 105.851ZM14.2332 98.4832L14.2332 92.5012L12.2332 92.5012L12.2332 98.4832L14.2332 98.4832ZM14.2311 92.5653L14.685 85.4977L12.6891 85.3695L12.2352 92.4371L14.2311 92.5653Z" fill="black"/>
<path id="Line 354" d="M69.1191 106.412L69.6662 88.1286L69.1203 72.5849L67.9736 64.6857L66.4318 58.2163" stroke="black" stroke-width="2"/>
<path id="Line 355" d="M55.8281 110.546C56.7017 99.7941 58.1724 97.6996 57.2644 88.4598C56.6254 81.8996 56.0284 76.9466 54.8273 70.4657C54.1666 66.9006 53.975 61.0984 53.975 61.0984" stroke="black" stroke-width="2" stroke-linecap="round"/>
<path id="Line 356" d="M46.6831 40.5013C49.2839 41.715 51.4125 41.8635 53.8312 43.4086C55.8287 44.6847 58.9914 46.9125 58.9914 46.9125C58.9914 46.9125 61.4376 49.1588 62.6865 50.8622C64.6869 53.5906 65.5489 55.4187 66.3812 58.6978" stroke="black" stroke-width="2"/>
<line id="Line 357" x1="23.0521" y1="40.5093" x2="47.1264" y2="40.6362" stroke="black" stroke-width="2"/>
<path id="Line 360" d="M35.2188 108.231L35.2187 118.838" stroke="black" stroke-width="2" stroke-linecap="round"/>
<path id="Line 361" d="M1.63672 108.277C1.958 109.861 2.45941 112.332 2.45941 112.332L4.2046 114.95C4.2046 114.95 5.62645 116.301 6.5661 116.747C7.50576 117.193 9.8794 117.092 9.8794 117.092L12.6781 115.901L13.727 114.399C13.727 114.399 14.3683 112.576 14.7792 111.408" stroke="black" stroke-width="2"/>
<path id="Line 362" d="M69.2168 106.027C69.2168 106.027 68.545 110.136 68.4933 110.799C68.4521 111.327 67.2832 113.163 66.4752 114.039C65.7751 114.798 64.3129 115.56 64.3129 115.56C64.3129 115.56 62.3293 116.023 61.2828 116.111C60.0876 116.211 59.5527 116.086 58.6379 115.56C57.716 115.03 57.3768 114.438 56.8216 113.531C56.1739 112.473 55.7685 110.534 55.7685 110.534" stroke="black" stroke-width="2"/>
</g>
<path id="Line 363" d="M15.2364 120.454C15.3351 120.998 15.8555 121.358 16.3989 121.26C16.9424 121.161 17.3029 120.641 17.2042 120.097L15.2364 120.454ZM13.3364 109.989L15.2364 120.454L17.2042 120.097L15.3042 109.631L13.3364 109.989Z" fill="black"/>
<path id="Line 364" d="M53.1879 119.75C53.107 120.296 53.4842 120.804 54.0306 120.885C54.5769 120.966 55.0854 120.589 55.1663 120.043L53.1879 119.75ZM54.9341 115.341L53.9505 115.161L54.9341 115.341ZM55.9095 109.374C54.9213 109.221 54.9213 109.221 54.9213 109.221C54.9213 109.221 54.9213 109.221 54.9213 109.221C54.9213 109.221 54.9212 109.221 54.9212 109.221C54.9211 109.222 54.921 109.223 54.9208 109.224C54.9205 109.226 54.9201 109.229 54.9195 109.233C54.9182 109.24 54.9164 109.252 54.914 109.268C54.9093 109.298 54.9022 109.344 54.8931 109.403C54.8748 109.52 54.8484 109.689 54.8156 109.899C54.7501 110.317 54.6593 110.893 54.5582 111.526C54.3554 112.794 54.1133 114.275 53.9505 115.161L55.9176 115.522C56.0851 114.61 56.3307 113.107 56.5331 111.841C56.6346 111.206 56.7258 110.628 56.7915 110.208C56.8244 109.998 56.851 109.828 56.8693 109.71C56.8785 109.651 56.8856 109.605 56.8904 109.574C56.8928 109.559 56.8947 109.547 56.8959 109.539C56.8965 109.535 56.897 109.532 56.8973 109.53C56.8975 109.529 56.8976 109.528 56.8977 109.527C56.8977 109.527 56.8977 109.527 56.8978 109.527C56.8978 109.527 56.8978 109.527 56.8978 109.527C56.8978 109.527 56.8978 109.527 55.9095 109.374ZM53.9505 115.161C53.7365 116.326 53.546 117.472 53.4091 118.327C53.3406 118.754 53.2854 119.109 53.2473 119.358C53.2282 119.482 53.2134 119.579 53.2034 119.646C53.1984 119.68 53.1945 119.705 53.1919 119.723C53.1906 119.731 53.1896 119.738 53.189 119.742C53.1886 119.745 53.1884 119.746 53.1882 119.748C53.1881 119.748 53.188 119.749 53.188 119.749C53.188 119.749 53.188 119.749 53.1879 119.749C53.1879 119.749 53.1879 119.749 53.1879 119.749C53.1879 119.75 53.1879 119.75 54.1771 119.896C55.1663 120.043 55.1663 120.043 55.1663 120.043C55.1663 120.043 55.1663 120.043 55.1663 120.043C55.1663 120.043 55.1663 120.042 55.1664 120.042C55.1664 120.042 55.1665 120.042 55.1665 120.041C55.1667 120.04 55.1669 120.039 55.1672 120.037C55.1678 120.033 55.1688 120.026 55.17 120.018C55.1725 120.001 55.1762 119.977 55.1811 119.944C55.1909 119.879 55.2054 119.783 55.2242 119.661C55.2617 119.416 55.3162 119.066 55.3839 118.643C55.5194 117.798 55.7073 116.667 55.9176 115.522L53.9505 115.161Z" fill="black"/>
</g>
</svg>
