<svg width="60" height="60" viewBox="0 0 60 60" fill="none" xmlns="http://www.w3.org/2000/svg">
<path d="M8.07785 0C4.89691 0 2.30859 2.58832 2.30859 5.76926C2.30859 8.9502 4.8968 11.5385 8.07785 11.5385C11.2588 11.5385 13.8471 8.95031 13.8471 5.76926C13.8471 2.58832 11.2588 0 8.07785 0ZM8.07785 9.23074C6.1691 9.23074 4.61637 7.67801 4.61637 5.76926C4.61637 3.86051 6.1691 2.30777 8.07785 2.30777C9.98672 2.30777 11.5395 3.86051 11.5395 5.76926C11.5395 7.67801 9.98672 9.23074 8.07785 9.23074Z" fill="black"/>
<path d="M48.4612 41.5386C43.3714 41.5386 39.2305 45.6796 39.2305 50.7693C39.2305 55.8591 43.3714 60.0001 48.4612 60.0001C53.551 60.0001 57.692 55.8591 57.692 50.7693C57.6921 45.6795 53.551 41.5386 48.4612 41.5386ZM48.4612 57.6924C44.6436 57.6924 41.5381 54.5869 41.5381 50.7693C41.5381 46.9517 44.6436 43.8462 48.4612 43.8462C52.2788 43.8462 55.3843 46.9517 55.3843 50.7693C55.3843 54.5869 52.2789 57.6924 48.4612 57.6924Z" fill="black"/>
<path d="M33.4631 3.46143C22.6469 3.46143 13.8477 12.2607 13.8477 23.0769C13.8477 33.893 22.6469 42.6923 33.4631 42.6923C44.2793 42.6923 53.0785 33.8931 53.0785 23.0769C53.0785 12.2606 44.2794 3.46143 33.4631 3.46143ZM33.4631 40.3845C23.9191 40.3845 16.1554 32.6208 16.1554 23.0769C16.1554 13.5329 23.9191 5.7692 33.4631 5.7692C43.0071 5.7692 50.7707 13.5329 50.7707 23.0769C50.7709 32.621 43.0072 40.3845 33.4631 40.3845Z" fill="black"/>
<path d="M33.4619 10.3848C26.4633 10.3848 20.7695 16.0786 20.7695 23.0771C20.7695 23.7148 21.2856 24.2309 21.9234 24.2309C22.5611 24.2309 23.0772 23.7148 23.0772 23.0771C23.0772 17.3507 27.7354 12.6925 33.4618 12.6925C34.0995 12.6925 34.6156 12.1764 34.6156 11.5387C34.6158 10.9009 34.0997 10.3848 33.4619 10.3848Z" fill="black"/>
<path d="M27.8464 44.3117C27.2864 44.0041 26.5855 44.2103 26.2802 44.7692C24.252 48.4696 20.3713 50.7694 16.1548 50.7694C9.79277 50.7694 4.61625 45.5929 4.61625 39.2309C4.61625 34.6223 7.35094 30.4611 11.5843 28.6322C12.1692 28.3798 12.4385 27.7004 12.1861 27.1156C11.9337 26.5297 11.252 26.2626 10.6695 26.5138C5.58984 28.7089 2.30859 33.7006 2.30859 39.2309C2.30859 46.8661 8.51953 53.0771 16.1548 53.0771C21.2141 53.0771 25.8701 50.3187 28.3039 45.8779C28.6105 45.319 28.4053 44.6181 27.8464 44.3117Z" fill="black"/>
<path d="M16.1526 46.1541C12.335 46.1541 9.22953 43.0486 9.22953 39.231C9.22953 38.5932 8.71344 38.0771 8.0757 38.0771C7.43797 38.0771 6.92188 38.5932 6.92188 39.231C6.92188 44.3208 11.0628 48.4617 16.1526 48.4617C16.7904 48.4617 17.3064 47.9456 17.3064 47.3079C17.3064 46.6702 16.7904 46.1541 16.1526 46.1541Z" fill="black"/>
</svg>
