<svg width="28" height="27" viewBox="0 0 28 27" fill="none" xmlns="http://www.w3.org/2000/svg">
<path d="M10.7121 19.5521C10.7121 19.5521 9.28711 15.0521 11.8996 12.3396C13.0117 11.4143 14.2334 10.6292 15.5371 10.0021C15.5354 8.86433 15.8585 7.74971 16.4685 6.7893C17.0785 5.8289 17.9501 5.06263 18.9807 4.58059C20.0113 4.09856 21.1581 3.9208 22.2863 4.06822C23.4145 4.21565 24.4771 4.68212 25.3492 5.41279C26.2214 6.14346 26.8668 7.10795 27.2095 8.19286C27.5523 9.27777 27.5782 10.438 27.2841 11.5371C26.99 12.6362 26.3883 13.6285 25.5496 14.3973C24.7109 15.1662 23.6701 15.6795 22.5496 15.8771C20.2621 19.3396 15.2621 25.5146 8.38711 25.5146C4.73711 25.5146 1.16211 14.8396 1.16211 10.0021V4.18959C1.16429 3.46779 1.44266 2.77421 1.94011 2.25119C2.43755 1.72818 3.11633 1.41541 3.83711 1.37709C5.99961 1.26459 8.83711 1.37709 9.51211 2.83959C10.5371 4.97709 8.32461 8.81459 5.93711 8.81459C5.93711 10.6896 8.22461 14.7646 10.2996 17.0146" stroke="white" stroke-miterlimit="10"/>
</svg>
