<svg width="28" height="26" viewBox="0 0 28 26" fill="none" xmlns="http://www.w3.org/2000/svg">
<path d="M10.1984 19.5277C10.1984 19.5277 8.77344 15.0277 11.3859 12.3152C12.4981 11.3899 13.7197 10.6048 15.0234 9.97768C15.0217 8.83991 15.3448 7.7253 15.9548 6.76489C16.5649 5.80448 17.4364 5.03821 18.467 4.55618C19.4976 4.07414 20.6444 3.89639 21.7726 4.04381C22.9008 4.19123 23.9634 4.6577 24.8356 5.38837C25.7077 6.11904 26.3531 7.08354 26.6959 8.16845C27.0386 9.25336 27.0645 10.4136 26.7704 11.5127C26.4764 12.6118 25.8746 13.6041 25.0359 14.3729C24.1972 15.1417 23.1564 15.6551 22.0359 15.8527C19.7484 19.3152 14.7484 25.4902 7.87344 25.4902C4.22344 25.4902 0.648438 14.8152 0.648438 9.97768V4.16517C0.650613 3.44338 0.928993 2.74979 1.42644 2.22678C1.92388 1.70376 2.60266 1.391 3.32344 1.35267C5.48594 1.24017 8.32344 1.35267 8.99844 2.81517C10.0234 4.95267 7.81094 8.79018 5.42344 8.79018C5.42344 10.6652 7.71094 14.7402 9.78594 16.9902" stroke="black" stroke-miterlimit="10"/>
</svg>
