<svg width="44" height="41" viewBox="0 0 44 41" fill="none" xmlns="http://www.w3.org/2000/svg">
<path d="M22.6985 0C22.6985 0 21.5594 0.568391 20.4215 1.40542C19.8526 1.82394 19.2767 2.30948 18.8214 2.86868C18.3662 3.42779 17.9951 4.09174 18.0515 4.8681C18.1143 5.73091 18.7124 6.37347 19.3505 6.75873C19.9885 7.1439 20.713 7.37696 21.3953 7.60684C22.0777 7.83673 22.7181 8.06343 23.1243 8.30878C23.5306 8.55405 23.6562 8.71295 23.6765 8.9931C23.6789 9.0249 23.6398 9.19471 23.4468 9.43164C23.2539 9.66857 22.9436 9.94125 22.6189 10.1802C21.9696 10.6577 21.2922 11 21.2922 11L22.0138 12.3764C22.0138 12.3764 22.7895 11.9902 23.57 11.4161C23.9602 11.1291 24.3589 10.795 24.6845 10.3952C25.0102 9.99513 25.2991 9.49798 25.2545 8.88327C25.1917 8.02046 24.5936 7.37791 23.9555 6.99265C23.3174 6.60739 22.593 6.37441 21.9107 6.14453C21.2283 5.91465 20.5879 5.68795 20.1817 5.44259C19.7754 5.19724 19.6498 5.03843 19.6295 4.75827C19.6154 4.56474 19.7365 4.22821 20.0589 3.83212C20.3815 3.43595 20.8691 3.01151 21.3725 2.6412C22.3792 1.90068 23.42 1.37638 23.42 1.37638L22.6985 0ZM11.4485 4.125C11.4485 4.125 10.3094 4.69339 9.17148 5.53042C8.60256 5.94894 8.0267 6.43448 7.57143 6.99368C7.11615 7.55279 6.74508 8.21674 6.8015 8.9931C6.86426 9.85591 7.46244 10.4985 8.10053 10.8837C8.73853 11.2689 9.46301 11.502 10.1453 11.7318C10.8277 11.9617 11.4681 12.1884 11.8743 12.4338C12.2806 12.679 12.4062 12.8379 12.4265 13.1181C12.4289 13.1499 12.3898 13.3197 12.1968 13.5566C12.0039 13.7936 11.6936 14.0663 11.3689 14.3052C10.7196 14.7827 10.0422 15.125 10.0422 15.125L10.7638 16.5014C10.7638 16.5014 11.5395 16.1152 12.32 15.5411C12.7102 15.2541 13.1089 14.92 13.4345 14.5201C13.7602 14.1201 14.0491 13.6229 14.0045 13.0083C13.9417 12.1455 13.3436 11.5029 12.7055 11.1177C12.0674 10.7324 11.343 10.4994 10.6607 10.2695C9.97831 10.0396 9.33794 9.81295 8.93171 9.56759C8.52539 9.32224 8.3998 9.16343 8.37949 8.88327C8.36543 8.68974 8.48646 8.35321 8.80893 7.95713C9.13148 7.56095 9.6191 7.13651 10.1225 6.7662C11.1292 6.02568 12.17 5.50138 12.17 5.50138L11.4485 4.125ZM33.9485 4.125C33.9485 4.125 32.8094 4.69339 31.6715 5.53042C31.1026 5.94894 30.5267 6.43448 30.0714 6.99368C29.6162 7.55279 29.2451 8.21674 29.3015 8.9931C29.3643 9.85591 29.9624 10.4985 30.6005 10.8837C31.2385 11.2689 31.963 11.502 32.6453 11.7318C33.3277 11.9617 33.9681 12.1884 34.3743 12.4338C34.7806 12.679 34.9062 12.8379 34.9265 13.1181C34.9289 13.1499 34.8898 13.3197 34.6968 13.5566C34.5039 13.7936 34.1936 14.0663 33.8689 14.3052C33.2196 14.7827 32.5422 15.125 32.5422 15.125L33.2638 16.5014C33.2638 16.5014 34.0395 16.1152 34.82 15.5411C35.2102 15.2541 35.6089 14.92 35.9345 14.5201C36.2602 14.1201 36.5491 13.6229 36.5045 13.0083C36.4417 12.1455 35.8436 11.5029 35.2055 11.1177C34.5674 10.7324 33.843 10.4994 33.1607 10.2695C32.4783 10.0396 31.8379 9.81295 31.4317 9.56759C31.0254 9.32224 30.8998 9.16343 30.8795 8.88327C30.8654 8.68974 30.9865 8.35321 31.3089 7.95713C31.6315 7.56095 32.1191 7.13651 32.6225 6.7662C33.6292 6.02568 34.67 5.50138 34.67 5.50138L33.9485 4.125ZM21.653 14.3521C20.5104 14.3521 19.7377 14.8603 19.1471 15.7266C18.9026 16.0852 18.7052 16.5086 18.5569 16.9697C19.5518 16.8315 20.5845 16.7587 21.653 16.7587C22.7215 16.7587 23.7541 16.8315 24.7491 16.9697C24.6008 16.5086 24.4035 16.0852 24.1589 15.7266C23.5683 14.8603 22.7956 14.3521 21.653 14.3521ZM21.653 18.3052C11.1565 18.3052 4.62401 25.6992 4.20319 33.2587H39.1028C38.6819 25.6992 32.1494 18.3051 21.653 18.3051V18.3052ZM1.1185 33.657L0 34.7506C1.59258 36.3079 3.37175 36.3521 4.778 36.3521H38.528C39.9343 36.3521 41.7133 36.3079 43.306 34.7506L42.1875 33.657C40.9676 34.8497 39.9343 34.8055 38.528 34.8055H4.778C3.37175 34.8055 2.33833 34.8497 1.1185 33.657ZM9.06829 37.899L10.8263 40.4774H32.4797L34.2377 37.899H9.06829Z" fill="#01a809"/>
</svg>
