<svg width="21" height="21" viewBox="0 0 21 21" fill="none" xmlns="http://www.w3.org/2000/svg">
<g clip-path="url(#clip0_3290_3737)">
<path d="M18.9277 1.98438L13.9234 1.98439V0.73877C13.9234 0.393457 13.6437 0.11377 13.2984 0.11377C12.953 0.11377 12.6734 0.393457 12.6734 0.73877V1.98408H7.67336V0.73877C7.67336 0.393457 7.39367 0.11377 7.04836 0.11377C6.70305 0.11377 6.42336 0.393457 6.42336 0.73877V1.98408H1.42773C0.737422 1.98408 0.177734 2.54377 0.177734 3.23408V18.8591C0.177734 19.5494 0.737422 20.1091 1.42773 20.1091H18.9277C19.618 20.1091 20.1777 19.5494 20.1777 18.8591V3.23408C20.1777 2.54406 19.618 1.98438 18.9277 1.98438ZM18.9277 18.8591H1.42773V3.23408H6.42336V3.86377C6.42336 4.20906 6.70305 4.48877 7.04836 4.48877C7.39367 4.48877 7.67336 4.20906 7.67336 3.86377V3.23439H12.6734V3.86408C12.6734 4.20939 12.953 4.48908 13.2984 4.48908C13.6437 4.48908 13.9234 4.20939 13.9234 3.86408V3.23439H18.9277V18.8591ZM14.5527 10.1094H15.8027C16.1477 10.1094 16.4277 9.82938 16.4277 9.48438V8.23438C16.4277 7.88938 16.1477 7.60938 15.8027 7.60938H14.5527C14.2077 7.60938 13.9277 7.88938 13.9277 8.23438V9.48438C13.9277 9.82938 14.2077 10.1094 14.5527 10.1094ZM14.5527 15.1091H15.8027C16.1477 15.1091 16.4277 14.8294 16.4277 14.4841V13.2341C16.4277 12.8891 16.1477 12.6091 15.8027 12.6091H14.5527C14.2077 12.6091 13.9277 12.8891 13.9277 13.2341V14.4841C13.9277 14.8297 14.2077 15.1091 14.5527 15.1091ZM10.8027 12.6091H9.55273C9.20773 12.6091 8.92773 12.8891 8.92773 13.2341V14.4841C8.92773 14.8294 9.20773 15.1091 9.55273 15.1091H10.8027C11.1477 15.1091 11.4277 14.8294 11.4277 14.4841V13.2341C11.4277 12.8894 11.1477 12.6091 10.8027 12.6091ZM10.8027 7.60938H9.55273C9.20773 7.60938 8.92773 7.88938 8.92773 8.23438V9.48438C8.92773 9.82938 9.20773 10.1094 9.55273 10.1094H10.8027C11.1477 10.1094 11.4277 9.82938 11.4277 9.48438V8.23438C11.4277 7.88906 11.1477 7.60938 10.8027 7.60938ZM5.80273 7.60938H4.55273C4.20773 7.60938 3.92773 7.88938 3.92773 8.23438V9.48438C3.92773 9.82938 4.20773 10.1094 4.55273 10.1094H5.80273C6.14773 10.1094 6.42773 9.82938 6.42773 9.48438V8.23438C6.42773 7.88906 6.14773 7.60938 5.80273 7.60938ZM5.80273 12.6091H4.55273C4.20773 12.6091 3.92773 12.8891 3.92773 13.2341V14.4841C3.92773 14.8294 4.20773 15.1091 4.55273 15.1091H5.80273C6.14773 15.1091 6.42773 14.8294 6.42773 14.4841V13.2341C6.42773 12.8894 6.14773 12.6091 5.80273 12.6091Z" fill="black" fill-opacity="0.5"/>
</g>
<defs>
<clipPath id="clip0_3290_3737">
<rect width="20" height="20" fill="white" transform="translate(0.177734 0.111328)"/>
</clipPath>
</defs>
</svg>
