<svg width="151" height="150" viewBox="0 0 151 150" fill="none" xmlns="http://www.w3.org/2000/svg">
<path d="M129.213 3.63818H74.7856C72.3589 3.63821 70.0315 4.60225 68.3155 6.31825C66.5995 8.03424 65.6355 10.3616 65.6355 12.7884V41.0175H59.4515C56.7389 41.0205 54.1383 42.0994 52.2202 44.0175C50.3021 45.9356 49.2232 48.5362 49.2202 51.2488V62.99C49.2202 63.4562 49.4054 63.9033 49.735 64.233C50.0647 64.5626 50.5118 64.7478 50.978 64.7478C51.4442 64.7478 51.8913 64.5626 52.2209 64.233C52.5506 63.9033 52.7358 63.4562 52.7358 62.99V51.2488C52.7378 49.4683 53.446 47.7614 54.705 46.5024C55.964 45.2434 57.671 44.5352 59.4514 44.5332H65.6354V91.3006C65.2992 91.3484 64.9752 91.4011 64.6634 91.4585C62.8425 89.5588 60.3083 88.7389 58.1641 88.4043C60.0584 85.187 60.5594 81.0063 59.3901 77.7443C58.3289 74.7837 56.0819 72.7318 52.8916 71.8102C47.3529 70.2101 44.4295 72.5314 43.023 74.473C41.0678 72.0677 38.1622 71.4543 34.9381 72.8023L34.8396 72.8471C30.9258 74.7738 29.085 78.5275 29.5982 83.476C27.5137 82.7154 24.4138 82.3553 20.3932 84.0044C16.372 85.6533 13.7979 89.1743 13.5076 93.4229C13.3639 95.5964 13.8363 97.7663 14.8704 99.6833C15.9045 101.6 17.4583 103.187 19.3535 104.261C19.4832 104.336 19.6065 104.415 19.7331 104.492C13.5327 106.427 12.6364 108.509 12.6364 110.06V110.218C12.6391 112.73 13.3927 115.183 14.8003 117.264C16.208 119.344 18.2054 120.956 20.5361 121.893C24.7951 123.634 32.4025 127.813 35.499 136.234C35.6363 136.607 35.8735 137.356 35.994 137.743C36.4157 140.434 39.3665 142.598 44.7696 144.178C49.5838 145.586 55.8978 146.361 62.5485 146.361C74.578 146.361 87.9436 143.709 89.0825 137.89C89.2307 137.416 89.5658 136.372 89.7635 135.87C90.6861 133.556 91.9983 131.417 93.643 129.546H129.213C130.415 129.546 131.605 129.309 132.715 128.849C133.825 128.389 134.834 127.715 135.684 126.865C136.533 126.016 137.207 125.007 137.667 123.897C138.127 122.787 138.364 121.597 138.364 120.395V12.7884C138.364 11.5868 138.127 10.3969 137.667 9.28675C137.207 8.17659 136.533 7.16788 135.684 6.3182C134.834 5.46853 133.825 4.79453 132.715 4.33469C131.605 3.87485 130.415 3.63818 129.213 3.63818ZM107.395 8.21342H110.703C110.934 8.21342 111.162 8.25888 111.375 8.34722C111.589 8.43556 111.782 8.56504 111.946 8.72827C112.109 8.8915 112.238 9.08528 112.327 9.29854C112.415 9.51181 112.46 9.74039 112.46 9.97123C112.46 10.2021 112.415 10.4306 112.327 10.6439C112.238 10.8572 112.109 11.051 111.946 11.2142C111.782 11.3774 111.589 11.5069 111.375 11.5952C111.162 11.6836 110.934 11.729 110.703 11.729H107.395C106.929 11.729 106.482 11.5438 106.152 11.2142C105.822 10.8845 105.637 10.4374 105.637 9.97123C105.637 9.50503 105.822 9.05792 106.152 8.72827C106.482 8.39861 106.929 8.21342 107.395 8.21342ZM93.2962 8.21342H101.565C101.796 8.21342 102.025 8.25888 102.238 8.34722C102.451 8.43556 102.645 8.56504 102.808 8.72827C102.972 8.8915 103.101 9.08528 103.189 9.29854C103.278 9.51181 103.323 9.74039 103.323 9.97123C103.323 10.2021 103.278 10.4306 103.189 10.6439C103.101 10.8572 102.972 11.051 102.808 11.2142C102.645 11.3774 102.451 11.5069 102.238 11.5952C102.025 11.6836 101.796 11.729 101.565 11.729H93.2962C92.83 11.729 92.3829 11.5438 92.0533 11.2142C91.7236 10.8845 91.5384 10.4374 91.5384 9.97123C91.5384 9.50503 91.7236 9.05792 92.0533 8.72827C92.3829 8.39861 92.83 8.21342 93.2962 8.21342ZM82.3086 97.4451C82.7562 97.5534 83.1934 97.6675 83.6203 97.7875C87.1 98.7689 88.8121 99.8358 89.4633 100.414C88.8924 100.965 87.3751 101.974 84.2283 102.894C80.4273 104.006 75.5295 104.618 70.4368 104.618C65.344 104.618 60.4463 104.005 56.6452 102.894C53.4985 101.974 51.9812 100.965 51.4103 100.414C52.0614 99.8358 53.7736 98.7689 57.2533 97.7875C57.4701 97.7263 57.6945 97.6692 57.9172 97.6112C59.925 99.2176 64.5871 100.344 70.0175 100.344C75.6328 100.344 80.4228 99.1392 82.3086 97.4451ZM71.2725 95.393C71.2725 94.5415 72.801 93.8511 74.6865 93.8511C76.5721 93.8511 78.1009 94.5415 78.1009 95.393C78.1009 96.2445 76.5722 96.9349 74.6865 96.9349C72.8008 96.9349 71.2725 96.2446 71.2725 95.393ZM37.8005 107.868C37.7933 107.065 37.9608 106.271 38.2913 105.54C38.6219 104.808 39.1076 104.158 39.7148 103.633C41.9347 101.718 44.8025 100.724 47.7313 100.855C48.2297 103.491 52.5568 105.769 58.8323 107.045C55.9061 109.442 52.0483 110.976 48.9165 111.912L38.0052 111.855C37.8783 110.489 37.809 109.156 37.8005 107.868ZM17.0152 93.6626C17.1075 92.2566 17.6002 90.9064 18.4351 89.7714C19.27 88.6364 20.4123 87.764 21.727 87.2572C24.4842 86.127 26.9172 86.0453 28.9568 87.0149C29.4477 87.2486 29.9931 87.3439 30.5342 87.2906C31.0753 87.2372 31.5916 87.0372 32.0274 86.712C32.4632 86.3869 32.802 85.949 33.0073 85.4455C33.2126 84.942 33.2765 84.392 33.1923 83.8549C32.586 80.0118 33.6464 77.3779 36.3443 76.0251C38.2594 75.2386 39.5575 75.5529 40.5511 77.0386C40.8301 77.4607 41.2116 77.8051 41.6599 78.0396C42.1082 78.2742 42.6086 78.3912 43.1144 78.3798C43.6203 78.3684 44.1149 78.2289 44.5521 77.9743C44.9894 77.7197 45.3549 77.3584 45.6146 76.9242C46.8311 74.8822 48.8919 74.3142 51.916 75.1877C54.0057 75.7914 55.407 77.0506 56.0808 78.9306C56.9605 81.3852 56.4411 84.7532 54.817 87.1204C54.5229 87.5466 54.3444 88.0419 54.2992 88.5577C54.2541 89.0736 54.3437 89.5923 54.5593 90.0632C54.7749 90.534 55.1091 90.9407 55.5292 91.2435C55.9493 91.5463 56.4409 91.7347 56.9557 91.7904C58.1584 91.9002 59.3344 92.2092 60.4358 92.7046C59.6771 93.01 58.9598 93.4097 58.301 93.8944C54.5074 94.7647 51.3295 96.0081 49.4647 97.4684C45.0693 96.911 41.7159 98.0564 39.3139 99.5593C39.2354 99.6078 39.1444 99.6323 39.0522 99.6299C38.9599 99.6275 38.8704 99.5982 38.7945 99.5458C38.7185 99.4933 38.6596 99.4199 38.6247 99.3345C38.5898 99.249 38.5806 99.1553 38.5981 99.0647C40.2778 90.1941 44.0239 84.7279 44.1027 84.6182C44.3719 84.2371 44.4787 83.7646 44.3996 83.3047C44.3205 82.8449 44.0619 82.4353 43.6808 82.166C43.4921 82.0327 43.279 81.9379 43.0536 81.887C42.8283 81.836 42.5951 81.83 42.3674 81.8691C41.9075 81.9482 41.4979 82.2068 41.2287 82.5879C41.0084 82.9003 37.8805 87.4184 35.8949 94.9315C35.8672 95.0369 35.8114 95.1328 35.7334 95.2089C35.6554 95.2851 35.5582 95.3385 35.4522 95.3637C35.3461 95.3888 35.2353 95.3846 35.1314 95.3516C35.0276 95.3186 34.9346 95.2579 34.8626 95.1762C33.1 93.1727 30.7839 91.7357 28.2061 91.046C27.7507 90.9458 27.2742 91.0306 26.8814 91.2817C26.4886 91.5327 26.2116 91.9296 26.1113 92.3849C26.0111 92.8402 26.0959 93.3167 26.3469 93.7096C26.598 94.1024 26.9949 94.3794 27.4502 94.4796C28.9396 94.9118 30.3103 95.6791 31.4574 96.7228C32.6045 97.7664 33.4975 99.0587 34.0682 100.501C34.4081 101.329 34.5443 102.227 34.4653 103.119C34.2121 106.019 34.2144 108.936 34.4722 111.836L30.3481 111.815C29.5201 109.953 28.4905 108.187 27.2778 106.55C25.6044 104.376 23.5088 102.563 21.1169 101.219C19.7917 100.473 18.7038 99.3681 17.9783 98.0314C17.2527 96.6947 16.9189 95.1805 17.0152 93.6626ZM86.4934 134.58C86.1882 135.354 85.6366 137.192 85.6366 137.192C85.3195 139.165 77.111 142.846 62.5487 142.846C56.2227 142.846 50.2588 142.121 45.7564 140.804C40.9439 139.396 39.5352 137.808 39.4625 137.164C39.4625 137.164 39.019 135.62 38.7987 135.021C35.2368 125.334 26.6614 120.599 21.8666 118.639C20.1831 117.965 18.7395 116.803 17.7212 115.302C16.703 113.802 16.1565 112.031 16.152 110.218V110.125C16.4089 109.635 18.1477 108.437 23.1855 107.185C23.6448 107.647 24.0723 108.139 24.465 108.658C25.0374 109.423 25.5606 110.224 26.0316 111.055C24.8735 110.821 23.7326 110.509 22.6165 110.121C22.3994 110.04 22.1684 110.002 21.9367 110.01C21.7051 110.019 21.4773 110.073 21.2667 110.17C21.056 110.266 20.8666 110.404 20.7093 110.574C20.5519 110.744 20.4298 110.944 20.35 111.162C20.2702 111.379 20.2342 111.611 20.2441 111.842C20.254 112.074 20.3096 112.301 20.4077 112.511C20.5058 112.721 20.6445 112.91 20.8158 113.066C20.9871 113.222 21.1876 113.343 21.4057 113.421C27.6127 115.698 44.4613 117.288 62.3784 117.288C79.0659 117.288 95.1741 115.919 102.462 113.882C102.908 113.754 103.285 113.455 103.512 113.05C103.738 112.644 103.795 112.166 103.67 111.719C103.545 111.272 103.248 110.893 102.845 110.664C102.441 110.435 101.963 110.374 101.515 110.496C99.1938 111.098 96.8372 111.555 94.4591 111.864C91.7816 109.559 88.7964 107.637 85.5895 106.155C86.6492 105.837 87.6867 105.45 88.6951 104.995C90.9739 105.246 93.1393 105.532 95.1592 105.851C105.528 107.49 108.596 109.459 108.945 110.125V110.218C108.941 112.031 108.394 113.802 107.376 115.303C106.357 116.803 104.914 117.965 103.23 118.639C98.5781 120.541 90.2179 125.141 86.4934 134.58ZM133.562 119.109C133.562 120.504 133.008 121.841 132.022 122.828C131.036 123.814 129.698 124.368 128.304 124.368H99.7662C101.291 123.408 102.895 122.58 104.56 121.893C106.891 120.956 108.889 119.344 110.297 117.264C111.704 115.183 112.458 112.73 112.461 110.218V110.06C112.461 107.975 110.847 104.93 96.8918 102.571C95.5624 102.347 94.1627 102.139 92.7133 101.944C93.0199 101.466 93.1871 100.912 93.1959 100.344C93.1959 97.4719 88.0186 94.9637 81.2593 93.6134L81.2588 93.613C81.2588 93.613 77.856 91.1807 70.4366 91.0301V72.6225H78.8997C79.3024 75.1013 80.544 77.3668 82.4168 79.0399C84.2896 80.713 86.6801 81.6924 89.1885 81.8142C91.6968 81.936 94.171 81.1929 96.1972 79.7092C98.2233 78.2254 99.6786 76.091 100.32 73.6628C100.383 73.4104 100.388 73.1468 100.334 72.8922C100.28 72.6376 100.168 72.3987 100.008 72.1938C99.847 71.989 99.6417 71.8236 99.4073 71.7103C99.173 71.597 98.9158 71.5388 98.6555 71.5402H98.562C98.182 71.5428 97.8135 71.6706 97.5135 71.9038C97.2135 72.137 96.9988 72.4627 96.9027 72.8303C96.5523 74.1104 95.866 75.2736 94.9151 76.1994C93.9641 77.1253 92.783 77.7801 91.494 78.0962C90.2049 78.4123 88.8549 78.3781 87.5835 77.9971C86.3121 77.6162 85.1656 76.9024 84.2628 75.9296C83.3599 74.9568 82.7335 73.7603 82.4483 72.4641C82.1632 71.1679 82.2296 69.819 82.6408 68.5571C83.052 67.2952 83.7931 66.1661 84.7872 65.2868C85.7813 64.4074 86.9924 63.8098 88.295 63.5556C88.6925 63.4845 89.0526 63.2768 89.3132 62.9684C89.5737 62.66 89.7184 62.2702 89.7221 61.8665V61.7779C89.7221 61.526 89.6667 61.2772 89.5597 61.0492C89.4527 60.8212 89.2968 60.6195 89.103 60.4586C88.9093 60.2976 88.6825 60.1813 88.4387 60.1179C88.195 60.0545 87.9402 60.0456 87.6926 60.0918C85.4801 60.5125 83.4502 61.6029 81.8777 63.2154C80.3053 64.8278 79.2662 66.8844 78.9011 69.1069H70.4366V44.5331H78.9129C79.331 47.0029 80.5824 49.255 82.4588 50.9145C84.3352 52.574 86.7234 53.5408 89.2258 53.6539C91.7282 53.767 94.1939 53.0197 96.2123 51.5362C98.2308 50.0528 99.6803 47.9228 100.32 45.5008C100.383 45.2484 100.388 44.9848 100.334 44.7301C100.28 44.4755 100.168 44.2366 100.008 44.0318C99.847 43.827 99.6417 43.6616 99.4073 43.5483C99.173 43.435 98.9158 43.3768 98.6555 43.3782H98.562C98.182 43.3807 97.8135 43.5085 97.5135 43.7418C97.2135 43.975 96.9988 44.3006 96.9027 44.6682C96.5523 45.9484 95.866 47.1116 94.9151 48.0374C93.9641 48.9633 92.783 49.6181 91.494 49.9342C90.2049 50.2502 88.8549 50.216 87.5835 49.8351C86.3121 49.4542 85.1656 48.7404 84.2628 47.7675C83.3599 46.7947 82.7335 45.5983 82.4483 44.3021C82.1632 43.0058 82.2296 41.657 82.6408 40.395C83.052 39.1331 83.7931 38.0041 84.7872 37.1247C85.7813 36.2454 86.9924 35.6477 88.295 35.3936C88.6925 35.3225 89.0526 35.1148 89.3132 34.8064C89.5737 34.498 89.7184 34.1082 89.7221 33.7045V33.6158C89.7221 33.364 89.6667 33.1152 89.5597 32.8872C89.4527 32.6592 89.2968 32.4575 89.103 32.2965C88.9093 32.1356 88.6825 32.0193 88.4387 31.9559C88.195 31.8925 87.9402 31.8835 87.6926 31.9297C85.4679 32.3529 83.4282 33.4531 81.8526 35.0799C80.2771 36.7066 79.2426 38.7804 78.8907 41.0176H70.4366V21.3085C70.4366 19.9138 70.9907 18.5762 71.9769 17.59C72.9631 16.6038 74.3007 16.0497 75.6954 16.0497H128.304C129.698 16.0497 131.036 16.6038 132.022 17.59C133.008 18.5762 133.562 19.9138 133.562 21.3085L133.562 119.109Z" fill="black" fill-opacity="0.5"/>
<path d="M98.6675 62.1008C94.6417 63.788 91.3424 67.1956 89.48 69.4435L88.2512 67.9462C87.9048 67.53 87.4079 67.2677 86.8689 67.2164C86.3299 67.1652 85.7925 67.3292 85.3739 67.6726C84.9553 68.0161 84.6896 68.5112 84.6346 69.0499C84.5797 69.5885 84.74 70.1271 85.0806 70.548L87.9556 74.0515C88.1481 74.2858 88.3902 74.4744 88.6643 74.6039C88.9385 74.7334 89.238 74.8005 89.5412 74.8004C89.5747 74.8004 89.6085 74.7995 89.6422 74.7979C89.9622 74.782 90.2741 74.6914 90.5528 74.5334C90.8316 74.3754 91.0695 74.1544 91.2475 73.888C91.2867 73.8292 95.2312 67.9882 100.253 65.8837C100.755 65.6734 101.152 65.2725 101.358 64.7691C101.564 64.2657 101.562 63.7011 101.352 63.1995C101.142 62.6978 100.741 62.3003 100.237 62.0942C99.7339 61.8882 99.1691 61.8906 98.6675 62.1008Z" fill="black" fill-opacity="0.5"/>
<path d="M98.6675 34.0178C94.6417 35.705 91.3424 39.1126 89.48 41.3606L88.2512 39.8632C87.9048 39.447 87.4079 39.1846 86.8689 39.1334C86.3299 39.0821 85.7925 39.2461 85.3739 39.5896C84.9553 39.9331 84.6896 40.4282 84.6346 40.9669C84.5797 41.5055 84.74 42.0441 85.0806 42.465L87.9556 45.9686C88.1481 46.2029 88.3902 46.3916 88.6643 46.5211C88.9385 46.6506 89.238 46.7176 89.5412 46.7175C89.5747 46.7175 89.6085 46.7166 89.6422 46.7151C89.9622 46.6991 90.2741 46.6086 90.5528 46.4506C90.8316 46.2925 91.0695 46.0715 91.2475 45.8051C91.2867 45.7463 95.2312 39.9052 100.253 37.8007C100.502 37.6966 100.727 37.5445 100.917 37.3533C101.106 37.1621 101.256 36.9353 101.358 36.6861C101.46 36.4368 101.512 36.1699 101.511 35.9006C101.51 35.6313 101.456 35.3648 101.352 35.1165C101.248 34.8681 101.096 34.6426 100.904 34.453C100.713 34.2634 100.486 34.1132 100.237 34.0112C99.988 33.9092 99.7211 33.8573 99.4518 33.8584C99.1824 33.8595 98.9159 33.9137 98.6675 34.0178Z" fill="black" fill-opacity="0.5"/>
<path d="M124.466 37.5801H107.395C106.929 37.5801 106.482 37.7653 106.152 38.0949C105.822 38.4246 105.637 38.8717 105.637 39.3379C105.637 39.8041 105.822 40.2512 106.152 40.5808C106.482 40.9105 106.929 41.0957 107.395 41.0957H124.466C124.932 41.0957 125.379 40.9105 125.709 40.5808C126.039 40.2512 126.224 39.8041 126.224 39.3379C126.224 38.8717 126.039 38.4246 125.709 38.0949C125.379 37.7653 124.932 37.5801 124.466 37.5801Z" fill="black" fill-opacity="0.5"/>
<path d="M124.466 45.0254H107.395C106.929 45.0254 106.482 45.2106 106.152 45.5402C105.822 45.8699 105.637 46.317 105.637 46.7832C105.637 47.2494 105.822 47.6965 106.152 48.0262C106.482 48.3558 106.929 48.541 107.395 48.541H124.466C124.932 48.541 125.379 48.3558 125.709 48.0262C126.039 47.6965 126.224 47.2494 126.224 46.7832C126.224 46.317 126.039 45.8699 125.709 45.5402C125.379 45.2106 124.932 45.0254 124.466 45.0254Z" fill="black" fill-opacity="0.5"/>
<path d="M124.466 65.1938H107.395C106.929 65.1938 106.482 65.379 106.152 65.7087C105.822 66.0384 105.637 66.4855 105.637 66.9517C105.637 67.4179 105.822 67.865 106.152 68.1946C106.482 68.5243 106.929 68.7095 107.395 68.7095H124.466C124.932 68.7095 125.379 68.5243 125.709 68.1946C126.039 67.865 126.224 67.4179 126.224 66.9517C126.224 66.4855 126.039 66.0384 125.709 65.7087C125.379 65.379 124.932 65.1938 124.466 65.1938Z" fill="black" fill-opacity="0.5"/>
<path d="M124.466 72.6387H107.395C106.929 72.6387 106.482 72.8239 106.152 73.1535C105.822 73.4832 105.637 73.9303 105.637 74.3965C105.637 74.8627 105.822 75.3098 106.152 75.6394C106.482 75.9691 106.929 76.1543 107.395 76.1543H124.466C124.932 76.1543 125.379 75.9691 125.709 75.6394C126.039 75.3098 126.224 74.8627 126.224 74.3965C126.224 73.9303 126.039 73.4832 125.709 73.1535C125.379 72.8239 124.932 72.6387 124.466 72.6387Z" fill="black" fill-opacity="0.5"/>
</svg>
