<svg width="26" height="26" viewBox="0 0 26 26" fill="none" xmlns="http://www.w3.org/2000/svg">
<path d="M19.7402 20.8926C19.7402 21.0998 19.6579 21.2985 19.5114 21.445C19.3649 21.5915 19.1662 21.6738 18.959 21.6738H6.45898C6.25178 21.6738 6.05307 21.5915 5.90656 21.445C5.76004 21.2985 5.67773 21.0998 5.67773 20.8926V4.48633H13.4902V2.92383H4.11523V20.8926C4.11523 21.5142 4.36216 22.1103 4.8017 22.5499C5.24124 22.9894 5.83738 23.2363 6.45898 23.2363H18.959C19.5806 23.2363 20.1767 22.9894 20.6163 22.5499C21.0558 22.1103 21.3027 21.5142 21.3027 20.8926V10.7363H19.7402V20.8926Z" fill="white"/>
<path d="M21.3965 2.82967C20.9494 2.40544 20.3566 2.16895 19.7402 2.16895C19.1239 2.16895 18.5311 2.40544 18.084 2.82967L13.4902 7.4156L12.709 11.5562L16.8105 10.7359L21.3965 6.14998C21.615 5.93224 21.7884 5.6735 21.9066 5.38861C22.0249 5.10373 22.0858 4.79829 22.0858 4.48982C22.0858 4.18135 22.0249 3.87591 21.9066 3.59103C21.7884 3.30614 21.615 3.04741 21.3965 2.82967ZM16.0371 9.2906L14.6621 9.56404L14.9355 8.18904L17.5293 5.58748L18.6387 6.69685L16.0371 9.2906ZM20.2949 5.0406L19.7402 5.58748L18.6387 4.48592L19.1855 3.93123C19.2582 3.858 19.3446 3.79988 19.4398 3.76022C19.535 3.72056 19.6371 3.70014 19.7402 3.70014C19.8434 3.70014 19.9455 3.72056 20.0407 3.76022C20.1359 3.79988 20.2223 3.858 20.2949 3.93123C20.3681 4.00386 20.4263 4.09026 20.4659 4.18546C20.5056 4.28067 20.526 4.38278 20.526 4.48592C20.526 4.58905 20.5056 4.69116 20.4659 4.78637C20.4263 4.88157 20.3681 4.96798 20.2949 5.0406Z" fill="white"/>
</svg>
