<svg width="52" height="52" viewBox="0 0 52 52" fill="none" xmlns="http://www.w3.org/2000/svg">
<path d="M44.0097 27.402L45.1298 23.216C46.4385 18.3302 47.095 15.8883 46.6032 13.7737C46.2134 12.1042 45.3372 10.5879 44.0855 9.41651C42.5017 7.93234 40.0577 7.27801 35.1718 5.96934C30.286 4.65851 27.842 4.00418 25.7295 4.49601C24.0601 4.88582 22.5438 5.76199 21.3723 7.01368C20.1005 8.37001 19.4375 10.3568 18.4517 13.9665L17.923 15.9273L16.8028 20.1133C15.492 24.9992 14.8377 27.441 15.3295 29.5557C15.7193 31.2251 16.5955 32.7414 17.8472 33.9128C19.431 35.397 21.875 36.0513 26.7608 37.3622C31.1635 38.5408 33.5837 39.1887 35.5662 38.9438C35.7828 38.9164 35.9952 38.8788 36.2032 38.8312C37.8721 38.4426 39.3884 37.5679 40.5603 36.3178C42.0445 34.7318 42.6988 32.2878 44.0097 27.402Z" stroke="black" stroke-width="3"/>
<path d="M35.5655 38.9439C35.1126 40.3313 34.3167 41.5818 33.2515 42.5795C31.6677 44.0637 29.2237 44.718 24.3379 46.0267C19.452 47.3354 17.008 47.9919 14.8955 47.4979C13.2263 47.1087 11.7101 46.2333 10.5384 44.9824C9.05419 43.3985 8.39769 40.9545 7.08902 36.0687L5.96886 31.8827C4.65802 26.9969 4.00369 24.5529 4.49552 22.4404C4.88533 20.7709 5.7615 19.2546 7.01319 18.0832C8.59702 16.599 11.041 15.9447 15.9269 14.6339C16.8484 14.3854 17.6898 14.1622 18.451 13.9644" stroke="black" stroke-width="3"/>
<path d="M25.5175 21.667L35.9825 24.4707M23.834 27.946L30.113 29.6273" stroke="black" stroke-width="3" stroke-linecap="round"/>
</svg>
