<svg width="22" height="22" viewBox="0 0 22 22" fill="none" xmlns="http://www.w3.org/2000/svg">
<path d="M11.0181 2.66602C7.98388 2.66602 5.51805 5.13185 5.51805 8.16602V10.8152C5.51805 11.3743 5.27971 12.2268 4.99555 12.7035L3.94138 14.4543C3.29055 15.536 3.73971 16.7368 4.93138 17.1402C8.88221 18.4602 13.1447 18.4602 17.0956 17.1402C18.2047 16.7735 18.6906 15.4627 18.0856 14.4543L17.0314 12.7035C16.7564 12.2268 16.5181 11.3743 16.5181 10.8152V8.16602C16.5181 5.14102 14.0431 2.66602 11.0181 2.66602Z" stroke="#727A84" stroke-width="1.5" stroke-miterlimit="10" stroke-linecap="round"/>
<path d="M12.7147 2.93255C12.4305 2.85005 12.1372 2.78588 11.8347 2.74922C10.9547 2.63922 10.1114 2.70338 9.32303 2.93255C9.58886 2.25422 10.2489 1.77755 11.0189 1.77755C11.7889 1.77755 12.4489 2.25422 12.7147 2.93255Z" stroke="#727A84" stroke-width="1.5" stroke-miterlimit="10" stroke-linecap="round" stroke-linejoin="round"/>
<path d="M13.7676 17.4727C13.7676 18.9852 12.5301 20.2227 11.0176 20.2227C10.2659 20.2227 9.56923 19.911 9.07424 19.416C8.57924 18.921 8.26758 18.2243 8.26758 17.4727" stroke="#727A84" stroke-width="1.5" stroke-miterlimit="10"/>
<circle cx="15.4572" cy="4.78131" r="3.75" fill="#01a809"/>
</svg>
