<svg width="16" height="20" viewBox="0 0 16 20" fill="none" xmlns="http://www.w3.org/2000/svg">
<path d="M6.55664 17.5422H10.3066C10.3066 18.0473 10.1091 18.5318 9.75747 18.8889C9.40583 19.2461 8.92892 19.4468 8.43164 19.4468C7.93436 19.4468 7.45745 19.2461 7.10582 18.8889C6.75419 18.5318 6.55664 18.0473 6.55664 17.5422ZM14.0566 13.733V8.01924C14.0553 6.66995 13.5839 5.36469 12.726 4.33459C11.868 3.3045 10.6789 2.61606 9.36914 2.39118V1.35317C9.36914 1.10061 9.27037 0.85839 9.09455 0.6798C8.91874 0.50121 8.68028 0.400879 8.43164 0.400879C8.183 0.400879 7.94454 0.50121 7.76873 0.6798C7.59291 0.85839 7.49414 1.10061 7.49414 1.35317V2.39118C6.1844 2.61606 4.99526 3.3045 4.13731 4.33459C3.27937 5.36469 2.80799 6.66995 2.80664 8.01924V13.733L0.931641 15.6376H15.9316L14.0566 13.733Z" fill="black"/>
</svg>
