<svg width="21" height="21" viewBox="0 0 21 21" fill="none" xmlns="http://www.w3.org/2000/svg">
<path d="M17.7081 10.3917L18.6281 8.80167C18.7387 8.61037 18.7687 8.38299 18.7117 8.16953C18.6547 7.95606 18.5152 7.77399 18.3239 7.66334L16.7323 6.74334V4.91C16.7323 4.68899 16.6445 4.47703 16.4882 4.32075C16.3319 4.16447 16.1199 4.07667 15.8989 4.07667H14.0664L13.1473 2.48584C13.0363 2.29493 12.8545 2.15542 12.6414 2.0975C12.5357 2.06885 12.4254 2.06146 12.3168 2.07577C12.2083 2.09007 12.1036 2.12578 12.0089 2.18084L10.4173 3.10084L8.8256 2.18C8.6342 2.0695 8.40674 2.03956 8.19327 2.09675C7.97979 2.15395 7.79778 2.29361 7.68727 2.485L6.76727 4.07667H4.93477C4.71375 4.07667 4.50179 4.16447 4.34551 4.32075C4.18923 4.47703 4.10143 4.68899 4.10143 4.91V6.7425L2.50977 7.6625C2.41479 7.71713 2.33155 7.78999 2.26482 7.87689C2.19809 7.96379 2.14919 8.06301 2.12092 8.16887C2.09266 8.27473 2.08559 8.38512 2.10012 8.49372C2.11465 8.60232 2.1505 8.70697 2.2056 8.80167L3.1256 10.3917L2.2056 11.9817C2.09559 12.1731 2.06574 12.4004 2.12256 12.6137C2.17939 12.8271 2.31827 13.0094 2.50893 13.1208L4.1006 14.0408V15.8733C4.1006 16.0943 4.1884 16.3063 4.34468 16.4626C4.50096 16.6189 4.71292 16.7067 4.93393 16.7067H6.76727L7.68727 18.2983C7.76104 18.4245 7.86638 18.5292 7.99291 18.6022C8.11945 18.6753 8.26282 18.7142 8.40893 18.715C8.55393 18.715 8.6981 18.6767 8.82643 18.6025L10.4164 17.6825L12.0081 18.6025C12.1994 18.7129 12.4268 18.7428 12.6402 18.6858C12.8536 18.6288 13.0356 18.4894 13.1464 18.2983L14.0656 16.7067H15.8981C16.1191 16.7067 16.3311 16.6189 16.4874 16.4626C16.6436 16.3063 16.7314 16.0943 16.7314 15.8733V14.0408L18.3231 13.1208C18.4179 13.066 18.501 12.9931 18.5676 12.9062C18.6342 12.8193 18.683 12.7201 18.7113 12.6143C18.7395 12.5085 18.7466 12.3982 18.7322 12.2896C18.7178 12.1811 18.6821 12.0764 18.6273 11.9817L17.7081 10.3917ZM8.3331 6.21667C8.66473 6.21678 8.98273 6.34863 9.21715 6.5832C9.45157 6.81778 9.58321 7.13587 9.5831 7.4675C9.58299 7.79913 9.45114 8.11714 9.21657 8.35156C8.98199 8.58598 8.6639 8.71761 8.33227 8.7175C8.00063 8.71739 7.68263 8.58555 7.44821 8.35097C7.21379 8.11639 7.08215 7.7983 7.08227 7.46667C7.08238 7.13504 7.21422 6.81703 7.4488 6.58261C7.68337 6.34819 8.00147 6.21656 8.3331 6.21667ZM8.5831 14.2167L7.24977 13.2175L12.2498 6.55084L13.5831 7.55L8.5831 14.2167ZM12.4998 14.55C12.3356 14.5499 12.173 14.5176 12.0213 14.4547C11.8696 14.3918 11.7318 14.2996 11.6157 14.1835C11.4996 14.0673 11.4076 13.9294 11.3448 13.7777C11.282 13.626 11.2497 13.4634 11.2498 13.2992C11.2498 13.135 11.2822 12.9724 11.3451 12.8207C11.408 12.669 11.5001 12.5312 11.6163 12.4151C11.7324 12.299 11.8703 12.207 12.0221 12.1442C12.1738 12.0814 12.3364 12.0491 12.5006 12.0492C12.8322 12.0493 13.1502 12.1811 13.3847 12.4157C13.6191 12.6503 13.7507 12.9684 13.7506 13.3C13.7505 13.6316 13.6186 13.9496 13.3841 14.1841C13.1495 14.4185 12.8314 14.5501 12.4998 14.55Z" fill="white"/>
</svg>
