<svg width="21" height="17" viewBox="0 0 21 17" fill="none" xmlns="http://www.w3.org/2000/svg">
<path d="M8.5 13.4663H17.5V7.46631H8.5V13.4663ZM2.5 16.4663C1.95 16.4663 1.47933 16.2706 1.088 15.8793C0.696667 15.488 0.500667 15.017 0.5 14.4663V2.46631C0.5 1.91631 0.696 1.44564 1.088 1.05431C1.48 0.662975 1.95067 0.466975 2.5 0.466309H18.5C19.05 0.466309 19.521 0.662308 19.913 1.05431C20.305 1.44631 20.5007 1.91698 20.5 2.46631V14.4663C20.5 15.0163 20.3043 15.4873 19.913 15.8793C19.5217 16.2713 19.0507 16.467 18.5 16.4663H2.5ZM2.5 14.4663H18.5V2.46631H2.5V14.4663Z" fill="black"/>
</svg>
