<svg width="29" height="29" viewBox="0 0 29 29" fill="none" xmlns="http://www.w3.org/2000/svg">
<path fill-rule="evenodd" clip-rule="evenodd" d="M17.5737 9.03421C17.5725 10.4436 16.4291 11.5853 15.0198 11.5845C13.6104 11.5836 12.4683 10.4406 12.4688 9.03122C12.4692 7.62182 13.6118 6.47949 15.0212 6.47949C15.6985 6.47979 16.3479 6.74911 16.8266 7.22821C17.3052 7.70731 17.5739 8.35696 17.5737 9.03421Z" stroke="#CFDDF8" stroke-width="1.5" stroke-linecap="round" stroke-linejoin="round"/>
<path fill-rule="evenodd" clip-rule="evenodd" d="M17.6559 15.3467H12.3919C10.5528 15.4045 9.0918 16.912 9.0918 18.752C9.0918 20.5921 10.5528 22.0996 12.3919 22.1574H17.6559C19.4949 22.0996 20.9559 20.5921 20.9559 18.752C20.9559 16.912 19.4949 15.4045 17.6559 15.3467Z" stroke="#CFDDF8" stroke-width="1.5" stroke-linecap="round" stroke-linejoin="round"/>
<path fill-rule="evenodd" clip-rule="evenodd" d="M24.0293 10.9875C24.0286 12.0655 23.1544 12.9389 22.0764 12.9385C20.9984 12.9381 20.1248 12.064 20.125 10.986C20.1252 9.90796 20.9992 9.03418 22.0772 9.03418C22.595 9.03418 23.0918 9.24 23.4579 9.60635C23.824 9.9727 24.0295 10.4695 24.0293 10.9875Z" stroke="#CFDDF8" stroke-width="1.5" stroke-linecap="round" stroke-linejoin="round"/>
<path fill-rule="evenodd" clip-rule="evenodd" d="M5.71289 10.9863C5.71289 12.0645 6.58691 12.9385 7.66505 12.9385C8.7432 12.9385 9.61721 12.0645 9.61721 10.9863C9.61721 9.90818 8.7432 9.03418 7.66505 9.03418C6.58691 9.03418 5.71289 9.90818 5.71289 10.9863Z" stroke="#CFDDF8" stroke-width="1.5" stroke-linecap="round" stroke-linejoin="round"/>
<path d="M22.629 15.2607C22.1651 15.2607 21.789 15.6368 21.789 16.1007C21.789 16.5646 22.1651 16.9407 22.629 16.9407V15.2607ZM24.0928 16.1007L24.1102 15.261C24.1044 15.2607 24.0986 15.2607 24.0928 15.2607V16.1007ZM24.0928 21.3099V22.1499C24.0986 22.1499 24.1044 22.1498 24.1102 22.1496L24.0928 21.3099ZM22.629 20.4699C22.1651 20.4699 21.789 20.846 21.789 21.3099C21.789 21.7738 22.1651 22.1499 22.629 22.1499V20.4699ZM7.11471 16.9407C7.57863 16.9407 7.95471 16.5646 7.95471 16.1007C7.95471 15.6368 7.57863 15.2607 7.11471 15.2607V16.9407ZM5.65087 16.1007V15.2607C5.64507 15.2607 5.63926 15.2607 5.63345 15.261L5.65087 16.1007ZM5.65087 21.3099L5.63345 22.1496C5.63926 22.1498 5.64507 22.1499 5.65087 22.1499V21.3099ZM7.11471 22.1499C7.57863 22.1499 7.95471 21.7738 7.95471 21.3099C7.95471 20.846 7.57863 20.4699 7.11471 20.4699V22.1499ZM22.629 16.9407H24.0928V15.2607H22.629V16.9407ZM24.0753 16.9405C25.0358 16.9605 25.8038 17.7447 25.8038 18.7053H27.4838C27.4838 16.8304 25.9846 15.2998 24.1102 15.261L24.0753 16.9405ZM25.8038 18.7053C25.8038 19.6659 25.0358 20.4502 24.0753 20.4701L24.1102 22.1496C25.9846 22.1108 27.4838 20.5802 27.4838 18.7053H25.8038ZM24.0928 20.4699H22.629V22.1499H24.0928V20.4699ZM7.11471 15.2607H5.65087V16.9407H7.11471V15.2607ZM5.63345 15.261C3.75901 15.2998 2.25977 16.8304 2.25977 18.7053H3.93977C3.93977 17.7447 4.70791 16.9605 5.66828 16.9405L5.63345 15.261ZM2.25977 18.7053C2.25977 20.5802 3.75901 22.1108 5.63345 22.1496L5.66828 20.4701C4.70791 20.4502 3.93977 19.6659 3.93977 18.7053H2.25977ZM5.65087 22.1499H7.11471V20.4699H5.65087V22.1499Z" fill="#CFDDF8"/>
</svg>
