<svg width="61" height="61" viewBox="0 0 61 61" fill="none" xmlns="http://www.w3.org/2000/svg">
<path fill-rule="evenodd" clip-rule="evenodd" d="M23.7862 4.911C23.0987 5.06976 20.6712 5.63288 18.3912 6.16225L14.2462 7.12538L14.9025 9.26351C15.6656 11.7498 15.2456 11.6704 21.0893 10.436C29.9218 8.57038 39.78 9.30163 42.7193 12.0404C44.5837 13.7773 44.4787 14.4673 41.7575 18.3629C36.6168 25.7204 39.8825 32.6516 48.4893 32.6516C50.7412 32.6516 56.5987 31.5248 56.5987 31.091C56.5987 31.0023 56.1762 29.9179 55.6593 28.6816C54.7993 26.6229 54.5856 26.4848 53.1187 27.0429C50.3206 28.1066 45.67 27.7929 44.4625 26.4585C43.2637 25.1335 43.5962 24.2091 46.9225 19.6129C52.7393 11.576 46.2062 4.93976 32.2725 4.73038C28.2925 4.67101 24.4737 4.75225 23.7862 4.911ZM7.21997 14.8435C5.99622 16.3179 6.72059 24.8885 8.33309 28.0235C10.1368 31.5291 13.605 34.4329 16.5506 34.9041C17.9937 35.1348 19.185 35.7466 19.5031 36.421C19.7962 37.0423 25.2393 42.0923 31.5987 47.6429L43.1612 57.7348L46.235 57.4623C49.8356 57.1435 50.9737 55.9779 50.9737 52.611C50.9737 50.5285 49.9781 49.1648 40.5543 38.3404C34.3818 31.2504 29.5412 26.2229 28.6793 26.0066C27.8787 25.8054 27.2225 25.1791 27.2212 24.6154C27.2125 20.7848 22.9087 17.5516 16.9806 16.9223C13.6418 16.5679 12.2781 16.1329 11.4987 15.176C10.2743 13.6723 8.31809 13.5204 7.21997 14.8435ZM11.5987 22.2691C11.5987 25.9804 15.3956 30.1516 18.7737 30.1516C22.6806 30.1516 24.0668 25.7635 21.0287 23.0141C19.3262 21.4729 11.5987 20.8623 11.5987 22.2691ZM25.7281 32.5816L23.9387 34.4491L25.7375 36.0304C27.9481 37.9741 27.9537 37.9741 29.5731 36.2454L30.8906 34.8391L29.2037 32.7766L27.5175 30.7141L25.7281 32.5816ZM32.6462 40.0298C31.6831 41.0941 31.9681 41.4579 37.6643 46.436C48.3712 55.7935 49.1506 55.6385 40.6368 45.8441C34.105 38.331 34.1525 38.3654 32.6462 40.0298Z" fill="black"/>
</svg>
