<svg width="12" height="11" viewBox="0 0 12 11" fill="none" xmlns="http://www.w3.org/2000/svg">
<path d="M10.4925 4.54093C10.7242 4.54176 10.9462 4.63419 11.1101 4.79805C11.274 4.96192 11.3664 5.18393 11.3672 5.41567V5.94777C11.3664 6.17951 11.274 6.40152 11.1101 6.56538C10.9462 6.72925 10.7242 6.82168 10.4925 6.82251H10.082C9.90247 7.37249 9.59574 7.87235 9.18669 8.28146C9.12458 8.34303 9.06063 8.40251 8.99484 8.45988V10.012C8.99464 10.1114 8.95506 10.2066 8.88478 10.2769C8.8145 10.3472 8.71924 10.3868 8.61984 10.387H7.468C7.36861 10.3868 7.27335 10.3472 7.20307 10.2769C7.13279 10.2066 7.09321 10.1114 7.093 10.012V9.32277C6.92558 9.34593 6.75676 9.35754 6.58774 9.35751H5.04511C4.87583 9.35758 4.70674 9.34597 4.53905 9.32277V10.012C4.53885 10.1114 4.49927 10.2066 4.42899 10.2769C4.35871 10.3472 4.26345 10.3868 4.16406 10.387H3.01221C2.91282 10.3868 2.81756 10.3472 2.74728 10.2769C2.677 10.2066 2.63742 10.1114 2.63721 10.012V8.45988C2.57142 8.40251 2.50748 8.34303 2.44537 8.28146C1.93026 7.76617 1.5799 7.10942 1.43879 6.39461C1.25552 6.38599 1.08262 6.30711 0.955971 6.17436C0.829325 6.04161 0.758667 5.86519 0.758667 5.68172C0.758667 5.49825 0.829325 5.32182 0.955971 5.18908C1.08262 5.05633 1.25552 4.97745 1.43879 4.96882C1.60372 4.13364 2.05342 3.38159 2.71114 2.84107C3.36885 2.30056 4.19379 2.0051 5.04511 2.00514H6.58774C6.83677 2.00521 7.08516 2.0306 7.32905 2.08093L9.33827 0.911719C9.37043 0.893064 9.40717 0.883759 9.44434 0.884852C9.48151 0.885945 9.51764 0.897392 9.54865 0.917906C9.57967 0.938419 9.60434 0.967183 9.61989 1.00096C9.63545 1.03474 9.64126 1.07218 9.63669 1.10909C9.63374 1.13307 9.62653 1.15634 9.61537 1.17777C9.29974 1.78069 9.17058 2.46387 9.24432 3.1404C9.62492 3.5386 9.91118 4.01723 10.082 4.54093H10.4925ZM7.27537 3.02356C7.27537 2.9241 7.23586 2.82872 7.16554 2.7584C7.09521 2.68807 6.99983 2.64856 6.90037 2.64856H4.86511C4.76565 2.64856 4.67027 2.68807 4.59994 2.7584C4.52962 2.82872 4.49011 2.9241 4.49011 3.02356C4.49011 3.12302 4.52962 3.2184 4.59994 3.28873C4.67027 3.35905 4.76565 3.39856 4.86511 3.39856H6.90037C6.99983 3.39856 7.09521 3.35905 7.16554 3.28873C7.23586 3.2184 7.27537 3.12302 7.27537 3.02356ZM7.07958 7.08225C7.0791 6.86436 6.99973 6.65403 6.85616 6.49014C6.76099 6.3813 6.64708 6.29039 6.51984 6.22172C6.40983 6.16454 6.29277 6.12207 6.17169 6.0954C6.06655 6.07334 5.95937 6.06249 5.85195 6.06303C5.78715 6.06316 5.72245 6.05788 5.65853 6.04725C5.5884 6.0355 5.52033 6.0137 5.45642 5.98251C5.39776 5.95264 5.34588 5.91098 5.30405 5.86014C5.26046 5.80874 5.23519 5.74431 5.23221 5.67698C5.23552 5.62217 5.25335 5.56923 5.28387 5.52359C5.31439 5.47794 5.35651 5.44124 5.4059 5.41725C5.54254 5.33712 5.69829 5.29539 5.85669 5.29646C5.91077 5.30041 5.9644 5.30913 6.01695 5.32251L6.0359 5.32725C6.10221 5.34306 6.16675 5.36554 6.22853 5.39435C6.28657 5.42062 6.33949 5.45698 6.38484 5.50172C6.41393 5.53075 6.44844 5.55376 6.48642 5.56946C6.52439 5.58515 6.56509 5.5932 6.60618 5.59317C6.64727 5.59313 6.68795 5.585 6.72589 5.56924C6.76384 5.55348 6.79832 5.53041 6.82734 5.50132C6.85637 5.47224 6.87939 5.43773 6.89508 5.39975C6.91077 5.36178 6.91883 5.32108 6.91879 5.27999C6.91876 5.2389 6.91063 5.19822 6.89487 5.16027C6.87911 5.12233 6.85603 5.08785 6.82695 5.05882C6.72792 4.96088 6.61214 4.88146 6.48511 4.82435C6.38389 4.77743 6.27805 4.74118 6.16932 4.71619L6.16063 4.71461V4.47777C6.16063 4.39486 6.1277 4.31534 6.06907 4.25671C6.01044 4.19808 5.93092 4.16514 5.848 4.16514C5.76509 4.16514 5.68557 4.19808 5.62694 4.25671C5.56831 4.31534 5.53537 4.39486 5.53537 4.47777V4.70514C5.37105 4.73878 5.21392 4.80105 5.07116 4.88909C4.93267 4.96954 4.81723 5.08428 4.73593 5.22227C4.65462 5.36026 4.61021 5.51686 4.60695 5.67698C4.60927 5.88791 4.68396 6.09164 4.81853 6.25409C4.91636 6.37413 5.03851 6.47207 5.17695 6.54146C5.29648 6.60103 5.42418 6.64253 5.5559 6.66461C5.65375 6.68072 5.75278 6.68864 5.85195 6.6883C5.91478 6.68773 5.9775 6.69382 6.03905 6.70646C6.10495 6.72095 6.16865 6.74404 6.22853 6.77514C6.28805 6.80783 6.34147 6.85056 6.38642 6.90146C6.42976 6.95177 6.45382 7.01584 6.45432 7.08225C6.45432 7.12251 6.45432 7.21646 6.29642 7.31909C6.15713 7.4034 5.9974 7.4479 5.83458 7.44777C5.76725 7.4443 5.70024 7.43612 5.63406 7.4233C5.56983 7.40962 5.50715 7.38952 5.44695 7.3633C5.38969 7.33792 5.33934 7.29921 5.30011 7.2504C5.24548 7.1891 5.16893 7.15175 5.08699 7.14642C5.00506 7.1411 4.92431 7.16821 4.86221 7.22192C4.8001 7.27563 4.76162 7.35162 4.75507 7.43347C4.74852 7.51531 4.77443 7.59645 4.82721 7.65935C4.93138 7.78387 5.06409 7.88138 5.21406 7.94356C5.31456 7.98627 5.41938 8.01804 5.52669 8.0383L5.53458 8.04067V8.27356C5.53458 8.35658 5.56756 8.4362 5.62626 8.4949C5.68497 8.55361 5.76459 8.58659 5.84761 8.58659C5.93063 8.58659 6.01025 8.55361 6.06895 8.4949C6.12765 8.4362 6.16063 8.35658 6.16063 8.27356V8.03672C6.32929 8.00141 6.49025 7.93617 6.6359 7.84409C6.76977 7.76671 6.88112 7.65572 6.95894 7.5221C7.03676 7.38849 7.07834 7.23687 7.07958 7.08225Z" fill="#01a809"/>
</svg>
