<svg width="12" height="12" viewBox="0 0 12 12" fill="none" xmlns="http://www.w3.org/2000/svg">
<path d="M10.79 1.76308C10.4963 1.42968 10.1386 1.1641 9.74025 0.98348C9.34186 0.80286 8.91153 0.711208 8.47702 0.714438C7.8178 0.711318 7.17711 0.941544 6.66002 1.36737C6.37992 1.59566 6.13273 1.86464 5.92602 2.16608C5.71934 1.86463 5.47215 1.59564 5.19202 1.36737C4.67494 0.941544 4.03425 0.711318 3.37502 0.714438C2.94069 0.711354 2.51055 0.803076 2.11234 0.983691C1.71413 1.16431 1.35668 1.42981 1.06302 1.76308C0.457782 2.4688 0.130022 3.38604 0.145024 4.3321C0.171404 5.42279 0.579273 6.46593 1.29202 7.26559C2.17474 8.27953 3.13451 9.2177 4.16202 10.071C4.56202 10.424 5.01102 10.8239 5.47902 11.2498C5.60278 11.3625 5.76161 11.4246 5.92602 11.4246C6.09044 11.4246 6.24927 11.3625 6.37302 11.2498C6.84102 10.8239 7.29202 10.423 7.69002 10.07C8.71757 9.21671 9.67735 8.27853 10.56 7.26455C11.2728 6.46489 11.6806 5.42175 11.707 4.33106C11.7227 3.38476 11.3952 2.46709 10.79 1.761V1.76308Z" fill="#FF6079"/>
</svg>
