<svg width="9" height="10" viewBox="0 0 9 10" fill="none" xmlns="http://www.w3.org/2000/svg">
<path d="M6.81313 7.19016L6.81251 9.37286C6.81251 9.62459 6.55084 9.79094 6.32289 9.68412L4.52076 8.83962L2.71958 9.6841C2.49163 9.79097 2.22991 9.62462 2.22991 9.37286L2.23004 7.19159C2.88527 7.62985 3.67305 7.88542 4.52052 7.88542C5.36891 7.88542 6.15748 7.6293 6.81313 7.19016ZM4.52052 0.09375C6.54556 0.09375 8.18718 1.73537 8.18718 3.76042C8.18718 5.78546 6.54556 7.42708 4.52052 7.42708C2.49547 7.42708 0.853851 5.78546 0.853851 3.76042C0.853851 1.73537 2.49547 0.09375 4.52052 0.09375ZM4.43272 2.19572L4.41566 2.22149L3.99742 3.07062L3.0606 3.206C2.97529 3.21832 2.93553 3.31289 2.97656 3.38126L2.9958 3.40545L3.67413 4.06562L3.51338 4.99842C3.49874 5.08336 3.5764 5.1504 3.65409 5.13251L3.68305 5.12169L4.52052 4.68056L5.35799 5.12169C5.43421 5.16184 5.52194 5.10877 5.52899 5.02938L5.52767 4.99851L5.36771 4.06562L6.04529 3.4054C6.107 3.34527 6.08356 3.24544 6.01021 3.21426L5.98043 3.206L5.04362 3.07062L4.62538 2.22149C4.59205 2.15383 4.50962 2.1388 4.45447 2.17639L4.43272 2.19572Z" fill="white"/>
</svg>
