<svg width="21" height="19" viewBox="0 0 21 19" fill="none" xmlns="http://www.w3.org/2000/svg">
<path d="M19.9441 2.35871H8.0285C7.70091 1.39301 6.78063 0.695312 5.6986 0.695312C4.61658 0.695312 3.69629 1.39301 3.3687 2.35871H1.50878C1.07672 2.35871 0.72644 2.70637 0.72644 3.1352C0.72644 3.56403 1.07672 3.91169 1.50878 3.91169H3.36875C3.69634 4.87738 4.61663 5.57508 5.69865 5.57508C6.78068 5.57508 7.70096 4.87738 8.02855 3.91169H19.9441C20.3762 3.91169 20.7264 3.56403 20.7264 3.1352C20.7264 2.70637 20.3762 2.35871 19.9441 2.35871ZM5.6986 4.0221C5.20589 4.0221 4.80502 3.62423 4.80502 3.1352C4.80502 2.64616 5.20589 2.24829 5.6986 2.24829C6.19132 2.24829 6.59219 2.64616 6.59219 3.1352C6.59219 3.62423 6.19132 4.0221 5.6986 4.0221Z" fill="white"/>
<path d="M19.9441 9.01203H18.0841C17.7565 8.04633 16.8361 7.34863 15.7542 7.34863C14.6722 7.34863 13.7519 8.04633 13.4243 9.01203H1.50878C1.07672 9.01203 0.72644 9.35969 0.72644 9.78852C0.72644 10.2173 1.07672 10.565 1.50878 10.565H13.4243C13.7519 11.5307 14.6723 12.2284 15.7542 12.2284C16.8362 12.2284 17.7565 11.5307 18.0841 10.565H19.9441C20.3762 10.565 20.7264 10.2173 20.7264 9.78852C20.7264 9.35969 20.3762 9.01203 19.9441 9.01203ZM15.7542 10.6754C15.2615 10.6754 14.8606 10.2776 14.8606 9.78852C14.8606 9.29948 15.2615 8.90161 15.7542 8.90161C16.2469 8.90161 16.6478 9.29948 16.6478 9.78852C16.6478 10.2776 16.2469 10.6754 15.7542 10.6754Z" fill="white"/>
<path d="M19.9441 15.6663H11.3804C11.0528 14.7006 10.1325 14.0029 9.05049 14.0029C7.96847 14.0029 7.04818 14.7006 6.72059 15.6663H1.50878C1.07672 15.6663 0.72644 16.014 0.72644 16.4428C0.72644 16.8716 1.07672 17.2193 1.50878 17.2193H6.72059C7.04818 18.185 7.96847 18.8827 9.05049 18.8827C10.1325 18.8827 11.0528 18.185 11.3804 17.2193H19.9441C20.3762 17.2193 20.7264 16.8716 20.7264 16.4428C20.7264 16.014 20.3762 15.6663 19.9441 15.6663ZM9.05049 17.3298C8.55778 17.3298 8.15691 16.9319 8.15691 16.4429C8.15691 15.9538 8.55778 15.556 9.05049 15.556C9.54321 15.556 9.94408 15.9538 9.94408 16.4428C9.94408 16.9318 9.54321 17.3298 9.05049 17.3298Z" fill="white"/>
</svg>
