<svg width="21" height="21" viewBox="0 0 21 21" fill="none" xmlns="http://www.w3.org/2000/svg">
<g clip-path="url(#clip0_1809_3457)">
<path d="M15.0543 8.18893V5.6308C15.0543 4.40834 14.1972 3.30658 12.6409 2.52849C11.2683 1.8422 9.46189 1.46423 7.55447 1.46423C5.64689 1.46423 3.84044 1.8422 2.46786 2.52849C0.91172 3.30654 0.0546875 4.40834 0.0546875 5.63076V8.96394V12.2971V15.6303C0.0546875 16.8528 0.91172 17.9546 2.46786 18.7326C3.8404 19.4189 5.64689 19.7969 7.55447 19.7969C9.00767 19.7969 10.393 19.58 11.5897 19.1689C12.3807 19.5703 13.2748 19.7969 14.2208 19.7969C17.4375 19.7969 20.0546 17.1798 20.0546 13.963C20.0547 11.0292 17.8777 8.59456 15.0543 8.18893Z" fill="#CC7400"/>
<path d="M8.44254 14.7654C8.40633 14.503 8.38715 14.2353 8.38715 13.9631C8.38715 13.6705 8.4091 13.383 8.45082 13.1019C8.15457 13.1206 7.85547 13.1306 7.55469 13.1306V14.7969C7.85309 14.7969 8.14969 14.7863 8.44254 14.7654Z" fill="#FFB655"/>
<path d="M14.2403 9.79651C14.2341 9.79667 14.228 9.79745 14.2217 9.79745C14.2154 9.79745 14.2093 9.79663 14.2032 9.79651C11.914 9.80663 10.0547 11.6716 10.0547 13.9632C10.0547 16.2609 11.924 18.1302 14.2217 18.1302C16.5194 18.1302 18.3888 16.2609 18.3888 13.9632C18.3887 11.6717 16.5294 9.80663 14.2403 9.79651Z" fill="#FFB655"/>
<path d="M9.91704 17.8971C9.51196 17.4543 9.1743 16.9489 8.92004 16.3975C8.4716 16.4413 8.01473 16.4638 7.55469 16.4638V18.1302C8.37016 18.1302 9.17438 18.0492 9.91704 17.8971Z" fill="#FFB655"/>
<path d="M8.99094 11.3807C9.35508 10.6462 9.8693 9.99877 10.4935 9.479C9.57739 9.68701 8.58106 9.79744 7.55469 9.79744V11.4638C8.04176 11.4638 8.52297 11.4358 8.99094 11.3807Z" fill="#FFB655"/>
<path d="M13.3877 5.63084C13.3877 4.45083 10.8931 3.1311 7.55469 3.1311V8.13061C10.8931 8.13061 13.3877 6.81084 13.3877 5.63084Z" fill="#FFB655"/>
<path d="M2.46707 12.0663C2.19676 11.9311 1.94801 11.786 1.7207 11.6323V12.2971C1.7207 13.4771 4.21516 14.7969 7.55361 14.7969V13.1305C5.64606 13.1306 3.83965 12.7526 2.46707 12.0663Z" fill="#EE8700"/>
<path d="M2.46707 15.3995C2.19676 15.2643 1.94801 15.1192 1.7207 14.9656V15.6303C1.7207 16.8103 4.21516 18.1301 7.55361 18.1301V16.4637C5.64606 16.4638 3.83961 16.0858 2.46707 15.3995Z" fill="#EE8700"/>
<path d="M2.46707 8.73326C2.19676 8.59807 1.94801 8.45295 1.7207 8.29932V8.96412C1.7207 10.1441 4.21516 11.4639 7.55361 11.4639V9.79752C5.64606 9.79748 3.83965 9.41955 2.46707 8.73326Z" fill="#EE8700"/>
<path d="M1.7207 5.63084C1.7207 6.81084 4.21516 8.13057 7.5536 8.13057V3.1311C4.21516 3.1311 1.7207 4.45083 1.7207 5.63084Z" fill="#EE8700"/>
</g>
<defs>
<clipPath id="clip0_1809_3457">
<rect width="20" height="20" fill="white" transform="translate(0.0546875 0.630615)"/>
</clipPath>
</defs>
</svg>
