<svg width="31" height="31" viewBox="0 0 31 31" fill="none" xmlns="http://www.w3.org/2000/svg">
<path d="M5.76562 23.3396C5.76562 22.0135 6.29241 20.7417 7.23009 19.8041C8.16777 18.8664 9.43954 18.3396 10.7656 18.3396H20.7656C22.0917 18.3396 23.3635 18.8664 24.3012 19.8041C25.2388 20.7417 25.7656 22.0135 25.7656 23.3396C25.7656 24.0026 25.5022 24.6385 25.0334 25.1074C24.5646 25.5762 23.9287 25.8396 23.2656 25.8396H8.26562C7.60258 25.8396 6.9667 25.5762 6.49786 25.1074C6.02902 24.6385 5.76563 24.0026 5.76562 23.3396Z" stroke="white" stroke-opacity="0.5" stroke-width="2" stroke-linejoin="round"/>
<path d="M15.7656 13.3396C17.8367 13.3396 19.5156 11.6607 19.5156 9.5896C19.5156 7.51853 17.8367 5.8396 15.7656 5.8396C13.6946 5.8396 12.0156 7.51853 12.0156 9.5896C12.0156 11.6607 13.6946 13.3396 15.7656 13.3396Z" stroke="white" stroke-opacity="0.5" stroke-width="2"/>
</svg>
