<svg width="14" height="11" viewBox="0 0 14 11" fill="none" xmlns="http://www.w3.org/2000/svg">
<path d="M13.4134 0.754148C13.4132 0.743502 13.4126 0.732857 13.4118 0.722251C13.4111 0.712766 13.4105 0.703281 13.4094 0.693956C13.4082 0.684391 13.4066 0.674906 13.405 0.665421C13.4033 0.655336 13.4017 0.645251 13.3995 0.635325C13.3975 0.626521 13.3951 0.617876 13.3928 0.609152C13.3901 0.599026 13.3874 0.588861 13.3842 0.578976C13.3813 0.570251 13.378 0.561687 13.3747 0.553082C13.3711 0.543637 13.3677 0.534152 13.3636 0.524947C13.3597 0.515942 13.3552 0.507178 13.3508 0.498333C13.3466 0.489889 13.3425 0.481364 13.3379 0.47316C13.333 0.464235 13.3275 0.455631 13.322 0.446906C13.3171 0.439062 13.3123 0.431178 13.307 0.423574C13.3013 0.415409 13.2952 0.407565 13.2891 0.399641C13.2831 0.391797 13.2771 0.383993 13.2707 0.376509C13.2647 0.369465 13.2583 0.362701 13.2519 0.355898C13.2445 0.347974 13.2371 0.34017 13.2292 0.332606C13.2266 0.330084 13.2243 0.327283 13.2216 0.324801C13.2177 0.321159 13.2134 0.318118 13.2094 0.314636C13.2012 0.307392 13.1929 0.300389 13.1843 0.293585C13.177 0.287822 13.1695 0.282299 13.162 0.276936C13.1537 0.271013 13.1453 0.26529 13.1368 0.259807C13.1285 0.254524 13.1202 0.249482 13.1118 0.244639C13.1033 0.239797 13.0948 0.235234 13.0862 0.230792C13.0773 0.226269 13.0684 0.221947 13.0594 0.217945C13.0506 0.213983 13.0417 0.210301 13.0327 0.206779C13.0235 0.203177 13.0143 0.199775 13.005 0.196654C12.9959 0.193572 12.9866 0.190771 12.9772 0.188089C12.9677 0.185408 12.9581 0.182927 12.9485 0.180725C12.9392 0.178564 12.9298 0.176683 12.9203 0.174962C12.9102 0.173121 12.9 0.171601 12.8898 0.17028C12.8807 0.169119 12.8716 0.168159 12.8625 0.167398C12.8515 0.166518 12.8405 0.165998 12.8295 0.165717C12.8241 0.165597 12.819 0.164917 12.8137 0.164917H10.4124C10.0809 0.164917 9.81208 0.433699 9.81208 0.765234C9.81208 1.09677 10.0809 1.36555 10.4124 1.36555H11.4397L7.79442 5.30247L6.23447 3.74253C6.11913 3.62715 5.96217 3.56451 5.7986 3.56679C5.63548 3.56991 5.48064 3.63927 5.3697 3.75893L0.367055 9.1565C0.141696 9.39967 0.156104 9.77947 0.399272 10.0049C0.514813 10.112 0.661171 10.1649 0.807208 10.1649C0.968493 10.1649 1.12934 10.1003 1.24764 9.9727L5.82642 5.03245L7.38656 6.59259C7.50198 6.70801 7.66059 6.77201 7.82259 6.76832C7.9858 6.7652 8.14068 6.69573 8.25154 6.57598L12.2134 2.29716V3.1665C12.2134 3.49804 12.4821 3.76682 12.8137 3.76682C13.1452 3.76682 13.414 3.49804 13.414 3.1665V0.765234C13.414 0.761472 13.4135 0.75787 13.4134 0.754148Z" fill="white"/>
</svg>
