<svg width="31" height="31" viewBox="0 0 31 31" fill="none" xmlns="http://www.w3.org/2000/svg">
<g clip-path="url(#clip0_363_4240)">
<path d="M15.0244 20.9841C13.9119 20.9841 12.8244 20.6542 11.8993 20.0361C10.9743 19.4181 10.2533 18.5396 9.82759 17.5117C9.40185 16.4839 9.29046 15.3529 9.5075 14.2618C9.72454 13.1706 10.2603 12.1683 11.0469 11.3817C11.8336 10.595 12.8359 10.0593 13.927 9.84222C15.0182 9.62517 16.1492 9.73657 17.177 10.1623C18.2048 10.5881 19.0833 11.309 19.7014 12.2341C20.3195 13.1591 20.6494 14.2466 20.6494 15.3591C20.6478 16.8505 20.0546 18.2802 19.0001 19.3348C17.9455 20.3893 16.5157 20.9825 15.0244 20.9841ZM15.0244 11.6091C14.2827 11.6091 13.5577 11.8291 12.941 12.2411C12.3243 12.6532 11.8437 13.2388 11.5599 13.9241C11.276 14.6093 11.2018 15.3633 11.3465 16.0907C11.4912 16.8182 11.8483 17.4863 12.3728 18.0108C12.8972 18.5352 13.5654 18.8924 14.2928 19.0371C15.0203 19.1818 15.7743 19.1075 16.4595 18.8237C17.1447 18.5399 17.7304 18.0592 18.1424 17.4425C18.5545 16.8258 18.7744 16.1008 18.7744 15.3591C18.7733 14.3649 18.3779 13.4117 17.6748 12.7087C16.9718 12.0057 16.0186 11.6102 15.0244 11.6091Z" fill="black"/>
<path d="M15.0244 24.7341C13.7056 24.7332 12.4019 24.4545 11.198 23.9162C9.9941 23.378 8.9171 22.5921 8.03711 21.6099L9.43398 20.3593C10.268 21.2917 11.3221 22.0007 12.5001 22.4217C13.6782 22.8427 14.9428 22.9623 16.1789 22.7697C17.415 22.577 18.5833 22.0782 19.5774 21.3187C20.5715 20.5592 21.3598 19.5631 21.8705 18.4211C22.3813 17.2791 22.5982 16.0274 22.5016 14.7801C22.4051 13.5328 21.998 12.3295 21.3175 11.2797C20.6371 10.23 19.7048 9.36706 18.6057 8.76963C17.5065 8.17219 16.2754 7.85919 15.0244 7.85913V5.98413C17.5108 5.98413 19.8954 6.97185 21.6535 8.73C23.4117 10.4882 24.3994 12.8727 24.3994 15.3591C24.3994 17.8455 23.4117 20.2301 21.6535 21.9883C19.8954 23.7464 17.5108 24.7341 15.0244 24.7341Z" fill="black"/>
<path d="M15.0244 28.4841C12.4285 28.4841 9.89096 27.7144 7.73256 26.2722C5.57417 24.83 3.8919 22.7801 2.8985 20.3819C1.9051 17.9836 1.64518 15.3446 2.15161 12.7986C2.65804 10.2526 3.90808 7.91392 5.74364 6.07836C7.57921 4.2428 9.91786 2.99276 12.4639 2.48633C15.0099 1.9799 17.6489 2.23982 20.0471 3.23322C22.4454 4.22662 24.4953 5.90888 25.9375 8.06728C27.3797 10.2257 28.1494 12.7633 28.1494 15.3591C28.1455 18.8389 26.7614 22.175 24.3009 24.6356C21.8403 27.0961 18.5042 28.4802 15.0244 28.4841ZM15.0244 4.10914C12.7994 4.10914 10.6243 4.76894 8.77426 6.0051C6.9242 7.24127 5.48226 8.99828 4.63078 11.0539C3.77929 13.1096 3.5565 15.3716 3.99059 17.5539C4.42467 19.7362 5.49613 21.7407 7.06947 23.3141C8.64281 24.8874 10.6474 25.9589 12.8297 26.393C15.0119 26.8271 17.2739 26.6043 19.3296 25.7528C21.3853 24.9013 23.1423 23.4594 24.3785 21.6093C25.6146 19.7592 26.2744 17.5842 26.2744 15.3591C26.271 12.3765 25.0847 9.51699 22.9756 7.40794C20.8666 5.29889 18.0071 4.11254 15.0244 4.10914Z" fill="black"/>
</g>
<defs>
<clipPath id="clip0_363_4240">
<rect width="30" height="30" fill="white" transform="translate(0.0244141 0.359131)"/>
</clipPath>
</defs>
</svg>
