<svg width="26" height="26" viewBox="0 0 26 26" fill="none" xmlns="http://www.w3.org/2000/svg">
<path d="M13.0771 24.3271C19.4284 24.3271 24.5771 19.1784 24.5771 12.8271C24.5771 6.47587 19.4284 1.32715 13.0771 1.32715C6.72587 1.32715 1.57715 6.47587 1.57715 12.8271C1.57715 19.1784 6.72587 24.3271 13.0771 24.3271Z" fill="white" stroke="#01a809" stroke-width="2" stroke-linecap="round" stroke-linejoin="round"/>
<path d="M13.0771 17.9385H13.0899V17.9516H13.0771V17.9385Z" fill="white" stroke="#01a809" stroke-width="3" stroke-linejoin="round"/>
<path d="M11.2705 7.18727C11.7688 6.68894 12.4205 6.43977 13.0722 6.43849C13.4087 6.43726 13.7421 6.50281 14.0531 6.63134C14.3642 6.75987 14.6466 6.94883 14.8841 7.18727C15.3824 7.6856 15.6328 8.33983 15.6328 8.99405C15.6335 9.32973 15.5676 9.66221 15.4391 9.97231C15.3106 10.2824 15.122 10.564 14.8841 10.8008C14.6465 11.0392 14.3641 11.228 14.0531 11.3566C13.7421 11.4851 13.4087 11.5507 13.0722 11.5496L13.0773 12.8274" fill="white"/>
<path d="M11.2705 7.18727C11.7688 6.68894 12.4205 6.43977 13.0722 6.43849C13.4087 6.43726 13.7421 6.50281 14.0531 6.63134C14.3642 6.75987 14.6466 6.94883 14.8841 7.18727C15.3824 7.6856 15.6328 8.33983 15.6328 8.99405C15.6335 9.32973 15.5676 9.66221 15.4391 9.97231C15.3106 10.2824 15.122 10.564 14.8841 10.8008C14.6465 11.0392 14.3641 11.228 14.0531 11.3566C13.7421 11.4851 13.4087 11.5507 13.0722 11.5496L13.0773 12.8274" stroke="#01a809" stroke-width="2" stroke-linecap="round" stroke-linejoin="round"/>
</svg>
