<svg width="39" height="39" viewBox="0 0 39 39" fill="none" xmlns="http://www.w3.org/2000/svg">
<g clip-path="url(#clip0_2226_1700)">
<path d="M19.3275 16.2033C22.8253 16.2033 25.6608 13.3678 25.6608 9.86995C25.6608 6.37215 22.8253 3.53662 19.3275 3.53662C15.8297 3.53662 12.9941 6.37215 12.9941 9.86995C12.9941 13.3678 15.8297 16.2033 19.3275 16.2033Z" fill="#509613"/>
<path d="M31.9954 28.0786C31.9954 32.0132 31.9954 35.2036 19.3288 35.2036C6.66211 35.2036 6.66211 32.0132 6.66211 28.0786C6.66211 24.144 12.3336 20.9536 19.3288 20.9536C26.3239 20.9536 31.9954 24.144 31.9954 28.0786Z" fill="#509613"/>
<path d="M42.6602 29.71C44.1684 30.5809 45.4231 31.8305 46.3 33.3353C47.1768 34.8401 47.6455 36.5478 47.6596 38.2893C47.6737 40.0309 47.2326 41.746 46.3802 43.2647C45.5277 44.7834 44.2934 46.0532 42.7994 46.9483C41.3054 47.8434 39.6035 48.3328 37.8623 48.3681C36.121 48.4033 34.4007 47.9832 32.8717 47.1493C31.3427 46.3153 30.058 45.0965 29.1448 43.6135C28.2316 42.1305 27.7216 40.4347 27.6652 38.694L27.6602 38.37L27.6652 38.046C27.7212 36.319 28.2237 34.636 29.1238 33.161C30.0239 31.686 31.2908 30.4695 32.801 29.6299C34.3113 28.7903 36.0133 28.3564 37.7412 28.3704C39.469 28.3845 41.1638 28.846 42.6602 29.71ZM37.6602 32.37C37.4152 32.37 37.1788 32.46 36.9958 32.6227C36.8127 32.7855 36.6958 33.0098 36.6672 33.253L36.6602 33.37V38.37L36.6692 38.501C36.692 38.6745 36.7599 38.839 36.8662 38.978L36.9532 39.078L39.9532 42.078L40.0472 42.16C40.2225 42.2961 40.4382 42.3699 40.6602 42.3699C40.8821 42.3699 41.0978 42.2961 41.2732 42.16L41.3672 42.077L41.4502 41.983C41.5862 41.8076 41.6601 41.592 41.6601 41.37C41.6601 41.148 41.5862 40.9324 41.4502 40.757L41.3672 40.663L38.6602 37.955V33.37L38.6532 33.253C38.6245 33.0098 38.5076 32.7855 38.3245 32.6227C38.1415 32.46 37.9051 32.37 37.6602 32.37Z" fill="black"/>
</g>
<path d="M31.75 23.5049C32.8812 24.1581 33.8222 25.0953 34.4799 26.2239C35.1375 27.3525 35.489 28.6332 35.4996 29.9394C35.5101 31.2456 35.1794 32.5319 34.54 33.6709C33.9007 34.81 32.9749 35.7623 31.8544 36.4337C30.7339 37.105 29.4575 37.472 28.1516 37.4985C26.8456 37.5249 25.5554 37.2098 24.4087 36.5844C23.2619 35.9589 22.2984 35.0448 21.6135 33.9326C20.9286 32.8203 20.5461 31.5485 20.5038 30.2429L20.5 29.9999L20.5038 29.7569C20.5458 28.4617 20.9227 27.1994 21.5977 26.0932C22.2728 24.9869 23.223 24.0745 24.3557 23.4448C25.4883 22.8152 26.7649 22.4897 28.0608 22.5002C29.3566 22.5108 30.6277 22.8569 31.75 23.5049ZM28 25.4999C27.8163 25.4999 27.639 25.5674 27.5017 25.6895C27.3644 25.8115 27.2767 25.9797 27.2552 26.1622L27.25 26.2499V29.9999L27.2568 30.0982C27.2739 30.2283 27.3248 30.3517 27.4045 30.4559L27.4698 30.5309L29.7198 32.7809L29.7902 32.8424C29.9218 32.9445 30.0835 32.9999 30.25 32.9999C30.4165 32.9999 30.5782 32.9445 30.7098 32.8424L30.7802 32.7802L30.8425 32.7097C30.9445 32.5781 30.9999 32.4164 30.9999 32.2499C30.9999 32.0834 30.9445 31.9217 30.8425 31.7902L30.7802 31.7197L28.75 29.6887V26.2499L28.7448 26.1622C28.7233 25.9797 28.6356 25.8115 28.4983 25.6895C28.361 25.5674 28.1837 25.4999 28 25.4999Z" fill="#01a809"/>
<defs>
<clipPath id="clip0_2226_1700">
<rect width="38" height="38" fill="white" transform="translate(0.328125 0.370117)"/>
</clipPath>
</defs>
</svg>
