<svg width="61" height="61" viewBox="0 0 61 61" fill="none" xmlns="http://www.w3.org/2000/svg">
<g clip-path="url(#clip0_3449_8991)">
<path d="M18.1086 20.5176L18.1085 25.7475C18.1085 26.6882 17.8406 27.4534 17.3335 27.9604C17.2059 28.088 17.0618 28.2003 16.9027 28.2971V20.5177H13.3382V28.2968C13.1793 28.2 13.0354 28.0878 12.9078 27.9603C12.4009 27.4533 12.1329 26.6882 12.133 25.7474V20.5179H8.56836V25.7473C8.56824 27.6541 9.1973 29.2909 10.3873 30.4809C11.187 31.2804 12.189 31.8252 13.3381 32.0977V47.7532H16.9026V32.0977C18.0521 31.8254 19.0543 31.2803 19.8539 30.481C21.0439 29.2911 21.673 27.6543 21.673 25.7475L21.6731 20.5178L18.1086 20.5176Z" fill="black"/>
<path d="M46.2947 19.9238C43.2018 19.9239 40.6855 22.4403 40.6855 25.5329V29.7146C40.6857 32.1845 42.291 34.285 44.5127 35.0316V47.7533H48.0771V35.0319C50.2987 34.2852 51.904 32.1846 51.9039 29.7148L51.904 25.5324C51.9036 22.4401 49.3873 19.9239 46.2947 19.9238ZM48.3395 29.7148C48.3395 30.8422 47.4224 31.7593 46.2951 31.7594C45.1675 31.7593 44.2503 30.8422 44.2503 29.7148V25.5331C44.2503 24.4058 45.1675 23.4887 46.2948 23.4886C47.4222 23.4887 48.3394 24.4059 48.3396 25.5329L48.3395 29.7148Z" fill="black"/>
<path d="M56.2257 4.12305L35.5572 9.12859C33.401 9.62242 31.8121 10.4607 30.708 11.6882C29.6037 10.4607 28.0152 9.62254 25.8588 9.12871L5.19031 4.12305L0.708008 11.7275V51.6244L27.4243 56.6188L27.5866 56.6493H33.8294L60.708 51.6245V11.7275L56.2257 4.12305ZM25.9694 52.7207L4.2725 48.6645V14.3598L25.9694 18.4161V52.7207ZM27.9168 15.1538L5.31629 10.9288L6.9193 8.20938L25.0312 12.5957L25.0542 12.6012C27.2825 13.1099 28.2796 13.9686 28.6834 15.1539L27.9168 15.1538ZM31.8818 53.0847H29.5339V18.7184H31.8818V53.0847ZM33.4991 15.1539H32.7327C33.1363 13.9684 34.1335 13.1098 36.3618 12.6011L54.4966 8.20926L56.0996 10.9287L33.4991 15.1539ZM57.1435 48.6645L35.4465 52.7207V18.4161L57.1435 14.3598V48.6645Z" fill="black"/>
</g>
<defs>
<clipPath id="clip0_3449_8991">
<rect width="60" height="60" fill="white" transform="translate(0.708008 0.386719)"/>
</clipPath>
</defs>
</svg>
