<svg width="38" height="37" viewBox="0 0 38 37" fill="none" xmlns="http://www.w3.org/2000/svg">
<path d="M10.4797 20.5675L2.28594 12.3928C-0.761979 9.32267 -0.761979 4.37633 2.28594 1.32683L16.0071 15.01L10.4797 20.5675ZM20.8521 19.9025L34.3263 33.345L31.5396 36.1L18.1129 22.6733L4.65144 36.1L1.89485 33.345L20.7729 14.4701L20.3771 14.0394C20.0152 13.679 19.728 13.2506 19.5321 12.779C19.3361 12.3073 19.2352 11.8015 19.2352 11.2908C19.2352 10.78 19.3361 10.2742 19.5321 9.80254C19.728 9.33085 20.0152 8.9025 20.3771 8.54208L28.8638 0L30.6688 1.79708L24.3513 8.16842L26.2196 10.0067L32.5371 3.65433L34.3579 5.453L28.0088 11.7863L29.8296 13.6689L36.2104 7.30867L37.9996 9.14692L29.4496 17.6225C27.9454 19.1425 25.4754 19.1425 23.9713 17.6225L23.5438 17.2267L20.8521 19.9025Z" fill="#01a809"/>
</svg>
