<svg width="375" height="308" viewBox="0 0 375 308" fill="none" xmlns="http://www.w3.org/2000/svg">
<g clip-path="url(#clip0_468_6946)">
<mask id="mask0_468_6946" style="mask-type:luminance" maskUnits="userSpaceOnUse" x="-162" y="0" width="605" height="308">
<path d="M443 0.242188H-162V307.242H443V0.242188Z" fill="white"/>
</mask>
<g mask="url(#mask0_468_6946)">
<mask id="mask1_468_6946" style="mask-type:luminance" maskUnits="userSpaceOnUse" x="-163" y="-3" width="607" height="301">
<path d="M-162.278 -2.95605H443.226V297.904H-162.278V-2.95605Z" fill="white"/>
</mask>
<g mask="url(#mask1_468_6946)">
<path d="M-149.681 241.34C-145.729 271.646 -23.5869 295.554 123.13 294.738C269.847 293.922 385.58 268.69 381.627 238.383C377.675 208.076 255.533 184.169 108.817 184.985C-37.9002 185.802 -153.634 211.033 -149.681 241.34Z" fill="#F8E8E1"/>
<path d="M371.311 254.935C371.311 254.935 357.316 248.146 349.664 247.742C347.393 247.622 345.056 247.681 342.795 247.737C339.215 247.827 335.512 247.921 331.876 247.32C321.903 245.674 313.846 239.2 306.054 232.938C300.88 228.782 295.531 224.483 289.664 221.625C282.085 217.932 273.492 216.58 265.182 215.272C256.829 213.958 248.192 212.599 240.415 208.881C236.149 206.842 232.199 204.116 228.38 201.479C223.869 198.364 219.205 195.144 214.099 193.146C209.391 191.304 204.255 190.481 199.288 189.685C196.319 189.21 193.249 188.719 190.266 188.014C184.427 186.633 174.039 182.953 170.08 173.828L171.925 173.004C175.531 181.313 185.251 184.726 190.724 186.02C193.636 186.709 196.669 187.194 199.602 187.664C204.673 188.476 209.916 189.316 214.825 191.237C220.147 193.319 224.909 196.607 229.514 199.787C233.269 202.379 237.152 205.059 241.275 207.03C248.789 210.621 257.28 211.958 265.491 213.25C273.946 214.58 282.689 215.956 290.537 219.78C296.607 222.737 302.046 227.107 307.306 231.334C315.245 237.713 322.745 243.739 332.199 245.3C335.649 245.869 339.257 245.779 342.745 245.691C345.045 245.634 347.422 245.574 349.769 245.698C358.03 246.134 373.057 253.652 373.057 253.652L371.311 254.935Z" fill="#D4A38E"/>
<path d="M344.372 267.735C344.372 267.735 317.681 260.817 306.41 261.652L305.256 261.739C300.421 262.107 295.421 262.488 290.581 261.358C285.904 260.267 281.695 257.838 277.624 255.489C276.93 255.088 276.236 254.687 275.541 254.294C265.873 248.824 255.551 244.577 244.861 241.673C241.874 240.861 238.399 240.014 234.945 240.225C233.203 240.332 231.505 240.698 229.707 241.087C227.931 241.47 226.094 241.867 224.218 241.987C223.781 242.015 223.347 242.028 222.918 242.028C213.975 242.029 206.71 236.102 199.672 230.362C194.978 226.534 190.124 222.575 184.782 220.336C177.601 217.325 169.441 217.426 161.554 217.526C153.087 217.63 144.33 217.741 136.541 214.081C132.833 212.339 129.5 209.801 126.276 207.346C121.654 203.827 117.288 200.502 111.956 199.37C108.496 198.633 104.983 198.909 101.264 199.201C99.7766 199.317 98.2389 199.438 96.7198 199.485C81.9826 199.954 55.9434 186.57 55.9434 186.57L59.6873 186.348C59.6873 186.348 83.4981 197.846 96.6578 197.439C98.1305 197.394 99.6445 197.275 101.109 197.16C104.805 196.87 108.628 196.57 112.369 197.366C118.139 198.592 122.891 202.21 127.487 205.709C130.627 208.1 133.873 210.572 137.388 212.224C144.763 215.689 153.286 215.581 161.528 215.479C169.622 215.378 177.989 215.274 185.552 218.444C191.162 220.796 196.13 224.848 200.935 228.766C208.336 234.804 215.332 240.497 224.09 239.944C225.819 239.834 227.504 239.47 229.288 239.085C231.079 238.698 232.931 238.299 234.823 238.182C238.579 237.947 242.243 238.842 245.383 239.696C256.233 242.644 266.71 246.954 276.523 252.506C277.223 252.903 277.922 253.306 278.622 253.71C282.565 255.986 286.644 258.34 291.033 259.364C295.574 260.423 300.419 260.054 305.105 259.698L306.263 259.611C318.34 258.716 346.952 266.976 346.952 266.976L344.372 267.735Z" fill="#D4A38E"/>
<path d="M283.977 282.352C283.977 282.352 263.335 275.047 252.615 275.772C249.31 275.997 245.925 276.507 242.652 276.999C235.767 278.037 228.647 279.11 221.679 277.642C216.412 276.533 211.569 274.032 206.886 271.613C202.482 269.338 197.927 266.986 193.121 265.875C186.941 264.447 180.379 265.07 174.033 265.674C167.621 266.282 160.99 266.913 154.576 265.493C146.232 263.647 139.082 258.541 132.167 253.605C125.037 248.514 117.665 243.25 109.177 241.837C105.686 241.256 102.018 241.342 98.4716 241.424C94.1101 241.526 89.5998 241.631 85.2489 240.529C80.853 239.414 76.8802 237.134 73.038 234.93C72.0019 234.336 70.9305 233.72 69.8743 233.143C57.923 226.604 44.432 222.967 30.8584 222.625C29.7316 222.597 28.5962 222.59 27.4593 222.583C22.3248 222.549 17.016 222.514 12.1376 220.531C7.8724 218.797 4.375 215.743 0.992542 212.789C-1.49704 210.614 -4.07131 208.366 -6.89616 206.711C-13.5633 202.806 -21.6143 202.127 -29.4011 201.472C-31.1456 201.325 -32.9495 201.173 -34.7075 200.987C-40.811 200.341 -50.1895 197.086 -50.1895 197.086L-46.504 196.387C-46.504 196.387 -39.064 198.469 -34.4988 198.951C-32.7614 199.135 -30.9681 199.286 -29.2343 199.432C-21.2266 200.107 -12.9462 200.804 -5.88783 204.939C-2.89963 206.689 -0.252251 209.001 2.30791 211.237C5.71507 214.214 8.93367 217.024 12.8873 218.631C17.4112 220.47 22.526 220.503 27.4724 220.536C28.6214 220.544 29.7689 220.551 30.9088 220.58C44.7976 220.929 58.6021 224.651 70.8312 231.341C71.9056 231.929 72.986 232.548 74.0307 233.148C77.7554 235.286 81.6078 237.496 85.7374 238.543C89.8247 239.579 94.0017 239.482 98.4248 239.378C102.063 239.295 105.826 239.205 109.503 239.817C118.447 241.306 126.012 246.707 133.328 251.931C140.079 256.751 147.06 261.735 155.006 263.494C161.114 264.846 167.585 264.23 173.845 263.636C180.349 263.017 187.074 262.378 193.57 263.88C198.619 265.047 203.286 267.458 207.8 269.789C212.365 272.147 217.086 274.585 222.089 275.638C228.704 277.031 235.336 276.033 242.356 274.975C245.669 274.476 249.094 273.96 252.48 273.731C264.424 272.923 287.193 281.773 287.193 281.773L283.977 282.352Z" fill="#D4A38E"/>
<path d="M205.812 291.549C205.812 291.549 201.763 289.936 199.783 289.052C197.861 288.192 195.872 287.303 193.916 286.615C184.973 283.473 175.61 284.081 165.695 284.722C157.794 285.234 149.625 285.764 141.771 284.182C134.965 282.813 128.466 279.872 122.179 277.029C113.242 272.986 104.804 269.169 95.5087 269.421C92.2578 269.51 88.958 270.13 85.7666 270.729C82.3776 271.366 78.8737 272.025 75.3354 272.079C65.4104 272.25 56.2225 267.722 47.3325 263.362C38.316 258.939 28.9924 254.367 19.1814 254.95C16.6141 255.103 13.9894 255.619 11.451 256.118C7.34451 256.925 3.09842 257.759 -1.17188 257.144C-7.61916 256.214 -12.9074 252.211 -18.0221 248.339C-22.3363 245.073 -26.7972 241.695 -31.8645 240.277C-37.5314 238.692 -43.3484 239.598 -49.5073 240.558C-54.7587 241.376 -60.1886 242.223 -65.5227 241.376C-72.4943 240.27 -78.5539 236.414 -84.4133 232.686C-89.4999 229.449 -94.7598 226.102 -100.519 224.655C-106.217 223.222 -112.016 223.657 -118.156 224.118C-122.915 224.475 -127.835 224.844 -132.659 224.246C-134.236 224.051 -137.328 223.351 -137.328 223.351L-134.713 221.849C-134.713 221.849 -133.185 222.119 -132.415 222.215C-127.787 222.788 -122.966 222.426 -118.305 222.076C-112.277 221.625 -106.044 221.158 -100.034 222.668C-93.9617 224.194 -88.5631 227.63 -83.3425 230.952C-77.3928 234.738 -71.7739 238.313 -65.2111 239.354C-60.1876 240.151 -54.9135 239.33 -49.8134 238.535C-43.7155 237.585 -37.4109 236.603 -31.3286 238.304C-25.8957 239.825 -21.2801 243.319 -16.8162 246.699C-11.6787 250.588 -6.8261 254.262 -0.888535 255.117C3.047 255.686 6.94269 254.919 11.0678 254.109C13.6708 253.597 16.3625 253.068 19.0634 252.907C29.4013 252.29 38.9613 256.983 48.2103 261.519C56.888 265.775 65.8682 270.172 75.3047 270.032C78.6735 269.981 82.0928 269.339 85.3996 268.717C88.6671 268.103 92.046 267.468 95.4547 267.376C105.204 267.104 114.251 271.202 122.999 275.159C129.184 277.957 135.58 280.85 142.164 282.175C149.759 283.704 157.795 283.183 165.567 282.68C175.244 282.053 185.249 281.405 194.575 284.682C196.609 285.396 198.636 286.302 200.597 287.179C205.62 289.424 210.365 291.541 215.393 290.832L205.812 291.549Z" fill="#D4A38E"/>
<path d="M-156.66 200.773L-156.763 199.755L250.413 157.476L250.516 158.494L-156.66 200.773Z" fill="#F8E8E1"/>
<path d="M-87.8016 0.114258L-105.676 166.592L66.9247 152.717L83.3429 0.114258H-87.8016Z" fill="#F8E8E1"/>
<path d="M-75.7449 9.19888L-91.5576 156.456L56.6513 145.189L71.3507 8.54395L-75.7449 9.19888Z" fill="white"/>
<path d="M69.3008 43.3795L-84.2129 46.8829L-83.9452 44.386L69.5489 41.0693L69.3008 43.3795Z" fill="#F8E8E1"/>
<path d="M65.4545 79.1388L-88.3633 85.5377L-88.0951 83.0407L65.703 76.8291L65.4545 79.1388Z" fill="#F8E8E1"/>
<path d="M108.99 0.114258L92.791 150.637L235.029 139.202L250.022 0.114258H108.99Z" fill="#F8E8E1"/>
<path d="M118.765 8.33227L104.426 141.557L226.573 132.272L239.991 7.79297L118.765 8.33227Z" fill="white"/>
<path d="M237.979 39.5303L111.479 42.4176L111.722 40.1591L238.206 37.4258L237.979 39.5303Z" fill="#F8E8E1"/>
<path d="M234.467 72.1074L107.716 77.3801L107.959 75.1216L234.694 70.0029L234.467 72.1074Z" fill="#F8E8E1"/>
<path d="M330.505 244.361L329.509 244.198L333.562 218.893L334.558 219.056L330.505 244.361Z" fill="#311616"/>
<path d="M156.705 200.676L155.709 200.513L159.762 175.207L160.758 175.371L156.705 200.676Z" fill="#311616"/>
<path d="M313.55 88.2776C311.736 87.9992 309.753 87.9168 308.456 86.7963C307.419 85.9009 307.075 84.4933 305.779 83.6864C300.806 80.5913 293.362 82.6032 287.451 82.7296C263.977 83.231 242.83 77.4011 220.957 72.3248C220.279 72.1672 219.53 72.0183 218.838 72.3571C217.968 72.7833 217.54 73.7923 217.211 74.6887C213.459 84.9215 208.332 95.665 205.749 106.072C203.623 114.638 201.072 120.976 197.251 127.518C186.655 131.966 170.638 128.181 158.393 132.07C148.969 135.062 148.9 142.095 147.704 150.135C146.391 158.973 145.273 167.819 144.835 176.608C144.705 179.218 144.658 181.934 145.799 184.087C148.111 188.448 159.408 188.297 164.041 189.243C172.327 190.935 180.579 192.723 188.794 194.608C205.225 198.376 221.511 202.529 237.637 207.062C251.459 210.948 265.163 215.112 278.739 219.552C290.383 223.361 303.072 230.204 315.677 231.241C321.039 231.683 326.621 230.845 332.142 230.009C345.135 228.044 358.135 225.958 371.126 224.113C379.903 222.866 389.265 225.086 391.341 213.461C395.248 191.591 399.553 169.728 404.252 147.888C406.596 136.992 408.942 126.08 411.576 115.205C412.499 111.392 415.641 105.309 412.495 102.399C411.062 101.074 408.956 100.671 406.929 100.352C400.168 99.2907 393.273 98.6987 386.4 98.0371C366.869 96.1562 347.481 93.7084 328.267 90.6967C323.464 89.9441 318.671 89.1556 313.89 88.3328C313.777 88.3134 313.664 88.295 313.55 88.2776Z" fill="#D9A490"/>
<path d="M189.571 168.688C197.232 169.368 204.512 171.343 211.749 173.311C220.569 175.71 229.39 178.107 238.21 180.506C264.297 187.599 290.654 194.733 318.624 195.542C319.6 195.571 320.679 195.559 321.533 194.92C322.335 194.318 322.713 193.325 323.016 192.404C324.685 187.319 325.685 182.117 325.979 176.988C288.92 170.105 251.861 163.222 214.802 156.339C205.142 154.545 181.297 146.13 171.739 153.75C156.217 166.122 183.726 168.17 189.571 168.688Z" fill="#C89483"/>
<path d="M196.891 133.484C195.915 133.284 195 132.96 194.206 132.419C193.301 131.803 192.531 130.903 191.382 130.787C189.166 130.563 184.543 133.025 182.055 133.675C178.331 134.649 174.7 136.189 171.496 138.664C164.006 144.45 160.71 156.592 167.135 161.52C170.489 164.09 175.343 164.088 179.849 164.282C189.913 164.716 199.682 166.596 208.78 169.85C216.58 172.639 225.173 176.406 233.574 172.451C235.978 178.619 243.365 180.577 250.015 181.874C260.61 183.939 271.26 185.845 281.96 187.589C291.435 189.134 302.874 192.383 312.991 190.62C317.556 189.824 322.361 187.178 324.7 182.939C326.784 179.161 326.591 174.854 328.13 170.895C330.506 164.779 336.388 160.798 342.035 158.019C351.087 153.564 340.509 151.361 335.87 150.302C322.624 147.277 308.703 146.053 294.565 146.67C292.682 146.753 290.742 146.861 289.068 146.252C287.393 145.644 286.027 144.124 286.213 142.234C286.234 142.032 286.27 141.823 286.224 141.637C286.067 140.992 285.06 141.066 284.497 141.56C283.934 142.054 283.646 142.771 283.208 143.374C281.835 145.261 279.184 145.725 277.193 145.171C275.203 144.617 273.626 143.302 271.847 142.349C267.809 140.186 262.889 139.97 258.073 140.153C253.632 140.323 249.651 139.378 245.36 138.718C230.801 136.475 216.196 134.229 201.182 133.835C199.743 133.797 198.258 133.763 196.891 133.484Z" fill="#E8C0B3"/>
<path d="M416.629 91.6879C416.012 86.9125 411.99 85.4251 407.486 85.398C401.811 85.3637 395.669 85.9588 389.901 86.6398C386.016 87.0993 377.199 87.7281 374.556 91.4837C365.807 83.4327 353.404 83.4782 341.298 82.724C336.19 82.4057 331.114 81.9468 326.076 81.3486C322.483 80.9219 318.684 81.0795 315.019 82.7158C308.227 85.7495 303.666 92.7266 302.319 99.5763C301.179 105.374 301.983 111.051 300.853 116.844C299.846 122.004 297.039 125.873 293.568 130.03C291.03 133.069 288.628 136.507 287.336 140.157C286.822 141.606 286.739 143.215 287.459 144.372C288.564 146.147 291.082 146.333 293.313 146.373C299.336 146.481 305.364 146.562 311.381 146.696C316.783 146.817 322.145 148.229 327.433 149.009C332.051 149.691 336.731 150.39 340.813 152.296C344.997 154.251 348.447 157.428 352.891 158.886C355.8 159.84 359.019 160.014 362.232 159.955C372.387 159.769 382.94 157.268 392.54 152.166C397.07 149.759 401.372 146.752 405.248 143.271C407.267 133.911 409.314 124.544 411.576 115.205C413.355 107.858 417.574 99.0119 416.629 91.6879Z" fill="#F8E8E1"/>
<path d="M287.459 144.372C288.564 146.147 291.083 146.333 293.313 146.373C299.336 146.481 305.364 146.561 311.381 146.696C316.783 146.817 322.145 148.229 327.433 149.009C332.051 149.691 336.731 150.39 340.813 152.297C344.997 154.251 348.447 157.429 352.891 158.887C355.8 159.84 359.019 160.014 362.232 159.955C372.387 159.769 382.94 157.269 392.54 152.167C397.07 149.759 401.372 146.752 405.248 143.271C407.267 133.911 409.314 124.544 411.576 115.205C413.355 107.857 417.574 99.0123 416.629 91.6883C415.985 86.7231 412.179 85.4368 407.784 85.3994C404.721 86.3506 401.676 88.3804 398.988 91.717C394.868 96.8316 393.234 103.241 392.338 109.348C391.443 115.457 391.127 121.628 389.057 127.633C386.986 133.638 382.712 139.659 376.766 142.021C370.888 144.356 364.904 142.67 359.284 141.368C342.59 137.498 324.506 137.322 306.557 140.852C302.872 141.577 299.079 142.459 295.591 141.836C292.509 141.285 289.706 139.19 289.186 136.187C288.45 137.475 287.816 138.802 287.336 140.157C286.822 141.605 286.739 143.214 287.459 144.372Z" fill="#F0D7D1"/>
<path d="M231.373 133.987C243.767 135.853 256.161 137.72 268.555 139.586C270.485 139.877 272.455 140.181 274.078 141.112C275.087 141.691 275.629 142.524 276.183 143.53C276.658 144.396 277.297 145.284 278.323 145.408C277.115 145.287 275.749 144.975 274.826 144.274C273.874 143.551 272.771 143.005 271.645 142.533C269.338 141.566 266.84 140.97 264.29 140.594C259.636 139.906 254.801 139.91 250.089 139.428C245.933 139.003 241.885 138.203 237.809 137.505C225.656 135.423 213.219 134.248 200.661 133.714C198.014 133.601 196.68 131.633 197.252 127.519C198.972 135.081 204.879 131.498 210.689 131.697C217.711 131.938 224.554 132.961 231.373 133.987Z" fill="#C89483"/>
<path d="M407.77 211.364C410.282 198.294 412.411 185.212 414.16 172.14C415.013 165.757 415.872 159.409 416.813 153.036C417.237 150.163 417.093 147.056 415.237 145.187C413.305 143.242 410.073 143.15 407.096 143.336C396.315 144.01 386.391 146.931 375.739 148.328C364.665 149.78 353.381 151.88 342.297 153.529C337.078 154.306 331.347 155.608 327.55 159.745C325.15 162.36 323.908 165.723 322.924 168.984C317.913 185.589 317.674 202.462 317.477 219.05C317.406 225.05 318.782 232.631 324.782 232.613C349.745 232.533 374.066 224.731 399.342 220.734C400.819 220.5 402.355 220.245 403.681 219.392C406.331 217.687 407.204 214.31 407.77 211.364Z" fill="#D4A38E"/>
<path d="M317.761 224.454C317.453 224.454 317.198 224.207 317.187 223.892C316.668 209.469 317.458 194.7 319.535 179.994C320.414 173.768 321.752 166.679 326.526 161.35C332.245 154.966 340.95 153.151 349.376 151.84L405.25 143.144C405.569 143.094 405.857 143.314 405.906 143.632C405.954 143.951 405.738 144.249 405.424 144.298L349.551 152.994C341.328 154.274 332.844 156.034 327.377 162.136C322.823 167.22 321.529 174.106 320.673 180.161C318.606 194.796 317.82 209.496 318.336 223.849C318.348 224.171 318.1 224.442 317.783 224.454C317.775 224.454 317.768 224.454 317.761 224.454Z" fill="#A7735D"/>
<path d="M300.366 119.02C297.122 127.488 289.038 134.259 286.566 142.868C285.696 135.594 290.981 128.207 293.954 120.869C296.302 115.07 297.246 109.02 299.042 103.108C300.24 99.1634 305.388 90.3668 308.74 87.4795C305.452 90.4518 304.012 97.2672 303.44 100.29C302.255 106.533 302.736 112.832 300.366 119.02Z" fill="#C89483"/>
<path d="M199.397 132.346C200.983 133.47 203.216 133.43 205.308 133.393C218.045 133.171 230.567 134.447 242.54 137.185C246.405 138.07 250.234 139.109 254.274 139.418C258.087 139.709 262.011 139.376 265.85 139.525C269.075 139.651 274.014 139.879 275.73 142.717C276.235 143.551 276.503 144.603 277.318 145.138C278.253 145.751 279.616 145.481 280.803 145.038C282.059 144.569 283.29 143.914 284.324 142.996C286.775 140.821 288.373 136.323 289.601 133.43C291.347 129.315 292.19 124.942 292.019 120.767C292.005 120.415 291.985 120.053 292.106 119.701C292.285 119.182 292.734 118.776 293.141 118.381C296.854 114.778 297.461 110.59 298.864 106.121C300.375 101.304 302.184 96.4602 305.191 92.1366C306.326 90.5024 307.648 88.8968 308.64 87.2021C306.011 79.7937 294.093 82.5884 287.451 82.7301C274.176 83.0136 261.305 81.2243 248.752 78.6757C242.47 77.4001 236.254 75.9368 230.045 74.4667C226.194 73.5555 219.811 69.6325 216.287 74.4652C215.118 76.0693 214.784 78.0121 214.322 79.8551C212.616 86.649 208.724 93.0034 206.12 99.6458C203.525 106.266 202.603 112.857 201.211 119.588C200.276 124.105 194.598 128.945 199.397 132.346Z" fill="#F8E8E1"/>
<path d="M199.397 132.345C200.983 133.469 203.215 133.429 205.308 133.393C218.044 133.171 230.567 134.446 242.54 137.184C246.405 138.069 250.233 139.109 254.273 139.417C258.086 139.709 262.01 139.375 265.85 139.524C269.074 139.65 274.013 139.878 275.729 142.716C276.234 143.55 276.502 144.603 277.317 145.137C278.252 145.75 279.615 145.481 280.801 145.037C282.058 144.568 283.289 143.914 284.323 142.995C286.774 140.82 288.372 136.323 289.6 133.43C291.346 129.314 292.189 124.942 292.018 120.767C292.004 120.415 291.984 120.052 292.106 119.7C292.285 119.181 292.733 118.775 293.14 118.38C296.854 114.777 297.46 110.589 298.863 106.12C300.374 101.303 302.183 96.4593 305.19 92.1357C306.325 90.5015 307.647 88.8964 308.639 87.2017C308.114 85.723 307.215 84.6562 306.067 83.8887C303.813 85.1934 301.749 87.322 300.021 89.3804C298.001 91.7868 296.024 94.3395 295.027 97.2084C294.183 99.6378 293.805 102.57 293.694 105.022C293.619 106.662 294.28 108.394 292.225 109.546C291.109 110.171 289.702 109.971 289.031 109.091C290.614 112.59 290.937 116.866 289.542 120.912C288.274 124.586 285.8 127.292 282.616 129.565C281.204 130.573 280.201 131.563 278.548 132.132C276.673 132.776 274.739 133.029 272.848 133.176C270.352 133.369 267.848 134.265 265.277 134.26C262.849 134.256 260.484 133.887 258.209 133.338C253.253 132.141 248.601 130.151 243.491 129.406C235.994 128.313 227.906 129.952 220.309 129.227C216.24 128.839 212.353 127.751 208.833 126.053C206.636 124.993 203.405 121.441 200.576 121.503C198.886 125.434 195.272 129.422 199.397 132.345Z" fill="#F0D7D1"/>
<path d="M290.747 115.247C290.463 115.247 290.216 115.034 290.177 114.741C289.107 106.65 285.318 99.3143 279.51 94.0851C279.272 93.8712 279.251 93.5023 279.461 93.2613C279.673 93.0193 280.036 92.9978 280.273 93.2116C286.288 98.6266 290.21 106.218 291.317 114.585C291.36 114.905 291.138 115.199 290.823 115.242C290.798 115.246 290.772 115.247 290.747 115.247Z" fill="#F0D7D1"/>
<path d="M195.32 116.274C199.698 116.353 204.558 115.656 207.955 112.449C210.162 110.367 211.466 107.473 213.678 105.394C216.006 103.204 219.08 102.149 222.042 101.218C224.826 100.343 227.707 99.4531 230.088 97.6618C229.891 97.4321 229.669 97.2218 229.41 97.0422C226.797 95.2324 223.127 99.0029 220.609 99.8543C220.15 100.01 219.686 100.158 219.222 100.303C218.407 100.557 217.585 100.792 216.759 101.013C213.949 101.765 211.084 102.331 208.208 102.726C208.027 102.751 207.847 102.779 207.666 102.803C207.244 102.857 206.821 102.904 206.399 102.951C205.606 103.039 204.812 103.11 204.017 103.171C203.158 104.341 202.298 105.511 201.204 106.446C197.923 109.249 193.39 109.303 189.379 108.983C185.369 108.663 181.049 108.205 177.345 110.34C177.175 110.438 177.011 110.544 176.847 110.651C177.075 111.673 177.246 112.706 177.349 113.749C177.477 115.062 177.504 116.386 177.433 117.708C177.405 118.216 177.358 118.724 177.302 119.231C178.755 118.076 180.466 117.198 182.176 116.729C186.533 115.533 190.943 116.194 195.32 116.274Z" fill="#887C77"/>
<path d="M189.379 108.983C193.389 109.303 197.922 109.249 201.203 106.447C202.297 105.511 203.158 104.341 204.016 103.171C202.286 103.303 200.552 103.378 198.819 103.383C197.96 103.386 197.102 103.375 196.245 103.346C193.263 103.246 190.294 102.951 187.365 102.467L187.248 102.331L187.16 102.433C185.213 102.105 183.283 101.696 181.381 101.197C180 100.835 178.465 100.441 177.172 101.063C176.54 101.367 176.115 101.811 175.842 102.345C174.998 103.996 175.63 106.512 176.26 108.465C176.492 109.184 176.681 109.915 176.846 110.65C177.009 110.542 177.175 110.437 177.344 110.34C181.049 108.205 185.369 108.663 189.379 108.983Z" fill="#CFC5C0"/>
<path d="M185.533 127.752C190.795 127.892 196.566 128.848 201.108 125.58C203.917 123.56 205.68 120.247 208.554 118.333C211.229 116.553 214.469 116.246 217.507 116.24C220.313 116.235 223.159 116.417 225.942 115.724C226.129 114.676 226.365 113.633 226.657 112.604C227.201 110.691 227.92 108.82 228.826 107.024C229.66 105.37 230.65 103.747 231.009 101.955C231.157 101.213 231.162 100.428 231.019 99.6832C230.875 98.9342 230.572 98.2311 230.087 97.6611C227.706 99.4525 224.826 100.342 222.041 101.217C219.08 102.147 216.005 103.203 213.677 105.392C211.466 107.472 210.162 110.366 207.955 112.448C204.557 115.654 199.697 116.353 195.32 116.273C190.942 116.193 186.532 115.532 182.176 116.728C180.465 117.197 178.755 118.074 177.301 119.229C176.965 122.219 176.123 125.167 174.778 127.912C174.718 128.035 174.664 128.159 174.602 128.28C174.592 128.301 174.579 128.321 174.569 128.342C174.239 128.986 173.877 129.616 173.506 130.239C177.151 128.278 181.525 127.645 185.533 127.752Z" fill="#CFC5C0"/>
<path d="M228.224 134.426C224.301 134.083 220.183 134.741 216.398 136.472C212.932 138.058 209.661 140.48 205.998 141.05C202.558 141.585 199.309 140.402 196.046 139.669C189.003 138.086 181.29 138.616 174.069 141.178C172.483 141.74 170.858 142.456 169.498 143.481C169.973 143.632 170.503 143.7 171.062 143.702C172.216 143.706 173.48 143.455 174.579 143.191C177.356 142.524 180.158 142.2 182.977 142.101C184.279 142.056 185.584 142.058 186.892 142.099C189.187 142.171 191.492 142.357 193.8 142.606C195.62 142.802 197.442 143.035 199.266 143.275C200.859 143.486 202.453 143.701 204.046 143.904C206.712 144.244 209.376 144.545 212.032 144.723C212.836 144.778 213.638 144.82 214.439 144.848C217.387 144.953 220.322 144.869 223.237 144.475C224.165 144.349 225.093 144.194 226.016 144.001C227.607 143.668 229.348 143.109 230.121 141.749C230.353 141.341 230.467 140.916 230.501 140.482C230.614 139.034 229.782 137.486 229.056 136.128C228.758 135.57 228.486 135 228.224 134.426Z" fill="#887C77"/>
<path d="M196.046 139.668C199.31 140.401 202.559 141.585 205.999 141.049C209.662 140.479 212.932 138.057 216.399 136.472C220.184 134.741 224.301 134.082 228.225 134.425C227.662 133.184 227.18 131.911 226.786 130.61C226.551 129.832 226.349 129.044 226.176 128.251C225.684 128.115 225.196 127.969 224.711 127.829C220.374 126.578 215.463 125.848 211.1 128.005C208.365 129.357 206.152 131.706 203.482 133.208C199.599 135.391 195.107 135.591 190.938 135.192C186.771 134.794 182.693 133.857 178.451 133.987C175.422 134.08 172.211 134.822 169.532 136.463C169.189 137.026 168.853 137.592 168.54 138.169C167.839 139.46 167.235 141.029 167.95 142.286C168.302 142.903 168.847 143.273 169.498 143.48C170.858 142.456 172.483 141.74 174.069 141.177C181.29 138.615 189.003 138.086 196.046 139.668Z" fill="#CFC5C0"/>
<path d="M190.938 135.192C195.107 135.591 199.599 135.392 203.481 133.208C206.152 131.707 208.364 129.357 211.1 128.005C215.463 125.848 220.373 126.579 224.71 127.829C225.195 127.969 225.683 128.115 226.175 128.251C225.794 126.507 225.559 124.731 225.474 122.945C225.414 121.679 225.429 120.408 225.518 119.141C225.599 117.997 225.741 116.857 225.943 115.725C223.159 116.417 220.314 116.235 217.507 116.24C214.47 116.246 211.228 116.554 208.553 118.334C205.679 120.247 203.917 123.56 201.109 125.58C196.566 128.848 190.795 127.893 185.533 127.752C181.525 127.645 177.151 128.278 173.506 130.24C172.248 132.347 170.813 134.367 169.532 136.463C172.21 134.823 175.422 134.08 178.449 133.988C182.692 133.857 186.77 134.793 190.938 135.192Z" fill="#887C77"/>
<path d="M226.036 139.616C219.482 128.471 219.303 114.384 225.571 102.852L226.15 103.175C219.995 114.5 220.168 128.332 226.602 139.273L226.036 139.616Z" fill="#F8E8E1"/>
<path d="M232.357 163.621C232.194 163.621 232.033 163.552 231.92 163.418C231.713 163.173 231.741 162.804 231.982 162.594C236.535 158.631 242.392 156.495 248.039 156.739L248.09 156.741C248.375 156.753 248.64 156.765 248.858 156.69C249.191 156.575 249.5 156.231 249.8 155.899L249.839 155.856C252.968 152.387 257.1 149.874 261.473 148.78C261.781 148.704 262.094 148.895 262.17 149.208C262.246 149.52 262.057 149.837 261.749 149.914C257.593 150.954 253.665 153.344 250.687 156.644L250.649 156.687C250.27 157.108 249.841 157.584 249.228 157.795C248.807 157.94 248.401 157.922 248.041 157.907C242.716 157.688 237.002 159.762 232.731 163.481C232.622 163.575 232.489 163.621 232.357 163.621Z" fill="#A7735D"/>
<path d="M243.521 164.363C243.476 164.363 243.43 164.357 243.384 164.346C243.075 164.269 242.886 163.953 242.962 163.641C243.655 160.766 245.749 158.15 248.428 156.814C250.997 155.535 253.795 155.708 256.676 156.018C259.596 156.334 262.127 157.378 263.994 159.041C264.233 159.253 264.257 159.621 264.048 159.864C263.837 160.107 263.474 160.131 263.236 159.918C261.548 158.415 259.237 157.468 256.554 157.18C253.846 156.887 251.228 156.72 248.935 157.863C246.554 159.049 244.693 161.369 244.079 163.917C244.015 164.184 243.78 164.363 243.521 164.363Z" fill="#A7735D"/>
<path d="M248.637 157.336C248.426 157.336 248.222 157.218 248.122 157.012C246.986 154.685 244.053 153.981 241.793 153.801C241.476 153.776 241.24 153.494 241.264 153.173C241.29 152.851 241.572 152.611 241.884 152.637C244.44 152.841 247.777 153.676 249.152 156.494C249.293 156.783 249.177 157.133 248.893 157.276C248.81 157.317 248.723 157.336 248.637 157.336Z" fill="#A7735D"/>
<path d="M268.197 134.972C266.975 133.229 265.949 131.372 265.106 129.441C264.005 126.914 263.235 124.256 262.798 121.538C262.586 120.214 262.453 118.877 262.401 117.534C262.311 115.198 262.461 112.848 262.866 110.527C263.229 108.45 263.784 106.398 264.552 104.402C265.258 102.565 266.134 100.74 266.311 98.8142C266.384 98.016 266.298 97.1896 266.057 96.4242C265.716 95.3425 265.056 94.3867 264.014 93.8382C260.988 92.2459 257.473 96.6457 254.86 97.84C254.383 98.0585 253.901 98.2687 253.418 98.476C252.569 98.8403 251.711 99.1846 250.846 99.5157C247.907 100.64 244.886 101.576 241.833 102.332C241.641 102.38 241.45 102.431 241.258 102.477C240.811 102.585 240.36 102.684 239.911 102.784C237.23 103.378 234.52 103.83 231.795 104.138C230.87 104.243 229.944 104.334 229.016 104.405C225.792 104.654 222.559 104.697 219.346 104.536L219.204 104.407L219.121 104.524C216.986 104.41 214.858 104.21 212.75 103.911C211.22 103.694 209.52 103.463 208.199 104.271C207.554 104.666 207.148 105.183 206.916 105.777C206.199 107.613 207.174 110.183 208.081 112.162C208.879 113.901 209.472 115.722 209.871 117.586C210.339 119.775 210.152 122.322 211.588 124.073C211.619 124.112 211.652 124.152 211.665 124.202C211.693 124.318 211.606 124.44 211.531 124.546C210.712 125.694 211.174 126.613 211.454 127.71C211.514 127.946 211.989 130.111 212.521 129.741C210.321 131.272 208.278 133.387 207.267 135.845C206.089 138.707 204.438 141.429 203.232 144.306C202.627 145.748 202.159 147.469 203.076 148.705C203.855 149.756 205.166 149.976 206.595 149.824C207.839 149.691 209.172 149.277 210.325 148.869C213.239 147.837 216.22 147.164 219.246 146.725C220.643 146.522 222.051 146.37 223.465 146.257C225.946 146.061 228.45 145.983 230.967 145.97C232.951 145.96 234.941 145.988 236.934 146.025C238.675 146.057 240.417 146.093 242.158 146.117C245.07 146.158 247.976 146.159 250.858 146.031C251.73 145.992 252.599 145.941 253.466 145.876C256.654 145.635 259.808 145.198 262.903 144.437C263.889 144.195 264.868 143.922 265.841 143.61C267.517 143.071 269.326 142.276 270.001 140.754C270.203 140.298 270.277 139.837 270.263 139.377C270.215 137.841 269.138 136.313 268.197 134.972Z" fill="#E9775F"/>
<path d="M212.446 130.077C212.343 130.077 212.246 130.013 212.209 129.91C212.161 129.777 212.228 129.63 212.359 129.581C216.854 127.91 221.712 127.878 225.998 127.85H226C226.138 127.85 226.251 127.963 226.252 128.104C226.253 128.245 226.14 128.361 226.001 128.361C221.549 128.391 216.945 128.422 212.532 130.062C212.504 130.072 212.475 130.077 212.446 130.077Z" fill="#D56855"/>
<path d="M218.533 127.018C218.521 127.018 218.509 127.018 218.497 127.016C217.178 126.827 215.891 126.623 214.654 126.198C213.254 125.716 212.15 125.013 211.369 124.108C211.277 124.002 211.288 123.84 211.393 123.747C211.497 123.654 211.656 123.664 211.748 123.771C212.469 124.607 213.501 125.26 214.815 125.712C216.01 126.123 217.272 126.324 218.567 126.509C218.705 126.528 218.801 126.658 218.782 126.798C218.764 126.925 218.656 127.018 218.533 127.018Z" fill="#D56855"/>
<path d="M135.553 269.304C181.27 263.729 227.266 263.041 272.896 256.554C253.524 251.604 231.888 253.055 211.036 255.924C190.185 258.791 169.35 263.036 148.461 263.556C130.728 263.997 113.316 261.737 95.5837 262.169C78.3901 262.588 61.1865 265.529 44.0982 268.458C32.6713 270.416 21.1103 272.411 10.3755 276.508C7.62128 277.559 0.861403 280.658 2.30534 283.855C3.36157 286.194 9.41813 285.08 11.8694 284.984C21.8746 284.589 31.8944 283.755 41.893 282.654C62.1454 280.422 82.2909 277.083 102.449 273.98C113.468 272.284 124.497 270.652 135.553 269.304Z" fill="#DF8B47"/>
<path d="M292.863 254.843C266.661 257.732 240.496 260.606 214.33 260.606C204.654 260.881 194.948 261.158 185.283 262.393C174.663 263.749 164.148 266.254 153.503 267.046C137.644 268.225 121.751 265.588 106.1 268.744C94.7131 271.039 84.0404 276.312 72.5157 277.564C63.3197 278.564 54.1141 276.928 44.9821 278.51C37.9399 279.729 31.3666 282.825 24.2654 283.748C18.0541 284.555 3.35511 286.26 3.35511 286.26C3.35511 286.26 -2.21442 284.359 -3.83784 283.641C-22.0962 275.567 -40.2306 267.273 -58.6997 259.483C-65.7908 256.345 -77.9276 247.846 -86.0508 247.379C-52.14 249.325 167.703 225.103 167.703 225.103C167.703 225.103 294.257 254.689 292.863 254.843Z" fill="#FBB960"/>
<path d="M-71.1621 253.594L-71.1943 253.084C-4.81172 248.71 62.5338 241.86 128.972 232.724L132.231 232.275C149.938 229.83 168.255 227.305 186.085 227.6L186.077 228.111C168.274 227.82 149.988 230.34 132.299 232.782L129.04 233.231C62.5903 242.369 -4.76736 249.22 -71.1621 253.594Z" fill="#DF8B47"/>
<path d="M-50.1507 263.091C-51.1258 263.091 -52.0963 263.082 -53.0684 263.061L-53.0578 262.55C-38.5811 262.859 -23.7158 260.808 -9.33593 258.832C1.44014 257.35 12.5832 255.819 23.507 255.278C26.5829 255.126 29.7057 255.05 32.7257 254.976C39.0444 254.82 45.5779 254.66 52.0156 253.8C57.5685 253.058 63.1864 251.775 68.6198 250.536C71.724 249.828 74.934 249.095 78.1002 248.47C89.873 246.147 101.883 245.144 113.497 244.174C121.046 243.544 128.852 242.892 136.519 241.884C144.286 240.863 152.188 239.44 159.83 238.064C174.095 235.496 188.845 232.84 203.298 232.693L203.303 233.205C188.892 233.351 174.163 236.003 159.918 238.568C152.27 239.945 144.363 241.369 136.584 242.391C128.905 243.401 121.093 244.053 113.539 244.684C101.938 245.653 89.9421 246.655 78.1965 248.973C75.0374 249.596 71.8309 250.327 68.7303 251.035C63.2863 252.277 57.6567 253.562 52.0812 254.307C45.6172 255.171 39.0696 255.332 32.7383 255.487C29.7209 255.561 26.6011 255.638 23.5312 255.789C12.6291 256.328 1.4971 257.859 -9.26837 259.339C-22.7034 261.186 -36.5675 263.091 -50.1507 263.091Z" fill="#DF8B47"/>
<path d="M-33.2571 273.025L-33.3096 272.516L24.9106 266.298C33.792 265.349 42.9562 264.369 51.9616 263.064C59.0442 262.038 66.2366 260.78 73.1921 259.564C78.8967 258.567 84.7955 257.535 90.604 256.637C103.736 254.604 117.099 253.144 130.023 251.731L238.094 239.918L238.148 240.427L130.085 252.239C117.159 253.652 103.801 255.112 90.6796 257.142C84.8762 258.04 78.9799 259.072 73.2778 260.069C66.3183 261.286 59.1223 262.544 52.0332 263.571C43.0187 264.877 33.8495 265.857 24.9822 266.805L-33.2571 273.025Z" fill="#DF8B47"/>
<path d="M-20.4895 284.469L-20.5762 283.965C32.1002 274.633 86.5693 264.984 140.27 260.091C152.393 258.986 164.728 258.101 176.656 257.245C208.024 254.994 240.459 252.666 272.196 246.118L272.296 246.62C240.527 253.174 208.076 255.503 176.692 257.756C164.766 258.612 152.434 259.496 140.315 260.601C86.6354 265.492 32.1763 275.139 -20.4895 284.469Z" fill="#DF8B47"/>
<path d="M106.492 119.101C105.021 119.101 103.568 119.173 102.132 119.307C121.63 121.329 136.892 138.04 136.959 158.355C137.03 180.034 119.771 197.61 98.4087 197.61C78.3913 197.61 61.8748 182.177 59.8168 162.396C59.6892 163.853 59.6232 165.329 59.6282 166.821C59.7149 193.177 80.8375 214.542 106.807 214.542C132.776 214.542 153.757 193.177 153.67 166.821C153.583 140.466 132.461 119.101 106.492 119.101Z" fill="#9CC1CD"/>
<path d="M98.4093 197.61C119.771 197.61 137.031 180.034 136.959 158.355C136.892 138.04 121.631 121.329 102.132 119.307C79.6513 121.405 61.8104 139.573 59.8174 162.396C61.8754 182.177 78.3914 197.61 98.4093 197.61Z" fill="#D1E7EE"/>
<path d="M78.9249 221.186C76.2362 220.885 73.6055 222.197 71.9836 224.33C71.2556 225.287 70.1005 225.813 68.9782 225.753L56.4159 225.06C55.2936 225 54.3272 224.36 53.9193 223.342C53.0098 221.073 50.8459 219.504 48.1067 219.513C44.511 219.526 41.1588 222.384 40.4681 226.02C39.7093 230.015 42.3224 233.463 46.2166 233.672C48.7097 233.806 51.1116 232.579 52.6589 230.627C53.3773 229.72 54.4804 229.216 55.5593 229.275L68.4675 229.986C69.5459 230.044 70.4686 230.656 70.8835 231.623C71.7774 233.706 73.7441 235.168 76.2372 235.302C80.1314 235.512 83.8063 232.402 84.3427 228.395C84.8313 224.748 82.4546 221.581 78.9249 221.186Z" fill="#6487D2"/>
<path d="M73.2873 227.679C74.0516 227.372 74.8321 227.061 75.6276 227.002C76.7761 226.917 77.8283 227.363 78.8982 227.662C79.9685 227.961 81.2128 228.094 82.2367 227.457C83.4094 226.728 84.4682 225.132 84.1092 223.905C83.7503 222.677 82.1324 221.812 80.9426 221.384C79.2072 220.761 77.1754 220.962 75.3145 221.632C73.4537 222.303 71.7375 223.415 70.112 224.617C69.2101 225.283 65.7656 229.837 65.7656 229.837C65.7656 229.837 72.1136 228.151 73.2873 227.679Z" fill="#426AAB"/>
<path d="M67.0626 225.647C66.8236 225.487 66.0674 225.592 65.776 225.576C65.0535 225.536 64.4389 225.359 63.7588 225.764C62.7938 226.337 61.7981 226.85 60.7807 227.299C60.3849 227.473 59.9791 227.639 59.5626 227.685C58.3405 227.819 57.5399 226.531 54.5568 226.49C53.7945 226.479 51.7334 226.531 49.5252 228.182C46.8838 230.158 46.2158 233.672 46.2158 233.672C46.2158 233.672 51.1582 233.857 52.7049 231.905C53.4239 230.999 54.4796 229.217 55.5585 229.275L61.5924 229.607C63.5677 228.552 65.4251 227.2 67.108 225.678C67.0934 225.668 67.0777 225.657 67.0626 225.647Z" fill="#426AAB"/>
<path d="M56.3238 240.549C58.9036 239.291 60.5523 236.813 60.8467 234.258C60.9788 233.111 61.73 232.062 62.7711 231.486L74.4355 225.056C75.4766 224.481 76.6942 224.442 77.6158 225.006C79.6703 226.263 82.4699 226.281 84.9257 224.755C88.1498 222.751 89.6034 218.672 88.2416 215.466C86.7447 211.944 82.5173 210.716 78.9049 212.713C76.5918 213.992 75.1025 216.277 74.7763 218.65C74.6251 219.752 73.9086 220.756 72.9079 221.309L60.9223 227.917C59.9216 228.47 58.7589 228.506 57.858 227.985C55.9195 226.863 53.3553 226.819 51.0422 228.098C47.4293 230.095 45.8235 234.548 47.5256 237.957C49.0749 241.059 52.9368 242.2 56.3238 240.549Z" fill="#6487D2"/>
<path d="M385.995 66.0779C389.115 64.3329 392.591 63.1871 395.29 60.8284C399.135 57.4678 400.327 52.6638 401.58 48.3006C403.144 42.8572 405.29 37.2975 409.063 32.3633C412.835 27.4291 418.471 23.1725 424.364 21.9888C429.736 20.9097 434.866 22.6121 437.408 26.2402C439.95 29.8683 439.847 35.2757 437.22 40.0796C431.844 49.9079 417.364 56.5873 415.757 66.6749C415.367 69.1201 415.862 71.4027 415.706 73.8144C415.294 80.1859 410.429 86.6821 405.007 91.9696C396.155 100.599 378.806 107.778 373.84 96.4493C369.903 87.4672 374.398 72.5668 385.995 66.0779Z" fill="#D1E7EE"/>
<path d="M340.738 220.527L340.178 220.36L368 122.737L368.024 122.7L431.954 22.4752L432.441 22.8011L368.535 122.989L340.738 220.527Z" fill="#887C77"/>
<path d="M354.787 55.0829C355.936 53.046 357.542 51.1667 358.193 48.9904C359.12 45.8907 357.882 43.0958 356.859 40.4928C355.583 37.2449 354.607 33.7186 354.852 29.8789C355.099 26.0394 356.728 21.8219 359.758 19.0045C362.519 16.4365 366.265 15.316 369.25 16.1184C372.235 16.9207 374.367 19.5952 374.75 22.9359C375.533 29.7706 369.619 38.5314 372.753 44.0596C373.512 45.3997 374.733 46.3244 375.617 47.5599C377.956 50.8223 377.693 55.838 376.608 60.4772C374.835 68.0488 367.415 78.1433 359.864 74.5091C353.876 71.6272 350.511 62.6549 354.787 55.0829Z" fill="#D1E7EE"/>
<path d="M337.587 210.805L337.032 210.632L367.462 105.613L364.276 16.2357L364.854 16.2176L368.043 105.693L368.03 105.74L337.587 210.805Z" fill="#887C77"/>
<path d="M365.027 32.2939L355.719 24.4528L356.091 24.0014L364.846 31.3767L371.984 17.7522L372.5 18.0295L365.027 32.2939Z" fill="#887C77"/>
<path d="M365.562 45.9939L355.705 38.4095L356.059 37.9432L365.415 45.1423L372.603 34.019L373.093 34.34L365.562 45.9939Z" fill="#887C77"/>
<path d="M366.113 59.6728L355.136 54.4959L355.383 53.9658L365.953 58.9503L375.549 47.4753L375.997 47.8531L366.113 59.6728Z" fill="#887C77"/>
<path d="M317.232 157.415C318.791 154.484 320.979 151.762 321.851 148.649C323.094 144.214 321.365 140.279 319.935 136.609C318.15 132.031 316.774 127.048 317.075 121.582C317.375 116.116 319.572 110.07 323.705 105.972C327.472 102.238 332.606 100.53 336.713 101.58C340.822 102.629 343.775 106.367 344.335 111.104C345.478 120.796 337.441 133.431 341.8 141.195C342.856 143.077 344.542 144.355 345.769 146.083C349.012 150.65 348.701 157.789 347.256 164.417C344.897 175.235 334.803 189.812 324.396 184.876C316.145 180.961 311.434 168.31 317.232 157.415Z" fill="#D1E7EE"/>
<path d="M334.507 228.652L330.234 101.809L330.822 101.787L335.094 228.63L334.507 228.652Z" fill="#887C77"/>
<path d="M331.415 124.587L318.661 113.766L319.038 113.312L331.22 123.649L340.9 103.859L341.424 104.121L331.415 124.587Z" fill="#887C77"/>
<path d="M332.046 144.03L318.544 133.557L318.901 133.087L331.886 143.159L341.657 126.943L342.157 127.25L332.046 144.03Z" fill="#887C77"/>
<path d="M332.714 163.484L317.696 156.442L317.944 155.906L332.54 162.751L345.591 145.994L346.052 146.357L332.714 163.484Z" fill="#887C77"/>
<path d="M346.865 252.881H313.848L318.48 205.222H358.214L346.865 252.881Z" fill="#A6735C"/>
<path d="M317.591 214.384L335.165 225.697L356.033 214.384L357.289 209.107L336.012 220.931L318.104 209.107L317.591 214.384Z" fill="#F8E8E1"/>
<path d="M315.48 236.081L331.964 246.692L350.766 236.499L353.374 225.549L333.584 236.545L316.53 225.286L315.48 236.081Z" fill="#F8E8E1"/>
</g>
<mask id="mask2_468_6946" style="mask-type:luminance" maskUnits="userSpaceOnUse" x="79" y="20" width="176" height="234">
<path d="M79.2939 20.3623H254.744V253.682H79.2939V20.3623Z" fill="white"/>
</mask>
<g mask="url(#mask2_468_6946)">
<path d="M218.63 145.364L222.478 140.626L228.72 143.492L224.071 151.318C224.071 151.318 218.663 147.69 218.63 145.364Z" fill="#FC947A"/>
<path d="M179.917 200.295C180.719 200.346 181.518 200.347 182.31 200.291C186.205 200.017 189.885 198.268 193.042 195.939C200.004 190.801 204.935 183.593 209.64 176.418C214.946 168.328 219.618 159.865 223.969 151.233C222.461 148.994 220.62 146.982 218.526 145.283C213.066 151.811 207.037 157.859 200.529 163.336C197.315 166.041 193.92 168.643 190.001 170.144C186.082 171.646 181.528 171.934 177.778 170.056C170.096 166.212 164.888 155.486 160.351 148.635C154.618 139.98 149.106 131.177 143.82 122.24C141.925 119.036 128.627 132.969 128.627 132.969C128.627 132.969 130.279 139.019 131.142 141.552C132.347 145.084 142.978 173.893 151.204 182.717C157.961 189.964 169.284 199.616 179.917 200.295Z" fill="#8B443B"/>
<path d="M154.082 185.716C162.044 180.723 167.873 172.355 169.85 163.08C163.164 165.655 156.477 168.23 149.791 170.804C146.414 172.105 144.86 174.454 147.127 177.808C149.045 180.642 151.629 183.357 154.082 185.716Z" fill="#5F2521"/>
<path d="M247.088 154.656C247.945 154.974 248.841 155.297 249.501 155.192C250.162 155.088 250.479 154.395 249.948 153.542C249.612 153.001 248.512 152.12 248.512 152.12L225.149 132.448C225.149 132.448 224.135 131.802 223.712 131.772C223.283 131.741 223.067 132.021 222.886 132.297C221.44 134.489 221.073 137.259 221.209 140.539C221.225 140.937 221.395 141.539 221.878 141.81C222.096 141.932 222.286 141.924 222.461 141.916C223.378 141.872 224.611 142.077 225.609 143.063C226.183 143.63 226.518 144.307 226.823 144.941C227.034 145.382 227.246 145.824 227.457 146.265C227.684 146.737 227.931 147.239 228.356 147.663C229.104 148.411 230.218 148.125 230.988 148.383C232.143 148.77 233.369 149.389 234.542 149.851C238.735 151.503 242.918 153.105 247.088 154.656Z" fill="#F8E8E1"/>
<path d="M168.642 141.804C172.095 148.794 173.296 157.607 169.311 164.543C165.22 171.66 156.725 175.15 149.231 177.099C141.7 179.058 114.453 179.645 114.158 190.797C113.981 197.445 120.309 207.515 122.755 213.629C125.948 221.611 126.86 223.939 130.184 231.863C129.353 232.4 121.862 236.871 121.71 236.662C111.644 222.811 105.892 214.247 96.4695 199.91C92.774 194.288 86.2531 185.164 87.4807 177.785C88.5869 171.133 97.01 165.267 102.163 162.346C109.251 158.328 117.078 155.905 124.227 152.007C127.809 150.054 131.746 147.168 133.454 143.188C135.518 138.376 132.736 134.184 130.423 129.972C130.092 129.311 146.187 118.027 148.004 117.927C149.596 117.84 148.906 120.258 149.776 121.653C154.035 128.487 162.908 132.219 167.221 139.232C167.727 140.055 168.203 140.915 168.642 141.804Z" fill="#8B443B"/>
<path d="M132.514 145.372C132.47 145.372 132.426 145.361 132.385 145.337C132.265 145.265 132.226 145.107 132.297 144.986C133.425 143.049 133.932 140.577 133.725 138.023C133.554 135.901 132.498 134.101 131.38 132.196C131.241 131.959 131.101 131.722 130.963 131.484C130.893 131.362 130.933 131.205 131.053 131.134C131.173 131.062 131.328 131.103 131.398 131.225C131.535 131.463 131.674 131.699 131.813 131.935C132.911 133.807 134.047 135.741 134.228 137.981C134.442 140.639 133.911 143.22 132.731 145.246C132.683 145.327 132.6 145.372 132.514 145.372Z" fill="#5F2521"/>
<path d="M130.184 231.863L133.838 240.634L127.098 243.835L121.71 236.662L130.184 231.863Z" fill="#FC947A"/>
<path d="M107.04 250.276C106.226 250.7 105.383 251.151 105.01 251.716C104.638 252.28 104.926 252.987 105.906 253.17C106.528 253.287 107.916 253.064 107.916 253.064L138.086 248.982C138.086 248.982 139.244 248.663 139.553 248.368C139.866 248.068 139.809 247.716 139.733 247.394C139.12 244.824 137.355 242.667 134.879 240.539C134.578 240.28 134.026 239.997 133.501 240.174C133.264 240.254 133.14 240.402 133.027 240.539C132.436 241.253 131.45 242.035 130.055 242.109C129.253 242.153 128.533 241.943 127.866 241.739C127.401 241.598 126.937 241.457 126.472 241.314C125.976 241.163 125.442 241.006 124.845 241.035C123.794 241.086 123.245 242.113 122.535 242.512C121.468 243.112 120.186 243.608 119.054 244.169C115.004 246.179 111 248.215 107.04 250.276Z" fill="#F8E8E1"/>
<path d="M96.782 119.668C96.7916 121.873 96.8782 124.159 97.6396 126.162C98.3999 128.165 100.007 129.818 101.706 129.639C104.006 129.397 105.267 126.243 106.118 123.501C109.6 112.284 116.963 94.1332 113.863 81.5554C112.379 75.5336 108.563 74.5016 105.277 78.6326C101.775 83.0343 100.338 90.3073 99.111 96.2527C97.5425 103.852 96.7475 111.745 96.782 119.668Z" fill="#FC947A"/>
<path d="M99.2739 94.8662L105.361 78.405L106.068 77.6498C106.068 77.6498 107.696 78.5363 108.313 81.4557C109.381 86.518 108.41 90.948 108.41 90.948L105.274 101.912L99.2739 94.8662Z" fill="#D56455"/>
<path d="M96.0003 123.644C96.4675 125.304 96.9921 127.011 98.0939 128.276C99.1957 129.543 101.037 130.248 102.535 129.483C103.392 129.045 104.013 128.203 104.472 127.319C107.054 122.348 105.196 117.153 103.395 112.428C103.453 111.737 102.633 110.384 102.395 109.713C102.048 108.738 101.714 107.759 101.391 106.776C99.704 101.643 98.0731 96.5364 95.9705 91.5399C94.5186 91.9436 93.1965 92.2373 91.7447 92.641C92.4022 103.164 93.1328 113.462 96.0003 123.644Z" fill="#FC947A"/>
<path d="M104.425 116.438C104.318 116.428 104.223 116.351 104.193 116.238C102.464 109.731 100.224 103.76 98.262 98.7781C98.2073 98.6395 98.2727 98.4821 98.4077 98.4269C98.5428 98.3712 98.6969 98.4394 98.7514 98.5785C100.72 103.575 102.966 109.564 104.703 116.099C104.741 116.244 104.658 116.392 104.518 116.43C104.486 116.439 104.455 116.441 104.425 116.438Z" fill="#D56455"/>
<path d="M90.4551 83.0516C90.7328 82.662 91.1436 82.397 91.5447 82.1413C91.9769 81.8661 92.4087 81.5904 92.841 81.3152C93.3714 80.9769 93.9307 80.6292 94.5565 80.5863C94.9316 80.5605 95.3111 80.6468 95.6829 80.5901C96.4499 80.4729 97.2209 79.7685 97.8968 80.1609C98.0681 80.2602 98.2006 80.421 98.3793 80.5056C98.6509 80.6336 98.9664 80.5615 99.2651 80.5678C100.044 80.5842 100.733 81.1669 101.088 81.8741C101.443 82.5813 101.521 83.3959 101.542 84.1883C101.583 85.6323 101.457 87.0805 101.172 88.4937C101.065 89.0203 100.915 89.5779 100.512 89.9236C99.7557 90.5714 99.2519 89.4394 98.5996 89.9583C97.1556 91.1078 97.5392 92.4812 97.0076 93.9833C96.5667 95.2285 94.6179 94.8867 93.4763 95.047C92.8096 95.1411 92.1956 95.7324 91.7541 96.2483C91.6112 94.0491 91.4431 91.1075 90.9971 88.8135C90.6775 87.1684 89.3744 84.5672 90.4551 83.0516Z" fill="#FC947A"/>
<path d="M94.3939 86.179C94.4324 86.7044 94.4495 87.2344 94.4932 87.7582C94.5945 88.9583 94.8424 90.1457 95.228 91.2859C95.3952 91.7811 95.5551 92.2618 95.8748 92.6693C96.0327 92.8701 97.1038 93.6115 97.0476 93.8359C97.4886 92.0755 97.7441 90.3726 97.3698 88.5923C97.0525 87.0823 96.1769 85.764 95.3196 84.4894C94.8816 83.8385 94.4382 83.1803 93.8593 82.6565C93.3361 82.1822 92.5818 81.5095 91.932 82.0934C93.0335 82.415 93.7721 83.3006 94.1054 84.4083C94.2777 84.9836 94.3503 85.5786 94.3939 86.179Z" fill="#D56455"/>
<path d="M126.808 66.0185C132.294 70.7988 138.158 69.1175 143.091 72.4565C147.276 75.2875 148.066 81.1096 148.467 86.2201C149.341 97.3719 148.492 109.45 149.366 120.601C141.644 125.029 138.937 126.474 129.24 133.187C126.504 129.054 122.904 123.961 122.482 122.885C121.156 119.503 119.958 116.881 116.754 114.94C114.079 113.321 110.925 111.781 109.955 108.767C109.567 107.559 109.595 106.257 109.628 104.985C109.775 99.4924 109.96 94.0012 110.185 88.5113C110.328 85.0034 104.432 79.5214 107.426 77.0227C108.335 76.2643 117.086 71.2157 118.078 70.574C120 69.3303 124.615 65.4227 126.808 66.0185Z" fill="#FC947A"/>
<path d="M120.652 74.9477C120.808 75.1743 120.964 75.3872 121.117 75.5846C123.955 74.2987 126.22 72.4122 129.158 71.3438C127.561 66.5279 125.205 61.8405 123.214 57.1626C123.147 57.0061 123.071 56.8386 122.927 56.7516C122.715 56.6247 122.445 56.7169 122.217 56.8114C120.576 57.4876 114.591 60.7133 114.591 60.7133C114.591 60.7133 118.237 71.4586 120.652 74.9477Z" fill="#FC947A"/>
<path d="M126.233 90.1926C127.898 87.8587 128.522 84.9342 128.885 82.0793C129.173 79.8269 129.325 77.5575 129.339 75.2876C129.347 74.1529 129.32 73.0179 129.259 71.8847C129.2 70.7722 128.891 68.6483 128.924 67.5537C129.184 67.7057 130.138 68.2011 130.138 68.2011C130.138 68.2011 130.157 69.2776 130.198 69.6495C130.462 71.9987 130.496 74.3716 130.77 76.7194C131.13 79.8138 132.037 82.6515 133.811 85.2037C135.346 87.4127 137.286 89.3317 139.498 90.8342C142.413 92.8134 145.379 94.1004 148.896 94.2869C149.076 98.0855 148.977 110.66 149.103 114.637C143.667 116.148 126.251 123.514 123.531 124.582C121.99 121.49 120.051 118.072 117.23 115.976C115.164 114.441 112.528 113.668 110.841 111.711C109.561 110.225 108.994 108.212 108.902 106.235C108.689 101.713 109.757 96.715 110.246 92.2065C110.757 87.5033 111.701 74.3631 111.701 74.3631C111.701 74.3631 112.273 74.0237 112.757 73.7373C112.986 77.942 113.075 84.5938 114.191 88.6407C116.331 94.2293 122.668 95.1907 126.233 90.1926Z" fill="#C85D42"/>
<path d="M116.769 66.6476L123.521 60.2171L117.924 69.4947L116.769 66.6476Z" fill="#D56455"/>
<g opacity="0.5">
<path d="M129.917 125.202C131.34 125.819 132.951 126.248 134.454 125.839C136.106 125.391 137.899 124.022 138.851 122.641C140.478 120.282 140.53 119.488 141.287 116.75C134.773 117.505 128.999 117.372 122.672 119.052C124.676 121.724 126.724 123.818 129.917 125.202Z" fill="#D56455"/>
<path d="M141.302 116.746L146.228 94.5434L137.877 117.852L141.302 116.746Z" fill="#AE4630"/>
</g>
<path d="M94.3488 78.7372C94.3425 77.3109 96.0464 76.191 97.3264 76.7799C97.036 76.646 97.5508 75.5593 97.7364 75.4146C98.1674 75.0784 98.9689 75.19 99.4457 75.3437C99.524 74.987 99.8613 74.7504 100.199 74.6238C101.953 73.9632 104.411 75.5214 105.554 76.7819C105.832 76.3366 106.545 76.4072 106.907 76.7845C107.27 77.1618 107.375 77.7149 107.463 78.2338C107.687 79.5459 107.911 80.857 108.135 82.1686C108.233 82.7453 108.331 83.3388 108.212 83.911C107.976 85.0447 106.946 85.8623 106.647 86.9805C106.205 88.6317 107.379 89.7473 108.165 91.0036C108.659 91.7923 108.674 91.8888 108.05 92.4245C107.085 93.2545 105.532 94.1119 104.326 94.5169C104.123 94.5845 103.909 94.6491 103.698 94.6104C103.481 94.5702 103.298 94.425 103.125 94.2843C102.158 93.4963 101.19 92.7078 100.223 91.9198C99.5076 91.3374 98.7867 90.7494 98.2042 90.0303C96.6377 88.0974 96.6681 85.7813 95.9382 83.535C95.4596 82.0617 94.1077 80.033 92.3513 81.1502C92.2565 81.2105 92.1586 81.2816 92.0463 81.2828C91.7758 81.2863 91.6736 80.9204 91.703 80.6472C91.7727 80.0032 92.1001 79.4231 92.6241 79.0511C92.7626 78.9521 94.3468 78.3497 94.3488 78.7372Z" fill="#FC947A"/>
<path d="M96.9978 79.2698C96.9792 79.2699 96.96 79.268 96.9408 79.2635L94.4252 78.6848C94.2905 78.6539 94.2061 78.5187 94.2372 78.3817C94.2678 78.2458 94.4004 78.1609 94.5362 78.1913L97.0517 78.77C97.1865 78.8009 97.2708 78.9366 97.2398 79.073C97.2136 79.1895 97.1112 79.2692 96.9978 79.2698Z" fill="#D56455"/>
<path d="M99.1972 77.7505C99.167 77.7507 99.1342 77.7473 99.0979 77.7378C98.3893 77.5519 97.6875 77.3139 97.0127 77.0303C96.8855 76.9769 96.8247 76.8287 96.878 76.6997C96.9308 76.5703 97.0787 76.5097 97.2044 76.5626C97.8201 76.8215 98.4588 77.041 99.1043 77.216C99.2129 77.1679 99.3573 77.2064 99.4273 77.304C99.5024 77.4093 99.4857 77.5906 99.3899 77.6769C99.3498 77.7134 99.2864 77.75 99.1972 77.7505Z" fill="#D56455"/>
<path d="M101.484 76.4686C101.451 76.4688 101.417 76.4623 101.384 76.4482L99.4291 75.6011C99.3023 75.5461 99.2436 75.3973 99.2979 75.2683C99.3517 75.1403 99.4985 75.0802 99.6263 75.1352L101.581 75.9823C101.708 76.0373 101.767 76.1861 101.712 76.3146C101.672 76.4103 101.58 76.468 101.484 76.4686Z" fill="#D56455"/>
<path d="M102.369 91.7314C102.454 92.2678 102.569 92.7942 102.691 93.2946C102.739 93.4927 102.791 93.6918 102.887 93.8712C102.974 94.0359 103.094 94.1783 103.211 94.3229C103.875 95.1433 104.428 96.0646 105.008 96.9386C105.624 97.8662 106.29 98.7556 106.983 99.625C108.36 101.354 109.827 103.011 111.128 104.801C115.453 110.748 120.177 116.395 125.259 121.69C126.552 123.037 127.925 124.399 129.664 125.05C131.403 125.7 133.61 125.442 134.744 123.954C135.392 123.102 135.603 121.986 135.628 120.91C135.776 114.861 131.331 110.845 127.175 107.249C121.03 101.931 115.358 96.0483 110.252 89.6975C109.647 88.9457 109.062 88.3468 108.671 87.443C108.276 86.5326 108.046 85.5482 107.998 84.5541C107.985 84.2781 107.977 83.9775 107.801 83.7663C107.492 83.3958 106.902 83.5428 106.475 83.763C104.695 84.6845 103.118 86.2726 102.496 88.2158C102.141 89.3242 102.182 90.552 102.369 91.7314Z" fill="#FC947A"/>
<path d="M127.826 115.219C127.728 117.393 127.706 119.65 128.393 121.658C129.081 123.665 130.658 125.365 132.421 125.261C134.805 125.122 136.261 122.067 137.272 119.4C141.412 108.493 149.896 90.9178 147.311 78.3843C146.073 72.384 142.186 71.2023 138.594 75.1332C134.766 79.3211 132.928 86.428 131.372 92.2363C129.382 99.6597 128.177 107.407 127.826 115.219Z" fill="#FC947A"/>
<path d="M133.316 85.3179C133.289 85.318 133.262 85.3141 133.235 85.3061C133.095 85.2618 133.015 85.1099 133.058 84.9665C133.71 82.8124 134.672 80.7747 135.917 78.9103C136 78.7861 136.166 78.7539 136.288 78.8376C136.41 78.9218 136.442 79.0904 136.359 79.2147C135.144 81.0349 134.206 83.0234 133.57 85.1257C133.535 85.242 133.429 85.3172 133.316 85.3179Z" fill="#D56455"/>
<path d="M129.127 26.9977C130.365 27.2835 131.554 27.7642 132.694 28.334C134.042 29.0073 135.341 29.8178 136.414 30.8903C138.631 33.1065 139.715 36.2862 140.078 39.4396C140.691 44.7651 139.168 50.4693 138.459 55.7498C137.856 60.2422 137.496 64.826 138.232 69.2931C138.994 73.9135 140.983 77.7979 144.207 81.0782C143.435 81.1932 143.192 80.727 142.698 80.3011C142.08 79.7675 141.358 79.3664 140.719 78.8487C135.426 74.568 132.07 67.6171 131.359 60.8248C130.552 53.106 134.538 43.3062 128.981 36.7505C127.594 35.1142 125.801 33.9151 123.916 32.9624C123.176 32.5884 118.58 31.1617 118.632 30.4121C118.722 29.1092 121.471 27.6424 122.583 27.3001C124.729 26.6394 126.938 26.5261 129.127 26.9977Z" fill="#8B443B"/>
<path d="M135.723 67.2812C135.626 67.2866 135.53 67.2309 135.486 67.1335C134.762 65.5029 134.259 63.7771 133.994 62.0029C133.561 59.1169 133.768 56.1567 133.967 53.2942C134.044 52.2007 134.123 51.0697 134.165 49.9618C134.355 44.893 133.56 41.2978 131.663 38.6467C131.582 38.5334 131.605 38.3733 131.715 38.2889C131.824 38.204 131.979 38.2277 132.061 38.3415C134.028 41.0907 134.854 44.7887 134.659 49.9801C134.616 51.0963 134.537 52.2314 134.461 53.3295C134.263 56.1637 134.058 59.0941 134.483 61.9232C134.741 63.6502 135.23 65.3311 135.936 66.9182C135.992 67.0467 135.938 67.1987 135.814 67.2577C135.785 67.2722 135.754 67.2795 135.723 67.2812Z" fill="#5F2521"/>
<path d="M135.697 58.3517C135.566 58.3592 135.452 58.2603 135.437 58.1246C135.22 56.031 135.708 53.9473 136.18 51.9321C136.275 51.5237 136.371 51.1158 136.461 50.7087C137.282 46.9783 137.615 43.152 137.451 39.3359C137.387 37.8513 137.24 36.124 136.624 34.5725C135.491 31.7183 132.72 29.6358 129.729 29.391C129.593 29.3793 129.491 29.2562 129.503 29.116C129.514 28.9752 129.635 28.8727 129.771 28.8813C132.942 29.1414 135.881 31.3499 137.083 34.3777C137.728 36.0011 137.882 37.7828 137.947 39.3118C138.113 43.1732 137.775 47.0449 136.945 50.8198C136.855 51.2294 136.758 51.6395 136.662 52.0505C136.2 54.0227 135.722 56.0632 135.931 58.0694C135.946 58.2097 135.847 58.3356 135.71 58.351C135.706 58.3517 135.701 58.3515 135.697 58.3517Z" fill="#5F2521"/>
<path d="M102.379 61.7202C102.757 62.9402 103.03 64.0506 103.72 65.1445C104.467 66.3294 105.409 67.3626 106.364 68.3617C107.274 69.315 108.289 70.2971 109.579 70.4874C110.543 70.6289 111.532 70.3013 112.422 69.8469C114.971 68.5474 116.903 66.2907 119.031 64.3828C124.707 59.2936 133.854 50.4774 129.706 41.9828C127.45 37.3634 124.061 33.1321 119.473 30.9174C114.254 28.3983 108.642 29.2316 104.195 32.8533C98.1765 37.7545 96.6781 46.9692 99.3709 53.9405C100.002 55.575 100.85 57.1052 101.451 58.7528C101.806 59.7238 102.073 60.73 102.379 61.7202Z" fill="#FC947A"/>
<path d="M109.59 52.7125C109.893 53.4949 109.787 54.2897 109.351 54.4894C108.916 54.6885 108.317 54.2163 108.013 53.4345C107.71 52.6527 107.817 51.8573 108.252 51.6577C108.688 51.4585 109.287 51.9307 109.59 52.7125Z" fill="#331616"/>
<path d="M102.012 55.401C102.315 56.1829 102.209 56.9782 101.773 57.1779C101.338 57.377 100.739 56.9048 100.435 56.1229C100.131 55.3412 100.239 54.5458 100.674 54.3461C101.109 54.147 101.709 54.6192 102.012 55.401Z" fill="#331616"/>
<path d="M109.923 64.5581C110.768 63.601 111.284 62.3373 111.35 61.0581C111.343 61.2098 108.835 62.6551 108.547 62.8364C107.697 63.3732 106.8 63.7745 105.827 63.9653C106.077 64.5722 106.382 66.2057 107.142 66.2495C108.065 66.3015 109.339 65.2195 109.923 64.5581Z" fill="white"/>
<path d="M105.879 62.0935C105.835 62.0971 105.789 62.0901 105.747 62.0695L104.317 61.3853C104.058 61.2618 103.667 61.075 103.483 60.6914C103.355 60.4249 103.356 60.1283 103.358 59.8911L103.379 56.2441C103.379 56.0948 103.5 55.9782 103.645 55.9741C103.79 55.974 103.908 56.0957 103.907 56.245L103.886 59.8919C103.885 60.0822 103.884 60.2979 103.957 60.4509C104.051 60.6481 104.278 60.7681 104.542 60.8943L105.972 61.579C106.104 61.6418 106.161 61.8027 106.098 61.9382C106.056 62.03 105.971 62.086 105.879 62.0935Z" fill="#D56455"/>
<path d="M107.102 41.2828C107.386 41.098 107.667 40.9098 107.945 40.7163C108.227 40.52 108.518 40.3143 108.854 40.2476C109.687 40.0819 110.426 40.8109 110.848 41.5522C111.271 42.2936 111.593 43.1583 112.312 43.6108C112.871 43.963 113.568 43.9941 114.189 44.2195C115.166 44.5751 115.796 45.3529 116.41 46.1535C116.685 46.5114 117.766 48.3212 118.183 48.3297C118.606 48.3386 118.944 47.9312 119.035 47.5128C119.177 46.8649 118.935 46.3211 119.244 45.6597C119.546 45.0157 120.092 44.4859 120.723 44.1756C121.119 43.9807 121.557 43.8555 121.996 43.8794C122.435 43.9039 122.874 44.0886 123.154 44.4299C123.344 44.6622 123.453 44.9519 123.531 45.2435C123.85 46.4429 123.5 47.3324 123.275 48.4672C123.04 49.6488 122.951 50.8751 122.953 52.0783C122.955 54.4614 123.375 56.8697 124.339 59.0498C125.7 58.2091 127.135 56.4925 128.204 55.2693C131.636 51.3416 132.18 45.3891 130.378 40.6523C128.504 35.7294 124.458 31.8747 119.833 29.4329C118.755 28.8637 117.63 28.3582 116.438 28.1145C114.805 27.7804 113.107 27.9484 111.473 28.2849C108.222 28.954 105.055 30.3243 102.607 32.5931C99.3737 35.5918 96.4092 41.5768 98.1086 46.1148C99.2423 44.8255 100.681 44.5886 102.232 43.9097C103.922 43.1703 105.552 42.2905 107.102 41.2828Z" fill="#8B443B"/>
<path d="M113.023 41.9534C112.928 41.9611 112.833 41.914 112.784 41.8247C112.717 41.7022 112.762 41.548 112.883 41.4799C117.278 39.0329 119.954 36.3091 121.062 33.1527C121.108 33.0212 121.252 32.9513 121.382 32.9977C121.512 33.0439 121.58 33.1876 121.534 33.3196C120.383 36.5981 117.632 39.4126 113.125 41.9235C113.092 41.9413 113.058 41.9507 113.023 41.9534Z" fill="#5F2521"/>
<path d="M100.815 43.4032C100.794 43.4049 100.772 43.4041 100.751 43.4002C100.614 43.3758 100.524 43.2451 100.549 43.1083C100.811 41.6561 101.592 40.3761 102.156 39.5403C105.685 34.3127 111.789 30.8341 118.048 30.4549C118.186 30.4464 118.305 30.5521 118.313 30.6909C118.321 30.8296 118.229 30.9409 118.076 30.9577C111.961 31.3179 106.014 34.7209 102.571 39.8214C101.715 41.0901 101.229 42.1626 101.042 43.1962C101.022 43.3115 100.926 43.3944 100.815 43.4032Z" fill="#5F2521"/>
<path d="M106.525 40.2264C106.461 40.2315 106.395 40.2125 106.342 40.1668C106.237 40.0764 106.226 39.9171 106.317 39.8123C108.339 37.473 110.135 35.7972 111.967 34.5402C114.32 32.9258 117.771 32.1191 120.012 31.9182L120.015 31.918C120.152 31.9071 120.272 32.0084 120.284 32.146C120.296 32.2841 120.193 32.406 120.055 32.4184C117.875 32.614 114.523 33.3952 112.251 34.9545C110.455 36.1865 108.69 37.8346 106.696 40.1404C106.651 40.1928 106.589 40.2214 106.525 40.2264Z" fill="#5F2521"/>
<path d="M124.547 54.372C124.5 54.3757 124.452 54.3663 124.408 54.3412C124.289 54.2723 124.246 54.1169 124.314 53.9937C126.493 49.9844 127.453 45.2632 127.017 40.6993C126.729 37.6838 125.846 35.3287 124.394 33.7004C124.301 33.5967 124.308 33.4348 124.409 33.339C124.511 33.2427 124.667 33.2502 124.759 33.3534C126.285 35.0644 127.21 37.5184 127.51 40.6469C127.956 45.3134 126.974 50.1414 124.745 54.2413C124.703 54.319 124.627 54.3655 124.547 54.372Z" fill="#5F2521"/>
<path d="M125.537 34.6495C125.488 34.6535 125.438 34.6444 125.39 34.6223C125.272 34.5663 125.177 34.4293 125.201 34.2836C124.353 33.5343 123.604 32.701 122.905 31.8422C122.586 31.6156 122.275 31.3806 121.969 31.1489L119.353 29.1688C119.243 29.0852 119.22 28.9265 119.304 28.8146C119.387 28.7028 119.543 28.6794 119.655 28.7629L121.721 30.3263C121.631 30.2101 121.543 30.0933 121.455 29.977C121.094 29.5023 120.686 28.9644 120.511 28.3198C120.481 28.2109 120.526 28.0955 120.622 28.036C120.716 27.977 120.838 27.988 120.92 28.0641C122.748 29.7484 124.563 31.5013 126.314 33.2751C126.409 33.3715 126.411 33.5274 126.318 33.6273C126.226 33.7272 126.072 33.7356 125.971 33.6458C125.644 33.3568 125.243 33.1683 124.818 32.969C124.684 32.9062 124.55 32.8429 124.418 32.7768C124.395 32.7655 124.372 32.7536 124.349 32.7423C124.752 33.176 125.174 33.5903 125.621 33.9753C125.848 34.1708 125.84 34.3817 125.756 34.5139C125.705 34.5947 125.624 34.6425 125.537 34.6495ZM123.248 31.466C123.696 31.7823 124.158 32.0796 124.642 32.3229C124.647 32.3255 124.652 32.3277 124.657 32.3303C123.694 31.3781 122.717 30.4351 121.733 29.5096C121.773 29.5627 121.813 29.6153 121.853 29.6675C122.307 30.2667 122.768 30.8735 123.248 31.466Z" fill="#5F2521"/>
<path d="M119.728 29.5939C119.623 29.6023 119.522 29.5445 119.479 29.444C119.417 29.3004 119.359 29.1555 119.305 29.0082C119.24 28.9982 119.176 28.9851 119.111 28.9681C118.307 28.7625 117.57 28.2854 116.856 27.8241C116.657 27.6956 116.461 27.5689 116.269 27.452C115.401 26.924 114.464 26.3549 113.954 25.4146C113.645 24.8446 113.569 24.1103 113.755 23.4979C113.904 23.0097 114.197 22.6392 114.605 22.4263C115.211 22.1081 116.029 22.1938 116.689 22.6427C117.287 23.0494 117.685 23.6604 117.994 24.204C118.294 24.7291 118.555 25.27 118.786 25.8133C118.814 25.099 118.965 24.5508 119.25 24.1058C119.628 23.5165 120.411 23.0349 121.181 23.2554C121.914 23.4656 122.312 24.2039 122.381 24.8419C122.496 25.8901 121.992 27.5729 120.978 28.4636C120.634 28.7652 120.261 28.9484 119.876 29.0084C119.901 29.0976 119.925 29.1859 119.949 29.2732C119.985 29.4013 119.916 29.5356 119.792 29.5801C119.77 29.5879 119.749 29.5922 119.728 29.5939ZM119.408 27.4693C119.526 27.8245 119.634 28.1753 119.735 28.5171C120.051 28.4845 120.357 28.3392 120.649 28.0828C121.512 27.3246 121.985 25.8243 121.884 24.8987C121.834 24.4437 121.549 23.8875 121.042 23.7418C120.507 23.5881 119.948 23.9467 119.67 24.3793C119.4 24.8002 119.277 25.3518 119.283 26.1172C119.285 26.5683 119.328 27.0223 119.408 27.4693ZM115.3 22.7445C115.134 22.7579 114.975 22.8012 114.833 22.8749C114.474 23.0631 114.309 23.397 114.234 23.6444C114.086 24.1311 114.148 24.7159 114.394 25.1708C114.84 25.9919 115.677 26.5006 116.487 26.9927C116.725 27.1378 116.925 27.2667 117.127 27.398C117.772 27.8147 118.436 28.245 119.122 28.4469C119.041 28.1678 118.974 27.8846 118.921 27.5983C118.573 26.5542 118.138 25.473 117.56 24.4571C117.278 23.9635 116.921 23.4116 116.407 23.062C116.059 22.8248 115.66 22.7154 115.3 22.7445Z" fill="#5F2521"/>
<path d="M121.075 49.6201C121.051 49.6221 121.026 49.619 121.002 49.6103C120.713 49.5062 120.523 49.1864 120.551 48.8484C120.573 48.5771 120.728 48.3104 120.974 48.1178C121.024 48.0796 121.075 48.0448 121.127 48.0099C121.191 47.9664 121.257 47.9238 121.313 47.8702C121.389 47.7982 121.43 47.7112 121.418 47.6478C121.406 47.5901 121.347 47.5301 121.262 47.4901C121.173 47.4489 121.134 47.3408 121.175 47.2497C121.216 47.1586 121.321 47.1189 121.411 47.1595C121.603 47.249 121.733 47.4007 121.767 47.575C121.804 47.7648 121.724 47.9745 121.554 48.1358C121.483 48.2033 121.403 48.2584 121.321 48.3135C121.277 48.3431 121.232 48.3728 121.19 48.4058C121.023 48.5358 120.92 48.7081 120.906 48.8771C120.892 49.0477 120.986 49.2191 121.121 49.2678C121.213 49.3011 121.262 49.4048 121.229 49.4994C121.205 49.5692 121.143 49.6146 121.075 49.6201Z" fill="#D56455"/>
<path d="M106.798 48.5245C106.446 48.6728 106.092 48.8534 105.855 49.1589C105.617 49.4639 105.523 49.9239 105.723 50.2767C105.918 50.6203 106.336 50.7709 106.71 50.7473C107.083 50.7233 107.427 50.559 107.769 50.409C108.828 49.9447 109.94 49.6022 111.079 49.3885C111.736 49.2656 113.201 49.4507 112.505 48.576C111.383 47.1649 108.04 48.0007 106.798 48.5245Z" fill="#77312C"/>
<path d="M100.445 51.2256C100.734 51.1495 101.04 51.0949 101.337 51.1858C101.634 51.2763 101.92 51.546 101.972 51.8908C102.023 52.2267 101.84 52.5427 101.599 52.7155C101.357 52.8888 101.065 52.9499 100.781 53.0195C100.462 53.0979 100.146 53.1908 99.8349 53.2979C99.5516 53.3957 99.2523 53.5342 98.9473 53.5378C98.804 53.5401 98.6539 53.494 98.5606 53.3852C98.4694 53.2789 98.4457 53.1313 98.4316 52.9915C98.4106 52.7739 98.4057 52.5491 98.4725 52.3402C98.6041 51.9343 99.0412 51.7737 99.3977 51.6115C99.7356 51.4573 100.085 51.3199 100.445 51.2256Z" fill="#77312C"/>
</g>
</g>
</g>
<defs>
<clipPath id="clip0_468_6946">
<rect width="605" height="307" fill="white" transform="translate(-162 0.242188)"/>
</clipPath>
</defs>
</svg>
