<svg width="375" height="401" viewBox="0 0 375 401" fill="none" xmlns="http://www.w3.org/2000/svg">
<g clip-path="url(#clip0_468_7885)">
<mask id="mask0_468_7885" style="mask-type:luminance" maskUnits="userSpaceOnUse" x="-23" y="0" width="400" height="401">
<path d="M377 0.257812H-23V400.258H377V0.257812Z" fill="white"/>
</mask>
<g mask="url(#mask0_468_7885)">
<path d="M212.665 54.3832C212.665 54.3832 219.604 126.542 218.716 145.203C217.828 163.863 258.361 130.622 263.974 149.472C269.588 168.322 263.599 226.253 271.002 233.264C278.404 240.275 224.919 262.934 222.276 263.683C219.634 264.432 90.1624 260.111 90.1624 260.111C90.1624 260.111 70.0546 206.939 57.7502 251.474C37.5551 233.892 38.194 210.183 38.194 210.183L114.08 151.375L125.909 97.0944C140.689 82.9429 175.75 51.0599 193.302 41.1697L212.665 54.3832Z" fill="#EDE3DC"/>
<path d="M212.715 54.8295C212.715 54.8295 219.653 126.989 218.766 145.649C217.878 164.31 258.41 131.069 264.024 149.919C269.637 168.768 263.649 226.7 271.051 233.71C278.453 240.721 224.968 263.381 222.326 264.129C219.683 264.878 90.2117 260.557 90.2117 260.557C90.2117 260.557 70.1039 207.385 57.7995 251.92C37.6044 234.338 38.2433 210.63 38.2433 210.63L114.129 151.821L125.959 97.5407C140.739 83.3892 175.799 51.5061 193.351 41.616L212.715 54.8295Z" fill="#E69766"/>
<path d="M212.715 54.8295C212.715 54.8295 219.653 126.989 218.766 145.649C217.878 164.31 258.41 131.069 264.024 149.919C269.637 168.768 263.649 226.7 271.051 233.71C278.453 240.721 224.968 263.381 222.326 264.129C219.683 264.878 90.2117 260.557 90.2117 260.557C90.2117 260.557 70.1039 207.385 57.7995 251.92C37.6044 234.338 38.2433 210.63 38.2433 210.63L114.129 151.821L125.959 97.5407C140.739 83.3892 175.799 51.5061 193.351 41.616L212.715 54.8295Z" fill="#E69766"/>
<path d="M208.255 84.0675C203.652 106.532 177.192 106.927 171.024 84.0675C164.895 85.5314 160.191 71.808 169.662 73.1232C169.662 73.1232 165.063 47.6166 177.438 40.0024C205.669 26.3348 216.801 55.454 210.299 72.6914C217.296 72.1157 216.033 84.737 208.255 84.0675Z" fill="#EEB5AA"/>
<path d="M196.693 44.4181C181.091 75.0392 134.407 55.6753 137.248 130.602C140.582 203.478 16.3642 174.557 57.7504 251.474C57.7504 251.474 -6.05459 219.245 49.9198 188.332C105.894 157.419 96.0224 143.278 103.736 101.367C109.462 70.2546 135.092 79.0107 149.208 65.8731C163.324 52.7354 166.539 34.266 180.91 36.9455C195.282 39.625 196.693 44.4181 196.693 44.4181Z" fill="#E69766"/>
<path d="M57.7837 251.784C49.6264 248.732 41.3107 240.628 38.0204 226.253C32.2977 190.274 80.5878 172.169 116.003 156.865C128.342 151.99 126.765 136.405 125.096 119.904C119.524 84.6277 129.994 75.4209 158.745 64.072C167.431 60.3923 174.293 57.4865 175.397 52.8821C178.758 38.8686 189.053 39.0102 189.158 39.0137C191.545 39.9296 178.842 38.566 176.003 53.0278C174.825 57.9375 167.835 60.8972 158.986 64.6446C130.399 76.0205 120.241 84.6886 125.716 119.842C127.408 136.583 129.008 152.396 116.234 157.445C70.8528 173.972 7.20104 209.641 53.798 249.22C42.0595 238.045 42.6204 217.076 49.5374 202.738C63.4982 175.221 99.1177 168.682 122.207 156.21C130.964 150.719 131.101 139.865 131.274 126.124C130.305 98.7892 136.989 72.039 164.104 63.6234C170.114 60.9747 175.306 58.6881 178.222 54.6655C187.735 41.8487 193.294 41.8343 193.771 42.6504C193.439 43.1647 187.964 42.2391 178.727 55.0303C175.711 59.19 170.448 61.5078 164.354 64.1917C137.296 72.6933 131.023 98.9651 131.898 126.133C131.721 140.062 131.582 151.066 122.537 156.737C99.5679 169.187 63.9561 175.704 50.0952 203.015C42.0803 218.706 43.671 242.534 57.7837 251.784Z" fill="#A95E32"/>
<path d="M57.6053 251.75C-3.03258 220.927 49.5786 184.424 90.5528 165.51C131.596 143.143 99.5147 111.984 111.136 89.54C127.264 65.1507 152.807 77.4066 166.815 51.0234C169.265 38.0454 182.401 37.4778 182.533 37.4729L182.553 38.0947C182.425 38.0979 169.783 38.6582 167.426 51.1381C153.859 77.857 127.72 65.6533 111.676 89.852C102.475 106.067 119.893 126.401 109.613 147.264C106.057 155.556 99.7326 161.884 90.8162 166.074C49.3685 184.924 -1.42184 221.817 57.8947 251.199L57.6053 251.75Z" fill="#A95E32"/>
<path d="M196.693 44.4184C222.793 71.5163 193.313 101.615 212.597 114.252C226.994 122.63 253.685 157.596 252.765 191.099C254.548 262.581 287.687 238.807 321.687 228.733C259.872 205.725 301.967 140.424 260.491 112.186C244.862 100.992 218.674 108.473 219.02 83.1569C221.434 50.8176 201.733 29.4861 180.91 36.9458C180.91 36.9458 195.396 39.9903 196.693 44.4184Z" fill="#E69766"/>
<path d="M356.32 304.636C363.503 341.069 18.1397 341.07 25.3501 304.629C18.1662 268.202 363.53 268.202 356.32 304.636Z" fill="#EDE3DC"/>
<path d="M200.911 93.7158C200.911 93.7158 198.486 109.761 206.175 116.197C210.104 119.487 199.317 129.556 189.157 128.877C178.945 128.193 169.041 116.077 173.14 115.614C181.207 114.704 180.936 95.5883 180.936 95.5883C180.936 95.5883 191.407 80.1793 200.911 93.7158Z" fill="#EEB5AA"/>
<path d="M201.509 94.3936C201.509 94.3936 197.023 113.275 179.581 107.403C180.543 104.339 181.037 97.2769 181.037 97.2769L201.509 94.3936Z" fill="#EEB5AA"/>
<path d="M190.375 79.1823C184.677 79.53 188.652 71.0021 189.295 70.303C189.495 69.9554 190.041 70.272 189.831 70.6193C188.213 73.1905 185.798 79.921 191.841 78.4088C193.163 78.9872 190.748 79.2556 190.375 79.1823Z" fill="#511918"/>
<path d="M202.693 65.7852C203.406 66.79 205.125 65.9321 204.212 64.4177C202.903 62.2491 199.009 61.1172 196.107 62.5377C193.581 63.7732 195.086 65.3175 196.208 64.6237C198.237 63.3687 201.353 63.8951 202.693 65.7852Z" fill="#A95E32"/>
<path d="M177.271 65.7852C176.558 66.79 174.839 65.9321 175.753 64.4177C177.061 62.2491 180.955 61.1172 183.857 62.5377C186.383 63.7732 184.878 65.3175 183.756 64.6237C181.727 63.3687 178.611 63.8951 177.271 65.7852Z" fill="#A95E32"/>
<path d="M199.455 73.5484C195.593 73.7152 194.184 68.3754 196.531 70.2565C196.565 70.3518 197.327 72.3813 199.579 72.3013C201.729 72.2281 202.016 70.5716 202.042 70.3832C203.888 68.0621 203.879 73.6647 199.455 73.5484Z" fill="black"/>
<path d="M179.946 73.5484C176.084 73.7152 174.675 68.3754 177.022 70.2565C177.056 70.3518 177.817 72.3813 180.071 72.3013C182.22 72.2281 182.508 70.5716 182.533 70.3832C184.38 68.0621 184.37 73.6647 179.946 73.5484Z" fill="black"/>
<path d="M186.144 84.1797C187.23 87.5236 192.991 87.5001 194.108 84.1797H186.144Z" fill="#CB4746"/>
<path d="M169.98 77.6379C169.08 76.8439 167.737 76.0435 167.012 76.9684C166.9 77.0974 166.705 77.1131 166.574 77.0017C166 76.2297 168.221 75.5691 169.01 76.1703C168.361 75.1942 167.453 74.288 166.527 75.3706C166.413 75.4985 166.216 75.5104 166.088 75.3961C165.712 74.6536 167.196 74.1284 167.656 74.2731C169.064 74.5441 170.911 77.4899 169.98 77.6379Z" fill="#511918"/>
<path d="M267.713 230.453C288.786 225.145 337.95 213.353 313.913 260.336L249.514 266.532L267.713 230.453Z" fill="#EEB5AA"/>
<path d="M70.5815 228.91C70.5815 228.91 74.4331 221.84 101.368 226.327C128.304 230.814 146.456 236.369 146.456 236.369L150.555 257.749L102.54 252.817L70.5815 228.91Z" fill="#EEB5AA"/>
<path d="M149.249 231.981L154.657 214.505C154.657 214.505 211.784 210.61 228.033 216.275L235.412 236.369C235.412 236.369 251.918 228.048 266.502 227.676C279.655 229.653 264.428 272.701 264.661 276.157L198.204 296.803L104.319 262.072C110.547 227.138 112.396 217.261 149.249 231.981Z" fill="#565797"/>
<path d="M229.185 242.808C228.919 242.817 228.765 242.46 228.966 242.275C229.157 242.302 235.435 235.398 235.633 236.15C235.754 236.273 235.752 236.47 235.63 236.59C235.446 236.681 229.426 242.883 229.185 242.808Z" fill="white"/>
<path d="M157.166 237.857C156.967 237.905 149.444 232.644 149.272 232.589C149.13 232.493 149.093 232.3 149.189 232.157C149.298 231.4 157.139 237.346 157.341 237.288C157.595 237.446 157.462 237.869 157.166 237.857Z" fill="white"/>
<path d="M192.72 227.036C192.05 226.916 192.685 225.076 192.545 225.15C192.574 224.75 193.207 224.8 193.166 225.203C193.166 225.203 193.118 225.765 193.03 226.753C193.016 226.914 192.88 227.036 192.72 227.036Z" fill="white"/>
<path d="M191.48 285.976C190.998 286.063 189.886 281.284 191.081 282.721C191.038 283.586 192.261 285.536 191.48 285.976ZM190.224 280.186C189.704 280.343 189.082 275.313 190.123 276.903C190.011 277.804 190.978 279.727 190.224 280.186ZM189.534 274.299C188.778 273.677 189.285 272.044 189.059 271.04C189.038 270.636 189.677 270.617 189.682 271.017C189.505 271.979 190.278 273.753 189.534 274.299ZM189.31 268.376C188.902 268.384 189.01 267.828 188.997 267.574C189.18 266.784 188.605 265.249 189.344 264.789C190.055 265.283 189.431 266.777 189.62 267.574C189.608 267.827 189.718 268.385 189.31 268.376ZM189.44 262.449C188.69 261.903 189.429 260.134 189.293 259.157C189.308 258.751 189.947 258.795 189.915 259.198C189.65 260.215 190.186 261.832 189.44 262.449ZM189.819 256.533C189.065 255.983 189.883 254.185 189.764 253.24C189.794 252.838 190.427 252.895 190.384 253.297C190.099 254.283 190.569 255.906 189.819 256.533ZM190.361 250.63C189.605 250.083 190.467 248.281 190.36 247.338C190.399 246.936 191.028 247.003 190.979 247.404C190.682 248.388 191.111 250.003 190.361 250.63ZM190.991 244.736C190.24 244.262 191.108 242.316 190.993 241.445C191.029 241.043 191.66 241.107 191.612 241.509C191.324 242.467 191.745 244.105 190.991 244.736ZM191.604 238.841C190.853 238.359 191.709 236.383 191.585 235.549C191.617 235.148 192.25 235.206 192.205 235.609C191.925 236.531 192.359 238.202 191.604 238.841ZM192.179 232.939C191.427 232.444 192.282 230.39 192.143 229.647C192.171 229.244 192.806 229.302 192.763 229.704C192.494 230.536 192.938 232.285 192.179 232.939Z" fill="white"/>
<path d="M192.856 290.276C192.341 290.267 191.553 287.356 192.636 288.398C192.663 288.941 193.612 290.028 192.856 290.276Z" fill="white"/>
<path d="M186.628 255.458C185.868 255.477 182.012 254.54 183.763 254.077C183.949 254.526 188.055 254.696 186.628 255.458ZM181.483 252.525C180.866 252.469 180.499 249.027 181.18 248.826C181.615 248.847 181.465 249.379 181.487 249.662C181.236 250.59 182.174 252.372 181.483 252.525ZM181.328 246.333C180.572 245.763 181.372 244.007 181.271 242.886C181.298 242.483 181.934 242.54 181.891 242.942C181.586 244.104 182.079 245.69 181.328 246.333ZM181.889 240.123C181.131 239.607 182.024 237.6 181.923 236.677C181.964 236.279 182.594 236.347 182.542 236.749C182.229 237.762 182.651 239.448 181.889 240.123ZM182.603 233.929C181.844 233.477 182.787 231.272 182.685 230.484C182.731 230.083 183.36 230.164 183.303 230.564C182.988 231.491 183.372 233.235 182.603 233.929ZM183.404 227.743C183.218 227.744 183.069 227.575 183.095 227.39C183.353 225.489 183.526 224.29 183.526 224.29C184.539 223.253 183.972 225.326 183.712 227.473C183.691 227.629 183.557 227.743 183.404 227.743Z" fill="white"/>
<path d="M305.943 226.645C292.772 229.386 278.117 236.866 259.521 242.686C240.925 248.506 188.487 292.463 188.487 292.463L218.411 301.272C224.046 298.675 314.502 278.524 324.84 246.952C324.838 239.561 319.114 223.905 305.943 226.645Z" fill="#EEB5AA"/>
<path d="M81.1312 226.645C94.3024 229.386 108.957 236.866 127.553 242.686C146.15 248.506 198.588 292.463 198.588 292.463L168.664 301.272C163.028 298.675 72.5723 278.524 62.2344 246.952C62.2362 239.561 67.96 223.905 81.1312 226.645Z" fill="#EEB5AA"/>
<path d="M271.759 238.794C269.042 238.676 288.574 231.853 298.297 229.553C288.168 233.576 271.748 238.519 271.759 238.794Z" fill="#511918"/>
<path d="M110.345 236.924C110.141 236.539 102.644 234.547 84.2632 228.971C102.613 232.866 112.211 236.571 110.345 236.924Z" fill="#511918"/>
<path d="M212.099 273.534C212.099 273.534 226.748 295.419 230.946 297.731C225.667 300.378 186.545 306.648 169.333 313.966C165.351 315.43 157.387 319.812 151.549 320.536C147.321 321.061 131.239 318.721 125.286 307.836C115.554 290.04 152.592 302.694 159.495 294.797C169.979 282.804 182.281 290.523 190.835 286.095C199.389 281.666 212.099 273.534 212.099 273.534Z" fill="white"/>
<path d="M200.42 276.261C200.42 276.261 204.149 299.056 217.149 304.635C230.149 310.214 229.185 303.085 229.185 303.085C229.185 303.085 207.758 276.345 208.177 271.312C208.596 266.28 200.42 276.261 200.42 276.261Z" fill="#FDCA5D"/>
<path d="M222.85 302.829C212.268 299.407 195.93 266.3 199.515 265.55C200.312 265.224 201.22 265.606 201.545 266.401C204.909 274.632 215.395 296.681 223.417 299.823C225.001 300.382 224.506 302.891 222.85 302.829Z" fill="white"/>
<path d="M176.315 274.33C176.315 274.33 158.938 295.323 154.657 297.478C185.195 308.578 222.68 334.071 254.229 328.295C258.266 326.927 267.177 320.301 266.047 314.333C262.272 294.404 253.717 293.639 238.248 292.193C203.165 291.226 199.126 292.822 176.315 274.33Z" fill="white"/>
<path d="M182.594 271.967C182.594 271.967 170.696 293.653 157.056 301.271C142.523 309.388 172.262 306.922 172.262 306.922C172.262 306.922 184.838 291.858 188.935 280.548C190.155 277.181 182.594 271.967 182.594 271.967Z" fill="#FDCA5D"/>
<path d="M154.658 312.931C153.119 312.981 152.493 310.726 153.911 310.01C178.945 296.736 185.538 267.774 189.486 268.295C192.315 269.559 187.55 276.723 181.861 286.618C176.523 294.728 167.33 306.908 154.658 312.931Z" fill="white"/>
<path d="M229.085 298.406C221.777 299.184 203.366 293.491 192.027 285.893C191.681 285.708 191.971 285.146 192.328 285.35C192.418 285.399 201.356 290.341 204.546 291.913C216.463 298.295 230.493 296.978 229.085 298.406Z" fill="#511918"/>
<path d="M185.809 308.148C185.513 307.781 154.114 298.222 154.362 297.382C154.578 296.506 185.517 307.734 185.907 307.541C186.232 307.639 186.153 308.161 185.809 308.148Z" fill="#511918"/>
<path d="M216.33 231.664C212.28 232.231 208.968 228.251 208.465 225.314C208.394 225.143 208.47 224.938 208.653 224.88C209.347 224.83 209.85 228.585 211.885 229.846C215.424 232.581 223.361 229.738 223.441 229.71C225.312 230.312 219.698 231.61 216.33 231.664Z" fill="white"/>
<path d="M166.526 229.956C163.592 229.941 157.29 227.95 159.351 227.543C166.501 230.802 171.103 229.604 173.839 222.467C175.97 221.276 171.021 230.665 166.526 229.956Z" fill="white"/>
<path d="M151.55 240.717C151.411 240.717 151.285 240.624 151.249 240.484L149.146 232.41C149.103 232.244 149.202 232.074 149.369 232.031C149.937 231.49 151.669 240.263 151.851 240.327C151.904 240.52 151.75 240.719 151.55 240.717Z" fill="white"/>
<path d="M226.481 239.744C226.145 239.755 226.05 239.241 226.38 239.138L235.311 236.074C235.473 236.019 235.65 236.105 235.706 236.268C236.15 236.838 226.645 239.559 226.481 239.744Z" fill="white"/>
<path d="M273.086 174.493C274.765 176.227 275.49 180.714 275.976 182.418C280.058 196.728 271.086 215.659 259.243 215.031C258.211 214.977 253.994 212.384 253.396 211.696C247.041 206.082 240.787 194.769 234.398 172.351C236.353 184.739 233.075 195.057 231.748 198.369C228.08 207.513 239.908 215.042 222.742 221.562C202.088 229.405 163.183 222.396 155.131 215.678C143.097 205.64 158.783 205.932 151.65 195.382C145.082 185.667 148.974 170.298 148.974 170.298C145.191 178.938 136.955 200.732 122.97 209.943C101.695 224.182 95.6841 194.306 100.978 184.078C101.654 182.769 103.579 176.631 106.649 174.635C120.316 151.805 137.527 119.678 173.138 115.614C179.295 129.939 200.241 135.726 206.607 116.302C248.14 121.622 262.536 153.629 273.086 174.493Z" fill="#FDCA5D"/>
<path d="M187.674 213.554C182.046 213.322 175.01 212.914 169.684 210.11C189.458 216.048 205.329 211.187 214.55 204.628C225.109 198.135 230.066 187.958 230.493 189.866C224.978 199.636 204.79 214.804 187.674 213.554Z" fill="#565797"/>
<path d="M189.535 204.933C171.429 204.302 155.937 196.662 155.887 195.61C156.814 195.104 171.294 204.203 189.54 204.31C189.932 204.307 189.943 204.941 189.535 204.933Z" fill="#565797"/>
<path d="M167.134 117.019C171.757 137.083 206.13 142.026 211.848 117.621L206.608 116.303C199.484 134.081 180.279 131.301 173.14 115.614L167.134 117.019Z" fill="#565797"/>
<path d="M148.974 170.61C145.227 167.965 144.457 159.707 145.795 161.501C145.795 161.552 145.774 166.449 148.75 169.637L150.246 158.583C150.269 158.413 150.428 158.294 150.596 158.316C150.767 158.339 150.886 158.496 150.863 158.666L149.283 170.341C149.265 170.493 149.127 170.613 148.974 170.61Z" fill="#565797"/>
<path d="M234.343 172.932C234.175 172.935 234.026 172.787 234.032 172.618L234.125 164.159C234.126 163.987 234.268 163.849 234.439 163.851C235.119 163.525 234.51 171.757 234.662 171.895C237.62 168.915 239.523 160.808 240.256 160.993C240.876 161.389 237.353 170.735 234.343 172.932Z" fill="#565797"/>
<path d="M120.927 212.337C114.307 214.565 107.278 214.419 100.22 210.071C96.132 207.553 92.0335 203.621 88.005 197.926C78.9778 185.301 64.6285 168.913 63.6099 161.007C62.418 137.371 89.075 125.099 101.011 152.943C102.634 158.099 106.731 164.388 109.898 168.774C112.204 171.968 114.018 174.15 114.018 174.15C114.055 174.113 114.096 174.074 114.133 174.037C115.031 175.383 116.05 176.668 117.155 177.639C120.043 180.178 131.465 205.011 120.927 212.337Z" fill="#FDCA5D"/>
<path d="M71.1709 144.353C61.638 156.952 68.7081 162.369 78.3953 149.889C87.9277 137.291 80.858 131.873 71.1709 144.353Z" fill="#FDCA5D"/>
<path d="M77.0119 136.393L81.7257 144.525C81.7257 144.525 78.9491 151.11 72.9998 155.267C71.2645 152.435 65.9789 141.892 65.9789 141.892" fill="#EEB5AA"/>
<path d="M69.7443 146.788C68.0222 146.997 44.1792 142.092 46.4463 135.873C48.4261 135.029 44.6661 132.994 47.3208 132.124C47.3208 132.124 47.0482 130.531 46.6701 129.359C46.2461 128.046 47.8086 128.817 47.8086 128.817C47.8086 128.817 49.6383 128.824 49.5386 127.284C49.4389 125.744 49.4561 119.232 51.0923 118.35C52.7286 117.468 60.2496 117.743 61.605 117.753C63.8265 117.77 65.1752 120.279 62.059 121.005C58.3894 121.859 54.8402 122.401 54.8402 122.401L56.2659 125.662C59.2942 127.21 67.217 135.108 67.9978 126.849C65.4835 123.542 64.2731 121.675 65.2294 120.192C66.4784 118.256 68.5698 119.251 71.7461 123.822C74.9223 128.394 76.9229 129.04 77.4596 133.268C77.4596 133.268 79.6479 145.266 69.7443 146.788Z" fill="#EEB5AA"/>
<path d="M71.9199 138.04C71.8258 138.011 66.5668 136.094 67.2828 129.614C67.3237 129.215 67.9516 129.282 67.901 129.684C66.8853 136.57 73.9097 137.514 71.9199 138.04Z" fill="#511918"/>
<path d="M48.1232 113.736C46.4839 113.056 44.3108 117.55 44.3108 117.55C44.3108 117.55 43.0535 123.05 43.2348 124.591C43.4161 126.131 47.5009 132.757 47.5009 132.757L53.8316 129.954C53.8316 129.954 48.1038 124.612 47.6982 123.787C46.3689 121.279 50.9819 114.63 48.1232 113.736Z" fill="#EEB5AA"/>
<path d="M39.011 120.812C35.7113 122.985 39.0062 129.544 40.4388 131.956C41.3227 132.917 49.5995 135.4 49.5995 135.4L53.1285 130.627C53.1285 130.627 43.4211 128.696 43.0521 128.031C42.6831 127.365 40.7373 120.205 39.011 120.812Z" fill="#EEB5AA"/>
<path d="M44.5921 127.54C41.2924 129.712 44.5873 136.271 46.0199 138.683C46.9038 139.644 55.1806 142.128 55.1806 142.128L58.7097 137.354C58.7097 137.354 48.4503 135.424 48.0813 134.758C47.7123 134.092 46.3184 126.932 44.5921 127.54Z" fill="#EEB5AA"/>
<path d="M52.5679 136.981C50.6185 136.004 47.5352 135.507 47.3714 133.038C46.9133 131.386 45.9601 127.948 44.9952 127.445C43.2117 127.383 43.3328 131.297 43.8644 132.89C42.8102 135.107 42.2191 126.929 44.5066 126.828C46.7844 126.475 47.4065 131.668 48.3713 134.188C48.5694 134.541 50.8048 135.606 52.7626 136.391C53.1164 136.523 52.9327 137.087 52.5679 136.981Z" fill="#511918"/>
<path d="M53.7891 129.373C53.6662 129.364 49.4247 126.034 49.3168 125.98C49.1803 125.876 49.1545 125.68 49.2588 125.544C49.3799 124.818 53.8664 128.851 54.0579 128.825C54.3282 129.019 54.1028 129.468 53.7891 129.373Z" fill="#511918"/>
<path d="M50.9701 131.956C50.797 131.737 46.0901 130.195 46.5152 129.667C46.5844 129.51 46.7676 129.439 46.9254 129.507C46.9354 129.676 52.9586 131.64 50.9701 131.956Z" fill="#511918"/>
<path d="M120.085 191.505C119.932 191.464 119.831 191.313 119.857 191.153C121.541 181.029 113.427 174.76 113.792 173.938C114.276 173.169 122.974 182.844 120.085 191.505Z" fill="#565797"/>
<path d="M308.589 165.183C301.463 170.829 293.172 208.722 274.532 213.741C274.232 213.822 273.928 213.9 273.627 213.977C267.811 215.487 262.09 216.256 255.48 212.575C254.798 211.959 254.127 211.256 253.471 210.458C244.834 199.949 260.898 180.179 264.283 176.132C265.421 174.773 266.212 173.333 266.763 172.023C266.784 172.049 266.805 172.075 266.826 172.101C267.173 171.447 267.615 170.214 268.154 168.569C272.096 156.571 281.282 122.68 296.742 132.439C304.574 136.596 317.636 158.015 308.589 165.183Z" fill="#FDCA5D"/>
<path d="M294.518 145.099C303.682 157.968 310.969 152.846 301.964 139.865C292.8 126.997 285.514 132.119 294.518 145.099Z" fill="#FDCA5D"/>
<path d="M305.626 142.136C307.358 142.045 329.997 133.1 326.691 127.365C324.595 126.876 327.948 124.221 325.183 123.823C325.183 123.823 325.177 122.207 325.347 120.987C325.538 119.621 324.132 120.65 324.132 120.65C324.132 120.65 322.331 120.973 322.164 119.438C321.996 117.904 320.856 111.493 319.092 110.906C317.328 110.32 309.968 111.888 308.634 112.132C306.449 112.532 305.553 115.236 308.748 115.413C312.509 115.621 316.099 115.543 316.099 115.543L315.258 119.001C312.541 121.048 306.1 130.195 303.906 122.194C305.812 118.504 306.682 116.455 305.485 115.16C303.921 113.467 302.032 114.809 299.692 119.86C297.352 124.911 295.493 125.892 295.694 130.15C295.763 131.615 296.563 139.23 305.626 142.136Z" fill="#EEB5AA"/>
<path d="M301.91 133.915C300.138 133.525 306.646 131.568 304.49 124.97C304.368 124.587 304.984 124.405 305.088 124.795C306.854 131.12 302.126 133.838 301.91 133.915Z" fill="#511918"/>
<path d="M297.824 131.338L292.609 142.018C292.609 142.018 296.343 149.192 300.998 151.609C303.172 148.863 306.994 141.049 306.994 141.049" fill="#EEB5AA"/>
<path d="M321.221 105.849C322.718 104.896 325.634 108.947 325.634 108.947C325.634 108.947 327.821 114.149 327.908 115.697C327.996 117.246 325.115 124.477 325.115 124.477L318.396 122.809C318.396 122.809 323.116 116.558 323.374 115.676C324.257 113.02 318.559 107.191 321.221 105.849Z" fill="#EEB5AA"/>
<path d="M331.417 111.247C335.042 112.818 332.928 119.846 331.933 122.47C331.229 123.569 323.504 127.443 323.504 127.443L319.204 123.35C319.204 123.35 328.433 119.774 328.682 119.054C328.931 118.335 329.612 110.946 331.417 111.247Z" fill="#EEB5AA"/>
<path d="M327.081 118.836C330.706 120.407 328.591 127.435 327.597 130.059C326.892 131.158 319.167 135.032 319.167 135.032L314.868 130.938C314.868 130.938 324.64 127.267 324.889 126.548C325.137 125.829 325.275 118.535 327.081 118.836Z" fill="#EEB5AA"/>
<path d="M320.79 129.534C320.466 129.614 320.261 129.138 320.56 128.965C322.352 127.854 324.371 126.419 324.506 126.038C324.806 123.665 325.121 118.991 326.288 118.319C328.871 117.219 329.67 122.193 329.335 124.075C329.277 124.476 328.654 124.379 328.72 123.981C328.97 122.318 328.412 118.445 326.667 118.813C325.803 119.475 325.458 123.027 325.292 124.733C325.554 127.187 322.56 128.279 320.79 129.534Z" fill="#511918"/>
<path d="M318.274 122.251C317.991 122.323 317.768 121.948 317.978 121.736C318.19 121.711 321.876 116.998 322.139 117.676C322.265 117.792 322.274 117.989 322.157 118.116L318.436 122.158C318.391 122.207 318.334 122.237 318.274 122.251Z" fill="#511918"/>
<path d="M321.497 124.309C319.69 124.196 325.151 121.359 325.121 121.177C325.453 120.95 325.806 121.476 325.466 121.696C325.342 121.751 321.635 124.292 321.497 124.309Z" fill="#511918"/>
<path d="M265.763 188.127C261.018 181.156 266.553 170.998 266.997 171.841C267.58 172.432 261.882 179.536 265.976 187.684C266.067 187.861 265.959 188.087 265.763 188.127Z" fill="#565797"/>
</g>
<g clip-path="url(#clip1_468_7885)">
<mask id="mask1_468_7885" style="mask-type:luminance" maskUnits="userSpaceOnUse" x="-23" y="0" width="1920" height="1081">
<path d="M1897 0.257812H-23V1080.26H1897V0.257812Z" fill="white"/>
</mask>
<g mask="url(#mask1_468_7885)">
<mask id="mask2_468_7885" style="mask-type:luminance" maskUnits="userSpaceOnUse" x="187" y="100" width="1577" height="904">
<path d="M187 100.258H1764V1003.26H187V100.258Z" fill="white"/>
</mask>
<g mask="url(#mask2_468_7885)">
<path d="M1727.12 1002.42H230.06C230.06 1002.42 164.44 915.798 195.78 811.938C227.12 708.088 307.62 628.728 281.65 508.558C250.82 365.868 323.02 245.518 450.87 261.048C552.33 273.378 640.28 243.548 713.1 207.008C724.17 201.448 734.9 195.738 745.28 189.988C760.88 181.348 775.67 172.638 789.63 164.288C795.45 160.808 801.12 157.388 806.65 154.058C815.61 148.678 824.18 143.538 832.36 138.768C838.24 135.338 843.91 132.108 849.39 129.128C865.39 120.378 879.68 113.688 892.21 110.238C894.03 109.728 895.81 109.298 897.56 108.938C914.76 105.388 930.93 103.058 946.16 101.808C1017.99 95.8783 1069.11 113.758 1111.16 139.168C1115.26 141.638 1119.27 144.188 1123.21 146.798C1175.25 181.238 1214.11 225.558 1264.67 244.968C1268.61 246.478 1272.62 247.848 1276.72 249.028C1283.43 250.998 1290.37 252.508 1297.58 253.488C1375.51 264.108 1437.92 281.478 1487.07 306.218C1504.85 315.168 1520.89 325.088 1535.3 336.008C1598.86 384.128 1630.71 451.648 1639.92 541.198C1641.51 556.618 1642.43 572.688 1642.71 589.428C1642.97 604.078 1642.75 619.228 1642.08 634.908C1642.07 635.268 1642.05 635.638 1642.05 636.008C1641.97 640.857 1642.77 646.027 1644.28 651.488C1644.31 651.598 1644.34 651.708 1644.38 651.828C1648.4 666.088 1657.32 682.298 1668.56 700.098C1719.35 780.468 1817.63 892.988 1727.12 1002.42Z" fill="#DFE9FA"/>
</g>
</g>
</g>
</g>
<defs>
<clipPath id="clip0_468_7885">
<rect width="400" height="400" fill="white" transform="translate(-23 0.257812)"/>
</clipPath>
<clipPath id="clip1_468_7885">
<rect width="1920" height="1080" fill="white" transform="translate(-23 0.257812)"/>
</clipPath>
</defs>
</svg>
