<svg width="49" height="49" viewBox="0 0 49 49" fill="none" xmlns="http://www.w3.org/2000/svg">
<rect x="0.457031" y="0.294922" width="48" height="48" rx="10" fill="#01a809"/>
<path fill-rule="evenodd" clip-rule="evenodd" d="M19.2586 13.895C18.9138 13.895 18.5832 14.032 18.3394 14.2758C18.0956 14.5196 17.9586 14.8502 17.9586 15.195V16.495H16.6586C15.969 16.495 15.3077 16.7689 14.8201 17.2565C14.3325 17.7441 14.0586 18.4055 14.0586 19.095V32.095C14.0586 32.7846 14.3325 33.4459 14.8201 33.9335C15.3077 34.4211 15.969 34.695 16.6586 34.695H32.2586C32.9482 34.695 33.6095 34.4211 34.0971 33.9335C34.5847 33.4459 34.8586 32.7846 34.8586 32.095V19.095C34.8586 18.4055 34.5847 17.7441 34.0971 17.2565C33.6095 16.7689 32.9482 16.495 32.2586 16.495H30.9586V15.195C30.9586 14.8502 30.8216 14.5196 30.5778 14.2758C30.334 14.032 30.0034 13.895 29.6586 13.895C29.3138 13.895 28.9832 14.032 28.7394 14.2758C28.4956 14.5196 28.3586 14.8502 28.3586 15.195V16.495H20.5586V15.195C20.5586 14.8502 20.4216 14.5196 20.1778 14.2758C19.934 14.032 19.6034 13.895 19.2586 13.895ZM19.2586 20.395C18.9138 20.395 18.5832 20.532 18.3394 20.7758C18.0956 21.0196 17.9586 21.3502 17.9586 21.695C17.9586 22.0398 18.0956 22.3705 18.3394 22.6143C18.5832 22.8581 18.9138 22.995 19.2586 22.995H29.6586C30.0034 22.995 30.334 22.8581 30.5778 22.6143C30.8216 22.3705 30.9586 22.0398 30.9586 21.695C30.9586 21.3502 30.8216 21.0196 30.5778 20.7758C30.334 20.532 30.0034 20.395 29.6586 20.395H19.2586Z" fill="white"/>
</svg>
