<svg width="49" height="49" viewBox="0 0 49 49" fill="none" xmlns="http://www.w3.org/2000/svg">
<g clip-path="url(#clip0_2237_1834)">
<path d="M48.5454 34.7642L35.2188 48.1147L28.7827 41.6548L30.936 39.5015L35.2188 43.7603L46.3921 32.6108L48.5454 34.7642ZM24.5 9.1875V21.4375H33.6875V24.5H21.4375V9.1875H24.5ZM22.9688 42.875C23.224 42.875 23.4792 42.867 23.7344 42.8511C23.9896 42.8351 24.2448 42.8192 24.5 42.8032L27.2275 45.5308C26.5098 45.6584 25.8 45.7541 25.0981 45.8179C24.3963 45.8817 23.6865 45.9215 22.9688 45.9375C20.8633 45.9375 18.8376 45.6663 16.8916 45.124C14.9456 44.5817 13.1113 43.8081 11.3887 42.8032C9.66602 41.7983 8.11882 40.6021 6.74707 39.2144C5.37533 37.8267 4.17904 36.2715 3.1582 34.5488C2.13737 32.8262 1.36377 30.9998 0.837402 29.0698C0.311035 27.1398 0.031901 25.1061 0 22.9688C0 20.8633 0.271159 18.8376 0.813477 16.8916C1.35579 14.9456 2.12939 13.1113 3.13428 11.3887C4.13916 9.66602 5.33545 8.11882 6.72314 6.74707C8.11084 5.37533 9.66602 4.17904 11.3887 3.1582C13.1113 2.13737 14.9377 1.36377 16.8677 0.837402C18.7977 0.311035 20.8314 0.031901 22.9688 0C25.0742 0 27.0999 0.271159 29.0459 0.813477C30.9919 1.35579 32.8262 2.12939 34.5488 3.13428C36.2715 4.13916 37.8187 5.33545 39.1904 6.72314C40.5622 8.11084 41.7585 9.66602 42.7793 11.3887C43.8001 13.1113 44.5737 14.9377 45.1001 16.8677C45.6265 18.7977 45.9056 20.8314 45.9375 22.9688C45.9375 23.7663 45.8896 24.5718 45.7939 25.3853L41.7744 29.4287C42.5081 27.3073 42.875 25.154 42.875 22.9688C42.875 21.1344 42.6357 19.3719 42.1572 17.6812C41.6787 15.9904 41.0088 14.4113 40.1475 12.9438C39.2861 11.4764 38.2493 10.1286 37.0371 8.90039C35.8249 7.6722 34.485 6.63542 33.0176 5.79004C31.5501 4.94466 29.9631 4.27474 28.2563 3.78027C26.5496 3.28581 24.7871 3.04655 22.9688 3.0625C21.1344 3.0625 19.3719 3.30176 17.6812 3.78027C15.9904 4.25879 14.4113 4.92871 12.9438 5.79004C11.4764 6.65137 10.1286 7.68815 8.90039 8.90039C7.6722 10.1126 6.63542 11.4525 5.79004 12.9199C4.94466 14.3874 4.27474 15.9744 3.78027 17.6812C3.28581 19.3879 3.04655 21.1504 3.0625 22.9688C3.0625 24.8031 3.30176 26.5656 3.78027 28.2563C4.25879 29.9471 4.92871 31.5262 5.79004 32.9937C6.65137 34.4611 7.68815 35.8089 8.90039 37.0371C10.1126 38.2653 11.4525 39.3021 12.9199 40.1475C14.3874 40.9928 15.9744 41.6628 17.6812 42.1572C19.3879 42.6517 21.1504 42.891 22.9688 42.875Z" fill="black"/>
</g>
<defs>
<clipPath id="clip0_2237_1834">
<rect width="49" height="49" fill="white"/>
</clipPath>
</defs>
</svg>
