<svg width="22" height="21" viewBox="0 0 22 21" fill="none" xmlns="http://www.w3.org/2000/svg">
<g clip-path="url(#clip0_59_579)">
<path d="M20.2955 16.8308V7.51535C20.2955 7.23916 20.0606 7.01536 19.7706 7.01536H16.8027V4.87312C16.8027 4.59692 16.5677 4.37313 16.2777 4.37313H14.0152V3.67034C14.0152 2.23036 12.7853 1.05884 11.2734 1.05884C9.7616 1.05884 8.53171 2.23036 8.53171 3.67034V4.37313H6.2692C5.9792 4.37313 5.74421 4.59692 5.74421 4.87312V7.01536H2.77632C2.48638 7.01536 2.25133 7.23916 2.25133 7.51535V16.8308C1.43409 16.8448 0.773438 17.4812 0.773438 18.2629V18.5079C0.773438 19.2983 1.44858 19.9413 2.27842 19.9413H20.2685C21.0983 19.9413 21.7734 19.2983 21.7734 18.5079V18.2629C21.7734 17.4812 21.1128 16.8448 20.2955 16.8308ZM6.2692 14.9635H16.2777C16.5677 14.9635 16.8027 14.7397 16.8027 14.4635V9.72279H17.6014V16.7277H4.94552V9.72272H5.74421V14.4634C5.74421 14.7396 5.9792 14.9635 6.2692 14.9635ZM19.2456 8.01535V16.7277H18.6515V9.22273C18.6515 8.94653 18.4165 8.72274 18.1265 8.72274H16.8027V8.01535H19.2456ZM9.5817 3.67034C9.5817 2.78175 10.3406 2.05882 11.2734 2.05882C12.2062 2.05882 12.9652 2.78175 12.9652 3.67034V4.37313H9.5817V3.67034ZM6.7942 5.37311H8.53171V6.2293C8.53171 6.5055 8.7667 6.7293 9.05671 6.7293C9.34671 6.7293 9.5817 6.5055 9.5817 6.2293V5.37311H12.9652V6.2293C12.9652 6.5055 13.2002 6.7293 13.4902 6.7293C13.7802 6.7293 14.0152 6.5055 14.0152 6.2293V5.37311H15.7527V13.9634H6.7942V5.37311ZM3.30131 8.01535H5.74421V8.72274H4.42053C4.13052 8.72274 3.89554 8.94653 3.89554 9.22273V16.7276H3.30138L3.30131 8.01535ZM20.7235 18.5079C20.7235 18.7469 20.5193 18.9413 20.2685 18.9413H2.27842C2.02754 18.9413 1.82342 18.7469 1.82342 18.5079V18.2629C1.82342 18.0239 2.02754 17.8295 2.27842 17.8295H20.2685C20.5193 17.8295 20.7235 18.0239 20.7235 18.2629V18.5079Z" fill="#C7C7C7"/>
<path d="M12.8052 10.74L9.39935 9.43921L10.7615 12.691L11.0935 11.7075L12.4666 13.018L13.1475 12.3678L11.7748 11.0571L12.8052 10.74Z" fill="#C7C7C7"/>
</g>
<defs>
<clipPath id="clip0_59_579">
<rect width="21" height="20" fill="white" transform="translate(0.773438 0.5)"/>
</clipPath>
</defs>
</svg>
