<svg width="60" height="61" viewBox="0 0 60 61" fill="none" xmlns="http://www.w3.org/2000/svg">
<path fill-rule="evenodd" clip-rule="evenodd" d="M5 2.76172C3.6193 2.76172 2.5 3.88102 2.5 5.26172C2.5 6.64242 3.6193 7.76172 5 7.76172H8.04805L16.9586 43.404C14.3319 44.5707 12.5 47.2022 12.5 50.2617C12.5 54.404 15.8579 57.7617 20 57.7617C24.1421 57.7617 27.5 54.404 27.5 50.2617C27.5 49.3852 27.3495 48.5437 27.0732 47.7617H37.9268C37.6505 48.5437 37.5 49.3852 37.5 50.2617C37.5 54.404 40.8577 57.7617 45 57.7617C49.1423 57.7617 52.5 54.404 52.5 50.2617C52.5 46.1195 49.1423 42.7617 45 42.7617H21.9519L20.7019 37.7617H45C50.1605 37.7617 53.2548 34.5015 54.9718 30.9015C56.6498 27.3835 57.2338 23.179 57.4375 20.1209C57.721 15.8621 54.2007 12.7617 50.3027 12.7617H14.4519L12.8988 6.54904C12.3423 4.32319 10.3424 2.76172 8.04805 2.76172H5ZM45 32.7617H19.4519L15.7019 17.7617H50.3027C51.6855 17.7617 52.5158 18.7786 52.4485 19.7887C52.2585 22.6422 51.7265 26.0912 50.459 28.749C49.2305 31.3245 47.5502 32.7617 45 32.7617ZM45 52.7462C43.6277 52.7462 42.5155 51.634 42.5155 50.2617C42.5155 48.8895 43.6277 47.7772 45 47.7772C46.3723 47.7772 47.4845 48.8895 47.4845 50.2617C47.4845 51.634 46.3723 52.7462 45 52.7462ZM17.5154 50.2617C17.5154 51.634 18.6278 52.7462 20 52.7462C21.3722 52.7462 22.4846 51.634 22.4846 50.2617C22.4846 48.8895 21.3722 47.7772 20 47.7772C18.6278 47.7772 17.5154 48.8895 17.5154 50.2617Z" fill="#0F0F0F"/>
</svg>
