<svg width="26" height="26" viewBox="0 0 26 26" fill="none" xmlns="http://www.w3.org/2000/svg">
<path d="M3.68522 16.0564C3.68519 16.0564 3.68517 16.0564 3.68514 16.0565M3.68522 16.0564L3.68494 16.0566L3.68514 16.0565M3.68522 16.0564L3.68514 16.0565M3.68522 16.0564L3.68514 16.0565M19.4602 13.7196L19.4037 14.1439L19.7402 14.4084L21.6611 15.9184L19.8752 19.0064L17.5978 18.0916L17.1986 17.9312L16.8586 18.1948C16.3981 18.552 15.8947 18.8496 15.3481 19.072L14.9487 19.2345L14.8882 19.6614L14.544 22.0896H10.9779L10.6337 19.6614L10.5732 19.2345L10.1737 19.072C9.63098 18.8512 9.13583 18.554 8.65746 18.1904L8.3188 17.933L7.9241 18.0916L5.64664 19.0064L3.86136 15.9193L5.79972 14.4106L6.15231 14.1362L6.07886 13.6955C6.03538 13.4346 6.01615 13.1339 6.01615 12.8396C6.01615 12.5752 6.05082 12.277 6.09969 11.9837L6.17315 11.543L5.82055 11.2686L3.88179 9.75958L5.65749 6.67302L7.93452 7.58764L8.32779 7.74561L8.66601 7.49021C9.13714 7.13446 9.64316 6.82731 10.1842 6.60724L10.5836 6.44474L10.6441 6.01776L10.9883 3.5896H14.5544L14.8986 6.01776L14.9591 6.44474L15.3585 6.60724C15.9013 6.82802 16.3965 7.12524 16.8748 7.4888L17.2135 7.74618L17.6082 7.58764L19.8857 6.67284L21.6709 9.7599L19.7326 11.2686L19.38 11.543L19.4534 11.9837C19.497 12.2451 19.5161 12.5355 19.5161 12.8396C19.5161 13.1526 19.4972 13.4423 19.4602 13.7196ZM8.26615 12.8396C8.26615 15.3163 10.2894 17.3396 12.7661 17.3396C15.2429 17.3396 17.2661 15.3163 17.2661 12.8396C17.2661 10.3629 15.2429 8.3396 12.7661 8.3396C10.2894 8.3396 8.26615 10.3629 8.26615 12.8396Z" stroke="white" stroke-opacity="0.5" stroke-width="1.5"/>
</svg>
