<svg width="21" height="21" viewBox="0 0 21 21" fill="none" xmlns="http://www.w3.org/2000/svg">
<path d="M18.0161 11.0382C18.0578 10.7257 18.0786 10.4028 18.0786 10.0591C18.0786 9.72575 18.0578 9.39242 18.0057 9.07992L20.1203 7.43408C20.3078 7.28825 20.3599 7.007 20.2453 6.79867L18.2453 3.34033C18.1203 3.11117 17.8599 3.03825 17.6307 3.11117L15.1411 4.11117C14.6203 3.71533 14.0682 3.382 13.4536 3.132L13.0786 0.486165C13.037 0.236165 12.8286 0.059082 12.5786 0.059082H8.57864C8.32864 0.059082 8.13073 0.236165 8.08906 0.486165L7.71406 3.132C7.09948 3.382 6.53698 3.72575 6.02656 4.11117L3.53698 3.11117C3.30781 3.02783 3.0474 3.11117 2.9224 3.34033L0.932813 6.79867C0.807813 7.01742 0.849479 7.28825 1.05781 7.43408L3.1724 9.07992C3.12031 9.39242 3.07865 9.73617 3.07865 10.0591C3.07865 10.382 3.09948 10.7257 3.15156 11.0382L1.03698 12.6841C0.849479 12.8299 0.797396 13.1112 0.91198 13.3195L2.91198 16.7778C3.03698 17.007 3.2974 17.0799 3.52656 17.007L6.01615 16.007C6.53698 16.4028 7.08906 16.7362 7.70364 16.9862L8.07865 19.632C8.13073 19.882 8.32864 20.0591 8.57864 20.0591H12.5786C12.8286 20.0591 13.037 19.882 13.0682 19.632L13.4432 16.9862C14.0578 16.7362 14.6203 16.4028 15.1307 16.007L17.6203 17.007C17.8495 17.0903 18.1099 17.007 18.2349 16.7778L20.2349 13.3195C20.3599 13.0903 20.3078 12.8299 20.1099 12.6841L18.0161 11.0382ZM10.5786 13.8091C8.51614 13.8091 6.82865 12.1216 6.82865 10.0591C6.82865 7.99658 8.51614 6.30908 10.5786 6.30908C12.6411 6.30908 14.3286 7.99658 14.3286 10.0591C14.3286 12.1216 12.6411 13.8091 10.5786 13.8091Z" fill="black"/>
</svg>
