<svg width="17" height="19" viewBox="0 0 17 19" fill="none" xmlns="http://www.w3.org/2000/svg">
<path fill-rule="evenodd" clip-rule="evenodd" d="M10.069 3.53138C10.069 1.84385 11.5058 0.47583 13.278 0.47583C15.0502 0.47583 16.487 1.84385 16.487 3.53138C16.487 5.21892 15.0502 6.58694 13.278 6.58694C12.3831 6.58694 11.5744 6.23796 10.993 5.67651L6.55069 8.56954C6.59171 8.76479 6.61327 8.96646 6.61327 9.17243C6.61327 9.58035 6.52894 9.9703 6.37617 10.3267L11.2471 13.3878C11.8 12.9573 12.5073 12.698 13.278 12.698C15.0502 12.698 16.487 14.0661 16.487 15.7536C16.487 17.4411 15.0502 18.8092 13.278 18.8092C11.5058 18.8092 10.069 17.4411 10.069 15.7536C10.069 15.3116 10.1679 14.8909 10.3457 14.511L5.51413 11.4746C4.95052 11.9431 4.21226 12.228 3.40427 12.228C1.63202 12.228 0.195312 10.8599 0.195312 9.17243C0.195312 7.48487 1.63202 6.11686 3.40427 6.11686C4.42338 6.11686 5.33057 6.56914 5.91795 7.27308L10.2232 4.46922C10.1231 4.17329 10.069 3.85796 10.069 3.53138Z" fill="#01a809"/>
</svg>
