<svg width="22" height="20" viewBox="0 0 22 20" fill="none" xmlns="http://www.w3.org/2000/svg">
<path fill-rule="evenodd" clip-rule="evenodd" d="M1.05795 6.71984L1.59338 13.8588C1.77849 16.7979 4.19849 19.0971 7.14323 19.1317H14.9276C17.8729 19.0978 20.2937 16.7985 20.4789 13.8588L21.0143 6.71984C21.1522 5.15394 20.6319 3.60133 19.5785 2.43462C18.5249 1.26791 17.0333 0.592429 15.4616 0.570312H6.60923C5.03768 0.592829 3.54643 1.26848 2.49326 2.43513C1.4401 3.6018 0.920069 5.15419 1.05795 6.71984Z" stroke="black" stroke-linecap="round" stroke-linejoin="round"/>
<path d="M14.5361 4.75757C14.5361 6.008 13.869 7.16347 12.7861 7.78868C11.7032 8.4139 10.369 8.4139 9.28613 7.78868C8.20323 7.16347 7.53613 6.008 7.53613 4.75757" stroke="black" stroke-linecap="round" stroke-linejoin="round"/>
</svg>
