<svg width="69" height="117" viewBox="0 0 69 117" fill="none" xmlns="http://www.w3.org/2000/svg">
<g id="Group 56294">
<path id="Ellipse 240" d="M46.6777 12.6855C46.6777 15.9307 45.3418 20.7595 43.1395 24.7811C42.0431 26.783 40.7616 28.5294 39.3778 29.763C37.9922 30.9983 36.5751 31.6596 35.1777 31.6596C33.7804 31.6596 32.3633 30.9983 30.9776 29.763C29.5939 28.5294 28.3123 26.783 27.216 24.7811C25.0136 20.7595 23.6777 15.9307 23.6777 12.6855C23.6777 6.33427 28.8265 1.18555 35.1777 1.18555C41.529 1.18555 46.6777 6.33427 46.6777 12.6855Z" stroke="black" stroke-width="2"/>
<line id="Line 351" x1="1.68577" y1="104.972" x2="4.95335" y2="55.5371" stroke="black" stroke-width="2"/>
<path id="Line 353" d="M23.4059 36.7156C23.4059 36.7156 19.2198 38.1686 16.7571 39.5467C14.456 40.8344 13.1074 41.5716 11.2256 43.4187C9.32152 45.2878 8.44964 46.5847 7.21533 48.9502C5.8942 51.482 4.88592 55.882 4.88592 55.882" stroke="black" stroke-width="2"/>
<path id="Line 352" d="M19.6575 56.5485C19.7934 56.0132 19.4696 55.4691 18.9343 55.3332C18.399 55.1973 17.8548 55.5211 17.719 56.0564L19.6575 56.5485ZM16.9493 63.7635L17.9297 63.9606L16.9493 63.7635ZM14.7794 80.0206L15.7706 80.153L15.7734 80.1322L15.7753 80.1112L14.7794 80.0206ZM13.1821 91.9792L12.1909 91.8468L13.1821 91.9792ZM17.9297 63.9606C18.2205 62.5135 18.6515 60.6636 19.012 59.1672C19.1918 58.4208 19.3533 57.7656 19.4699 57.2971C19.5281 57.0629 19.5751 56.8754 19.6075 56.7466C19.6237 56.6822 19.6362 56.6325 19.6447 56.599C19.6489 56.5823 19.6521 56.5695 19.6543 56.561C19.6554 56.5568 19.6562 56.5536 19.6567 56.5515C19.657 56.5505 19.6572 56.5497 19.6573 56.5492C19.6574 56.5489 19.6574 56.5487 19.6574 56.5486C19.6575 56.5486 19.6575 56.5485 19.6575 56.5485C19.6575 56.5485 19.6575 56.5485 18.6882 56.3024C17.719 56.0564 17.719 56.0564 17.7189 56.0565C17.7189 56.0565 17.7189 56.0566 17.7189 56.0566C17.7189 56.0568 17.7188 56.057 17.7187 56.0573C17.7186 56.0579 17.7184 56.0588 17.7181 56.0599C17.7175 56.0622 17.7166 56.0655 17.7155 56.07C17.7133 56.0788 17.71 56.0918 17.7057 56.109C17.697 56.1432 17.6843 56.1936 17.6679 56.2588C17.6351 56.3891 17.5877 56.5783 17.529 56.8144C17.4116 57.2865 17.2489 57.9466 17.0676 58.6988C16.7061 60.1998 16.2676 62.0803 15.9689 63.5665L17.9297 63.9606ZM14.7794 80.0206C15.7753 80.1112 15.7753 80.1112 15.7753 80.1112C15.7753 80.1111 15.7753 80.111 15.7754 80.1109C15.7754 80.1106 15.7754 80.1102 15.7755 80.1097C15.7756 80.1086 15.7757 80.1068 15.7759 80.1045C15.7764 80.0999 15.777 80.0929 15.7779 80.0835C15.7796 80.0648 15.7822 80.0368 15.7856 79.9999C15.7925 79.926 15.8028 79.8166 15.8164 79.6749C15.8435 79.3915 15.8837 78.9791 15.9359 78.4644C16.0403 77.4348 16.1927 75.9968 16.3843 74.3634C16.7685 71.0891 17.3072 67.0584 17.9297 63.9606L15.9689 63.5665C15.3295 66.7482 14.7833 70.846 14.3979 74.1304C14.2048 75.7764 14.0514 77.2251 13.9461 78.2626C13.8935 78.7814 13.8529 79.1976 13.8255 79.4843C13.8117 79.6277 13.8013 79.7388 13.7943 79.8142C13.7907 79.8519 13.7881 79.8806 13.7863 79.9001C13.7854 79.9098 13.7847 79.9172 13.7843 79.9222C13.784 79.9247 13.7839 79.9266 13.7837 79.9279C13.7837 79.9286 13.7836 79.9291 13.7836 79.9294C13.7836 79.9296 13.7836 79.9297 13.7836 79.9298C13.7836 79.9299 13.7836 79.93 14.7794 80.0206ZM12.5759 104.07L14.1733 92.1116L12.1909 91.8468L10.5935 103.805L12.5759 104.07ZM14.1733 92.1116L15.7706 80.153L13.7882 79.8882L12.1909 91.8468L14.1733 92.1116Z" fill="black"/>
<line id="Line 354" x1="67.6506" y1="104.135" x2="64.4162" y2="55.0971" stroke="black" stroke-width="2"/>
<path id="Line 355" d="M57.8848 105.442C56.9767 96.2021 56.4676 91.0218 55.5595 81.782C54.9206 75.2218 55.1349 71.4634 53.9338 64.9825C53.2731 61.4173 51.8086 55.9443 51.8086 55.9443" stroke="black" stroke-width="2" stroke-linecap="round"/>
<path id="Line 356" d="M46.6416 36.7452C49.2424 37.9588 50.8828 38.3079 53.3014 39.853C55.299 41.1291 58.0314 43.6568 58.0314 43.6568C58.0314 43.6568 60.8001 46.6403 62.0399 48.8999C63.3633 51.3118 63.9024 52.8327 64.3936 55.5396" stroke="black" stroke-width="2"/>
<line id="Line 357" x1="23.0111" y1="36.7529" x2="47.0853" y2="36.8798" stroke="black" stroke-width="2"/>
<path id="Line 358" d="M18.6326 56.5254C18.6326 56.5254 19.9472 62.0375 20.34 65.7932C20.7983 70.1763 21.1015 71.4097 21.276 75.8132C21.431 79.7254 21.0754 82.7205 20.9204 86.6326C20.7459 91.0361 19.5144 94.8509 19.1694 99.2444C18.6554 105.79 19.1694 108.09 19.1694 115.081" stroke="black" stroke-width="2" stroke-linecap="round"/>
<path id="Line 359" d="M51.6797 56.52C51.6797 56.52 49.8935 60.7894 49.2148 63.6601C48.2211 67.8635 48.2807 70.361 48.2751 74.6803C48.2694 79.0661 48.8719 81.499 49.2148 85.8713C49.4607 89.0064 49.4814 90.7744 49.8128 93.9015C50.2464 97.9928 51.0462 100.221 51.3505 104.324C51.6614 108.516 51.3505 115.088 51.3505 115.088" stroke="black" stroke-width="2" stroke-linecap="round"/>
<path id="Line 360" d="M35.1777 104.475L35.1777 115.082" stroke="black" stroke-width="2" stroke-linecap="round"/>
<path id="Line 361" d="M1.76171 103.968C1.76171 103.968 1.59746 105.026 1.76287 105.67C1.8946 106.183 2.06465 106.447 2.35306 106.891C2.96307 107.831 3.48472 108.317 4.49676 108.797C5.43641 109.242 6.08119 109.368 7.11683 109.273C8.29968 109.165 8.99022 108.827 9.91554 108.082C10.5975 107.533 10.6055 107.378 10.9645 106.58C11.3976 105.616 11.605 103.663 11.605 103.663" stroke="black" stroke-width="2"/>
<path id="Line 362" d="M67.6421 103.574C67.6421 103.574 67.7944 104.765 67.7426 105.428C67.7014 105.956 67.7009 106.378 67.4919 106.866C67.0497 107.898 66.6161 108.468 65.6937 109.118C64.8373 109.721 64.2181 109.957 63.1716 110.045C61.9764 110.146 61.2306 109.934 60.1801 109.363C59.4059 108.942 59.3707 108.79 58.874 108.067C58.2746 107.194 57.8209 105.07 57.8209 105.07" stroke="black" stroke-width="2"/>
</g>
</svg>
