<svg width="19" height="18" viewBox="0 0 19 18" fill="none" xmlns="http://www.w3.org/2000/svg">
<path d="M18.39 12.6263L17.31 12.1163C17.16 12.0263 16.95 12.0263 16.8 12.1163L10.35 15.1763C9.99 15.3563 9.54 15.3563 9.18 15.1763L2.7 12.1163C2.55 12.0263 2.34 12.0263 2.19 12.1163L1.11 12.6263C0.63 12.8663 0.63 13.4963 1.11 13.7363L9.15 17.5463C9.51 17.7263 9.96 17.7263 10.32 17.5463L18.36 13.7363C18.87 13.4963 18.87 12.8363 18.39 12.6263Z" fill="black"/>
<path d="M18.39 8.42613L17.28 7.91613C17.13 7.82613 16.92 7.82613 16.77 7.91613L10.35 10.9761C9.99 11.1561 9.54 11.1561 9.18 10.9761L2.73 7.91613C2.58 7.82613 2.37 7.82613 2.22 7.91613L1.11 8.42613C0.63 8.66613 0.63 9.29613 1.11 9.53613L9.15 13.3761C9.51 13.5561 9.96 13.5561 10.32 13.3761L18.36 9.56613C18.87 9.32613 18.87 8.66613 18.39 8.42613Z" fill="#7AC143"/>
<path d="M1.11 5.33625L9.15 9.14625C9.51 9.32625 9.96 9.32625 10.32 9.14625L18.36 5.33625C18.84 5.09625 18.84 4.46625 18.36 4.22625L10.32 0.41625C9.96 0.23625 9.51 0.23625 9.15 0.41625L1.11 4.25625C0.63 4.46625 0.63 5.12625 1.11 5.33625Z" fill="black"/>
</svg>
