<svg width="16" height="16" viewBox="0 0 16 16" fill="none" xmlns="http://www.w3.org/2000/svg">
<path d="M9.19168 1.68267L10.5153 4.32992C10.6937 4.69603 11.1724 5.04336 11.5761 5.11846L13.9699 5.51273C15.5 5.76619 15.8567 6.8739 14.7584 7.98162L12.8903 9.84971C12.5805 10.1595 12.4022 10.7697 12.5054 11.2109L13.0405 13.5202C13.4629 15.3413 12.4867 16.0548 10.8814 15.0973L8.63783 13.7643C8.23417 13.5202 7.55827 13.5202 7.15462 13.7643L4.91103 15.0973C3.30579 16.0454 2.32952 15.3413 2.75195 13.5202L3.28704 11.2109C3.3903 10.7791 3.21194 10.1689 2.90215 9.84971L1.03407 7.98162C-0.064255 6.88329 0.292466 5.77558 1.82261 5.51273L4.21636 5.11846C4.62002 5.05275 5.09878 4.69603 5.27714 4.32992L6.60076 1.68267C7.30482 0.246401 8.46885 0.246401 9.19168 1.68267Z" fill="#FFBE0B"/>
</svg>
