<svg width="31" height="31" viewBox="0 0 31 31" fill="none" xmlns="http://www.w3.org/2000/svg">
<path d="M6.17227 24.8274H8.74387C9.07507 24.8274 9.34387 24.5592 9.34387 24.2274V19.839C9.34387 19.5072 9.07507 19.239 8.74387 19.239H6.17227C5.84107 19.239 5.57227 19.5072 5.57227 19.839V24.2274C5.57227 24.5586 5.84107 24.8274 6.17227 24.8274ZM6.77227 20.4384H8.14387V23.6268H6.77227V20.4384Z" fill="#C7C7C7"/>
<path d="M13.8864 24.8274C14.2176 24.8274 14.4864 24.5592 14.4864 24.2274V11.8434C14.4864 11.5116 14.2176 11.2434 13.8864 11.2434H11.3148C10.9836 11.2434 10.7148 11.5116 10.7148 11.8434V24.2274C10.7148 24.5592 10.9836 24.8274 11.3148 24.8274H13.8864ZM11.9148 12.4434H13.2864V23.6274H11.9148V12.4434Z" fill="#C7C7C7"/>
<path d="M19.0294 24.8274C19.3606 24.8274 19.6294 24.5592 19.6294 24.2274V15.9456C19.6294 15.6138 19.3606 15.3456 19.0294 15.3456H16.4584C16.1272 15.3456 15.8584 15.6138 15.8584 15.9456V24.2274C15.8584 24.5592 16.1272 24.8274 16.4584 24.8274H19.0294ZM17.0584 16.5456H18.43V23.6274H17.0584V16.5456Z" fill="#C7C7C7"/>
<path d="M21.001 6.22744V24.2274C21.001 24.5592 21.2698 24.8274 21.601 24.8274H24.1726C24.5038 24.8274 24.7726 24.5592 24.7726 24.2274V6.22744C24.7726 5.89564 24.5038 5.62744 24.1726 5.62744H21.601C21.2698 5.62744 21.001 5.89564 21.001 6.22744ZM22.201 6.82744H23.5726V23.6274H22.201V6.82744Z" fill="#C7C7C7"/>
</svg>
