<svg width="68" height="70" viewBox="0 0 68 70" fill="none" xmlns="http://www.w3.org/2000/svg">
<path d="M15.2994 27.8125C17.1411 27.8125 18.8883 28.1479 20.5411 28.8188C22.1938 29.4896 23.705 30.4719 25.0744 31.7656L52.1327 58H53.8327C54.6355 58 55.3089 57.724 55.8529 57.172C56.3969 56.62 56.668 55.9377 56.6661 55.125C56.6661 54.7417 56.6302 54.3344 56.5584 53.9031C56.4866 53.4719 56.2392 53.0406 55.8161 52.6094L42.8536 39.4563L37.8244 24.075L32.5827 25.3688C30.7883 25.8479 29.1591 25.5125 27.6952 24.3625C26.2313 23.2125 25.4994 21.7031 25.4994 19.8344V13.7969L23.5161 12.7906L12.6077 27.5969C12.5605 27.6448 12.5369 27.6803 12.5369 27.7033C12.5369 27.7263 12.5133 27.7627 12.4661 27.8125H15.2994ZM15.2994 33.5625H12.0411C12.1827 33.8979 12.3603 34.2094 12.5737 34.4969C12.7872 34.7844 13.0346 35.0479 13.3161 35.2875L36.2661 56.4906C36.7855 57.0177 37.3758 57.4011 38.0369 57.6406C38.698 57.8802 39.3827 58 40.0911 58H43.9161L21.1786 35.9344C20.3758 35.1198 19.4672 34.5209 18.4529 34.1375C17.4386 33.7542 16.3874 33.5625 15.2994 33.5625ZM40.0911 63.75C38.6744 63.75 37.3286 63.4865 36.0536 62.9594C34.7786 62.4323 33.598 61.6896 32.5119 60.7313L9.49106 39.5281C7.31884 37.5156 6.10239 35.0479 5.84173 32.125C5.58106 29.2021 6.32528 26.5427 8.07439 24.1469L18.9827 9.34064C19.7855 8.23856 20.8603 7.50735 22.2071 7.14702C23.5538 6.78669 24.8402 6.94289 26.0661 7.61564L28.0494 8.62189C29.0411 9.14898 29.8089 9.86773 30.3529 10.7781C30.8969 11.6886 31.168 12.6948 31.1661 13.7969V19.8344L36.4077 18.4688C37.8244 18.0854 39.1938 18.2656 40.5161 19.0093C41.8383 19.7529 42.7355 20.8186 43.2077 22.2063L47.8119 36.2938L59.8536 48.5125C60.798 49.4709 61.4478 50.5011 61.8029 51.6031C62.158 52.7052 62.3346 53.8792 62.3327 55.125C62.3327 57.5209 61.5063 59.5573 59.8536 61.2344C58.2008 62.9115 56.1938 63.75 53.8327 63.75H40.0911Z" fill="black"/>
</svg>
