<svg width="60" height="61" viewBox="0 0 60 61" fill="none" xmlns="http://www.w3.org/2000/svg">
<path fill-rule="evenodd" clip-rule="evenodd" d="M49.5001 26.0945C48.7251 18.1445 44.0251 5.64453 29.5001 5.64453C14.9751 5.64453 10.2751 18.1445 9.50012 26.0945C6.7814 27.1264 4.98809 29.7366 5.00006 32.6445V36.1445C5.00006 40.0105 8.13413 43.1445 12.0001 43.1445C15.8661 43.1445 19.0001 40.0105 19.0001 36.1445V32.6445C18.9876 29.7994 17.2601 27.2428 14.6251 26.1695C15.1251 21.5695 17.5751 10.6445 29.5001 10.6445C41.4251 10.6445 43.8501 21.5695 44.3501 26.1695C41.7205 27.2451 40.0017 29.8034 40.0001 32.6445V36.1445C40.011 38.832 41.5541 41.2777 43.9751 42.4445C42.9251 44.4195 40.2501 47.0945 33.6751 47.8945C32.3608 45.8988 29.818 45.112 27.6062 46.0168C25.3945 46.9215 24.1321 49.2649 24.5933 51.6096C25.0545 53.9543 27.1105 55.6445 29.5001 55.6445C31.3885 55.6341 33.1098 54.5606 33.9501 52.8695C44.6751 51.6445 48.1001 46.1195 49.1751 42.8695C52.0834 41.9275 54.0393 39.2013 54.0001 36.1445V32.6445C54.0122 29.7366 52.2188 27.1264 49.5001 26.0945ZM14.0001 36.1445C14.0001 37.2491 13.1047 38.1445 12.0001 38.1445C10.8956 38.1445 10.0001 37.2491 10.0001 36.1445V32.6445C10.0001 31.93 10.3813 31.2697 11.0001 30.9125C11.6189 30.5552 12.3813 30.5552 13.0001 30.9125C13.6189 31.2697 14.0001 31.93 14.0001 32.6445V36.1445ZM45.0001 32.6445C45.0001 31.54 45.8956 30.6445 47.0001 30.6445C48.1047 30.6445 49.0001 31.54 49.0001 32.6445V36.1445C49.0001 37.2491 48.1047 38.1445 47.0001 38.1445C45.8956 38.1445 45.0001 37.2491 45.0001 36.1445V32.6445Z" fill="black"/>
</svg>
