<svg width="24" height="24" viewBox="0 0 24 24" fill="none" xmlns="http://www.w3.org/2000/svg">
<g clip-path="url(#clip0_5537_7137)">
<path d="M23.0775 13.2431L10.9907 1.15625C10.7461 0.91159 10.4035 0.86264 10.1099 0.91159L2.72078 2.57538C2.37822 2.67323 2.13356 2.91793 2.03571 3.26044L0.37197 10.6496C0.274116 10.9921 0.37197 11.2857 0.616627 11.5304L12.6545 23.5683C12.8503 23.764 13.0949 23.8619 13.3396 23.8619C13.5842 23.8619 13.8289 23.764 13.9757 23.5683L23.0775 14.5643C23.4201 14.2217 23.4201 13.5856 23.0775 13.2431ZM13.3396 21.6109L2.28037 10.5517L3.7484 4.28807L10.012 2.82003L21.0712 13.8792L13.3396 21.6109Z" fill="white"/>
<path d="M13.0951 13.0965C13.7802 12.9986 14.5142 12.8518 15.2482 12.6071L14.8567 11.3837C14.0738 11.6284 13.3887 11.922 12.8015 12.2156C12.8993 11.3348 12.9972 10.6497 12.9972 10.0625H11.725C11.7739 10.454 11.8228 11.188 11.9207 12.2156C11.4803 11.9709 10.8441 11.7262 9.91441 11.3837L9.52295 12.6071C10.208 12.8029 10.8931 12.9497 11.6271 13.0965C11.3335 13.3411 10.8931 13.8794 10.2081 14.7113L11.2357 15.4453C11.5782 15.0049 11.9208 14.4177 12.3612 13.5858C12.8016 14.3688 13.193 15.0049 13.5356 15.4453L14.5632 14.7113C13.927 13.9283 13.4376 13.3901 13.0951 13.0965Z" fill="white"/>
<path d="M7.2228 6.4419L7.076 6.29509C6.73344 5.90363 6.09733 5.95254 5.75477 6.29509C5.36331 6.63765 5.41221 7.27377 5.75477 7.61632L5.90157 7.76313C6.09733 7.95888 6.34198 8.05673 6.58664 8.05673C6.78239 8.05673 7.02705 7.95888 7.2228 7.76313C7.61426 7.42062 7.56536 6.78445 7.2228 6.4419Z" fill="white"/>
</g>
<defs>
<clipPath id="clip0_5537_7137">
<rect width="23" height="23" fill="white" transform="translate(0.334473 0.878906)"/>
</clipPath>
</defs>
</svg>
