<svg width="31" height="31" viewBox="0 0 31 31" fill="none" xmlns="http://www.w3.org/2000/svg">
<path d="M15.7656 10.8396V20.8396M4.51563 15.8396C4.51562 17.317 4.80661 18.7799 5.37198 20.1448C5.93735 21.5097 6.76601 22.7499 7.81067 23.7945C8.85533 24.8392 10.0955 25.6679 11.4604 26.2332C12.8253 26.7986 14.2883 27.0896 15.7656 27.0896C17.243 27.0896 18.7059 26.7986 20.0708 26.2332C21.4357 25.6679 22.6759 24.8392 23.7206 23.7945C24.7652 22.7499 25.5939 21.5097 26.1593 20.1448C26.7246 18.7799 27.0156 17.317 27.0156 15.8396C27.0156 14.3622 26.7246 12.8993 26.1593 11.5344C25.5939 10.1695 24.7652 8.92931 23.7206 7.88465C22.6759 6.83999 21.4357 6.01132 20.0708 5.44596C18.7059 4.88059 17.243 4.5896 15.7656 4.5896C14.2883 4.5896 12.8253 4.88059 11.4604 5.44596C10.0955 6.01132 8.85533 6.83999 7.81067 7.88465C6.76601 8.92931 5.93735 10.1695 5.37198 11.5344C4.80661 12.8993 4.51562 14.3622 4.51563 15.8396Z" stroke="white" stroke-opacity="0.5" stroke-width="2.66667" stroke-linecap="round" stroke-linejoin="round"/>
</svg>
