<?xml version="1.0" standalone="no"?>
<!DOCTYPE svg PUBLIC "-//W3C//DTD SVG 20010904//EN"
 "http://www.w3.org/TR/2001/REC-SVG-20010904/DTD/svg10.dtd">
<svg version="1.0" xmlns="http://www.w3.org/2000/svg"
 width="64.000000pt" height="64.000000pt" viewBox="0 0 64.000000 64.000000"
 preserveAspectRatio="xMidYMid meet">

<g transform="translate(0.000000,64.000000) scale(0.100000,-0.100000)"
fill="#000000" stroke="none">
<path d="M236 566 c-53 -20 -84 -44 -123 -95 -61 -79 -71 -187 -20 -225 l28
-21 39 23 c49 28 61 28 88 -1 27 -29 27 -39 0 -87 l-23 -39 21 -28 c20 -26 27
-28 85 -27 98 1 177 52 225 144 26 49 26 171 0 220 -26 49 -74 98 -121 122
-51 27 -147 33 -199 14z m185 -54 c163 -85 154 -316 -16 -393 -41 -19 -120
-25 -129 -11 -3 5 4 27 16 50 23 49 19 82 -17 117 -36 37 -72 42 -118 17 -22
-12 -43 -19 -48 -16 -15 9 -9 87 10 129 55 121 187 167 302 107z"/>
<path d="M250 485 c-15 -18 -10 -45 13 -59 34 -22 73 27 47 59 -16 19 -44 19
-60 0z"/>
<path d="M390 445 c-15 -18 -10 -45 13 -59 34 -22 73 27 47 59 -16 19 -44 19
-60 0z"/>
<path d="M150 405 c-26 -32 13 -81 48 -59 22 14 27 41 12 59 -16 19 -44 19
-60 0z"/>
<path d="M430 305 c-15 -18 -10 -45 13 -59 34 -22 73 27 47 59 -16 19 -44 19
-60 0z"/>
<path d="M350 205 c-15 -18 -10 -45 13 -59 34 -22 73 27 47 59 -16 19 -44 19
-60 0z"/>
</g>
</svg>
