<svg width="19" height="5" viewBox="0 0 19 5" fill="none" xmlns="http://www.w3.org/2000/svg">
<path d="M9.13672 3.75C9.689 3.75 10.1367 3.30228 10.1367 2.75C10.1367 2.19772 9.689 1.75 9.13672 1.75C8.58443 1.75 8.13672 2.19772 8.13672 2.75C8.13672 3.30228 8.58443 3.75 9.13672 3.75Z" stroke="#1E293B" stroke-width="2" stroke-linecap="round" stroke-linejoin="round"/>
<path d="M16.1367 3.75C16.689 3.75 17.1367 3.30228 17.1367 2.75C17.1367 2.19772 16.689 1.75 16.1367 1.75C15.5844 1.75 15.1367 2.19772 15.1367 2.75C15.1367 3.30228 15.5844 3.75 16.1367 3.75Z" stroke="#1E293B" stroke-width="2" stroke-linecap="round" stroke-linejoin="round"/>
<path d="M2.13672 3.75C2.689 3.75 3.13672 3.30228 3.13672 2.75C3.13672 2.19772 2.689 1.75 2.13672 1.75C1.58443 1.75 1.13672 2.19772 1.13672 2.75C1.13672 3.30228 1.58443 3.75 2.13672 3.75Z" stroke="#1E293B" stroke-width="2" stroke-linecap="round" stroke-linejoin="round"/>
</svg>
