<svg width="20" height="21" viewBox="0 0 20 21" fill="none" xmlns="http://www.w3.org/2000/svg">
<path d="M5.83333 9.85091V16.5176C5.83333 16.7386 5.74554 16.9506 5.58926 17.1068C5.43298 17.2631 5.22101 17.3509 5 17.3509H3.33333C3.11232 17.3509 2.90036 17.2631 2.74408 17.1068C2.5878 16.9506 2.5 16.7386 2.5 16.5176V10.6842C2.5 10.4632 2.5878 10.2513 2.74408 10.095C2.90036 9.93871 3.11232 9.85091 3.33333 9.85091H5.83333ZM5.83333 9.85091C6.71739 9.85091 7.56523 9.49972 8.19036 8.8746C8.81548 8.24948 9.16667 7.40163 9.16667 6.51758V5.68424C9.16667 5.24222 9.34226 4.81829 9.65482 4.50573C9.96738 4.19317 10.3913 4.01758 10.8333 4.01758C11.2754 4.01758 11.6993 4.19317 12.0118 4.50573C12.3244 4.81829 12.5 5.24222 12.5 5.68424V9.85091H15C15.442 9.85091 15.866 10.0265 16.1785 10.3391C16.4911 10.6516 16.6667 11.0756 16.6667 11.5176L15.8333 15.6842C15.7135 16.1955 15.4861 16.6345 15.1855 16.9351C14.8849 17.2357 14.5274 17.3816 14.1667 17.3509H8.33333C7.67029 17.3509 7.03441 17.0875 6.56557 16.6187C6.09673 16.1498 5.83333 15.514 5.83333 14.8509" stroke="#9CA3AF" stroke-width="1.5" stroke-linecap="round" stroke-linejoin="round"/>
</svg>
