<svg width="20" height="21" viewBox="0 0 20 21" fill="none" xmlns="http://www.w3.org/2000/svg">
<path d="M5.83333 11.5177V4.85102C5.83333 4.63 5.74554 4.41804 5.58926 4.26176C5.43298 4.10548 5.22101 4.01768 5 4.01768H3.33333C3.11232 4.01768 2.90036 4.10548 2.74408 4.26176C2.5878 4.41804 2.5 4.63 2.5 4.85102V10.6844C2.5 10.9054 2.5878 11.1173 2.74408 11.2736C2.90036 11.4299 3.11232 11.5177 3.33333 11.5177H5.83333ZM5.83333 11.5177C6.71739 11.5177 7.56523 11.8689 8.19036 12.494C8.81548 13.1191 9.16667 13.967 9.16667 14.851V15.6844C9.16667 16.1264 9.34226 16.5503 9.65482 16.8629C9.96738 17.1754 10.3913 17.351 10.8333 17.351C11.2754 17.351 11.6993 17.1754 12.0118 16.8629C12.3244 16.5503 12.5 16.1264 12.5 15.6844V11.5177H15C15.442 11.5177 15.866 11.3421 16.1785 11.0295C16.4911 10.717 16.6667 10.293 16.6667 9.85102L15.8333 5.68435C15.7135 5.17312 15.4861 4.73415 15.1855 4.43355C14.8849 4.13295 14.5274 3.987 14.1667 4.01768H8.33333C7.67029 4.01768 7.03441 4.28108 6.56557 4.74992C6.09673 5.21876 5.83333 5.85464 5.83333 6.51768" stroke="#9CA3AF" stroke-width="1.5" stroke-linecap="round" stroke-linejoin="round"/>
</svg>
