<svg width="15" height="17" viewBox="0 0 15 17" fill="none" xmlns="http://www.w3.org/2000/svg">
<path d="M7.5 0C11.6423 0 15 3.35775 15 7.5C15 11.6423 11.6423 15 7.5 15C3.35775 15 0 11.6423 0 7.5C0 3.35775 3.35775 0 7.5 0ZM7.5 1.5C5.9087 1.5 4.38258 2.13214 3.25736 3.25736C2.13214 4.38258 1.5 5.9087 1.5 7.5C1.5 9.0913 2.13214 10.6174 3.25736 11.7426C4.38258 12.8679 5.9087 13.5 7.5 13.5C9.0913 13.5 10.6174 12.8679 11.7426 11.7426C12.8679 10.6174 13.5 9.0913 13.5 7.5C13.5 5.9087 12.8679 4.38258 11.7426 3.25736C10.6174 2.13214 9.0913 1.5 7.5 1.5ZM7.5 3C7.6837 3.00002 7.861 3.06747 7.99828 3.18954C8.13556 3.31161 8.22326 3.47981 8.24475 3.66225L8.25 3.75V7.1895L10.2802 9.21975C10.4148 9.35472 10.4929 9.53583 10.4987 9.72629C10.5045 9.91675 10.4376 10.1023 10.3116 10.2452C10.1855 10.3881 10.0098 10.4777 9.82014 10.4958C9.63045 10.5139 9.44099 10.4591 9.29025 10.3425L9.21975 10.2802L6.96975 8.03025C6.85318 7.91358 6.77832 7.76175 6.75675 7.59825L6.75 7.5V3.75C6.75 3.55109 6.82902 3.36032 6.96967 3.21967C7.11032 3.07902 7.30109 3 7.5 3Z" fill="#509613"/>
</svg>
