<svg width="18" height="21" viewBox="0 0 18 21" fill="none" xmlns="http://www.w3.org/2000/svg">
<path fill-rule="evenodd" clip-rule="evenodd" d="M16 8C16.5046 7.99984 16.9906 8.19041 17.3605 8.5335C17.7305 8.87659 17.9572 9.34684 17.995 9.85L18 10V16C18.0002 16.5046 17.8096 16.9906 17.4665 17.3605C17.1234 17.7305 16.6532 17.9572 16.15 17.995L16 18H12C11.4954 18.0002 11.0094 17.8096 10.6395 17.4665C10.2695 17.1234 10.0428 16.6532 10.005 16.15L10 16V10C9.99984 9.49542 10.1904 9.00943 10.5335 8.63945C10.8766 8.26947 11.3468 8.04284 11.85 8.005L12 8H16ZM6 12C6.53043 12 7.03914 12.2107 7.41421 12.5858C7.78929 12.9609 8 13.4696 8 14V16C8 16.5304 7.78929 17.0391 7.41421 17.4142C7.03914 17.7893 6.53043 18 6 18H2C1.46957 18 0.960859 17.7893 0.585786 17.4142C0.210714 17.0391 0 16.5304 0 16V14C0 13.4696 0.210714 12.9609 0.585786 12.5858C0.960859 12.2107 1.46957 12 2 12H6ZM16 10H12V16H16V10ZM6 14H2V16H6V14ZM6 0C6.53043 0 7.03914 0.210714 7.41421 0.585786C7.78929 0.960859 8 1.46957 8 2V8C8 8.53043 7.78929 9.03914 7.41421 9.41421C7.03914 9.78929 6.53043 10 6 10H2C1.46957 10 0.960859 9.78929 0.585786 9.41421C0.210714 9.03914 0 8.53043 0 8V2C0 1.46957 0.210714 0.960859 0.585786 0.585786C0.960859 0.210714 1.46957 0 2 0H6ZM6 2H2V8H6V2ZM16 0C16.5304 0 17.0391 0.210714 17.4142 0.585786C17.7893 0.960859 18 1.46957 18 2V4C18 4.53043 17.7893 5.03914 17.4142 5.41421C17.0391 5.78929 16.5304 6 16 6H12C11.4696 6 10.9609 5.78929 10.5858 5.41421C10.2107 5.03914 10 4.53043 10 4V2C10 1.46957 10.2107 0.960859 10.5858 0.585786C10.9609 0.210714 11.4696 0 12 0H16ZM16 2H12V4H16V2Z" fill="black" fill-opacity="0.5"/>
</svg>
