<svg width="33" height="33" viewBox="0 0 33 33" fill="none" xmlns="http://www.w3.org/2000/svg">
<path d="M20.0258 19.2787L22.3008 15.3462C22.4471 15.1025 22.3821 14.7937 22.1708 14.615L19.7658 12.73C19.8146 12.3725 19.8471 11.9987 19.8471 11.625C19.8471 11.2513 19.8146 10.8775 19.7658 10.5038L22.1708 8.61875C22.3821 8.44 22.4471 8.13125 22.3008 7.8875L20.0258 3.955C19.8796 3.71125 19.5871 3.61375 19.3271 3.71125L16.4996 4.84875C15.9146 4.39375 15.2808 4.02 14.5821 3.7275L14.1596 0.72125C14.1323 0.589823 14.0612 0.471578 13.9578 0.38594C13.8544 0.300302 13.725 0.252364 13.5908 0.25H9.04083C8.76458 0.25 8.52083 0.46125 8.47208 0.7375L8.04958 3.74375C7.36708 4.03625 6.71708 4.41 6.13208 4.865L3.30458 3.7275C3.04458 3.63 2.75208 3.7275 2.60583 3.97125L0.330828 7.90375C0.184578 8.1475 0.249578 8.45625 0.460828 8.635L2.86583 10.52C2.81708 10.8775 2.78458 11.2513 2.78458 11.625C2.78458 11.9987 2.81708 12.3725 2.86583 12.7462L0.460828 14.6313C0.249578 14.81 0.184578 15.1188 0.330828 15.3625L2.60583 19.295C2.75208 19.5387 3.04458 19.6362 3.30458 19.5387L6.13208 18.4013C6.71708 18.8563 7.35083 19.23 8.04958 19.5225L8.47208 22.5287C8.52083 22.7887 8.76458 23 9.04083 23H13.5908C13.8671 23 14.1108 22.7887 14.1596 22.5125L14.5821 19.5063C15.2646 19.2138 15.9146 18.84 16.4996 18.385L19.3271 19.5225C19.5871 19.62 19.8796 19.5225 20.0258 19.2787ZM11.3158 14.875C9.52833 14.875 8.06583 13.4125 8.06583 11.625C8.06583 9.8375 9.52833 8.375 11.3158 8.375C13.1033 8.375 14.5658 9.8375 14.5658 11.625C14.5658 13.4125 13.1033 14.875 11.3158 14.875ZM32.6196 27.3388L31.0596 26.1362C31.0921 25.9088 31.1246 25.665 31.1246 25.4212C31.1246 25.1775 31.1083 24.9337 31.0596 24.7062L32.6033 23.5037C32.7333 23.39 32.7821 23.195 32.6846 23.0325L31.2221 20.5138C31.1408 20.3512 30.9458 20.3025 30.7671 20.3512L28.9633 21.0825C28.5896 20.79 28.1833 20.5462 27.7283 20.3675L27.4521 18.45C27.4457 18.3631 27.4072 18.2818 27.3441 18.2217C27.281 18.1617 27.1979 18.1272 27.1108 18.125H24.2021C24.0233 18.125 23.8608 18.255 23.8446 18.4338L23.5683 20.3512C23.1296 20.5462 22.7071 20.7738 22.3333 21.0662L20.5296 20.335C20.4468 20.3039 20.3556 20.3031 20.2723 20.3328C20.189 20.3626 20.1189 20.4209 20.0746 20.4975L18.6121 23.0163C18.5308 23.1788 18.5471 23.3737 18.6933 23.4875L20.2371 24.69C20.1712 25.1644 20.1712 25.6456 20.2371 26.12L18.6933 27.3225C18.5633 27.4363 18.5146 27.6313 18.6121 27.7938L20.0746 30.3125C20.1558 30.475 20.3508 30.5238 20.5296 30.475L22.3333 29.7437C22.7071 30.0362 23.1133 30.28 23.5683 30.4587L23.8446 32.3763C23.8771 32.555 24.0233 32.685 24.2021 32.685H27.1108C27.2896 32.685 27.4521 32.555 27.4683 32.3763L27.7446 30.4587C28.1833 30.2638 28.6058 30.0362 28.9633 29.7437L30.7833 30.475C30.9458 30.54 31.1408 30.475 31.2383 30.3125L32.7008 27.7938C32.7983 27.6475 32.7496 27.4525 32.6196 27.3388ZM25.6483 27.5987C25.3601 27.5986 25.0748 27.5418 24.8086 27.4314C24.5424 27.321 24.3005 27.1593 24.0968 26.9554C23.8931 26.7515 23.7315 26.5096 23.6213 26.2433C23.5111 25.977 23.4545 25.6916 23.4546 25.4034C23.4547 25.1152 23.5116 24.8298 23.6219 24.5636C23.7323 24.2974 23.8941 24.0555 24.0979 23.8518C24.3018 23.6481 24.5438 23.4866 24.8101 23.3764C25.0764 23.2662 25.3618 23.2095 25.65 23.2096C26.232 23.2098 26.7901 23.4413 27.2015 23.853C27.6129 24.2647 27.8439 24.823 27.8437 25.405C27.8435 25.987 27.6121 26.5451 27.2004 26.9566C26.7886 27.368 26.2304 27.599 25.6483 27.5987Z" fill="#01a809"/>
</svg>
