<svg width="31" height="27" viewBox="0 0 31 27" fill="none" xmlns="http://www.w3.org/2000/svg">
<path d="M12.0625 10.6201C12.6945 10.6201 13.3203 10.4956 13.9042 10.2538C14.488 10.0119 15.0186 9.65745 15.4655 9.21057C15.9123 8.76369 16.2668 8.23316 16.5087 7.64928C16.7505 7.0654 16.875 6.4396 16.875 5.80762C16.875 5.17563 16.7505 4.54983 16.5087 3.96595C16.2668 3.38207 15.9123 2.85155 15.4655 2.40467C15.0186 1.95778 14.488 1.6033 13.9042 1.36145C13.3203 1.1196 12.6945 0.995117 12.0625 0.995117C10.7861 0.995117 9.56207 1.50215 8.65955 2.40467C7.75703 3.30718 7.25 4.53126 7.25 5.80762C7.25 7.08397 7.75703 8.30805 8.65955 9.21057C9.56207 10.1131 10.7861 10.6201 12.0625 10.6201Z" fill="#01a809" stroke="#01a809" stroke-width="2" stroke-linecap="round" stroke-linejoin="round"/>
<path d="M21 10.6201L25.125 6.49512L29.25 10.6201" stroke="#01a809" stroke-width="2" stroke-linecap="round" stroke-linejoin="round"/>
<path d="M1.75 24.9201V25.7451H22.375V24.9201C22.375 21.8401 22.375 20.3001 21.7755 19.1231C21.2482 18.0883 20.4068 17.2469 19.372 16.7196C18.195 16.1201 16.655 16.1201 13.575 16.1201H10.55C7.47 16.1201 5.93 16.1201 4.753 16.7196C3.71815 17.2469 2.8768 18.0883 2.3495 19.1231C1.75 20.3001 1.75 21.8401 1.75 24.9201Z" fill="#01a809" stroke="#01a809" stroke-width="2" stroke-linecap="round" stroke-linejoin="round"/>
</svg>
