<svg width="26" height="26" viewBox="0 0 26 26" fill="none" xmlns="http://www.w3.org/2000/svg">
<g clip-path="url(#clip0_59_602)">
<path d="M5.94271 3.625H20.526C21.0786 3.625 21.6085 3.84449 21.9992 4.23519C22.3899 4.62589 22.6094 5.1558 22.6094 5.70833V20.2917C22.6094 20.8442 22.3899 21.3741 21.9992 21.7648C21.6085 22.1555 21.0786 22.375 20.526 22.375H5.94271C5.39017 22.375 4.86027 22.1555 4.46957 21.7648C4.07887 21.3741 3.85938 20.8442 3.85938 20.2917V5.70833C3.85938 5.1558 4.07887 4.62589 4.46957 4.23519C4.86027 3.84449 5.39017 3.625 5.94271 3.625ZM19.1823 10.2187C19.7247 9.82483 20.1818 9.32522 20.526 8.75C20.054 8.97682 19.5467 9.12126 19.026 9.17708C19.5705 8.80644 19.9799 8.2691 20.1927 7.64583C19.6489 7.96052 19.058 8.18562 18.4427 8.3125C18.0151 7.85505 17.4479 7.55216 16.8299 7.45116C16.2119 7.35017 15.5778 7.45677 15.0268 7.7543C14.4758 8.05183 14.0388 8.52352 13.7843 9.09567C13.5297 9.66781 13.4719 10.3082 13.6198 10.9167C12.5078 10.8528 11.4216 10.5565 10.4312 10.047C9.44084 9.5374 8.56826 8.82589 7.86979 7.95833C7.55047 8.57832 7.45794 9.29043 7.60821 9.97144C7.75849 10.6524 8.14212 11.2595 8.69271 11.6875C8.27762 11.6548 7.87356 11.5379 7.50521 11.3437C7.48891 11.9876 7.69572 12.6173 8.0906 13.126C8.48548 13.6348 9.04413 13.9914 9.67187 14.1354C9.27895 14.2033 8.8773 14.2033 8.48438 14.1354C8.64963 14.6935 8.98578 15.1856 9.44549 15.5425C9.90519 15.8995 10.4653 16.1032 11.0469 16.125C9.89072 17.0144 8.43335 17.418 6.98438 17.25C8.29139 18.151 9.85675 18.6009 11.4427 18.5312C16.0365 18.3229 19.1094 15.0833 19.1823 10.2187Z" fill="#01a809"/>
</g>
<defs>
<clipPath id="clip0_59_602">
<rect width="25" height="25" fill="white" transform="translate(0.734375 0.5)"/>
</clipPath>
</defs>
</svg>
