<svg width="21" height="21" viewBox="0 0 21 21" fill="none" xmlns="http://www.w3.org/2000/svg">
<g clip-path="url(#clip0_1375_5203)">
<path fill-rule="evenodd" clip-rule="evenodd" d="M7.24703 18.4392C14.794 18.4392 18.922 12.2828 18.922 6.94462C18.922 6.76937 18.922 6.59544 18.91 6.42216C19.713 5.85112 20.406 5.14211 20.957 4.33085C20.209 4.65772 19.414 4.87208 18.601 4.96659C19.457 4.46152 20.098 3.66803 20.405 2.73173C19.599 3.20234 18.718 3.53448 17.799 3.71269C16.245 2.08622 13.646 2.00741 11.993 3.53739C10.928 4.5239 10.475 5.99477 10.806 7.39774C7.50703 7.23431 4.43303 5.70042 2.34903 3.17704C1.26003 5.02305 1.81703 7.38374 3.62003 8.56913C2.96703 8.55042 2.32803 8.37733 1.75703 8.06425V8.11552C1.75803 10.0383 3.13503 11.694 5.04903 12.075C4.44503 12.2374 3.81103 12.261 3.19703 12.1438C3.73403 13.79 5.27503 14.9175 7.03003 14.95C5.57703 16.0743 3.78203 16.6849 1.93403 16.6829C1.60803 16.6819 1.28203 16.6632 0.957031 16.6248C2.83403 17.8102 5.01703 18.4393 7.24703 18.4363" fill="black"/>
</g>
<defs>
<clipPath id="clip0_1375_5203">
<rect width="20" height="20" fill="white" transform="translate(0.957031 0.439453)"/>
</clipPath>
</defs>
</svg>
