<svg width="31" height="31" viewBox="0 0 31 31" fill="none" xmlns="http://www.w3.org/2000/svg">
<g clip-path="url(#clip0_2063_3789)">
<path d="M21.293 3.56372L20.6777 4.09106C20.6777 4.09106 18.4841 5.88184 16.3125 8.4856C14.1409 11.0894 11.8887 14.5244 11.8887 18.1243C11.8887 20.717 12.9507 22.8777 14.6719 24.3352C16.2869 25.7012 18.4475 26.4409 20.7949 26.5325C20.9524 26.5398 21.1062 26.5618 21.2637 26.5618C21.4211 26.5618 21.575 26.5398 21.7324 26.5325C24.0798 26.4409 26.2405 25.7012 27.8555 24.3352C29.5767 22.8777 30.6387 20.717 30.6387 18.1243C30.6387 14.8833 28.3755 11.5068 26.2148 8.80786C24.0542 6.10889 21.9082 4.12036 21.9082 4.12036L21.293 3.56372ZM21.2344 6.17114C21.7214 6.63257 22.9995 7.7898 24.75 9.97974C26.8081 12.5542 28.7637 15.8354 28.7637 18.1243C28.7637 20.219 27.9507 21.8083 26.625 22.929C26.3027 23.2 25.9512 23.449 25.5703 23.6614C25.801 23.1084 25.9512 22.5078 25.9512 21.8743C25.9512 16.0149 22.8164 12.4407 22.8164 12.4407L21.1172 10.5364L21.1758 13.0852C21.1758 13.0852 21.1794 14.2791 21.0293 15.429C20.9524 16.0039 20.8462 16.5752 20.707 16.8938C20.6667 16.9854 20.6484 16.9963 20.6191 17.0403C20.5203 17.0037 20.2236 16.8572 19.9453 16.5715C19.6304 16.2493 19.418 15.927 19.418 15.927L18.5098 14.5208L17.8066 16.0442C17.8066 16.0442 16.5762 18.5527 16.5762 21.8743C16.5762 22.5078 16.7263 23.1084 16.957 23.6614C16.5762 23.449 16.2246 23.2 15.9023 22.929C14.5767 21.8083 13.7637 20.219 13.7637 18.1243C13.7637 15.3521 15.7302 12.144 17.7773 9.68677C19.5132 7.60669 20.7437 6.58862 21.2344 6.17114ZM22.8164 16.0442C23.4573 17.4358 24.0762 19.3804 24.0762 21.8743C24.0762 23.427 22.8164 24.6868 21.2637 24.6868C19.7109 24.6868 18.4512 23.427 18.4512 21.8743C18.4512 20.3801 18.7405 19.1167 19.0078 18.2122C19.429 18.5894 19.9453 18.9739 20.707 18.9739C21.1538 18.9739 21.5786 18.7688 21.8496 18.5051C22.1206 18.2415 22.2744 17.9302 22.4062 17.6262C22.6187 17.1318 22.7285 16.5825 22.8164 16.0442Z" fill="white"/>
</g>
<defs>
<clipPath id="clip0_2063_3789">
<rect width="30" height="30" fill="white" transform="translate(0.638672 0.0627441)"/>
</clipPath>
</defs>
</svg>
