<svg width="60" height="61" viewBox="0 0 60 61" fill="none" xmlns="http://www.w3.org/2000/svg">
<path d="M37.4998 38.3985C34.6653 36.4212 31.218 35.2617 27.4998 35.2617C18.51 35.2617 11.1034 42.0402 10.1125 50.765C10.0423 51.3825 10.0073 51.6912 10.1305 51.9895C10.2314 52.2332 10.4498 52.4777 10.6808 52.6055C10.9631 52.7617 11.3087 52.7617 11.9998 52.7617H24.8616M34.9998 48.476L39.4998 52.7617L49.9998 42.7617M37.4998 17.7617C37.4998 23.2846 33.0228 27.7617 27.4998 27.7617C21.977 27.7617 17.4998 23.2846 17.4998 17.7617C17.4998 12.2389 21.977 7.76172 27.4998 7.76172C33.0228 7.76172 37.4998 12.2389 37.4998 17.7617Z" stroke="black" stroke-width="5" stroke-linecap="round" stroke-linejoin="round"/>
</svg>
