<svg width="12" height="17" viewBox="0 0 12 17" fill="none" xmlns="http://www.w3.org/2000/svg">
<path d="M1.83398 16L4.33398 12.6667M9.33398 16L7.66732 12.6667L5.16732 10.1667L6.00065 5.16667M6.00065 1.83333C6.00065 2.05435 6.08845 2.26631 6.24473 2.42259C6.40101 2.57887 6.61297 2.66667 6.83398 2.66667C7.055 2.66667 7.26696 2.57887 7.42324 2.42259C7.57952 2.26631 7.66732 2.05435 7.66732 1.83333C7.66732 1.61232 7.57952 1.40036 7.42324 1.24408C7.26696 1.0878 7.055 1 6.83398 1C6.61297 1 6.40101 1.0878 6.24473 1.24408C6.08845 1.40036 6.00065 1.61232 6.00065 1.83333Z" stroke="#509613" stroke-width="2" stroke-linecap="round" stroke-linejoin="round"/>
<path d="M1 8.50033L2.66667 6.00033L6 5.16699L8.5 7.66699L11 8.50033" stroke="#509613" stroke-width="2" stroke-linecap="round" stroke-linejoin="round"/>
</svg>
