<svg width="21" height="18" viewBox="0 0 21 18" fill="none" xmlns="http://www.w3.org/2000/svg">
<path fill-rule="evenodd" clip-rule="evenodd" d="M18.5865 5.38719C18.5319 5.38375 18.4724 5.38377 18.4108 5.38379L18.3954 5.3838H15.9775C13.9846 5.3838 12.2793 6.95255 12.2793 8.99828C12.2793 11.044 13.9846 12.6128 15.9775 12.6128H18.3954H18.4108C18.4724 12.6128 18.5319 12.6129 18.5865 12.6094C19.3961 12.5582 20.1119 11.9248 20.1722 11.0399C20.1761 10.9819 20.176 10.9194 20.176 10.8614V10.8457V7.15088V7.13515C20.176 7.07718 20.1761 7.01464 20.1722 6.95662C20.1119 6.07181 19.3961 5.43832 18.5865 5.38719ZM15.7632 9.96214C16.2762 9.96214 16.6922 9.53062 16.6922 8.99828C16.6922 8.46594 16.2762 8.03442 15.7632 8.03442C15.2501 8.03442 14.8341 8.46594 14.8341 8.99828C14.8341 9.53062 15.2501 9.96214 15.7632 9.96214Z" fill="#7AC143"/>
<path fill-rule="evenodd" clip-rule="evenodd" d="M18.4101 14.0585C18.5538 14.0548 18.6626 14.1879 18.6235 14.3263C18.4301 15.013 18.1229 15.5983 17.6302 16.0911C16.9088 16.8124 15.9941 17.1325 14.8641 17.2845C13.7661 17.4321 12.3631 17.4321 10.5917 17.4321H8.55522C6.78386 17.4321 5.38083 17.4321 4.28278 17.2845C3.15273 17.1325 2.23807 16.8124 1.51675 16.0911C0.79543 15.3698 0.475312 14.4551 0.323388 13.325C0.175753 12.227 0.175762 10.824 0.175782 9.05262V8.94389C0.175762 7.17254 0.175753 5.7695 0.323388 4.67146C0.475312 3.5414 0.79543 2.62675 1.51675 1.90542C2.23807 1.1841 3.15273 0.863984 4.28278 0.71206C5.38083 0.564425 6.78385 0.564434 8.55522 0.564454H10.5917C12.3631 0.564434 13.7661 0.564425 14.8641 0.71206C15.9941 0.863984 16.9088 1.1841 17.6302 1.90542C18.1229 2.39822 18.43 2.9835 18.6235 3.67019C18.6626 3.80858 18.5538 3.94171 18.4101 3.93797L15.9774 3.93798C13.2433 3.93798 10.8333 6.09791 10.8333 8.99826C10.8333 11.8986 13.2433 14.0585 15.9774 14.0585H18.4101ZM3.79027 4.41991C3.39103 4.41991 3.06737 4.74356 3.06737 5.1428C3.06737 5.54205 3.39103 5.8657 3.79027 5.8657H7.64572C8.04495 5.8657 8.36862 5.54205 8.36862 5.1428C8.36862 4.74356 8.04495 4.41991 7.64572 4.41991H3.79027Z" fill="white"/>
</svg>
