<?xml version="1.0" encoding="iso-8859-1"?>
<!-- Uploaded to: SVG Repo, www.svgrepo.com, Generator: SVG Repo Mixer Tools -->
<svg fill="#000000" height="800px" width="800px" version="1.1" id="Layer_1" xmlns="http://www.w3.org/2000/svg" xmlns:xlink="http://www.w3.org/1999/xlink" 
	 viewBox="0 0 511.999 511.999" xml:space="preserve">
<g>
	<g>
		<g>
			<path d="M416.142,0H95.857C83.343,0,73.394,10.515,74.07,22.995l25.317,468.363c0.625,11.575,10.194,20.64,21.786,20.64h269.651
				c11.593,0,21.161-9.065,21.788-20.64l25.317-468.363C438.602,10.502,428.643,0,416.142,0z M370.153,468.363H141.844v0
				l-15.062-278.645h125.952c10.148,50.193,54.603,88.1,107.744,88.1h19.975L370.153,468.363z M382.812,234.182h-22.335
				c-36.549,0-66.281-29.733-66.281-66.281c0-12.05-9.769-21.818-21.818-21.818H124.424l-5.538-102.445h274.226L382.812,234.182z"/>
			<circle cx="198.62" cy="275.392" r="19.398"/>
			<circle cx="198.62" cy="402.797" r="19.398"/>
			<circle cx="313.37" cy="339.102" r="19.398"/>
		</g>
	</g>
</g>
</svg>