<svg width="21" height="21" viewBox="0 0 21 21" fill="none" xmlns="http://www.w3.org/2000/svg">
<path fill-rule="evenodd" clip-rule="evenodd" d="M3.87437 10.4395C3.87437 6.52744 7.04568 3.35612 10.9577 3.35612C14.8697 3.35612 18.041 6.52744 18.041 10.4395C18.041 14.3515 14.8697 17.5228 10.9577 17.5228C9.56418 17.5228 8.26708 17.1213 7.17267 16.4279C6.96899 16.2989 6.71942 16.2644 6.48838 16.3333L4.08909 17.0494L4.99246 14.9355C5.09923 14.6857 5.07751 14.3995 4.93424 14.1687C4.26243 13.0861 3.87437 11.8094 3.87437 10.4395ZM10.9577 1.68945C6.12521 1.68945 2.2077 5.60696 2.2077 10.4395C2.2077 11.9712 2.60198 13.413 3.29489 14.6667L1.85808 18.0286C1.73106 18.3259 1.78736 18.6697 2.00253 18.9109C2.21771 19.1521 2.55295 19.2471 2.86268 19.1546L6.61219 18.0357C7.89306 18.7699 9.37743 19.1895 10.9577 19.1895C15.7902 19.1895 19.7077 15.272 19.7077 10.4395C19.7077 5.60696 15.7902 1.68945 10.9577 1.68945ZM12.8681 12.2581L11.7729 13.0295C11.26 12.7374 10.6929 12.3295 10.1241 11.7607C9.53277 11.1694 9.09437 10.5589 8.77112 9.99887L9.4671 9.40812C9.76577 9.15462 9.84752 8.72723 9.66352 8.38135L8.77672 6.71469C8.6573 6.49026 8.44198 6.33262 8.19198 6.28657C7.94196 6.24053 7.68461 6.31112 7.49308 6.47828L7.23015 6.70774C6.59788 7.25957 6.22393 8.16637 6.53386 9.08454C6.85517 10.0364 7.54088 11.5345 8.94562 12.9392C10.4569 14.4505 11.9921 15.0457 12.8898 15.2769C13.6132 15.463 14.2977 15.2135 14.78 14.8205L15.2729 14.4188C15.4838 14.247 15.5975 13.9831 15.5777 13.7119C15.5578 13.4406 15.4068 13.1961 15.1731 13.0569L13.7745 12.2235C13.492 12.0553 13.137 12.0688 12.8681 12.2581Z" fill="black"/>
</svg>
