<svg width="36" height="30" viewBox="0 0 36 30" fill="none" xmlns="http://www.w3.org/2000/svg">
<path d="M18.2469 28.0822L17.5156 13.376L11.8281 11.751H2.07813C1.61771 11.751 1.23205 11.595 0.921131 11.283C0.610214 10.971 0.454214 10.5853 0.453131 10.126C0.452047 9.66665 0.608047 9.28099 0.921131 8.96899C1.23421 8.65699 1.61988 8.50099 2.07813 8.50099H10.2031L20.3594 1.22911C20.7115 0.985363 21.0906 0.890571 21.4969 0.944737C21.9031 0.998904 22.2552 1.18849 22.5531 1.51349C22.851 1.89265 22.9729 2.3054 22.9188 2.75174C22.8646 3.19807 22.6479 3.57074 22.2688 3.86974L16.9469 7.68849H21.5781L33.1969 0.985363C33.4948 0.795779 33.8268 0.741613 34.193 0.822863C34.5592 0.904113 34.8907 1.12078 35.1875 1.47286C35.4854 1.79786 35.6073 2.17053 35.5531 2.59086C35.499 3.0112 35.2958 3.35624 34.9438 3.62599L22.3906 13.376L21.6594 28.0822C21.6323 28.5156 21.4563 28.8812 21.1313 29.1791C20.8063 29.477 20.3865 29.626 19.8719 29.626C19.4385 29.626 19.0664 29.477 18.7555 29.1791C18.4446 28.8812 18.275 28.5156 18.2469 28.0822ZM8.57813 6.87599C7.68438 6.87599 6.91955 6.55803 6.28363 5.92211C5.64771 5.2862 5.32921 4.52082 5.32813 3.62599C5.32705 2.73115 5.64555 1.96632 6.28363 1.33149C6.92171 0.696654 7.68655 0.378154 8.57813 0.375988C9.46971 0.373821 10.2351 0.692321 10.8743 1.33149C11.5134 1.97065 11.8314 2.73549 11.8281 3.62599C11.8249 4.51649 11.5069 5.28186 10.8743 5.92211C10.2416 6.56236 9.47621 6.88032 8.57813 6.87599Z" fill="#01a809"/>
</svg>
