<?xml version="1.0" encoding="UTF-8" standalone="no"?>
<!DOCTYPE svg PUBLIC "-//W3C//DTD SVG 1.1//EN" "http://www.w3.org/Graphics/SVG/1.1/DTD/svg11.dtd">
<!-- Created with Vectornator (http://vectornator.io/) -->
<svg height="4000.0px" stroke-miterlimit="10" style="fill-rule:nonzero;clip-rule:evenodd;stroke-linecap:round;stroke-linejoin:round;" version="1.1" viewBox="0 0 6000 4000" width="6000.0px" xml:space="preserve" xmlns="http://www.w3.org/2000/svg" xmlns:xlink="http://www.w3.org/1999/xlink">
<defs/>
<g id="Layer-1">
<path d="M4506.95 2111.42L5016.98 2032.87L4224.21 3618.42L5809.76 3618.42L5980 3960L3639.94 3954.93C3639.94 3954.93 4067.92 3051.99 4516.69 2095.79" fill="#71c22c" fill-rule="nonzero" opacity="1" stroke="none"/>
<path d="M2486.54 2905.26L2133.98 2914.49L3094.5 1279.73L3453.7 1221.21L2486.54 2905.26Z" fill="#000000" fill-rule="nonzero" opacity="1" stroke="none"/>
<path d="M4245.37 1843.78L3862.54 1894.14L4451.12 757.726L4816.18 695.51L4245.37 1843.78Z" fill="#000000" fill-rule="nonzero" opacity="1" stroke="none"/>
<path d="M4561.14 1894.13L5263.61 406.388L3599.13 402.74L3252.84 80.5247L5801.48 89.3628L5046.71 1804.94" fill="#000000" fill-rule="nonzero" opacity="1" stroke="none"/>
<path d="M4224.21 2032.87L3290.59 3955.15L2847.47 3952.09L1449.48 50.9236L2045.08 163.84L3168.24 3435.82L3827.82 2072.51" fill="#71c22c" fill-rule="nonzero" opacity="1" stroke="none"/>
<path d="M2436.09 3060.21L1629.6 3955.15L1209.87 3952.05L62.123 50.9236L639.289 155.102L1666.03 3499.42L2083 3068.82" fill="#71c22c" fill-rule="nonzero" opacity="1" stroke="none"/>
<path d="M1385.07 3012.14L1159.11 3289.7L605.311 1461.67L806.402 1158.33L1385.07 3012.14Z" fill="#000000" fill-rule="nonzero" opacity="1" stroke="none"/>
<path d="M2831.44 2798.15L2654.42 3054.54L2013.06 1255.35L2199.28 942.671L2831.44 2798.15Z" fill="#000000" fill-rule="nonzero" opacity="1" stroke="none"/>
</g>
</svg>
