<?xml version="1.0" encoding="UTF-8" standalone="no"?>
<!DOCTYPE svg PUBLIC "-//W3C//DTD SVG 1.1//EN" "http://www.w3.org/Graphics/SVG/1.1/DTD/svg11.dtd">
<!-- Created with Vectornator (http://vectornator.io/) -->
<svg height="981.5670465009016pt" stroke-miterlimit="10" style="fill-rule:nonzero;clip-rule:evenodd;stroke-linecap:round;stroke-linejoin:round;" version="1.1" viewBox="0 0 4591.42 981.567" width="4591.423595375815pt" xml:space="preserve" xmlns="http://www.w3.org/2000/svg" xmlns:xlink="http://www.w3.org/1999/xlink">
<defs/>
<g id="Layer-1">
<g opacity="1">
<g fill="#000000" opacity="1" stroke="none">
<path d="M67.0635 172.973L67.0635 174.973C95.0635 230.973 101.064 287.973 106.064 368.973L143.064 904.973L263.064 904.973L483.064 434.973L512.064 904.973L632.064 904.973L888.064 365.973C929.064 277.973 969.064 208.973 1015.06 173.973L1015.06 171.973L833.064 171.973L833.064 173.973C866.064 215.973 877.064 286.973 825.064 395.973L673.064 715.973L654.064 390.973C650.064 289.973 657.064 229.973 696.064 174.973L696.064 172.973L434.064 172.973L434.064 174.973C463.064 224.973 473.064 274.973 477.064 341.973L303.064 715.973L281.064 391.973C275.064 291.973 287.064 229.973 323.064 174.973L323.064 172.973L67.0635 172.973Z"/>
<path d="M1055.84 651.973L1055.84 636.973C1278.84 626.973 1353.84 544.973 1353.84 467.973C1353.84 395.973 1293.84 372.973 1226.84 372.973C1056.84 372.973 909.835 527.973 909.835 714.973C909.835 835.973 969.835 920.973 1082.84 920.973C1176.84 920.973 1262.84 861.973 1301.84 730.973L1287.84 724.973C1252.84 782.973 1204.84 803.973 1161.84 803.973C1100.84 803.973 1055.84 759.973 1055.84 651.973ZM1196.84 410.973C1217.84 410.973 1232.84 420.973 1232.84 458.973C1232.84 526.973 1178.84 580.973 1058.84 603.973C1073.84 491.973 1136.84 410.973 1196.84 410.973Z"/>
<path d="M1554.61 904.973L1554.61 902.973C1544.61 853.973 1547.61 807.973 1572.61 692.973L1704.61 98.973L1478.61 152.973L1478.61 154.973C1520.61 213.973 1516.61 269.973 1496.61 357.973L1422.61 694.973C1398.61 802.973 1383.61 853.973 1350.61 902.973L1350.61 904.973L1554.61 904.973Z"/>
<path d="M1861.38 904.973L1861.38 902.973C1851.38 853.973 1854.38 807.973 1879.38 692.973L2011.38 98.973L1785.38 152.973L1785.38 154.973C1827.38 213.973 1823.38 269.973 1803.38 357.973L1729.38 694.973C1705.38 802.973 1690.38 853.973 1657.38 902.973L1657.38 904.973L1861.38 904.973Z"/>
<path d="M1968.15 904.973L2168.15 904.973L2168.15 902.973C2158.15 853.973 2163.15 807.973 2179.15 737.973L2179.15 736.973C2237.15 595.973 2301.15 484.973 2352.15 484.973C2380.15 484.973 2386.15 512.973 2376.15 551.973L2296.15 914.973L2519.15 898.973L2519.15 896.973C2471.15 863.973 2468.15 826.973 2487.15 746.973L2530.15 538.973C2553.15 424.973 2500.15 372.973 2433.15 372.973C2334.15 372.973 2256.15 481.973 2203.15 594.973L2252.15 366.973L2028.15 419.973L2028.15 421.973C2067.15 463.973 2073.15 528.973 2056.15 602.973L2036.15 694.973C2015.15 788.973 2000.15 843.973 1968.15 902.973L1968.15 904.973Z"/>
<path d="M2757.92 651.973L2757.92 636.973C2980.92 626.973 3055.92 544.973 3055.92 467.973C3055.92 395.973 2995.92 372.973 2928.92 372.973C2758.92 372.973 2611.92 527.973 2611.92 714.973C2611.92 835.973 2671.92 920.973 2784.92 920.973C2878.92 920.973 2964.92 861.973 3003.92 730.973L2989.92 724.973C2954.92 782.973 2906.92 803.973 2863.92 803.973C2802.92 803.973 2757.92 759.973 2757.92 651.973ZM2898.92 410.973C2919.92 410.973 2934.92 420.973 2934.92 458.973C2934.92 526.973 2880.92 580.973 2760.92 603.973C2775.92 491.973 2838.92 410.973 2898.92 410.973Z"/>
<path d="M3453.69 383.973C3427.69 376.973 3387.69 372.973 3355.69 372.973C3220.69 372.973 3140.69 436.973 3140.69 541.973C3140.69 691.973 3309.69 723.973 3309.69 823.973C3309.69 860.973 3285.69 881.973 3251.69 881.973C3199.69 881.973 3147.69 830.973 3096.69 730.973L3084.69 732.973L3090.69 895.973C3117.69 908.973 3164.69 920.973 3218.69 920.973C3338.69 920.973 3433.69 859.973 3433.69 733.973C3433.69 565.973 3267.69 550.973 3267.69 462.973C3267.69 430.973 3288.69 410.973 3323.69 410.973C3364.69 410.973 3397.69 438.973 3447.69 518.973L3459.69 515.973L3453.69 383.973Z"/>
<path d="M3869.46 383.973C3843.46 376.973 3803.46 372.973 3771.46 372.973C3636.46 372.973 3556.46 436.973 3556.46 541.973C3556.46 691.973 3725.46 723.973 3725.46 823.973C3725.46 860.973 3701.46 881.973 3667.46 881.973C3615.46 881.973 3563.46 830.973 3512.46 730.973L3500.46 732.973L3506.46 895.973C3533.46 908.973 3580.46 920.973 3634.46 920.973C3754.46 920.973 3849.46 859.973 3849.46 733.973C3849.46 565.973 3683.46 550.973 3683.46 462.973C3683.46 430.973 3704.46 410.973 3739.46 410.973C3780.46 410.973 3813.46 438.973 3863.46 518.973L3875.46 515.973L3869.46 383.973Z"/>
</g>
<path d="M3865.88 921.284L4373.88 921.284L4453.88 680.284L4432.88 671.284C4378.88 744.284 4267.88 874.284 4185.88 877.284L4069.88 882.284L4550.88 206.284L4550.88 189.284L4071.88 189.284L3992.88 401.284L4013.88 410.284C4065.88 346.284 4164.88 237.284 4247.88 233.284L4346.88 228.284L3865.88 904.284L3865.88 921.284Z" fill="#71c22c" opacity="1" stroke="none"/>
</g>
</g>
</svg>
