<svg width="16" height="16" viewBox="0 0 16 16" fill="none" xmlns="http://www.w3.org/2000/svg">
<path d="M15.6696 2.51093C15.5807 2.02294 15.4024 1.5773 15.1529 1.21957C14.9034 0.86183 14.5918 0.604805 14.2497 0.474761C12.1758 0.126465 10.0882 -0.0304901 8 0.0048792C5.91184 -0.0304901 3.82426 0.126465 1.75032 0.474761C1.40826 0.604805 1.09656 0.86183 0.847095 1.21957C0.597618 1.5773 0.419317 2.02294 0.330392 2.51093C0.103213 4.32488 -0.00724144 6.16459 0.000408175 8.0071C-0.00762142 9.85915 0.102833 11.7084 0.330392 13.5318C0.423927 14.0119 0.604278 14.4486 0.853445 14.7985C1.1026 15.1483 1.41186 15.3989 1.75032 15.5252C3.82426 15.8735 5.91184 16.0306 8 15.9951C10.0882 16.0306 12.1758 15.8735 14.2497 15.5252C14.5882 15.3989 14.8975 15.1483 15.1465 14.7985C15.3957 14.4486 15.5761 14.0119 15.6696 13.5318C15.8972 11.7084 16.0076 9.85915 15.9996 8.0071C16.0073 6.16459 15.8968 4.32488 15.6696 2.51093ZM6.36008 11.4102V4.63251L10.5499 8.0071L6.36008 11.396V11.4102Z" fill="black"/>
</svg>
