<svg width="19" height="20" viewBox="0 0 19 20" fill="none" xmlns="http://www.w3.org/2000/svg">
<rect y="0.5" width="19" height="19" rx="2.5" fill="#01a809"/>
<path d="M14.9329 7.26582C14.87 7.02306 14.7437 6.80138 14.5669 6.62342C14.3902 6.44545 14.1694 6.31759 13.9271 6.2529C12.458 6.07964 10.9792 6.00156 9.50002 6.01915C8.02083 6.00156 6.54205 6.07964 5.07294 6.2529C4.83063 6.31759 4.60984 6.44545 4.43312 6.62342C4.2564 6.80138 4.1301 7.02306 4.06711 7.26582C3.90618 8.1682 3.82794 9.08339 3.83336 9.99998C3.82767 10.9213 3.90591 11.8412 4.06711 12.7483C4.13337 12.9872 4.26112 13.2044 4.43762 13.3784C4.61412 13.5525 4.83318 13.6771 5.07294 13.74C6.54205 13.9132 8.02083 13.9914 9.50002 13.9737C10.9792 13.9914 12.458 13.9132 13.9271 13.74C14.1669 13.6771 14.386 13.5525 14.5624 13.3784C14.7389 13.2044 14.8667 12.9872 14.9329 12.7483C15.0942 11.8412 15.1724 10.9213 15.1667 9.99998C15.1721 9.08339 15.0939 8.1682 14.9329 7.26582ZM8.33835 11.6929V8.32123L11.3063 9.99998L8.33835 11.6858V11.6929Z" fill="black"/>
</svg>
