<svg width="12" height="9" viewBox="0 0 12 9" fill="none" xmlns="http://www.w3.org/2000/svg">
<path d="M11.7669 2.0627C11.7039 1.81994 11.5776 1.59825 11.4009 1.42029C11.2242 1.24233 11.0034 1.11447 10.7611 1.04978C9.29197 0.87651 7.81318 0.798431 6.33397 0.816026C4.85479 0.798431 3.37601 0.87651 1.9069 1.04978C1.66459 1.11447 1.44379 1.24233 1.26708 1.42029C1.09036 1.59825 0.964054 1.81994 0.901062 2.0627C0.740136 2.96507 0.661893 3.88027 0.667312 4.79685C0.661624 5.71818 0.739866 6.63809 0.901062 7.54519C0.967319 7.78404 1.09507 8.00128 1.27158 8.17532C1.44807 8.34936 1.66714 8.47402 1.9069 8.53685C3.37601 8.71011 4.85479 8.78824 6.33397 8.7706C7.81318 8.78824 9.29197 8.71011 10.7611 8.53685C11.0008 8.47402 11.2199 8.34936 11.3964 8.17532C11.5729 8.00128 11.7007 7.78404 11.7669 7.54519C11.9281 6.63809 12.0063 5.71818 12.0006 4.79685C12.0061 3.88027 11.9278 2.96507 11.7669 2.0627ZM5.1723 6.48977V3.11811L8.14022 4.79685L5.1723 6.48269V6.48977Z" fill="white"/>
</svg>
